<?xml version="1.0" encoding="utf-8" standalone="no"?>
<!DOCTYPE svg PUBLIC "-//W3C//DTD SVG 1.1//EN"
  "http://www.w3.org/Graphics/SVG/1.1/DTD/svg11.dtd">
<!-- Created with matplotlib (https://matplotlib.org/) -->
<svg height="576pt" version="1.1" viewBox="0 0 936 576" width="936pt" xmlns="http://www.w3.org/2000/svg" xmlns:xlink="http://www.w3.org/1999/xlink">
 <defs>
  <style type="text/css">
*{stroke-linecap:butt;stroke-linejoin:round;}
  </style>
 </defs>
 <g id="figure_1">
  <g id="patch_1">
   <path d="M 0 576 
L 936 576 
L 936 0 
L 0 0 
z
" style="fill:#ffffff;"/>
  </g>
  <g id="axes_1">
   <g id="patch_2">
    <path d="M 117 512.64 
L 842.4 512.64 
L 842.4 69.12 
L 117 69.12 
z
" style="fill:#ffffff;"/>
   </g>
   <g id="line2d_1">
    <path clip-path="url(#p2cc2ed0b2f)" d="M 117 512.64 
L 122.777203 485.266227 
L 128.554405 457.122872 
L 134.331608 428.1883 
L 140.10881 398.440267 
L 145.886013 367.855902 
L 151.663216 336.411694 
L 157.440418 304.083469 
L 163.217621 270.846374 
L 168.994823 236.674856 
L 174.772026 201.542647 
L 180.549228 165.422737 
L 186.326431 128.287358 
L 192.103634 90.107961 
L 197.880836 50.855196 
L 205.270322 -1 
L 205.270322 -1 
" style="fill:none;stroke:#b2b2b2;stroke-dasharray:1.5,2.475;stroke-dashoffset:0;stroke-width:1.5;"/>
   </g>
   <g id="line2d_2">
    <path clip-path="url(#p2cc2ed0b2f)" d="M 117 512.64 
L 125.665804 492.180986 
L 134.331608 471.292085 
L 142.997412 449.964264 
L 151.663216 428.1883 
L 160.329019 405.954777 
L 168.994823 383.25408 
L 177.660627 360.076393 
L 186.326431 336.411694 
L 194.992235 312.249749 
L 203.658039 287.58011 
L 212.323843 262.39211 
L 220.989647 236.674856 
L 229.65545 210.417229 
L 238.321254 183.607872 
L 246.987058 156.235194 
L 255.652862 128.287358 
L 264.318666 99.752278 
L 272.98447 70.617616 
L 281.650274 40.870773 
L 290.316078 10.498885 
L 293.549461 -1 
L 293.549461 -1 
" style="fill:none;stroke:#b2b2b2;stroke-dasharray:1.5,2.475;stroke-dashoffset:0;stroke-width:1.5;"/>
   </g>
   <g id="line2d_3">
    <path clip-path="url(#p2cc2ed0b2f)" d="M 117 512.64 
L 128.554405 494.475276 
L 140.10881 475.971674 
L 151.663216 457.122872 
L 163.217621 437.922431 
L 174.772026 418.36379 
L 186.326431 398.440267 
L 197.880836 378.145054 
L 209.435241 357.471218 
L 220.989647 336.411694 
L 232.544052 314.959288 
L 244.098457 293.10667 
L 255.652862 270.846374 
L 267.207267 248.170794 
L 278.761672 225.072182 
L 290.316078 201.542647 
L 301.870483 177.57415 
L 313.424888 153.158501 
L 324.979293 128.287358 
L 336.533698 102.952224 
L 348.088104 77.144442 
L 359.642509 50.855196 
L 371.196914 24.075502 
L 381.824319 -1 
L 381.824319 -1 
" style="fill:none;stroke:#b2b2b2;stroke-dasharray:1.5,2.475;stroke-dashoffset:0;stroke-width:1.5;"/>
   </g>
   <g id="line2d_4">
    <path clip-path="url(#p2cc2ed0b2f)" d="M 117 512.64 
L 140.10881 497.090838 
L 163.217621 481.293363 
L 186.326431 465.24361 
L 209.435241 448.937549 
L 232.544052 432.371089 
L 255.652862 415.54007 
L 278.761672 398.440267 
L 301.870483 381.067388 
L 324.979293 363.417073 
L 348.088104 345.48489 
L 371.196914 327.266338 
L 394.305724 308.756845 
L 417.414535 289.951763 
L 440.523345 270.846374 
L 463.632155 251.43588 
L 486.740966 231.715409 
L 509.849776 211.680012 
L 532.958586 191.324659 
L 556.067397 170.64424 
L 579.176207 149.633564 
L 602.285017 128.287358 
L 625.393828 106.600263 
L 648.502638 84.566835 
L 668.722847 64.999138 
L 688.943056 45.158287 
L 709.163265 25.040468 
L 729.383474 4.641814 
L 734.926589 -1 
L 734.926589 -1 
" style="fill:none;stroke:#b2b2b2;stroke-dasharray:1.5,2.475;stroke-dashoffset:0;stroke-width:1.5;"/>
   </g>
   <g id="matplotlib.axis_1">
    <g id="xtick_1">
     <g id="line2d_5">
      <path clip-path="url(#p2cc2ed0b2f)" d="M 117 512.64 
L 117 69.12 
" style="fill:none;stroke:#e6e6e6;stroke-linecap:square;stroke-width:0.8;"/>
     </g>
     <g id="line2d_6">
      <defs>
       <path d="M 0 0 
L 0 3.5 
" id="m755809514e" style="stroke:#666666;stroke-width:0.8;"/>
      </defs>
      <g>
       <use style="fill:#666666;stroke:#666666;stroke-width:0.8;" x="117" xlink:href="#m755809514e" y="512.64"/>
      </g>
     </g>
     <g id="text_1">
      <!-- 0 -->
      <defs>
       <path d="M 31.78125 66.40625 
Q 24.171875 66.40625 20.328125 58.90625 
Q 16.5 51.421875 16.5 36.375 
Q 16.5 21.390625 20.328125 13.890625 
Q 24.171875 6.390625 31.78125 6.390625 
Q 39.453125 6.390625 43.28125 13.890625 
Q 47.125 21.390625 47.125 36.375 
Q 47.125 51.421875 43.28125 58.90625 
Q 39.453125 66.40625 31.78125 66.40625 
z
M 31.78125 74.21875 
Q 44.046875 74.21875 50.515625 64.515625 
Q 56.984375 54.828125 56.984375 36.375 
Q 56.984375 17.96875 50.515625 8.265625 
Q 44.046875 -1.421875 31.78125 -1.421875 
Q 19.53125 -1.421875 13.0625 8.265625 
Q 6.59375 17.96875 6.59375 36.375 
Q 6.59375 54.828125 13.0625 64.515625 
Q 19.53125 74.21875 31.78125 74.21875 
z
" id="DejaVuSans-48"/>
      </defs>
      <g style="fill:#666666;" transform="translate(113.81875 527.238438)scale(0.1 -0.1)">
       <use xlink:href="#DejaVuSans-48"/>
      </g>
     </g>
    </g>
    <g id="xtick_2">
     <g id="line2d_7">
      <path clip-path="url(#p2cc2ed0b2f)" d="M 319.202091 512.64 
L 319.202091 69.12 
" style="fill:none;stroke:#e6e6e6;stroke-linecap:square;stroke-width:0.8;"/>
     </g>
     <g id="line2d_8">
      <g>
       <use style="fill:#666666;stroke:#666666;stroke-width:0.8;" x="319.202091" xlink:href="#m755809514e" y="512.64"/>
      </g>
     </g>
     <g id="text_2">
      <!-- 7 -->
      <defs>
       <path d="M 8.203125 72.90625 
L 55.078125 72.90625 
L 55.078125 68.703125 
L 28.609375 0 
L 18.3125 0 
L 43.21875 64.59375 
L 8.203125 64.59375 
z
" id="DejaVuSans-55"/>
      </defs>
      <g style="fill:#666666;" transform="translate(316.020841 527.238438)scale(0.1 -0.1)">
       <use xlink:href="#DejaVuSans-55"/>
      </g>
     </g>
    </g>
    <g id="xtick_3">
     <g id="line2d_9">
      <path clip-path="url(#p2cc2ed0b2f)" d="M 521.404181 512.64 
L 521.404181 69.12 
" style="fill:none;stroke:#e6e6e6;stroke-linecap:square;stroke-width:0.8;"/>
     </g>
     <g id="line2d_10">
      <g>
       <use style="fill:#666666;stroke:#666666;stroke-width:0.8;" x="521.404181" xlink:href="#m755809514e" y="512.64"/>
      </g>
     </g>
     <g id="text_3">
      <!-- 14 -->
      <defs>
       <path d="M 12.40625 8.296875 
L 28.515625 8.296875 
L 28.515625 63.921875 
L 10.984375 60.40625 
L 10.984375 69.390625 
L 28.421875 72.90625 
L 38.28125 72.90625 
L 38.28125 8.296875 
L 54.390625 8.296875 
L 54.390625 0 
L 12.40625 0 
z
" id="DejaVuSans-49"/>
       <path d="M 37.796875 64.3125 
L 12.890625 25.390625 
L 37.796875 25.390625 
z
M 35.203125 72.90625 
L 47.609375 72.90625 
L 47.609375 25.390625 
L 58.015625 25.390625 
L 58.015625 17.1875 
L 47.609375 17.1875 
L 47.609375 0 
L 37.796875 0 
L 37.796875 17.1875 
L 4.890625 17.1875 
L 4.890625 26.703125 
z
" id="DejaVuSans-52"/>
      </defs>
      <g style="fill:#666666;" transform="translate(515.041681 527.238438)scale(0.1 -0.1)">
       <use xlink:href="#DejaVuSans-49"/>
       <use x="63.623047" xlink:href="#DejaVuSans-52"/>
      </g>
     </g>
    </g>
    <g id="xtick_4">
     <g id="line2d_11">
      <path clip-path="url(#p2cc2ed0b2f)" d="M 723.606272 512.64 
L 723.606272 69.12 
" style="fill:none;stroke:#e6e6e6;stroke-linecap:square;stroke-width:0.8;"/>
     </g>
     <g id="line2d_12">
      <g>
       <use style="fill:#666666;stroke:#666666;stroke-width:0.8;" x="723.606272" xlink:href="#m755809514e" y="512.64"/>
      </g>
     </g>
     <g id="text_4">
      <!-- 21 -->
      <defs>
       <path d="M 19.1875 8.296875 
L 53.609375 8.296875 
L 53.609375 0 
L 7.328125 0 
L 7.328125 8.296875 
Q 12.9375 14.109375 22.625 23.890625 
Q 32.328125 33.6875 34.8125 36.53125 
Q 39.546875 41.84375 41.421875 45.53125 
Q 43.3125 49.21875 43.3125 52.78125 
Q 43.3125 58.59375 39.234375 62.25 
Q 35.15625 65.921875 28.609375 65.921875 
Q 23.96875 65.921875 18.8125 64.3125 
Q 13.671875 62.703125 7.8125 59.421875 
L 7.8125 69.390625 
Q 13.765625 71.78125 18.9375 73 
Q 24.125 74.21875 28.421875 74.21875 
Q 39.75 74.21875 46.484375 68.546875 
Q 53.21875 62.890625 53.21875 53.421875 
Q 53.21875 48.921875 51.53125 44.890625 
Q 49.859375 40.875 45.40625 35.40625 
Q 44.1875 33.984375 37.640625 27.21875 
Q 31.109375 20.453125 19.1875 8.296875 
z
" id="DejaVuSans-50"/>
      </defs>
      <g style="fill:#666666;" transform="translate(717.243772 527.238438)scale(0.1 -0.1)">
       <use xlink:href="#DejaVuSans-50"/>
       <use x="63.623047" xlink:href="#DejaVuSans-49"/>
      </g>
     </g>
    </g>
    <g id="text_5">
     <!-- Days since 100 deaths -->
     <defs>
      <path d="M 19.671875 64.796875 
L 19.671875 8.109375 
L 31.59375 8.109375 
Q 46.6875 8.109375 53.6875 14.9375 
Q 60.6875 21.78125 60.6875 36.53125 
Q 60.6875 51.171875 53.6875 57.984375 
Q 46.6875 64.796875 31.59375 64.796875 
z
M 9.8125 72.90625 
L 30.078125 72.90625 
Q 51.265625 72.90625 61.171875 64.09375 
Q 71.09375 55.28125 71.09375 36.53125 
Q 71.09375 17.671875 61.125 8.828125 
Q 51.171875 0 30.078125 0 
L 9.8125 0 
z
" id="DejaVuSans-68"/>
      <path d="M 34.28125 27.484375 
Q 23.390625 27.484375 19.1875 25 
Q 14.984375 22.515625 14.984375 16.5 
Q 14.984375 11.71875 18.140625 8.90625 
Q 21.296875 6.109375 26.703125 6.109375 
Q 34.1875 6.109375 38.703125 11.40625 
Q 43.21875 16.703125 43.21875 25.484375 
L 43.21875 27.484375 
z
M 52.203125 31.203125 
L 52.203125 0 
L 43.21875 0 
L 43.21875 8.296875 
Q 40.140625 3.328125 35.546875 0.953125 
Q 30.953125 -1.421875 24.3125 -1.421875 
Q 15.921875 -1.421875 10.953125 3.296875 
Q 6 8.015625 6 15.921875 
Q 6 25.140625 12.171875 29.828125 
Q 18.359375 34.515625 30.609375 34.515625 
L 43.21875 34.515625 
L 43.21875 35.40625 
Q 43.21875 41.609375 39.140625 45 
Q 35.0625 48.390625 27.6875 48.390625 
Q 23 48.390625 18.546875 47.265625 
Q 14.109375 46.140625 10.015625 43.890625 
L 10.015625 52.203125 
Q 14.9375 54.109375 19.578125 55.046875 
Q 24.21875 56 28.609375 56 
Q 40.484375 56 46.34375 49.84375 
Q 52.203125 43.703125 52.203125 31.203125 
z
" id="DejaVuSans-97"/>
      <path d="M 32.171875 -5.078125 
Q 28.375 -14.84375 24.75 -17.8125 
Q 21.140625 -20.796875 15.09375 -20.796875 
L 7.90625 -20.796875 
L 7.90625 -13.28125 
L 13.1875 -13.28125 
Q 16.890625 -13.28125 18.9375 -11.515625 
Q 21 -9.765625 23.484375 -3.21875 
L 25.09375 0.875 
L 2.984375 54.6875 
L 12.5 54.6875 
L 29.59375 11.921875 
L 46.6875 54.6875 
L 56.203125 54.6875 
z
" id="DejaVuSans-121"/>
      <path d="M 44.28125 53.078125 
L 44.28125 44.578125 
Q 40.484375 46.53125 36.375 47.5 
Q 32.28125 48.484375 27.875 48.484375 
Q 21.1875 48.484375 17.84375 46.4375 
Q 14.5 44.390625 14.5 40.28125 
Q 14.5 37.15625 16.890625 35.375 
Q 19.28125 33.59375 26.515625 31.984375 
L 29.59375 31.296875 
Q 39.15625 29.25 43.1875 25.515625 
Q 47.21875 21.78125 47.21875 15.09375 
Q 47.21875 7.46875 41.1875 3.015625 
Q 35.15625 -1.421875 24.609375 -1.421875 
Q 20.21875 -1.421875 15.453125 -0.5625 
Q 10.6875 0.296875 5.421875 2 
L 5.421875 11.28125 
Q 10.40625 8.6875 15.234375 7.390625 
Q 20.0625 6.109375 24.8125 6.109375 
Q 31.15625 6.109375 34.5625 8.28125 
Q 37.984375 10.453125 37.984375 14.40625 
Q 37.984375 18.0625 35.515625 20.015625 
Q 33.0625 21.96875 24.703125 23.78125 
L 21.578125 24.515625 
Q 13.234375 26.265625 9.515625 29.90625 
Q 5.8125 33.546875 5.8125 39.890625 
Q 5.8125 47.609375 11.28125 51.796875 
Q 16.75 56 26.8125 56 
Q 31.78125 56 36.171875 55.265625 
Q 40.578125 54.546875 44.28125 53.078125 
z
" id="DejaVuSans-115"/>
      <path id="DejaVuSans-32"/>
      <path d="M 9.421875 54.6875 
L 18.40625 54.6875 
L 18.40625 0 
L 9.421875 0 
z
M 9.421875 75.984375 
L 18.40625 75.984375 
L 18.40625 64.59375 
L 9.421875 64.59375 
z
" id="DejaVuSans-105"/>
      <path d="M 54.890625 33.015625 
L 54.890625 0 
L 45.90625 0 
L 45.90625 32.71875 
Q 45.90625 40.484375 42.875 44.328125 
Q 39.84375 48.1875 33.796875 48.1875 
Q 26.515625 48.1875 22.3125 43.546875 
Q 18.109375 38.921875 18.109375 30.90625 
L 18.109375 0 
L 9.078125 0 
L 9.078125 54.6875 
L 18.109375 54.6875 
L 18.109375 46.1875 
Q 21.34375 51.125 25.703125 53.5625 
Q 30.078125 56 35.796875 56 
Q 45.21875 56 50.046875 50.171875 
Q 54.890625 44.34375 54.890625 33.015625 
z
" id="DejaVuSans-110"/>
      <path d="M 48.78125 52.59375 
L 48.78125 44.1875 
Q 44.96875 46.296875 41.140625 47.34375 
Q 37.3125 48.390625 33.40625 48.390625 
Q 24.65625 48.390625 19.8125 42.84375 
Q 14.984375 37.3125 14.984375 27.296875 
Q 14.984375 17.28125 19.8125 11.734375 
Q 24.65625 6.203125 33.40625 6.203125 
Q 37.3125 6.203125 41.140625 7.25 
Q 44.96875 8.296875 48.78125 10.40625 
L 48.78125 2.09375 
Q 45.015625 0.34375 40.984375 -0.53125 
Q 36.96875 -1.421875 32.421875 -1.421875 
Q 20.0625 -1.421875 12.78125 6.34375 
Q 5.515625 14.109375 5.515625 27.296875 
Q 5.515625 40.671875 12.859375 48.328125 
Q 20.21875 56 33.015625 56 
Q 37.15625 56 41.109375 55.140625 
Q 45.0625 54.296875 48.78125 52.59375 
z
" id="DejaVuSans-99"/>
      <path d="M 56.203125 29.59375 
L 56.203125 25.203125 
L 14.890625 25.203125 
Q 15.484375 15.921875 20.484375 11.0625 
Q 25.484375 6.203125 34.421875 6.203125 
Q 39.59375 6.203125 44.453125 7.46875 
Q 49.3125 8.734375 54.109375 11.28125 
L 54.109375 2.78125 
Q 49.265625 0.734375 44.1875 -0.34375 
Q 39.109375 -1.421875 33.890625 -1.421875 
Q 20.796875 -1.421875 13.15625 6.1875 
Q 5.515625 13.8125 5.515625 26.8125 
Q 5.515625 40.234375 12.765625 48.109375 
Q 20.015625 56 32.328125 56 
Q 43.359375 56 49.78125 48.890625 
Q 56.203125 41.796875 56.203125 29.59375 
z
M 47.21875 32.234375 
Q 47.125 39.59375 43.09375 43.984375 
Q 39.0625 48.390625 32.421875 48.390625 
Q 24.90625 48.390625 20.390625 44.140625 
Q 15.875 39.890625 15.1875 32.171875 
z
" id="DejaVuSans-101"/>
      <path d="M 45.40625 46.390625 
L 45.40625 75.984375 
L 54.390625 75.984375 
L 54.390625 0 
L 45.40625 0 
L 45.40625 8.203125 
Q 42.578125 3.328125 38.25 0.953125 
Q 33.9375 -1.421875 27.875 -1.421875 
Q 17.96875 -1.421875 11.734375 6.484375 
Q 5.515625 14.40625 5.515625 27.296875 
Q 5.515625 40.1875 11.734375 48.09375 
Q 17.96875 56 27.875 56 
Q 33.9375 56 38.25 53.625 
Q 42.578125 51.265625 45.40625 46.390625 
z
M 14.796875 27.296875 
Q 14.796875 17.390625 18.875 11.75 
Q 22.953125 6.109375 30.078125 6.109375 
Q 37.203125 6.109375 41.296875 11.75 
Q 45.40625 17.390625 45.40625 27.296875 
Q 45.40625 37.203125 41.296875 42.84375 
Q 37.203125 48.484375 30.078125 48.484375 
Q 22.953125 48.484375 18.875 42.84375 
Q 14.796875 37.203125 14.796875 27.296875 
z
" id="DejaVuSans-100"/>
      <path d="M 18.3125 70.21875 
L 18.3125 54.6875 
L 36.8125 54.6875 
L 36.8125 47.703125 
L 18.3125 47.703125 
L 18.3125 18.015625 
Q 18.3125 11.328125 20.140625 9.421875 
Q 21.96875 7.515625 27.59375 7.515625 
L 36.8125 7.515625 
L 36.8125 0 
L 27.59375 0 
Q 17.1875 0 13.234375 3.875 
Q 9.28125 7.765625 9.28125 18.015625 
L 9.28125 47.703125 
L 2.6875 47.703125 
L 2.6875 54.6875 
L 9.28125 54.6875 
L 9.28125 70.21875 
z
" id="DejaVuSans-116"/>
      <path d="M 54.890625 33.015625 
L 54.890625 0 
L 45.90625 0 
L 45.90625 32.71875 
Q 45.90625 40.484375 42.875 44.328125 
Q 39.84375 48.1875 33.796875 48.1875 
Q 26.515625 48.1875 22.3125 43.546875 
Q 18.109375 38.921875 18.109375 30.90625 
L 18.109375 0 
L 9.078125 0 
L 9.078125 75.984375 
L 18.109375 75.984375 
L 18.109375 46.1875 
Q 21.34375 51.125 25.703125 53.5625 
Q 30.078125 56 35.796875 56 
Q 45.21875 56 50.046875 50.171875 
Q 54.890625 44.34375 54.890625 33.015625 
z
" id="DejaVuSans-104"/>
     </defs>
     <g style="fill:#666666;" transform="translate(422.874219 540.916563)scale(0.1 -0.1)">
      <use xlink:href="#DejaVuSans-68"/>
      <use x="77.001953" xlink:href="#DejaVuSans-97"/>
      <use x="138.28125" xlink:href="#DejaVuSans-121"/>
      <use x="197.460938" xlink:href="#DejaVuSans-115"/>
      <use x="249.560547" xlink:href="#DejaVuSans-32"/>
      <use x="281.347656" xlink:href="#DejaVuSans-115"/>
      <use x="333.447266" xlink:href="#DejaVuSans-105"/>
      <use x="361.230469" xlink:href="#DejaVuSans-110"/>
      <use x="424.609375" xlink:href="#DejaVuSans-99"/>
      <use x="479.589844" xlink:href="#DejaVuSans-101"/>
      <use x="541.113281" xlink:href="#DejaVuSans-32"/>
      <use x="572.900391" xlink:href="#DejaVuSans-49"/>
      <use x="636.523438" xlink:href="#DejaVuSans-48"/>
      <use x="700.146484" xlink:href="#DejaVuSans-48"/>
      <use x="763.769531" xlink:href="#DejaVuSans-32"/>
      <use x="795.556641" xlink:href="#DejaVuSans-100"/>
      <use x="859.033203" xlink:href="#DejaVuSans-101"/>
      <use x="920.556641" xlink:href="#DejaVuSans-97"/>
      <use x="981.835938" xlink:href="#DejaVuSans-116"/>
      <use x="1021.044922" xlink:href="#DejaVuSans-104"/>
      <use x="1084.423828" xlink:href="#DejaVuSans-115"/>
     </g>
    </g>
   </g>
   <g id="matplotlib.axis_2">
    <g id="ytick_1">
     <g id="line2d_13">
      <path clip-path="url(#p2cc2ed0b2f)" d="M 117 512.64 
L 842.4 512.64 
" style="fill:none;stroke:#e6e6e6;stroke-linecap:square;stroke-width:0.8;"/>
     </g>
     <g id="line2d_14">
      <defs>
       <path d="M 0 0 
L -3.5 0 
" id="mbe1cb97980" style="stroke:#666666;stroke-width:0.8;"/>
      </defs>
      <g>
       <use style="fill:#666666;stroke:#666666;stroke-width:0.8;" x="117" xlink:href="#mbe1cb97980" y="512.64"/>
      </g>
     </g>
     <g id="text_6">
      <!-- 100 -->
      <g style="fill:#666666;" transform="translate(90.9125 516.439219)scale(0.1 -0.1)">
       <use xlink:href="#DejaVuSans-49"/>
       <use x="63.623047" xlink:href="#DejaVuSans-48"/>
       <use x="127.246094" xlink:href="#DejaVuSans-48"/>
      </g>
     </g>
    </g>
   </g>
   <g id="line2d_15">
    <path clip-path="url(#p2cc2ed0b2f)" d="M 117 512.64 
L 139.089304 488.546648 
L 225.747343 438.977713 
L 254.633356 393.622169 
L 283.519369 371.231599 
L 312.405382 357.966204 
L 341.291395 353.67985 
L 370.177408 347.369505 
L 399.06342 338.158491 
L 427.949433 324.39239 
L 456.835446 305.792152 
L 485.721459 296.915029 
L 514.607472 282.405842 
" style="fill:none;stroke:#1f77b4;stroke-linecap:square;stroke-width:1.5;"/>
    <defs>
     <path d="M 0 1.5 
C 0.397805 1.5 0.77937 1.341951 1.06066 1.06066 
C 1.341951 0.77937 1.5 0.397805 1.5 0 
C 1.5 -0.397805 1.341951 -0.77937 1.06066 -1.06066 
C 0.77937 -1.341951 0.397805 -1.5 0 -1.5 
C -0.397805 -1.5 -0.77937 -1.341951 -1.06066 -1.06066 
C -1.341951 -0.77937 -1.5 -0.397805 -1.5 0 
C -1.5 0.397805 -1.341951 0.77937 -1.06066 1.06066 
C -0.77937 1.341951 -0.397805 1.5 0 1.5 
z
" id="m21edd26245" style="stroke:#1f77b4;"/>
    </defs>
    <g clip-path="url(#p2cc2ed0b2f)">
     <use style="fill:#ffffff;stroke:#1f77b4;" x="117" xlink:href="#m21edd26245" y="512.64"/>
     <use style="fill:#ffffff;stroke:#1f77b4;" x="139.089304" xlink:href="#m21edd26245" y="488.546648"/>
     <use style="fill:#ffffff;stroke:#1f77b4;" x="225.747343" xlink:href="#m21edd26245" y="438.977713"/>
     <use style="fill:#ffffff;stroke:#1f77b4;" x="254.633356" xlink:href="#m21edd26245" y="393.622169"/>
     <use style="fill:#ffffff;stroke:#1f77b4;" x="283.519369" xlink:href="#m21edd26245" y="371.231599"/>
     <use style="fill:#ffffff;stroke:#1f77b4;" x="312.405382" xlink:href="#m21edd26245" y="357.966204"/>
     <use style="fill:#ffffff;stroke:#1f77b4;" x="341.291395" xlink:href="#m21edd26245" y="353.67985"/>
     <use style="fill:#ffffff;stroke:#1f77b4;" x="370.177408" xlink:href="#m21edd26245" y="347.369505"/>
     <use style="fill:#ffffff;stroke:#1f77b4;" x="399.06342" xlink:href="#m21edd26245" y="338.158491"/>
     <use style="fill:#ffffff;stroke:#1f77b4;" x="427.949433" xlink:href="#m21edd26245" y="324.39239"/>
     <use style="fill:#ffffff;stroke:#1f77b4;" x="456.835446" xlink:href="#m21edd26245" y="305.792152"/>
     <use style="fill:#ffffff;stroke:#1f77b4;" x="485.721459" xlink:href="#m21edd26245" y="296.915029"/>
     <use style="fill:#ffffff;stroke:#1f77b4;" x="514.607472" xlink:href="#m21edd26245" y="282.405842"/>
    </g>
   </g>
   <g id="line2d_16">
    <path clip-path="url(#p2cc2ed0b2f)" d="M 117 512.64 
L 138.008009 497.537032 
L 166.894022 485.039462 
L 195.780035 473.136391 
L 224.666048 458.610367 
L 253.552061 441.903286 
L 282.438074 430.391819 
L 311.324087 404.902394 
L 340.2101 394.852683 
L 369.096113 386.353051 
L 397.982126 382.789379 
L 426.868139 359.048038 
L 455.754152 337.153097 
L 484.640165 317.746966 
L 513.526178 302.209311 
L 542.412191 296.041752 
L 571.298204 294.302848 
L 629.070229 279.091516 
L 657.956242 270.160162 
L 686.842255 257.619815 
L 715.728268 250.034691 
" style="fill:none;stroke:#ff7f0e;stroke-linecap:square;stroke-width:1.5;"/>
    <defs>
     <path d="M 0 1.5 
C 0.397805 1.5 0.77937 1.341951 1.06066 1.06066 
C 1.341951 0.77937 1.5 0.397805 1.5 0 
C 1.5 -0.397805 1.341951 -0.77937 1.06066 -1.06066 
C 0.77937 -1.341951 0.397805 -1.5 0 -1.5 
C -0.397805 -1.5 -0.77937 -1.341951 -1.06066 -1.06066 
C -1.341951 -0.77937 -1.5 -0.397805 -1.5 0 
C -1.5 0.397805 -1.341951 0.77937 -1.06066 1.06066 
C -0.77937 1.341951 -0.397805 1.5 0 1.5 
z
" id="m80c0382fa4" style="stroke:#ff7f0e;"/>
    </defs>
    <g clip-path="url(#p2cc2ed0b2f)">
     <use style="fill:#ffffff;stroke:#ff7f0e;" x="117" xlink:href="#m80c0382fa4" y="512.64"/>
     <use style="fill:#ffffff;stroke:#ff7f0e;" x="138.008009" xlink:href="#m80c0382fa4" y="497.537032"/>
     <use style="fill:#ffffff;stroke:#ff7f0e;" x="166.894022" xlink:href="#m80c0382fa4" y="485.039462"/>
     <use style="fill:#ffffff;stroke:#ff7f0e;" x="195.780035" xlink:href="#m80c0382fa4" y="473.136391"/>
     <use style="fill:#ffffff;stroke:#ff7f0e;" x="224.666048" xlink:href="#m80c0382fa4" y="458.610367"/>
     <use style="fill:#ffffff;stroke:#ff7f0e;" x="253.552061" xlink:href="#m80c0382fa4" y="441.903286"/>
     <use style="fill:#ffffff;stroke:#ff7f0e;" x="282.438074" xlink:href="#m80c0382fa4" y="430.391819"/>
     <use style="fill:#ffffff;stroke:#ff7f0e;" x="311.324087" xlink:href="#m80c0382fa4" y="404.902394"/>
     <use style="fill:#ffffff;stroke:#ff7f0e;" x="340.2101" xlink:href="#m80c0382fa4" y="394.852683"/>
     <use style="fill:#ffffff;stroke:#ff7f0e;" x="369.096113" xlink:href="#m80c0382fa4" y="386.353051"/>
     <use style="fill:#ffffff;stroke:#ff7f0e;" x="397.982126" xlink:href="#m80c0382fa4" y="382.789379"/>
     <use style="fill:#ffffff;stroke:#ff7f0e;" x="426.868139" xlink:href="#m80c0382fa4" y="359.048038"/>
     <use style="fill:#ffffff;stroke:#ff7f0e;" x="455.754152" xlink:href="#m80c0382fa4" y="337.153097"/>
     <use style="fill:#ffffff;stroke:#ff7f0e;" x="484.640165" xlink:href="#m80c0382fa4" y="317.746966"/>
     <use style="fill:#ffffff;stroke:#ff7f0e;" x="513.526178" xlink:href="#m80c0382fa4" y="302.209311"/>
     <use style="fill:#ffffff;stroke:#ff7f0e;" x="542.412191" xlink:href="#m80c0382fa4" y="296.041752"/>
     <use style="fill:#ffffff;stroke:#ff7f0e;" x="571.298204" xlink:href="#m80c0382fa4" y="294.302848"/>
     <use style="fill:#ffffff;stroke:#ff7f0e;" x="629.070229" xlink:href="#m80c0382fa4" y="279.091516"/>
     <use style="fill:#ffffff;stroke:#ff7f0e;" x="657.956242" xlink:href="#m80c0382fa4" y="270.160162"/>
     <use style="fill:#ffffff;stroke:#ff7f0e;" x="686.842255" xlink:href="#m80c0382fa4" y="257.619815"/>
     <use style="fill:#ffffff;stroke:#ff7f0e;" x="715.728268" xlink:href="#m80c0382fa4" y="250.034691"/>
    </g>
   </g>
   <g id="line2d_17">
    <path clip-path="url(#p2cc2ed0b2f)" d="M 117 512.64 
L 133.047785 503.092325 
L 161.933798 490.318897 
L 190.819811 464.964525 
L 219.705824 446.354072 
L 248.591837 426.20151 
L 277.47785 410.070679 
L 306.363863 393.622169 
L 335.249876 385.160029 
L 364.135889 379.271155 
L 393.021901 362.318698 
L 421.907914 342.215688 
L 450.793927 335.152801 
L 479.67994 326.319306 
" style="fill:none;stroke:#2ca02c;stroke-linecap:square;stroke-width:1.5;"/>
    <defs>
     <path d="M 0 1.5 
C 0.397805 1.5 0.77937 1.341951 1.06066 1.06066 
C 1.341951 0.77937 1.5 0.397805 1.5 0 
C 1.5 -0.397805 1.341951 -0.77937 1.06066 -1.06066 
C 0.77937 -1.341951 0.397805 -1.5 0 -1.5 
C -0.397805 -1.5 -0.77937 -1.341951 -1.06066 -1.06066 
C -1.341951 -0.77937 -1.5 -0.397805 -1.5 0 
C -1.5 0.397805 -1.341951 0.77937 -1.06066 1.06066 
C -0.77937 1.341951 -0.397805 1.5 0 1.5 
z
" id="md8d1c9d1ae" style="stroke:#2ca02c;"/>
    </defs>
    <g clip-path="url(#p2cc2ed0b2f)">
     <use style="fill:#ffffff;stroke:#2ca02c;" x="117" xlink:href="#md8d1c9d1ae" y="512.64"/>
     <use style="fill:#ffffff;stroke:#2ca02c;" x="133.047785" xlink:href="#md8d1c9d1ae" y="503.092325"/>
     <use style="fill:#ffffff;stroke:#2ca02c;" x="161.933798" xlink:href="#md8d1c9d1ae" y="490.318897"/>
     <use style="fill:#ffffff;stroke:#2ca02c;" x="190.819811" xlink:href="#md8d1c9d1ae" y="464.964525"/>
     <use style="fill:#ffffff;stroke:#2ca02c;" x="219.705824" xlink:href="#md8d1c9d1ae" y="446.354072"/>
     <use style="fill:#ffffff;stroke:#2ca02c;" x="248.591837" xlink:href="#md8d1c9d1ae" y="426.20151"/>
     <use style="fill:#ffffff;stroke:#2ca02c;" x="277.47785" xlink:href="#md8d1c9d1ae" y="410.070679"/>
     <use style="fill:#ffffff;stroke:#2ca02c;" x="306.363863" xlink:href="#md8d1c9d1ae" y="393.622169"/>
     <use style="fill:#ffffff;stroke:#2ca02c;" x="335.249876" xlink:href="#md8d1c9d1ae" y="385.160029"/>
     <use style="fill:#ffffff;stroke:#2ca02c;" x="364.135889" xlink:href="#md8d1c9d1ae" y="379.271155"/>
     <use style="fill:#ffffff;stroke:#2ca02c;" x="393.021901" xlink:href="#md8d1c9d1ae" y="362.318698"/>
     <use style="fill:#ffffff;stroke:#2ca02c;" x="421.907914" xlink:href="#md8d1c9d1ae" y="342.215688"/>
     <use style="fill:#ffffff;stroke:#2ca02c;" x="450.793927" xlink:href="#md8d1c9d1ae" y="335.152801"/>
     <use style="fill:#ffffff;stroke:#2ca02c;" x="479.67994" xlink:href="#md8d1c9d1ae" y="326.319306"/>
    </g>
   </g>
   <g id="line2d_18">
    <path clip-path="url(#p2cc2ed0b2f)" d="M 117 512.64 
L 145.886013 490.318897 
L 174.772026 476.480293 
L 203.658039 468.201839 
L 232.544052 449.364145 
L 261.430065 438.977713 
L 290.316078 427.590919 
L 319.202091 418.014321 
L 348.088104 406.185213 
" style="fill:none;stroke:#d62728;stroke-linecap:square;stroke-width:1.5;"/>
    <defs>
     <path d="M 0 1.5 
C 0.397805 1.5 0.77937 1.341951 1.06066 1.06066 
C 1.341951 0.77937 1.5 0.397805 1.5 0 
C 1.5 -0.397805 1.341951 -0.77937 1.06066 -1.06066 
C 0.77937 -1.341951 0.397805 -1.5 0 -1.5 
C -0.397805 -1.5 -0.77937 -1.341951 -1.06066 -1.06066 
C -1.341951 -0.77937 -1.5 -0.397805 -1.5 0 
C -1.5 0.397805 -1.341951 0.77937 -1.06066 1.06066 
C -0.77937 1.341951 -0.397805 1.5 0 1.5 
z
" id="m102cdae9ab" style="stroke:#d62728;"/>
    </defs>
    <g clip-path="url(#p2cc2ed0b2f)">
     <use style="fill:#ffffff;stroke:#d62728;" x="117" xlink:href="#m102cdae9ab" y="512.64"/>
     <use style="fill:#ffffff;stroke:#d62728;" x="145.886013" xlink:href="#m102cdae9ab" y="490.318897"/>
     <use style="fill:#ffffff;stroke:#d62728;" x="174.772026" xlink:href="#m102cdae9ab" y="476.480293"/>
     <use style="fill:#ffffff;stroke:#d62728;" x="203.658039" xlink:href="#m102cdae9ab" y="468.201839"/>
     <use style="fill:#ffffff;stroke:#d62728;" x="232.544052" xlink:href="#m102cdae9ab" y="449.364145"/>
     <use style="fill:#ffffff;stroke:#d62728;" x="261.430065" xlink:href="#m102cdae9ab" y="438.977713"/>
     <use style="fill:#ffffff;stroke:#d62728;" x="290.316078" xlink:href="#m102cdae9ab" y="427.590919"/>
     <use style="fill:#ffffff;stroke:#d62728;" x="319.202091" xlink:href="#m102cdae9ab" y="418.014321"/>
     <use style="fill:#ffffff;stroke:#d62728;" x="348.088104" xlink:href="#m102cdae9ab" y="406.185213"/>
    </g>
   </g>
   <g id="line2d_19">
    <path clip-path="url(#p2cc2ed0b2f)" d="M 117 512.64 
L 135.382008 499.374925 
L 164.268021 490.318897 
L 193.154034 479.869082 
L 222.040047 464.964525 
L 250.92606 450.882383 
L 279.812073 433.222757 
L 308.698086 414.013077 
L 337.584099 403.625632 
L 366.470112 397.330493 
" style="fill:none;stroke:#9467bd;stroke-linecap:square;stroke-width:1.5;"/>
    <defs>
     <path d="M 0 1.5 
C 0.397805 1.5 0.77937 1.341951 1.06066 1.06066 
C 1.341951 0.77937 1.5 0.397805 1.5 0 
C 1.5 -0.397805 1.341951 -0.77937 1.06066 -1.06066 
C 0.77937 -1.341951 0.397805 -1.5 0 -1.5 
C -0.397805 -1.5 -0.77937 -1.341951 -1.06066 -1.06066 
C -1.341951 -0.77937 -1.5 -0.397805 -1.5 0 
C -1.5 0.397805 -1.341951 0.77937 -1.06066 1.06066 
C -0.77937 1.341951 -0.397805 1.5 0 1.5 
z
" id="mc168bbd7a5" style="stroke:#9467bd;"/>
    </defs>
    <g clip-path="url(#p2cc2ed0b2f)">
     <use style="fill:#ffffff;stroke:#9467bd;" x="117" xlink:href="#mc168bbd7a5" y="512.64"/>
     <use style="fill:#ffffff;stroke:#9467bd;" x="135.382008" xlink:href="#mc168bbd7a5" y="499.374925"/>
     <use style="fill:#ffffff;stroke:#9467bd;" x="164.268021" xlink:href="#mc168bbd7a5" y="490.318897"/>
     <use style="fill:#ffffff;stroke:#9467bd;" x="193.154034" xlink:href="#mc168bbd7a5" y="479.869082"/>
     <use style="fill:#ffffff;stroke:#9467bd;" x="222.040047" xlink:href="#mc168bbd7a5" y="464.964525"/>
     <use style="fill:#ffffff;stroke:#9467bd;" x="250.92606" xlink:href="#mc168bbd7a5" y="450.882383"/>
     <use style="fill:#ffffff;stroke:#9467bd;" x="279.812073" xlink:href="#mc168bbd7a5" y="433.222757"/>
     <use style="fill:#ffffff;stroke:#9467bd;" x="308.698086" xlink:href="#mc168bbd7a5" y="414.013077"/>
     <use style="fill:#ffffff;stroke:#9467bd;" x="337.584099" xlink:href="#mc168bbd7a5" y="403.625632"/>
     <use style="fill:#ffffff;stroke:#9467bd;" x="366.470112" xlink:href="#mc168bbd7a5" y="397.330493"/>
    </g>
   </g>
   <g id="line2d_20">
    <path clip-path="url(#p2cc2ed0b2f)" d="M 117 512.64 
L 145.886013 499.374925 
L 174.772026 493.901716 
L 203.658039 492.103851 
L 261.430065 481.580737 
L 290.316078 479.869082 
L 319.202091 476.480293 
L 348.088104 469.83606 
L 376.974116 468.201839 
L 405.860129 461.767743 
L 434.746142 460.184197 
L 463.632155 458.610367 
" style="fill:none;stroke:#8c564b;stroke-linecap:square;stroke-width:1.5;"/>
    <defs>
     <path d="M 0 1.5 
C 0.397805 1.5 0.77937 1.341951 1.06066 1.06066 
C 1.341951 0.77937 1.5 0.397805 1.5 0 
C 1.5 -0.397805 1.341951 -0.77937 1.06066 -1.06066 
C 0.77937 -1.341951 0.397805 -1.5 0 -1.5 
C -0.397805 -1.5 -0.77937 -1.341951 -1.06066 -1.06066 
C -1.341951 -0.77937 -1.5 -0.397805 -1.5 0 
C -1.5 0.397805 -1.341951 0.77937 -1.06066 1.06066 
C -0.77937 1.341951 -0.397805 1.5 0 1.5 
z
" id="m8a5672757f" style="stroke:#8c564b;"/>
    </defs>
    <g clip-path="url(#p2cc2ed0b2f)">
     <use style="fill:#ffffff;stroke:#8c564b;" x="117" xlink:href="#m8a5672757f" y="512.64"/>
     <use style="fill:#ffffff;stroke:#8c564b;" x="145.886013" xlink:href="#m8a5672757f" y="499.374925"/>
     <use style="fill:#ffffff;stroke:#8c564b;" x="174.772026" xlink:href="#m8a5672757f" y="493.901716"/>
     <use style="fill:#ffffff;stroke:#8c564b;" x="203.658039" xlink:href="#m8a5672757f" y="492.103851"/>
     <use style="fill:#ffffff;stroke:#8c564b;" x="261.430065" xlink:href="#m8a5672757f" y="481.580737"/>
     <use style="fill:#ffffff;stroke:#8c564b;" x="290.316078" xlink:href="#m8a5672757f" y="479.869082"/>
     <use style="fill:#ffffff;stroke:#8c564b;" x="319.202091" xlink:href="#m8a5672757f" y="476.480293"/>
     <use style="fill:#ffffff;stroke:#8c564b;" x="348.088104" xlink:href="#m8a5672757f" y="469.83606"/>
     <use style="fill:#ffffff;stroke:#8c564b;" x="376.974116" xlink:href="#m8a5672757f" y="468.201839"/>
     <use style="fill:#ffffff;stroke:#8c564b;" x="405.860129" xlink:href="#m8a5672757f" y="461.767743"/>
     <use style="fill:#ffffff;stroke:#8c564b;" x="434.746142" xlink:href="#m8a5672757f" y="460.184197"/>
     <use style="fill:#ffffff;stroke:#8c564b;" x="463.632155" xlink:href="#m8a5672757f" y="458.610367"/>
    </g>
   </g>
   <g id="line2d_21">
    <path clip-path="url(#p2cc2ed0b2f)" d="M 117 512.64 
L 128.554405 504.972309 
L 157.440418 485.039462 
L 186.326431 473.136391 
L 215.212444 461.767743 
L 244.098457 449.364145 
L 272.98447 438.977713 
L 301.870483 433.222757 
L 330.756496 424.819348 
L 359.642509 402.354864 
L 388.528522 385.160029 
L 417.414535 378.10829 
L 446.300548 367.855902 
L 475.18656 362.318698 
L 504.072573 359.048038 
L 532.958586 353.67985 
L 561.844599 341.195989 
L 590.730612 331.193417 
L 619.616625 326.319306 
L 648.502638 318.687087 
" style="fill:none;stroke:#e377c2;stroke-linecap:square;stroke-width:1.5;"/>
    <defs>
     <path d="M 0 1.5 
C 0.397805 1.5 0.77937 1.341951 1.06066 1.06066 
C 1.341951 0.77937 1.5 0.397805 1.5 0 
C 1.5 -0.397805 1.341951 -0.77937 1.06066 -1.06066 
C 0.77937 -1.341951 0.397805 -1.5 0 -1.5 
C -0.397805 -1.5 -0.77937 -1.341951 -1.06066 -1.06066 
C -1.341951 -0.77937 -1.5 -0.397805 -1.5 0 
C -1.5 0.397805 -1.341951 0.77937 -1.06066 1.06066 
C -0.77937 1.341951 -0.397805 1.5 0 1.5 
z
" id="mf98d605162" style="stroke:#e377c2;"/>
    </defs>
    <g clip-path="url(#p2cc2ed0b2f)">
     <use style="fill:#ffffff;stroke:#e377c2;" x="117" xlink:href="#mf98d605162" y="512.64"/>
     <use style="fill:#ffffff;stroke:#e377c2;" x="128.554405" xlink:href="#mf98d605162" y="504.972309"/>
     <use style="fill:#ffffff;stroke:#e377c2;" x="157.440418" xlink:href="#mf98d605162" y="485.039462"/>
     <use style="fill:#ffffff;stroke:#e377c2;" x="186.326431" xlink:href="#mf98d605162" y="473.136391"/>
     <use style="fill:#ffffff;stroke:#e377c2;" x="215.212444" xlink:href="#mf98d605162" y="461.767743"/>
     <use style="fill:#ffffff;stroke:#e377c2;" x="244.098457" xlink:href="#mf98d605162" y="449.364145"/>
     <use style="fill:#ffffff;stroke:#e377c2;" x="272.98447" xlink:href="#mf98d605162" y="438.977713"/>
     <use style="fill:#ffffff;stroke:#e377c2;" x="301.870483" xlink:href="#mf98d605162" y="433.222757"/>
     <use style="fill:#ffffff;stroke:#e377c2;" x="330.756496" xlink:href="#mf98d605162" y="424.819348"/>
     <use style="fill:#ffffff;stroke:#e377c2;" x="359.642509" xlink:href="#mf98d605162" y="402.354864"/>
     <use style="fill:#ffffff;stroke:#e377c2;" x="388.528522" xlink:href="#mf98d605162" y="385.160029"/>
     <use style="fill:#ffffff;stroke:#e377c2;" x="417.414535" xlink:href="#mf98d605162" y="378.10829"/>
     <use style="fill:#ffffff;stroke:#e377c2;" x="446.300548" xlink:href="#mf98d605162" y="367.855902"/>
     <use style="fill:#ffffff;stroke:#e377c2;" x="475.18656" xlink:href="#mf98d605162" y="362.318698"/>
     <use style="fill:#ffffff;stroke:#e377c2;" x="504.072573" xlink:href="#mf98d605162" y="359.048038"/>
     <use style="fill:#ffffff;stroke:#e377c2;" x="532.958586" xlink:href="#mf98d605162" y="353.67985"/>
     <use style="fill:#ffffff;stroke:#e377c2;" x="561.844599" xlink:href="#mf98d605162" y="341.195989"/>
     <use style="fill:#ffffff;stroke:#e377c2;" x="590.730612" xlink:href="#mf98d605162" y="331.193417"/>
     <use style="fill:#ffffff;stroke:#e377c2;" x="619.616625" xlink:href="#mf98d605162" y="326.319306"/>
     <use style="fill:#ffffff;stroke:#e377c2;" x="648.502638" xlink:href="#mf98d605162" y="318.687087"/>
    </g>
   </g>
   <g id="line2d_22">
    <path clip-path="url(#p2cc2ed0b2f)" d="M 117 512.64 
L 135.69095 492.103851 
L 164.576962 474.802815 
L 193.462975 453.945851 
L 222.348988 440.436408 
L 251.235001 416.673913 
L 280.121014 392.397172 
L 309.007027 367.855902 
L 337.89304 345.296795 
L 366.779053 322.478172 
L 395.665066 296.915029 
L 424.551079 284.915754 
L 453.437092 272.570002 
L 482.323105 258.388713 
L 511.209118 240.444244 
L 540.095131 220.736879 
L 568.981144 204.770763 
" style="fill:none;stroke:#7f7f7f;stroke-linecap:square;stroke-width:1.5;"/>
    <defs>
     <path d="M 0 1.5 
C 0.397805 1.5 0.77937 1.341951 1.06066 1.06066 
C 1.341951 0.77937 1.5 0.397805 1.5 0 
C 1.5 -0.397805 1.341951 -0.77937 1.06066 -1.06066 
C 0.77937 -1.341951 0.397805 -1.5 0 -1.5 
C -0.397805 -1.5 -0.77937 -1.341951 -1.06066 -1.06066 
C -1.341951 -0.77937 -1.5 -0.397805 -1.5 0 
C -1.5 0.397805 -1.341951 0.77937 -1.06066 1.06066 
C -0.77937 1.341951 -0.397805 1.5 0 1.5 
z
" id="mc03f71bccb" style="stroke:#7f7f7f;"/>
    </defs>
    <g clip-path="url(#p2cc2ed0b2f)">
     <use style="fill:#ffffff;stroke:#7f7f7f;" x="117" xlink:href="#mc03f71bccb" y="512.64"/>
     <use style="fill:#ffffff;stroke:#7f7f7f;" x="135.69095" xlink:href="#mc03f71bccb" y="492.103851"/>
     <use style="fill:#ffffff;stroke:#7f7f7f;" x="164.576962" xlink:href="#mc03f71bccb" y="474.802815"/>
     <use style="fill:#ffffff;stroke:#7f7f7f;" x="193.462975" xlink:href="#mc03f71bccb" y="453.945851"/>
     <use style="fill:#ffffff;stroke:#7f7f7f;" x="222.348988" xlink:href="#mc03f71bccb" y="440.436408"/>
     <use style="fill:#ffffff;stroke:#7f7f7f;" x="251.235001" xlink:href="#mc03f71bccb" y="416.673913"/>
     <use style="fill:#ffffff;stroke:#7f7f7f;" x="280.121014" xlink:href="#mc03f71bccb" y="392.397172"/>
     <use style="fill:#ffffff;stroke:#7f7f7f;" x="309.007027" xlink:href="#mc03f71bccb" y="367.855902"/>
     <use style="fill:#ffffff;stroke:#7f7f7f;" x="337.89304" xlink:href="#mc03f71bccb" y="345.296795"/>
     <use style="fill:#ffffff;stroke:#7f7f7f;" x="366.779053" xlink:href="#mc03f71bccb" y="322.478172"/>
     <use style="fill:#ffffff;stroke:#7f7f7f;" x="395.665066" xlink:href="#mc03f71bccb" y="296.915029"/>
     <use style="fill:#ffffff;stroke:#7f7f7f;" x="424.551079" xlink:href="#mc03f71bccb" y="284.915754"/>
     <use style="fill:#ffffff;stroke:#7f7f7f;" x="453.437092" xlink:href="#mc03f71bccb" y="272.570002"/>
     <use style="fill:#ffffff;stroke:#7f7f7f;" x="482.323105" xlink:href="#mc03f71bccb" y="258.388713"/>
     <use style="fill:#ffffff;stroke:#7f7f7f;" x="511.209118" xlink:href="#mc03f71bccb" y="240.444244"/>
     <use style="fill:#ffffff;stroke:#7f7f7f;" x="540.095131" xlink:href="#mc03f71bccb" y="220.736879"/>
     <use style="fill:#ffffff;stroke:#7f7f7f;" x="568.981144" xlink:href="#mc03f71bccb" y="204.770763"/>
    </g>
   </g>
   <g id="line2d_23">
    <path clip-path="url(#p2cc2ed0b2f)" d="M 117 512.64 
L 136.998009 495.712704 
L 165.884022 493.901716 
L 194.770035 486.786902 
L 223.656048 455.491323 
L 252.542061 434.649719 
L 281.428074 427.590919 
L 310.314087 410.070679 
L 339.2001 397.330493 
L 368.086112 396.088773 
L 396.972125 394.852683 
L 425.858138 380.438927 
L 454.744151 359.048038 
L 483.630164 348.411545 
L 512.516177 305.792152 
L 541.40219 296.041752 
L 570.288203 295.171031 
L 599.174216 283.240154 
L 628.060229 262.262379 
L 656.946242 259.15954 
L 685.832255 250.784863 
L 714.718268 244.833803 
L 743.604281 234.686067 
" style="fill:none;stroke:#bcbd22;stroke-linecap:square;stroke-width:1.5;"/>
    <defs>
     <path d="M 0 1.5 
C 0.397805 1.5 0.77937 1.341951 1.06066 1.06066 
C 1.341951 0.77937 1.5 0.397805 1.5 0 
C 1.5 -0.397805 1.341951 -0.77937 1.06066 -1.06066 
C 0.77937 -1.341951 0.397805 -1.5 0 -1.5 
C -0.397805 -1.5 -0.77937 -1.341951 -1.06066 -1.06066 
C -1.341951 -0.77937 -1.5 -0.397805 -1.5 0 
C -1.5 0.397805 -1.341951 0.77937 -1.06066 1.06066 
C -0.77937 1.341951 -0.397805 1.5 0 1.5 
z
" id="m3a9e9c783e" style="stroke:#bcbd22;"/>
    </defs>
    <g clip-path="url(#p2cc2ed0b2f)">
     <use style="fill:#ffffff;stroke:#bcbd22;" x="117" xlink:href="#m3a9e9c783e" y="512.64"/>
     <use style="fill:#ffffff;stroke:#bcbd22;" x="136.998009" xlink:href="#m3a9e9c783e" y="495.712704"/>
     <use style="fill:#ffffff;stroke:#bcbd22;" x="165.884022" xlink:href="#m3a9e9c783e" y="493.901716"/>
     <use style="fill:#ffffff;stroke:#bcbd22;" x="194.770035" xlink:href="#m3a9e9c783e" y="486.786902"/>
     <use style="fill:#ffffff;stroke:#bcbd22;" x="223.656048" xlink:href="#m3a9e9c783e" y="455.491323"/>
     <use style="fill:#ffffff;stroke:#bcbd22;" x="252.542061" xlink:href="#m3a9e9c783e" y="434.649719"/>
     <use style="fill:#ffffff;stroke:#bcbd22;" x="281.428074" xlink:href="#m3a9e9c783e" y="427.590919"/>
     <use style="fill:#ffffff;stroke:#bcbd22;" x="310.314087" xlink:href="#m3a9e9c783e" y="410.070679"/>
     <use style="fill:#ffffff;stroke:#bcbd22;" x="339.2001" xlink:href="#m3a9e9c783e" y="397.330493"/>
     <use style="fill:#ffffff;stroke:#bcbd22;" x="368.086112" xlink:href="#m3a9e9c783e" y="396.088773"/>
     <use style="fill:#ffffff;stroke:#bcbd22;" x="396.972125" xlink:href="#m3a9e9c783e" y="394.852683"/>
     <use style="fill:#ffffff;stroke:#bcbd22;" x="425.858138" xlink:href="#m3a9e9c783e" y="380.438927"/>
     <use style="fill:#ffffff;stroke:#bcbd22;" x="454.744151" xlink:href="#m3a9e9c783e" y="359.048038"/>
     <use style="fill:#ffffff;stroke:#bcbd22;" x="483.630164" xlink:href="#m3a9e9c783e" y="348.411545"/>
     <use style="fill:#ffffff;stroke:#bcbd22;" x="512.516177" xlink:href="#m3a9e9c783e" y="305.792152"/>
     <use style="fill:#ffffff;stroke:#bcbd22;" x="541.40219" xlink:href="#m3a9e9c783e" y="296.041752"/>
     <use style="fill:#ffffff;stroke:#bcbd22;" x="570.288203" xlink:href="#m3a9e9c783e" y="295.171031"/>
     <use style="fill:#ffffff;stroke:#bcbd22;" x="599.174216" xlink:href="#m3a9e9c783e" y="283.240154"/>
     <use style="fill:#ffffff;stroke:#bcbd22;" x="628.060229" xlink:href="#m3a9e9c783e" y="262.262379"/>
     <use style="fill:#ffffff;stroke:#bcbd22;" x="656.946242" xlink:href="#m3a9e9c783e" y="259.15954"/>
     <use style="fill:#ffffff;stroke:#bcbd22;" x="685.832255" xlink:href="#m3a9e9c783e" y="250.784863"/>
     <use style="fill:#ffffff;stroke:#bcbd22;" x="714.718268" xlink:href="#m3a9e9c783e" y="244.833803"/>
     <use style="fill:#ffffff;stroke:#bcbd22;" x="743.604281" xlink:href="#m3a9e9c783e" y="234.686067"/>
    </g>
   </g>
   <g id="line2d_24">
    <path clip-path="url(#p2cc2ed0b2f)" d="M 117 512.64 
L 141.442011 492.103851 
L 170.328024 473.136391 
L 199.214037 461.767743 
L 228.10005 444.862011 
L 256.986063 427.590919 
L 285.872076 418.014321 
L 314.758089 404.902394 
L 343.644102 387.551271 
L 372.530114 375.797095 
L 401.416127 366.739672 
L 430.30214 357.966204 
L 459.188153 345.296795 
L 488.074166 339.167419 
L 516.960179 337.153097 
L 545.846192 327.287586 
L 574.732205 316.80986 
L 603.618218 306.694695 
L 632.504231 289.146144 
L 661.390244 280.744123 
" style="fill:none;stroke:#17becf;stroke-linecap:square;stroke-width:1.5;"/>
    <defs>
     <path d="M 0 1.5 
C 0.397805 1.5 0.77937 1.341951 1.06066 1.06066 
C 1.341951 0.77937 1.5 0.397805 1.5 0 
C 1.5 -0.397805 1.341951 -0.77937 1.06066 -1.06066 
C 0.77937 -1.341951 0.397805 -1.5 0 -1.5 
C -0.397805 -1.5 -0.77937 -1.341951 -1.06066 -1.06066 
C -1.341951 -0.77937 -1.5 -0.397805 -1.5 0 
C -1.5 0.397805 -1.341951 0.77937 -1.06066 1.06066 
C -0.77937 1.341951 -0.397805 1.5 0 1.5 
z
" id="md0e9499d52" style="stroke:#17becf;"/>
    </defs>
    <g clip-path="url(#p2cc2ed0b2f)">
     <use style="fill:#ffffff;stroke:#17becf;" x="117" xlink:href="#md0e9499d52" y="512.64"/>
     <use style="fill:#ffffff;stroke:#17becf;" x="141.442011" xlink:href="#md0e9499d52" y="492.103851"/>
     <use style="fill:#ffffff;stroke:#17becf;" x="170.328024" xlink:href="#md0e9499d52" y="473.136391"/>
     <use style="fill:#ffffff;stroke:#17becf;" x="199.214037" xlink:href="#md0e9499d52" y="461.767743"/>
     <use style="fill:#ffffff;stroke:#17becf;" x="228.10005" xlink:href="#md0e9499d52" y="444.862011"/>
     <use style="fill:#ffffff;stroke:#17becf;" x="256.986063" xlink:href="#md0e9499d52" y="427.590919"/>
     <use style="fill:#ffffff;stroke:#17becf;" x="285.872076" xlink:href="#md0e9499d52" y="418.014321"/>
     <use style="fill:#ffffff;stroke:#17becf;" x="314.758089" xlink:href="#md0e9499d52" y="404.902394"/>
     <use style="fill:#ffffff;stroke:#17becf;" x="343.644102" xlink:href="#md0e9499d52" y="387.551271"/>
     <use style="fill:#ffffff;stroke:#17becf;" x="372.530114" xlink:href="#md0e9499d52" y="375.797095"/>
     <use style="fill:#ffffff;stroke:#17becf;" x="401.416127" xlink:href="#md0e9499d52" y="366.739672"/>
     <use style="fill:#ffffff;stroke:#17becf;" x="430.30214" xlink:href="#md0e9499d52" y="357.966204"/>
     <use style="fill:#ffffff;stroke:#17becf;" x="459.188153" xlink:href="#md0e9499d52" y="345.296795"/>
     <use style="fill:#ffffff;stroke:#17becf;" x="488.074166" xlink:href="#md0e9499d52" y="339.167419"/>
     <use style="fill:#ffffff;stroke:#17becf;" x="516.960179" xlink:href="#md0e9499d52" y="337.153097"/>
     <use style="fill:#ffffff;stroke:#17becf;" x="545.846192" xlink:href="#md0e9499d52" y="327.287586"/>
     <use style="fill:#ffffff;stroke:#17becf;" x="574.732205" xlink:href="#md0e9499d52" y="316.80986"/>
     <use style="fill:#ffffff;stroke:#17becf;" x="603.618218" xlink:href="#md0e9499d52" y="306.694695"/>
     <use style="fill:#ffffff;stroke:#17becf;" x="632.504231" xlink:href="#md0e9499d52" y="289.146144"/>
     <use style="fill:#ffffff;stroke:#17becf;" x="661.390244" xlink:href="#md0e9499d52" y="280.744123"/>
    </g>
   </g>
   <g id="line2d_25">
    <path clip-path="url(#p2cc2ed0b2f)" d="M 117 512.64 
L 127.504005 497.537032 
L 156.390018 481.580737 
L 185.276031 458.610367 
L 214.162044 427.590919 
L 243.048056 411.378393 
L 271.934069 401.090028 
L 300.820082 392.397172 
L 329.706095 353.67985 
L 358.592108 324.39239 
L 387.478121 314.01642 
L 416.364134 299.550361 
L 445.250147 282.405842 
L 474.13616 274.187259 
L 503.022173 268.564151 
L 531.908186 241.171548 
L 560.794199 232.553805 
L 589.680212 215.996748 
L 618.566225 202.185677 
L 647.452238 188.944414 
" style="fill:none;stroke:#1f77b4;stroke-linecap:square;stroke-width:1.5;"/>
    <g clip-path="url(#p2cc2ed0b2f)">
     <use style="fill:#ffffff;stroke:#1f77b4;" x="117" xlink:href="#m21edd26245" y="512.64"/>
     <use style="fill:#ffffff;stroke:#1f77b4;" x="127.504005" xlink:href="#m21edd26245" y="497.537032"/>
     <use style="fill:#ffffff;stroke:#1f77b4;" x="156.390018" xlink:href="#m21edd26245" y="481.580737"/>
     <use style="fill:#ffffff;stroke:#1f77b4;" x="185.276031" xlink:href="#m21edd26245" y="458.610367"/>
     <use style="fill:#ffffff;stroke:#1f77b4;" x="214.162044" xlink:href="#m21edd26245" y="427.590919"/>
     <use style="fill:#ffffff;stroke:#1f77b4;" x="243.048056" xlink:href="#m21edd26245" y="411.378393"/>
     <use style="fill:#ffffff;stroke:#1f77b4;" x="271.934069" xlink:href="#m21edd26245" y="401.090028"/>
     <use style="fill:#ffffff;stroke:#1f77b4;" x="300.820082" xlink:href="#m21edd26245" y="392.397172"/>
     <use style="fill:#ffffff;stroke:#1f77b4;" x="329.706095" xlink:href="#m21edd26245" y="353.67985"/>
     <use style="fill:#ffffff;stroke:#1f77b4;" x="358.592108" xlink:href="#m21edd26245" y="324.39239"/>
     <use style="fill:#ffffff;stroke:#1f77b4;" x="387.478121" xlink:href="#m21edd26245" y="314.01642"/>
     <use style="fill:#ffffff;stroke:#1f77b4;" x="416.364134" xlink:href="#m21edd26245" y="299.550361"/>
     <use style="fill:#ffffff;stroke:#1f77b4;" x="445.250147" xlink:href="#m21edd26245" y="282.405842"/>
     <use style="fill:#ffffff;stroke:#1f77b4;" x="474.13616" xlink:href="#m21edd26245" y="274.187259"/>
     <use style="fill:#ffffff;stroke:#1f77b4;" x="503.022173" xlink:href="#m21edd26245" y="268.564151"/>
     <use style="fill:#ffffff;stroke:#1f77b4;" x="531.908186" xlink:href="#m21edd26245" y="241.171548"/>
     <use style="fill:#ffffff;stroke:#1f77b4;" x="560.794199" xlink:href="#m21edd26245" y="232.553805"/>
     <use style="fill:#ffffff;stroke:#1f77b4;" x="589.680212" xlink:href="#m21edd26245" y="215.996748"/>
     <use style="fill:#ffffff;stroke:#1f77b4;" x="618.566225" xlink:href="#m21edd26245" y="202.185677"/>
     <use style="fill:#ffffff;stroke:#1f77b4;" x="647.452238" xlink:href="#m21edd26245" y="188.944414"/>
    </g>
   </g>
   <g id="line2d_26">
    <path clip-path="url(#p2cc2ed0b2f)" d="M 117 512.64 
L 140.10881 504.972309 
L 168.994823 493.901716 
L 197.880836 490.318897 
L 226.766849 471.480859 
L 255.652862 458.610367 
" style="fill:none;stroke:#ff7f0e;stroke-linecap:square;stroke-width:1.5;"/>
    <g clip-path="url(#p2cc2ed0b2f)">
     <use style="fill:#ffffff;stroke:#ff7f0e;" x="117" xlink:href="#m80c0382fa4" y="512.64"/>
     <use style="fill:#ffffff;stroke:#ff7f0e;" x="140.10881" xlink:href="#m80c0382fa4" y="504.972309"/>
     <use style="fill:#ffffff;stroke:#ff7f0e;" x="168.994823" xlink:href="#m80c0382fa4" y="493.901716"/>
     <use style="fill:#ffffff;stroke:#ff7f0e;" x="197.880836" xlink:href="#m80c0382fa4" y="490.318897"/>
     <use style="fill:#ffffff;stroke:#ff7f0e;" x="226.766849" xlink:href="#m80c0382fa4" y="471.480859"/>
     <use style="fill:#ffffff;stroke:#ff7f0e;" x="255.652862" xlink:href="#m80c0382fa4" y="458.610367"/>
    </g>
   </g>
   <g id="line2d_27">
    <path clip-path="url(#p2cc2ed0b2f)" d="M 117 512.64 
L 127.504005 497.537032 
L 156.390018 486.786902 
L 214.162044 460.184197 
L 243.048056 458.610367 
L 271.934069 441.903286 
L 300.820082 428.987659 
L 329.706095 423.444347 
L 358.592108 419.361491 
L 416.364134 412.692502 
L 445.250147 401.090028 
L 474.13616 373.504982 
L 503.022173 364.520473 
L 531.908186 361.224248 
L 589.680212 347.369505 
L 618.566225 341.195989 
L 647.452238 329.233909 
L 676.338251 323.433705 
L 705.224264 313.091162 
" style="fill:none;stroke:#2ca02c;stroke-linecap:square;stroke-width:1.5;"/>
    <g clip-path="url(#p2cc2ed0b2f)">
     <use style="fill:#ffffff;stroke:#2ca02c;" x="117" xlink:href="#md8d1c9d1ae" y="512.64"/>
     <use style="fill:#ffffff;stroke:#2ca02c;" x="127.504005" xlink:href="#md8d1c9d1ae" y="497.537032"/>
     <use style="fill:#ffffff;stroke:#2ca02c;" x="156.390018" xlink:href="#md8d1c9d1ae" y="486.786902"/>
     <use style="fill:#ffffff;stroke:#2ca02c;" x="214.162044" xlink:href="#md8d1c9d1ae" y="460.184197"/>
     <use style="fill:#ffffff;stroke:#2ca02c;" x="243.048056" xlink:href="#md8d1c9d1ae" y="458.610367"/>
     <use style="fill:#ffffff;stroke:#2ca02c;" x="271.934069" xlink:href="#md8d1c9d1ae" y="441.903286"/>
     <use style="fill:#ffffff;stroke:#2ca02c;" x="300.820082" xlink:href="#md8d1c9d1ae" y="428.987659"/>
     <use style="fill:#ffffff;stroke:#2ca02c;" x="329.706095" xlink:href="#md8d1c9d1ae" y="423.444347"/>
     <use style="fill:#ffffff;stroke:#2ca02c;" x="358.592108" xlink:href="#md8d1c9d1ae" y="419.361491"/>
     <use style="fill:#ffffff;stroke:#2ca02c;" x="416.364134" xlink:href="#md8d1c9d1ae" y="412.692502"/>
     <use style="fill:#ffffff;stroke:#2ca02c;" x="445.250147" xlink:href="#md8d1c9d1ae" y="401.090028"/>
     <use style="fill:#ffffff;stroke:#2ca02c;" x="474.13616" xlink:href="#md8d1c9d1ae" y="373.504982"/>
     <use style="fill:#ffffff;stroke:#2ca02c;" x="503.022173" xlink:href="#md8d1c9d1ae" y="364.520473"/>
     <use style="fill:#ffffff;stroke:#2ca02c;" x="531.908186" xlink:href="#md8d1c9d1ae" y="361.224248"/>
     <use style="fill:#ffffff;stroke:#2ca02c;" x="589.680212" xlink:href="#md8d1c9d1ae" y="347.369505"/>
     <use style="fill:#ffffff;stroke:#2ca02c;" x="618.566225" xlink:href="#md8d1c9d1ae" y="341.195989"/>
     <use style="fill:#ffffff;stroke:#2ca02c;" x="647.452238" xlink:href="#md8d1c9d1ae" y="329.233909"/>
     <use style="fill:#ffffff;stroke:#2ca02c;" x="676.338251" xlink:href="#md8d1c9d1ae" y="323.433705"/>
     <use style="fill:#ffffff;stroke:#2ca02c;" x="705.224264" xlink:href="#md8d1c9d1ae" y="313.091162"/>
    </g>
   </g>
   <g id="line2d_28">
    <path clip-path="url(#p2cc2ed0b2f)" d="M 117 512.64 
L 142.676456 497.537032 
L 171.562469 471.480859 
L 200.448482 458.610367 
L 229.334495 450.882383 
L 258.220508 446.354072 
L 287.106521 444.862011 
L 315.992534 440.436408 
L 344.878547 411.378393 
L 373.764559 403.625632 
L 402.650572 392.397172 
L 431.536585 381.611653 
L 460.422598 374.648676 
L 489.308611 373.504982 
L 518.194624 371.231599 
L 547.080637 360.13404 
L 575.96665 352.618333 
L 604.852663 344.266061 
L 633.738676 336.15121 
L 662.624689 328.259112 
" style="fill:none;stroke:#d62728;stroke-linecap:square;stroke-width:1.5;"/>
    <g clip-path="url(#p2cc2ed0b2f)">
     <use style="fill:#ffffff;stroke:#d62728;" x="117" xlink:href="#m102cdae9ab" y="512.64"/>
     <use style="fill:#ffffff;stroke:#d62728;" x="142.676456" xlink:href="#m102cdae9ab" y="497.537032"/>
     <use style="fill:#ffffff;stroke:#d62728;" x="171.562469" xlink:href="#m102cdae9ab" y="471.480859"/>
     <use style="fill:#ffffff;stroke:#d62728;" x="200.448482" xlink:href="#m102cdae9ab" y="458.610367"/>
     <use style="fill:#ffffff;stroke:#d62728;" x="229.334495" xlink:href="#m102cdae9ab" y="450.882383"/>
     <use style="fill:#ffffff;stroke:#d62728;" x="258.220508" xlink:href="#m102cdae9ab" y="446.354072"/>
     <use style="fill:#ffffff;stroke:#d62728;" x="287.106521" xlink:href="#m102cdae9ab" y="444.862011"/>
     <use style="fill:#ffffff;stroke:#d62728;" x="315.992534" xlink:href="#m102cdae9ab" y="440.436408"/>
     <use style="fill:#ffffff;stroke:#d62728;" x="344.878547" xlink:href="#m102cdae9ab" y="411.378393"/>
     <use style="fill:#ffffff;stroke:#d62728;" x="373.764559" xlink:href="#m102cdae9ab" y="403.625632"/>
     <use style="fill:#ffffff;stroke:#d62728;" x="402.650572" xlink:href="#m102cdae9ab" y="392.397172"/>
     <use style="fill:#ffffff;stroke:#d62728;" x="431.536585" xlink:href="#m102cdae9ab" y="381.611653"/>
     <use style="fill:#ffffff;stroke:#d62728;" x="460.422598" xlink:href="#m102cdae9ab" y="374.648676"/>
     <use style="fill:#ffffff;stroke:#d62728;" x="489.308611" xlink:href="#m102cdae9ab" y="373.504982"/>
     <use style="fill:#ffffff;stroke:#d62728;" x="518.194624" xlink:href="#m102cdae9ab" y="371.231599"/>
     <use style="fill:#ffffff;stroke:#d62728;" x="547.080637" xlink:href="#m102cdae9ab" y="360.13404"/>
     <use style="fill:#ffffff;stroke:#d62728;" x="575.96665" xlink:href="#m102cdae9ab" y="352.618333"/>
     <use style="fill:#ffffff;stroke:#d62728;" x="604.852663" xlink:href="#m102cdae9ab" y="344.266061"/>
     <use style="fill:#ffffff;stroke:#d62728;" x="633.738676" xlink:href="#m102cdae9ab" y="336.15121"/>
     <use style="fill:#ffffff;stroke:#d62728;" x="662.624689" xlink:href="#m102cdae9ab" y="328.259112"/>
    </g>
   </g>
   <g id="line2d_29">
    <path clip-path="url(#p2cc2ed0b2f)" d="M 117 512.64 
L 122.777203 510.70039 
L 151.663216 506.86681 
L 180.549228 504.972309 
" style="fill:none;stroke:#9467bd;stroke-linecap:square;stroke-width:1.5;"/>
    <g clip-path="url(#p2cc2ed0b2f)">
     <use style="fill:#ffffff;stroke:#9467bd;" x="117" xlink:href="#mc168bbd7a5" y="512.64"/>
     <use style="fill:#ffffff;stroke:#9467bd;" x="122.777203" xlink:href="#mc168bbd7a5" y="510.70039"/>
     <use style="fill:#ffffff;stroke:#9467bd;" x="151.663216" xlink:href="#mc168bbd7a5" y="506.86681"/>
     <use style="fill:#ffffff;stroke:#9467bd;" x="180.549228" xlink:href="#mc168bbd7a5" y="504.972309"/>
    </g>
   </g>
   <g id="line2d_30">
    <path clip-path="url(#p2cc2ed0b2f)" d="M 117 512.64 
L 125.023892 503.092325 
L 153.909905 479.869082 
L 182.795918 449.364145 
L 211.681931 430.391819 
L 240.567944 423.444347 
L 269.453957 402.354864 
L 298.33997 389.963512 
L 327.225983 380.438927 
L 356.111996 365.627875 
L 384.998009 351.560776 
L 413.884022 340.179909 
L 442.770035 333.166311 
L 471.656048 327.287586 
L 500.542061 315.875748 
L 529.428074 302.209311 
L 558.314087 290.855173 
L 587.2001 276.629446 
" style="fill:none;stroke:#8c564b;stroke-linecap:square;stroke-width:1.5;"/>
    <g clip-path="url(#p2cc2ed0b2f)">
     <use style="fill:#ffffff;stroke:#8c564b;" x="117" xlink:href="#m8a5672757f" y="512.64"/>
     <use style="fill:#ffffff;stroke:#8c564b;" x="125.023892" xlink:href="#m8a5672757f" y="503.092325"/>
     <use style="fill:#ffffff;stroke:#8c564b;" x="153.909905" xlink:href="#m8a5672757f" y="479.869082"/>
     <use style="fill:#ffffff;stroke:#8c564b;" x="182.795918" xlink:href="#m8a5672757f" y="449.364145"/>
     <use style="fill:#ffffff;stroke:#8c564b;" x="211.681931" xlink:href="#m8a5672757f" y="430.391819"/>
     <use style="fill:#ffffff;stroke:#8c564b;" x="240.567944" xlink:href="#m8a5672757f" y="423.444347"/>
     <use style="fill:#ffffff;stroke:#8c564b;" x="269.453957" xlink:href="#m8a5672757f" y="402.354864"/>
     <use style="fill:#ffffff;stroke:#8c564b;" x="298.33997" xlink:href="#m8a5672757f" y="389.963512"/>
     <use style="fill:#ffffff;stroke:#8c564b;" x="327.225983" xlink:href="#m8a5672757f" y="380.438927"/>
     <use style="fill:#ffffff;stroke:#8c564b;" x="356.111996" xlink:href="#m8a5672757f" y="365.627875"/>
     <use style="fill:#ffffff;stroke:#8c564b;" x="384.998009" xlink:href="#m8a5672757f" y="351.560776"/>
     <use style="fill:#ffffff;stroke:#8c564b;" x="413.884022" xlink:href="#m8a5672757f" y="340.179909"/>
     <use style="fill:#ffffff;stroke:#8c564b;" x="442.770035" xlink:href="#m8a5672757f" y="333.166311"/>
     <use style="fill:#ffffff;stroke:#8c564b;" x="471.656048" xlink:href="#m8a5672757f" y="327.287586"/>
     <use style="fill:#ffffff;stroke:#8c564b;" x="500.542061" xlink:href="#m8a5672757f" y="315.875748"/>
     <use style="fill:#ffffff;stroke:#8c564b;" x="529.428074" xlink:href="#m8a5672757f" y="302.209311"/>
     <use style="fill:#ffffff;stroke:#8c564b;" x="558.314087" xlink:href="#m8a5672757f" y="290.855173"/>
     <use style="fill:#ffffff;stroke:#8c564b;" x="587.2001" xlink:href="#m8a5672757f" y="276.629446"/>
    </g>
   </g>
   <g id="line2d_31">
    <path clip-path="url(#p2cc2ed0b2f)" d="M 117 512.64 
L 137.220209 499.374925 
L 166.106222 495.712704 
L 194.992235 483.304136 
L 223.878248 478.168992 
L 252.764261 476.480293 
L 281.650274 469.83606 
L 310.536287 452.409579 
L 339.4223 444.862011 
L 368.308313 430.391819 
L 397.194326 420.715499 
L 426.080338 408.769289 
L 454.966351 398.577903 
L 483.852364 394.852683 
L 512.738377 376.950285 
L 541.62439 334.157844 
L 570.510403 322.478172 
L 599.396416 311.249355 
L 628.282429 301.320341 
" style="fill:none;stroke:#e377c2;stroke-linecap:square;stroke-width:1.5;"/>
    <g clip-path="url(#p2cc2ed0b2f)">
     <use style="fill:#ffffff;stroke:#e377c2;" x="117" xlink:href="#mf98d605162" y="512.64"/>
     <use style="fill:#ffffff;stroke:#e377c2;" x="137.220209" xlink:href="#mf98d605162" y="499.374925"/>
     <use style="fill:#ffffff;stroke:#e377c2;" x="166.106222" xlink:href="#mf98d605162" y="495.712704"/>
     <use style="fill:#ffffff;stroke:#e377c2;" x="194.992235" xlink:href="#mf98d605162" y="483.304136"/>
     <use style="fill:#ffffff;stroke:#e377c2;" x="223.878248" xlink:href="#mf98d605162" y="478.168992"/>
     <use style="fill:#ffffff;stroke:#e377c2;" x="252.764261" xlink:href="#mf98d605162" y="476.480293"/>
     <use style="fill:#ffffff;stroke:#e377c2;" x="281.650274" xlink:href="#mf98d605162" y="469.83606"/>
     <use style="fill:#ffffff;stroke:#e377c2;" x="310.536287" xlink:href="#mf98d605162" y="452.409579"/>
     <use style="fill:#ffffff;stroke:#e377c2;" x="339.4223" xlink:href="#mf98d605162" y="444.862011"/>
     <use style="fill:#ffffff;stroke:#e377c2;" x="368.308313" xlink:href="#mf98d605162" y="430.391819"/>
     <use style="fill:#ffffff;stroke:#e377c2;" x="397.194326" xlink:href="#mf98d605162" y="420.715499"/>
     <use style="fill:#ffffff;stroke:#e377c2;" x="426.080338" xlink:href="#mf98d605162" y="408.769289"/>
     <use style="fill:#ffffff;stroke:#e377c2;" x="454.966351" xlink:href="#mf98d605162" y="398.577903"/>
     <use style="fill:#ffffff;stroke:#e377c2;" x="483.852364" xlink:href="#mf98d605162" y="394.852683"/>
     <use style="fill:#ffffff;stroke:#e377c2;" x="512.738377" xlink:href="#mf98d605162" y="376.950285"/>
     <use style="fill:#ffffff;stroke:#e377c2;" x="541.62439" xlink:href="#mf98d605162" y="334.157844"/>
     <use style="fill:#ffffff;stroke:#e377c2;" x="570.510403" xlink:href="#mf98d605162" y="322.478172"/>
     <use style="fill:#ffffff;stroke:#e377c2;" x="599.396416" xlink:href="#mf98d605162" y="311.249355"/>
     <use style="fill:#ffffff;stroke:#e377c2;" x="628.282429" xlink:href="#mf98d605162" y="301.320341"/>
    </g>
   </g>
   <g id="line2d_32">
    <path clip-path="url(#p2cc2ed0b2f)" d="M 117 512.64 
L 126.628671 510.70039 
L 184.400697 495.712704 
L 213.28671 469.83606 
L 242.172723 452.409579 
L 271.058736 443.378452 
L 299.944749 441.903286 
L 328.830762 437.527099 
L 357.716775 433.222757 
L 386.602787 427.590919 
L 415.4888 420.715499 
L 444.374813 408.769289 
L 473.260826 406.185213 
L 531.032852 393.622169 
L 559.918865 389.963512 
L 588.804878 386.353051 
L 617.690891 381.611653 
L 646.576904 373.504982 
L 675.462917 368.976606 
L 704.34893 363.417427 
L 733.234943 357.966204 
" style="fill:none;stroke:#7f7f7f;stroke-linecap:square;stroke-width:1.5;"/>
    <g clip-path="url(#p2cc2ed0b2f)">
     <use style="fill:#ffffff;stroke:#7f7f7f;" x="117" xlink:href="#mc03f71bccb" y="512.64"/>
     <use style="fill:#ffffff;stroke:#7f7f7f;" x="126.628671" xlink:href="#mc03f71bccb" y="510.70039"/>
     <use style="fill:#ffffff;stroke:#7f7f7f;" x="184.400697" xlink:href="#mc03f71bccb" y="495.712704"/>
     <use style="fill:#ffffff;stroke:#7f7f7f;" x="213.28671" xlink:href="#mc03f71bccb" y="469.83606"/>
     <use style="fill:#ffffff;stroke:#7f7f7f;" x="242.172723" xlink:href="#mc03f71bccb" y="452.409579"/>
     <use style="fill:#ffffff;stroke:#7f7f7f;" x="271.058736" xlink:href="#mc03f71bccb" y="443.378452"/>
     <use style="fill:#ffffff;stroke:#7f7f7f;" x="299.944749" xlink:href="#mc03f71bccb" y="441.903286"/>
     <use style="fill:#ffffff;stroke:#7f7f7f;" x="328.830762" xlink:href="#mc03f71bccb" y="437.527099"/>
     <use style="fill:#ffffff;stroke:#7f7f7f;" x="357.716775" xlink:href="#mc03f71bccb" y="433.222757"/>
     <use style="fill:#ffffff;stroke:#7f7f7f;" x="386.602787" xlink:href="#mc03f71bccb" y="427.590919"/>
     <use style="fill:#ffffff;stroke:#7f7f7f;" x="415.4888" xlink:href="#mc03f71bccb" y="420.715499"/>
     <use style="fill:#ffffff;stroke:#7f7f7f;" x="444.374813" xlink:href="#mc03f71bccb" y="408.769289"/>
     <use style="fill:#ffffff;stroke:#7f7f7f;" x="473.260826" xlink:href="#mc03f71bccb" y="406.185213"/>
     <use style="fill:#ffffff;stroke:#7f7f7f;" x="531.032852" xlink:href="#mc03f71bccb" y="393.622169"/>
     <use style="fill:#ffffff;stroke:#7f7f7f;" x="559.918865" xlink:href="#mc03f71bccb" y="389.963512"/>
     <use style="fill:#ffffff;stroke:#7f7f7f;" x="588.804878" xlink:href="#mc03f71bccb" y="386.353051"/>
     <use style="fill:#ffffff;stroke:#7f7f7f;" x="617.690891" xlink:href="#mc03f71bccb" y="381.611653"/>
     <use style="fill:#ffffff;stroke:#7f7f7f;" x="646.576904" xlink:href="#mc03f71bccb" y="373.504982"/>
     <use style="fill:#ffffff;stroke:#7f7f7f;" x="675.462917" xlink:href="#mc03f71bccb" y="368.976606"/>
     <use style="fill:#ffffff;stroke:#7f7f7f;" x="704.34893" xlink:href="#mc03f71bccb" y="363.417427"/>
     <use style="fill:#ffffff;stroke:#7f7f7f;" x="733.234943" xlink:href="#mc03f71bccb" y="357.966204"/>
    </g>
   </g>
   <g id="line2d_33">
    <path clip-path="url(#p2cc2ed0b2f)" d="M 117 512.64 
L 124.646298 495.712704 
L 153.53231 474.802815 
L 182.418323 460.184197 
L 211.304336 443.378452 
L 240.190349 431.803488 
L 269.076362 424.819348 
L 297.962375 373.504982 
L 326.848388 359.048038 
L 355.734401 335.152801 
L 384.620414 309.419024 
L 413.506427 292.574032 
L 442.39244 273.377552 
L 471.278453 256.852838 
L 500.164466 237.55188 
L 529.050479 221.419869 
L 557.936492 197.077089 
L 586.822505 181.614162 
L 615.708518 174.445036 
L 644.59453 168.588234 
L 673.480543 149.965682 
L 702.366556 135.991947 
L 731.252569 120.555655 
L 760.138582 106.269436 
L 789.024595 90.24 
" style="fill:none;stroke:#bcbd22;stroke-linecap:square;stroke-width:1.5;"/>
    <g clip-path="url(#p2cc2ed0b2f)">
     <use style="fill:#ffffff;stroke:#bcbd22;" x="117" xlink:href="#m3a9e9c783e" y="512.64"/>
     <use style="fill:#ffffff;stroke:#bcbd22;" x="124.646298" xlink:href="#m3a9e9c783e" y="495.712704"/>
     <use style="fill:#ffffff;stroke:#bcbd22;" x="153.53231" xlink:href="#m3a9e9c783e" y="474.802815"/>
     <use style="fill:#ffffff;stroke:#bcbd22;" x="182.418323" xlink:href="#m3a9e9c783e" y="460.184197"/>
     <use style="fill:#ffffff;stroke:#bcbd22;" x="211.304336" xlink:href="#m3a9e9c783e" y="443.378452"/>
     <use style="fill:#ffffff;stroke:#bcbd22;" x="240.190349" xlink:href="#m3a9e9c783e" y="431.803488"/>
     <use style="fill:#ffffff;stroke:#bcbd22;" x="269.076362" xlink:href="#m3a9e9c783e" y="424.819348"/>
     <use style="fill:#ffffff;stroke:#bcbd22;" x="297.962375" xlink:href="#m3a9e9c783e" y="373.504982"/>
     <use style="fill:#ffffff;stroke:#bcbd22;" x="326.848388" xlink:href="#m3a9e9c783e" y="359.048038"/>
     <use style="fill:#ffffff;stroke:#bcbd22;" x="355.734401" xlink:href="#m3a9e9c783e" y="335.152801"/>
     <use style="fill:#ffffff;stroke:#bcbd22;" x="384.620414" xlink:href="#m3a9e9c783e" y="309.419024"/>
     <use style="fill:#ffffff;stroke:#bcbd22;" x="413.506427" xlink:href="#m3a9e9c783e" y="292.574032"/>
     <use style="fill:#ffffff;stroke:#bcbd22;" x="442.39244" xlink:href="#m3a9e9c783e" y="273.377552"/>
     <use style="fill:#ffffff;stroke:#bcbd22;" x="471.278453" xlink:href="#m3a9e9c783e" y="256.852838"/>
     <use style="fill:#ffffff;stroke:#bcbd22;" x="500.164466" xlink:href="#m3a9e9c783e" y="237.55188"/>
     <use style="fill:#ffffff;stroke:#bcbd22;" x="529.050479" xlink:href="#m3a9e9c783e" y="221.419869"/>
     <use style="fill:#ffffff;stroke:#bcbd22;" x="557.936492" xlink:href="#m3a9e9c783e" y="197.077089"/>
     <use style="fill:#ffffff;stroke:#bcbd22;" x="586.822505" xlink:href="#m3a9e9c783e" y="181.614162"/>
     <use style="fill:#ffffff;stroke:#bcbd22;" x="615.708518" xlink:href="#m3a9e9c783e" y="174.445036"/>
     <use style="fill:#ffffff;stroke:#bcbd22;" x="644.59453" xlink:href="#m3a9e9c783e" y="168.588234"/>
     <use style="fill:#ffffff;stroke:#bcbd22;" x="673.480543" xlink:href="#m3a9e9c783e" y="149.965682"/>
     <use style="fill:#ffffff;stroke:#bcbd22;" x="702.366556" xlink:href="#m3a9e9c783e" y="135.991947"/>
     <use style="fill:#ffffff;stroke:#bcbd22;" x="731.252569" xlink:href="#m3a9e9c783e" y="120.555655"/>
     <use style="fill:#ffffff;stroke:#bcbd22;" x="760.138582" xlink:href="#m3a9e9c783e" y="106.269436"/>
     <use style="fill:#ffffff;stroke:#bcbd22;" x="789.024595" xlink:href="#m3a9e9c783e" y="90.24"/>
    </g>
   </g>
   <g id="line2d_34">
    <path clip-path="url(#p2cc2ed0b2f)" d="M 117 512.64 
L 143.478845 492.103851 
L 172.364858 463.361139 
L 201.250871 449.364145 
L 230.136884 438.977713 
L 259.022897 424.819348 
L 287.90891 403.625632 
L 316.794923 388.754741 
L 345.680936 371.231599 
L 374.566949 362.318698 
L 403.452962 355.814901 
L 432.338975 346.331266 
L 461.224988 336.15121 
L 490.111 324.39239 
L 518.997013 320.576465 
L 547.883026 310.332765 
L 576.769039 305.792152 
L 605.655052 302.209311 
L 634.541065 296.915029 
L 663.427078 289.146144 
L 692.313091 273.377552 
L 721.199104 266.976463 
L 750.085117 260.707032 
L 778.97113 252.290695 
L 807.857143 247.052071 
" style="fill:none;stroke:#17becf;stroke-linecap:square;stroke-width:1.5;"/>
    <g clip-path="url(#p2cc2ed0b2f)">
     <use style="fill:#ffffff;stroke:#17becf;" x="117" xlink:href="#md0e9499d52" y="512.64"/>
     <use style="fill:#ffffff;stroke:#17becf;" x="143.478845" xlink:href="#md0e9499d52" y="492.103851"/>
     <use style="fill:#ffffff;stroke:#17becf;" x="172.364858" xlink:href="#md0e9499d52" y="463.361139"/>
     <use style="fill:#ffffff;stroke:#17becf;" x="201.250871" xlink:href="#md0e9499d52" y="449.364145"/>
     <use style="fill:#ffffff;stroke:#17becf;" x="230.136884" xlink:href="#md0e9499d52" y="438.977713"/>
     <use style="fill:#ffffff;stroke:#17becf;" x="259.022897" xlink:href="#md0e9499d52" y="424.819348"/>
     <use style="fill:#ffffff;stroke:#17becf;" x="287.90891" xlink:href="#md0e9499d52" y="403.625632"/>
     <use style="fill:#ffffff;stroke:#17becf;" x="316.794923" xlink:href="#md0e9499d52" y="388.754741"/>
     <use style="fill:#ffffff;stroke:#17becf;" x="345.680936" xlink:href="#md0e9499d52" y="371.231599"/>
     <use style="fill:#ffffff;stroke:#17becf;" x="374.566949" xlink:href="#md0e9499d52" y="362.318698"/>
     <use style="fill:#ffffff;stroke:#17becf;" x="403.452962" xlink:href="#md0e9499d52" y="355.814901"/>
     <use style="fill:#ffffff;stroke:#17becf;" x="432.338975" xlink:href="#md0e9499d52" y="346.331266"/>
     <use style="fill:#ffffff;stroke:#17becf;" x="461.224988" xlink:href="#md0e9499d52" y="336.15121"/>
     <use style="fill:#ffffff;stroke:#17becf;" x="490.111" xlink:href="#md0e9499d52" y="324.39239"/>
     <use style="fill:#ffffff;stroke:#17becf;" x="518.997013" xlink:href="#md0e9499d52" y="320.576465"/>
     <use style="fill:#ffffff;stroke:#17becf;" x="547.883026" xlink:href="#md0e9499d52" y="310.332765"/>
     <use style="fill:#ffffff;stroke:#17becf;" x="576.769039" xlink:href="#md0e9499d52" y="305.792152"/>
     <use style="fill:#ffffff;stroke:#17becf;" x="605.655052" xlink:href="#md0e9499d52" y="302.209311"/>
     <use style="fill:#ffffff;stroke:#17becf;" x="634.541065" xlink:href="#md0e9499d52" y="296.915029"/>
     <use style="fill:#ffffff;stroke:#17becf;" x="663.427078" xlink:href="#md0e9499d52" y="289.146144"/>
     <use style="fill:#ffffff;stroke:#17becf;" x="692.313091" xlink:href="#md0e9499d52" y="273.377552"/>
     <use style="fill:#ffffff;stroke:#17becf;" x="721.199104" xlink:href="#md0e9499d52" y="266.976463"/>
     <use style="fill:#ffffff;stroke:#17becf;" x="750.085117" xlink:href="#md0e9499d52" y="260.707032"/>
     <use style="fill:#ffffff;stroke:#17becf;" x="778.97113" xlink:href="#md0e9499d52" y="252.290695"/>
     <use style="fill:#ffffff;stroke:#17becf;" x="807.857143" xlink:href="#md0e9499d52" y="247.052071"/>
    </g>
   </g>
   <g id="patch_3">
    <path d="M 117 512.64 
L 117 69.12 
" style="fill:none;stroke:#666666;stroke-linecap:square;stroke-linejoin:miter;stroke-width:0.8;"/>
   </g>
   <g id="patch_4">
    <path d="M 117 512.64 
L 842.4 512.64 
" style="fill:none;stroke:#666666;stroke-linecap:square;stroke-linejoin:miter;stroke-width:0.8;"/>
   </g>
   <g id="text_7">
    <g id="patch_5">
     <path d="M 513.107472 285.98553 
C 514.607472 287.48553 527.019972 287.48553 528.519972 285.98553 
C 530.019972 284.48553 530.019972 274.807405 528.519972 273.307405 
C 527.019972 271.807405 514.607472 271.807405 513.107472 273.307405 
C 511.607472 274.807405 511.607472 284.48553 513.107472 285.98553 
z
" style="fill:#ffffff;stroke:#1f77b4;stroke-linejoin:miter;"/>
    </g>
    <!-- AL -->
    <defs>
     <path d="M 34.1875 63.1875 
L 20.796875 26.90625 
L 47.609375 26.90625 
z
M 28.609375 72.90625 
L 39.796875 72.90625 
L 67.578125 0 
L 57.328125 0 
L 50.6875 18.703125 
L 17.828125 18.703125 
L 11.1875 0 
L 0.78125 0 
z
" id="DejaVuSans-65"/>
     <path d="M 9.8125 72.90625 
L 19.671875 72.90625 
L 19.671875 8.296875 
L 55.171875 8.296875 
L 55.171875 0 
L 9.8125 0 
z
" id="DejaVuSans-76"/>
    </defs>
    <g style="fill:#1f77b4;" transform="translate(514.607472 282.405842)scale(0.1 -0.1)">
     <use xlink:href="#DejaVuSans-65"/>
     <use x="68.408203" xlink:href="#DejaVuSans-76"/>
    </g>
   </g>
   <g id="text_8">
    <g id="patch_6">
     <path d="M 714.228268 253.614379 
C 715.728268 255.114379 729.418893 255.114379 730.918893 253.614379 
C 732.418893 252.114379 732.418893 242.436254 730.918893 240.936254 
C 729.418893 239.436254 715.728268 239.436254 714.228268 240.936254 
C 712.728268 242.436254 712.728268 252.114379 714.228268 253.614379 
z
" style="fill:#ffffff;stroke:#ff7f0e;stroke-linejoin:miter;"/>
    </g>
    <!-- AZ -->
    <defs>
     <path d="M 5.609375 72.90625 
L 62.890625 72.90625 
L 62.890625 65.375 
L 16.796875 8.296875 
L 64.015625 8.296875 
L 64.015625 0 
L 4.5 0 
L 4.5 7.515625 
L 50.59375 64.59375 
L 5.609375 64.59375 
z
" id="DejaVuSans-90"/>
    </defs>
    <g style="fill:#ff7f0e;" transform="translate(715.728268 250.034691)scale(0.1 -0.1)">
     <use xlink:href="#DejaVuSans-65"/>
     <use x="68.408203" xlink:href="#DejaVuSans-90"/>
    </g>
   </g>
   <g id="text_9">
    <g id="patch_7">
     <path d="M 478.17994 329.898994 
C 479.67994 331.398994 494.362753 331.398994 495.862753 329.898994 
C 497.362753 328.398994 497.362753 318.720869 495.862753 317.220869 
C 494.362753 315.720869 479.67994 315.720869 478.17994 317.220869 
C 476.67994 318.720869 476.67994 328.398994 478.17994 329.898994 
z
" style="fill:#ffffff;stroke:#2ca02c;stroke-linejoin:miter;"/>
    </g>
    <!-- DC -->
    <defs>
     <path d="M 64.40625 67.28125 
L 64.40625 56.890625 
Q 59.421875 61.53125 53.78125 63.8125 
Q 48.140625 66.109375 41.796875 66.109375 
Q 29.296875 66.109375 22.65625 58.46875 
Q 16.015625 50.828125 16.015625 36.375 
Q 16.015625 21.96875 22.65625 14.328125 
Q 29.296875 6.6875 41.796875 6.6875 
Q 48.140625 6.6875 53.78125 8.984375 
Q 59.421875 11.28125 64.40625 15.921875 
L 64.40625 5.609375 
Q 59.234375 2.09375 53.4375 0.328125 
Q 47.65625 -1.421875 41.21875 -1.421875 
Q 24.65625 -1.421875 15.125 8.703125 
Q 5.609375 18.84375 5.609375 36.375 
Q 5.609375 53.953125 15.125 64.078125 
Q 24.65625 74.21875 41.21875 74.21875 
Q 47.75 74.21875 53.53125 72.484375 
Q 59.328125 70.75 64.40625 67.28125 
z
" id="DejaVuSans-67"/>
    </defs>
    <g style="fill:#2ca02c;" transform="translate(479.67994 326.319306)scale(0.1 -0.1)">
     <use xlink:href="#DejaVuSans-68"/>
     <use x="77.001953" xlink:href="#DejaVuSans-67"/>
    </g>
   </g>
   <g id="text_10">
    <g id="patch_8">
     <path d="M 346.588104 409.764901 
C 348.088104 411.264901 362.106854 411.264901 363.606854 409.764901 
C 365.106854 408.264901 365.106854 398.586776 363.606854 397.086776 
C 362.106854 395.586776 348.088104 395.586776 346.588104 397.086776 
C 345.088104 398.586776 345.088104 408.264901 346.588104 409.764901 
z
" style="fill:#ffffff;stroke:#d62728;stroke-linejoin:miter;"/>
    </g>
    <!-- DE -->
    <defs>
     <path d="M 9.8125 72.90625 
L 55.90625 72.90625 
L 55.90625 64.59375 
L 19.671875 64.59375 
L 19.671875 43.015625 
L 54.390625 43.015625 
L 54.390625 34.71875 
L 19.671875 34.71875 
L 19.671875 8.296875 
L 56.78125 8.296875 
L 56.78125 0 
L 9.8125 0 
z
" id="DejaVuSans-69"/>
    </defs>
    <g style="fill:#d62728;" transform="translate(348.088104 406.185213)scale(0.1 -0.1)">
     <use xlink:href="#DejaVuSans-68"/>
     <use x="77.001953" xlink:href="#DejaVuSans-69"/>
    </g>
   </g>
   <g id="text_11">
    <g id="patch_9">
     <path d="M 364.970112 400.910181 
C 366.470112 402.410181 376.260737 402.410181 377.760737 400.910181 
C 379.260737 399.410181 379.260737 389.732056 377.760737 388.232056 
C 376.260737 386.732056 366.470112 386.732056 364.970112 388.232056 
C 363.470112 389.732056 363.470112 399.410181 364.970112 400.910181 
z
" style="fill:#ffffff;stroke:#9467bd;stroke-linejoin:miter;"/>
    </g>
    <!-- IA -->
    <defs>
     <path d="M 9.8125 72.90625 
L 19.671875 72.90625 
L 19.671875 0 
L 9.8125 0 
z
" id="DejaVuSans-73"/>
    </defs>
    <g style="fill:#9467bd;" transform="translate(366.470112 397.330493)scale(0.1 -0.1)">
     <use xlink:href="#DejaVuSans-73"/>
     <use x="29.492188" xlink:href="#DejaVuSans-65"/>
    </g>
   </g>
   <g id="text_12">
    <g id="patch_10">
     <path d="M 462.132155 462.190055 
C 463.632155 463.690055 476.538405 463.690055 478.038405 462.190055 
C 479.538405 460.690055 479.538405 451.01193 478.038405 449.51193 
C 476.538405 448.01193 463.632155 448.01193 462.132155 449.51193 
C 460.632155 451.01193 460.632155 460.690055 462.132155 462.190055 
z
" style="fill:#ffffff;stroke:#8c564b;stroke-linejoin:miter;"/>
    </g>
    <!-- KS -->
    <defs>
     <path d="M 9.8125 72.90625 
L 19.671875 72.90625 
L 19.671875 42.09375 
L 52.390625 72.90625 
L 65.09375 72.90625 
L 28.90625 38.921875 
L 67.671875 0 
L 54.6875 0 
L 19.671875 35.109375 
L 19.671875 0 
L 9.8125 0 
z
" id="DejaVuSans-75"/>
     <path d="M 53.515625 70.515625 
L 53.515625 60.890625 
Q 47.90625 63.578125 42.921875 64.890625 
Q 37.9375 66.21875 33.296875 66.21875 
Q 25.25 66.21875 20.875 63.09375 
Q 16.5 59.96875 16.5 54.203125 
Q 16.5 49.359375 19.40625 46.890625 
Q 22.3125 44.4375 30.421875 42.921875 
L 36.375 41.703125 
Q 47.40625 39.59375 52.65625 34.296875 
Q 57.90625 29 57.90625 20.125 
Q 57.90625 9.515625 50.796875 4.046875 
Q 43.703125 -1.421875 29.984375 -1.421875 
Q 24.8125 -1.421875 18.96875 -0.25 
Q 13.140625 0.921875 6.890625 3.21875 
L 6.890625 13.375 
Q 12.890625 10.015625 18.65625 8.296875 
Q 24.421875 6.59375 29.984375 6.59375 
Q 38.421875 6.59375 43.015625 9.90625 
Q 47.609375 13.234375 47.609375 19.390625 
Q 47.609375 24.75 44.3125 27.78125 
Q 41.015625 30.8125 33.5 32.328125 
L 27.484375 33.5 
Q 16.453125 35.6875 11.515625 40.375 
Q 6.59375 45.0625 6.59375 53.421875 
Q 6.59375 63.09375 13.40625 68.65625 
Q 20.21875 74.21875 32.171875 74.21875 
Q 37.3125 74.21875 42.625 73.28125 
Q 47.953125 72.359375 53.515625 70.515625 
z
" id="DejaVuSans-83"/>
    </defs>
    <g style="fill:#8c564b;" transform="translate(463.632155 458.610367)scale(0.1 -0.1)">
     <use xlink:href="#DejaVuSans-75"/>
     <use x="65.576172" xlink:href="#DejaVuSans-83"/>
    </g>
   </g>
   <g id="text_13">
    <g id="patch_11">
     <path d="M 647.002638 322.266775 
C 648.502638 323.766775 660.805763 323.766775 662.305763 322.266775 
C 663.805763 320.766775 663.805763 311.08865 662.305763 309.58865 
C 660.805763 308.08865 648.502638 308.08865 647.002638 309.58865 
C 645.502638 311.08865 645.502638 320.766775 647.002638 322.266775 
z
" style="fill:#ffffff;stroke:#e377c2;stroke-linejoin:miter;"/>
    </g>
    <!-- KY -->
    <defs>
     <path d="M -0.203125 72.90625 
L 10.40625 72.90625 
L 30.609375 42.921875 
L 50.6875 72.90625 
L 61.28125 72.90625 
L 35.5 34.71875 
L 35.5 0 
L 25.59375 0 
L 25.59375 34.71875 
z
" id="DejaVuSans-89"/>
    </defs>
    <g style="fill:#e377c2;" transform="translate(648.502638 318.687087)scale(0.1 -0.1)">
     <use xlink:href="#DejaVuSans-75"/>
     <use x="61.951172" xlink:href="#DejaVuSans-89"/>
    </g>
   </g>
   <g id="text_14">
    <g id="patch_12">
     <path d="M 567.481144 208.350451 
C 568.981144 209.850451 585.090519 209.850451 586.590519 208.350451 
C 588.090519 206.850451 588.090519 197.172326 586.590519 195.672326 
C 585.090519 194.172326 568.981144 194.172326 567.481144 195.672326 
C 565.981144 197.172326 565.981144 206.850451 567.481144 208.350451 
z
" style="fill:#ffffff;stroke:#7f7f7f;stroke-linejoin:miter;"/>
    </g>
    <!-- MN -->
    <defs>
     <path d="M 9.8125 72.90625 
L 24.515625 72.90625 
L 43.109375 23.296875 
L 61.8125 72.90625 
L 76.515625 72.90625 
L 76.515625 0 
L 66.890625 0 
L 66.890625 64.015625 
L 48.09375 14.015625 
L 38.1875 14.015625 
L 19.390625 64.015625 
L 19.390625 0 
L 9.8125 0 
z
" id="DejaVuSans-77"/>
     <path d="M 9.8125 72.90625 
L 23.09375 72.90625 
L 55.421875 11.921875 
L 55.421875 72.90625 
L 64.984375 72.90625 
L 64.984375 0 
L 51.703125 0 
L 19.390625 60.984375 
L 19.390625 0 
L 9.8125 0 
z
" id="DejaVuSans-78"/>
    </defs>
    <g style="fill:#7f7f7f;" transform="translate(568.981144 204.770763)scale(0.1 -0.1)">
     <use xlink:href="#DejaVuSans-77"/>
     <use x="86.279297" xlink:href="#DejaVuSans-78"/>
    </g>
   </g>
   <g id="text_15">
    <g id="patch_13">
     <path d="M 742.104281 238.265755 
C 743.604281 239.765755 760.104281 239.765755 761.604281 238.265755 
C 763.104281 236.765755 763.104281 227.08763 761.604281 225.58763 
C 760.104281 224.08763 743.604281 224.08763 742.104281 225.58763 
C 740.604281 227.08763 740.604281 236.765755 742.104281 238.265755 
z
" style="fill:#ffffff;stroke:#bcbd22;stroke-linejoin:miter;"/>
    </g>
    <!-- MO -->
    <defs>
     <path d="M 39.40625 66.21875 
Q 28.65625 66.21875 22.328125 58.203125 
Q 16.015625 50.203125 16.015625 36.375 
Q 16.015625 22.609375 22.328125 14.59375 
Q 28.65625 6.59375 39.40625 6.59375 
Q 50.140625 6.59375 56.421875 14.59375 
Q 62.703125 22.609375 62.703125 36.375 
Q 62.703125 50.203125 56.421875 58.203125 
Q 50.140625 66.21875 39.40625 66.21875 
z
M 39.40625 74.21875 
Q 54.734375 74.21875 63.90625 63.9375 
Q 73.09375 53.65625 73.09375 36.375 
Q 73.09375 19.140625 63.90625 8.859375 
Q 54.734375 -1.421875 39.40625 -1.421875 
Q 24.03125 -1.421875 14.8125 8.828125 
Q 5.609375 19.09375 5.609375 36.375 
Q 5.609375 53.65625 14.8125 63.9375 
Q 24.03125 74.21875 39.40625 74.21875 
z
" id="DejaVuSans-79"/>
    </defs>
    <g style="fill:#bcbd22;" transform="translate(743.604281 234.686067)scale(0.1 -0.1)">
     <use xlink:href="#DejaVuSans-77"/>
     <use x="86.279297" xlink:href="#DejaVuSans-79"/>
    </g>
   </g>
   <g id="text_16">
    <g id="patch_14">
     <path d="M 659.890244 284.323811 
C 661.390244 285.823811 676.366806 285.823811 677.866806 284.323811 
C 679.366806 282.823811 679.366806 273.145686 677.866806 271.645686 
C 676.366806 270.145686 661.390244 270.145686 659.890244 271.645686 
C 658.390244 273.145686 658.390244 282.823811 659.890244 284.323811 
z
" style="fill:#ffffff;stroke:#17becf;stroke-linejoin:miter;"/>
    </g>
    <!-- MS -->
    <g style="fill:#17becf;" transform="translate(661.390244 280.744123)scale(0.1 -0.1)">
     <use xlink:href="#DejaVuSans-77"/>
     <use x="86.279297" xlink:href="#DejaVuSans-83"/>
    </g>
   </g>
   <g id="text_17">
    <g id="patch_15">
     <path d="M 645.952238 192.524102 
C 647.452238 194.024102 661.9163 194.024102 663.4163 192.524102 
C 664.9163 191.024102 664.9163 181.345977 663.4163 179.845977 
C 661.9163 178.345977 647.452238 178.345977 645.952238 179.845977 
C 644.452238 181.345977 644.452238 191.024102 645.952238 192.524102 
z
" style="fill:#ffffff;stroke:#1f77b4;stroke-linejoin:miter;"/>
    </g>
    <!-- NC -->
    <g style="fill:#1f77b4;" transform="translate(647.452238 188.944414)scale(0.1 -0.1)">
     <use xlink:href="#DejaVuSans-78"/>
     <use x="74.804688" xlink:href="#DejaVuSans-67"/>
    </g>
   </g>
   <g id="text_18">
    <g id="patch_16">
     <path d="M 254.152862 462.190055 
C 255.652862 463.690055 271.762237 463.690055 273.262237 462.190055 
C 274.762237 460.690055 274.762237 451.01193 273.262237 449.51193 
C 271.762237 448.01193 255.652862 448.01193 254.152862 449.51193 
C 252.652862 451.01193 252.652862 460.690055 254.152862 462.190055 
z
" style="fill:#ffffff;stroke:#ff7f0e;stroke-linejoin:miter;"/>
    </g>
    <!-- NM -->
    <g style="fill:#ff7f0e;" transform="translate(255.652862 458.610367)scale(0.1 -0.1)">
     <use xlink:href="#DejaVuSans-78"/>
     <use x="74.804688" xlink:href="#DejaVuSans-77"/>
    </g>
   </g>
   <g id="text_19">
    <g id="patch_17">
     <path d="M 703.724264 316.67085 
C 705.224264 318.17085 719.546139 318.17085 721.046139 316.67085 
C 722.546139 315.17085 722.546139 305.492725 721.046139 303.992725 
C 719.546139 302.492725 705.224264 302.492725 703.724264 303.992725 
C 702.224264 305.492725 702.224264 315.17085 703.724264 316.67085 
z
" style="fill:#ffffff;stroke:#2ca02c;stroke-linejoin:miter;"/>
    </g>
    <!-- NV -->
    <defs>
     <path d="M 28.609375 0 
L 0.78125 72.90625 
L 11.078125 72.90625 
L 34.1875 11.53125 
L 57.328125 72.90625 
L 67.578125 72.90625 
L 39.796875 0 
z
" id="DejaVuSans-86"/>
    </defs>
    <g style="fill:#2ca02c;" transform="translate(705.224264 313.091162)scale(0.1 -0.1)">
     <use xlink:href="#DejaVuSans-78"/>
     <use x="74.804688" xlink:href="#DejaVuSans-86"/>
    </g>
   </g>
   <g id="text_20">
    <g id="patch_18">
     <path d="M 661.124689 331.838799 
C 662.624689 333.338799 677.054376 333.338799 678.554376 331.838799 
C 680.054376 330.338799 680.054376 320.660674 678.554376 319.160674 
C 677.054376 317.660674 662.624689 317.660674 661.124689 319.160674 
C 659.624689 320.660674 659.624689 330.338799 661.124689 331.838799 
z
" style="fill:#ffffff;stroke:#d62728;stroke-linejoin:miter;"/>
    </g>
    <!-- OK -->
    <g style="fill:#d62728;" transform="translate(662.624689 328.259112)scale(0.1 -0.1)">
     <use xlink:href="#DejaVuSans-79"/>
     <use x="78.710938" xlink:href="#DejaVuSans-75"/>
    </g>
   </g>
   <g id="text_21">
    <g id="patch_19">
     <path d="M 179.049228 508.551996 
C 180.549228 510.051996 195.369541 510.051996 196.869541 508.551996 
C 198.369541 507.051996 198.369541 497.373871 196.869541 495.873871 
C 195.369541 494.373871 180.549228 494.373871 179.049228 495.873871 
C 177.549228 497.373871 177.549228 507.051996 179.049228 508.551996 
z
" style="fill:#ffffff;stroke:#9467bd;stroke-linejoin:miter;"/>
    </g>
    <!-- OR -->
    <defs>
     <path d="M 44.390625 34.1875 
Q 47.5625 33.109375 50.5625 29.59375 
Q 53.5625 26.078125 56.59375 19.921875 
L 66.609375 0 
L 56 0 
L 46.6875 18.703125 
Q 43.0625 26.03125 39.671875 28.421875 
Q 36.28125 30.8125 30.421875 30.8125 
L 19.671875 30.8125 
L 19.671875 0 
L 9.8125 0 
L 9.8125 72.90625 
L 32.078125 72.90625 
Q 44.578125 72.90625 50.734375 67.671875 
Q 56.890625 62.453125 56.890625 51.90625 
Q 56.890625 45.015625 53.6875 40.46875 
Q 50.484375 35.9375 44.390625 34.1875 
z
M 19.671875 64.796875 
L 19.671875 38.921875 
L 32.078125 38.921875 
Q 39.203125 38.921875 42.84375 42.21875 
Q 46.484375 45.515625 46.484375 51.90625 
Q 46.484375 58.296875 42.84375 61.546875 
Q 39.203125 64.796875 32.078125 64.796875 
z
" id="DejaVuSans-82"/>
    </defs>
    <g style="fill:#9467bd;" transform="translate(180.549228 504.972309)scale(0.1 -0.1)">
     <use xlink:href="#DejaVuSans-79"/>
     <use x="78.710938" xlink:href="#DejaVuSans-82"/>
    </g>
   </g>
   <g id="text_22">
    <g id="patch_20">
     <path d="M 585.7001 280.209134 
C 587.2001 281.709134 597.098537 281.709134 598.598537 280.209134 
C 600.098537 278.709134 600.098537 269.031009 598.598537 267.531009 
C 597.098537 266.031009 587.2001 266.031009 585.7001 267.531009 
C 584.2001 269.031009 584.2001 278.709134 585.7001 280.209134 
z
" style="fill:#ffffff;stroke:#8c564b;stroke-linejoin:miter;"/>
    </g>
    <!-- RI -->
    <g style="fill:#8c564b;" transform="translate(587.2001 276.629446)scale(0.1 -0.1)">
     <use xlink:href="#DejaVuSans-82"/>
     <use x="69.482422" xlink:href="#DejaVuSans-73"/>
    </g>
   </g>
   <g id="text_23">
    <g id="patch_21">
     <path d="M 626.782429 304.900028 
C 628.282429 306.400028 641.613679 306.400028 643.113679 304.900028 
C 644.613679 303.400028 644.613679 293.721903 643.113679 292.221903 
C 641.613679 290.721903 628.282429 290.721903 626.782429 292.221903 
C 625.282429 293.721903 625.282429 303.400028 626.782429 304.900028 
z
" style="fill:#ffffff;stroke:#e377c2;stroke-linejoin:miter;"/>
    </g>
    <!-- SC -->
    <g style="fill:#e377c2;" transform="translate(628.282429 301.320341)scale(0.1 -0.1)">
     <use xlink:href="#DejaVuSans-83"/>
     <use x="63.476562" xlink:href="#DejaVuSans-67"/>
    </g>
   </g>
   <g id="text_24">
    <g id="patch_22">
     <path d="M 731.734943 361.545892 
C 733.234943 363.045892 746.824005 363.045892 748.324005 361.545892 
C 749.824005 360.045892 749.824005 350.367767 748.324005 348.867767 
C 746.824005 347.367767 733.234943 347.367767 731.734943 348.867767 
C 730.234943 350.367767 730.234943 360.045892 731.734943 361.545892 
z
" style="fill:#ffffff;stroke:#7f7f7f;stroke-linejoin:miter;"/>
    </g>
    <!-- TN -->
    <defs>
     <path d="M -0.296875 72.90625 
L 61.375 72.90625 
L 61.375 64.59375 
L 35.5 64.59375 
L 35.5 0 
L 25.59375 0 
L 25.59375 64.59375 
L -0.296875 64.59375 
z
" id="DejaVuSans-84"/>
    </defs>
    <g style="fill:#7f7f7f;" transform="translate(733.234943 357.966204)scale(0.1 -0.1)">
     <use xlink:href="#DejaVuSans-84"/>
     <use x="61.083984" xlink:href="#DejaVuSans-78"/>
    </g>
   </g>
   <g id="text_25">
    <g id="patch_23">
     <path d="M 787.524595 93.819688 
C 789.024595 95.319688 802.068345 95.319688 803.568345 93.819688 
C 805.068345 92.319688 805.068345 82.641563 803.568345 81.141563 
C 802.068345 79.641563 789.024595 79.641563 787.524595 81.141563 
C 786.024595 82.641563 786.024595 92.319688 787.524595 93.819688 
z
" style="fill:#ffffff;stroke:#bcbd22;stroke-linejoin:miter;"/>
    </g>
    <!-- VA -->
    <g style="fill:#bcbd22;" transform="translate(789.024595 90.24)scale(0.1 -0.1)">
     <use xlink:href="#DejaVuSans-86"/>
     <use x="62.033203" xlink:href="#DejaVuSans-65"/>
    </g>
   </g>
   <g id="text_26">
    <g id="patch_24">
     <path d="M 806.357143 250.631758 
C 807.857143 252.131758 820.694643 252.131758 822.194643 250.631758 
C 823.694643 249.131758 823.694643 239.453633 822.194643 237.953633 
C 820.694643 236.453633 807.857143 236.453633 806.357143 237.953633 
C 804.857143 239.453633 804.857143 249.131758 806.357143 250.631758 
z
" style="fill:#ffffff;stroke:#17becf;stroke-linejoin:miter;"/>
    </g>
    <!-- WI -->
    <defs>
     <path d="M 3.328125 72.90625 
L 13.28125 72.90625 
L 28.609375 11.28125 
L 43.890625 72.90625 
L 54.984375 72.90625 
L 70.3125 11.28125 
L 85.59375 72.90625 
L 95.609375 72.90625 
L 77.296875 0 
L 64.890625 0 
L 49.515625 63.28125 
L 33.984375 0 
L 21.578125 0 
z
" id="DejaVuSans-87"/>
    </defs>
    <g style="fill:#17becf;" transform="translate(807.857143 247.052071)scale(0.1 -0.1)">
     <use xlink:href="#DejaVuSans-87"/>
     <use x="98.876953" xlink:href="#DejaVuSans-73"/>
    </g>
   </g>
   <g id="text_27">
    <!-- 1d -->
    <g style="fill:#b2b2b2;" transform="translate(169.992235 85.617616)scale(0.1 -0.1)">
     <use xlink:href="#DejaVuSans-49"/>
     <use x="63.623047" xlink:href="#DejaVuSans-100"/>
    </g>
   </g>
   <g id="text_28">
    <!-- 2d -->
    <g style="fill:#b2b2b2;" transform="translate(247.98447 85.617616)scale(0.1 -0.1)">
     <use xlink:href="#DejaVuSans-50"/>
     <use x="63.623047" xlink:href="#DejaVuSans-100"/>
    </g>
   </g>
   <g id="text_29">
    <!-- 3d -->
    <defs>
     <path d="M 40.578125 39.3125 
Q 47.65625 37.796875 51.625 33 
Q 55.609375 28.21875 55.609375 21.1875 
Q 55.609375 10.40625 48.1875 4.484375 
Q 40.765625 -1.421875 27.09375 -1.421875 
Q 22.515625 -1.421875 17.65625 -0.515625 
Q 12.796875 0.390625 7.625 2.203125 
L 7.625 11.71875 
Q 11.71875 9.328125 16.59375 8.109375 
Q 21.484375 6.890625 26.8125 6.890625 
Q 36.078125 6.890625 40.9375 10.546875 
Q 45.796875 14.203125 45.796875 21.1875 
Q 45.796875 27.640625 41.28125 31.265625 
Q 36.765625 34.90625 28.71875 34.90625 
L 20.21875 34.90625 
L 20.21875 43.015625 
L 29.109375 43.015625 
Q 36.375 43.015625 40.234375 45.921875 
Q 44.09375 48.828125 44.09375 54.296875 
Q 44.09375 59.90625 40.109375 62.90625 
Q 36.140625 65.921875 28.71875 65.921875 
Q 24.65625 65.921875 20.015625 65.03125 
Q 15.375 64.15625 9.8125 62.3125 
L 9.8125 71.09375 
Q 15.4375 72.65625 20.34375 73.4375 
Q 25.25 74.21875 29.59375 74.21875 
Q 40.828125 74.21875 47.359375 69.109375 
Q 53.90625 64.015625 53.90625 55.328125 
Q 53.90625 49.265625 50.4375 45.09375 
Q 46.96875 40.921875 40.578125 39.3125 
z
" id="DejaVuSans-51"/>
    </defs>
    <g style="fill:#b2b2b2;" transform="translate(325.976705 85.617616)scale(0.1 -0.1)">
     <use xlink:href="#DejaVuSans-51"/>
     <use x="63.623047" xlink:href="#DejaVuSans-100"/>
    </g>
   </g>
   <g id="text_30">
    <!-- 7d -->
    <g style="fill:#b2b2b2;" transform="translate(637.945645 85.617616)scale(0.1 -0.1)">
     <use xlink:href="#DejaVuSans-55"/>
     <use x="63.623047" xlink:href="#DejaVuSans-100"/>
    </g>
   </g>
   <g id="text_31">
    <!-- COVID-19 Deaths by States as of 2020-05-03 03:06 EDT -->
    <defs>
     <path d="M 4.890625 31.390625 
L 31.203125 31.390625 
L 31.203125 23.390625 
L 4.890625 23.390625 
z
" id="DejaVuSans-45"/>
     <path d="M 10.984375 1.515625 
L 10.984375 10.5 
Q 14.703125 8.734375 18.5 7.8125 
Q 22.3125 6.890625 25.984375 6.890625 
Q 35.75 6.890625 40.890625 13.453125 
Q 46.046875 20.015625 46.78125 33.40625 
Q 43.953125 29.203125 39.59375 26.953125 
Q 35.25 24.703125 29.984375 24.703125 
Q 19.046875 24.703125 12.671875 31.3125 
Q 6.296875 37.9375 6.296875 49.421875 
Q 6.296875 60.640625 12.9375 67.421875 
Q 19.578125 74.21875 30.609375 74.21875 
Q 43.265625 74.21875 49.921875 64.515625 
Q 56.59375 54.828125 56.59375 36.375 
Q 56.59375 19.140625 48.40625 8.859375 
Q 40.234375 -1.421875 26.421875 -1.421875 
Q 22.703125 -1.421875 18.890625 -0.6875 
Q 15.09375 0.046875 10.984375 1.515625 
z
M 30.609375 32.421875 
Q 37.25 32.421875 41.125 36.953125 
Q 45.015625 41.5 45.015625 49.421875 
Q 45.015625 57.28125 41.125 61.84375 
Q 37.25 66.40625 30.609375 66.40625 
Q 23.96875 66.40625 20.09375 61.84375 
Q 16.21875 57.28125 16.21875 49.421875 
Q 16.21875 41.5 20.09375 36.953125 
Q 23.96875 32.421875 30.609375 32.421875 
z
" id="DejaVuSans-57"/>
     <path d="M 48.6875 27.296875 
Q 48.6875 37.203125 44.609375 42.84375 
Q 40.53125 48.484375 33.40625 48.484375 
Q 26.265625 48.484375 22.1875 42.84375 
Q 18.109375 37.203125 18.109375 27.296875 
Q 18.109375 17.390625 22.1875 11.75 
Q 26.265625 6.109375 33.40625 6.109375 
Q 40.53125 6.109375 44.609375 11.75 
Q 48.6875 17.390625 48.6875 27.296875 
z
M 18.109375 46.390625 
Q 20.953125 51.265625 25.265625 53.625 
Q 29.59375 56 35.59375 56 
Q 45.5625 56 51.78125 48.09375 
Q 58.015625 40.1875 58.015625 27.296875 
Q 58.015625 14.40625 51.78125 6.484375 
Q 45.5625 -1.421875 35.59375 -1.421875 
Q 29.59375 -1.421875 25.265625 0.953125 
Q 20.953125 3.328125 18.109375 8.203125 
L 18.109375 0 
L 9.078125 0 
L 9.078125 75.984375 
L 18.109375 75.984375 
z
" id="DejaVuSans-98"/>
     <path d="M 30.609375 48.390625 
Q 23.390625 48.390625 19.1875 42.75 
Q 14.984375 37.109375 14.984375 27.296875 
Q 14.984375 17.484375 19.15625 11.84375 
Q 23.34375 6.203125 30.609375 6.203125 
Q 37.796875 6.203125 41.984375 11.859375 
Q 46.1875 17.53125 46.1875 27.296875 
Q 46.1875 37.015625 41.984375 42.703125 
Q 37.796875 48.390625 30.609375 48.390625 
z
M 30.609375 56 
Q 42.328125 56 49.015625 48.375 
Q 55.71875 40.765625 55.71875 27.296875 
Q 55.71875 13.875 49.015625 6.21875 
Q 42.328125 -1.421875 30.609375 -1.421875 
Q 18.84375 -1.421875 12.171875 6.21875 
Q 5.515625 13.875 5.515625 27.296875 
Q 5.515625 40.765625 12.171875 48.375 
Q 18.84375 56 30.609375 56 
z
" id="DejaVuSans-111"/>
     <path d="M 37.109375 75.984375 
L 37.109375 68.5 
L 28.515625 68.5 
Q 23.6875 68.5 21.796875 66.546875 
Q 19.921875 64.59375 19.921875 59.515625 
L 19.921875 54.6875 
L 34.71875 54.6875 
L 34.71875 47.703125 
L 19.921875 47.703125 
L 19.921875 0 
L 10.890625 0 
L 10.890625 47.703125 
L 2.296875 47.703125 
L 2.296875 54.6875 
L 10.890625 54.6875 
L 10.890625 58.5 
Q 10.890625 67.625 15.140625 71.796875 
Q 19.390625 75.984375 28.609375 75.984375 
z
" id="DejaVuSans-102"/>
     <path d="M 10.796875 72.90625 
L 49.515625 72.90625 
L 49.515625 64.59375 
L 19.828125 64.59375 
L 19.828125 46.734375 
Q 21.96875 47.46875 24.109375 47.828125 
Q 26.265625 48.1875 28.421875 48.1875 
Q 40.625 48.1875 47.75 41.5 
Q 54.890625 34.8125 54.890625 23.390625 
Q 54.890625 11.625 47.5625 5.09375 
Q 40.234375 -1.421875 26.90625 -1.421875 
Q 22.3125 -1.421875 17.546875 -0.640625 
Q 12.796875 0.140625 7.71875 1.703125 
L 7.71875 11.625 
Q 12.109375 9.234375 16.796875 8.0625 
Q 21.484375 6.890625 26.703125 6.890625 
Q 35.15625 6.890625 40.078125 11.328125 
Q 45.015625 15.765625 45.015625 23.390625 
Q 45.015625 31 40.078125 35.4375 
Q 35.15625 39.890625 26.703125 39.890625 
Q 22.75 39.890625 18.8125 39.015625 
Q 14.890625 38.140625 10.796875 36.28125 
z
" id="DejaVuSans-53"/>
     <path d="M 11.71875 12.40625 
L 22.015625 12.40625 
L 22.015625 0 
L 11.71875 0 
z
M 11.71875 51.703125 
L 22.015625 51.703125 
L 22.015625 39.3125 
L 11.71875 39.3125 
z
" id="DejaVuSans-58"/>
     <path d="M 33.015625 40.375 
Q 26.375 40.375 22.484375 35.828125 
Q 18.609375 31.296875 18.609375 23.390625 
Q 18.609375 15.53125 22.484375 10.953125 
Q 26.375 6.390625 33.015625 6.390625 
Q 39.65625 6.390625 43.53125 10.953125 
Q 47.40625 15.53125 47.40625 23.390625 
Q 47.40625 31.296875 43.53125 35.828125 
Q 39.65625 40.375 33.015625 40.375 
z
M 52.59375 71.296875 
L 52.59375 62.3125 
Q 48.875 64.0625 45.09375 64.984375 
Q 41.3125 65.921875 37.59375 65.921875 
Q 27.828125 65.921875 22.671875 59.328125 
Q 17.53125 52.734375 16.796875 39.40625 
Q 19.671875 43.65625 24.015625 45.921875 
Q 28.375 48.1875 33.59375 48.1875 
Q 44.578125 48.1875 50.953125 41.515625 
Q 57.328125 34.859375 57.328125 23.390625 
Q 57.328125 12.15625 50.6875 5.359375 
Q 44.046875 -1.421875 33.015625 -1.421875 
Q 20.359375 -1.421875 13.671875 8.265625 
Q 6.984375 17.96875 6.984375 36.375 
Q 6.984375 53.65625 15.1875 63.9375 
Q 23.390625 74.21875 37.203125 74.21875 
Q 40.921875 74.21875 44.703125 73.484375 
Q 48.484375 72.75 52.59375 71.296875 
z
" id="DejaVuSans-54"/>
    </defs>
    <g style="fill:#666666;" transform="translate(310.883438 63.12)scale(0.12 -0.12)">
     <use xlink:href="#DejaVuSans-67"/>
     <use x="69.824219" xlink:href="#DejaVuSans-79"/>
     <use x="146.785156" xlink:href="#DejaVuSans-86"/>
     <use x="215.193359" xlink:href="#DejaVuSans-73"/>
     <use x="244.685547" xlink:href="#DejaVuSans-68"/>
     <use x="321.6875" xlink:href="#DejaVuSans-45"/>
     <use x="357.771484" xlink:href="#DejaVuSans-49"/>
     <use x="421.394531" xlink:href="#DejaVuSans-57"/>
     <use x="485.017578" xlink:href="#DejaVuSans-32"/>
     <use x="516.804688" xlink:href="#DejaVuSans-68"/>
     <use x="593.806641" xlink:href="#DejaVuSans-101"/>
     <use x="655.330078" xlink:href="#DejaVuSans-97"/>
     <use x="716.609375" xlink:href="#DejaVuSans-116"/>
     <use x="755.818359" xlink:href="#DejaVuSans-104"/>
     <use x="819.197266" xlink:href="#DejaVuSans-115"/>
     <use x="871.296875" xlink:href="#DejaVuSans-32"/>
     <use x="903.083984" xlink:href="#DejaVuSans-98"/>
     <use x="966.560547" xlink:href="#DejaVuSans-121"/>
     <use x="1025.740234" xlink:href="#DejaVuSans-32"/>
     <use x="1057.527344" xlink:href="#DejaVuSans-83"/>
     <use x="1121.003906" xlink:href="#DejaVuSans-116"/>
     <use x="1160.212891" xlink:href="#DejaVuSans-97"/>
     <use x="1221.492188" xlink:href="#DejaVuSans-116"/>
     <use x="1260.701172" xlink:href="#DejaVuSans-101"/>
     <use x="1322.224609" xlink:href="#DejaVuSans-115"/>
     <use x="1374.324219" xlink:href="#DejaVuSans-32"/>
     <use x="1406.111328" xlink:href="#DejaVuSans-97"/>
     <use x="1467.390625" xlink:href="#DejaVuSans-115"/>
     <use x="1519.490234" xlink:href="#DejaVuSans-32"/>
     <use x="1551.277344" xlink:href="#DejaVuSans-111"/>
     <use x="1612.458984" xlink:href="#DejaVuSans-102"/>
     <use x="1647.664062" xlink:href="#DejaVuSans-32"/>
     <use x="1679.451172" xlink:href="#DejaVuSans-50"/>
     <use x="1743.074219" xlink:href="#DejaVuSans-48"/>
     <use x="1806.697266" xlink:href="#DejaVuSans-50"/>
     <use x="1870.320312" xlink:href="#DejaVuSans-48"/>
     <use x="1933.943359" xlink:href="#DejaVuSans-45"/>
     <use x="1970.027344" xlink:href="#DejaVuSans-48"/>
     <use x="2033.650391" xlink:href="#DejaVuSans-53"/>
     <use x="2097.273438" xlink:href="#DejaVuSans-45"/>
     <use x="2133.357422" xlink:href="#DejaVuSans-48"/>
     <use x="2196.980469" xlink:href="#DejaVuSans-51"/>
     <use x="2260.603516" xlink:href="#DejaVuSans-32"/>
     <use x="2292.390625" xlink:href="#DejaVuSans-48"/>
     <use x="2356.013672" xlink:href="#DejaVuSans-51"/>
     <use x="2419.636719" xlink:href="#DejaVuSans-58"/>
     <use x="2453.328125" xlink:href="#DejaVuSans-48"/>
     <use x="2516.951172" xlink:href="#DejaVuSans-54"/>
     <use x="2580.574219" xlink:href="#DejaVuSans-32"/>
     <use x="2612.361328" xlink:href="#DejaVuSans-69"/>
     <use x="2675.544922" xlink:href="#DejaVuSans-68"/>
     <use x="2752.546875" xlink:href="#DejaVuSans-84"/>
    </g>
   </g>
  </g>
 </g>
 <defs>
  <clipPath id="p2cc2ed0b2f">
   <rect height="443.52" width="725.4" x="117" y="69.12"/>
  </clipPath>
 </defs>
</svg>
