<?xml version="1.0" encoding="utf-8" standalone="no"?>
<!DOCTYPE svg PUBLIC "-//W3C//DTD SVG 1.1//EN"
  "http://www.w3.org/Graphics/SVG/1.1/DTD/svg11.dtd">
<!-- Created with matplotlib (https://matplotlib.org/) -->
<svg height="576pt" version="1.1" viewBox="0 0 936 576" width="936pt" xmlns="http://www.w3.org/2000/svg" xmlns:xlink="http://www.w3.org/1999/xlink">
 <defs>
  <style type="text/css">
*{stroke-linecap:butt;stroke-linejoin:round;}
  </style>
 </defs>
 <g id="figure_1">
  <g id="patch_1">
   <path d="M 0 576 
L 936 576 
L 936 0 
L 0 0 
z
" style="fill:#ffffff;"/>
  </g>
  <g id="axes_1">
   <g id="patch_2">
    <path d="M 117 512.64 
L 842.4 512.64 
L 842.4 69.12 
L 117 69.12 
z
" style="fill:#ffffff;"/>
   </g>
   <g id="line2d_1">
    <path clip-path="url(#p20ea8d4b32)" d="M 117 512.64 
L 122.921633 486.814708 
L 128.843265 460.263369 
L 134.764898 432.96557 
L 140.686531 404.900326 
L 146.608163 376.046059 
L 152.529796 346.38059 
L 158.451429 315.88111 
L 164.373061 284.524173 
L 170.294694 252.285673 
L 176.216327 219.140825 
L 182.137959 185.064148 
L 188.059592 150.029446 
L 193.981224 114.009784 
L 199.902857 76.977472 
L 205.82449 38.90404 
L 211.858763 -1 
L 211.858763 -1 
" style="fill:none;stroke:#b2b2b2;stroke-dasharray:1.5,2.475;stroke-dashoffset:0;stroke-width:1.5;"/>
   </g>
   <g id="line2d_2">
    <path clip-path="url(#p20ea8d4b32)" d="M 117 512.64 
L 125.882449 493.338313 
L 134.764898 473.631057 
L 143.647347 453.50971 
L 152.529796 432.96557 
L 161.412245 411.989754 
L 170.294694 390.573192 
L 179.177143 368.706622 
L 188.059592 346.38059 
L 196.942041 323.585439 
L 205.82449 300.311315 
L 214.706939 276.548151 
L 223.589388 252.285673 
L 232.471837 227.513388 
L 241.354286 202.220585 
L 250.236735 176.396327 
L 259.119184 150.029446 
L 268.001633 123.108541 
L 276.884082 95.62197 
L 285.766531 67.557848 
L 294.64898 38.90404 
L 303.531429 9.648153 
L 306.71831 -1 
L 306.71831 -1 
" style="fill:none;stroke:#b2b2b2;stroke-dasharray:1.5,2.475;stroke-dashoffset:0;stroke-width:1.5;"/>
   </g>
   <g id="line2d_3">
    <path clip-path="url(#p20ea8d4b32)" d="M 117 512.64 
L 128.843265 495.502819 
L 140.686531 478.04593 
L 152.529796 460.263369 
L 164.373061 442.14906 
L 176.216327 423.696814 
L 188.059592 404.900326 
L 199.902857 385.753174 
L 211.746122 366.248816 
L 223.589388 346.38059 
L 235.432653 326.141705 
L 247.275918 305.525247 
L 259.119184 284.524173 
L 270.962449 263.131307 
L 282.805714 241.339339 
L 294.64898 219.140825 
L 306.492245 196.528179 
L 318.33551 173.493676 
L 330.178776 150.029446 
L 342.022041 126.127472 
L 353.865306 101.779586 
L 365.708571 76.977472 
L 377.551837 51.712654 
L 389.395102 25.9765 
L 401.577857 -1 
L 401.577857 -1 
" style="fill:none;stroke:#b2b2b2;stroke-dasharray:1.5,2.475;stroke-dashoffset:0;stroke-width:1.5;"/>
   </g>
   <g id="line2d_4">
    <path clip-path="url(#p20ea8d4b32)" d="M 117 512.64 
L 140.686531 497.970424 
L 164.373061 483.066582 
L 188.059592 467.924732 
L 211.746122 452.541074 
L 235.432653 436.911746 
L 259.119184 421.032825 
L 282.805714 404.900326 
L 306.492245 388.510197 
L 330.178776 371.858326 
L 353.865306 354.940532 
L 377.551837 337.752569 
L 401.238367 320.290122 
L 424.924898 302.548808 
L 448.611429 284.524173 
L 472.297959 266.211693 
L 495.98449 247.606772 
L 519.67102 228.704738 
L 543.357551 209.500848 
L 567.044082 189.990281 
L 590.730612 170.168138 
L 614.417143 150.029446 
L 638.103673 129.569148 
L 661.790204 108.782108 
L 685.476735 87.663109 
L 709.163265 66.20685 
L 729.88898 47.151732 
L 750.614694 27.830614 
L 771.340408 8.239784 
L 781.016047 -1 
L 781.016047 -1 
" style="fill:none;stroke:#b2b2b2;stroke-dasharray:1.5,2.475;stroke-dashoffset:0;stroke-width:1.5;"/>
   </g>
   <g id="matplotlib.axis_1">
    <g id="xtick_1">
     <g id="line2d_5">
      <path clip-path="url(#p20ea8d4b32)" d="M 117 512.64 
L 117 69.12 
" style="fill:none;stroke:#e6e6e6;stroke-linecap:square;stroke-width:0.8;"/>
     </g>
     <g id="line2d_6">
      <defs>
       <path d="M 0 0 
L 0 3.5 
" id="mc35a5cb016" style="stroke:#666666;stroke-width:0.8;"/>
      </defs>
      <g>
       <use style="fill:#666666;stroke:#666666;stroke-width:0.8;" x="117" xlink:href="#mc35a5cb016" y="512.64"/>
      </g>
     </g>
     <g id="text_1">
      <!-- 0 -->
      <defs>
       <path d="M 31.78125 66.40625 
Q 24.171875 66.40625 20.328125 58.90625 
Q 16.5 51.421875 16.5 36.375 
Q 16.5 21.390625 20.328125 13.890625 
Q 24.171875 6.390625 31.78125 6.390625 
Q 39.453125 6.390625 43.28125 13.890625 
Q 47.125 21.390625 47.125 36.375 
Q 47.125 51.421875 43.28125 58.90625 
Q 39.453125 66.40625 31.78125 66.40625 
z
M 31.78125 74.21875 
Q 44.046875 74.21875 50.515625 64.515625 
Q 56.984375 54.828125 56.984375 36.375 
Q 56.984375 17.96875 50.515625 8.265625 
Q 44.046875 -1.421875 31.78125 -1.421875 
Q 19.53125 -1.421875 13.0625 8.265625 
Q 6.59375 17.96875 6.59375 36.375 
Q 6.59375 54.828125 13.0625 64.515625 
Q 19.53125 74.21875 31.78125 74.21875 
z
" id="DejaVuSans-48"/>
      </defs>
      <g style="fill:#666666;" transform="translate(113.81875 527.238438)scale(0.1 -0.1)">
       <use xlink:href="#DejaVuSans-48"/>
      </g>
     </g>
    </g>
    <g id="xtick_2">
     <g id="line2d_7">
      <path clip-path="url(#p20ea8d4b32)" d="M 324.257143 512.64 
L 324.257143 69.12 
" style="fill:none;stroke:#e6e6e6;stroke-linecap:square;stroke-width:0.8;"/>
     </g>
     <g id="line2d_8">
      <g>
       <use style="fill:#666666;stroke:#666666;stroke-width:0.8;" x="324.257143" xlink:href="#mc35a5cb016" y="512.64"/>
      </g>
     </g>
     <g id="text_2">
      <!-- 7 -->
      <defs>
       <path d="M 8.203125 72.90625 
L 55.078125 72.90625 
L 55.078125 68.703125 
L 28.609375 0 
L 18.3125 0 
L 43.21875 64.59375 
L 8.203125 64.59375 
z
" id="DejaVuSans-55"/>
      </defs>
      <g style="fill:#666666;" transform="translate(321.075893 527.238438)scale(0.1 -0.1)">
       <use xlink:href="#DejaVuSans-55"/>
      </g>
     </g>
    </g>
    <g id="xtick_3">
     <g id="line2d_9">
      <path clip-path="url(#p20ea8d4b32)" d="M 531.514286 512.64 
L 531.514286 69.12 
" style="fill:none;stroke:#e6e6e6;stroke-linecap:square;stroke-width:0.8;"/>
     </g>
     <g id="line2d_10">
      <g>
       <use style="fill:#666666;stroke:#666666;stroke-width:0.8;" x="531.514286" xlink:href="#mc35a5cb016" y="512.64"/>
      </g>
     </g>
     <g id="text_3">
      <!-- 14 -->
      <defs>
       <path d="M 12.40625 8.296875 
L 28.515625 8.296875 
L 28.515625 63.921875 
L 10.984375 60.40625 
L 10.984375 69.390625 
L 28.421875 72.90625 
L 38.28125 72.90625 
L 38.28125 8.296875 
L 54.390625 8.296875 
L 54.390625 0 
L 12.40625 0 
z
" id="DejaVuSans-49"/>
       <path d="M 37.796875 64.3125 
L 12.890625 25.390625 
L 37.796875 25.390625 
z
M 35.203125 72.90625 
L 47.609375 72.90625 
L 47.609375 25.390625 
L 58.015625 25.390625 
L 58.015625 17.1875 
L 47.609375 17.1875 
L 47.609375 0 
L 37.796875 0 
L 37.796875 17.1875 
L 4.890625 17.1875 
L 4.890625 26.703125 
z
" id="DejaVuSans-52"/>
      </defs>
      <g style="fill:#666666;" transform="translate(525.151786 527.238438)scale(0.1 -0.1)">
       <use xlink:href="#DejaVuSans-49"/>
       <use x="63.623047" xlink:href="#DejaVuSans-52"/>
      </g>
     </g>
    </g>
    <g id="xtick_4">
     <g id="line2d_11">
      <path clip-path="url(#p20ea8d4b32)" d="M 738.771429 512.64 
L 738.771429 69.12 
" style="fill:none;stroke:#e6e6e6;stroke-linecap:square;stroke-width:0.8;"/>
     </g>
     <g id="line2d_12">
      <g>
       <use style="fill:#666666;stroke:#666666;stroke-width:0.8;" x="738.771429" xlink:href="#mc35a5cb016" y="512.64"/>
      </g>
     </g>
     <g id="text_4">
      <!-- 21 -->
      <defs>
       <path d="M 19.1875 8.296875 
L 53.609375 8.296875 
L 53.609375 0 
L 7.328125 0 
L 7.328125 8.296875 
Q 12.9375 14.109375 22.625 23.890625 
Q 32.328125 33.6875 34.8125 36.53125 
Q 39.546875 41.84375 41.421875 45.53125 
Q 43.3125 49.21875 43.3125 52.78125 
Q 43.3125 58.59375 39.234375 62.25 
Q 35.15625 65.921875 28.609375 65.921875 
Q 23.96875 65.921875 18.8125 64.3125 
Q 13.671875 62.703125 7.8125 59.421875 
L 7.8125 69.390625 
Q 13.765625 71.78125 18.9375 73 
Q 24.125 74.21875 28.421875 74.21875 
Q 39.75 74.21875 46.484375 68.546875 
Q 53.21875 62.890625 53.21875 53.421875 
Q 53.21875 48.921875 51.53125 44.890625 
Q 49.859375 40.875 45.40625 35.40625 
Q 44.1875 33.984375 37.640625 27.21875 
Q 31.109375 20.453125 19.1875 8.296875 
z
" id="DejaVuSans-50"/>
      </defs>
      <g style="fill:#666666;" transform="translate(732.408929 527.238438)scale(0.1 -0.1)">
       <use xlink:href="#DejaVuSans-50"/>
       <use x="63.623047" xlink:href="#DejaVuSans-49"/>
      </g>
     </g>
    </g>
    <g id="text_5">
     <!-- Days since 100 deaths -->
     <defs>
      <path d="M 19.671875 64.796875 
L 19.671875 8.109375 
L 31.59375 8.109375 
Q 46.6875 8.109375 53.6875 14.9375 
Q 60.6875 21.78125 60.6875 36.53125 
Q 60.6875 51.171875 53.6875 57.984375 
Q 46.6875 64.796875 31.59375 64.796875 
z
M 9.8125 72.90625 
L 30.078125 72.90625 
Q 51.265625 72.90625 61.171875 64.09375 
Q 71.09375 55.28125 71.09375 36.53125 
Q 71.09375 17.671875 61.125 8.828125 
Q 51.171875 0 30.078125 0 
L 9.8125 0 
z
" id="DejaVuSans-68"/>
      <path d="M 34.28125 27.484375 
Q 23.390625 27.484375 19.1875 25 
Q 14.984375 22.515625 14.984375 16.5 
Q 14.984375 11.71875 18.140625 8.90625 
Q 21.296875 6.109375 26.703125 6.109375 
Q 34.1875 6.109375 38.703125 11.40625 
Q 43.21875 16.703125 43.21875 25.484375 
L 43.21875 27.484375 
z
M 52.203125 31.203125 
L 52.203125 0 
L 43.21875 0 
L 43.21875 8.296875 
Q 40.140625 3.328125 35.546875 0.953125 
Q 30.953125 -1.421875 24.3125 -1.421875 
Q 15.921875 -1.421875 10.953125 3.296875 
Q 6 8.015625 6 15.921875 
Q 6 25.140625 12.171875 29.828125 
Q 18.359375 34.515625 30.609375 34.515625 
L 43.21875 34.515625 
L 43.21875 35.40625 
Q 43.21875 41.609375 39.140625 45 
Q 35.0625 48.390625 27.6875 48.390625 
Q 23 48.390625 18.546875 47.265625 
Q 14.109375 46.140625 10.015625 43.890625 
L 10.015625 52.203125 
Q 14.9375 54.109375 19.578125 55.046875 
Q 24.21875 56 28.609375 56 
Q 40.484375 56 46.34375 49.84375 
Q 52.203125 43.703125 52.203125 31.203125 
z
" id="DejaVuSans-97"/>
      <path d="M 32.171875 -5.078125 
Q 28.375 -14.84375 24.75 -17.8125 
Q 21.140625 -20.796875 15.09375 -20.796875 
L 7.90625 -20.796875 
L 7.90625 -13.28125 
L 13.1875 -13.28125 
Q 16.890625 -13.28125 18.9375 -11.515625 
Q 21 -9.765625 23.484375 -3.21875 
L 25.09375 0.875 
L 2.984375 54.6875 
L 12.5 54.6875 
L 29.59375 11.921875 
L 46.6875 54.6875 
L 56.203125 54.6875 
z
" id="DejaVuSans-121"/>
      <path d="M 44.28125 53.078125 
L 44.28125 44.578125 
Q 40.484375 46.53125 36.375 47.5 
Q 32.28125 48.484375 27.875 48.484375 
Q 21.1875 48.484375 17.84375 46.4375 
Q 14.5 44.390625 14.5 40.28125 
Q 14.5 37.15625 16.890625 35.375 
Q 19.28125 33.59375 26.515625 31.984375 
L 29.59375 31.296875 
Q 39.15625 29.25 43.1875 25.515625 
Q 47.21875 21.78125 47.21875 15.09375 
Q 47.21875 7.46875 41.1875 3.015625 
Q 35.15625 -1.421875 24.609375 -1.421875 
Q 20.21875 -1.421875 15.453125 -0.5625 
Q 10.6875 0.296875 5.421875 2 
L 5.421875 11.28125 
Q 10.40625 8.6875 15.234375 7.390625 
Q 20.0625 6.109375 24.8125 6.109375 
Q 31.15625 6.109375 34.5625 8.28125 
Q 37.984375 10.453125 37.984375 14.40625 
Q 37.984375 18.0625 35.515625 20.015625 
Q 33.0625 21.96875 24.703125 23.78125 
L 21.578125 24.515625 
Q 13.234375 26.265625 9.515625 29.90625 
Q 5.8125 33.546875 5.8125 39.890625 
Q 5.8125 47.609375 11.28125 51.796875 
Q 16.75 56 26.8125 56 
Q 31.78125 56 36.171875 55.265625 
Q 40.578125 54.546875 44.28125 53.078125 
z
" id="DejaVuSans-115"/>
      <path id="DejaVuSans-32"/>
      <path d="M 9.421875 54.6875 
L 18.40625 54.6875 
L 18.40625 0 
L 9.421875 0 
z
M 9.421875 75.984375 
L 18.40625 75.984375 
L 18.40625 64.59375 
L 9.421875 64.59375 
z
" id="DejaVuSans-105"/>
      <path d="M 54.890625 33.015625 
L 54.890625 0 
L 45.90625 0 
L 45.90625 32.71875 
Q 45.90625 40.484375 42.875 44.328125 
Q 39.84375 48.1875 33.796875 48.1875 
Q 26.515625 48.1875 22.3125 43.546875 
Q 18.109375 38.921875 18.109375 30.90625 
L 18.109375 0 
L 9.078125 0 
L 9.078125 54.6875 
L 18.109375 54.6875 
L 18.109375 46.1875 
Q 21.34375 51.125 25.703125 53.5625 
Q 30.078125 56 35.796875 56 
Q 45.21875 56 50.046875 50.171875 
Q 54.890625 44.34375 54.890625 33.015625 
z
" id="DejaVuSans-110"/>
      <path d="M 48.78125 52.59375 
L 48.78125 44.1875 
Q 44.96875 46.296875 41.140625 47.34375 
Q 37.3125 48.390625 33.40625 48.390625 
Q 24.65625 48.390625 19.8125 42.84375 
Q 14.984375 37.3125 14.984375 27.296875 
Q 14.984375 17.28125 19.8125 11.734375 
Q 24.65625 6.203125 33.40625 6.203125 
Q 37.3125 6.203125 41.140625 7.25 
Q 44.96875 8.296875 48.78125 10.40625 
L 48.78125 2.09375 
Q 45.015625 0.34375 40.984375 -0.53125 
Q 36.96875 -1.421875 32.421875 -1.421875 
Q 20.0625 -1.421875 12.78125 6.34375 
Q 5.515625 14.109375 5.515625 27.296875 
Q 5.515625 40.671875 12.859375 48.328125 
Q 20.21875 56 33.015625 56 
Q 37.15625 56 41.109375 55.140625 
Q 45.0625 54.296875 48.78125 52.59375 
z
" id="DejaVuSans-99"/>
      <path d="M 56.203125 29.59375 
L 56.203125 25.203125 
L 14.890625 25.203125 
Q 15.484375 15.921875 20.484375 11.0625 
Q 25.484375 6.203125 34.421875 6.203125 
Q 39.59375 6.203125 44.453125 7.46875 
Q 49.3125 8.734375 54.109375 11.28125 
L 54.109375 2.78125 
Q 49.265625 0.734375 44.1875 -0.34375 
Q 39.109375 -1.421875 33.890625 -1.421875 
Q 20.796875 -1.421875 13.15625 6.1875 
Q 5.515625 13.8125 5.515625 26.8125 
Q 5.515625 40.234375 12.765625 48.109375 
Q 20.015625 56 32.328125 56 
Q 43.359375 56 49.78125 48.890625 
Q 56.203125 41.796875 56.203125 29.59375 
z
M 47.21875 32.234375 
Q 47.125 39.59375 43.09375 43.984375 
Q 39.0625 48.390625 32.421875 48.390625 
Q 24.90625 48.390625 20.390625 44.140625 
Q 15.875 39.890625 15.1875 32.171875 
z
" id="DejaVuSans-101"/>
      <path d="M 45.40625 46.390625 
L 45.40625 75.984375 
L 54.390625 75.984375 
L 54.390625 0 
L 45.40625 0 
L 45.40625 8.203125 
Q 42.578125 3.328125 38.25 0.953125 
Q 33.9375 -1.421875 27.875 -1.421875 
Q 17.96875 -1.421875 11.734375 6.484375 
Q 5.515625 14.40625 5.515625 27.296875 
Q 5.515625 40.1875 11.734375 48.09375 
Q 17.96875 56 27.875 56 
Q 33.9375 56 38.25 53.625 
Q 42.578125 51.265625 45.40625 46.390625 
z
M 14.796875 27.296875 
Q 14.796875 17.390625 18.875 11.75 
Q 22.953125 6.109375 30.078125 6.109375 
Q 37.203125 6.109375 41.296875 11.75 
Q 45.40625 17.390625 45.40625 27.296875 
Q 45.40625 37.203125 41.296875 42.84375 
Q 37.203125 48.484375 30.078125 48.484375 
Q 22.953125 48.484375 18.875 42.84375 
Q 14.796875 37.203125 14.796875 27.296875 
z
" id="DejaVuSans-100"/>
      <path d="M 18.3125 70.21875 
L 18.3125 54.6875 
L 36.8125 54.6875 
L 36.8125 47.703125 
L 18.3125 47.703125 
L 18.3125 18.015625 
Q 18.3125 11.328125 20.140625 9.421875 
Q 21.96875 7.515625 27.59375 7.515625 
L 36.8125 7.515625 
L 36.8125 0 
L 27.59375 0 
Q 17.1875 0 13.234375 3.875 
Q 9.28125 7.765625 9.28125 18.015625 
L 9.28125 47.703125 
L 2.6875 47.703125 
L 2.6875 54.6875 
L 9.28125 54.6875 
L 9.28125 70.21875 
z
" id="DejaVuSans-116"/>
      <path d="M 54.890625 33.015625 
L 54.890625 0 
L 45.90625 0 
L 45.90625 32.71875 
Q 45.90625 40.484375 42.875 44.328125 
Q 39.84375 48.1875 33.796875 48.1875 
Q 26.515625 48.1875 22.3125 43.546875 
Q 18.109375 38.921875 18.109375 30.90625 
L 18.109375 0 
L 9.078125 0 
L 9.078125 75.984375 
L 18.109375 75.984375 
L 18.109375 46.1875 
Q 21.34375 51.125 25.703125 53.5625 
Q 30.078125 56 35.796875 56 
Q 45.21875 56 50.046875 50.171875 
Q 54.890625 44.34375 54.890625 33.015625 
z
" id="DejaVuSans-104"/>
     </defs>
     <g style="fill:#666666;" transform="translate(422.874219 540.916563)scale(0.1 -0.1)">
      <use xlink:href="#DejaVuSans-68"/>
      <use x="77.001953" xlink:href="#DejaVuSans-97"/>
      <use x="138.28125" xlink:href="#DejaVuSans-121"/>
      <use x="197.460938" xlink:href="#DejaVuSans-115"/>
      <use x="249.560547" xlink:href="#DejaVuSans-32"/>
      <use x="281.347656" xlink:href="#DejaVuSans-115"/>
      <use x="333.447266" xlink:href="#DejaVuSans-105"/>
      <use x="361.230469" xlink:href="#DejaVuSans-110"/>
      <use x="424.609375" xlink:href="#DejaVuSans-99"/>
      <use x="479.589844" xlink:href="#DejaVuSans-101"/>
      <use x="541.113281" xlink:href="#DejaVuSans-32"/>
      <use x="572.900391" xlink:href="#DejaVuSans-49"/>
      <use x="636.523438" xlink:href="#DejaVuSans-48"/>
      <use x="700.146484" xlink:href="#DejaVuSans-48"/>
      <use x="763.769531" xlink:href="#DejaVuSans-32"/>
      <use x="795.556641" xlink:href="#DejaVuSans-100"/>
      <use x="859.033203" xlink:href="#DejaVuSans-101"/>
      <use x="920.556641" xlink:href="#DejaVuSans-97"/>
      <use x="981.835938" xlink:href="#DejaVuSans-116"/>
      <use x="1021.044922" xlink:href="#DejaVuSans-104"/>
      <use x="1084.423828" xlink:href="#DejaVuSans-115"/>
     </g>
    </g>
   </g>
   <g id="matplotlib.axis_2">
    <g id="ytick_1">
     <g id="line2d_13">
      <path clip-path="url(#p20ea8d4b32)" d="M 117 512.64 
L 842.4 512.64 
" style="fill:none;stroke:#e6e6e6;stroke-linecap:square;stroke-width:0.8;"/>
     </g>
     <g id="line2d_14">
      <defs>
       <path d="M 0 0 
L -3.5 0 
" id="m6d8af5c0ed" style="stroke:#666666;stroke-width:0.8;"/>
      </defs>
      <g>
       <use style="fill:#666666;stroke:#666666;stroke-width:0.8;" x="117" xlink:href="#m6d8af5c0ed" y="512.64"/>
      </g>
     </g>
     <g id="text_6">
      <!-- 100 -->
      <g style="fill:#666666;" transform="translate(90.9125 516.439219)scale(0.1 -0.1)">
       <use xlink:href="#DejaVuSans-49"/>
       <use x="63.623047" xlink:href="#DejaVuSans-48"/>
       <use x="127.246094" xlink:href="#DejaVuSans-48"/>
      </g>
     </g>
    </g>
   </g>
   <g id="line2d_15">
    <path clip-path="url(#p20ea8d4b32)" d="M 117 512.64 
L 139.641537 489.909563 
L 228.466026 443.144646 
L 258.07419 400.354778 
L 287.682353 379.2308 
L 317.290516 366.715802 
L 346.898679 362.671919 
L 376.506843 356.718539 
L 406.115006 348.028574 
" style="fill:none;stroke:#1f77b4;stroke-linecap:square;stroke-width:1.5;"/>
    <defs>
     <path d="M 0 1.5 
C 0.397805 1.5 0.77937 1.341951 1.06066 1.06066 
C 1.341951 0.77937 1.5 0.397805 1.5 0 
C 1.5 -0.397805 1.341951 -0.77937 1.06066 -1.06066 
C 0.77937 -1.341951 0.397805 -1.5 0 -1.5 
C -0.397805 -1.5 -0.77937 -1.341951 -1.06066 -1.06066 
C -1.341951 -0.77937 -1.5 -0.397805 -1.5 0 
C -1.5 0.397805 -1.341951 0.77937 -1.06066 1.06066 
C -0.77937 1.341951 -0.397805 1.5 0 1.5 
z
" id="m0944e4a278" style="stroke:#1f77b4;"/>
    </defs>
    <g clip-path="url(#p20ea8d4b32)">
     <use style="fill:#ffffff;stroke:#1f77b4;" x="117" xlink:href="#m0944e4a278" y="512.64"/>
     <use style="fill:#ffffff;stroke:#1f77b4;" x="139.641537" xlink:href="#m0944e4a278" y="489.909563"/>
     <use style="fill:#ffffff;stroke:#1f77b4;" x="228.466026" xlink:href="#m0944e4a278" y="443.144646"/>
     <use style="fill:#ffffff;stroke:#1f77b4;" x="258.07419" xlink:href="#m0944e4a278" y="400.354778"/>
     <use style="fill:#ffffff;stroke:#1f77b4;" x="287.682353" xlink:href="#m0944e4a278" y="379.2308"/>
     <use style="fill:#ffffff;stroke:#1f77b4;" x="317.290516" xlink:href="#m0944e4a278" y="366.715802"/>
     <use style="fill:#ffffff;stroke:#1f77b4;" x="346.898679" xlink:href="#m0944e4a278" y="362.671919"/>
     <use style="fill:#ffffff;stroke:#1f77b4;" x="376.506843" xlink:href="#m0944e4a278" y="356.718539"/>
     <use style="fill:#ffffff;stroke:#1f77b4;" x="406.115006" xlink:href="#m0944e4a278" y="348.028574"/>
    </g>
   </g>
   <g id="line2d_16">
    <path clip-path="url(#p20ea8d4b32)" d="M 117 512.64 
L 138.53321 498.391378 
L 168.141373 486.600771 
L 197.749536 475.371034 
L 227.357699 461.66672 
L 256.965863 445.904725 
L 286.574026 435.04444 
L 316.182189 410.996902 
L 345.790353 401.515685 
L 375.398516 393.49686 
L 405.006679 390.134779 
L 434.614842 367.736439 
L 464.223006 347.080053 
L 493.831169 328.771689 
L 523.439332 314.11297 
L 553.047495 308.294298 
L 582.655659 306.65376 
" style="fill:none;stroke:#ff7f0e;stroke-linecap:square;stroke-width:1.5;"/>
    <defs>
     <path d="M 0 1.5 
C 0.397805 1.5 0.77937 1.341951 1.06066 1.06066 
C 1.341951 0.77937 1.5 0.397805 1.5 0 
C 1.5 -0.397805 1.341951 -0.77937 1.06066 -1.06066 
C 0.77937 -1.341951 0.397805 -1.5 0 -1.5 
C -0.397805 -1.5 -0.77937 -1.341951 -1.06066 -1.06066 
C -1.341951 -0.77937 -1.5 -0.397805 -1.5 0 
C -1.5 0.397805 -1.341951 0.77937 -1.06066 1.06066 
C -0.77937 1.341951 -0.397805 1.5 0 1.5 
z
" id="m133f8f1c65" style="stroke:#ff7f0e;"/>
    </defs>
    <g clip-path="url(#p20ea8d4b32)">
     <use style="fill:#ffffff;stroke:#ff7f0e;" x="117" xlink:href="#m133f8f1c65" y="512.64"/>
     <use style="fill:#ffffff;stroke:#ff7f0e;" x="138.53321" xlink:href="#m133f8f1c65" y="498.391378"/>
     <use style="fill:#ffffff;stroke:#ff7f0e;" x="168.141373" xlink:href="#m133f8f1c65" y="486.600771"/>
     <use style="fill:#ffffff;stroke:#ff7f0e;" x="197.749536" xlink:href="#m133f8f1c65" y="475.371034"/>
     <use style="fill:#ffffff;stroke:#ff7f0e;" x="227.357699" xlink:href="#m133f8f1c65" y="461.66672"/>
     <use style="fill:#ffffff;stroke:#ff7f0e;" x="256.965863" xlink:href="#m133f8f1c65" y="445.904725"/>
     <use style="fill:#ffffff;stroke:#ff7f0e;" x="286.574026" xlink:href="#m133f8f1c65" y="435.04444"/>
     <use style="fill:#ffffff;stroke:#ff7f0e;" x="316.182189" xlink:href="#m133f8f1c65" y="410.996902"/>
     <use style="fill:#ffffff;stroke:#ff7f0e;" x="345.790353" xlink:href="#m133f8f1c65" y="401.515685"/>
     <use style="fill:#ffffff;stroke:#ff7f0e;" x="375.398516" xlink:href="#m133f8f1c65" y="393.49686"/>
     <use style="fill:#ffffff;stroke:#ff7f0e;" x="405.006679" xlink:href="#m133f8f1c65" y="390.134779"/>
     <use style="fill:#ffffff;stroke:#ff7f0e;" x="434.614842" xlink:href="#m133f8f1c65" y="367.736439"/>
     <use style="fill:#ffffff;stroke:#ff7f0e;" x="464.223006" xlink:href="#m133f8f1c65" y="347.080053"/>
     <use style="fill:#ffffff;stroke:#ff7f0e;" x="493.831169" xlink:href="#m133f8f1c65" y="328.771689"/>
     <use style="fill:#ffffff;stroke:#ff7f0e;" x="523.439332" xlink:href="#m133f8f1c65" y="314.11297"/>
     <use style="fill:#ffffff;stroke:#ff7f0e;" x="553.047495" xlink:href="#m133f8f1c65" y="308.294298"/>
     <use style="fill:#ffffff;stroke:#ff7f0e;" x="582.655659" xlink:href="#m133f8f1c65" y="306.65376"/>
    </g>
   </g>
   <g id="line2d_17">
    <path clip-path="url(#p20ea8d4b32)" d="M 117 512.64 
L 133.44898 503.632419 
L 163.057143 491.581559 
L 192.665306 467.661435 
L 222.273469 450.10374 
L 251.881633 431.091169 
L 281.489796 415.872827 
L 311.097959 400.354778 
L 340.706122 392.371325 
" style="fill:none;stroke:#2ca02c;stroke-linecap:square;stroke-width:1.5;"/>
    <defs>
     <path d="M 0 1.5 
C 0.397805 1.5 0.77937 1.341951 1.06066 1.06066 
C 1.341951 0.77937 1.5 0.397805 1.5 0 
C 1.5 -0.397805 1.341951 -0.77937 1.06066 -1.06066 
C 0.77937 -1.341951 0.397805 -1.5 0 -1.5 
C -0.397805 -1.5 -0.77937 -1.341951 -1.06066 -1.06066 
C -1.341951 -0.77937 -1.5 -0.397805 -1.5 0 
C -1.5 0.397805 -1.341951 0.77937 -1.06066 1.06066 
C -0.77937 1.341951 -0.397805 1.5 0 1.5 
z
" id="mb72a6ef0c7" style="stroke:#2ca02c;"/>
    </defs>
    <g clip-path="url(#p20ea8d4b32)">
     <use style="fill:#ffffff;stroke:#2ca02c;" x="117" xlink:href="#mb72a6ef0c7" y="512.64"/>
     <use style="fill:#ffffff;stroke:#2ca02c;" x="133.44898" xlink:href="#mb72a6ef0c7" y="503.632419"/>
     <use style="fill:#ffffff;stroke:#2ca02c;" x="163.057143" xlink:href="#mb72a6ef0c7" y="491.581559"/>
     <use style="fill:#ffffff;stroke:#2ca02c;" x="192.665306" xlink:href="#mb72a6ef0c7" y="467.661435"/>
     <use style="fill:#ffffff;stroke:#2ca02c;" x="222.273469" xlink:href="#mb72a6ef0c7" y="450.10374"/>
     <use style="fill:#ffffff;stroke:#2ca02c;" x="251.881633" xlink:href="#mb72a6ef0c7" y="431.091169"/>
     <use style="fill:#ffffff;stroke:#2ca02c;" x="281.489796" xlink:href="#mb72a6ef0c7" y="415.872827"/>
     <use style="fill:#ffffff;stroke:#2ca02c;" x="311.097959" xlink:href="#mb72a6ef0c7" y="400.354778"/>
     <use style="fill:#ffffff;stroke:#2ca02c;" x="340.706122" xlink:href="#mb72a6ef0c7" y="392.371325"/>
    </g>
   </g>
   <g id="line2d_18">
    <path clip-path="url(#p20ea8d4b32)" d="M 117 512.64 
L 146.608163 491.581559 
L 176.216327 478.525778 
L 205.82449 470.71562 
" style="fill:none;stroke:#d62728;stroke-linecap:square;stroke-width:1.5;"/>
    <defs>
     <path d="M 0 1.5 
C 0.397805 1.5 0.77937 1.341951 1.06066 1.06066 
C 1.341951 0.77937 1.5 0.397805 1.5 0 
C 1.5 -0.397805 1.341951 -0.77937 1.06066 -1.06066 
C 0.77937 -1.341951 0.397805 -1.5 0 -1.5 
C -0.397805 -1.5 -0.77937 -1.341951 -1.06066 -1.06066 
C -1.341951 -0.77937 -1.5 -0.397805 -1.5 0 
C -1.5 0.397805 -1.341951 0.77937 -1.06066 1.06066 
C -0.77937 1.341951 -0.397805 1.5 0 1.5 
z
" id="m5c36268248" style="stroke:#d62728;"/>
    </defs>
    <g clip-path="url(#p20ea8d4b32)">
     <use style="fill:#ffffff;stroke:#d62728;" x="117" xlink:href="#m5c36268248" y="512.64"/>
     <use style="fill:#ffffff;stroke:#d62728;" x="146.608163" xlink:href="#m5c36268248" y="491.581559"/>
     <use style="fill:#ffffff;stroke:#d62728;" x="176.216327" xlink:href="#m5c36268248" y="478.525778"/>
     <use style="fill:#ffffff;stroke:#d62728;" x="205.82449" xlink:href="#m5c36268248" y="470.71562"/>
    </g>
   </g>
   <g id="line2d_19">
    <path clip-path="url(#p20ea8d4b32)" d="M 117 512.64 
L 135.841558 500.125305 
L 165.449722 491.581559 
L 195.057885 481.722869 
L 224.666048 467.661435 
" style="fill:none;stroke:#9467bd;stroke-linecap:square;stroke-width:1.5;"/>
    <defs>
     <path d="M 0 1.5 
C 0.397805 1.5 0.77937 1.341951 1.06066 1.06066 
C 1.341951 0.77937 1.5 0.397805 1.5 0 
C 1.5 -0.397805 1.341951 -0.77937 1.06066 -1.06066 
C 0.77937 -1.341951 0.397805 -1.5 0 -1.5 
C -0.397805 -1.5 -0.77937 -1.341951 -1.06066 -1.06066 
C -1.341951 -0.77937 -1.5 -0.397805 -1.5 0 
C -1.5 0.397805 -1.341951 0.77937 -1.06066 1.06066 
C -0.77937 1.341951 -0.397805 1.5 0 1.5 
z
" id="m1d191ceb7a" style="stroke:#9467bd;"/>
    </defs>
    <g clip-path="url(#p20ea8d4b32)">
     <use style="fill:#ffffff;stroke:#9467bd;" x="117" xlink:href="#m1d191ceb7a" y="512.64"/>
     <use style="fill:#ffffff;stroke:#9467bd;" x="135.841558" xlink:href="#m1d191ceb7a" y="500.125305"/>
     <use style="fill:#ffffff;stroke:#9467bd;" x="165.449722" xlink:href="#m1d191ceb7a" y="491.581559"/>
     <use style="fill:#ffffff;stroke:#9467bd;" x="195.057885" xlink:href="#m1d191ceb7a" y="481.722869"/>
     <use style="fill:#ffffff;stroke:#9467bd;" x="224.666048" xlink:href="#m1d191ceb7a" y="467.661435"/>
    </g>
   </g>
   <g id="line2d_20">
    <path clip-path="url(#p20ea8d4b32)" d="M 117 512.64 
L 146.608163 500.125305 
L 176.216327 494.961704 
L 205.82449 493.265541 
L 265.040816 483.3377 
L 294.64898 481.722869 
L 324.257143 478.525778 
" style="fill:none;stroke:#8c564b;stroke-linecap:square;stroke-width:1.5;"/>
    <defs>
     <path d="M 0 1.5 
C 0.397805 1.5 0.77937 1.341951 1.06066 1.06066 
C 1.341951 0.77937 1.5 0.397805 1.5 0 
C 1.5 -0.397805 1.341951 -0.77937 1.06066 -1.06066 
C 0.77937 -1.341951 0.397805 -1.5 0 -1.5 
C -0.397805 -1.5 -0.77937 -1.341951 -1.06066 -1.06066 
C -1.341951 -0.77937 -1.5 -0.397805 -1.5 0 
C -1.5 0.397805 -1.341951 0.77937 -1.06066 1.06066 
C -0.77937 1.341951 -0.397805 1.5 0 1.5 
z
" id="m21dcaa1cb8" style="stroke:#8c564b;"/>
    </defs>
    <g clip-path="url(#p20ea8d4b32)">
     <use style="fill:#ffffff;stroke:#8c564b;" x="117" xlink:href="#m21dcaa1cb8" y="512.64"/>
     <use style="fill:#ffffff;stroke:#8c564b;" x="146.608163" xlink:href="#m21dcaa1cb8" y="500.125305"/>
     <use style="fill:#ffffff;stroke:#8c564b;" x="176.216327" xlink:href="#m21dcaa1cb8" y="494.961704"/>
     <use style="fill:#ffffff;stroke:#8c564b;" x="205.82449" xlink:href="#m21dcaa1cb8" y="493.265541"/>
     <use style="fill:#ffffff;stroke:#8c564b;" x="265.040816" xlink:href="#m21dcaa1cb8" y="483.3377"/>
     <use style="fill:#ffffff;stroke:#8c564b;" x="294.64898" xlink:href="#m21dcaa1cb8" y="481.722869"/>
     <use style="fill:#ffffff;stroke:#8c564b;" x="324.257143" xlink:href="#m21dcaa1cb8" y="478.525778"/>
    </g>
   </g>
   <g id="line2d_21">
    <path clip-path="url(#p20ea8d4b32)" d="M 117 512.64 
L 128.843265 505.406055 
L 158.451429 486.600771 
L 188.059592 475.371034 
L 217.667755 464.645488 
L 247.275918 452.943538 
L 276.884082 443.144646 
L 306.492245 437.715238 
L 336.100408 429.787193 
L 365.708571 408.593482 
L 395.316735 392.371325 
L 424.924898 385.71849 
L 454.533061 376.046059 
L 484.141224 370.822084 
L 513.749388 367.736439 
L 543.357551 362.671919 
" style="fill:none;stroke:#e377c2;stroke-linecap:square;stroke-width:1.5;"/>
    <defs>
     <path d="M 0 1.5 
C 0.397805 1.5 0.77937 1.341951 1.06066 1.06066 
C 1.341951 0.77937 1.5 0.397805 1.5 0 
C 1.5 -0.397805 1.341951 -0.77937 1.06066 -1.06066 
C 0.77937 -1.341951 0.397805 -1.5 0 -1.5 
C -0.397805 -1.5 -0.77937 -1.341951 -1.06066 -1.06066 
C -1.341951 -0.77937 -1.5 -0.397805 -1.5 0 
C -1.5 0.397805 -1.341951 0.77937 -1.06066 1.06066 
C -0.77937 1.341951 -0.397805 1.5 0 1.5 
z
" id="md2987c4db1" style="stroke:#e377c2;"/>
    </defs>
    <g clip-path="url(#p20ea8d4b32)">
     <use style="fill:#ffffff;stroke:#e377c2;" x="117" xlink:href="#md2987c4db1" y="512.64"/>
     <use style="fill:#ffffff;stroke:#e377c2;" x="128.843265" xlink:href="#md2987c4db1" y="505.406055"/>
     <use style="fill:#ffffff;stroke:#e377c2;" x="158.451429" xlink:href="#md2987c4db1" y="486.600771"/>
     <use style="fill:#ffffff;stroke:#e377c2;" x="188.059592" xlink:href="#md2987c4db1" y="475.371034"/>
     <use style="fill:#ffffff;stroke:#e377c2;" x="217.667755" xlink:href="#md2987c4db1" y="464.645488"/>
     <use style="fill:#ffffff;stroke:#e377c2;" x="247.275918" xlink:href="#md2987c4db1" y="452.943538"/>
     <use style="fill:#ffffff;stroke:#e377c2;" x="276.884082" xlink:href="#md2987c4db1" y="443.144646"/>
     <use style="fill:#ffffff;stroke:#e377c2;" x="306.492245" xlink:href="#md2987c4db1" y="437.715238"/>
     <use style="fill:#ffffff;stroke:#e377c2;" x="336.100408" xlink:href="#md2987c4db1" y="429.787193"/>
     <use style="fill:#ffffff;stroke:#e377c2;" x="365.708571" xlink:href="#md2987c4db1" y="408.593482"/>
     <use style="fill:#ffffff;stroke:#e377c2;" x="395.316735" xlink:href="#md2987c4db1" y="392.371325"/>
     <use style="fill:#ffffff;stroke:#e377c2;" x="424.924898" xlink:href="#md2987c4db1" y="385.71849"/>
     <use style="fill:#ffffff;stroke:#e377c2;" x="454.533061" xlink:href="#md2987c4db1" y="376.046059"/>
     <use style="fill:#ffffff;stroke:#e377c2;" x="484.141224" xlink:href="#md2987c4db1" y="370.822084"/>
     <use style="fill:#ffffff;stroke:#e377c2;" x="513.749388" xlink:href="#md2987c4db1" y="367.736439"/>
     <use style="fill:#ffffff;stroke:#e377c2;" x="543.357551" xlink:href="#md2987c4db1" y="362.671919"/>
    </g>
   </g>
   <g id="line2d_22">
    <path clip-path="url(#p20ea8d4b32)" d="M 117 512.64 
L 136.158223 493.265541 
L 165.766387 476.943192 
L 195.37455 457.266066 
L 224.982713 444.520826 
L 254.590876 422.102529 
L 284.19904 399.199077 
L 313.807203 376.046059 
L 343.415366 354.763077 
L 373.023529 333.23526 
L 402.631693 309.118175 
L 432.239856 297.797676 
" style="fill:none;stroke:#7f7f7f;stroke-linecap:square;stroke-width:1.5;"/>
    <defs>
     <path d="M 0 1.5 
C 0.397805 1.5 0.77937 1.341951 1.06066 1.06066 
C 1.341951 0.77937 1.5 0.397805 1.5 0 
C 1.5 -0.397805 1.341951 -0.77937 1.06066 -1.06066 
C 0.77937 -1.341951 0.397805 -1.5 0 -1.5 
C -0.397805 -1.5 -0.77937 -1.341951 -1.06066 -1.06066 
C -1.341951 -0.77937 -1.5 -0.397805 -1.5 0 
C -1.5 0.397805 -1.341951 0.77937 -1.06066 1.06066 
C -0.77937 1.341951 -0.397805 1.5 0 1.5 
z
" id="m11825f27ae" style="stroke:#7f7f7f;"/>
    </defs>
    <g clip-path="url(#p20ea8d4b32)">
     <use style="fill:#ffffff;stroke:#7f7f7f;" x="117" xlink:href="#m11825f27ae" y="512.64"/>
     <use style="fill:#ffffff;stroke:#7f7f7f;" x="136.158223" xlink:href="#m11825f27ae" y="493.265541"/>
     <use style="fill:#ffffff;stroke:#7f7f7f;" x="165.766387" xlink:href="#m11825f27ae" y="476.943192"/>
     <use style="fill:#ffffff;stroke:#7f7f7f;" x="195.37455" xlink:href="#m11825f27ae" y="457.266066"/>
     <use style="fill:#ffffff;stroke:#7f7f7f;" x="224.982713" xlink:href="#m11825f27ae" y="444.520826"/>
     <use style="fill:#ffffff;stroke:#7f7f7f;" x="254.590876" xlink:href="#m11825f27ae" y="422.102529"/>
     <use style="fill:#ffffff;stroke:#7f7f7f;" x="284.19904" xlink:href="#m11825f27ae" y="399.199077"/>
     <use style="fill:#ffffff;stroke:#7f7f7f;" x="313.807203" xlink:href="#m11825f27ae" y="376.046059"/>
     <use style="fill:#ffffff;stroke:#7f7f7f;" x="343.415366" xlink:href="#m11825f27ae" y="354.763077"/>
     <use style="fill:#ffffff;stroke:#7f7f7f;" x="373.023529" xlink:href="#m11825f27ae" y="333.23526"/>
     <use style="fill:#ffffff;stroke:#7f7f7f;" x="402.631693" xlink:href="#m11825f27ae" y="309.118175"/>
     <use style="fill:#ffffff;stroke:#7f7f7f;" x="432.239856" xlink:href="#m11825f27ae" y="297.797676"/>
    </g>
   </g>
   <g id="line2d_23">
    <path clip-path="url(#p20ea8d4b32)" d="M 117 512.64 
L 137.497959 496.670248 
L 167.106122 494.961704 
L 196.714286 488.249362 
L 226.322449 458.724114 
L 255.930612 439.061479 
L 285.538776 432.401981 
L 315.146939 415.872827 
L 344.755102 403.85333 
L 374.363265 402.681851 
L 403.971429 401.515685 
L 433.579592 387.917287 
L 463.187755 367.736439 
L 492.795918 357.701632 
L 522.404082 317.493136 
L 552.012245 308.294298 
L 581.620408 307.472831 
L 611.228571 296.216861 
" style="fill:none;stroke:#bcbd22;stroke-linecap:square;stroke-width:1.5;"/>
    <defs>
     <path d="M 0 1.5 
C 0.397805 1.5 0.77937 1.341951 1.06066 1.06066 
C 1.341951 0.77937 1.5 0.397805 1.5 0 
C 1.5 -0.397805 1.341951 -0.77937 1.06066 -1.06066 
C 0.77937 -1.341951 0.397805 -1.5 0 -1.5 
C -0.397805 -1.5 -0.77937 -1.341951 -1.06066 -1.06066 
C -1.341951 -0.77937 -1.5 -0.397805 -1.5 0 
C -1.5 0.397805 -1.341951 0.77937 -1.06066 1.06066 
C -0.77937 1.341951 -0.397805 1.5 0 1.5 
z
" id="md98cc50030" style="stroke:#bcbd22;"/>
    </defs>
    <g clip-path="url(#p20ea8d4b32)">
     <use style="fill:#ffffff;stroke:#bcbd22;" x="117" xlink:href="#md98cc50030" y="512.64"/>
     <use style="fill:#ffffff;stroke:#bcbd22;" x="137.497959" xlink:href="#md98cc50030" y="496.670248"/>
     <use style="fill:#ffffff;stroke:#bcbd22;" x="167.106122" xlink:href="#md98cc50030" y="494.961704"/>
     <use style="fill:#ffffff;stroke:#bcbd22;" x="196.714286" xlink:href="#md98cc50030" y="488.249362"/>
     <use style="fill:#ffffff;stroke:#bcbd22;" x="226.322449" xlink:href="#md98cc50030" y="458.724114"/>
     <use style="fill:#ffffff;stroke:#bcbd22;" x="255.930612" xlink:href="#md98cc50030" y="439.061479"/>
     <use style="fill:#ffffff;stroke:#bcbd22;" x="285.538776" xlink:href="#md98cc50030" y="432.401981"/>
     <use style="fill:#ffffff;stroke:#bcbd22;" x="315.146939" xlink:href="#md98cc50030" y="415.872827"/>
     <use style="fill:#ffffff;stroke:#bcbd22;" x="344.755102" xlink:href="#md98cc50030" y="403.85333"/>
     <use style="fill:#ffffff;stroke:#bcbd22;" x="374.363265" xlink:href="#md98cc50030" y="402.681851"/>
     <use style="fill:#ffffff;stroke:#bcbd22;" x="403.971429" xlink:href="#md98cc50030" y="401.515685"/>
     <use style="fill:#ffffff;stroke:#bcbd22;" x="433.579592" xlink:href="#md98cc50030" y="387.917287"/>
     <use style="fill:#ffffff;stroke:#bcbd22;" x="463.187755" xlink:href="#md98cc50030" y="367.736439"/>
     <use style="fill:#ffffff;stroke:#bcbd22;" x="492.795918" xlink:href="#md98cc50030" y="357.701632"/>
     <use style="fill:#ffffff;stroke:#bcbd22;" x="522.404082" xlink:href="#md98cc50030" y="317.493136"/>
     <use style="fill:#ffffff;stroke:#bcbd22;" x="552.012245" xlink:href="#md98cc50030" y="308.294298"/>
     <use style="fill:#ffffff;stroke:#bcbd22;" x="581.620408" xlink:href="#md98cc50030" y="307.472831"/>
     <use style="fill:#ffffff;stroke:#bcbd22;" x="611.228571" xlink:href="#md98cc50030" y="296.216861"/>
    </g>
   </g>
   <g id="line2d_24">
    <path clip-path="url(#p20ea8d4b32)" d="M 117 512.64 
L 142.053061 493.265541 
L 171.661224 475.371034 
L 201.269388 464.645488 
L 230.877551 448.696081 
L 260.485714 432.401981 
L 290.093878 423.367113 
L 319.702041 410.996902 
L 349.310204 394.627299 
L 378.918367 383.538035 
L 408.526531 374.992972 
L 438.134694 366.715802 
L 467.742857 354.763077 
L 497.35102 348.980428 
L 526.959184 347.080053 
" style="fill:none;stroke:#17becf;stroke-linecap:square;stroke-width:1.5;"/>
    <defs>
     <path d="M 0 1.5 
C 0.397805 1.5 0.77937 1.341951 1.06066 1.06066 
C 1.341951 0.77937 1.5 0.397805 1.5 0 
C 1.5 -0.397805 1.341951 -0.77937 1.06066 -1.06066 
C 0.77937 -1.341951 0.397805 -1.5 0 -1.5 
C -0.397805 -1.5 -0.77937 -1.341951 -1.06066 -1.06066 
C -1.341951 -0.77937 -1.5 -0.397805 -1.5 0 
C -1.5 0.397805 -1.341951 0.77937 -1.06066 1.06066 
C -0.77937 1.341951 -0.397805 1.5 0 1.5 
z
" id="m96bc9b78ff" style="stroke:#17becf;"/>
    </defs>
    <g clip-path="url(#p20ea8d4b32)">
     <use style="fill:#ffffff;stroke:#17becf;" x="117" xlink:href="#m96bc9b78ff" y="512.64"/>
     <use style="fill:#ffffff;stroke:#17becf;" x="142.053061" xlink:href="#m96bc9b78ff" y="493.265541"/>
     <use style="fill:#ffffff;stroke:#17becf;" x="171.661224" xlink:href="#m96bc9b78ff" y="475.371034"/>
     <use style="fill:#ffffff;stroke:#17becf;" x="201.269388" xlink:href="#m96bc9b78ff" y="464.645488"/>
     <use style="fill:#ffffff;stroke:#17becf;" x="230.877551" xlink:href="#m96bc9b78ff" y="448.696081"/>
     <use style="fill:#ffffff;stroke:#17becf;" x="260.485714" xlink:href="#m96bc9b78ff" y="432.401981"/>
     <use style="fill:#ffffff;stroke:#17becf;" x="290.093878" xlink:href="#m96bc9b78ff" y="423.367113"/>
     <use style="fill:#ffffff;stroke:#17becf;" x="319.702041" xlink:href="#m96bc9b78ff" y="410.996902"/>
     <use style="fill:#ffffff;stroke:#17becf;" x="349.310204" xlink:href="#m96bc9b78ff" y="394.627299"/>
     <use style="fill:#ffffff;stroke:#17becf;" x="378.918367" xlink:href="#m96bc9b78ff" y="383.538035"/>
     <use style="fill:#ffffff;stroke:#17becf;" x="408.526531" xlink:href="#m96bc9b78ff" y="374.992972"/>
     <use style="fill:#ffffff;stroke:#17becf;" x="438.134694" xlink:href="#m96bc9b78ff" y="366.715802"/>
     <use style="fill:#ffffff;stroke:#17becf;" x="467.742857" xlink:href="#m96bc9b78ff" y="354.763077"/>
     <use style="fill:#ffffff;stroke:#17becf;" x="497.35102" xlink:href="#m96bc9b78ff" y="348.980428"/>
     <use style="fill:#ffffff;stroke:#17becf;" x="526.959184" xlink:href="#m96bc9b78ff" y="347.080053"/>
    </g>
   </g>
   <g id="line2d_25">
    <path clip-path="url(#p20ea8d4b32)" d="M 117 512.64 
L 127.766605 498.391378 
L 157.374768 483.3377 
L 186.982931 461.66672 
L 216.591095 432.401981 
L 246.199258 417.106567 
L 275.807421 407.400195 
L 305.415584 399.199077 
L 335.023748 362.671919 
L 364.631911 335.041194 
L 394.240074 325.252173 
L 423.848237 311.604431 
L 453.456401 295.429745 
L 483.064564 287.67607 
L 512.672727 282.371051 
" style="fill:none;stroke:#1f77b4;stroke-linecap:square;stroke-width:1.5;"/>
    <g clip-path="url(#p20ea8d4b32)">
     <use style="fill:#ffffff;stroke:#1f77b4;" x="117" xlink:href="#m0944e4a278" y="512.64"/>
     <use style="fill:#ffffff;stroke:#1f77b4;" x="127.766605" xlink:href="#m0944e4a278" y="498.391378"/>
     <use style="fill:#ffffff;stroke:#1f77b4;" x="157.374768" xlink:href="#m0944e4a278" y="483.3377"/>
     <use style="fill:#ffffff;stroke:#1f77b4;" x="186.982931" xlink:href="#m0944e4a278" y="461.66672"/>
     <use style="fill:#ffffff;stroke:#1f77b4;" x="216.591095" xlink:href="#m0944e4a278" y="432.401981"/>
     <use style="fill:#ffffff;stroke:#1f77b4;" x="246.199258" xlink:href="#m0944e4a278" y="417.106567"/>
     <use style="fill:#ffffff;stroke:#1f77b4;" x="275.807421" xlink:href="#m0944e4a278" y="407.400195"/>
     <use style="fill:#ffffff;stroke:#1f77b4;" x="305.415584" xlink:href="#m0944e4a278" y="399.199077"/>
     <use style="fill:#ffffff;stroke:#1f77b4;" x="335.023748" xlink:href="#m0944e4a278" y="362.671919"/>
     <use style="fill:#ffffff;stroke:#1f77b4;" x="364.631911" xlink:href="#m0944e4a278" y="335.041194"/>
     <use style="fill:#ffffff;stroke:#1f77b4;" x="394.240074" xlink:href="#m0944e4a278" y="325.252173"/>
     <use style="fill:#ffffff;stroke:#1f77b4;" x="423.848237" xlink:href="#m0944e4a278" y="311.604431"/>
     <use style="fill:#ffffff;stroke:#1f77b4;" x="453.456401" xlink:href="#m0944e4a278" y="295.429745"/>
     <use style="fill:#ffffff;stroke:#1f77b4;" x="483.064564" xlink:href="#m0944e4a278" y="287.67607"/>
     <use style="fill:#ffffff;stroke:#1f77b4;" x="512.672727" xlink:href="#m0944e4a278" y="282.371051"/>
    </g>
   </g>
   <g id="line2d_26">
    <path clip-path="url(#p20ea8d4b32)" d="M 117 512.64 
L 140.686531 505.406055 
" style="fill:none;stroke:#ff7f0e;stroke-linecap:square;stroke-width:1.5;"/>
    <g clip-path="url(#p20ea8d4b32)">
     <use style="fill:#ffffff;stroke:#ff7f0e;" x="117" xlink:href="#m133f8f1c65" y="512.64"/>
     <use style="fill:#ffffff;stroke:#ff7f0e;" x="140.686531" xlink:href="#m133f8f1c65" y="505.406055"/>
    </g>
   </g>
   <g id="line2d_27">
    <path clip-path="url(#p20ea8d4b32)" d="M 117 512.64 
L 127.766605 498.391378 
L 157.374768 488.249362 
L 216.591095 463.151521 
L 246.199258 461.66672 
L 275.807421 445.904725 
L 305.415584 433.719711 
L 335.023748 428.489973 
L 364.631911 424.638076 
L 423.848237 418.34634 
L 453.456401 407.400195 
L 483.064564 381.375582 
L 512.672727 372.899309 
L 542.280891 369.789545 
L 601.497217 356.718539 
" style="fill:none;stroke:#2ca02c;stroke-linecap:square;stroke-width:1.5;"/>
    <g clip-path="url(#p20ea8d4b32)">
     <use style="fill:#ffffff;stroke:#2ca02c;" x="117" xlink:href="#mb72a6ef0c7" y="512.64"/>
     <use style="fill:#ffffff;stroke:#2ca02c;" x="127.766605" xlink:href="#mb72a6ef0c7" y="498.391378"/>
     <use style="fill:#ffffff;stroke:#2ca02c;" x="157.374768" xlink:href="#mb72a6ef0c7" y="488.249362"/>
     <use style="fill:#ffffff;stroke:#2ca02c;" x="216.591095" xlink:href="#mb72a6ef0c7" y="463.151521"/>
     <use style="fill:#ffffff;stroke:#2ca02c;" x="246.199258" xlink:href="#mb72a6ef0c7" y="461.66672"/>
     <use style="fill:#ffffff;stroke:#2ca02c;" x="275.807421" xlink:href="#mb72a6ef0c7" y="445.904725"/>
     <use style="fill:#ffffff;stroke:#2ca02c;" x="305.415584" xlink:href="#mb72a6ef0c7" y="433.719711"/>
     <use style="fill:#ffffff;stroke:#2ca02c;" x="335.023748" xlink:href="#mb72a6ef0c7" y="428.489973"/>
     <use style="fill:#ffffff;stroke:#2ca02c;" x="364.631911" xlink:href="#mb72a6ef0c7" y="424.638076"/>
     <use style="fill:#ffffff;stroke:#2ca02c;" x="423.848237" xlink:href="#mb72a6ef0c7" y="418.34634"/>
     <use style="fill:#ffffff;stroke:#2ca02c;" x="453.456401" xlink:href="#mb72a6ef0c7" y="407.400195"/>
     <use style="fill:#ffffff;stroke:#2ca02c;" x="483.064564" xlink:href="#mb72a6ef0c7" y="381.375582"/>
     <use style="fill:#ffffff;stroke:#2ca02c;" x="512.672727" xlink:href="#mb72a6ef0c7" y="372.899309"/>
     <use style="fill:#ffffff;stroke:#2ca02c;" x="542.280891" xlink:href="#mb72a6ef0c7" y="369.789545"/>
     <use style="fill:#ffffff;stroke:#2ca02c;" x="601.497217" xlink:href="#mb72a6ef0c7" y="356.718539"/>
    </g>
   </g>
   <g id="line2d_28">
    <path clip-path="url(#p20ea8d4b32)" d="M 117 512.64 
L 143.318367 498.391378 
L 172.926531 473.809153 
L 202.534694 461.66672 
L 232.142857 454.375892 
L 261.75102 450.10374 
L 291.359184 448.696081 
L 320.967347 444.520826 
L 350.57551 417.106567 
L 380.183673 409.792365 
L 409.791837 399.199077 
L 439.4 389.023674 
L 469.008163 382.454579 
L 498.616327 381.375582 
L 528.22449 379.2308 
" style="fill:none;stroke:#d62728;stroke-linecap:square;stroke-width:1.5;"/>
    <g clip-path="url(#p20ea8d4b32)">
     <use style="fill:#ffffff;stroke:#d62728;" x="117" xlink:href="#m5c36268248" y="512.64"/>
     <use style="fill:#ffffff;stroke:#d62728;" x="143.318367" xlink:href="#m5c36268248" y="498.391378"/>
     <use style="fill:#ffffff;stroke:#d62728;" x="172.926531" xlink:href="#m5c36268248" y="473.809153"/>
     <use style="fill:#ffffff;stroke:#d62728;" x="202.534694" xlink:href="#m5c36268248" y="461.66672"/>
     <use style="fill:#ffffff;stroke:#d62728;" x="232.142857" xlink:href="#m5c36268248" y="454.375892"/>
     <use style="fill:#ffffff;stroke:#d62728;" x="261.75102" xlink:href="#m5c36268248" y="450.10374"/>
     <use style="fill:#ffffff;stroke:#d62728;" x="291.359184" xlink:href="#m5c36268248" y="448.696081"/>
     <use style="fill:#ffffff;stroke:#d62728;" x="320.967347" xlink:href="#m5c36268248" y="444.520826"/>
     <use style="fill:#ffffff;stroke:#d62728;" x="350.57551" xlink:href="#m5c36268248" y="417.106567"/>
     <use style="fill:#ffffff;stroke:#d62728;" x="380.183673" xlink:href="#m5c36268248" y="409.792365"/>
     <use style="fill:#ffffff;stroke:#d62728;" x="409.791837" xlink:href="#m5c36268248" y="399.199077"/>
     <use style="fill:#ffffff;stroke:#d62728;" x="439.4" xlink:href="#m5c36268248" y="389.023674"/>
     <use style="fill:#ffffff;stroke:#d62728;" x="469.008163" xlink:href="#m5c36268248" y="382.454579"/>
     <use style="fill:#ffffff;stroke:#d62728;" x="498.616327" xlink:href="#m5c36268248" y="381.375582"/>
     <use style="fill:#ffffff;stroke:#d62728;" x="528.22449" xlink:href="#m5c36268248" y="379.2308"/>
    </g>
   </g>
   <g id="line2d_29">
    <path clip-path="url(#p20ea8d4b32)" d="M 117 512.64 
L 125.22449 503.632419 
L 154.832653 481.722869 
L 184.440816 452.943538 
L 214.04898 435.04444 
L 243.657143 428.489973 
L 273.265306 408.593482 
L 302.873469 396.903084 
L 332.481633 387.917287 
L 362.089796 373.944068 
L 391.697959 360.672718 
L 421.306122 349.935644 
L 450.914286 343.318792 
" style="fill:none;stroke:#9467bd;stroke-linecap:square;stroke-width:1.5;"/>
    <g clip-path="url(#p20ea8d4b32)">
     <use style="fill:#ffffff;stroke:#9467bd;" x="117" xlink:href="#m1d191ceb7a" y="512.64"/>
     <use style="fill:#ffffff;stroke:#9467bd;" x="125.22449" xlink:href="#m1d191ceb7a" y="503.632419"/>
     <use style="fill:#ffffff;stroke:#9467bd;" x="154.832653" xlink:href="#m1d191ceb7a" y="481.722869"/>
     <use style="fill:#ffffff;stroke:#9467bd;" x="184.440816" xlink:href="#m1d191ceb7a" y="452.943538"/>
     <use style="fill:#ffffff;stroke:#9467bd;" x="214.04898" xlink:href="#m1d191ceb7a" y="435.04444"/>
     <use style="fill:#ffffff;stroke:#9467bd;" x="243.657143" xlink:href="#m1d191ceb7a" y="428.489973"/>
     <use style="fill:#ffffff;stroke:#9467bd;" x="273.265306" xlink:href="#m1d191ceb7a" y="408.593482"/>
     <use style="fill:#ffffff;stroke:#9467bd;" x="302.873469" xlink:href="#m1d191ceb7a" y="396.903084"/>
     <use style="fill:#ffffff;stroke:#9467bd;" x="332.481633" xlink:href="#m1d191ceb7a" y="387.917287"/>
     <use style="fill:#ffffff;stroke:#9467bd;" x="362.089796" xlink:href="#m1d191ceb7a" y="373.944068"/>
     <use style="fill:#ffffff;stroke:#9467bd;" x="391.697959" xlink:href="#m1d191ceb7a" y="360.672718"/>
     <use style="fill:#ffffff;stroke:#9467bd;" x="421.306122" xlink:href="#m1d191ceb7a" y="349.935644"/>
     <use style="fill:#ffffff;stroke:#9467bd;" x="450.914286" xlink:href="#m1d191ceb7a" y="343.318792"/>
    </g>
   </g>
   <g id="line2d_30">
    <path clip-path="url(#p20ea8d4b32)" d="M 117 512.64 
L 137.725714 500.125305 
L 167.333878 496.670248 
L 196.942041 484.963609 
L 226.550204 480.11895 
L 256.158367 478.525778 
L 285.766531 472.257397 
L 315.374694 455.816697 
L 344.982857 448.696081 
L 374.59102 435.04444 
L 404.199184 425.915491 
L 433.807347 414.645055 
L 463.41551 405.030176 
L 493.023673 401.515685 
" style="fill:none;stroke:#8c564b;stroke-linecap:square;stroke-width:1.5;"/>
    <g clip-path="url(#p20ea8d4b32)">
     <use style="fill:#ffffff;stroke:#8c564b;" x="117" xlink:href="#m21dcaa1cb8" y="512.64"/>
     <use style="fill:#ffffff;stroke:#8c564b;" x="137.725714" xlink:href="#m21dcaa1cb8" y="500.125305"/>
     <use style="fill:#ffffff;stroke:#8c564b;" x="167.333878" xlink:href="#m21dcaa1cb8" y="496.670248"/>
     <use style="fill:#ffffff;stroke:#8c564b;" x="196.942041" xlink:href="#m21dcaa1cb8" y="484.963609"/>
     <use style="fill:#ffffff;stroke:#8c564b;" x="226.550204" xlink:href="#m21dcaa1cb8" y="480.11895"/>
     <use style="fill:#ffffff;stroke:#8c564b;" x="256.158367" xlink:href="#m21dcaa1cb8" y="478.525778"/>
     <use style="fill:#ffffff;stroke:#8c564b;" x="285.766531" xlink:href="#m21dcaa1cb8" y="472.257397"/>
     <use style="fill:#ffffff;stroke:#8c564b;" x="315.374694" xlink:href="#m21dcaa1cb8" y="455.816697"/>
     <use style="fill:#ffffff;stroke:#8c564b;" x="344.982857" xlink:href="#m21dcaa1cb8" y="448.696081"/>
     <use style="fill:#ffffff;stroke:#8c564b;" x="374.59102" xlink:href="#m21dcaa1cb8" y="435.04444"/>
     <use style="fill:#ffffff;stroke:#8c564b;" x="404.199184" xlink:href="#m21dcaa1cb8" y="425.915491"/>
     <use style="fill:#ffffff;stroke:#8c564b;" x="433.807347" xlink:href="#m21dcaa1cb8" y="414.645055"/>
     <use style="fill:#ffffff;stroke:#8c564b;" x="463.41551" xlink:href="#m21dcaa1cb8" y="405.030176"/>
     <use style="fill:#ffffff;stroke:#8c564b;" x="493.023673" xlink:href="#m21dcaa1cb8" y="401.515685"/>
    </g>
   </g>
   <g id="line2d_31">
    <path clip-path="url(#p20ea8d4b32)" d="M 117 512.64 
L 126.869388 510.81011 
L 186.085714 496.670248 
L 215.693878 472.257397 
L 245.302041 455.816697 
L 274.910204 447.296444 
L 304.518367 445.904725 
L 334.126531 441.776091 
L 363.734694 437.715238 
L 393.342857 432.401981 
L 422.95102 425.915491 
L 452.559184 414.645055 
L 482.167347 412.207156 
L 541.383673 400.354778 
L 570.991837 396.903084 
L 600.6 393.49686 
" style="fill:none;stroke:#e377c2;stroke-linecap:square;stroke-width:1.5;"/>
    <g clip-path="url(#p20ea8d4b32)">
     <use style="fill:#ffffff;stroke:#e377c2;" x="117" xlink:href="#md2987c4db1" y="512.64"/>
     <use style="fill:#ffffff;stroke:#e377c2;" x="126.869388" xlink:href="#md2987c4db1" y="510.81011"/>
     <use style="fill:#ffffff;stroke:#e377c2;" x="186.085714" xlink:href="#md2987c4db1" y="496.670248"/>
     <use style="fill:#ffffff;stroke:#e377c2;" x="215.693878" xlink:href="#md2987c4db1" y="472.257397"/>
     <use style="fill:#ffffff;stroke:#e377c2;" x="245.302041" xlink:href="#md2987c4db1" y="455.816697"/>
     <use style="fill:#ffffff;stroke:#e377c2;" x="274.910204" xlink:href="#md2987c4db1" y="447.296444"/>
     <use style="fill:#ffffff;stroke:#e377c2;" x="304.518367" xlink:href="#md2987c4db1" y="445.904725"/>
     <use style="fill:#ffffff;stroke:#e377c2;" x="334.126531" xlink:href="#md2987c4db1" y="441.776091"/>
     <use style="fill:#ffffff;stroke:#e377c2;" x="363.734694" xlink:href="#md2987c4db1" y="437.715238"/>
     <use style="fill:#ffffff;stroke:#e377c2;" x="393.342857" xlink:href="#md2987c4db1" y="432.401981"/>
     <use style="fill:#ffffff;stroke:#e377c2;" x="422.95102" xlink:href="#md2987c4db1" y="425.915491"/>
     <use style="fill:#ffffff;stroke:#e377c2;" x="452.559184" xlink:href="#md2987c4db1" y="414.645055"/>
     <use style="fill:#ffffff;stroke:#e377c2;" x="482.167347" xlink:href="#md2987c4db1" y="412.207156"/>
     <use style="fill:#ffffff;stroke:#e377c2;" x="541.383673" xlink:href="#md2987c4db1" y="400.354778"/>
     <use style="fill:#ffffff;stroke:#e377c2;" x="570.991837" xlink:href="#md2987c4db1" y="396.903084"/>
     <use style="fill:#ffffff;stroke:#e377c2;" x="600.6" xlink:href="#md2987c4db1" y="393.49686"/>
    </g>
   </g>
   <g id="line2d_32">
    <path clip-path="url(#p20ea8d4b32)" d="M 117 512.64 
L 126.869388 503.632419 
L 156.477551 467.661435 
L 186.085714 448.696081 
L 215.693878 429.787193 
L 245.302041 401.515685 
L 274.910204 377.103368 
L 304.518367 349.935644 
L 334.126531 324.379255 
L 363.734694 309.944479 
L 393.342857 297.006167 
L 422.95102 273.498441 
L 452.559184 241.789287 
L 482.167347 223.413175 
L 511.77551 202.627585 
L 541.383673 188.598721 
L 570.991837 175.702171 
L 600.6 166.366307 
L 630.208163 155.317718 
L 659.816327 142.735111 
L 689.42449 134.303623 
L 719.032653 119.834415 
L 748.640816 106.826218 
L 778.24898 96.363532 
L 807.857143 90.24 
" style="fill:none;stroke:#7f7f7f;stroke-linecap:square;stroke-width:1.5;"/>
    <g clip-path="url(#p20ea8d4b32)">
     <use style="fill:#ffffff;stroke:#7f7f7f;" x="117" xlink:href="#m11825f27ae" y="512.64"/>
     <use style="fill:#ffffff;stroke:#7f7f7f;" x="126.869388" xlink:href="#m11825f27ae" y="503.632419"/>
     <use style="fill:#ffffff;stroke:#7f7f7f;" x="156.477551" xlink:href="#m11825f27ae" y="467.661435"/>
     <use style="fill:#ffffff;stroke:#7f7f7f;" x="186.085714" xlink:href="#m11825f27ae" y="448.696081"/>
     <use style="fill:#ffffff;stroke:#7f7f7f;" x="215.693878" xlink:href="#m11825f27ae" y="429.787193"/>
     <use style="fill:#ffffff;stroke:#7f7f7f;" x="245.302041" xlink:href="#m11825f27ae" y="401.515685"/>
     <use style="fill:#ffffff;stroke:#7f7f7f;" x="274.910204" xlink:href="#m11825f27ae" y="377.103368"/>
     <use style="fill:#ffffff;stroke:#7f7f7f;" x="304.518367" xlink:href="#m11825f27ae" y="349.935644"/>
     <use style="fill:#ffffff;stroke:#7f7f7f;" x="334.126531" xlink:href="#m11825f27ae" y="324.379255"/>
     <use style="fill:#ffffff;stroke:#7f7f7f;" x="363.734694" xlink:href="#m11825f27ae" y="309.944479"/>
     <use style="fill:#ffffff;stroke:#7f7f7f;" x="393.342857" xlink:href="#m11825f27ae" y="297.006167"/>
     <use style="fill:#ffffff;stroke:#7f7f7f;" x="422.95102" xlink:href="#m11825f27ae" y="273.498441"/>
     <use style="fill:#ffffff;stroke:#7f7f7f;" x="452.559184" xlink:href="#m11825f27ae" y="241.789287"/>
     <use style="fill:#ffffff;stroke:#7f7f7f;" x="482.167347" xlink:href="#m11825f27ae" y="223.413175"/>
     <use style="fill:#ffffff;stroke:#7f7f7f;" x="511.77551" xlink:href="#m11825f27ae" y="202.627585"/>
     <use style="fill:#ffffff;stroke:#7f7f7f;" x="541.383673" xlink:href="#m11825f27ae" y="188.598721"/>
     <use style="fill:#ffffff;stroke:#7f7f7f;" x="570.991837" xlink:href="#m11825f27ae" y="175.702171"/>
     <use style="fill:#ffffff;stroke:#7f7f7f;" x="600.6" xlink:href="#m11825f27ae" y="166.366307"/>
     <use style="fill:#ffffff;stroke:#7f7f7f;" x="630.208163" xlink:href="#m11825f27ae" y="155.317718"/>
     <use style="fill:#ffffff;stroke:#7f7f7f;" x="659.816327" xlink:href="#m11825f27ae" y="142.735111"/>
     <use style="fill:#ffffff;stroke:#7f7f7f;" x="689.42449" xlink:href="#m11825f27ae" y="134.303623"/>
     <use style="fill:#ffffff;stroke:#7f7f7f;" x="719.032653" xlink:href="#m11825f27ae" y="119.834415"/>
     <use style="fill:#ffffff;stroke:#7f7f7f;" x="748.640816" xlink:href="#m11825f27ae" y="106.826218"/>
     <use style="fill:#ffffff;stroke:#7f7f7f;" x="778.24898" xlink:href="#m11825f27ae" y="96.363532"/>
     <use style="fill:#ffffff;stroke:#7f7f7f;" x="807.857143" xlink:href="#m11825f27ae" y="90.24"/>
    </g>
   </g>
   <g id="line2d_33">
    <path clip-path="url(#p20ea8d4b32)" d="M 117 512.64 
L 124.837455 496.670248 
L 154.445618 476.943192 
L 184.053782 463.151521 
L 213.661945 447.296444 
L 243.270108 436.376254 
L 272.878271 429.787193 
L 302.486435 381.375582 
L 332.094598 367.736439 
L 361.702761 345.192909 
L 391.310924 320.914843 
L 420.919088 305.02274 
L 450.527251 286.912168 
L 480.135414 271.322225 
L 509.743577 253.113084 
L 539.351741 237.89363 
L 568.959904 214.927875 
L 598.568067 200.339655 
L 628.17623 193.576073 
L 657.784394 188.050579 
" style="fill:none;stroke:#bcbd22;stroke-linecap:square;stroke-width:1.5;"/>
    <g clip-path="url(#p20ea8d4b32)">
     <use style="fill:#ffffff;stroke:#bcbd22;" x="117" xlink:href="#md98cc50030" y="512.64"/>
     <use style="fill:#ffffff;stroke:#bcbd22;" x="124.837455" xlink:href="#md98cc50030" y="496.670248"/>
     <use style="fill:#ffffff;stroke:#bcbd22;" x="154.445618" xlink:href="#md98cc50030" y="476.943192"/>
     <use style="fill:#ffffff;stroke:#bcbd22;" x="184.053782" xlink:href="#md98cc50030" y="463.151521"/>
     <use style="fill:#ffffff;stroke:#bcbd22;" x="213.661945" xlink:href="#md98cc50030" y="447.296444"/>
     <use style="fill:#ffffff;stroke:#bcbd22;" x="243.270108" xlink:href="#md98cc50030" y="436.376254"/>
     <use style="fill:#ffffff;stroke:#bcbd22;" x="272.878271" xlink:href="#md98cc50030" y="429.787193"/>
     <use style="fill:#ffffff;stroke:#bcbd22;" x="302.486435" xlink:href="#md98cc50030" y="381.375582"/>
     <use style="fill:#ffffff;stroke:#bcbd22;" x="332.094598" xlink:href="#md98cc50030" y="367.736439"/>
     <use style="fill:#ffffff;stroke:#bcbd22;" x="361.702761" xlink:href="#md98cc50030" y="345.192909"/>
     <use style="fill:#ffffff;stroke:#bcbd22;" x="391.310924" xlink:href="#md98cc50030" y="320.914843"/>
     <use style="fill:#ffffff;stroke:#bcbd22;" x="420.919088" xlink:href="#md98cc50030" y="305.02274"/>
     <use style="fill:#ffffff;stroke:#bcbd22;" x="450.527251" xlink:href="#md98cc50030" y="286.912168"/>
     <use style="fill:#ffffff;stroke:#bcbd22;" x="480.135414" xlink:href="#md98cc50030" y="271.322225"/>
     <use style="fill:#ffffff;stroke:#bcbd22;" x="509.743577" xlink:href="#md98cc50030" y="253.113084"/>
     <use style="fill:#ffffff;stroke:#bcbd22;" x="539.351741" xlink:href="#md98cc50030" y="237.89363"/>
     <use style="fill:#ffffff;stroke:#bcbd22;" x="568.959904" xlink:href="#md98cc50030" y="214.927875"/>
     <use style="fill:#ffffff;stroke:#bcbd22;" x="598.568067" xlink:href="#md98cc50030" y="200.339655"/>
     <use style="fill:#ffffff;stroke:#bcbd22;" x="628.17623" xlink:href="#md98cc50030" y="193.576073"/>
     <use style="fill:#ffffff;stroke:#bcbd22;" x="657.784394" xlink:href="#md98cc50030" y="188.050579"/>
    </g>
   </g>
   <g id="line2d_34">
    <path clip-path="url(#p20ea8d4b32)" d="M 117 512.64 
L 144.140816 493.265541 
L 173.74898 466.148749 
L 203.357143 452.943538 
L 232.965306 443.144646 
L 262.573469 429.787193 
L 292.181633 409.792365 
L 321.789796 395.762691 
L 351.397959 379.2308 
L 381.006122 370.822084 
L 410.614286 364.686194 
L 440.222449 355.73903 
L 469.830612 346.13484 
L 499.438776 335.041194 
L 529.046939 331.441129 
L 558.655102 321.776895 
L 588.263265 317.493136 
L 617.871429 314.11297 
L 647.479592 309.118175 
L 677.087755 301.78876 
" style="fill:none;stroke:#17becf;stroke-linecap:square;stroke-width:1.5;"/>
    <g clip-path="url(#p20ea8d4b32)">
     <use style="fill:#ffffff;stroke:#17becf;" x="117" xlink:href="#m96bc9b78ff" y="512.64"/>
     <use style="fill:#ffffff;stroke:#17becf;" x="144.140816" xlink:href="#m96bc9b78ff" y="493.265541"/>
     <use style="fill:#ffffff;stroke:#17becf;" x="173.74898" xlink:href="#m96bc9b78ff" y="466.148749"/>
     <use style="fill:#ffffff;stroke:#17becf;" x="203.357143" xlink:href="#m96bc9b78ff" y="452.943538"/>
     <use style="fill:#ffffff;stroke:#17becf;" x="232.965306" xlink:href="#m96bc9b78ff" y="443.144646"/>
     <use style="fill:#ffffff;stroke:#17becf;" x="262.573469" xlink:href="#m96bc9b78ff" y="429.787193"/>
     <use style="fill:#ffffff;stroke:#17becf;" x="292.181633" xlink:href="#m96bc9b78ff" y="409.792365"/>
     <use style="fill:#ffffff;stroke:#17becf;" x="321.789796" xlink:href="#m96bc9b78ff" y="395.762691"/>
     <use style="fill:#ffffff;stroke:#17becf;" x="351.397959" xlink:href="#m96bc9b78ff" y="379.2308"/>
     <use style="fill:#ffffff;stroke:#17becf;" x="381.006122" xlink:href="#m96bc9b78ff" y="370.822084"/>
     <use style="fill:#ffffff;stroke:#17becf;" x="410.614286" xlink:href="#m96bc9b78ff" y="364.686194"/>
     <use style="fill:#ffffff;stroke:#17becf;" x="440.222449" xlink:href="#m96bc9b78ff" y="355.73903"/>
     <use style="fill:#ffffff;stroke:#17becf;" x="469.830612" xlink:href="#m96bc9b78ff" y="346.13484"/>
     <use style="fill:#ffffff;stroke:#17becf;" x="499.438776" xlink:href="#m96bc9b78ff" y="335.041194"/>
     <use style="fill:#ffffff;stroke:#17becf;" x="529.046939" xlink:href="#m96bc9b78ff" y="331.441129"/>
     <use style="fill:#ffffff;stroke:#17becf;" x="558.655102" xlink:href="#m96bc9b78ff" y="321.776895"/>
     <use style="fill:#ffffff;stroke:#17becf;" x="588.263265" xlink:href="#m96bc9b78ff" y="317.493136"/>
     <use style="fill:#ffffff;stroke:#17becf;" x="617.871429" xlink:href="#m96bc9b78ff" y="314.11297"/>
     <use style="fill:#ffffff;stroke:#17becf;" x="647.479592" xlink:href="#m96bc9b78ff" y="309.118175"/>
     <use style="fill:#ffffff;stroke:#17becf;" x="677.087755" xlink:href="#m96bc9b78ff" y="301.78876"/>
    </g>
   </g>
   <g id="patch_3">
    <path d="M 117 512.64 
L 117 69.12 
" style="fill:none;stroke:#666666;stroke-linecap:square;stroke-linejoin:miter;stroke-width:0.8;"/>
   </g>
   <g id="patch_4">
    <path d="M 117 512.64 
L 842.4 512.64 
" style="fill:none;stroke:#666666;stroke-linecap:square;stroke-linejoin:miter;stroke-width:0.8;"/>
   </g>
   <g id="text_7">
    <g id="patch_5">
     <path d="M 404.615006 351.608261 
C 406.115006 353.108261 418.527506 353.108261 420.027506 351.608261 
C 421.527506 350.108261 421.527506 340.430136 420.027506 338.930136 
C 418.527506 337.430136 406.115006 337.430136 404.615006 338.930136 
C 403.115006 340.430136 403.115006 350.108261 404.615006 351.608261 
z
" style="fill:#ffffff;stroke:#1f77b4;stroke-linejoin:miter;"/>
    </g>
    <!-- AL -->
    <defs>
     <path d="M 34.1875 63.1875 
L 20.796875 26.90625 
L 47.609375 26.90625 
z
M 28.609375 72.90625 
L 39.796875 72.90625 
L 67.578125 0 
L 57.328125 0 
L 50.6875 18.703125 
L 17.828125 18.703125 
L 11.1875 0 
L 0.78125 0 
z
" id="DejaVuSans-65"/>
     <path d="M 9.8125 72.90625 
L 19.671875 72.90625 
L 19.671875 8.296875 
L 55.171875 8.296875 
L 55.171875 0 
L 9.8125 0 
z
" id="DejaVuSans-76"/>
    </defs>
    <g style="fill:#1f77b4;" transform="translate(406.115006 348.028574)scale(0.1 -0.1)">
     <use xlink:href="#DejaVuSans-65"/>
     <use x="68.408203" xlink:href="#DejaVuSans-76"/>
    </g>
   </g>
   <g id="text_8">
    <g id="patch_6">
     <path d="M 581.155659 310.233448 
C 582.655659 311.733448 596.346284 311.733448 597.846284 310.233448 
C 599.346284 308.733448 599.346284 299.055323 597.846284 297.555323 
C 596.346284 296.055323 582.655659 296.055323 581.155659 297.555323 
C 579.655659 299.055323 579.655659 308.733448 581.155659 310.233448 
z
" style="fill:#ffffff;stroke:#ff7f0e;stroke-linejoin:miter;"/>
    </g>
    <!-- AZ -->
    <defs>
     <path d="M 5.609375 72.90625 
L 62.890625 72.90625 
L 62.890625 65.375 
L 16.796875 8.296875 
L 64.015625 8.296875 
L 64.015625 0 
L 4.5 0 
L 4.5 7.515625 
L 50.59375 64.59375 
L 5.609375 64.59375 
z
" id="DejaVuSans-90"/>
    </defs>
    <g style="fill:#ff7f0e;" transform="translate(582.655659 306.65376)scale(0.1 -0.1)">
     <use xlink:href="#DejaVuSans-65"/>
     <use x="68.408203" xlink:href="#DejaVuSans-90"/>
    </g>
   </g>
   <g id="text_9">
    <g id="patch_7">
     <path d="M 339.206122 395.951013 
C 340.706122 397.451013 355.388935 397.451013 356.888935 395.951013 
C 358.388935 394.451013 358.388935 384.772888 356.888935 383.272888 
C 355.388935 381.772888 340.706122 381.772888 339.206122 383.272888 
C 337.706122 384.772888 337.706122 394.451013 339.206122 395.951013 
z
" style="fill:#ffffff;stroke:#2ca02c;stroke-linejoin:miter;"/>
    </g>
    <!-- DC -->
    <defs>
     <path d="M 64.40625 67.28125 
L 64.40625 56.890625 
Q 59.421875 61.53125 53.78125 63.8125 
Q 48.140625 66.109375 41.796875 66.109375 
Q 29.296875 66.109375 22.65625 58.46875 
Q 16.015625 50.828125 16.015625 36.375 
Q 16.015625 21.96875 22.65625 14.328125 
Q 29.296875 6.6875 41.796875 6.6875 
Q 48.140625 6.6875 53.78125 8.984375 
Q 59.421875 11.28125 64.40625 15.921875 
L 64.40625 5.609375 
Q 59.234375 2.09375 53.4375 0.328125 
Q 47.65625 -1.421875 41.21875 -1.421875 
Q 24.65625 -1.421875 15.125 8.703125 
Q 5.609375 18.84375 5.609375 36.375 
Q 5.609375 53.953125 15.125 64.078125 
Q 24.65625 74.21875 41.21875 74.21875 
Q 47.75 74.21875 53.53125 72.484375 
Q 59.328125 70.75 64.40625 67.28125 
z
" id="DejaVuSans-67"/>
    </defs>
    <g style="fill:#2ca02c;" transform="translate(340.706122 392.371325)scale(0.1 -0.1)">
     <use xlink:href="#DejaVuSans-68"/>
     <use x="77.001953" xlink:href="#DejaVuSans-67"/>
    </g>
   </g>
   <g id="text_10">
    <g id="patch_8">
     <path d="M 204.32449 474.295308 
C 205.82449 475.795308 219.84324 475.795308 221.34324 474.295308 
C 222.84324 472.795308 222.84324 463.117183 221.34324 461.617183 
C 219.84324 460.117183 205.82449 460.117183 204.32449 461.617183 
C 202.82449 463.117183 202.82449 472.795308 204.32449 474.295308 
z
" style="fill:#ffffff;stroke:#d62728;stroke-linejoin:miter;"/>
    </g>
    <!-- DE -->
    <defs>
     <path d="M 9.8125 72.90625 
L 55.90625 72.90625 
L 55.90625 64.59375 
L 19.671875 64.59375 
L 19.671875 43.015625 
L 54.390625 43.015625 
L 54.390625 34.71875 
L 19.671875 34.71875 
L 19.671875 8.296875 
L 56.78125 8.296875 
L 56.78125 0 
L 9.8125 0 
z
" id="DejaVuSans-69"/>
    </defs>
    <g style="fill:#d62728;" transform="translate(205.82449 470.71562)scale(0.1 -0.1)">
     <use xlink:href="#DejaVuSans-68"/>
     <use x="77.001953" xlink:href="#DejaVuSans-69"/>
    </g>
   </g>
   <g id="text_11">
    <g id="patch_9">
     <path d="M 223.166048 471.241122 
C 224.666048 472.741122 234.456673 472.741122 235.956673 471.241122 
C 237.456673 469.741122 237.456673 460.062997 235.956673 458.562997 
C 234.456673 457.062997 224.666048 457.062997 223.166048 458.562997 
C 221.666048 460.062997 221.666048 469.741122 223.166048 471.241122 
z
" style="fill:#ffffff;stroke:#9467bd;stroke-linejoin:miter;"/>
    </g>
    <!-- IA -->
    <defs>
     <path d="M 9.8125 72.90625 
L 19.671875 72.90625 
L 19.671875 0 
L 9.8125 0 
z
" id="DejaVuSans-73"/>
    </defs>
    <g style="fill:#9467bd;" transform="translate(224.666048 467.661435)scale(0.1 -0.1)">
     <use xlink:href="#DejaVuSans-73"/>
     <use x="29.492188" xlink:href="#DejaVuSans-65"/>
    </g>
   </g>
   <g id="text_12">
    <g id="patch_10">
     <path d="M 322.757143 482.105466 
C 324.257143 483.605466 337.163393 483.605466 338.663393 482.105466 
C 340.163393 480.605466 340.163393 470.927341 338.663393 469.427341 
C 337.163393 467.927341 324.257143 467.927341 322.757143 469.427341 
C 321.257143 470.927341 321.257143 480.605466 322.757143 482.105466 
z
" style="fill:#ffffff;stroke:#8c564b;stroke-linejoin:miter;"/>
    </g>
    <!-- KS -->
    <defs>
     <path d="M 9.8125 72.90625 
L 19.671875 72.90625 
L 19.671875 42.09375 
L 52.390625 72.90625 
L 65.09375 72.90625 
L 28.90625 38.921875 
L 67.671875 0 
L 54.6875 0 
L 19.671875 35.109375 
L 19.671875 0 
L 9.8125 0 
z
" id="DejaVuSans-75"/>
     <path d="M 53.515625 70.515625 
L 53.515625 60.890625 
Q 47.90625 63.578125 42.921875 64.890625 
Q 37.9375 66.21875 33.296875 66.21875 
Q 25.25 66.21875 20.875 63.09375 
Q 16.5 59.96875 16.5 54.203125 
Q 16.5 49.359375 19.40625 46.890625 
Q 22.3125 44.4375 30.421875 42.921875 
L 36.375 41.703125 
Q 47.40625 39.59375 52.65625 34.296875 
Q 57.90625 29 57.90625 20.125 
Q 57.90625 9.515625 50.796875 4.046875 
Q 43.703125 -1.421875 29.984375 -1.421875 
Q 24.8125 -1.421875 18.96875 -0.25 
Q 13.140625 0.921875 6.890625 3.21875 
L 6.890625 13.375 
Q 12.890625 10.015625 18.65625 8.296875 
Q 24.421875 6.59375 29.984375 6.59375 
Q 38.421875 6.59375 43.015625 9.90625 
Q 47.609375 13.234375 47.609375 19.390625 
Q 47.609375 24.75 44.3125 27.78125 
Q 41.015625 30.8125 33.5 32.328125 
L 27.484375 33.5 
Q 16.453125 35.6875 11.515625 40.375 
Q 6.59375 45.0625 6.59375 53.421875 
Q 6.59375 63.09375 13.40625 68.65625 
Q 20.21875 74.21875 32.171875 74.21875 
Q 37.3125 74.21875 42.625 73.28125 
Q 47.953125 72.359375 53.515625 70.515625 
z
" id="DejaVuSans-83"/>
    </defs>
    <g style="fill:#8c564b;" transform="translate(324.257143 478.525778)scale(0.1 -0.1)">
     <use xlink:href="#DejaVuSans-75"/>
     <use x="65.576172" xlink:href="#DejaVuSans-83"/>
    </g>
   </g>
   <g id="text_13">
    <g id="patch_11">
     <path d="M 541.857551 366.251606 
C 543.357551 367.751606 555.660676 367.751606 557.160676 366.251606 
C 558.660676 364.751606 558.660676 355.073481 557.160676 353.573481 
C 555.660676 352.073481 543.357551 352.073481 541.857551 353.573481 
C 540.357551 355.073481 540.357551 364.751606 541.857551 366.251606 
z
" style="fill:#ffffff;stroke:#e377c2;stroke-linejoin:miter;"/>
    </g>
    <!-- KY -->
    <defs>
     <path d="M -0.203125 72.90625 
L 10.40625 72.90625 
L 30.609375 42.921875 
L 50.6875 72.90625 
L 61.28125 72.90625 
L 35.5 34.71875 
L 35.5 0 
L 25.59375 0 
L 25.59375 34.71875 
z
" id="DejaVuSans-89"/>
    </defs>
    <g style="fill:#e377c2;" transform="translate(543.357551 362.671919)scale(0.1 -0.1)">
     <use xlink:href="#DejaVuSans-75"/>
     <use x="61.951172" xlink:href="#DejaVuSans-89"/>
    </g>
   </g>
   <g id="text_14">
    <g id="patch_12">
     <path d="M 430.739856 301.377363 
C 432.239856 302.877363 448.349231 302.877363 449.849231 301.377363 
C 451.349231 299.877363 451.349231 290.199238 449.849231 288.699238 
C 448.349231 287.199238 432.239856 287.199238 430.739856 288.699238 
C 429.239856 290.199238 429.239856 299.877363 430.739856 301.377363 
z
" style="fill:#ffffff;stroke:#7f7f7f;stroke-linejoin:miter;"/>
    </g>
    <!-- MN -->
    <defs>
     <path d="M 9.8125 72.90625 
L 24.515625 72.90625 
L 43.109375 23.296875 
L 61.8125 72.90625 
L 76.515625 72.90625 
L 76.515625 0 
L 66.890625 0 
L 66.890625 64.015625 
L 48.09375 14.015625 
L 38.1875 14.015625 
L 19.390625 64.015625 
L 19.390625 0 
L 9.8125 0 
z
" id="DejaVuSans-77"/>
     <path d="M 9.8125 72.90625 
L 23.09375 72.90625 
L 55.421875 11.921875 
L 55.421875 72.90625 
L 64.984375 72.90625 
L 64.984375 0 
L 51.703125 0 
L 19.390625 60.984375 
L 19.390625 0 
L 9.8125 0 
z
" id="DejaVuSans-78"/>
    </defs>
    <g style="fill:#7f7f7f;" transform="translate(432.239856 297.797676)scale(0.1 -0.1)">
     <use xlink:href="#DejaVuSans-77"/>
     <use x="86.279297" xlink:href="#DejaVuSans-78"/>
    </g>
   </g>
   <g id="text_15">
    <g id="patch_13">
     <path d="M 609.728571 299.796548 
C 611.228571 301.296548 627.728571 301.296548 629.228571 299.796548 
C 630.728571 298.296548 630.728571 288.618423 629.228571 287.118423 
C 627.728571 285.618423 611.228571 285.618423 609.728571 287.118423 
C 608.228571 288.618423 608.228571 298.296548 609.728571 299.796548 
z
" style="fill:#ffffff;stroke:#bcbd22;stroke-linejoin:miter;"/>
    </g>
    <!-- MO -->
    <defs>
     <path d="M 39.40625 66.21875 
Q 28.65625 66.21875 22.328125 58.203125 
Q 16.015625 50.203125 16.015625 36.375 
Q 16.015625 22.609375 22.328125 14.59375 
Q 28.65625 6.59375 39.40625 6.59375 
Q 50.140625 6.59375 56.421875 14.59375 
Q 62.703125 22.609375 62.703125 36.375 
Q 62.703125 50.203125 56.421875 58.203125 
Q 50.140625 66.21875 39.40625 66.21875 
z
M 39.40625 74.21875 
Q 54.734375 74.21875 63.90625 63.9375 
Q 73.09375 53.65625 73.09375 36.375 
Q 73.09375 19.140625 63.90625 8.859375 
Q 54.734375 -1.421875 39.40625 -1.421875 
Q 24.03125 -1.421875 14.8125 8.828125 
Q 5.609375 19.09375 5.609375 36.375 
Q 5.609375 53.65625 14.8125 63.9375 
Q 24.03125 74.21875 39.40625 74.21875 
z
" id="DejaVuSans-79"/>
    </defs>
    <g style="fill:#bcbd22;" transform="translate(611.228571 296.216861)scale(0.1 -0.1)">
     <use xlink:href="#DejaVuSans-77"/>
     <use x="86.279297" xlink:href="#DejaVuSans-79"/>
    </g>
   </g>
   <g id="text_16">
    <g id="patch_14">
     <path d="M 525.459184 350.659741 
C 526.959184 352.159741 541.935746 352.159741 543.435746 350.659741 
C 544.935746 349.159741 544.935746 339.481616 543.435746 337.981616 
C 541.935746 336.481616 526.959184 336.481616 525.459184 337.981616 
C 523.959184 339.481616 523.959184 349.159741 525.459184 350.659741 
z
" style="fill:#ffffff;stroke:#17becf;stroke-linejoin:miter;"/>
    </g>
    <!-- MS -->
    <g style="fill:#17becf;" transform="translate(526.959184 347.080053)scale(0.1 -0.1)">
     <use xlink:href="#DejaVuSans-77"/>
     <use x="86.279297" xlink:href="#DejaVuSans-83"/>
    </g>
   </g>
   <g id="text_17">
    <g id="patch_15">
     <path d="M 511.172727 285.950739 
C 512.672727 287.450739 527.13679 287.450739 528.63679 285.950739 
C 530.13679 284.450739 530.13679 274.772614 528.63679 273.272614 
C 527.13679 271.772614 512.672727 271.772614 511.172727 273.272614 
C 509.672727 274.772614 509.672727 284.450739 511.172727 285.950739 
z
" style="fill:#ffffff;stroke:#1f77b4;stroke-linejoin:miter;"/>
    </g>
    <!-- NC -->
    <g style="fill:#1f77b4;" transform="translate(512.672727 282.371051)scale(0.1 -0.1)">
     <use xlink:href="#DejaVuSans-78"/>
     <use x="74.804688" xlink:href="#DejaVuSans-67"/>
    </g>
   </g>
   <g id="text_18">
    <g id="patch_16">
     <path d="M 139.186531 508.985743 
C 140.686531 510.485743 156.795906 510.485743 158.295906 508.985743 
C 159.795906 507.485743 159.795906 497.807618 158.295906 496.307618 
C 156.795906 494.807618 140.686531 494.807618 139.186531 496.307618 
C 137.686531 497.807618 137.686531 507.485743 139.186531 508.985743 
z
" style="fill:#ffffff;stroke:#ff7f0e;stroke-linejoin:miter;"/>
    </g>
    <!-- NM -->
    <g style="fill:#ff7f0e;" transform="translate(140.686531 505.406055)scale(0.1 -0.1)">
     <use xlink:href="#DejaVuSans-78"/>
     <use x="74.804688" xlink:href="#DejaVuSans-77"/>
    </g>
   </g>
   <g id="text_19">
    <g id="patch_17">
     <path d="M 599.997217 360.298226 
C 601.497217 361.798226 615.819092 361.798226 617.319092 360.298226 
C 618.819092 358.798226 618.819092 349.120101 617.319092 347.620101 
C 615.819092 346.120101 601.497217 346.120101 599.997217 347.620101 
C 598.497217 349.120101 598.497217 358.798226 599.997217 360.298226 
z
" style="fill:#ffffff;stroke:#2ca02c;stroke-linejoin:miter;"/>
    </g>
    <!-- NV -->
    <defs>
     <path d="M 28.609375 0 
L 0.78125 72.90625 
L 11.078125 72.90625 
L 34.1875 11.53125 
L 57.328125 72.90625 
L 67.578125 72.90625 
L 39.796875 0 
z
" id="DejaVuSans-86"/>
    </defs>
    <g style="fill:#2ca02c;" transform="translate(601.497217 356.718539)scale(0.1 -0.1)">
     <use xlink:href="#DejaVuSans-78"/>
     <use x="74.804688" xlink:href="#DejaVuSans-86"/>
    </g>
   </g>
   <g id="text_20">
    <g id="patch_18">
     <path d="M 526.72449 382.810488 
C 528.22449 384.310488 542.654177 384.310488 544.154177 382.810488 
C 545.654177 381.310488 545.654177 371.632363 544.154177 370.132363 
C 542.654177 368.632363 528.22449 368.632363 526.72449 370.132363 
C 525.22449 371.632363 525.22449 381.310488 526.72449 382.810488 
z
" style="fill:#ffffff;stroke:#d62728;stroke-linejoin:miter;"/>
    </g>
    <!-- OK -->
    <g style="fill:#d62728;" transform="translate(528.22449 379.2308)scale(0.1 -0.1)">
     <use xlink:href="#DejaVuSans-79"/>
     <use x="78.710938" xlink:href="#DejaVuSans-75"/>
    </g>
   </g>
   <g id="text_21">
    <g id="patch_19">
     <path d="M 449.414286 346.898479 
C 450.914286 348.398479 460.812723 348.398479 462.312723 346.898479 
C 463.812723 345.398479 463.812723 335.720354 462.312723 334.220354 
C 460.812723 332.720354 450.914286 332.720354 449.414286 334.220354 
C 447.914286 335.720354 447.914286 345.398479 449.414286 346.898479 
z
" style="fill:#ffffff;stroke:#9467bd;stroke-linejoin:miter;"/>
    </g>
    <!-- RI -->
    <defs>
     <path d="M 44.390625 34.1875 
Q 47.5625 33.109375 50.5625 29.59375 
Q 53.5625 26.078125 56.59375 19.921875 
L 66.609375 0 
L 56 0 
L 46.6875 18.703125 
Q 43.0625 26.03125 39.671875 28.421875 
Q 36.28125 30.8125 30.421875 30.8125 
L 19.671875 30.8125 
L 19.671875 0 
L 9.8125 0 
L 9.8125 72.90625 
L 32.078125 72.90625 
Q 44.578125 72.90625 50.734375 67.671875 
Q 56.890625 62.453125 56.890625 51.90625 
Q 56.890625 45.015625 53.6875 40.46875 
Q 50.484375 35.9375 44.390625 34.1875 
z
M 19.671875 64.796875 
L 19.671875 38.921875 
L 32.078125 38.921875 
Q 39.203125 38.921875 42.84375 42.21875 
Q 46.484375 45.515625 46.484375 51.90625 
Q 46.484375 58.296875 42.84375 61.546875 
Q 39.203125 64.796875 32.078125 64.796875 
z
" id="DejaVuSans-82"/>
    </defs>
    <g style="fill:#9467bd;" transform="translate(450.914286 343.318792)scale(0.1 -0.1)">
     <use xlink:href="#DejaVuSans-82"/>
     <use x="69.482422" xlink:href="#DejaVuSans-73"/>
    </g>
   </g>
   <g id="text_22">
    <g id="patch_20">
     <path d="M 491.523673 405.095372 
C 493.023673 406.595372 506.354923 406.595372 507.854923 405.095372 
C 509.354923 403.595372 509.354923 393.917247 507.854923 392.417247 
C 506.354923 390.917247 493.023673 390.917247 491.523673 392.417247 
C 490.023673 393.917247 490.023673 403.595372 491.523673 405.095372 
z
" style="fill:#ffffff;stroke:#8c564b;stroke-linejoin:miter;"/>
    </g>
    <!-- SC -->
    <g style="fill:#8c564b;" transform="translate(493.023673 401.515685)scale(0.1 -0.1)">
     <use xlink:href="#DejaVuSans-83"/>
     <use x="63.476562" xlink:href="#DejaVuSans-67"/>
    </g>
   </g>
   <g id="text_23">
    <g id="patch_21">
     <path d="M 599.1 397.076547 
C 600.6 398.576547 614.189062 398.576547 615.689062 397.076547 
C 617.189062 395.576547 617.189062 385.898422 615.689062 384.398422 
C 614.189062 382.898422 600.6 382.898422 599.1 384.398422 
C 597.6 385.898422 597.6 395.576547 599.1 397.076547 
z
" style="fill:#ffffff;stroke:#e377c2;stroke-linejoin:miter;"/>
    </g>
    <!-- TN -->
    <defs>
     <path d="M -0.296875 72.90625 
L 61.375 72.90625 
L 61.375 64.59375 
L 35.5 64.59375 
L 35.5 0 
L 25.59375 0 
L 25.59375 64.59375 
L -0.296875 64.59375 
z
" id="DejaVuSans-84"/>
    </defs>
    <g style="fill:#e377c2;" transform="translate(600.6 393.49686)scale(0.1 -0.1)">
     <use xlink:href="#DejaVuSans-84"/>
     <use x="61.083984" xlink:href="#DejaVuSans-78"/>
    </g>
   </g>
   <g id="text_24">
    <g id="patch_22">
     <path d="M 806.357143 93.819687 
C 807.857143 95.319687 820.814955 95.319687 822.314955 93.819687 
C 823.814955 92.319687 823.814955 82.641562 822.314955 81.141562 
C 820.814955 79.641562 807.857143 79.641562 806.357143 81.141562 
C 804.857143 82.641562 804.857143 92.319687 806.357143 93.819687 
z
" style="fill:#ffffff;stroke:#7f7f7f;stroke-linejoin:miter;"/>
    </g>
    <!-- TX -->
    <defs>
     <path d="M 6.296875 72.90625 
L 16.890625 72.90625 
L 35.015625 45.796875 
L 53.21875 72.90625 
L 63.8125 72.90625 
L 40.375 37.890625 
L 65.375 0 
L 54.78125 0 
L 34.28125 31 
L 13.625 0 
L 2.984375 0 
L 29 38.921875 
z
" id="DejaVuSans-88"/>
    </defs>
    <g style="fill:#7f7f7f;" transform="translate(807.857143 90.24)scale(0.1 -0.1)">
     <use xlink:href="#DejaVuSans-84"/>
     <use x="61.083984" xlink:href="#DejaVuSans-88"/>
    </g>
   </g>
   <g id="text_25">
    <g id="patch_23">
     <path d="M 656.284394 191.630266 
C 657.784394 193.130266 670.828144 193.130266 672.328144 191.630266 
C 673.828144 190.130266 673.828144 180.452141 672.328144 178.952141 
C 670.828144 177.452141 657.784394 177.452141 656.284394 178.952141 
C 654.784394 180.452141 654.784394 190.130266 656.284394 191.630266 
z
" style="fill:#ffffff;stroke:#bcbd22;stroke-linejoin:miter;"/>
    </g>
    <!-- VA -->
    <g style="fill:#bcbd22;" transform="translate(657.784394 188.050579)scale(0.1 -0.1)">
     <use xlink:href="#DejaVuSans-86"/>
     <use x="62.033203" xlink:href="#DejaVuSans-65"/>
    </g>
   </g>
   <g id="text_26">
    <g id="patch_24">
     <path d="M 675.587755 305.368448 
C 677.087755 306.868448 689.925255 306.868448 691.425255 305.368448 
C 692.925255 303.868448 692.925255 294.190323 691.425255 292.690323 
C 689.925255 291.190323 677.087755 291.190323 675.587755 292.690323 
C 674.087755 294.190323 674.087755 303.868448 675.587755 305.368448 
z
" style="fill:#ffffff;stroke:#17becf;stroke-linejoin:miter;"/>
    </g>
    <!-- WI -->
    <defs>
     <path d="M 3.328125 72.90625 
L 13.28125 72.90625 
L 28.609375 11.28125 
L 43.890625 72.90625 
L 54.984375 72.90625 
L 70.3125 11.28125 
L 85.59375 72.90625 
L 95.609375 72.90625 
L 77.296875 0 
L 64.890625 0 
L 49.515625 63.28125 
L 33.984375 0 
L 21.578125 0 
z
" id="DejaVuSans-87"/>
    </defs>
    <g style="fill:#17becf;" transform="translate(677.087755 301.78876)scale(0.1 -0.1)">
     <use xlink:href="#DejaVuSans-87"/>
     <use x="98.876953" xlink:href="#DejaVuSans-73"/>
    </g>
   </g>
   <g id="text_27">
    <!-- 1d -->
    <g style="fill:#b2b2b2;" transform="translate(174.902857 91.977472)scale(0.1 -0.1)">
     <use xlink:href="#DejaVuSans-49"/>
     <use x="63.623047" xlink:href="#DejaVuSans-100"/>
    </g>
   </g>
   <g id="text_28">
    <!-- 2d -->
    <g style="fill:#b2b2b2;" transform="translate(257.805714 91.977472)scale(0.1 -0.1)">
     <use xlink:href="#DejaVuSans-50"/>
     <use x="63.623047" xlink:href="#DejaVuSans-100"/>
    </g>
   </g>
   <g id="text_29">
    <!-- 3d -->
    <defs>
     <path d="M 40.578125 39.3125 
Q 47.65625 37.796875 51.625 33 
Q 55.609375 28.21875 55.609375 21.1875 
Q 55.609375 10.40625 48.1875 4.484375 
Q 40.765625 -1.421875 27.09375 -1.421875 
Q 22.515625 -1.421875 17.65625 -0.515625 
Q 12.796875 0.390625 7.625 2.203125 
L 7.625 11.71875 
Q 11.71875 9.328125 16.59375 8.109375 
Q 21.484375 6.890625 26.8125 6.890625 
Q 36.078125 6.890625 40.9375 10.546875 
Q 45.796875 14.203125 45.796875 21.1875 
Q 45.796875 27.640625 41.28125 31.265625 
Q 36.765625 34.90625 28.71875 34.90625 
L 20.21875 34.90625 
L 20.21875 43.015625 
L 29.109375 43.015625 
Q 36.375 43.015625 40.234375 45.921875 
Q 44.09375 48.828125 44.09375 54.296875 
Q 44.09375 59.90625 40.109375 62.90625 
Q 36.140625 65.921875 28.71875 65.921875 
Q 24.65625 65.921875 20.015625 65.03125 
Q 15.375 64.15625 9.8125 62.3125 
L 9.8125 71.09375 
Q 15.4375 72.65625 20.34375 73.4375 
Q 25.25 74.21875 29.59375 74.21875 
Q 40.828125 74.21875 47.359375 69.109375 
Q 53.90625 64.015625 53.90625 55.328125 
Q 53.90625 49.265625 50.4375 45.09375 
Q 46.96875 40.921875 40.578125 39.3125 
z
" id="DejaVuSans-51"/>
    </defs>
    <g style="fill:#b2b2b2;" transform="translate(343.669388 85.70498)scale(0.1 -0.1)">
     <use xlink:href="#DejaVuSans-51"/>
     <use x="63.623047" xlink:href="#DejaVuSans-100"/>
    </g>
   </g>
   <g id="text_30">
    <!-- 7d -->
    <g style="fill:#b2b2b2;" transform="translate(678.241633 86.602826)scale(0.1 -0.1)">
     <use xlink:href="#DejaVuSans-55"/>
     <use x="63.623047" xlink:href="#DejaVuSans-100"/>
    </g>
   </g>
   <g id="text_31">
    <!-- COVID-19 Deaths by States as of 2020-04-28 03:05 EDT -->
    <defs>
     <path d="M 4.890625 31.390625 
L 31.203125 31.390625 
L 31.203125 23.390625 
L 4.890625 23.390625 
z
" id="DejaVuSans-45"/>
     <path d="M 10.984375 1.515625 
L 10.984375 10.5 
Q 14.703125 8.734375 18.5 7.8125 
Q 22.3125 6.890625 25.984375 6.890625 
Q 35.75 6.890625 40.890625 13.453125 
Q 46.046875 20.015625 46.78125 33.40625 
Q 43.953125 29.203125 39.59375 26.953125 
Q 35.25 24.703125 29.984375 24.703125 
Q 19.046875 24.703125 12.671875 31.3125 
Q 6.296875 37.9375 6.296875 49.421875 
Q 6.296875 60.640625 12.9375 67.421875 
Q 19.578125 74.21875 30.609375 74.21875 
Q 43.265625 74.21875 49.921875 64.515625 
Q 56.59375 54.828125 56.59375 36.375 
Q 56.59375 19.140625 48.40625 8.859375 
Q 40.234375 -1.421875 26.421875 -1.421875 
Q 22.703125 -1.421875 18.890625 -0.6875 
Q 15.09375 0.046875 10.984375 1.515625 
z
M 30.609375 32.421875 
Q 37.25 32.421875 41.125 36.953125 
Q 45.015625 41.5 45.015625 49.421875 
Q 45.015625 57.28125 41.125 61.84375 
Q 37.25 66.40625 30.609375 66.40625 
Q 23.96875 66.40625 20.09375 61.84375 
Q 16.21875 57.28125 16.21875 49.421875 
Q 16.21875 41.5 20.09375 36.953125 
Q 23.96875 32.421875 30.609375 32.421875 
z
" id="DejaVuSans-57"/>
     <path d="M 48.6875 27.296875 
Q 48.6875 37.203125 44.609375 42.84375 
Q 40.53125 48.484375 33.40625 48.484375 
Q 26.265625 48.484375 22.1875 42.84375 
Q 18.109375 37.203125 18.109375 27.296875 
Q 18.109375 17.390625 22.1875 11.75 
Q 26.265625 6.109375 33.40625 6.109375 
Q 40.53125 6.109375 44.609375 11.75 
Q 48.6875 17.390625 48.6875 27.296875 
z
M 18.109375 46.390625 
Q 20.953125 51.265625 25.265625 53.625 
Q 29.59375 56 35.59375 56 
Q 45.5625 56 51.78125 48.09375 
Q 58.015625 40.1875 58.015625 27.296875 
Q 58.015625 14.40625 51.78125 6.484375 
Q 45.5625 -1.421875 35.59375 -1.421875 
Q 29.59375 -1.421875 25.265625 0.953125 
Q 20.953125 3.328125 18.109375 8.203125 
L 18.109375 0 
L 9.078125 0 
L 9.078125 75.984375 
L 18.109375 75.984375 
z
" id="DejaVuSans-98"/>
     <path d="M 30.609375 48.390625 
Q 23.390625 48.390625 19.1875 42.75 
Q 14.984375 37.109375 14.984375 27.296875 
Q 14.984375 17.484375 19.15625 11.84375 
Q 23.34375 6.203125 30.609375 6.203125 
Q 37.796875 6.203125 41.984375 11.859375 
Q 46.1875 17.53125 46.1875 27.296875 
Q 46.1875 37.015625 41.984375 42.703125 
Q 37.796875 48.390625 30.609375 48.390625 
z
M 30.609375 56 
Q 42.328125 56 49.015625 48.375 
Q 55.71875 40.765625 55.71875 27.296875 
Q 55.71875 13.875 49.015625 6.21875 
Q 42.328125 -1.421875 30.609375 -1.421875 
Q 18.84375 -1.421875 12.171875 6.21875 
Q 5.515625 13.875 5.515625 27.296875 
Q 5.515625 40.765625 12.171875 48.375 
Q 18.84375 56 30.609375 56 
z
" id="DejaVuSans-111"/>
     <path d="M 37.109375 75.984375 
L 37.109375 68.5 
L 28.515625 68.5 
Q 23.6875 68.5 21.796875 66.546875 
Q 19.921875 64.59375 19.921875 59.515625 
L 19.921875 54.6875 
L 34.71875 54.6875 
L 34.71875 47.703125 
L 19.921875 47.703125 
L 19.921875 0 
L 10.890625 0 
L 10.890625 47.703125 
L 2.296875 47.703125 
L 2.296875 54.6875 
L 10.890625 54.6875 
L 10.890625 58.5 
Q 10.890625 67.625 15.140625 71.796875 
Q 19.390625 75.984375 28.609375 75.984375 
z
" id="DejaVuSans-102"/>
     <path d="M 31.78125 34.625 
Q 24.75 34.625 20.71875 30.859375 
Q 16.703125 27.09375 16.703125 20.515625 
Q 16.703125 13.921875 20.71875 10.15625 
Q 24.75 6.390625 31.78125 6.390625 
Q 38.8125 6.390625 42.859375 10.171875 
Q 46.921875 13.96875 46.921875 20.515625 
Q 46.921875 27.09375 42.890625 30.859375 
Q 38.875 34.625 31.78125 34.625 
z
M 21.921875 38.8125 
Q 15.578125 40.375 12.03125 44.71875 
Q 8.5 49.078125 8.5 55.328125 
Q 8.5 64.0625 14.71875 69.140625 
Q 20.953125 74.21875 31.78125 74.21875 
Q 42.671875 74.21875 48.875 69.140625 
Q 55.078125 64.0625 55.078125 55.328125 
Q 55.078125 49.078125 51.53125 44.71875 
Q 48 40.375 41.703125 38.8125 
Q 48.828125 37.15625 52.796875 32.3125 
Q 56.78125 27.484375 56.78125 20.515625 
Q 56.78125 9.90625 50.3125 4.234375 
Q 43.84375 -1.421875 31.78125 -1.421875 
Q 19.734375 -1.421875 13.25 4.234375 
Q 6.78125 9.90625 6.78125 20.515625 
Q 6.78125 27.484375 10.78125 32.3125 
Q 14.796875 37.15625 21.921875 38.8125 
z
M 18.3125 54.390625 
Q 18.3125 48.734375 21.84375 45.5625 
Q 25.390625 42.390625 31.78125 42.390625 
Q 38.140625 42.390625 41.71875 45.5625 
Q 45.3125 48.734375 45.3125 54.390625 
Q 45.3125 60.0625 41.71875 63.234375 
Q 38.140625 66.40625 31.78125 66.40625 
Q 25.390625 66.40625 21.84375 63.234375 
Q 18.3125 60.0625 18.3125 54.390625 
z
" id="DejaVuSans-56"/>
     <path d="M 11.71875 12.40625 
L 22.015625 12.40625 
L 22.015625 0 
L 11.71875 0 
z
M 11.71875 51.703125 
L 22.015625 51.703125 
L 22.015625 39.3125 
L 11.71875 39.3125 
z
" id="DejaVuSans-58"/>
     <path d="M 10.796875 72.90625 
L 49.515625 72.90625 
L 49.515625 64.59375 
L 19.828125 64.59375 
L 19.828125 46.734375 
Q 21.96875 47.46875 24.109375 47.828125 
Q 26.265625 48.1875 28.421875 48.1875 
Q 40.625 48.1875 47.75 41.5 
Q 54.890625 34.8125 54.890625 23.390625 
Q 54.890625 11.625 47.5625 5.09375 
Q 40.234375 -1.421875 26.90625 -1.421875 
Q 22.3125 -1.421875 17.546875 -0.640625 
Q 12.796875 0.140625 7.71875 1.703125 
L 7.71875 11.625 
Q 12.109375 9.234375 16.796875 8.0625 
Q 21.484375 6.890625 26.703125 6.890625 
Q 35.15625 6.890625 40.078125 11.328125 
Q 45.015625 15.765625 45.015625 23.390625 
Q 45.015625 31 40.078125 35.4375 
Q 35.15625 39.890625 26.703125 39.890625 
Q 22.75 39.890625 18.8125 39.015625 
Q 14.890625 38.140625 10.796875 36.28125 
z
" id="DejaVuSans-53"/>
    </defs>
    <g style="fill:#666666;" transform="translate(310.883438 63.12)scale(0.12 -0.12)">
     <use xlink:href="#DejaVuSans-67"/>
     <use x="69.824219" xlink:href="#DejaVuSans-79"/>
     <use x="146.785156" xlink:href="#DejaVuSans-86"/>
     <use x="215.193359" xlink:href="#DejaVuSans-73"/>
     <use x="244.685547" xlink:href="#DejaVuSans-68"/>
     <use x="321.6875" xlink:href="#DejaVuSans-45"/>
     <use x="357.771484" xlink:href="#DejaVuSans-49"/>
     <use x="421.394531" xlink:href="#DejaVuSans-57"/>
     <use x="485.017578" xlink:href="#DejaVuSans-32"/>
     <use x="516.804688" xlink:href="#DejaVuSans-68"/>
     <use x="593.806641" xlink:href="#DejaVuSans-101"/>
     <use x="655.330078" xlink:href="#DejaVuSans-97"/>
     <use x="716.609375" xlink:href="#DejaVuSans-116"/>
     <use x="755.818359" xlink:href="#DejaVuSans-104"/>
     <use x="819.197266" xlink:href="#DejaVuSans-115"/>
     <use x="871.296875" xlink:href="#DejaVuSans-32"/>
     <use x="903.083984" xlink:href="#DejaVuSans-98"/>
     <use x="966.560547" xlink:href="#DejaVuSans-121"/>
     <use x="1025.740234" xlink:href="#DejaVuSans-32"/>
     <use x="1057.527344" xlink:href="#DejaVuSans-83"/>
     <use x="1121.003906" xlink:href="#DejaVuSans-116"/>
     <use x="1160.212891" xlink:href="#DejaVuSans-97"/>
     <use x="1221.492188" xlink:href="#DejaVuSans-116"/>
     <use x="1260.701172" xlink:href="#DejaVuSans-101"/>
     <use x="1322.224609" xlink:href="#DejaVuSans-115"/>
     <use x="1374.324219" xlink:href="#DejaVuSans-32"/>
     <use x="1406.111328" xlink:href="#DejaVuSans-97"/>
     <use x="1467.390625" xlink:href="#DejaVuSans-115"/>
     <use x="1519.490234" xlink:href="#DejaVuSans-32"/>
     <use x="1551.277344" xlink:href="#DejaVuSans-111"/>
     <use x="1612.458984" xlink:href="#DejaVuSans-102"/>
     <use x="1647.664062" xlink:href="#DejaVuSans-32"/>
     <use x="1679.451172" xlink:href="#DejaVuSans-50"/>
     <use x="1743.074219" xlink:href="#DejaVuSans-48"/>
     <use x="1806.697266" xlink:href="#DejaVuSans-50"/>
     <use x="1870.320312" xlink:href="#DejaVuSans-48"/>
     <use x="1933.943359" xlink:href="#DejaVuSans-45"/>
     <use x="1970.027344" xlink:href="#DejaVuSans-48"/>
     <use x="2033.650391" xlink:href="#DejaVuSans-52"/>
     <use x="2097.273438" xlink:href="#DejaVuSans-45"/>
     <use x="2133.357422" xlink:href="#DejaVuSans-50"/>
     <use x="2196.980469" xlink:href="#DejaVuSans-56"/>
     <use x="2260.603516" xlink:href="#DejaVuSans-32"/>
     <use x="2292.390625" xlink:href="#DejaVuSans-48"/>
     <use x="2356.013672" xlink:href="#DejaVuSans-51"/>
     <use x="2419.636719" xlink:href="#DejaVuSans-58"/>
     <use x="2453.328125" xlink:href="#DejaVuSans-48"/>
     <use x="2516.951172" xlink:href="#DejaVuSans-53"/>
     <use x="2580.574219" xlink:href="#DejaVuSans-32"/>
     <use x="2612.361328" xlink:href="#DejaVuSans-69"/>
     <use x="2675.544922" xlink:href="#DejaVuSans-68"/>
     <use x="2752.546875" xlink:href="#DejaVuSans-84"/>
    </g>
   </g>
  </g>
 </g>
 <defs>
  <clipPath id="p20ea8d4b32">
   <rect height="443.52" width="725.4" x="117" y="69.12"/>
  </clipPath>
 </defs>
</svg>
