<?xml version="1.0" encoding="utf-8" standalone="no"?>
<!DOCTYPE svg PUBLIC "-//W3C//DTD SVG 1.1//EN"
  "http://www.w3.org/Graphics/SVG/1.1/DTD/svg11.dtd">
<!-- Created with matplotlib (https://matplotlib.org/) -->
<svg height="576pt" version="1.1" viewBox="0 0 936 576" width="936pt" xmlns="http://www.w3.org/2000/svg" xmlns:xlink="http://www.w3.org/1999/xlink">
 <defs>
  <style type="text/css">
*{stroke-linecap:butt;stroke-linejoin:round;}
  </style>
 </defs>
 <g id="figure_1">
  <g id="patch_1">
   <path d="M 0 576 
L 936 576 
L 936 0 
L 0 0 
z
" style="fill:#ffffff;"/>
  </g>
  <g id="axes_1">
   <g id="patch_2">
    <path d="M 117 512.64 
L 842.4 512.64 
L 842.4 69.12 
L 117 69.12 
z
" style="fill:#ffffff;"/>
   </g>
   <g id="line2d_1">
    <path clip-path="url(#p82009c439d)" d="M 117 512.64 
L 123.342295 487.082178 
L 129.68459 460.805827 
L 136.026885 433.790748 
L 142.36918 406.016171 
L 148.711475 377.460745 
L 155.05377 348.102517 
L 161.396066 317.918916 
L 167.738361 286.886739 
L 174.080656 254.982129 
L 180.422951 222.180558 
L 186.765246 188.456809 
L 193.107541 153.784957 
L 199.449836 118.138346 
L 205.792131 81.489573 
L 212.134426 43.810462 
L 219.450408 -1 
L 219.450408 -1 
" style="fill:none;stroke:#b2b2b2;stroke-dasharray:1.5,2.475;stroke-dashoffset:0;stroke-width:1.5;"/>
   </g>
   <g id="line2d_2">
    <path clip-path="url(#p82009c439d)" d="M 117 512.64 
L 126.513443 493.538218 
L 136.026885 474.035068 
L 145.540328 454.122115 
L 155.05377 433.790748 
L 164.567213 413.032176 
L 174.080656 391.837422 
L 183.594098 370.197322 
L 193.107541 348.102517 
L 202.620984 325.543453 
L 212.134426 302.510375 
L 221.647869 278.993324 
L 231.161311 254.982129 
L 240.674754 230.466408 
L 250.188197 205.435559 
L 259.701639 179.878759 
L 269.215082 153.784957 
L 278.728525 127.142868 
L 288.241967 99.940972 
L 297.75541 72.167507 
L 307.268852 43.810462 
L 316.782295 14.857575 
L 321.907589 -1 
L 321.907589 -1 
" style="fill:none;stroke:#b2b2b2;stroke-dasharray:1.5,2.475;stroke-dashoffset:0;stroke-width:1.5;"/>
   </g>
   <g id="line2d_3">
    <path clip-path="url(#p82009c439d)" d="M 117 512.64 
L 129.68459 495.680307 
L 142.36918 478.404217 
L 155.05377 460.805827 
L 167.738361 442.879126 
L 180.422951 424.617987 
L 193.107541 406.016171 
L 205.792131 387.067324 
L 218.476721 367.764971 
L 231.161311 348.102517 
L 243.845902 328.073244 
L 256.530492 307.670308 
L 269.215082 286.886739 
L 281.899672 265.715436 
L 294.584262 244.149165 
L 307.268852 222.180558 
L 319.953443 199.802108 
L 332.638033 177.006171 
L 345.322623 153.784957 
L 358.007213 130.130532 
L 370.691803 106.034815 
L 383.376393 81.489573 
L 396.060984 56.486419 
L 408.745574 31.016811 
L 421.430164 5.072047 
L 424.364775 -1 
L 424.364775 -1 
" style="fill:none;stroke:#b2b2b2;stroke-dasharray:1.5,2.475;stroke-dashoffset:0;stroke-width:1.5;"/>
   </g>
   <g id="line2d_4">
    <path clip-path="url(#p82009c439d)" d="M 117 512.64 
L 142.36918 498.122355 
L 167.738361 483.37287 
L 193.107541 468.387842 
L 218.476721 453.163511 
L 243.845902 437.696054 
L 269.215082 421.981589 
L 294.584262 406.016171 
L 319.953443 389.795793 
L 345.322623 373.316384 
L 370.691803 356.573805 
L 396.060984 339.563855 
L 421.430164 322.282265 
L 446.799344 304.724695 
L 472.168525 286.886739 
L 497.537705 268.763919 
L 522.906885 250.351687 
L 548.276066 231.645419 
L 573.645246 212.640421 
L 599.014426 193.331922 
L 624.383607 173.715075 
L 649.752787 153.784957 
L 675.121967 133.536563 
L 700.491148 112.964813 
L 722.68918 94.695219 
L 744.887213 76.170591 
L 767.085246 57.38737 
L 789.283279 38.341944 
L 811.481311 19.030654 
L 834.185231 -1 
L 834.185231 -1 
" style="fill:none;stroke:#b2b2b2;stroke-dasharray:1.5,2.475;stroke-dashoffset:0;stroke-width:1.5;"/>
   </g>
   <g id="matplotlib.axis_1">
    <g id="xtick_1">
     <g id="line2d_5">
      <path clip-path="url(#p82009c439d)" d="M 117 512.64 
L 117 69.12 
" style="fill:none;stroke:#e6e6e6;stroke-linecap:square;stroke-width:0.8;"/>
     </g>
     <g id="line2d_6">
      <defs>
       <path d="M 0 0 
L 0 3.5 
" id="mb8228afc0e" style="stroke:#666666;stroke-width:0.8;"/>
      </defs>
      <g>
       <use style="fill:#666666;stroke:#666666;stroke-width:0.8;" x="117" xlink:href="#mb8228afc0e" y="512.64"/>
      </g>
     </g>
     <g id="text_1">
      <!-- 0 -->
      <defs>
       <path d="M 31.78125 66.40625 
Q 24.171875 66.40625 20.328125 58.90625 
Q 16.5 51.421875 16.5 36.375 
Q 16.5 21.390625 20.328125 13.890625 
Q 24.171875 6.390625 31.78125 6.390625 
Q 39.453125 6.390625 43.28125 13.890625 
Q 47.125 21.390625 47.125 36.375 
Q 47.125 51.421875 43.28125 58.90625 
Q 39.453125 66.40625 31.78125 66.40625 
z
M 31.78125 74.21875 
Q 44.046875 74.21875 50.515625 64.515625 
Q 56.984375 54.828125 56.984375 36.375 
Q 56.984375 17.96875 50.515625 8.265625 
Q 44.046875 -1.421875 31.78125 -1.421875 
Q 19.53125 -1.421875 13.0625 8.265625 
Q 6.59375 17.96875 6.59375 36.375 
Q 6.59375 54.828125 13.0625 64.515625 
Q 19.53125 74.21875 31.78125 74.21875 
z
" id="DejaVuSans-48"/>
      </defs>
      <g style="fill:#666666;" transform="translate(113.81875 527.238438)scale(0.1 -0.1)">
       <use xlink:href="#DejaVuSans-48"/>
      </g>
     </g>
    </g>
    <g id="xtick_2">
     <g id="line2d_7">
      <path clip-path="url(#p82009c439d)" d="M 338.980328 512.64 
L 338.980328 69.12 
" style="fill:none;stroke:#e6e6e6;stroke-linecap:square;stroke-width:0.8;"/>
     </g>
     <g id="line2d_8">
      <g>
       <use style="fill:#666666;stroke:#666666;stroke-width:0.8;" x="338.980328" xlink:href="#mb8228afc0e" y="512.64"/>
      </g>
     </g>
     <g id="text_2">
      <!-- 7 -->
      <defs>
       <path d="M 8.203125 72.90625 
L 55.078125 72.90625 
L 55.078125 68.703125 
L 28.609375 0 
L 18.3125 0 
L 43.21875 64.59375 
L 8.203125 64.59375 
z
" id="DejaVuSans-55"/>
      </defs>
      <g style="fill:#666666;" transform="translate(335.799078 527.238438)scale(0.1 -0.1)">
       <use xlink:href="#DejaVuSans-55"/>
      </g>
     </g>
    </g>
    <g id="xtick_3">
     <g id="line2d_9">
      <path clip-path="url(#p82009c439d)" d="M 560.960656 512.64 
L 560.960656 69.12 
" style="fill:none;stroke:#e6e6e6;stroke-linecap:square;stroke-width:0.8;"/>
     </g>
     <g id="line2d_10">
      <g>
       <use style="fill:#666666;stroke:#666666;stroke-width:0.8;" x="560.960656" xlink:href="#mb8228afc0e" y="512.64"/>
      </g>
     </g>
     <g id="text_3">
      <!-- 14 -->
      <defs>
       <path d="M 12.40625 8.296875 
L 28.515625 8.296875 
L 28.515625 63.921875 
L 10.984375 60.40625 
L 10.984375 69.390625 
L 28.421875 72.90625 
L 38.28125 72.90625 
L 38.28125 8.296875 
L 54.390625 8.296875 
L 54.390625 0 
L 12.40625 0 
z
" id="DejaVuSans-49"/>
       <path d="M 37.796875 64.3125 
L 12.890625 25.390625 
L 37.796875 25.390625 
z
M 35.203125 72.90625 
L 47.609375 72.90625 
L 47.609375 25.390625 
L 58.015625 25.390625 
L 58.015625 17.1875 
L 47.609375 17.1875 
L 47.609375 0 
L 37.796875 0 
L 37.796875 17.1875 
L 4.890625 17.1875 
L 4.890625 26.703125 
z
" id="DejaVuSans-52"/>
      </defs>
      <g style="fill:#666666;" transform="translate(554.598156 527.238438)scale(0.1 -0.1)">
       <use xlink:href="#DejaVuSans-49"/>
       <use x="63.623047" xlink:href="#DejaVuSans-52"/>
      </g>
     </g>
    </g>
    <g id="xtick_4">
     <g id="line2d_11">
      <path clip-path="url(#p82009c439d)" d="M 782.940984 512.64 
L 782.940984 69.12 
" style="fill:none;stroke:#e6e6e6;stroke-linecap:square;stroke-width:0.8;"/>
     </g>
     <g id="line2d_12">
      <g>
       <use style="fill:#666666;stroke:#666666;stroke-width:0.8;" x="782.940984" xlink:href="#mb8228afc0e" y="512.64"/>
      </g>
     </g>
     <g id="text_4">
      <!-- 21 -->
      <defs>
       <path d="M 19.1875 8.296875 
L 53.609375 8.296875 
L 53.609375 0 
L 7.328125 0 
L 7.328125 8.296875 
Q 12.9375 14.109375 22.625 23.890625 
Q 32.328125 33.6875 34.8125 36.53125 
Q 39.546875 41.84375 41.421875 45.53125 
Q 43.3125 49.21875 43.3125 52.78125 
Q 43.3125 58.59375 39.234375 62.25 
Q 35.15625 65.921875 28.609375 65.921875 
Q 23.96875 65.921875 18.8125 64.3125 
Q 13.671875 62.703125 7.8125 59.421875 
L 7.8125 69.390625 
Q 13.765625 71.78125 18.9375 73 
Q 24.125 74.21875 28.421875 74.21875 
Q 39.75 74.21875 46.484375 68.546875 
Q 53.21875 62.890625 53.21875 53.421875 
Q 53.21875 48.921875 51.53125 44.890625 
Q 49.859375 40.875 45.40625 35.40625 
Q 44.1875 33.984375 37.640625 27.21875 
Q 31.109375 20.453125 19.1875 8.296875 
z
" id="DejaVuSans-50"/>
      </defs>
      <g style="fill:#666666;" transform="translate(776.578484 527.238438)scale(0.1 -0.1)">
       <use xlink:href="#DejaVuSans-50"/>
       <use x="63.623047" xlink:href="#DejaVuSans-49"/>
      </g>
     </g>
    </g>
    <g id="text_5">
     <!-- Days since 100 deaths -->
     <defs>
      <path d="M 19.671875 64.796875 
L 19.671875 8.109375 
L 31.59375 8.109375 
Q 46.6875 8.109375 53.6875 14.9375 
Q 60.6875 21.78125 60.6875 36.53125 
Q 60.6875 51.171875 53.6875 57.984375 
Q 46.6875 64.796875 31.59375 64.796875 
z
M 9.8125 72.90625 
L 30.078125 72.90625 
Q 51.265625 72.90625 61.171875 64.09375 
Q 71.09375 55.28125 71.09375 36.53125 
Q 71.09375 17.671875 61.125 8.828125 
Q 51.171875 0 30.078125 0 
L 9.8125 0 
z
" id="DejaVuSans-68"/>
      <path d="M 34.28125 27.484375 
Q 23.390625 27.484375 19.1875 25 
Q 14.984375 22.515625 14.984375 16.5 
Q 14.984375 11.71875 18.140625 8.90625 
Q 21.296875 6.109375 26.703125 6.109375 
Q 34.1875 6.109375 38.703125 11.40625 
Q 43.21875 16.703125 43.21875 25.484375 
L 43.21875 27.484375 
z
M 52.203125 31.203125 
L 52.203125 0 
L 43.21875 0 
L 43.21875 8.296875 
Q 40.140625 3.328125 35.546875 0.953125 
Q 30.953125 -1.421875 24.3125 -1.421875 
Q 15.921875 -1.421875 10.953125 3.296875 
Q 6 8.015625 6 15.921875 
Q 6 25.140625 12.171875 29.828125 
Q 18.359375 34.515625 30.609375 34.515625 
L 43.21875 34.515625 
L 43.21875 35.40625 
Q 43.21875 41.609375 39.140625 45 
Q 35.0625 48.390625 27.6875 48.390625 
Q 23 48.390625 18.546875 47.265625 
Q 14.109375 46.140625 10.015625 43.890625 
L 10.015625 52.203125 
Q 14.9375 54.109375 19.578125 55.046875 
Q 24.21875 56 28.609375 56 
Q 40.484375 56 46.34375 49.84375 
Q 52.203125 43.703125 52.203125 31.203125 
z
" id="DejaVuSans-97"/>
      <path d="M 32.171875 -5.078125 
Q 28.375 -14.84375 24.75 -17.8125 
Q 21.140625 -20.796875 15.09375 -20.796875 
L 7.90625 -20.796875 
L 7.90625 -13.28125 
L 13.1875 -13.28125 
Q 16.890625 -13.28125 18.9375 -11.515625 
Q 21 -9.765625 23.484375 -3.21875 
L 25.09375 0.875 
L 2.984375 54.6875 
L 12.5 54.6875 
L 29.59375 11.921875 
L 46.6875 54.6875 
L 56.203125 54.6875 
z
" id="DejaVuSans-121"/>
      <path d="M 44.28125 53.078125 
L 44.28125 44.578125 
Q 40.484375 46.53125 36.375 47.5 
Q 32.28125 48.484375 27.875 48.484375 
Q 21.1875 48.484375 17.84375 46.4375 
Q 14.5 44.390625 14.5 40.28125 
Q 14.5 37.15625 16.890625 35.375 
Q 19.28125 33.59375 26.515625 31.984375 
L 29.59375 31.296875 
Q 39.15625 29.25 43.1875 25.515625 
Q 47.21875 21.78125 47.21875 15.09375 
Q 47.21875 7.46875 41.1875 3.015625 
Q 35.15625 -1.421875 24.609375 -1.421875 
Q 20.21875 -1.421875 15.453125 -0.5625 
Q 10.6875 0.296875 5.421875 2 
L 5.421875 11.28125 
Q 10.40625 8.6875 15.234375 7.390625 
Q 20.0625 6.109375 24.8125 6.109375 
Q 31.15625 6.109375 34.5625 8.28125 
Q 37.984375 10.453125 37.984375 14.40625 
Q 37.984375 18.0625 35.515625 20.015625 
Q 33.0625 21.96875 24.703125 23.78125 
L 21.578125 24.515625 
Q 13.234375 26.265625 9.515625 29.90625 
Q 5.8125 33.546875 5.8125 39.890625 
Q 5.8125 47.609375 11.28125 51.796875 
Q 16.75 56 26.8125 56 
Q 31.78125 56 36.171875 55.265625 
Q 40.578125 54.546875 44.28125 53.078125 
z
" id="DejaVuSans-115"/>
      <path id="DejaVuSans-32"/>
      <path d="M 9.421875 54.6875 
L 18.40625 54.6875 
L 18.40625 0 
L 9.421875 0 
z
M 9.421875 75.984375 
L 18.40625 75.984375 
L 18.40625 64.59375 
L 9.421875 64.59375 
z
" id="DejaVuSans-105"/>
      <path d="M 54.890625 33.015625 
L 54.890625 0 
L 45.90625 0 
L 45.90625 32.71875 
Q 45.90625 40.484375 42.875 44.328125 
Q 39.84375 48.1875 33.796875 48.1875 
Q 26.515625 48.1875 22.3125 43.546875 
Q 18.109375 38.921875 18.109375 30.90625 
L 18.109375 0 
L 9.078125 0 
L 9.078125 54.6875 
L 18.109375 54.6875 
L 18.109375 46.1875 
Q 21.34375 51.125 25.703125 53.5625 
Q 30.078125 56 35.796875 56 
Q 45.21875 56 50.046875 50.171875 
Q 54.890625 44.34375 54.890625 33.015625 
z
" id="DejaVuSans-110"/>
      <path d="M 48.78125 52.59375 
L 48.78125 44.1875 
Q 44.96875 46.296875 41.140625 47.34375 
Q 37.3125 48.390625 33.40625 48.390625 
Q 24.65625 48.390625 19.8125 42.84375 
Q 14.984375 37.3125 14.984375 27.296875 
Q 14.984375 17.28125 19.8125 11.734375 
Q 24.65625 6.203125 33.40625 6.203125 
Q 37.3125 6.203125 41.140625 7.25 
Q 44.96875 8.296875 48.78125 10.40625 
L 48.78125 2.09375 
Q 45.015625 0.34375 40.984375 -0.53125 
Q 36.96875 -1.421875 32.421875 -1.421875 
Q 20.0625 -1.421875 12.78125 6.34375 
Q 5.515625 14.109375 5.515625 27.296875 
Q 5.515625 40.671875 12.859375 48.328125 
Q 20.21875 56 33.015625 56 
Q 37.15625 56 41.109375 55.140625 
Q 45.0625 54.296875 48.78125 52.59375 
z
" id="DejaVuSans-99"/>
      <path d="M 56.203125 29.59375 
L 56.203125 25.203125 
L 14.890625 25.203125 
Q 15.484375 15.921875 20.484375 11.0625 
Q 25.484375 6.203125 34.421875 6.203125 
Q 39.59375 6.203125 44.453125 7.46875 
Q 49.3125 8.734375 54.109375 11.28125 
L 54.109375 2.78125 
Q 49.265625 0.734375 44.1875 -0.34375 
Q 39.109375 -1.421875 33.890625 -1.421875 
Q 20.796875 -1.421875 13.15625 6.1875 
Q 5.515625 13.8125 5.515625 26.8125 
Q 5.515625 40.234375 12.765625 48.109375 
Q 20.015625 56 32.328125 56 
Q 43.359375 56 49.78125 48.890625 
Q 56.203125 41.796875 56.203125 29.59375 
z
M 47.21875 32.234375 
Q 47.125 39.59375 43.09375 43.984375 
Q 39.0625 48.390625 32.421875 48.390625 
Q 24.90625 48.390625 20.390625 44.140625 
Q 15.875 39.890625 15.1875 32.171875 
z
" id="DejaVuSans-101"/>
      <path d="M 45.40625 46.390625 
L 45.40625 75.984375 
L 54.390625 75.984375 
L 54.390625 0 
L 45.40625 0 
L 45.40625 8.203125 
Q 42.578125 3.328125 38.25 0.953125 
Q 33.9375 -1.421875 27.875 -1.421875 
Q 17.96875 -1.421875 11.734375 6.484375 
Q 5.515625 14.40625 5.515625 27.296875 
Q 5.515625 40.1875 11.734375 48.09375 
Q 17.96875 56 27.875 56 
Q 33.9375 56 38.25 53.625 
Q 42.578125 51.265625 45.40625 46.390625 
z
M 14.796875 27.296875 
Q 14.796875 17.390625 18.875 11.75 
Q 22.953125 6.109375 30.078125 6.109375 
Q 37.203125 6.109375 41.296875 11.75 
Q 45.40625 17.390625 45.40625 27.296875 
Q 45.40625 37.203125 41.296875 42.84375 
Q 37.203125 48.484375 30.078125 48.484375 
Q 22.953125 48.484375 18.875 42.84375 
Q 14.796875 37.203125 14.796875 27.296875 
z
" id="DejaVuSans-100"/>
      <path d="M 18.3125 70.21875 
L 18.3125 54.6875 
L 36.8125 54.6875 
L 36.8125 47.703125 
L 18.3125 47.703125 
L 18.3125 18.015625 
Q 18.3125 11.328125 20.140625 9.421875 
Q 21.96875 7.515625 27.59375 7.515625 
L 36.8125 7.515625 
L 36.8125 0 
L 27.59375 0 
Q 17.1875 0 13.234375 3.875 
Q 9.28125 7.765625 9.28125 18.015625 
L 9.28125 47.703125 
L 2.6875 47.703125 
L 2.6875 54.6875 
L 9.28125 54.6875 
L 9.28125 70.21875 
z
" id="DejaVuSans-116"/>
      <path d="M 54.890625 33.015625 
L 54.890625 0 
L 45.90625 0 
L 45.90625 32.71875 
Q 45.90625 40.484375 42.875 44.328125 
Q 39.84375 48.1875 33.796875 48.1875 
Q 26.515625 48.1875 22.3125 43.546875 
Q 18.109375 38.921875 18.109375 30.90625 
L 18.109375 0 
L 9.078125 0 
L 9.078125 75.984375 
L 18.109375 75.984375 
L 18.109375 46.1875 
Q 21.34375 51.125 25.703125 53.5625 
Q 30.078125 56 35.796875 56 
Q 45.21875 56 50.046875 50.171875 
Q 54.890625 44.34375 54.890625 33.015625 
z
" id="DejaVuSans-104"/>
     </defs>
     <g style="fill:#666666;" transform="translate(422.874219 540.916563)scale(0.1 -0.1)">
      <use xlink:href="#DejaVuSans-68"/>
      <use x="77.001953" xlink:href="#DejaVuSans-97"/>
      <use x="138.28125" xlink:href="#DejaVuSans-121"/>
      <use x="197.460938" xlink:href="#DejaVuSans-115"/>
      <use x="249.560547" xlink:href="#DejaVuSans-32"/>
      <use x="281.347656" xlink:href="#DejaVuSans-115"/>
      <use x="333.447266" xlink:href="#DejaVuSans-105"/>
      <use x="361.230469" xlink:href="#DejaVuSans-110"/>
      <use x="424.609375" xlink:href="#DejaVuSans-99"/>
      <use x="479.589844" xlink:href="#DejaVuSans-101"/>
      <use x="541.113281" xlink:href="#DejaVuSans-32"/>
      <use x="572.900391" xlink:href="#DejaVuSans-49"/>
      <use x="636.523438" xlink:href="#DejaVuSans-48"/>
      <use x="700.146484" xlink:href="#DejaVuSans-48"/>
      <use x="763.769531" xlink:href="#DejaVuSans-32"/>
      <use x="795.556641" xlink:href="#DejaVuSans-100"/>
      <use x="859.033203" xlink:href="#DejaVuSans-101"/>
      <use x="920.556641" xlink:href="#DejaVuSans-97"/>
      <use x="981.835938" xlink:href="#DejaVuSans-116"/>
      <use x="1021.044922" xlink:href="#DejaVuSans-104"/>
      <use x="1084.423828" xlink:href="#DejaVuSans-115"/>
     </g>
    </g>
   </g>
   <g id="matplotlib.axis_2">
    <g id="ytick_1">
     <g id="line2d_13">
      <path clip-path="url(#p82009c439d)" d="M 117 512.64 
L 842.4 512.64 
" style="fill:none;stroke:#e6e6e6;stroke-linecap:square;stroke-width:0.8;"/>
     </g>
     <g id="line2d_14">
      <defs>
       <path d="M 0 0 
L -3.5 0 
" id="maf252d060a" style="stroke:#666666;stroke-width:0.8;"/>
      </defs>
      <g>
       <use style="fill:#666666;stroke:#666666;stroke-width:0.8;" x="117" xlink:href="#maf252d060a" y="512.64"/>
      </g>
     </g>
     <g id="text_6">
      <!-- 100 -->
      <g style="fill:#666666;" transform="translate(90.9125 516.439219)scale(0.1 -0.1)">
       <use xlink:href="#DejaVuSans-49"/>
       <use x="63.623047" xlink:href="#DejaVuSans-48"/>
       <use x="127.246094" xlink:href="#DejaVuSans-48"/>
      </g>
     </g>
    </g>
   </g>
   <g id="line2d_15">
    <path clip-path="url(#p82009c439d)" d="M 117 512.64 
L 141.249952 490.144979 
L 236.384378 443.864401 
L 268.095853 401.517702 
L 299.807329 380.612502 
L 331.518804 368.227121 
" style="fill:none;stroke:#1f77b4;stroke-linecap:square;stroke-width:1.5;"/>
    <defs>
     <path d="M 0 1.5 
C 0.397805 1.5 0.77937 1.341951 1.06066 1.06066 
C 1.341951 0.77937 1.5 0.397805 1.5 0 
C 1.5 -0.397805 1.341951 -0.77937 1.06066 -1.06066 
C 0.77937 -1.341951 0.397805 -1.5 0 -1.5 
C -0.397805 -1.5 -0.77937 -1.341951 -1.06066 -1.06066 
C -1.341951 -0.77937 -1.5 -0.397805 -1.5 0 
C -1.5 0.397805 -1.341951 0.77937 -1.06066 1.06066 
C -0.77937 1.341951 -0.397805 1.5 0 1.5 
z
" id="m036eee690d" style="stroke:#1f77b4;"/>
    </defs>
    <g clip-path="url(#p82009c439d)">
     <use style="fill:#ffffff;stroke:#1f77b4;" x="117" xlink:href="#m036eee690d" y="512.64"/>
     <use style="fill:#ffffff;stroke:#1f77b4;" x="141.249952" xlink:href="#m036eee690d" y="490.144979"/>
     <use style="fill:#ffffff;stroke:#1f77b4;" x="236.384378" xlink:href="#m036eee690d" y="443.864401"/>
     <use style="fill:#ffffff;stroke:#1f77b4;" x="268.095853" xlink:href="#m036eee690d" y="401.517702"/>
     <use style="fill:#ffffff;stroke:#1f77b4;" x="299.807329" xlink:href="#m036eee690d" y="380.612502"/>
     <use style="fill:#ffffff;stroke:#1f77b4;" x="331.518804" xlink:href="#m036eee690d" y="368.227121"/>
    </g>
   </g>
   <g id="line2d_16">
    <path clip-path="url(#p82009c439d)" d="M 117 512.64 
L 140.062891 498.538949 
L 171.774367 486.870456 
L 203.485842 475.757024 
L 235.197317 462.194643 
L 266.908793 446.595894 
L 298.620268 435.848087 
L 330.331744 412.049607 
L 362.043219 402.666585 
L 393.754694 394.73081 
L 425.46617 391.403549 
L 457.177645 369.237186 
L 488.889121 348.794736 
L 520.600596 330.675989 
L 552.312072 316.169089 
" style="fill:none;stroke:#ff7f0e;stroke-linecap:square;stroke-width:1.5;"/>
    <defs>
     <path d="M 0 1.5 
C 0.397805 1.5 0.77937 1.341951 1.06066 1.06066 
C 1.341951 0.77937 1.5 0.397805 1.5 0 
C 1.5 -0.397805 1.341951 -0.77937 1.06066 -1.06066 
C 0.77937 -1.341951 0.397805 -1.5 0 -1.5 
C -0.397805 -1.5 -0.77937 -1.341951 -1.06066 -1.06066 
C -1.341951 -0.77937 -1.5 -0.397805 -1.5 0 
C -1.5 0.397805 -1.341951 0.77937 -1.06066 1.06066 
C -0.77937 1.341951 -0.397805 1.5 0 1.5 
z
" id="mca75740e25" style="stroke:#ff7f0e;"/>
    </defs>
    <g clip-path="url(#p82009c439d)">
     <use style="fill:#ffffff;stroke:#ff7f0e;" x="117" xlink:href="#mca75740e25" y="512.64"/>
     <use style="fill:#ffffff;stroke:#ff7f0e;" x="140.062891" xlink:href="#mca75740e25" y="498.538949"/>
     <use style="fill:#ffffff;stroke:#ff7f0e;" x="171.774367" xlink:href="#mca75740e25" y="486.870456"/>
     <use style="fill:#ffffff;stroke:#ff7f0e;" x="203.485842" xlink:href="#mca75740e25" y="475.757024"/>
     <use style="fill:#ffffff;stroke:#ff7f0e;" x="235.197317" xlink:href="#mca75740e25" y="462.194643"/>
     <use style="fill:#ffffff;stroke:#ff7f0e;" x="266.908793" xlink:href="#mca75740e25" y="446.595894"/>
     <use style="fill:#ffffff;stroke:#ff7f0e;" x="298.620268" xlink:href="#mca75740e25" y="435.848087"/>
     <use style="fill:#ffffff;stroke:#ff7f0e;" x="330.331744" xlink:href="#mca75740e25" y="412.049607"/>
     <use style="fill:#ffffff;stroke:#ff7f0e;" x="362.043219" xlink:href="#mca75740e25" y="402.666585"/>
     <use style="fill:#ffffff;stroke:#ff7f0e;" x="393.754694" xlink:href="#mca75740e25" y="394.73081"/>
     <use style="fill:#ffffff;stroke:#ff7f0e;" x="425.46617" xlink:href="#mca75740e25" y="391.403549"/>
     <use style="fill:#ffffff;stroke:#ff7f0e;" x="457.177645" xlink:href="#mca75740e25" y="369.237186"/>
     <use style="fill:#ffffff;stroke:#ff7f0e;" x="488.889121" xlink:href="#mca75740e25" y="348.794736"/>
     <use style="fill:#ffffff;stroke:#ff7f0e;" x="520.600596" xlink:href="#mca75740e25" y="330.675989"/>
     <use style="fill:#ffffff;stroke:#ff7f0e;" x="552.312072" xlink:href="#mca75740e25" y="316.169089"/>
    </g>
   </g>
   <g id="line2d_17">
    <path clip-path="url(#p82009c439d)" d="M 117 512.64 
L 141.916159 493.4662 
L 173.627635 469.633751 
L 205.33911 449.35834 
L 237.050585 435.848087 
L 268.762061 400.37397 
L 300.473536 384.875127 
L 332.185012 351.620752 
L 363.896487 329.80105 
L 395.607963 309.597721 
L 427.319438 296.902552 
L 459.030913 283.273555 
L 490.742389 268.156091 
L 522.453864 249.157107 
L 554.16534 238.196634 
L 585.876815 227.62775 
L 617.58829 215.654468 
L 649.299766 209.266647 
L 681.011241 194.134264 
L 712.722717 174.537984 
L 744.434192 163.445661 
L 776.145667 142.366876 
L 807.857143 90.24 
" style="fill:none;stroke:#2ca02c;stroke-linecap:square;stroke-width:1.5;"/>
    <defs>
     <path d="M 0 1.5 
C 0.397805 1.5 0.77937 1.341951 1.06066 1.06066 
C 1.341951 0.77937 1.5 0.397805 1.5 0 
C 1.5 -0.397805 1.341951 -0.77937 1.06066 -1.06066 
C 0.77937 -1.341951 0.397805 -1.5 0 -1.5 
C -0.397805 -1.5 -0.77937 -1.341951 -1.06066 -1.06066 
C -1.341951 -0.77937 -1.5 -0.397805 -1.5 0 
C -1.5 0.397805 -1.341951 0.77937 -1.06066 1.06066 
C -0.77937 1.341951 -0.397805 1.5 0 1.5 
z
" id="mcda36b8d18" style="stroke:#2ca02c;"/>
    </defs>
    <g clip-path="url(#p82009c439d)">
     <use style="fill:#ffffff;stroke:#2ca02c;" x="117" xlink:href="#mcda36b8d18" y="512.64"/>
     <use style="fill:#ffffff;stroke:#2ca02c;" x="141.916159" xlink:href="#mcda36b8d18" y="493.4662"/>
     <use style="fill:#ffffff;stroke:#2ca02c;" x="173.627635" xlink:href="#mcda36b8d18" y="469.633751"/>
     <use style="fill:#ffffff;stroke:#2ca02c;" x="205.33911" xlink:href="#mcda36b8d18" y="449.35834"/>
     <use style="fill:#ffffff;stroke:#2ca02c;" x="237.050585" xlink:href="#mcda36b8d18" y="435.848087"/>
     <use style="fill:#ffffff;stroke:#2ca02c;" x="268.762061" xlink:href="#mcda36b8d18" y="400.37397"/>
     <use style="fill:#ffffff;stroke:#2ca02c;" x="300.473536" xlink:href="#mcda36b8d18" y="384.875127"/>
     <use style="fill:#ffffff;stroke:#2ca02c;" x="332.185012" xlink:href="#mcda36b8d18" y="351.620752"/>
     <use style="fill:#ffffff;stroke:#2ca02c;" x="363.896487" xlink:href="#mcda36b8d18" y="329.80105"/>
     <use style="fill:#ffffff;stroke:#2ca02c;" x="395.607963" xlink:href="#mcda36b8d18" y="309.597721"/>
     <use style="fill:#ffffff;stroke:#2ca02c;" x="427.319438" xlink:href="#mcda36b8d18" y="296.902552"/>
     <use style="fill:#ffffff;stroke:#2ca02c;" x="459.030913" xlink:href="#mcda36b8d18" y="283.273555"/>
     <use style="fill:#ffffff;stroke:#2ca02c;" x="490.742389" xlink:href="#mcda36b8d18" y="268.156091"/>
     <use style="fill:#ffffff;stroke:#2ca02c;" x="522.453864" xlink:href="#mcda36b8d18" y="249.157107"/>
     <use style="fill:#ffffff;stroke:#2ca02c;" x="554.16534" xlink:href="#mcda36b8d18" y="238.196634"/>
     <use style="fill:#ffffff;stroke:#2ca02c;" x="585.876815" xlink:href="#mcda36b8d18" y="227.62775"/>
     <use style="fill:#ffffff;stroke:#2ca02c;" x="617.58829" xlink:href="#mcda36b8d18" y="215.654468"/>
     <use style="fill:#ffffff;stroke:#2ca02c;" x="649.299766" xlink:href="#mcda36b8d18" y="209.266647"/>
     <use style="fill:#ffffff;stroke:#2ca02c;" x="681.011241" xlink:href="#mcda36b8d18" y="194.134264"/>
     <use style="fill:#ffffff;stroke:#2ca02c;" x="712.722717" xlink:href="#mcda36b8d18" y="174.537984"/>
     <use style="fill:#ffffff;stroke:#2ca02c;" x="744.434192" xlink:href="#mcda36b8d18" y="163.445661"/>
     <use style="fill:#ffffff;stroke:#2ca02c;" x="776.145667" xlink:href="#mcda36b8d18" y="142.366876"/>
     <use style="fill:#ffffff;stroke:#2ca02c;" x="807.857143" xlink:href="#mcda36b8d18" y="90.24"/>
    </g>
   </g>
   <g id="line2d_18">
    <path clip-path="url(#p82009c439d)" d="M 117 512.64 
L 134.617486 503.725709 
L 166.328962 491.799659 
L 198.040437 468.127272 
L 229.751913 450.75142 
L 261.463388 431.93576 
" style="fill:none;stroke:#d62728;stroke-linecap:square;stroke-width:1.5;"/>
    <defs>
     <path d="M 0 1.5 
C 0.397805 1.5 0.77937 1.341951 1.06066 1.06066 
C 1.341951 0.77937 1.5 0.397805 1.5 0 
C 1.5 -0.397805 1.341951 -0.77937 1.06066 -1.06066 
C 0.77937 -1.341951 0.397805 -1.5 0 -1.5 
C -0.397805 -1.5 -0.77937 -1.341951 -1.06066 -1.06066 
C -1.341951 -0.77937 -1.5 -0.397805 -1.5 0 
C -1.5 0.397805 -1.341951 0.77937 -1.06066 1.06066 
C -0.77937 1.341951 -0.397805 1.5 0 1.5 
z
" id="ma339a30a8d" style="stroke:#d62728;"/>
    </defs>
    <g clip-path="url(#p82009c439d)">
     <use style="fill:#ffffff;stroke:#d62728;" x="117" xlink:href="#ma339a30a8d" y="512.64"/>
     <use style="fill:#ffffff;stroke:#d62728;" x="134.617486" xlink:href="#ma339a30a8d" y="503.725709"/>
     <use style="fill:#ffffff;stroke:#d62728;" x="166.328962" xlink:href="#ma339a30a8d" y="491.799659"/>
     <use style="fill:#ffffff;stroke:#d62728;" x="198.040437" xlink:href="#ma339a30a8d" y="468.127272"/>
     <use style="fill:#ffffff;stroke:#d62728;" x="229.751913" xlink:href="#ma339a30a8d" y="450.75142"/>
     <use style="fill:#ffffff;stroke:#d62728;" x="261.463388" xlink:href="#ma339a30a8d" y="431.93576"/>
    </g>
   </g>
   <g id="line2d_19">
    <path clip-path="url(#p82009c439d)" d="M 117 512.64 
" style="fill:none;stroke:#9467bd;stroke-linecap:square;stroke-width:1.5;"/>
    <defs>
     <path d="M 0 1.5 
C 0.397805 1.5 0.77937 1.341951 1.06066 1.06066 
C 1.341951 0.77937 1.5 0.397805 1.5 0 
C 1.5 -0.397805 1.341951 -0.77937 1.06066 -1.06066 
C 0.77937 -1.341951 0.397805 -1.5 0 -1.5 
C -0.397805 -1.5 -0.77937 -1.341951 -1.06066 -1.06066 
C -1.341951 -0.77937 -1.5 -0.397805 -1.5 0 
C -1.5 0.397805 -1.341951 0.77937 -1.06066 1.06066 
C -0.77937 1.341951 -0.397805 1.5 0 1.5 
z
" id="me4bcd06922" style="stroke:#9467bd;"/>
    </defs>
    <g clip-path="url(#p82009c439d)">
     <use style="fill:#ffffff;stroke:#9467bd;" x="117" xlink:href="#me4bcd06922" y="512.64"/>
    </g>
   </g>
   <g id="line2d_20">
    <path clip-path="url(#p82009c439d)" d="M 117 512.64 
L 137.18003 500.254918 
" style="fill:none;stroke:#8c564b;stroke-linecap:square;stroke-width:1.5;"/>
    <defs>
     <path d="M 0 1.5 
C 0.397805 1.5 0.77937 1.341951 1.06066 1.06066 
C 1.341951 0.77937 1.5 0.397805 1.5 0 
C 1.5 -0.397805 1.341951 -0.77937 1.06066 -1.06066 
C 0.77937 -1.341951 0.397805 -1.5 0 -1.5 
C -0.397805 -1.5 -0.77937 -1.341951 -1.06066 -1.06066 
C -1.341951 -0.77937 -1.5 -0.397805 -1.5 0 
C -1.5 0.397805 -1.341951 0.77937 -1.06066 1.06066 
C -0.77937 1.341951 -0.397805 1.5 0 1.5 
z
" id="mfd3ba644a0" style="stroke:#8c564b;"/>
    </defs>
    <g clip-path="url(#p82009c439d)">
     <use style="fill:#ffffff;stroke:#8c564b;" x="117" xlink:href="#mfd3ba644a0" y="512.64"/>
     <use style="fill:#ffffff;stroke:#8c564b;" x="137.18003" xlink:href="#mfd3ba644a0" y="500.254918"/>
    </g>
   </g>
   <g id="line2d_21">
    <path clip-path="url(#p82009c439d)" d="M 117 512.64 
L 148.711475 500.254918 
L 180.422951 495.144796 
L 212.134426 493.4662 
" style="fill:none;stroke:#e377c2;stroke-linecap:square;stroke-width:1.5;"/>
    <defs>
     <path d="M 0 1.5 
C 0.397805 1.5 0.77937 1.341951 1.06066 1.06066 
C 1.341951 0.77937 1.5 0.397805 1.5 0 
C 1.5 -0.397805 1.341951 -0.77937 1.06066 -1.06066 
C 0.77937 -1.341951 0.397805 -1.5 0 -1.5 
C -0.397805 -1.5 -0.77937 -1.341951 -1.06066 -1.06066 
C -1.341951 -0.77937 -1.5 -0.397805 -1.5 0 
C -1.5 0.397805 -1.341951 0.77937 -1.06066 1.06066 
C -0.77937 1.341951 -0.397805 1.5 0 1.5 
z
" id="m65c57efcff" style="stroke:#e377c2;"/>
    </defs>
    <g clip-path="url(#p82009c439d)">
     <use style="fill:#ffffff;stroke:#e377c2;" x="117" xlink:href="#m65c57efcff" y="512.64"/>
     <use style="fill:#ffffff;stroke:#e377c2;" x="148.711475" xlink:href="#m65c57efcff" y="500.254918"/>
     <use style="fill:#ffffff;stroke:#e377c2;" x="180.422951" xlink:href="#m65c57efcff" y="495.144796"/>
     <use style="fill:#ffffff;stroke:#e377c2;" x="212.134426" xlink:href="#m65c57efcff" y="493.4662"/>
    </g>
   </g>
   <g id="line2d_22">
    <path clip-path="url(#p82009c439d)" d="M 117 512.64 
L 129.68459 505.480976 
L 161.396066 486.870456 
L 193.107541 475.757024 
L 224.819016 465.142561 
L 256.530492 453.561806 
L 288.241967 443.864401 
L 319.953443 438.491224 
L 351.664918 430.645288 
L 383.376393 409.671078 
L 415.087869 393.616932 
L 446.799344 387.032999 
L 478.51082 377.460745 
" style="fill:none;stroke:#7f7f7f;stroke-linecap:square;stroke-width:1.5;"/>
    <defs>
     <path d="M 0 1.5 
C 0.397805 1.5 0.77937 1.341951 1.06066 1.06066 
C 1.341951 0.77937 1.5 0.397805 1.5 0 
C 1.5 -0.397805 1.341951 -0.77937 1.06066 -1.06066 
C 0.77937 -1.341951 0.397805 -1.5 0 -1.5 
C -0.397805 -1.5 -0.77937 -1.341951 -1.06066 -1.06066 
C -1.341951 -0.77937 -1.5 -0.397805 -1.5 0 
C -1.5 0.397805 -1.341951 0.77937 -1.06066 1.06066 
C -0.77937 1.341951 -0.397805 1.5 0 1.5 
z
" id="mcf12a53076" style="stroke:#7f7f7f;"/>
    </defs>
    <g clip-path="url(#p82009c439d)">
     <use style="fill:#ffffff;stroke:#7f7f7f;" x="117" xlink:href="#mcf12a53076" y="512.64"/>
     <use style="fill:#ffffff;stroke:#7f7f7f;" x="129.68459" xlink:href="#mcf12a53076" y="505.480976"/>
     <use style="fill:#ffffff;stroke:#7f7f7f;" x="161.396066" xlink:href="#mcf12a53076" y="486.870456"/>
     <use style="fill:#ffffff;stroke:#7f7f7f;" x="193.107541" xlink:href="#mcf12a53076" y="475.757024"/>
     <use style="fill:#ffffff;stroke:#7f7f7f;" x="224.819016" xlink:href="#mcf12a53076" y="465.142561"/>
     <use style="fill:#ffffff;stroke:#7f7f7f;" x="256.530492" xlink:href="#mcf12a53076" y="453.561806"/>
     <use style="fill:#ffffff;stroke:#7f7f7f;" x="288.241967" xlink:href="#mcf12a53076" y="443.864401"/>
     <use style="fill:#ffffff;stroke:#7f7f7f;" x="319.953443" xlink:href="#mcf12a53076" y="438.491224"/>
     <use style="fill:#ffffff;stroke:#7f7f7f;" x="351.664918" xlink:href="#mcf12a53076" y="430.645288"/>
     <use style="fill:#ffffff;stroke:#7f7f7f;" x="383.376393" xlink:href="#mcf12a53076" y="409.671078"/>
     <use style="fill:#ffffff;stroke:#7f7f7f;" x="415.087869" xlink:href="#mcf12a53076" y="393.616932"/>
     <use style="fill:#ffffff;stroke:#7f7f7f;" x="446.799344" xlink:href="#mcf12a53076" y="387.032999"/>
     <use style="fill:#ffffff;stroke:#7f7f7f;" x="478.51082" xlink:href="#mcf12a53076" y="377.460745"/>
    </g>
   </g>
   <g id="line2d_23">
    <path clip-path="url(#p82009c439d)" d="M 117 512.64 
L 137.51919 493.4662 
L 169.230665 477.312899 
L 200.942141 457.839567 
L 232.653616 445.226327 
L 264.365092 423.040214 
L 296.076567 400.37397 
L 327.788042 377.460745 
L 359.499518 356.398188 
" style="fill:none;stroke:#bcbd22;stroke-linecap:square;stroke-width:1.5;"/>
    <defs>
     <path d="M 0 1.5 
C 0.397805 1.5 0.77937 1.341951 1.06066 1.06066 
C 1.341951 0.77937 1.5 0.397805 1.5 0 
C 1.5 -0.397805 1.341951 -0.77937 1.06066 -1.06066 
C 0.77937 -1.341951 0.397805 -1.5 0 -1.5 
C -0.397805 -1.5 -0.77937 -1.341951 -1.06066 -1.06066 
C -1.341951 -0.77937 -1.5 -0.397805 -1.5 0 
C -1.5 0.397805 -1.341951 0.77937 -1.06066 1.06066 
C -0.77937 1.341951 -0.397805 1.5 0 1.5 
z
" id="ma55556b11d" style="stroke:#bcbd22;"/>
    </defs>
    <g clip-path="url(#p82009c439d)">
     <use style="fill:#ffffff;stroke:#bcbd22;" x="117" xlink:href="#ma55556b11d" y="512.64"/>
     <use style="fill:#ffffff;stroke:#bcbd22;" x="137.51919" xlink:href="#ma55556b11d" y="493.4662"/>
     <use style="fill:#ffffff;stroke:#bcbd22;" x="169.230665" xlink:href="#ma55556b11d" y="477.312899"/>
     <use style="fill:#ffffff;stroke:#bcbd22;" x="200.942141" xlink:href="#ma55556b11d" y="457.839567"/>
     <use style="fill:#ffffff;stroke:#bcbd22;" x="232.653616" xlink:href="#ma55556b11d" y="445.226327"/>
     <use style="fill:#ffffff;stroke:#bcbd22;" x="264.365092" xlink:href="#ma55556b11d" y="423.040214"/>
     <use style="fill:#ffffff;stroke:#bcbd22;" x="296.076567" xlink:href="#ma55556b11d" y="400.37397"/>
     <use style="fill:#ffffff;stroke:#bcbd22;" x="327.788042" xlink:href="#ma55556b11d" y="377.460745"/>
     <use style="fill:#ffffff;stroke:#bcbd22;" x="359.499518" xlink:href="#ma55556b11d" y="356.398188"/>
    </g>
   </g>
   <g id="line2d_24">
    <path clip-path="url(#p82009c439d)" d="M 117 512.64 
L 138.954098 496.835645 
L 170.665574 495.144796 
L 202.377049 488.501973 
L 234.088525 459.282514 
L 265.8 439.823522 
L 297.511475 433.232996 
L 329.222951 416.875033 
L 360.934426 404.980019 
L 392.645902 403.820673 
L 424.357377 402.666585 
L 456.068852 389.209024 
L 487.780328 369.237186 
L 519.491803 359.306308 
L 551.203279 319.514247 
" style="fill:none;stroke:#17becf;stroke-linecap:square;stroke-width:1.5;"/>
    <defs>
     <path d="M 0 1.5 
C 0.397805 1.5 0.77937 1.341951 1.06066 1.06066 
C 1.341951 0.77937 1.5 0.397805 1.5 0 
C 1.5 -0.397805 1.341951 -0.77937 1.06066 -1.06066 
C 0.77937 -1.341951 0.397805 -1.5 0 -1.5 
C -0.397805 -1.5 -0.77937 -1.341951 -1.06066 -1.06066 
C -1.341951 -0.77937 -1.5 -0.397805 -1.5 0 
C -1.5 0.397805 -1.341951 0.77937 -1.06066 1.06066 
C -0.77937 1.341951 -0.397805 1.5 0 1.5 
z
" id="ma061ac6307" style="stroke:#17becf;"/>
    </defs>
    <g clip-path="url(#p82009c439d)">
     <use style="fill:#ffffff;stroke:#17becf;" x="117" xlink:href="#ma061ac6307" y="512.64"/>
     <use style="fill:#ffffff;stroke:#17becf;" x="138.954098" xlink:href="#ma061ac6307" y="496.835645"/>
     <use style="fill:#ffffff;stroke:#17becf;" x="170.665574" xlink:href="#ma061ac6307" y="495.144796"/>
     <use style="fill:#ffffff;stroke:#17becf;" x="202.377049" xlink:href="#ma061ac6307" y="488.501973"/>
     <use style="fill:#ffffff;stroke:#17becf;" x="234.088525" xlink:href="#ma061ac6307" y="459.282514"/>
     <use style="fill:#ffffff;stroke:#17becf;" x="265.8" xlink:href="#ma061ac6307" y="439.823522"/>
     <use style="fill:#ffffff;stroke:#17becf;" x="297.511475" xlink:href="#ma061ac6307" y="433.232996"/>
     <use style="fill:#ffffff;stroke:#17becf;" x="329.222951" xlink:href="#ma061ac6307" y="416.875033"/>
     <use style="fill:#ffffff;stroke:#17becf;" x="360.934426" xlink:href="#ma061ac6307" y="404.980019"/>
     <use style="fill:#ffffff;stroke:#17becf;" x="392.645902" xlink:href="#ma061ac6307" y="403.820673"/>
     <use style="fill:#ffffff;stroke:#17becf;" x="424.357377" xlink:href="#ma061ac6307" y="402.666585"/>
     <use style="fill:#ffffff;stroke:#17becf;" x="456.068852" xlink:href="#ma061ac6307" y="389.209024"/>
     <use style="fill:#ffffff;stroke:#17becf;" x="487.780328" xlink:href="#ma061ac6307" y="369.237186"/>
     <use style="fill:#ffffff;stroke:#17becf;" x="519.491803" xlink:href="#ma061ac6307" y="359.306308"/>
     <use style="fill:#ffffff;stroke:#17becf;" x="551.203279" xlink:href="#ma061ac6307" y="319.514247"/>
    </g>
   </g>
   <g id="line2d_25">
    <path clip-path="url(#p82009c439d)" d="M 117 512.64 
L 143.832787 493.4662 
L 175.544262 475.757024 
L 207.255738 465.142561 
L 238.967213 449.35834 
L 270.678689 433.232996 
L 302.390164 424.291701 
L 334.101639 412.049607 
L 365.813115 395.849541 
L 397.52459 384.875127 
L 429.236066 376.418565 
L 460.947541 368.227121 
" style="fill:none;stroke:#1f77b4;stroke-linecap:square;stroke-width:1.5;"/>
    <g clip-path="url(#p82009c439d)">
     <use style="fill:#ffffff;stroke:#1f77b4;" x="117" xlink:href="#m036eee690d" y="512.64"/>
     <use style="fill:#ffffff;stroke:#1f77b4;" x="143.832787" xlink:href="#m036eee690d" y="493.4662"/>
     <use style="fill:#ffffff;stroke:#1f77b4;" x="175.544262" xlink:href="#m036eee690d" y="475.757024"/>
     <use style="fill:#ffffff;stroke:#1f77b4;" x="207.255738" xlink:href="#m036eee690d" y="465.142561"/>
     <use style="fill:#ffffff;stroke:#1f77b4;" x="238.967213" xlink:href="#m036eee690d" y="449.35834"/>
     <use style="fill:#ffffff;stroke:#1f77b4;" x="270.678689" xlink:href="#m036eee690d" y="433.232996"/>
     <use style="fill:#ffffff;stroke:#1f77b4;" x="302.390164" xlink:href="#m036eee690d" y="424.291701"/>
     <use style="fill:#ffffff;stroke:#1f77b4;" x="334.101639" xlink:href="#m036eee690d" y="412.049607"/>
     <use style="fill:#ffffff;stroke:#1f77b4;" x="365.813115" xlink:href="#m036eee690d" y="395.849541"/>
     <use style="fill:#ffffff;stroke:#1f77b4;" x="397.52459" xlink:href="#m036eee690d" y="384.875127"/>
     <use style="fill:#ffffff;stroke:#1f77b4;" x="429.236066" xlink:href="#m036eee690d" y="376.418565"/>
     <use style="fill:#ffffff;stroke:#1f77b4;" x="460.947541" xlink:href="#m036eee690d" y="368.227121"/>
    </g>
   </g>
   <g id="line2d_26">
    <path clip-path="url(#p82009c439d)" d="M 117 512.64 
L 128.531446 498.538949 
L 160.242921 483.64118 
L 191.954396 462.194643 
L 223.665872 433.232996 
L 255.377347 418.095994 
L 287.088823 408.49015 
L 318.800298 400.37397 
L 350.511773 364.225119 
L 382.223249 336.880562 
L 413.934724 327.192925 
L 445.6462 313.686531 
" style="fill:none;stroke:#ff7f0e;stroke-linecap:square;stroke-width:1.5;"/>
    <g clip-path="url(#p82009c439d)">
     <use style="fill:#ffffff;stroke:#ff7f0e;" x="117" xlink:href="#mca75740e25" y="512.64"/>
     <use style="fill:#ffffff;stroke:#ff7f0e;" x="128.531446" xlink:href="#mca75740e25" y="498.538949"/>
     <use style="fill:#ffffff;stroke:#ff7f0e;" x="160.242921" xlink:href="#mca75740e25" y="483.64118"/>
     <use style="fill:#ffffff;stroke:#ff7f0e;" x="191.954396" xlink:href="#mca75740e25" y="462.194643"/>
     <use style="fill:#ffffff;stroke:#ff7f0e;" x="223.665872" xlink:href="#mca75740e25" y="433.232996"/>
     <use style="fill:#ffffff;stroke:#ff7f0e;" x="255.377347" xlink:href="#mca75740e25" y="418.095994"/>
     <use style="fill:#ffffff;stroke:#ff7f0e;" x="287.088823" xlink:href="#mca75740e25" y="408.49015"/>
     <use style="fill:#ffffff;stroke:#ff7f0e;" x="318.800298" xlink:href="#mca75740e25" y="400.37397"/>
     <use style="fill:#ffffff;stroke:#ff7f0e;" x="350.511773" xlink:href="#mca75740e25" y="364.225119"/>
     <use style="fill:#ffffff;stroke:#ff7f0e;" x="382.223249" xlink:href="#mca75740e25" y="336.880562"/>
     <use style="fill:#ffffff;stroke:#ff7f0e;" x="413.934724" xlink:href="#mca75740e25" y="327.192925"/>
     <use style="fill:#ffffff;stroke:#ff7f0e;" x="445.6462" xlink:href="#mca75740e25" y="313.686531"/>
    </g>
   </g>
   <g id="line2d_27">
    <path clip-path="url(#p82009c439d)" d="M 117 512.64 
L 128.531446 498.538949 
L 160.242921 488.501973 
L 223.665872 463.664067 
L 255.377347 462.194643 
L 287.088823 446.595894 
L 318.800298 434.537078 
L 350.511773 429.361504 
L 382.223249 425.549501 
L 445.6462 419.322927 
L 477.357675 408.49015 
L 509.069151 382.735071 
L 540.780626 374.346586 
" style="fill:none;stroke:#2ca02c;stroke-linecap:square;stroke-width:1.5;"/>
    <g clip-path="url(#p82009c439d)">
     <use style="fill:#ffffff;stroke:#2ca02c;" x="117" xlink:href="#mcda36b8d18" y="512.64"/>
     <use style="fill:#ffffff;stroke:#2ca02c;" x="128.531446" xlink:href="#mcda36b8d18" y="498.538949"/>
     <use style="fill:#ffffff;stroke:#2ca02c;" x="160.242921" xlink:href="#mcda36b8d18" y="488.501973"/>
     <use style="fill:#ffffff;stroke:#2ca02c;" x="223.665872" xlink:href="#mcda36b8d18" y="463.664067"/>
     <use style="fill:#ffffff;stroke:#2ca02c;" x="255.377347" xlink:href="#mcda36b8d18" y="462.194643"/>
     <use style="fill:#ffffff;stroke:#2ca02c;" x="287.088823" xlink:href="#mcda36b8d18" y="446.595894"/>
     <use style="fill:#ffffff;stroke:#2ca02c;" x="318.800298" xlink:href="#mcda36b8d18" y="434.537078"/>
     <use style="fill:#ffffff;stroke:#2ca02c;" x="350.511773" xlink:href="#mcda36b8d18" y="429.361504"/>
     <use style="fill:#ffffff;stroke:#2ca02c;" x="382.223249" xlink:href="#mcda36b8d18" y="425.549501"/>
     <use style="fill:#ffffff;stroke:#2ca02c;" x="445.6462" xlink:href="#mcda36b8d18" y="419.322927"/>
     <use style="fill:#ffffff;stroke:#2ca02c;" x="477.357675" xlink:href="#mcda36b8d18" y="408.49015"/>
     <use style="fill:#ffffff;stroke:#2ca02c;" x="509.069151" xlink:href="#mcda36b8d18" y="382.735071"/>
     <use style="fill:#ffffff;stroke:#2ca02c;" x="540.780626" xlink:href="#mcda36b8d18" y="374.346586"/>
    </g>
   </g>
   <g id="line2d_28">
    <path clip-path="url(#p82009c439d)" d="M 117 512.64 
L 145.187978 498.538949 
L 176.899454 474.211319 
L 208.610929 462.194643 
L 240.322404 454.979326 
L 272.03388 450.75142 
L 303.745355 449.35834 
L 335.456831 445.226327 
L 367.168306 418.095994 
L 398.879781 410.857544 
L 430.591257 400.37397 
L 462.302732 390.303952 
" style="fill:none;stroke:#d62728;stroke-linecap:square;stroke-width:1.5;"/>
    <g clip-path="url(#p82009c439d)">
     <use style="fill:#ffffff;stroke:#d62728;" x="117" xlink:href="#ma339a30a8d" y="512.64"/>
     <use style="fill:#ffffff;stroke:#d62728;" x="145.187978" xlink:href="#ma339a30a8d" y="498.538949"/>
     <use style="fill:#ffffff;stroke:#d62728;" x="176.899454" xlink:href="#ma339a30a8d" y="474.211319"/>
     <use style="fill:#ffffff;stroke:#d62728;" x="208.610929" xlink:href="#ma339a30a8d" y="462.194643"/>
     <use style="fill:#ffffff;stroke:#d62728;" x="240.322404" xlink:href="#ma339a30a8d" y="454.979326"/>
     <use style="fill:#ffffff;stroke:#d62728;" x="272.03388" xlink:href="#ma339a30a8d" y="450.75142"/>
     <use style="fill:#ffffff;stroke:#d62728;" x="303.745355" xlink:href="#ma339a30a8d" y="449.35834"/>
     <use style="fill:#ffffff;stroke:#d62728;" x="335.456831" xlink:href="#ma339a30a8d" y="445.226327"/>
     <use style="fill:#ffffff;stroke:#d62728;" x="367.168306" xlink:href="#ma339a30a8d" y="418.095994"/>
     <use style="fill:#ffffff;stroke:#d62728;" x="398.879781" xlink:href="#ma339a30a8d" y="410.857544"/>
     <use style="fill:#ffffff;stroke:#d62728;" x="430.591257" xlink:href="#ma339a30a8d" y="400.37397"/>
     <use style="fill:#ffffff;stroke:#d62728;" x="462.302732" xlink:href="#ma339a30a8d" y="390.303952"/>
    </g>
   </g>
   <g id="line2d_29">
    <path clip-path="url(#p82009c439d)" d="M 117 512.64 
L 125.808743 503.725709 
L 157.520219 482.043074 
L 189.231694 453.561806 
L 220.943169 435.848087 
L 252.654645 429.361504 
L 284.36612 409.671078 
L 316.077596 398.101757 
L 347.789071 389.209024 
L 379.500546 375.380524 
" style="fill:none;stroke:#9467bd;stroke-linecap:square;stroke-width:1.5;"/>
    <g clip-path="url(#p82009c439d)">
     <use style="fill:#ffffff;stroke:#9467bd;" x="117" xlink:href="#me4bcd06922" y="512.64"/>
     <use style="fill:#ffffff;stroke:#9467bd;" x="125.808743" xlink:href="#me4bcd06922" y="503.725709"/>
     <use style="fill:#ffffff;stroke:#9467bd;" x="157.520219" xlink:href="#me4bcd06922" y="482.043074"/>
     <use style="fill:#ffffff;stroke:#9467bd;" x="189.231694" xlink:href="#me4bcd06922" y="453.561806"/>
     <use style="fill:#ffffff;stroke:#9467bd;" x="220.943169" xlink:href="#me4bcd06922" y="435.848087"/>
     <use style="fill:#ffffff;stroke:#9467bd;" x="252.654645" xlink:href="#me4bcd06922" y="429.361504"/>
     <use style="fill:#ffffff;stroke:#9467bd;" x="284.36612" xlink:href="#me4bcd06922" y="409.671078"/>
     <use style="fill:#ffffff;stroke:#9467bd;" x="316.077596" xlink:href="#me4bcd06922" y="398.101757"/>
     <use style="fill:#ffffff;stroke:#9467bd;" x="347.789071" xlink:href="#me4bcd06922" y="389.209024"/>
     <use style="fill:#ffffff;stroke:#9467bd;" x="379.500546" xlink:href="#me4bcd06922" y="375.380524"/>
    </g>
   </g>
   <g id="line2d_30">
    <path clip-path="url(#p82009c439d)" d="M 117 512.64 
L 139.198033 500.254918 
L 170.909508 496.835645 
L 202.620984 485.25025 
L 234.332459 480.455767 
L 266.043934 478.879095 
L 297.75541 472.675634 
L 329.466885 456.405209 
L 361.178361 449.35834 
L 392.889836 435.848087 
L 424.601311 426.813685 
" style="fill:none;stroke:#8c564b;stroke-linecap:square;stroke-width:1.5;"/>
    <g clip-path="url(#p82009c439d)">
     <use style="fill:#ffffff;stroke:#8c564b;" x="117" xlink:href="#mfd3ba644a0" y="512.64"/>
     <use style="fill:#ffffff;stroke:#8c564b;" x="139.198033" xlink:href="#mfd3ba644a0" y="500.254918"/>
     <use style="fill:#ffffff;stroke:#8c564b;" x="170.909508" xlink:href="#mfd3ba644a0" y="496.835645"/>
     <use style="fill:#ffffff;stroke:#8c564b;" x="202.620984" xlink:href="#mfd3ba644a0" y="485.25025"/>
     <use style="fill:#ffffff;stroke:#8c564b;" x="234.332459" xlink:href="#mfd3ba644a0" y="480.455767"/>
     <use style="fill:#ffffff;stroke:#8c564b;" x="266.043934" xlink:href="#mfd3ba644a0" y="478.879095"/>
     <use style="fill:#ffffff;stroke:#8c564b;" x="297.75541" xlink:href="#mfd3ba644a0" y="472.675634"/>
     <use style="fill:#ffffff;stroke:#8c564b;" x="329.466885" xlink:href="#mfd3ba644a0" y="456.405209"/>
     <use style="fill:#ffffff;stroke:#8c564b;" x="361.178361" xlink:href="#mfd3ba644a0" y="449.35834"/>
     <use style="fill:#ffffff;stroke:#8c564b;" x="392.889836" xlink:href="#mfd3ba644a0" y="435.848087"/>
     <use style="fill:#ffffff;stroke:#8c564b;" x="424.601311" xlink:href="#mfd3ba644a0" y="426.813685"/>
    </g>
   </g>
   <g id="line2d_31">
    <path clip-path="url(#p82009c439d)" d="M 117 512.64 
L 127.570492 510.829062 
L 190.993443 496.835645 
L 222.704918 472.675634 
L 254.416393 456.405209 
L 286.127869 447.973199 
L 317.839344 446.595894 
L 349.55082 442.51002 
L 381.262295 438.491224 
L 412.97377 433.232996 
L 444.685246 426.813685 
L 476.396721 415.659976 
L 508.108197 413.247326 
" style="fill:none;stroke:#e377c2;stroke-linecap:square;stroke-width:1.5;"/>
    <g clip-path="url(#p82009c439d)">
     <use style="fill:#ffffff;stroke:#e377c2;" x="117" xlink:href="#m65c57efcff" y="512.64"/>
     <use style="fill:#ffffff;stroke:#e377c2;" x="127.570492" xlink:href="#m65c57efcff" y="510.829062"/>
     <use style="fill:#ffffff;stroke:#e377c2;" x="190.993443" xlink:href="#m65c57efcff" y="496.835645"/>
     <use style="fill:#ffffff;stroke:#e377c2;" x="222.704918" xlink:href="#m65c57efcff" y="472.675634"/>
     <use style="fill:#ffffff;stroke:#e377c2;" x="254.416393" xlink:href="#m65c57efcff" y="456.405209"/>
     <use style="fill:#ffffff;stroke:#e377c2;" x="286.127869" xlink:href="#m65c57efcff" y="447.973199"/>
     <use style="fill:#ffffff;stroke:#e377c2;" x="317.839344" xlink:href="#m65c57efcff" y="446.595894"/>
     <use style="fill:#ffffff;stroke:#e377c2;" x="349.55082" xlink:href="#m65c57efcff" y="442.51002"/>
     <use style="fill:#ffffff;stroke:#e377c2;" x="381.262295" xlink:href="#m65c57efcff" y="438.491224"/>
     <use style="fill:#ffffff;stroke:#e377c2;" x="412.97377" xlink:href="#m65c57efcff" y="433.232996"/>
     <use style="fill:#ffffff;stroke:#e377c2;" x="444.685246" xlink:href="#m65c57efcff" y="426.813685"/>
     <use style="fill:#ffffff;stroke:#e377c2;" x="476.396721" xlink:href="#m65c57efcff" y="415.659976"/>
     <use style="fill:#ffffff;stroke:#e377c2;" x="508.108197" xlink:href="#m65c57efcff" y="413.247326"/>
    </g>
   </g>
   <g id="line2d_32">
    <path clip-path="url(#p82009c439d)" d="M 117 512.64 
L 127.570492 503.725709 
L 159.281967 468.127272 
L 190.993443 449.35834 
L 222.704918 430.645288 
L 254.416393 402.666585 
L 286.127869 378.507103 
L 317.839344 351.620752 
L 349.55082 326.329048 
L 381.262295 312.04377 
L 412.97377 299.239459 
L 444.685246 275.9752 
L 476.396721 244.594453 
L 508.108197 226.40866 
L 539.819672 205.838344 
L 571.531148 191.954775 
L 603.242623 179.191792 
L 634.954098 169.952619 
L 666.665574 159.018459 
L 698.377049 146.566168 
L 730.088525 138.222004 
L 761.8 123.902652 
" style="fill:none;stroke:#7f7f7f;stroke-linecap:square;stroke-width:1.5;"/>
    <g clip-path="url(#p82009c439d)">
     <use style="fill:#ffffff;stroke:#7f7f7f;" x="117" xlink:href="#mcf12a53076" y="512.64"/>
     <use style="fill:#ffffff;stroke:#7f7f7f;" x="127.570492" xlink:href="#mcf12a53076" y="503.725709"/>
     <use style="fill:#ffffff;stroke:#7f7f7f;" x="159.281967" xlink:href="#mcf12a53076" y="468.127272"/>
     <use style="fill:#ffffff;stroke:#7f7f7f;" x="190.993443" xlink:href="#mcf12a53076" y="449.35834"/>
     <use style="fill:#ffffff;stroke:#7f7f7f;" x="222.704918" xlink:href="#mcf12a53076" y="430.645288"/>
     <use style="fill:#ffffff;stroke:#7f7f7f;" x="254.416393" xlink:href="#mcf12a53076" y="402.666585"/>
     <use style="fill:#ffffff;stroke:#7f7f7f;" x="286.127869" xlink:href="#mcf12a53076" y="378.507103"/>
     <use style="fill:#ffffff;stroke:#7f7f7f;" x="317.839344" xlink:href="#mcf12a53076" y="351.620752"/>
     <use style="fill:#ffffff;stroke:#7f7f7f;" x="349.55082" xlink:href="#mcf12a53076" y="326.329048"/>
     <use style="fill:#ffffff;stroke:#7f7f7f;" x="381.262295" xlink:href="#mcf12a53076" y="312.04377"/>
     <use style="fill:#ffffff;stroke:#7f7f7f;" x="412.97377" xlink:href="#mcf12a53076" y="299.239459"/>
     <use style="fill:#ffffff;stroke:#7f7f7f;" x="444.685246" xlink:href="#mcf12a53076" y="275.9752"/>
     <use style="fill:#ffffff;stroke:#7f7f7f;" x="476.396721" xlink:href="#mcf12a53076" y="244.594453"/>
     <use style="fill:#ffffff;stroke:#7f7f7f;" x="508.108197" xlink:href="#mcf12a53076" y="226.40866"/>
     <use style="fill:#ffffff;stroke:#7f7f7f;" x="539.819672" xlink:href="#mcf12a53076" y="205.838344"/>
     <use style="fill:#ffffff;stroke:#7f7f7f;" x="571.531148" xlink:href="#mcf12a53076" y="191.954775"/>
     <use style="fill:#ffffff;stroke:#7f7f7f;" x="603.242623" xlink:href="#mcf12a53076" y="179.191792"/>
     <use style="fill:#ffffff;stroke:#7f7f7f;" x="634.954098" xlink:href="#mcf12a53076" y="169.952619"/>
     <use style="fill:#ffffff;stroke:#7f7f7f;" x="666.665574" xlink:href="#mcf12a53076" y="159.018459"/>
     <use style="fill:#ffffff;stroke:#7f7f7f;" x="698.377049" xlink:href="#mcf12a53076" y="146.566168"/>
     <use style="fill:#ffffff;stroke:#7f7f7f;" x="730.088525" xlink:href="#mcf12a53076" y="138.222004"/>
     <use style="fill:#ffffff;stroke:#7f7f7f;" x="761.8" xlink:href="#mcf12a53076" y="123.902652"/>
    </g>
   </g>
   <g id="line2d_33">
    <path clip-path="url(#p82009c439d)" d="M 117 512.64 
L 125.394214 496.835645 
L 157.105689 477.312899 
L 188.817165 463.664067 
L 220.52864 447.973199 
L 252.240116 437.166108 
L 283.951591 430.645288 
L 315.663067 382.735071 
L 347.374542 369.237186 
L 379.086017 346.927137 
L 410.797493 322.900515 
L 442.508968 307.173005 
L 474.220444 289.250002 
L 505.931919 273.821522 
L 537.643394 255.800971 
L 569.35487 240.739143 
L 601.066345 218.011241 
" style="fill:none;stroke:#bcbd22;stroke-linecap:square;stroke-width:1.5;"/>
    <g clip-path="url(#p82009c439d)">
     <use style="fill:#ffffff;stroke:#bcbd22;" x="117" xlink:href="#ma55556b11d" y="512.64"/>
     <use style="fill:#ffffff;stroke:#bcbd22;" x="125.394214" xlink:href="#ma55556b11d" y="496.835645"/>
     <use style="fill:#ffffff;stroke:#bcbd22;" x="157.105689" xlink:href="#ma55556b11d" y="477.312899"/>
     <use style="fill:#ffffff;stroke:#bcbd22;" x="188.817165" xlink:href="#ma55556b11d" y="463.664067"/>
     <use style="fill:#ffffff;stroke:#bcbd22;" x="220.52864" xlink:href="#ma55556b11d" y="447.973199"/>
     <use style="fill:#ffffff;stroke:#bcbd22;" x="252.240116" xlink:href="#ma55556b11d" y="437.166108"/>
     <use style="fill:#ffffff;stroke:#bcbd22;" x="283.951591" xlink:href="#ma55556b11d" y="430.645288"/>
     <use style="fill:#ffffff;stroke:#bcbd22;" x="315.663067" xlink:href="#ma55556b11d" y="382.735071"/>
     <use style="fill:#ffffff;stroke:#bcbd22;" x="347.374542" xlink:href="#ma55556b11d" y="369.237186"/>
     <use style="fill:#ffffff;stroke:#bcbd22;" x="379.086017" xlink:href="#ma55556b11d" y="346.927137"/>
     <use style="fill:#ffffff;stroke:#bcbd22;" x="410.797493" xlink:href="#ma55556b11d" y="322.900515"/>
     <use style="fill:#ffffff;stroke:#bcbd22;" x="442.508968" xlink:href="#ma55556b11d" y="307.173005"/>
     <use style="fill:#ffffff;stroke:#bcbd22;" x="474.220444" xlink:href="#ma55556b11d" y="289.250002"/>
     <use style="fill:#ffffff;stroke:#bcbd22;" x="505.931919" xlink:href="#ma55556b11d" y="273.821522"/>
     <use style="fill:#ffffff;stroke:#bcbd22;" x="537.643394" xlink:href="#ma55556b11d" y="255.800971"/>
     <use style="fill:#ffffff;stroke:#bcbd22;" x="569.35487" xlink:href="#ma55556b11d" y="240.739143"/>
     <use style="fill:#ffffff;stroke:#bcbd22;" x="601.066345" xlink:href="#ma55556b11d" y="218.011241"/>
    </g>
   </g>
   <g id="line2d_34">
    <path clip-path="url(#p82009c439d)" d="M 117 512.64 
L 146.068852 493.4662 
L 177.780328 466.630253 
L 209.491803 453.561806 
L 241.203279 443.864401 
L 272.914754 430.645288 
L 304.62623 410.857544 
L 336.337705 396.973174 
L 368.04918 380.612502 
L 399.760656 372.290874 
L 431.472131 366.218533 
L 463.183607 357.364033 
L 494.895082 347.859313 
L 526.606557 336.880562 
L 558.318033 333.317782 
L 590.029508 323.75364 
L 621.740984 319.514247 
" style="fill:none;stroke:#17becf;stroke-linecap:square;stroke-width:1.5;"/>
    <g clip-path="url(#p82009c439d)">
     <use style="fill:#ffffff;stroke:#17becf;" x="117" xlink:href="#ma061ac6307" y="512.64"/>
     <use style="fill:#ffffff;stroke:#17becf;" x="146.068852" xlink:href="#ma061ac6307" y="493.4662"/>
     <use style="fill:#ffffff;stroke:#17becf;" x="177.780328" xlink:href="#ma061ac6307" y="466.630253"/>
     <use style="fill:#ffffff;stroke:#17becf;" x="209.491803" xlink:href="#ma061ac6307" y="453.561806"/>
     <use style="fill:#ffffff;stroke:#17becf;" x="241.203279" xlink:href="#ma061ac6307" y="443.864401"/>
     <use style="fill:#ffffff;stroke:#17becf;" x="272.914754" xlink:href="#ma061ac6307" y="430.645288"/>
     <use style="fill:#ffffff;stroke:#17becf;" x="304.62623" xlink:href="#ma061ac6307" y="410.857544"/>
     <use style="fill:#ffffff;stroke:#17becf;" x="336.337705" xlink:href="#ma061ac6307" y="396.973174"/>
     <use style="fill:#ffffff;stroke:#17becf;" x="368.04918" xlink:href="#ma061ac6307" y="380.612502"/>
     <use style="fill:#ffffff;stroke:#17becf;" x="399.760656" xlink:href="#ma061ac6307" y="372.290874"/>
     <use style="fill:#ffffff;stroke:#17becf;" x="431.472131" xlink:href="#ma061ac6307" y="366.218533"/>
     <use style="fill:#ffffff;stroke:#17becf;" x="463.183607" xlink:href="#ma061ac6307" y="357.364033"/>
     <use style="fill:#ffffff;stroke:#17becf;" x="494.895082" xlink:href="#ma061ac6307" y="347.859313"/>
     <use style="fill:#ffffff;stroke:#17becf;" x="526.606557" xlink:href="#ma061ac6307" y="336.880562"/>
     <use style="fill:#ffffff;stroke:#17becf;" x="558.318033" xlink:href="#ma061ac6307" y="333.317782"/>
     <use style="fill:#ffffff;stroke:#17becf;" x="590.029508" xlink:href="#ma061ac6307" y="323.75364"/>
     <use style="fill:#ffffff;stroke:#17becf;" x="621.740984" xlink:href="#ma061ac6307" y="319.514247"/>
    </g>
   </g>
   <g id="patch_3">
    <path d="M 117 512.64 
L 117 69.12 
" style="fill:none;stroke:#666666;stroke-linecap:square;stroke-linejoin:miter;stroke-width:0.8;"/>
   </g>
   <g id="patch_4">
    <path d="M 117 512.64 
L 842.4 512.64 
" style="fill:none;stroke:#666666;stroke-linecap:square;stroke-linejoin:miter;stroke-width:0.8;"/>
   </g>
   <g id="text_7">
    <g id="patch_5">
     <path d="M 330.018804 371.806808 
C 331.518804 373.306808 343.931304 373.306808 345.431304 371.806808 
C 346.931304 370.306808 346.931304 360.628683 345.431304 359.128683 
C 343.931304 357.628683 331.518804 357.628683 330.018804 359.128683 
C 328.518804 360.628683 328.518804 370.306808 330.018804 371.806808 
z
" style="fill:#ffffff;stroke:#1f77b4;stroke-linejoin:miter;"/>
    </g>
    <!-- AL -->
    <defs>
     <path d="M 34.1875 63.1875 
L 20.796875 26.90625 
L 47.609375 26.90625 
z
M 28.609375 72.90625 
L 39.796875 72.90625 
L 67.578125 0 
L 57.328125 0 
L 50.6875 18.703125 
L 17.828125 18.703125 
L 11.1875 0 
L 0.78125 0 
z
" id="DejaVuSans-65"/>
     <path d="M 9.8125 72.90625 
L 19.671875 72.90625 
L 19.671875 8.296875 
L 55.171875 8.296875 
L 55.171875 0 
L 9.8125 0 
z
" id="DejaVuSans-76"/>
    </defs>
    <g style="fill:#1f77b4;" transform="translate(331.518804 368.227121)scale(0.1 -0.1)">
     <use xlink:href="#DejaVuSans-65"/>
     <use x="68.408203" xlink:href="#DejaVuSans-76"/>
    </g>
   </g>
   <g id="text_8">
    <g id="patch_6">
     <path d="M 550.812072 319.748776 
C 552.312072 321.248776 566.002697 321.248776 567.502697 319.748776 
C 569.002697 318.248776 569.002697 308.570651 567.502697 307.070651 
C 566.002697 305.570651 552.312072 305.570651 550.812072 307.070651 
C 549.312072 308.570651 549.312072 318.248776 550.812072 319.748776 
z
" style="fill:#ffffff;stroke:#ff7f0e;stroke-linejoin:miter;"/>
    </g>
    <!-- AZ -->
    <defs>
     <path d="M 5.609375 72.90625 
L 62.890625 72.90625 
L 62.890625 65.375 
L 16.796875 8.296875 
L 64.015625 8.296875 
L 64.015625 0 
L 4.5 0 
L 4.5 7.515625 
L 50.59375 64.59375 
L 5.609375 64.59375 
z
" id="DejaVuSans-90"/>
    </defs>
    <g style="fill:#ff7f0e;" transform="translate(552.312072 316.169089)scale(0.1 -0.1)">
     <use xlink:href="#DejaVuSans-65"/>
     <use x="68.408203" xlink:href="#DejaVuSans-90"/>
    </g>
   </g>
   <g id="text_9">
    <g id="patch_7">
     <path d="M 806.357143 93.819688 
C 807.857143 95.319688 822.71183 95.319688 824.21183 93.819688 
C 825.71183 92.319688 825.71183 82.641563 824.21183 81.141563 
C 822.71183 79.641563 807.857143 79.641563 806.357143 81.141563 
C 804.857143 82.641563 804.857143 92.319688 806.357143 93.819688 
z
" style="fill:#ffffff;stroke:#2ca02c;stroke-linejoin:miter;"/>
    </g>
    <!-- CO -->
    <defs>
     <path d="M 64.40625 67.28125 
L 64.40625 56.890625 
Q 59.421875 61.53125 53.78125 63.8125 
Q 48.140625 66.109375 41.796875 66.109375 
Q 29.296875 66.109375 22.65625 58.46875 
Q 16.015625 50.828125 16.015625 36.375 
Q 16.015625 21.96875 22.65625 14.328125 
Q 29.296875 6.6875 41.796875 6.6875 
Q 48.140625 6.6875 53.78125 8.984375 
Q 59.421875 11.28125 64.40625 15.921875 
L 64.40625 5.609375 
Q 59.234375 2.09375 53.4375 0.328125 
Q 47.65625 -1.421875 41.21875 -1.421875 
Q 24.65625 -1.421875 15.125 8.703125 
Q 5.609375 18.84375 5.609375 36.375 
Q 5.609375 53.953125 15.125 64.078125 
Q 24.65625 74.21875 41.21875 74.21875 
Q 47.75 74.21875 53.53125 72.484375 
Q 59.328125 70.75 64.40625 67.28125 
z
" id="DejaVuSans-67"/>
     <path d="M 39.40625 66.21875 
Q 28.65625 66.21875 22.328125 58.203125 
Q 16.015625 50.203125 16.015625 36.375 
Q 16.015625 22.609375 22.328125 14.59375 
Q 28.65625 6.59375 39.40625 6.59375 
Q 50.140625 6.59375 56.421875 14.59375 
Q 62.703125 22.609375 62.703125 36.375 
Q 62.703125 50.203125 56.421875 58.203125 
Q 50.140625 66.21875 39.40625 66.21875 
z
M 39.40625 74.21875 
Q 54.734375 74.21875 63.90625 63.9375 
Q 73.09375 53.65625 73.09375 36.375 
Q 73.09375 19.140625 63.90625 8.859375 
Q 54.734375 -1.421875 39.40625 -1.421875 
Q 24.03125 -1.421875 14.8125 8.828125 
Q 5.609375 19.09375 5.609375 36.375 
Q 5.609375 53.65625 14.8125 63.9375 
Q 24.03125 74.21875 39.40625 74.21875 
z
" id="DejaVuSans-79"/>
    </defs>
    <g style="fill:#2ca02c;" transform="translate(807.857143 90.24)scale(0.1 -0.1)">
     <use xlink:href="#DejaVuSans-67"/>
     <use x="69.824219" xlink:href="#DejaVuSans-79"/>
    </g>
   </g>
   <g id="text_10">
    <g id="patch_8">
     <path d="M 259.963388 435.515447 
C 261.463388 437.015447 276.1462 437.015447 277.6462 435.515447 
C 279.1462 434.015447 279.1462 424.337322 277.6462 422.837322 
C 276.1462 421.337322 261.463388 421.337322 259.963388 422.837322 
C 258.463388 424.337322 258.463388 434.015447 259.963388 435.515447 
z
" style="fill:#ffffff;stroke:#d62728;stroke-linejoin:miter;"/>
    </g>
    <!-- DC -->
    <g style="fill:#d62728;" transform="translate(261.463388 431.93576)scale(0.1 -0.1)">
     <use xlink:href="#DejaVuSans-68"/>
     <use x="77.001953" xlink:href="#DejaVuSans-67"/>
    </g>
   </g>
   <g id="text_11">
    <g id="patch_9">
     <path d="M 115.5 516.219688 
C 117 517.719688 131.01875 517.719688 132.51875 516.219688 
C 134.01875 514.719688 134.01875 505.041563 132.51875 503.541563 
C 131.01875 502.041563 117 502.041563 115.5 503.541563 
C 114 505.041563 114 514.719688 115.5 516.219688 
z
" style="fill:#ffffff;stroke:#9467bd;stroke-linejoin:miter;"/>
    </g>
    <!-- DE -->
    <defs>
     <path d="M 9.8125 72.90625 
L 55.90625 72.90625 
L 55.90625 64.59375 
L 19.671875 64.59375 
L 19.671875 43.015625 
L 54.390625 43.015625 
L 54.390625 34.71875 
L 19.671875 34.71875 
L 19.671875 8.296875 
L 56.78125 8.296875 
L 56.78125 0 
L 9.8125 0 
z
" id="DejaVuSans-69"/>
    </defs>
    <g style="fill:#9467bd;" transform="translate(117 512.64)scale(0.1 -0.1)">
     <use xlink:href="#DejaVuSans-68"/>
     <use x="77.001953" xlink:href="#DejaVuSans-69"/>
    </g>
   </g>
   <g id="text_12">
    <g id="patch_10">
     <path d="M 135.68003 503.834605 
C 137.18003 505.334605 146.970655 505.334605 148.470655 503.834605 
C 149.970655 502.334605 149.970655 492.65648 148.470655 491.15648 
C 146.970655 489.65648 137.18003 489.65648 135.68003 491.15648 
C 134.18003 492.65648 134.18003 502.334605 135.68003 503.834605 
z
" style="fill:#ffffff;stroke:#8c564b;stroke-linejoin:miter;"/>
    </g>
    <!-- IA -->
    <defs>
     <path d="M 9.8125 72.90625 
L 19.671875 72.90625 
L 19.671875 0 
L 9.8125 0 
z
" id="DejaVuSans-73"/>
    </defs>
    <g style="fill:#8c564b;" transform="translate(137.18003 500.254918)scale(0.1 -0.1)">
     <use xlink:href="#DejaVuSans-73"/>
     <use x="29.492188" xlink:href="#DejaVuSans-65"/>
    </g>
   </g>
   <g id="text_13">
    <g id="patch_11">
     <path d="M 210.634426 497.045887 
C 212.134426 498.545887 225.040676 498.545887 226.540676 497.045887 
C 228.040676 495.545887 228.040676 485.867762 226.540676 484.367762 
C 225.040676 482.867762 212.134426 482.867762 210.634426 484.367762 
C 209.134426 485.867762 209.134426 495.545887 210.634426 497.045887 
z
" style="fill:#ffffff;stroke:#e377c2;stroke-linejoin:miter;"/>
    </g>
    <!-- KS -->
    <defs>
     <path d="M 9.8125 72.90625 
L 19.671875 72.90625 
L 19.671875 42.09375 
L 52.390625 72.90625 
L 65.09375 72.90625 
L 28.90625 38.921875 
L 67.671875 0 
L 54.6875 0 
L 19.671875 35.109375 
L 19.671875 0 
L 9.8125 0 
z
" id="DejaVuSans-75"/>
     <path d="M 53.515625 70.515625 
L 53.515625 60.890625 
Q 47.90625 63.578125 42.921875 64.890625 
Q 37.9375 66.21875 33.296875 66.21875 
Q 25.25 66.21875 20.875 63.09375 
Q 16.5 59.96875 16.5 54.203125 
Q 16.5 49.359375 19.40625 46.890625 
Q 22.3125 44.4375 30.421875 42.921875 
L 36.375 41.703125 
Q 47.40625 39.59375 52.65625 34.296875 
Q 57.90625 29 57.90625 20.125 
Q 57.90625 9.515625 50.796875 4.046875 
Q 43.703125 -1.421875 29.984375 -1.421875 
Q 24.8125 -1.421875 18.96875 -0.25 
Q 13.140625 0.921875 6.890625 3.21875 
L 6.890625 13.375 
Q 12.890625 10.015625 18.65625 8.296875 
Q 24.421875 6.59375 29.984375 6.59375 
Q 38.421875 6.59375 43.015625 9.90625 
Q 47.609375 13.234375 47.609375 19.390625 
Q 47.609375 24.75 44.3125 27.78125 
Q 41.015625 30.8125 33.5 32.328125 
L 27.484375 33.5 
Q 16.453125 35.6875 11.515625 40.375 
Q 6.59375 45.0625 6.59375 53.421875 
Q 6.59375 63.09375 13.40625 68.65625 
Q 20.21875 74.21875 32.171875 74.21875 
Q 37.3125 74.21875 42.625 73.28125 
Q 47.953125 72.359375 53.515625 70.515625 
z
" id="DejaVuSans-83"/>
    </defs>
    <g style="fill:#e377c2;" transform="translate(212.134426 493.4662)scale(0.1 -0.1)">
     <use xlink:href="#DejaVuSans-75"/>
     <use x="65.576172" xlink:href="#DejaVuSans-83"/>
    </g>
   </g>
   <g id="text_14">
    <g id="patch_12">
     <path d="M 477.01082 381.040433 
C 478.51082 382.540433 490.813945 382.540433 492.313945 381.040433 
C 493.813945 379.540433 493.813945 369.862308 492.313945 368.362308 
C 490.813945 366.862308 478.51082 366.862308 477.01082 368.362308 
C 475.51082 369.862308 475.51082 379.540433 477.01082 381.040433 
z
" style="fill:#ffffff;stroke:#7f7f7f;stroke-linejoin:miter;"/>
    </g>
    <!-- KY -->
    <defs>
     <path d="M -0.203125 72.90625 
L 10.40625 72.90625 
L 30.609375 42.921875 
L 50.6875 72.90625 
L 61.28125 72.90625 
L 35.5 34.71875 
L 35.5 0 
L 25.59375 0 
L 25.59375 34.71875 
z
" id="DejaVuSans-89"/>
    </defs>
    <g style="fill:#7f7f7f;" transform="translate(478.51082 377.460745)scale(0.1 -0.1)">
     <use xlink:href="#DejaVuSans-75"/>
     <use x="61.951172" xlink:href="#DejaVuSans-89"/>
    </g>
   </g>
   <g id="text_15">
    <g id="patch_13">
     <path d="M 357.999518 359.977876 
C 359.499518 361.477876 375.608893 361.477876 377.108893 359.977876 
C 378.608893 358.477876 378.608893 348.799751 377.108893 347.299751 
C 375.608893 345.799751 359.499518 345.799751 357.999518 347.299751 
C 356.499518 348.799751 356.499518 358.477876 357.999518 359.977876 
z
" style="fill:#ffffff;stroke:#bcbd22;stroke-linejoin:miter;"/>
    </g>
    <!-- MN -->
    <defs>
     <path d="M 9.8125 72.90625 
L 24.515625 72.90625 
L 43.109375 23.296875 
L 61.8125 72.90625 
L 76.515625 72.90625 
L 76.515625 0 
L 66.890625 0 
L 66.890625 64.015625 
L 48.09375 14.015625 
L 38.1875 14.015625 
L 19.390625 64.015625 
L 19.390625 0 
L 9.8125 0 
z
" id="DejaVuSans-77"/>
     <path d="M 9.8125 72.90625 
L 23.09375 72.90625 
L 55.421875 11.921875 
L 55.421875 72.90625 
L 64.984375 72.90625 
L 64.984375 0 
L 51.703125 0 
L 19.390625 60.984375 
L 19.390625 0 
L 9.8125 0 
z
" id="DejaVuSans-78"/>
    </defs>
    <g style="fill:#bcbd22;" transform="translate(359.499518 356.398188)scale(0.1 -0.1)">
     <use xlink:href="#DejaVuSans-77"/>
     <use x="86.279297" xlink:href="#DejaVuSans-78"/>
    </g>
   </g>
   <g id="text_16">
    <g id="patch_14">
     <path d="M 549.703279 323.093935 
C 551.203279 324.593935 567.703279 324.593935 569.203279 323.093935 
C 570.703279 321.593935 570.703279 311.91581 569.203279 310.41581 
C 567.703279 308.91581 551.203279 308.91581 549.703279 310.41581 
C 548.203279 311.91581 548.203279 321.593935 549.703279 323.093935 
z
" style="fill:#ffffff;stroke:#17becf;stroke-linejoin:miter;"/>
    </g>
    <!-- MO -->
    <g style="fill:#17becf;" transform="translate(551.203279 319.514247)scale(0.1 -0.1)">
     <use xlink:href="#DejaVuSans-77"/>
     <use x="86.279297" xlink:href="#DejaVuSans-79"/>
    </g>
   </g>
   <g id="text_17">
    <g id="patch_15">
     <path d="M 459.447541 371.806808 
C 460.947541 373.306808 475.924103 373.306808 477.424103 371.806808 
C 478.924103 370.306808 478.924103 360.628683 477.424103 359.128683 
C 475.924103 357.628683 460.947541 357.628683 459.447541 359.128683 
C 457.947541 360.628683 457.947541 370.306808 459.447541 371.806808 
z
" style="fill:#ffffff;stroke:#1f77b4;stroke-linejoin:miter;"/>
    </g>
    <!-- MS -->
    <g style="fill:#1f77b4;" transform="translate(460.947541 368.227121)scale(0.1 -0.1)">
     <use xlink:href="#DejaVuSans-77"/>
     <use x="86.279297" xlink:href="#DejaVuSans-83"/>
    </g>
   </g>
   <g id="text_18">
    <g id="patch_16">
     <path d="M 444.1462 317.266218 
C 445.6462 318.766218 460.110262 318.766218 461.610262 317.266218 
C 463.110262 315.766218 463.110262 306.088093 461.610262 304.588093 
C 460.110262 303.088093 445.6462 303.088093 444.1462 304.588093 
C 442.6462 306.088093 442.6462 315.766218 444.1462 317.266218 
z
" style="fill:#ffffff;stroke:#ff7f0e;stroke-linejoin:miter;"/>
    </g>
    <!-- NC -->
    <g style="fill:#ff7f0e;" transform="translate(445.6462 313.686531)scale(0.1 -0.1)">
     <use xlink:href="#DejaVuSans-78"/>
     <use x="74.804688" xlink:href="#DejaVuSans-67"/>
    </g>
   </g>
   <g id="text_19">
    <g id="patch_17">
     <path d="M 539.280626 377.926273 
C 540.780626 379.426273 555.102501 379.426273 556.602501 377.926273 
C 558.102501 376.426273 558.102501 366.748148 556.602501 365.248148 
C 555.102501 363.748148 540.780626 363.748148 539.280626 365.248148 
C 537.780626 366.748148 537.780626 376.426273 539.280626 377.926273 
z
" style="fill:#ffffff;stroke:#2ca02c;stroke-linejoin:miter;"/>
    </g>
    <!-- NV -->
    <defs>
     <path d="M 28.609375 0 
L 0.78125 72.90625 
L 11.078125 72.90625 
L 34.1875 11.53125 
L 57.328125 72.90625 
L 67.578125 72.90625 
L 39.796875 0 
z
" id="DejaVuSans-86"/>
    </defs>
    <g style="fill:#2ca02c;" transform="translate(540.780626 374.346586)scale(0.1 -0.1)">
     <use xlink:href="#DejaVuSans-78"/>
     <use x="74.804688" xlink:href="#DejaVuSans-86"/>
    </g>
   </g>
   <g id="text_20">
    <g id="patch_18">
     <path d="M 460.802732 393.88364 
C 462.302732 395.38364 476.73242 395.38364 478.23242 393.88364 
C 479.73242 392.38364 479.73242 382.705515 478.23242 381.205515 
C 476.73242 379.705515 462.302732 379.705515 460.802732 381.205515 
C 459.302732 382.705515 459.302732 392.38364 460.802732 393.88364 
z
" style="fill:#ffffff;stroke:#d62728;stroke-linejoin:miter;"/>
    </g>
    <!-- OK -->
    <g style="fill:#d62728;" transform="translate(462.302732 390.303952)scale(0.1 -0.1)">
     <use xlink:href="#DejaVuSans-79"/>
     <use x="78.710938" xlink:href="#DejaVuSans-75"/>
    </g>
   </g>
   <g id="text_21">
    <g id="patch_19">
     <path d="M 378.000546 378.960211 
C 379.500546 380.460211 389.398984 380.460211 390.898984 378.960211 
C 392.398984 377.460211 392.398984 367.782086 390.898984 366.282086 
C 389.398984 364.782086 379.500546 364.782086 378.000546 366.282086 
C 376.500546 367.782086 376.500546 377.460211 378.000546 378.960211 
z
" style="fill:#ffffff;stroke:#9467bd;stroke-linejoin:miter;"/>
    </g>
    <!-- RI -->
    <defs>
     <path d="M 44.390625 34.1875 
Q 47.5625 33.109375 50.5625 29.59375 
Q 53.5625 26.078125 56.59375 19.921875 
L 66.609375 0 
L 56 0 
L 46.6875 18.703125 
Q 43.0625 26.03125 39.671875 28.421875 
Q 36.28125 30.8125 30.421875 30.8125 
L 19.671875 30.8125 
L 19.671875 0 
L 9.8125 0 
L 9.8125 72.90625 
L 32.078125 72.90625 
Q 44.578125 72.90625 50.734375 67.671875 
Q 56.890625 62.453125 56.890625 51.90625 
Q 56.890625 45.015625 53.6875 40.46875 
Q 50.484375 35.9375 44.390625 34.1875 
z
M 19.671875 64.796875 
L 19.671875 38.921875 
L 32.078125 38.921875 
Q 39.203125 38.921875 42.84375 42.21875 
Q 46.484375 45.515625 46.484375 51.90625 
Q 46.484375 58.296875 42.84375 61.546875 
Q 39.203125 64.796875 32.078125 64.796875 
z
" id="DejaVuSans-82"/>
    </defs>
    <g style="fill:#9467bd;" transform="translate(379.500546 375.380524)scale(0.1 -0.1)">
     <use xlink:href="#DejaVuSans-82"/>
     <use x="69.482422" xlink:href="#DejaVuSans-73"/>
    </g>
   </g>
   <g id="text_22">
    <g id="patch_20">
     <path d="M 423.101311 430.393373 
C 424.601311 431.893373 437.932561 431.893373 439.432561 430.393373 
C 440.932561 428.893373 440.932561 419.215248 439.432561 417.715248 
C 437.932561 416.215248 424.601311 416.215248 423.101311 417.715248 
C 421.601311 419.215248 421.601311 428.893373 423.101311 430.393373 
z
" style="fill:#ffffff;stroke:#8c564b;stroke-linejoin:miter;"/>
    </g>
    <!-- SC -->
    <g style="fill:#8c564b;" transform="translate(424.601311 426.813685)scale(0.1 -0.1)">
     <use xlink:href="#DejaVuSans-83"/>
     <use x="63.476562" xlink:href="#DejaVuSans-67"/>
    </g>
   </g>
   <g id="text_23">
    <g id="patch_21">
     <path d="M 506.608197 416.827013 
C 508.108197 418.327013 521.697259 418.327013 523.197259 416.827013 
C 524.697259 415.327013 524.697259 405.648888 523.197259 404.148888 
C 521.697259 402.648888 508.108197 402.648888 506.608197 404.148888 
C 505.108197 405.648888 505.108197 415.327013 506.608197 416.827013 
z
" style="fill:#ffffff;stroke:#e377c2;stroke-linejoin:miter;"/>
    </g>
    <!-- TN -->
    <defs>
     <path d="M -0.296875 72.90625 
L 61.375 72.90625 
L 61.375 64.59375 
L 35.5 64.59375 
L 35.5 0 
L 25.59375 0 
L 25.59375 64.59375 
L -0.296875 64.59375 
z
" id="DejaVuSans-84"/>
    </defs>
    <g style="fill:#e377c2;" transform="translate(508.108197 413.247326)scale(0.1 -0.1)">
     <use xlink:href="#DejaVuSans-84"/>
     <use x="61.083984" xlink:href="#DejaVuSans-78"/>
    </g>
   </g>
   <g id="text_24">
    <g id="patch_22">
     <path d="M 760.3 127.482339 
C 761.8 128.982339 774.757813 128.982339 776.257813 127.482339 
C 777.757813 125.982339 777.757813 116.304214 776.257813 114.804214 
C 774.757813 113.304214 761.8 113.304214 760.3 114.804214 
C 758.8 116.304214 758.8 125.982339 760.3 127.482339 
z
" style="fill:#ffffff;stroke:#7f7f7f;stroke-linejoin:miter;"/>
    </g>
    <!-- TX -->
    <defs>
     <path d="M 6.296875 72.90625 
L 16.890625 72.90625 
L 35.015625 45.796875 
L 53.21875 72.90625 
L 63.8125 72.90625 
L 40.375 37.890625 
L 65.375 0 
L 54.78125 0 
L 34.28125 31 
L 13.625 0 
L 2.984375 0 
L 29 38.921875 
z
" id="DejaVuSans-88"/>
    </defs>
    <g style="fill:#7f7f7f;" transform="translate(761.8 123.902652)scale(0.1 -0.1)">
     <use xlink:href="#DejaVuSans-84"/>
     <use x="61.083984" xlink:href="#DejaVuSans-88"/>
    </g>
   </g>
   <g id="text_25">
    <g id="patch_23">
     <path d="M 599.566345 221.590928 
C 601.066345 223.090928 614.110095 223.090928 615.610095 221.590928 
C 617.110095 220.090928 617.110095 210.412803 615.610095 208.912803 
C 614.110095 207.412803 601.066345 207.412803 599.566345 208.912803 
C 598.066345 210.412803 598.066345 220.090928 599.566345 221.590928 
z
" style="fill:#ffffff;stroke:#bcbd22;stroke-linejoin:miter;"/>
    </g>
    <!-- VA -->
    <g style="fill:#bcbd22;" transform="translate(601.066345 218.011241)scale(0.1 -0.1)">
     <use xlink:href="#DejaVuSans-86"/>
     <use x="62.033203" xlink:href="#DejaVuSans-65"/>
    </g>
   </g>
   <g id="text_26">
    <g id="patch_24">
     <path d="M 620.240984 323.093935 
C 621.740984 324.593935 634.578484 324.593935 636.078484 323.093935 
C 637.578484 321.593935 637.578484 311.91581 636.078484 310.41581 
C 634.578484 308.91581 621.740984 308.91581 620.240984 310.41581 
C 618.740984 311.91581 618.740984 321.593935 620.240984 323.093935 
z
" style="fill:#ffffff;stroke:#17becf;stroke-linejoin:miter;"/>
    </g>
    <!-- WI -->
    <defs>
     <path d="M 3.328125 72.90625 
L 13.28125 72.90625 
L 28.609375 11.28125 
L 43.890625 72.90625 
L 54.984375 72.90625 
L 70.3125 11.28125 
L 85.59375 72.90625 
L 95.609375 72.90625 
L 77.296875 0 
L 64.890625 0 
L 49.515625 63.28125 
L 33.984375 0 
L 21.578125 0 
z
" id="DejaVuSans-87"/>
    </defs>
    <g style="fill:#17becf;" transform="translate(621.740984 319.514247)scale(0.1 -0.1)">
     <use xlink:href="#DejaVuSans-87"/>
     <use x="98.876953" xlink:href="#DejaVuSans-73"/>
    </g>
   </g>
   <g id="text_27">
    <!-- 1d -->
    <g style="fill:#b2b2b2;" transform="translate(180.792131 96.489573)scale(0.1 -0.1)">
     <use xlink:href="#DejaVuSans-49"/>
     <use x="63.623047" xlink:href="#DejaVuSans-100"/>
    </g>
   </g>
   <g id="text_28">
    <!-- 2d -->
    <g style="fill:#b2b2b2;" transform="translate(272.75541 87.167507)scale(0.1 -0.1)">
     <use xlink:href="#DejaVuSans-50"/>
     <use x="63.623047" xlink:href="#DejaVuSans-100"/>
    </g>
   </g>
   <g id="text_29">
    <!-- 3d -->
    <defs>
     <path d="M 40.578125 39.3125 
Q 47.65625 37.796875 51.625 33 
Q 55.609375 28.21875 55.609375 21.1875 
Q 55.609375 10.40625 48.1875 4.484375 
Q 40.765625 -1.421875 27.09375 -1.421875 
Q 22.515625 -1.421875 17.65625 -0.515625 
Q 12.796875 0.390625 7.625 2.203125 
L 7.625 11.71875 
Q 11.71875 9.328125 16.59375 8.109375 
Q 21.484375 6.890625 26.8125 6.890625 
Q 36.078125 6.890625 40.9375 10.546875 
Q 45.796875 14.203125 45.796875 21.1875 
Q 45.796875 27.640625 41.28125 31.265625 
Q 36.765625 34.90625 28.71875 34.90625 
L 20.21875 34.90625 
L 20.21875 43.015625 
L 29.109375 43.015625 
Q 36.375 43.015625 40.234375 45.921875 
Q 44.09375 48.828125 44.09375 54.296875 
Q 44.09375 59.90625 40.109375 62.90625 
Q 36.140625 65.921875 28.71875 65.921875 
Q 24.65625 65.921875 20.015625 65.03125 
Q 15.375 64.15625 9.8125 62.3125 
L 9.8125 71.09375 
Q 15.4375 72.65625 20.34375 73.4375 
Q 25.25 74.21875 29.59375 74.21875 
Q 40.828125 74.21875 47.359375 69.109375 
Q 53.90625 64.015625 53.90625 55.328125 
Q 53.90625 49.265625 50.4375 45.09375 
Q 46.96875 40.921875 40.578125 39.3125 
z
" id="DejaVuSans-51"/>
    </defs>
    <g style="fill:#b2b2b2;" transform="translate(361.547541 90.282044)scale(0.1 -0.1)">
     <use xlink:href="#DejaVuSans-51"/>
     <use x="63.623047" xlink:href="#DejaVuSans-100"/>
    </g>
   </g>
   <g id="text_30">
    <!-- 7d -->
    <g style="fill:#b2b2b2;" transform="translate(726.229508 85.830501)scale(0.1 -0.1)">
     <use xlink:href="#DejaVuSans-55"/>
     <use x="63.623047" xlink:href="#DejaVuSans-100"/>
    </g>
   </g>
   <g id="text_31">
    <!-- COVID-19 Deaths by States as of 2020-04-25 03:04 EDT -->
    <defs>
     <path d="M 4.890625 31.390625 
L 31.203125 31.390625 
L 31.203125 23.390625 
L 4.890625 23.390625 
z
" id="DejaVuSans-45"/>
     <path d="M 10.984375 1.515625 
L 10.984375 10.5 
Q 14.703125 8.734375 18.5 7.8125 
Q 22.3125 6.890625 25.984375 6.890625 
Q 35.75 6.890625 40.890625 13.453125 
Q 46.046875 20.015625 46.78125 33.40625 
Q 43.953125 29.203125 39.59375 26.953125 
Q 35.25 24.703125 29.984375 24.703125 
Q 19.046875 24.703125 12.671875 31.3125 
Q 6.296875 37.9375 6.296875 49.421875 
Q 6.296875 60.640625 12.9375 67.421875 
Q 19.578125 74.21875 30.609375 74.21875 
Q 43.265625 74.21875 49.921875 64.515625 
Q 56.59375 54.828125 56.59375 36.375 
Q 56.59375 19.140625 48.40625 8.859375 
Q 40.234375 -1.421875 26.421875 -1.421875 
Q 22.703125 -1.421875 18.890625 -0.6875 
Q 15.09375 0.046875 10.984375 1.515625 
z
M 30.609375 32.421875 
Q 37.25 32.421875 41.125 36.953125 
Q 45.015625 41.5 45.015625 49.421875 
Q 45.015625 57.28125 41.125 61.84375 
Q 37.25 66.40625 30.609375 66.40625 
Q 23.96875 66.40625 20.09375 61.84375 
Q 16.21875 57.28125 16.21875 49.421875 
Q 16.21875 41.5 20.09375 36.953125 
Q 23.96875 32.421875 30.609375 32.421875 
z
" id="DejaVuSans-57"/>
     <path d="M 48.6875 27.296875 
Q 48.6875 37.203125 44.609375 42.84375 
Q 40.53125 48.484375 33.40625 48.484375 
Q 26.265625 48.484375 22.1875 42.84375 
Q 18.109375 37.203125 18.109375 27.296875 
Q 18.109375 17.390625 22.1875 11.75 
Q 26.265625 6.109375 33.40625 6.109375 
Q 40.53125 6.109375 44.609375 11.75 
Q 48.6875 17.390625 48.6875 27.296875 
z
M 18.109375 46.390625 
Q 20.953125 51.265625 25.265625 53.625 
Q 29.59375 56 35.59375 56 
Q 45.5625 56 51.78125 48.09375 
Q 58.015625 40.1875 58.015625 27.296875 
Q 58.015625 14.40625 51.78125 6.484375 
Q 45.5625 -1.421875 35.59375 -1.421875 
Q 29.59375 -1.421875 25.265625 0.953125 
Q 20.953125 3.328125 18.109375 8.203125 
L 18.109375 0 
L 9.078125 0 
L 9.078125 75.984375 
L 18.109375 75.984375 
z
" id="DejaVuSans-98"/>
     <path d="M 30.609375 48.390625 
Q 23.390625 48.390625 19.1875 42.75 
Q 14.984375 37.109375 14.984375 27.296875 
Q 14.984375 17.484375 19.15625 11.84375 
Q 23.34375 6.203125 30.609375 6.203125 
Q 37.796875 6.203125 41.984375 11.859375 
Q 46.1875 17.53125 46.1875 27.296875 
Q 46.1875 37.015625 41.984375 42.703125 
Q 37.796875 48.390625 30.609375 48.390625 
z
M 30.609375 56 
Q 42.328125 56 49.015625 48.375 
Q 55.71875 40.765625 55.71875 27.296875 
Q 55.71875 13.875 49.015625 6.21875 
Q 42.328125 -1.421875 30.609375 -1.421875 
Q 18.84375 -1.421875 12.171875 6.21875 
Q 5.515625 13.875 5.515625 27.296875 
Q 5.515625 40.765625 12.171875 48.375 
Q 18.84375 56 30.609375 56 
z
" id="DejaVuSans-111"/>
     <path d="M 37.109375 75.984375 
L 37.109375 68.5 
L 28.515625 68.5 
Q 23.6875 68.5 21.796875 66.546875 
Q 19.921875 64.59375 19.921875 59.515625 
L 19.921875 54.6875 
L 34.71875 54.6875 
L 34.71875 47.703125 
L 19.921875 47.703125 
L 19.921875 0 
L 10.890625 0 
L 10.890625 47.703125 
L 2.296875 47.703125 
L 2.296875 54.6875 
L 10.890625 54.6875 
L 10.890625 58.5 
Q 10.890625 67.625 15.140625 71.796875 
Q 19.390625 75.984375 28.609375 75.984375 
z
" id="DejaVuSans-102"/>
     <path d="M 10.796875 72.90625 
L 49.515625 72.90625 
L 49.515625 64.59375 
L 19.828125 64.59375 
L 19.828125 46.734375 
Q 21.96875 47.46875 24.109375 47.828125 
Q 26.265625 48.1875 28.421875 48.1875 
Q 40.625 48.1875 47.75 41.5 
Q 54.890625 34.8125 54.890625 23.390625 
Q 54.890625 11.625 47.5625 5.09375 
Q 40.234375 -1.421875 26.90625 -1.421875 
Q 22.3125 -1.421875 17.546875 -0.640625 
Q 12.796875 0.140625 7.71875 1.703125 
L 7.71875 11.625 
Q 12.109375 9.234375 16.796875 8.0625 
Q 21.484375 6.890625 26.703125 6.890625 
Q 35.15625 6.890625 40.078125 11.328125 
Q 45.015625 15.765625 45.015625 23.390625 
Q 45.015625 31 40.078125 35.4375 
Q 35.15625 39.890625 26.703125 39.890625 
Q 22.75 39.890625 18.8125 39.015625 
Q 14.890625 38.140625 10.796875 36.28125 
z
" id="DejaVuSans-53"/>
     <path d="M 11.71875 12.40625 
L 22.015625 12.40625 
L 22.015625 0 
L 11.71875 0 
z
M 11.71875 51.703125 
L 22.015625 51.703125 
L 22.015625 39.3125 
L 11.71875 39.3125 
z
" id="DejaVuSans-58"/>
    </defs>
    <g style="fill:#666666;" transform="translate(310.883438 63.12)scale(0.12 -0.12)">
     <use xlink:href="#DejaVuSans-67"/>
     <use x="69.824219" xlink:href="#DejaVuSans-79"/>
     <use x="146.785156" xlink:href="#DejaVuSans-86"/>
     <use x="215.193359" xlink:href="#DejaVuSans-73"/>
     <use x="244.685547" xlink:href="#DejaVuSans-68"/>
     <use x="321.6875" xlink:href="#DejaVuSans-45"/>
     <use x="357.771484" xlink:href="#DejaVuSans-49"/>
     <use x="421.394531" xlink:href="#DejaVuSans-57"/>
     <use x="485.017578" xlink:href="#DejaVuSans-32"/>
     <use x="516.804688" xlink:href="#DejaVuSans-68"/>
     <use x="593.806641" xlink:href="#DejaVuSans-101"/>
     <use x="655.330078" xlink:href="#DejaVuSans-97"/>
     <use x="716.609375" xlink:href="#DejaVuSans-116"/>
     <use x="755.818359" xlink:href="#DejaVuSans-104"/>
     <use x="819.197266" xlink:href="#DejaVuSans-115"/>
     <use x="871.296875" xlink:href="#DejaVuSans-32"/>
     <use x="903.083984" xlink:href="#DejaVuSans-98"/>
     <use x="966.560547" xlink:href="#DejaVuSans-121"/>
     <use x="1025.740234" xlink:href="#DejaVuSans-32"/>
     <use x="1057.527344" xlink:href="#DejaVuSans-83"/>
     <use x="1121.003906" xlink:href="#DejaVuSans-116"/>
     <use x="1160.212891" xlink:href="#DejaVuSans-97"/>
     <use x="1221.492188" xlink:href="#DejaVuSans-116"/>
     <use x="1260.701172" xlink:href="#DejaVuSans-101"/>
     <use x="1322.224609" xlink:href="#DejaVuSans-115"/>
     <use x="1374.324219" xlink:href="#DejaVuSans-32"/>
     <use x="1406.111328" xlink:href="#DejaVuSans-97"/>
     <use x="1467.390625" xlink:href="#DejaVuSans-115"/>
     <use x="1519.490234" xlink:href="#DejaVuSans-32"/>
     <use x="1551.277344" xlink:href="#DejaVuSans-111"/>
     <use x="1612.458984" xlink:href="#DejaVuSans-102"/>
     <use x="1647.664062" xlink:href="#DejaVuSans-32"/>
     <use x="1679.451172" xlink:href="#DejaVuSans-50"/>
     <use x="1743.074219" xlink:href="#DejaVuSans-48"/>
     <use x="1806.697266" xlink:href="#DejaVuSans-50"/>
     <use x="1870.320312" xlink:href="#DejaVuSans-48"/>
     <use x="1933.943359" xlink:href="#DejaVuSans-45"/>
     <use x="1970.027344" xlink:href="#DejaVuSans-48"/>
     <use x="2033.650391" xlink:href="#DejaVuSans-52"/>
     <use x="2097.273438" xlink:href="#DejaVuSans-45"/>
     <use x="2133.357422" xlink:href="#DejaVuSans-50"/>
     <use x="2196.980469" xlink:href="#DejaVuSans-53"/>
     <use x="2260.603516" xlink:href="#DejaVuSans-32"/>
     <use x="2292.390625" xlink:href="#DejaVuSans-48"/>
     <use x="2356.013672" xlink:href="#DejaVuSans-51"/>
     <use x="2419.636719" xlink:href="#DejaVuSans-58"/>
     <use x="2453.328125" xlink:href="#DejaVuSans-48"/>
     <use x="2516.951172" xlink:href="#DejaVuSans-52"/>
     <use x="2580.574219" xlink:href="#DejaVuSans-32"/>
     <use x="2612.361328" xlink:href="#DejaVuSans-69"/>
     <use x="2675.544922" xlink:href="#DejaVuSans-68"/>
     <use x="2752.546875" xlink:href="#DejaVuSans-84"/>
    </g>
   </g>
  </g>
 </g>
 <defs>
  <clipPath id="p82009c439d">
   <rect height="443.52" width="725.4" x="117" y="69.12"/>
  </clipPath>
 </defs>
</svg>
