<?xml version="1.0" encoding="utf-8" standalone="no"?>
<!DOCTYPE svg PUBLIC "-//W3C//DTD SVG 1.1//EN"
  "http://www.w3.org/Graphics/SVG/1.1/DTD/svg11.dtd">
<!-- Created with matplotlib (https://matplotlib.org/) -->
<svg height="576pt" version="1.1" viewBox="0 0 936 576" width="936pt" xmlns="http://www.w3.org/2000/svg" xmlns:xlink="http://www.w3.org/1999/xlink">
 <defs>
  <style type="text/css">
*{stroke-linecap:butt;stroke-linejoin:round;}
  </style>
 </defs>
 <g id="figure_1">
  <g id="patch_1">
   <path d="M 0 576 
L 936 576 
L 936 0 
L 0 0 
z
" style="fill:#ffffff;"/>
  </g>
  <g id="axes_1">
   <g id="patch_2">
    <path d="M 117 512.64 
L 842.4 512.64 
L 842.4 69.12 
L 117 69.12 
z
" style="fill:#ffffff;"/>
   </g>
   <g id="line2d_1">
    <path clip-path="url(#p59acdbb99b)" d="M 117 512.64 
L 123.3044 483.149708 
L 129.6088 452.830331 
L 135.913199 421.658561 
L 142.217599 389.610433 
L 148.521999 356.661309 
L 154.826399 322.785859 
L 161.130798 287.958041 
L 167.435198 252.151079 
L 173.739598 215.337447 
L 180.043998 177.488843 
L 186.348398 138.576169 
L 192.652797 98.569512 
L 198.957197 57.438114 
L 207.619852 -1 
L 207.619852 -1 
" style="fill:none;stroke:#b2b2b2;stroke-dasharray:1.5,2.475;stroke-dashoffset:0;stroke-width:1.5;"/>
   </g>
   <g id="line2d_2">
    <path clip-path="url(#p59acdbb99b)" d="M 117 512.64 
L 126.4566 490.599111 
L 135.913199 468.095097 
L 145.369799 445.118225 
L 154.826399 421.658561 
L 164.282998 397.705959 
L 173.739598 373.250062 
L 183.196198 348.280294 
L 192.652797 322.785859 
L 202.109397 296.755731 
L 211.565997 270.178655 
L 221.022596 243.043139 
L 230.479196 215.337447 
L 239.935796 187.0496 
L 249.392395 158.167365 
L 258.848995 128.678253 
L 268.305595 98.569512 
L 277.762194 67.828122 
L 287.218794 36.44079 
L 298.245187 -1 
L 298.245187 -1 
" style="fill:none;stroke:#b2b2b2;stroke-dasharray:1.5,2.475;stroke-dashoffset:0;stroke-width:1.5;"/>
   </g>
   <g id="line2d_3">
    <path clip-path="url(#p59acdbb99b)" d="M 117 512.64 
L 129.6088 493.070793 
L 142.217599 473.136508 
L 154.826399 452.830331 
L 167.435198 432.145327 
L 180.043998 411.074427 
L 192.652797 389.610433 
L 205.261597 367.74601 
L 217.870397 345.473688 
L 230.479196 322.785859 
L 243.087996 299.67477 
L 255.696795 276.132524 
L 268.305595 252.151079 
L 280.914394 227.722241 
L 293.523194 202.837663 
L 306.131993 177.488843 
L 318.740793 151.66712 
L 331.349593 125.363672 
L 343.958392 98.569512 
L 356.567192 71.275485 
L 369.175991 43.472266 
L 381.784791 15.150355 
L 388.870519 -1 
L 388.870519 -1 
" style="fill:none;stroke:#b2b2b2;stroke-dasharray:1.5,2.475;stroke-dashoffset:0;stroke-width:1.5;"/>
   </g>
   <g id="line2d_4">
    <path clip-path="url(#p59acdbb99b)" d="M 117 512.64 
L 142.217599 495.888589 
L 167.435198 478.869666 
L 192.652797 461.578958 
L 217.870397 444.012126 
L 243.087996 426.164759 
L 268.305595 408.032379 
L 293.523194 389.610433 
L 318.740793 370.894296 
L 343.958392 351.879272 
L 369.175991 332.560587 
L 394.39359 312.933391 
L 419.61119 292.992758 
L 444.828789 272.733683 
L 470.046388 252.151079 
L 492.111787 233.871847 
L 514.177186 215.337447 
L 536.242586 196.544316 
L 558.307985 177.488843 
L 580.373384 158.167365 
L 602.438783 138.576169 
L 624.504183 118.711491 
L 646.569582 98.569512 
L 668.634981 78.146361 
L 690.70038 57.438114 
L 712.765779 36.44079 
L 734.831179 15.150355 
L 751.367136 -1 
L 751.367136 -1 
" style="fill:none;stroke:#b2b2b2;stroke-dasharray:1.5,2.475;stroke-dashoffset:0;stroke-width:1.5;"/>
   </g>
   <g id="matplotlib.axis_1">
    <g id="xtick_1">
     <g id="line2d_5">
      <path clip-path="url(#p59acdbb99b)" d="M 117 512.64 
L 117 69.12 
" style="fill:none;stroke:#e6e6e6;stroke-linecap:square;stroke-width:0.8;"/>
     </g>
     <g id="line2d_6">
      <defs>
       <path d="M 0 0 
L 0 3.5 
" id="m8c77852b23" style="stroke:#666666;stroke-width:0.8;"/>
      </defs>
      <g>
       <use style="fill:#666666;stroke:#666666;stroke-width:0.8;" x="117" xlink:href="#m8c77852b23" y="512.64"/>
      </g>
     </g>
     <g id="text_1">
      <!-- 0 -->
      <defs>
       <path d="M 31.78125 66.40625 
Q 24.171875 66.40625 20.328125 58.90625 
Q 16.5 51.421875 16.5 36.375 
Q 16.5 21.390625 20.328125 13.890625 
Q 24.171875 6.390625 31.78125 6.390625 
Q 39.453125 6.390625 43.28125 13.890625 
Q 47.125 21.390625 47.125 36.375 
Q 47.125 51.421875 43.28125 58.90625 
Q 39.453125 66.40625 31.78125 66.40625 
z
M 31.78125 74.21875 
Q 44.046875 74.21875 50.515625 64.515625 
Q 56.984375 54.828125 56.984375 36.375 
Q 56.984375 17.96875 50.515625 8.265625 
Q 44.046875 -1.421875 31.78125 -1.421875 
Q 19.53125 -1.421875 13.0625 8.265625 
Q 6.59375 17.96875 6.59375 36.375 
Q 6.59375 54.828125 13.0625 64.515625 
Q 19.53125 74.21875 31.78125 74.21875 
z
" id="DejaVuSans-48"/>
      </defs>
      <g style="fill:#666666;" transform="translate(113.81875 527.238438)scale(0.1 -0.1)">
       <use xlink:href="#DejaVuSans-48"/>
      </g>
     </g>
    </g>
    <g id="xtick_2">
     <g id="line2d_7">
      <path clip-path="url(#p59acdbb99b)" d="M 337.653992 512.64 
L 337.653992 69.12 
" style="fill:none;stroke:#e6e6e6;stroke-linecap:square;stroke-width:0.8;"/>
     </g>
     <g id="line2d_8">
      <g>
       <use style="fill:#666666;stroke:#666666;stroke-width:0.8;" x="337.653992" xlink:href="#m8c77852b23" y="512.64"/>
      </g>
     </g>
     <g id="text_2">
      <!-- 7 -->
      <defs>
       <path d="M 8.203125 72.90625 
L 55.078125 72.90625 
L 55.078125 68.703125 
L 28.609375 0 
L 18.3125 0 
L 43.21875 64.59375 
L 8.203125 64.59375 
z
" id="DejaVuSans-55"/>
      </defs>
      <g style="fill:#666666;" transform="translate(334.472742 527.238438)scale(0.1 -0.1)">
       <use xlink:href="#DejaVuSans-55"/>
      </g>
     </g>
    </g>
    <g id="xtick_3">
     <g id="line2d_9">
      <path clip-path="url(#p59acdbb99b)" d="M 558.307985 512.64 
L 558.307985 69.12 
" style="fill:none;stroke:#e6e6e6;stroke-linecap:square;stroke-width:0.8;"/>
     </g>
     <g id="line2d_10">
      <g>
       <use style="fill:#666666;stroke:#666666;stroke-width:0.8;" x="558.307985" xlink:href="#m8c77852b23" y="512.64"/>
      </g>
     </g>
     <g id="text_3">
      <!-- 14 -->
      <defs>
       <path d="M 12.40625 8.296875 
L 28.515625 8.296875 
L 28.515625 63.921875 
L 10.984375 60.40625 
L 10.984375 69.390625 
L 28.421875 72.90625 
L 38.28125 72.90625 
L 38.28125 8.296875 
L 54.390625 8.296875 
L 54.390625 0 
L 12.40625 0 
z
" id="DejaVuSans-49"/>
       <path d="M 37.796875 64.3125 
L 12.890625 25.390625 
L 37.796875 25.390625 
z
M 35.203125 72.90625 
L 47.609375 72.90625 
L 47.609375 25.390625 
L 58.015625 25.390625 
L 58.015625 17.1875 
L 47.609375 17.1875 
L 47.609375 0 
L 37.796875 0 
L 37.796875 17.1875 
L 4.890625 17.1875 
L 4.890625 26.703125 
z
" id="DejaVuSans-52"/>
      </defs>
      <g style="fill:#666666;" transform="translate(551.945485 527.238438)scale(0.1 -0.1)">
       <use xlink:href="#DejaVuSans-49"/>
       <use x="63.623047" xlink:href="#DejaVuSans-52"/>
      </g>
     </g>
    </g>
    <g id="xtick_4">
     <g id="line2d_11">
      <path clip-path="url(#p59acdbb99b)" d="M 778.961977 512.64 
L 778.961977 69.12 
" style="fill:none;stroke:#e6e6e6;stroke-linecap:square;stroke-width:0.8;"/>
     </g>
     <g id="line2d_12">
      <g>
       <use style="fill:#666666;stroke:#666666;stroke-width:0.8;" x="778.961977" xlink:href="#m8c77852b23" y="512.64"/>
      </g>
     </g>
     <g id="text_4">
      <!-- 21 -->
      <defs>
       <path d="M 19.1875 8.296875 
L 53.609375 8.296875 
L 53.609375 0 
L 7.328125 0 
L 7.328125 8.296875 
Q 12.9375 14.109375 22.625 23.890625 
Q 32.328125 33.6875 34.8125 36.53125 
Q 39.546875 41.84375 41.421875 45.53125 
Q 43.3125 49.21875 43.3125 52.78125 
Q 43.3125 58.59375 39.234375 62.25 
Q 35.15625 65.921875 28.609375 65.921875 
Q 23.96875 65.921875 18.8125 64.3125 
Q 13.671875 62.703125 7.8125 59.421875 
L 7.8125 69.390625 
Q 13.765625 71.78125 18.9375 73 
Q 24.125 74.21875 28.421875 74.21875 
Q 39.75 74.21875 46.484375 68.546875 
Q 53.21875 62.890625 53.21875 53.421875 
Q 53.21875 48.921875 51.53125 44.890625 
Q 49.859375 40.875 45.40625 35.40625 
Q 44.1875 33.984375 37.640625 27.21875 
Q 31.109375 20.453125 19.1875 8.296875 
z
" id="DejaVuSans-50"/>
      </defs>
      <g style="fill:#666666;" transform="translate(772.599477 527.238438)scale(0.1 -0.1)">
       <use xlink:href="#DejaVuSans-50"/>
       <use x="63.623047" xlink:href="#DejaVuSans-49"/>
      </g>
     </g>
    </g>
    <g id="text_5">
     <!-- Days since 100 deaths -->
     <defs>
      <path d="M 19.671875 64.796875 
L 19.671875 8.109375 
L 31.59375 8.109375 
Q 46.6875 8.109375 53.6875 14.9375 
Q 60.6875 21.78125 60.6875 36.53125 
Q 60.6875 51.171875 53.6875 57.984375 
Q 46.6875 64.796875 31.59375 64.796875 
z
M 9.8125 72.90625 
L 30.078125 72.90625 
Q 51.265625 72.90625 61.171875 64.09375 
Q 71.09375 55.28125 71.09375 36.53125 
Q 71.09375 17.671875 61.125 8.828125 
Q 51.171875 0 30.078125 0 
L 9.8125 0 
z
" id="DejaVuSans-68"/>
      <path d="M 34.28125 27.484375 
Q 23.390625 27.484375 19.1875 25 
Q 14.984375 22.515625 14.984375 16.5 
Q 14.984375 11.71875 18.140625 8.90625 
Q 21.296875 6.109375 26.703125 6.109375 
Q 34.1875 6.109375 38.703125 11.40625 
Q 43.21875 16.703125 43.21875 25.484375 
L 43.21875 27.484375 
z
M 52.203125 31.203125 
L 52.203125 0 
L 43.21875 0 
L 43.21875 8.296875 
Q 40.140625 3.328125 35.546875 0.953125 
Q 30.953125 -1.421875 24.3125 -1.421875 
Q 15.921875 -1.421875 10.953125 3.296875 
Q 6 8.015625 6 15.921875 
Q 6 25.140625 12.171875 29.828125 
Q 18.359375 34.515625 30.609375 34.515625 
L 43.21875 34.515625 
L 43.21875 35.40625 
Q 43.21875 41.609375 39.140625 45 
Q 35.0625 48.390625 27.6875 48.390625 
Q 23 48.390625 18.546875 47.265625 
Q 14.109375 46.140625 10.015625 43.890625 
L 10.015625 52.203125 
Q 14.9375 54.109375 19.578125 55.046875 
Q 24.21875 56 28.609375 56 
Q 40.484375 56 46.34375 49.84375 
Q 52.203125 43.703125 52.203125 31.203125 
z
" id="DejaVuSans-97"/>
      <path d="M 32.171875 -5.078125 
Q 28.375 -14.84375 24.75 -17.8125 
Q 21.140625 -20.796875 15.09375 -20.796875 
L 7.90625 -20.796875 
L 7.90625 -13.28125 
L 13.1875 -13.28125 
Q 16.890625 -13.28125 18.9375 -11.515625 
Q 21 -9.765625 23.484375 -3.21875 
L 25.09375 0.875 
L 2.984375 54.6875 
L 12.5 54.6875 
L 29.59375 11.921875 
L 46.6875 54.6875 
L 56.203125 54.6875 
z
" id="DejaVuSans-121"/>
      <path d="M 44.28125 53.078125 
L 44.28125 44.578125 
Q 40.484375 46.53125 36.375 47.5 
Q 32.28125 48.484375 27.875 48.484375 
Q 21.1875 48.484375 17.84375 46.4375 
Q 14.5 44.390625 14.5 40.28125 
Q 14.5 37.15625 16.890625 35.375 
Q 19.28125 33.59375 26.515625 31.984375 
L 29.59375 31.296875 
Q 39.15625 29.25 43.1875 25.515625 
Q 47.21875 21.78125 47.21875 15.09375 
Q 47.21875 7.46875 41.1875 3.015625 
Q 35.15625 -1.421875 24.609375 -1.421875 
Q 20.21875 -1.421875 15.453125 -0.5625 
Q 10.6875 0.296875 5.421875 2 
L 5.421875 11.28125 
Q 10.40625 8.6875 15.234375 7.390625 
Q 20.0625 6.109375 24.8125 6.109375 
Q 31.15625 6.109375 34.5625 8.28125 
Q 37.984375 10.453125 37.984375 14.40625 
Q 37.984375 18.0625 35.515625 20.015625 
Q 33.0625 21.96875 24.703125 23.78125 
L 21.578125 24.515625 
Q 13.234375 26.265625 9.515625 29.90625 
Q 5.8125 33.546875 5.8125 39.890625 
Q 5.8125 47.609375 11.28125 51.796875 
Q 16.75 56 26.8125 56 
Q 31.78125 56 36.171875 55.265625 
Q 40.578125 54.546875 44.28125 53.078125 
z
" id="DejaVuSans-115"/>
      <path id="DejaVuSans-32"/>
      <path d="M 9.421875 54.6875 
L 18.40625 54.6875 
L 18.40625 0 
L 9.421875 0 
z
M 9.421875 75.984375 
L 18.40625 75.984375 
L 18.40625 64.59375 
L 9.421875 64.59375 
z
" id="DejaVuSans-105"/>
      <path d="M 54.890625 33.015625 
L 54.890625 0 
L 45.90625 0 
L 45.90625 32.71875 
Q 45.90625 40.484375 42.875 44.328125 
Q 39.84375 48.1875 33.796875 48.1875 
Q 26.515625 48.1875 22.3125 43.546875 
Q 18.109375 38.921875 18.109375 30.90625 
L 18.109375 0 
L 9.078125 0 
L 9.078125 54.6875 
L 18.109375 54.6875 
L 18.109375 46.1875 
Q 21.34375 51.125 25.703125 53.5625 
Q 30.078125 56 35.796875 56 
Q 45.21875 56 50.046875 50.171875 
Q 54.890625 44.34375 54.890625 33.015625 
z
" id="DejaVuSans-110"/>
      <path d="M 48.78125 52.59375 
L 48.78125 44.1875 
Q 44.96875 46.296875 41.140625 47.34375 
Q 37.3125 48.390625 33.40625 48.390625 
Q 24.65625 48.390625 19.8125 42.84375 
Q 14.984375 37.3125 14.984375 27.296875 
Q 14.984375 17.28125 19.8125 11.734375 
Q 24.65625 6.203125 33.40625 6.203125 
Q 37.3125 6.203125 41.140625 7.25 
Q 44.96875 8.296875 48.78125 10.40625 
L 48.78125 2.09375 
Q 45.015625 0.34375 40.984375 -0.53125 
Q 36.96875 -1.421875 32.421875 -1.421875 
Q 20.0625 -1.421875 12.78125 6.34375 
Q 5.515625 14.109375 5.515625 27.296875 
Q 5.515625 40.671875 12.859375 48.328125 
Q 20.21875 56 33.015625 56 
Q 37.15625 56 41.109375 55.140625 
Q 45.0625 54.296875 48.78125 52.59375 
z
" id="DejaVuSans-99"/>
      <path d="M 56.203125 29.59375 
L 56.203125 25.203125 
L 14.890625 25.203125 
Q 15.484375 15.921875 20.484375 11.0625 
Q 25.484375 6.203125 34.421875 6.203125 
Q 39.59375 6.203125 44.453125 7.46875 
Q 49.3125 8.734375 54.109375 11.28125 
L 54.109375 2.78125 
Q 49.265625 0.734375 44.1875 -0.34375 
Q 39.109375 -1.421875 33.890625 -1.421875 
Q 20.796875 -1.421875 13.15625 6.1875 
Q 5.515625 13.8125 5.515625 26.8125 
Q 5.515625 40.234375 12.765625 48.109375 
Q 20.015625 56 32.328125 56 
Q 43.359375 56 49.78125 48.890625 
Q 56.203125 41.796875 56.203125 29.59375 
z
M 47.21875 32.234375 
Q 47.125 39.59375 43.09375 43.984375 
Q 39.0625 48.390625 32.421875 48.390625 
Q 24.90625 48.390625 20.390625 44.140625 
Q 15.875 39.890625 15.1875 32.171875 
z
" id="DejaVuSans-101"/>
      <path d="M 45.40625 46.390625 
L 45.40625 75.984375 
L 54.390625 75.984375 
L 54.390625 0 
L 45.40625 0 
L 45.40625 8.203125 
Q 42.578125 3.328125 38.25 0.953125 
Q 33.9375 -1.421875 27.875 -1.421875 
Q 17.96875 -1.421875 11.734375 6.484375 
Q 5.515625 14.40625 5.515625 27.296875 
Q 5.515625 40.1875 11.734375 48.09375 
Q 17.96875 56 27.875 56 
Q 33.9375 56 38.25 53.625 
Q 42.578125 51.265625 45.40625 46.390625 
z
M 14.796875 27.296875 
Q 14.796875 17.390625 18.875 11.75 
Q 22.953125 6.109375 30.078125 6.109375 
Q 37.203125 6.109375 41.296875 11.75 
Q 45.40625 17.390625 45.40625 27.296875 
Q 45.40625 37.203125 41.296875 42.84375 
Q 37.203125 48.484375 30.078125 48.484375 
Q 22.953125 48.484375 18.875 42.84375 
Q 14.796875 37.203125 14.796875 27.296875 
z
" id="DejaVuSans-100"/>
      <path d="M 18.3125 70.21875 
L 18.3125 54.6875 
L 36.8125 54.6875 
L 36.8125 47.703125 
L 18.3125 47.703125 
L 18.3125 18.015625 
Q 18.3125 11.328125 20.140625 9.421875 
Q 21.96875 7.515625 27.59375 7.515625 
L 36.8125 7.515625 
L 36.8125 0 
L 27.59375 0 
Q 17.1875 0 13.234375 3.875 
Q 9.28125 7.765625 9.28125 18.015625 
L 9.28125 47.703125 
L 2.6875 47.703125 
L 2.6875 54.6875 
L 9.28125 54.6875 
L 9.28125 70.21875 
z
" id="DejaVuSans-116"/>
      <path d="M 54.890625 33.015625 
L 54.890625 0 
L 45.90625 0 
L 45.90625 32.71875 
Q 45.90625 40.484375 42.875 44.328125 
Q 39.84375 48.1875 33.796875 48.1875 
Q 26.515625 48.1875 22.3125 43.546875 
Q 18.109375 38.921875 18.109375 30.90625 
L 18.109375 0 
L 9.078125 0 
L 9.078125 75.984375 
L 18.109375 75.984375 
L 18.109375 46.1875 
Q 21.34375 51.125 25.703125 53.5625 
Q 30.078125 56 35.796875 56 
Q 45.21875 56 50.046875 50.171875 
Q 54.890625 44.34375 54.890625 33.015625 
z
" id="DejaVuSans-104"/>
     </defs>
     <g style="fill:#666666;" transform="translate(422.874219 540.916563)scale(0.1 -0.1)">
      <use xlink:href="#DejaVuSans-68"/>
      <use x="77.001953" xlink:href="#DejaVuSans-97"/>
      <use x="138.28125" xlink:href="#DejaVuSans-121"/>
      <use x="197.460938" xlink:href="#DejaVuSans-115"/>
      <use x="249.560547" xlink:href="#DejaVuSans-32"/>
      <use x="281.347656" xlink:href="#DejaVuSans-115"/>
      <use x="333.447266" xlink:href="#DejaVuSans-105"/>
      <use x="361.230469" xlink:href="#DejaVuSans-110"/>
      <use x="424.609375" xlink:href="#DejaVuSans-99"/>
      <use x="479.589844" xlink:href="#DejaVuSans-101"/>
      <use x="541.113281" xlink:href="#DejaVuSans-32"/>
      <use x="572.900391" xlink:href="#DejaVuSans-49"/>
      <use x="636.523438" xlink:href="#DejaVuSans-48"/>
      <use x="700.146484" xlink:href="#DejaVuSans-48"/>
      <use x="763.769531" xlink:href="#DejaVuSans-32"/>
      <use x="795.556641" xlink:href="#DejaVuSans-100"/>
      <use x="859.033203" xlink:href="#DejaVuSans-101"/>
      <use x="920.556641" xlink:href="#DejaVuSans-97"/>
      <use x="981.835938" xlink:href="#DejaVuSans-116"/>
      <use x="1021.044922" xlink:href="#DejaVuSans-104"/>
      <use x="1084.423828" xlink:href="#DejaVuSans-115"/>
     </g>
    </g>
   </g>
   <g id="matplotlib.axis_2">
    <g id="ytick_1">
     <g id="line2d_13">
      <path clip-path="url(#p59acdbb99b)" d="M 117 512.64 
L 842.4 512.64 
" style="fill:none;stroke:#e6e6e6;stroke-linecap:square;stroke-width:0.8;"/>
     </g>
     <g id="line2d_14">
      <defs>
       <path d="M 0 0 
L -3.5 0 
" id="m26d112059c" style="stroke:#666666;stroke-width:0.8;"/>
      </defs>
      <g>
       <use style="fill:#666666;stroke:#666666;stroke-width:0.8;" x="117" xlink:href="#m26d112059c" y="512.64"/>
      </g>
     </g>
     <g id="text_6">
      <!-- 100 -->
      <g style="fill:#666666;" transform="translate(90.9125 516.439219)scale(0.1 -0.1)">
       <use xlink:href="#DejaVuSans-49"/>
       <use x="63.623047" xlink:href="#DejaVuSans-48"/>
       <use x="127.246094" xlink:href="#DejaVuSans-48"/>
      </g>
     </g>
    </g>
   </g>
   <g id="line2d_15">
    <path clip-path="url(#p59acdbb99b)" d="M 117 512.64 
L 141.105058 486.683769 
L 235.671055 433.282202 
L 267.193054 384.419803 
L 298.715053 360.298012 
L 330.237051 346.006947 
L 361.75905 341.389175 
L 393.281049 334.59092 
L 424.803048 324.667717 
L 456.325047 309.837232 
L 487.847046 289.798838 
L 519.369045 283.074437 
" style="fill:none;stroke:#1f77b4;stroke-linecap:square;stroke-width:1.5;"/>
    <defs>
     <path d="M 0 1.5 
C 0.397805 1.5 0.77937 1.341951 1.06066 1.06066 
C 1.341951 0.77937 1.5 0.397805 1.5 0 
C 1.5 -0.397805 1.341951 -0.77937 1.06066 -1.06066 
C 0.77937 -1.341951 0.397805 -1.5 0 -1.5 
C -0.397805 -1.5 -0.77937 -1.341951 -1.06066 -1.06066 
C -1.341951 -0.77937 -1.5 -0.397805 -1.5 0 
C -1.5 0.397805 -1.341951 0.77937 -1.06066 1.06066 
C -0.77937 1.341951 -0.397805 1.5 0 1.5 
z
" id="m30c6d8b742" style="stroke:#1f77b4;"/>
    </defs>
    <g clip-path="url(#p59acdbb99b)">
     <use style="fill:#ffffff;stroke:#1f77b4;" x="117" xlink:href="#m30c6d8b742" y="512.64"/>
     <use style="fill:#ffffff;stroke:#1f77b4;" x="141.105058" xlink:href="#m30c6d8b742" y="486.683769"/>
     <use style="fill:#ffffff;stroke:#1f77b4;" x="235.671055" xlink:href="#m30c6d8b742" y="433.282202"/>
     <use style="fill:#ffffff;stroke:#1f77b4;" x="267.193054" xlink:href="#m30c6d8b742" y="384.419803"/>
     <use style="fill:#ffffff;stroke:#1f77b4;" x="298.715053" xlink:href="#m30c6d8b742" y="360.298012"/>
     <use style="fill:#ffffff;stroke:#1f77b4;" x="330.237051" xlink:href="#m30c6d8b742" y="346.006947"/>
     <use style="fill:#ffffff;stroke:#1f77b4;" x="361.75905" xlink:href="#m30c6d8b742" y="341.389175"/>
     <use style="fill:#ffffff;stroke:#1f77b4;" x="393.281049" xlink:href="#m30c6d8b742" y="334.59092"/>
     <use style="fill:#ffffff;stroke:#1f77b4;" x="424.803048" xlink:href="#m30c6d8b742" y="324.667717"/>
     <use style="fill:#ffffff;stroke:#1f77b4;" x="456.325047" xlink:href="#m30c6d8b742" y="309.837232"/>
     <use style="fill:#ffffff;stroke:#1f77b4;" x="487.847046" xlink:href="#m30c6d8b742" y="289.798838"/>
     <use style="fill:#ffffff;stroke:#1f77b4;" x="519.369045" xlink:href="#m30c6d8b742" y="283.074437"/>
    </g>
   </g>
   <g id="line2d_16">
    <path clip-path="url(#p59acdbb99b)" d="M 117 512.64 
L 139.92509 496.369283 
L 171.447089 482.90541 
L 202.969088 470.082003 
L 234.491087 454.432838 
L 266.013086 436.433978 
L 297.535085 424.032454 
L 329.057084 396.572206 
L 360.579083 385.74546 
L 392.101081 376.588642 
L 423.62308 372.749431 
L 455.145079 347.172427 
L 486.667078 323.584587 
L 518.189077 302.677988 
L 549.711076 285.938975 
L 581.233075 279.294545 
L 612.755074 277.42119 
L 675.799072 261.03373 
L 707.321071 251.41181 
L 738.843069 237.901854 
" style="fill:none;stroke:#ff7f0e;stroke-linecap:square;stroke-width:1.5;"/>
    <defs>
     <path d="M 0 1.5 
C 0.397805 1.5 0.77937 1.341951 1.06066 1.06066 
C 1.341951 0.77937 1.5 0.397805 1.5 0 
C 1.5 -0.397805 1.341951 -0.77937 1.06066 -1.06066 
C 0.77937 -1.341951 0.397805 -1.5 0 -1.5 
C -0.397805 -1.5 -0.77937 -1.341951 -1.06066 -1.06066 
C -1.341951 -0.77937 -1.5 -0.397805 -1.5 0 
C -1.5 0.397805 -1.341951 0.77937 -1.06066 1.06066 
C -0.77937 1.341951 -0.397805 1.5 0 1.5 
z
" id="m8b98ede5ed" style="stroke:#ff7f0e;"/>
    </defs>
    <g clip-path="url(#p59acdbb99b)">
     <use style="fill:#ffffff;stroke:#ff7f0e;" x="117" xlink:href="#m8b98ede5ed" y="512.64"/>
     <use style="fill:#ffffff;stroke:#ff7f0e;" x="139.92509" xlink:href="#m8b98ede5ed" y="496.369283"/>
     <use style="fill:#ffffff;stroke:#ff7f0e;" x="171.447089" xlink:href="#m8b98ede5ed" y="482.90541"/>
     <use style="fill:#ffffff;stroke:#ff7f0e;" x="202.969088" xlink:href="#m8b98ede5ed" y="470.082003"/>
     <use style="fill:#ffffff;stroke:#ff7f0e;" x="234.491087" xlink:href="#m8b98ede5ed" y="454.432838"/>
     <use style="fill:#ffffff;stroke:#ff7f0e;" x="266.013086" xlink:href="#m8b98ede5ed" y="436.433978"/>
     <use style="fill:#ffffff;stroke:#ff7f0e;" x="297.535085" xlink:href="#m8b98ede5ed" y="424.032454"/>
     <use style="fill:#ffffff;stroke:#ff7f0e;" x="329.057084" xlink:href="#m8b98ede5ed" y="396.572206"/>
     <use style="fill:#ffffff;stroke:#ff7f0e;" x="360.579083" xlink:href="#m8b98ede5ed" y="385.74546"/>
     <use style="fill:#ffffff;stroke:#ff7f0e;" x="392.101081" xlink:href="#m8b98ede5ed" y="376.588642"/>
     <use style="fill:#ffffff;stroke:#ff7f0e;" x="423.62308" xlink:href="#m8b98ede5ed" y="372.749431"/>
     <use style="fill:#ffffff;stroke:#ff7f0e;" x="455.145079" xlink:href="#m8b98ede5ed" y="347.172427"/>
     <use style="fill:#ffffff;stroke:#ff7f0e;" x="486.667078" xlink:href="#m8b98ede5ed" y="323.584587"/>
     <use style="fill:#ffffff;stroke:#ff7f0e;" x="518.189077" xlink:href="#m8b98ede5ed" y="302.677988"/>
     <use style="fill:#ffffff;stroke:#ff7f0e;" x="549.711076" xlink:href="#m8b98ede5ed" y="285.938975"/>
     <use style="fill:#ffffff;stroke:#ff7f0e;" x="581.233075" xlink:href="#m8b98ede5ed" y="279.294545"/>
     <use style="fill:#ffffff;stroke:#ff7f0e;" x="612.755074" xlink:href="#m8b98ede5ed" y="277.42119"/>
     <use style="fill:#ffffff;stroke:#ff7f0e;" x="675.799072" xlink:href="#m8b98ede5ed" y="261.03373"/>
     <use style="fill:#ffffff;stroke:#ff7f0e;" x="707.321071" xlink:href="#m8b98ede5ed" y="251.41181"/>
     <use style="fill:#ffffff;stroke:#ff7f0e;" x="738.843069" xlink:href="#m8b98ede5ed" y="237.901854"/>
    </g>
   </g>
   <g id="line2d_17">
    <path clip-path="url(#p59acdbb99b)" d="M 117 512.64 
L 134.512222 502.354106 
L 166.034221 488.593047 
L 197.556219 461.278294 
L 229.078218 441.228896 
L 260.600217 419.518154 
L 292.122216 402.140099 
L 323.644215 384.419803 
L 355.166214 375.303377 
L 386.688213 368.959181 
L 418.210212 350.695972 
L 449.732211 329.038614 
" style="fill:none;stroke:#2ca02c;stroke-linecap:square;stroke-width:1.5;"/>
    <defs>
     <path d="M 0 1.5 
C 0.397805 1.5 0.77937 1.341951 1.06066 1.06066 
C 1.341951 0.77937 1.5 0.397805 1.5 0 
C 1.5 -0.397805 1.341951 -0.77937 1.06066 -1.06066 
C 0.77937 -1.341951 0.397805 -1.5 0 -1.5 
C -0.397805 -1.5 -0.77937 -1.341951 -1.06066 -1.06066 
C -1.341951 -0.77937 -1.5 -0.397805 -1.5 0 
C -1.5 0.397805 -1.341951 0.77937 -1.06066 1.06066 
C -0.77937 1.341951 -0.397805 1.5 0 1.5 
z
" id="me86af80cc0" style="stroke:#2ca02c;"/>
    </defs>
    <g clip-path="url(#p59acdbb99b)">
     <use style="fill:#ffffff;stroke:#2ca02c;" x="117" xlink:href="#me86af80cc0" y="512.64"/>
     <use style="fill:#ffffff;stroke:#2ca02c;" x="134.512222" xlink:href="#me86af80cc0" y="502.354106"/>
     <use style="fill:#ffffff;stroke:#2ca02c;" x="166.034221" xlink:href="#me86af80cc0" y="488.593047"/>
     <use style="fill:#ffffff;stroke:#2ca02c;" x="197.556219" xlink:href="#me86af80cc0" y="461.278294"/>
     <use style="fill:#ffffff;stroke:#2ca02c;" x="229.078218" xlink:href="#me86af80cc0" y="441.228896"/>
     <use style="fill:#ffffff;stroke:#2ca02c;" x="260.600217" xlink:href="#me86af80cc0" y="419.518154"/>
     <use style="fill:#ffffff;stroke:#2ca02c;" x="292.122216" xlink:href="#me86af80cc0" y="402.140099"/>
     <use style="fill:#ffffff;stroke:#2ca02c;" x="323.644215" xlink:href="#me86af80cc0" y="384.419803"/>
     <use style="fill:#ffffff;stroke:#2ca02c;" x="355.166214" xlink:href="#me86af80cc0" y="375.303377"/>
     <use style="fill:#ffffff;stroke:#2ca02c;" x="386.688213" xlink:href="#me86af80cc0" y="368.959181"/>
     <use style="fill:#ffffff;stroke:#2ca02c;" x="418.210212" xlink:href="#me86af80cc0" y="350.695972"/>
     <use style="fill:#ffffff;stroke:#2ca02c;" x="449.732211" xlink:href="#me86af80cc0" y="329.038614"/>
    </g>
   </g>
   <g id="line2d_18">
    <path clip-path="url(#p59acdbb99b)" d="M 117 512.64 
L 148.521999 488.593047 
L 180.043998 473.684453 
L 211.565997 464.765915 
L 243.087996 444.471705 
L 274.609995 433.282202 
L 306.131993 421.01499 
" style="fill:none;stroke:#d62728;stroke-linecap:square;stroke-width:1.5;"/>
    <defs>
     <path d="M 0 1.5 
C 0.397805 1.5 0.77937 1.341951 1.06066 1.06066 
C 1.341951 0.77937 1.5 0.397805 1.5 0 
C 1.5 -0.397805 1.341951 -0.77937 1.06066 -1.06066 
C 0.77937 -1.341951 0.397805 -1.5 0 -1.5 
C -0.397805 -1.5 -0.77937 -1.341951 -1.06066 -1.06066 
C -1.341951 -0.77937 -1.5 -0.397805 -1.5 0 
C -1.5 0.397805 -1.341951 0.77937 -1.06066 1.06066 
C -0.77937 1.341951 -0.397805 1.5 0 1.5 
z
" id="mda97ee59e4" style="stroke:#d62728;"/>
    </defs>
    <g clip-path="url(#p59acdbb99b)">
     <use style="fill:#ffffff;stroke:#d62728;" x="117" xlink:href="#mda97ee59e4" y="512.64"/>
     <use style="fill:#ffffff;stroke:#d62728;" x="148.521999" xlink:href="#mda97ee59e4" y="488.593047"/>
     <use style="fill:#ffffff;stroke:#d62728;" x="180.043998" xlink:href="#mda97ee59e4" y="473.684453"/>
     <use style="fill:#ffffff;stroke:#d62728;" x="211.565997" xlink:href="#mda97ee59e4" y="464.765915"/>
     <use style="fill:#ffffff;stroke:#d62728;" x="243.087996" xlink:href="#mda97ee59e4" y="444.471705"/>
     <use style="fill:#ffffff;stroke:#d62728;" x="274.609995" xlink:href="#mda97ee59e4" y="433.282202"/>
     <use style="fill:#ffffff;stroke:#d62728;" x="306.131993" xlink:href="#mda97ee59e4" y="421.01499"/>
    </g>
   </g>
   <g id="line2d_19">
    <path clip-path="url(#p59acdbb99b)" d="M 117 512.64 
L 137.059454 498.34928 
L 168.581453 488.593047 
L 200.103452 477.33526 
L 231.625451 461.278294 
L 263.14745 446.107332 
L 294.669448 427.082278 
L 326.191447 406.38732 
" style="fill:none;stroke:#9467bd;stroke-linecap:square;stroke-width:1.5;"/>
    <defs>
     <path d="M 0 1.5 
C 0.397805 1.5 0.77937 1.341951 1.06066 1.06066 
C 1.341951 0.77937 1.5 0.397805 1.5 0 
C 1.5 -0.397805 1.341951 -0.77937 1.06066 -1.06066 
C 0.77937 -1.341951 0.397805 -1.5 0 -1.5 
C -0.397805 -1.5 -0.77937 -1.341951 -1.06066 -1.06066 
C -1.341951 -0.77937 -1.5 -0.397805 -1.5 0 
C -1.5 0.397805 -1.341951 0.77937 -1.06066 1.06066 
C -0.77937 1.341951 -0.397805 1.5 0 1.5 
z
" id="m77364fe123" style="stroke:#9467bd;"/>
    </defs>
    <g clip-path="url(#p59acdbb99b)">
     <use style="fill:#ffffff;stroke:#9467bd;" x="117" xlink:href="#m77364fe123" y="512.64"/>
     <use style="fill:#ffffff;stroke:#9467bd;" x="137.059454" xlink:href="#m77364fe123" y="498.34928"/>
     <use style="fill:#ffffff;stroke:#9467bd;" x="168.581453" xlink:href="#m77364fe123" y="488.593047"/>
     <use style="fill:#ffffff;stroke:#9467bd;" x="200.103452" xlink:href="#m77364fe123" y="477.33526"/>
     <use style="fill:#ffffff;stroke:#9467bd;" x="231.625451" xlink:href="#m77364fe123" y="461.278294"/>
     <use style="fill:#ffffff;stroke:#9467bd;" x="263.14745" xlink:href="#m77364fe123" y="446.107332"/>
     <use style="fill:#ffffff;stroke:#9467bd;" x="294.669448" xlink:href="#m77364fe123" y="427.082278"/>
     <use style="fill:#ffffff;stroke:#9467bd;" x="326.191447" xlink:href="#m77364fe123" y="406.38732"/>
    </g>
   </g>
   <g id="line2d_20">
    <path clip-path="url(#p59acdbb99b)" d="M 117 512.64 
L 148.521999 498.34928 
L 180.043998 492.452886 
L 211.565997 490.516012 
L 274.609995 479.179259 
L 306.131993 477.33526 
L 337.653992 473.684453 
L 369.175991 466.526493 
L 400.69799 464.765915 
L 432.219989 457.834339 
" style="fill:none;stroke:#8c564b;stroke-linecap:square;stroke-width:1.5;"/>
    <defs>
     <path d="M 0 1.5 
C 0.397805 1.5 0.77937 1.341951 1.06066 1.06066 
C 1.341951 0.77937 1.5 0.397805 1.5 0 
C 1.5 -0.397805 1.341951 -0.77937 1.06066 -1.06066 
C 0.77937 -1.341951 0.397805 -1.5 0 -1.5 
C -0.397805 -1.5 -0.77937 -1.341951 -1.06066 -1.06066 
C -1.341951 -0.77937 -1.5 -0.397805 -1.5 0 
C -1.5 0.397805 -1.341951 0.77937 -1.06066 1.06066 
C -0.77937 1.341951 -0.397805 1.5 0 1.5 
z
" id="m82bc7b35d9" style="stroke:#8c564b;"/>
    </defs>
    <g clip-path="url(#p59acdbb99b)">
     <use style="fill:#ffffff;stroke:#8c564b;" x="117" xlink:href="#m82bc7b35d9" y="512.64"/>
     <use style="fill:#ffffff;stroke:#8c564b;" x="148.521999" xlink:href="#m82bc7b35d9" y="498.34928"/>
     <use style="fill:#ffffff;stroke:#8c564b;" x="180.043998" xlink:href="#m82bc7b35d9" y="492.452886"/>
     <use style="fill:#ffffff;stroke:#8c564b;" x="211.565997" xlink:href="#m82bc7b35d9" y="490.516012"/>
     <use style="fill:#ffffff;stroke:#8c564b;" x="274.609995" xlink:href="#m82bc7b35d9" y="479.179259"/>
     <use style="fill:#ffffff;stroke:#8c564b;" x="306.131993" xlink:href="#m82bc7b35d9" y="477.33526"/>
     <use style="fill:#ffffff;stroke:#8c564b;" x="337.653992" xlink:href="#m82bc7b35d9" y="473.684453"/>
     <use style="fill:#ffffff;stroke:#8c564b;" x="369.175991" xlink:href="#m82bc7b35d9" y="466.526493"/>
     <use style="fill:#ffffff;stroke:#8c564b;" x="400.69799" xlink:href="#m82bc7b35d9" y="464.765915"/>
     <use style="fill:#ffffff;stroke:#8c564b;" x="432.219989" xlink:href="#m82bc7b35d9" y="457.834339"/>
    </g>
   </g>
   <g id="line2d_21">
    <path clip-path="url(#p59acdbb99b)" d="M 117 512.64 
L 129.6088 504.379449 
L 161.130798 482.90541 
L 192.652797 470.082003 
L 224.174796 457.834339 
L 255.696795 444.471705 
L 287.218794 433.282202 
L 318.740793 427.082278 
L 350.262792 418.029123 
L 381.784791 393.827704 
L 413.30679 375.303377 
L 444.828789 367.706403 
L 476.350788 356.661309 
L 507.872787 350.695972 
L 539.394785 347.172427 
L 570.916784 341.389175 
L 602.438783 327.940072 
L 633.960782 317.164109 
L 665.482781 311.913136 
" style="fill:none;stroke:#e377c2;stroke-linecap:square;stroke-width:1.5;"/>
    <defs>
     <path d="M 0 1.5 
C 0.397805 1.5 0.77937 1.341951 1.06066 1.06066 
C 1.341951 0.77937 1.5 0.397805 1.5 0 
C 1.5 -0.397805 1.341951 -0.77937 1.06066 -1.06066 
C 0.77937 -1.341951 0.397805 -1.5 0 -1.5 
C -0.397805 -1.5 -0.77937 -1.341951 -1.06066 -1.06066 
C -1.341951 -0.77937 -1.5 -0.397805 -1.5 0 
C -1.5 0.397805 -1.341951 0.77937 -1.06066 1.06066 
C -0.77937 1.341951 -0.397805 1.5 0 1.5 
z
" id="m564dd6d20f" style="stroke:#e377c2;"/>
    </defs>
    <g clip-path="url(#p59acdbb99b)">
     <use style="fill:#ffffff;stroke:#e377c2;" x="117" xlink:href="#m564dd6d20f" y="512.64"/>
     <use style="fill:#ffffff;stroke:#e377c2;" x="129.6088" xlink:href="#m564dd6d20f" y="504.379449"/>
     <use style="fill:#ffffff;stroke:#e377c2;" x="161.130798" xlink:href="#m564dd6d20f" y="482.90541"/>
     <use style="fill:#ffffff;stroke:#e377c2;" x="192.652797" xlink:href="#m564dd6d20f" y="470.082003"/>
     <use style="fill:#ffffff;stroke:#e377c2;" x="224.174796" xlink:href="#m564dd6d20f" y="457.834339"/>
     <use style="fill:#ffffff;stroke:#e377c2;" x="255.696795" xlink:href="#m564dd6d20f" y="444.471705"/>
     <use style="fill:#ffffff;stroke:#e377c2;" x="287.218794" xlink:href="#m564dd6d20f" y="433.282202"/>
     <use style="fill:#ffffff;stroke:#e377c2;" x="318.740793" xlink:href="#m564dd6d20f" y="427.082278"/>
     <use style="fill:#ffffff;stroke:#e377c2;" x="350.262792" xlink:href="#m564dd6d20f" y="418.029123"/>
     <use style="fill:#ffffff;stroke:#e377c2;" x="381.784791" xlink:href="#m564dd6d20f" y="393.827704"/>
     <use style="fill:#ffffff;stroke:#e377c2;" x="413.30679" xlink:href="#m564dd6d20f" y="375.303377"/>
     <use style="fill:#ffffff;stroke:#e377c2;" x="444.828789" xlink:href="#m564dd6d20f" y="367.706403"/>
     <use style="fill:#ffffff;stroke:#e377c2;" x="476.350788" xlink:href="#m564dd6d20f" y="356.661309"/>
     <use style="fill:#ffffff;stroke:#e377c2;" x="507.872787" xlink:href="#m564dd6d20f" y="350.695972"/>
     <use style="fill:#ffffff;stroke:#e377c2;" x="539.394785" xlink:href="#m564dd6d20f" y="347.172427"/>
     <use style="fill:#ffffff;stroke:#e377c2;" x="570.916784" xlink:href="#m564dd6d20f" y="341.389175"/>
     <use style="fill:#ffffff;stroke:#e377c2;" x="602.438783" xlink:href="#m564dd6d20f" y="327.940072"/>
     <use style="fill:#ffffff;stroke:#e377c2;" x="633.960782" xlink:href="#m564dd6d20f" y="317.164109"/>
     <use style="fill:#ffffff;stroke:#e377c2;" x="665.482781" xlink:href="#m564dd6d20f" y="311.913136"/>
    </g>
   </g>
   <g id="line2d_22">
    <path clip-path="url(#p59acdbb99b)" d="M 117 512.64 
L 137.396588 490.516012 
L 168.918586 471.877273 
L 200.440585 449.407666 
L 231.962584 434.853682 
L 263.484583 409.25389 
L 295.006582 383.10009 
L 326.528581 356.661309 
L 358.05058 332.357949 
L 389.572579 307.775008 
L 421.094578 280.235343 
L 452.616577 267.308293 
L 484.138576 254.007977 
L 515.660574 238.730201 
L 547.182573 219.39828 
" style="fill:none;stroke:#7f7f7f;stroke-linecap:square;stroke-width:1.5;"/>
    <defs>
     <path d="M 0 1.5 
C 0.397805 1.5 0.77937 1.341951 1.06066 1.06066 
C 1.341951 0.77937 1.5 0.397805 1.5 0 
C 1.5 -0.397805 1.341951 -0.77937 1.06066 -1.06066 
C 0.77937 -1.341951 0.397805 -1.5 0 -1.5 
C -0.397805 -1.5 -0.77937 -1.341951 -1.06066 -1.06066 
C -1.341951 -0.77937 -1.5 -0.397805 -1.5 0 
C -1.5 0.397805 -1.341951 0.77937 -1.06066 1.06066 
C -0.77937 1.341951 -0.397805 1.5 0 1.5 
z
" id="m3f1ca3ac25" style="stroke:#7f7f7f;"/>
    </defs>
    <g clip-path="url(#p59acdbb99b)">
     <use style="fill:#ffffff;stroke:#7f7f7f;" x="117" xlink:href="#m3f1ca3ac25" y="512.64"/>
     <use style="fill:#ffffff;stroke:#7f7f7f;" x="137.396588" xlink:href="#m3f1ca3ac25" y="490.516012"/>
     <use style="fill:#ffffff;stroke:#7f7f7f;" x="168.918586" xlink:href="#m3f1ca3ac25" y="471.877273"/>
     <use style="fill:#ffffff;stroke:#7f7f7f;" x="200.440585" xlink:href="#m3f1ca3ac25" y="449.407666"/>
     <use style="fill:#ffffff;stroke:#7f7f7f;" x="231.962584" xlink:href="#m3f1ca3ac25" y="434.853682"/>
     <use style="fill:#ffffff;stroke:#7f7f7f;" x="263.484583" xlink:href="#m3f1ca3ac25" y="409.25389"/>
     <use style="fill:#ffffff;stroke:#7f7f7f;" x="295.006582" xlink:href="#m3f1ca3ac25" y="383.10009"/>
     <use style="fill:#ffffff;stroke:#7f7f7f;" x="326.528581" xlink:href="#m3f1ca3ac25" y="356.661309"/>
     <use style="fill:#ffffff;stroke:#7f7f7f;" x="358.05058" xlink:href="#m3f1ca3ac25" y="332.357949"/>
     <use style="fill:#ffffff;stroke:#7f7f7f;" x="389.572579" xlink:href="#m3f1ca3ac25" y="307.775008"/>
     <use style="fill:#ffffff;stroke:#7f7f7f;" x="421.094578" xlink:href="#m3f1ca3ac25" y="280.235343"/>
     <use style="fill:#ffffff;stroke:#7f7f7f;" x="452.616577" xlink:href="#m3f1ca3ac25" y="267.308293"/>
     <use style="fill:#ffffff;stroke:#7f7f7f;" x="484.138576" xlink:href="#m3f1ca3ac25" y="254.007977"/>
     <use style="fill:#ffffff;stroke:#7f7f7f;" x="515.660574" xlink:href="#m3f1ca3ac25" y="238.730201"/>
     <use style="fill:#ffffff;stroke:#7f7f7f;" x="547.182573" xlink:href="#m3f1ca3ac25" y="219.39828"/>
    </g>
   </g>
   <g id="line2d_23">
    <path clip-path="url(#p59acdbb99b)" d="M 117 512.64 
L 138.822922 494.403898 
L 170.344921 492.452886 
L 201.86692 484.787961 
L 233.388919 451.072632 
L 264.910918 428.619571 
L 296.432917 421.01499 
L 327.954916 402.140099 
L 359.476915 388.414852 
L 390.998914 387.077123 
L 422.520913 385.74546 
L 454.042911 370.217244 
L 485.56491 347.172427 
L 517.086909 335.713529 
L 548.608908 289.798838 
L 580.130907 279.294545 
L 611.652906 278.3565 
L 643.174905 265.503137 
L 674.696904 242.903377 
L 706.218903 239.560629 
L 737.740902 230.538428 
" style="fill:none;stroke:#bcbd22;stroke-linecap:square;stroke-width:1.5;"/>
    <defs>
     <path d="M 0 1.5 
C 0.397805 1.5 0.77937 1.341951 1.06066 1.06066 
C 1.341951 0.77937 1.5 0.397805 1.5 0 
C 1.5 -0.397805 1.341951 -0.77937 1.06066 -1.06066 
C 0.77937 -1.341951 0.397805 -1.5 0 -1.5 
C -0.397805 -1.5 -0.77937 -1.341951 -1.06066 -1.06066 
C -1.341951 -0.77937 -1.5 -0.397805 -1.5 0 
C -1.5 0.397805 -1.341951 0.77937 -1.06066 1.06066 
C -0.77937 1.341951 -0.397805 1.5 0 1.5 
z
" id="m27df0affc3" style="stroke:#bcbd22;"/>
    </defs>
    <g clip-path="url(#p59acdbb99b)">
     <use style="fill:#ffffff;stroke:#bcbd22;" x="117" xlink:href="#m27df0affc3" y="512.64"/>
     <use style="fill:#ffffff;stroke:#bcbd22;" x="138.822922" xlink:href="#m27df0affc3" y="494.403898"/>
     <use style="fill:#ffffff;stroke:#bcbd22;" x="170.344921" xlink:href="#m27df0affc3" y="492.452886"/>
     <use style="fill:#ffffff;stroke:#bcbd22;" x="201.86692" xlink:href="#m27df0affc3" y="484.787961"/>
     <use style="fill:#ffffff;stroke:#bcbd22;" x="233.388919" xlink:href="#m27df0affc3" y="451.072632"/>
     <use style="fill:#ffffff;stroke:#bcbd22;" x="264.910918" xlink:href="#m27df0affc3" y="428.619571"/>
     <use style="fill:#ffffff;stroke:#bcbd22;" x="296.432917" xlink:href="#m27df0affc3" y="421.01499"/>
     <use style="fill:#ffffff;stroke:#bcbd22;" x="327.954916" xlink:href="#m27df0affc3" y="402.140099"/>
     <use style="fill:#ffffff;stroke:#bcbd22;" x="359.476915" xlink:href="#m27df0affc3" y="388.414852"/>
     <use style="fill:#ffffff;stroke:#bcbd22;" x="390.998914" xlink:href="#m27df0affc3" y="387.077123"/>
     <use style="fill:#ffffff;stroke:#bcbd22;" x="422.520913" xlink:href="#m27df0affc3" y="385.74546"/>
     <use style="fill:#ffffff;stroke:#bcbd22;" x="454.042911" xlink:href="#m27df0affc3" y="370.217244"/>
     <use style="fill:#ffffff;stroke:#bcbd22;" x="485.56491" xlink:href="#m27df0affc3" y="347.172427"/>
     <use style="fill:#ffffff;stroke:#bcbd22;" x="517.086909" xlink:href="#m27df0affc3" y="335.713529"/>
     <use style="fill:#ffffff;stroke:#bcbd22;" x="548.608908" xlink:href="#m27df0affc3" y="289.798838"/>
     <use style="fill:#ffffff;stroke:#bcbd22;" x="580.130907" xlink:href="#m27df0affc3" y="279.294545"/>
     <use style="fill:#ffffff;stroke:#bcbd22;" x="611.652906" xlink:href="#m27df0affc3" y="278.3565"/>
     <use style="fill:#ffffff;stroke:#bcbd22;" x="643.174905" xlink:href="#m27df0affc3" y="265.503137"/>
     <use style="fill:#ffffff;stroke:#bcbd22;" x="674.696904" xlink:href="#m27df0affc3" y="242.903377"/>
     <use style="fill:#ffffff;stroke:#bcbd22;" x="706.218903" xlink:href="#m27df0affc3" y="239.560629"/>
     <use style="fill:#ffffff;stroke:#bcbd22;" x="737.740902" xlink:href="#m27df0affc3" y="230.538428"/>
    </g>
   </g>
   <g id="line2d_24">
    <path clip-path="url(#p59acdbb99b)" d="M 117 512.64 
L 143.672461 490.516012 
L 175.19446 470.082003 
L 206.716458 457.834339 
L 238.238457 439.62147 
L 269.760456 421.01499 
L 301.282455 410.697937 
L 332.804454 396.572206 
L 364.326453 377.879508 
L 395.848452 365.216509 
L 427.370451 355.458772 
L 458.89245 346.006947 
L 490.414449 332.357949 
L 521.936448 325.754654 
L 553.458446 323.584587 
L 584.980445 312.956282 
L 616.502444 301.668426 
L 648.024443 290.771165 
" style="fill:none;stroke:#17becf;stroke-linecap:square;stroke-width:1.5;"/>
    <defs>
     <path d="M 0 1.5 
C 0.397805 1.5 0.77937 1.341951 1.06066 1.06066 
C 1.341951 0.77937 1.5 0.397805 1.5 0 
C 1.5 -0.397805 1.341951 -0.77937 1.06066 -1.06066 
C 0.77937 -1.341951 0.397805 -1.5 0 -1.5 
C -0.397805 -1.5 -0.77937 -1.341951 -1.06066 -1.06066 
C -1.341951 -0.77937 -1.5 -0.397805 -1.5 0 
C -1.5 0.397805 -1.341951 0.77937 -1.06066 1.06066 
C -0.77937 1.341951 -0.397805 1.5 0 1.5 
z
" id="m770099a89a" style="stroke:#17becf;"/>
    </defs>
    <g clip-path="url(#p59acdbb99b)">
     <use style="fill:#ffffff;stroke:#17becf;" x="117" xlink:href="#m770099a89a" y="512.64"/>
     <use style="fill:#ffffff;stroke:#17becf;" x="143.672461" xlink:href="#m770099a89a" y="490.516012"/>
     <use style="fill:#ffffff;stroke:#17becf;" x="175.19446" xlink:href="#m770099a89a" y="470.082003"/>
     <use style="fill:#ffffff;stroke:#17becf;" x="206.716458" xlink:href="#m770099a89a" y="457.834339"/>
     <use style="fill:#ffffff;stroke:#17becf;" x="238.238457" xlink:href="#m770099a89a" y="439.62147"/>
     <use style="fill:#ffffff;stroke:#17becf;" x="269.760456" xlink:href="#m770099a89a" y="421.01499"/>
     <use style="fill:#ffffff;stroke:#17becf;" x="301.282455" xlink:href="#m770099a89a" y="410.697937"/>
     <use style="fill:#ffffff;stroke:#17becf;" x="332.804454" xlink:href="#m770099a89a" y="396.572206"/>
     <use style="fill:#ffffff;stroke:#17becf;" x="364.326453" xlink:href="#m770099a89a" y="377.879508"/>
     <use style="fill:#ffffff;stroke:#17becf;" x="395.848452" xlink:href="#m770099a89a" y="365.216509"/>
     <use style="fill:#ffffff;stroke:#17becf;" x="427.370451" xlink:href="#m770099a89a" y="355.458772"/>
     <use style="fill:#ffffff;stroke:#17becf;" x="458.89245" xlink:href="#m770099a89a" y="346.006947"/>
     <use style="fill:#ffffff;stroke:#17becf;" x="490.414449" xlink:href="#m770099a89a" y="332.357949"/>
     <use style="fill:#ffffff;stroke:#17becf;" x="521.936448" xlink:href="#m770099a89a" y="325.754654"/>
     <use style="fill:#ffffff;stroke:#17becf;" x="553.458446" xlink:href="#m770099a89a" y="323.584587"/>
     <use style="fill:#ffffff;stroke:#17becf;" x="584.980445" xlink:href="#m770099a89a" y="312.956282"/>
     <use style="fill:#ffffff;stroke:#17becf;" x="616.502444" xlink:href="#m770099a89a" y="301.668426"/>
     <use style="fill:#ffffff;stroke:#17becf;" x="648.024443" xlink:href="#m770099a89a" y="290.771165"/>
    </g>
   </g>
   <g id="line2d_25">
    <path clip-path="url(#p59acdbb99b)" d="M 117 512.64 
L 128.462545 496.369283 
L 159.984544 479.179259 
L 191.506543 454.432838 
L 223.028542 421.01499 
L 254.550541 403.548925 
L 286.07254 392.465071 
L 317.594539 383.10009 
L 349.116537 341.389175 
L 380.638536 309.837232 
L 412.160535 298.659 
L 443.682534 283.074437 
L 475.204533 264.604317 
L 506.726532 255.750279 
L 538.248531 249.692397 
L 569.77053 220.18182 
L 601.292529 210.89776 
L 632.814528 193.060523 
" style="fill:none;stroke:#1f77b4;stroke-linecap:square;stroke-width:1.5;"/>
    <g clip-path="url(#p59acdbb99b)">
     <use style="fill:#ffffff;stroke:#1f77b4;" x="117" xlink:href="#m30c6d8b742" y="512.64"/>
     <use style="fill:#ffffff;stroke:#1f77b4;" x="128.462545" xlink:href="#m30c6d8b742" y="496.369283"/>
     <use style="fill:#ffffff;stroke:#1f77b4;" x="159.984544" xlink:href="#m30c6d8b742" y="479.179259"/>
     <use style="fill:#ffffff;stroke:#1f77b4;" x="191.506543" xlink:href="#m30c6d8b742" y="454.432838"/>
     <use style="fill:#ffffff;stroke:#1f77b4;" x="223.028542" xlink:href="#m30c6d8b742" y="421.01499"/>
     <use style="fill:#ffffff;stroke:#1f77b4;" x="254.550541" xlink:href="#m30c6d8b742" y="403.548925"/>
     <use style="fill:#ffffff;stroke:#1f77b4;" x="286.07254" xlink:href="#m30c6d8b742" y="392.465071"/>
     <use style="fill:#ffffff;stroke:#1f77b4;" x="317.594539" xlink:href="#m30c6d8b742" y="383.10009"/>
     <use style="fill:#ffffff;stroke:#1f77b4;" x="349.116537" xlink:href="#m30c6d8b742" y="341.389175"/>
     <use style="fill:#ffffff;stroke:#1f77b4;" x="380.638536" xlink:href="#m30c6d8b742" y="309.837232"/>
     <use style="fill:#ffffff;stroke:#1f77b4;" x="412.160535" xlink:href="#m30c6d8b742" y="298.659"/>
     <use style="fill:#ffffff;stroke:#1f77b4;" x="443.682534" xlink:href="#m30c6d8b742" y="283.074437"/>
     <use style="fill:#ffffff;stroke:#1f77b4;" x="475.204533" xlink:href="#m30c6d8b742" y="264.604317"/>
     <use style="fill:#ffffff;stroke:#1f77b4;" x="506.726532" xlink:href="#m30c6d8b742" y="255.750279"/>
     <use style="fill:#ffffff;stroke:#1f77b4;" x="538.248531" xlink:href="#m30c6d8b742" y="249.692397"/>
     <use style="fill:#ffffff;stroke:#1f77b4;" x="569.77053" xlink:href="#m30c6d8b742" y="220.18182"/>
     <use style="fill:#ffffff;stroke:#1f77b4;" x="601.292529" xlink:href="#m30c6d8b742" y="210.89776"/>
     <use style="fill:#ffffff;stroke:#1f77b4;" x="632.814528" xlink:href="#m30c6d8b742" y="193.060523"/>
    </g>
   </g>
   <g id="line2d_26">
    <path clip-path="url(#p59acdbb99b)" d="M 117 512.64 
L 142.217599 504.379449 
L 173.739598 492.452886 
L 205.261597 488.593047 
L 236.783596 468.298467 
" style="fill:none;stroke:#ff7f0e;stroke-linecap:square;stroke-width:1.5;"/>
    <g clip-path="url(#p59acdbb99b)">
     <use style="fill:#ffffff;stroke:#ff7f0e;" x="117" xlink:href="#m8b98ede5ed" y="512.64"/>
     <use style="fill:#ffffff;stroke:#ff7f0e;" x="142.217599" xlink:href="#m8b98ede5ed" y="504.379449"/>
     <use style="fill:#ffffff;stroke:#ff7f0e;" x="173.739598" xlink:href="#m8b98ede5ed" y="492.452886"/>
     <use style="fill:#ffffff;stroke:#ff7f0e;" x="205.261597" xlink:href="#m8b98ede5ed" y="488.593047"/>
     <use style="fill:#ffffff;stroke:#ff7f0e;" x="236.783596" xlink:href="#m8b98ede5ed" y="468.298467"/>
    </g>
   </g>
   <g id="line2d_27">
    <path clip-path="url(#p59acdbb99b)" d="M 117 512.64 
L 128.462545 496.369283 
L 159.984544 484.787961 
L 223.028542 456.128356 
L 254.550541 454.432838 
L 286.07254 436.433978 
L 317.594539 422.519725 
L 349.116537 416.547808 
L 380.638536 412.149269 
L 443.682534 404.96464 
L 475.204533 392.465071 
L 506.726532 362.747171 
L 538.248531 353.067987 
L 569.77053 349.5169 
L 632.814528 334.59092 
L 664.336527 327.940072 
L 695.858526 315.053093 
" style="fill:none;stroke:#2ca02c;stroke-linecap:square;stroke-width:1.5;"/>
    <g clip-path="url(#p59acdbb99b)">
     <use style="fill:#ffffff;stroke:#2ca02c;" x="117" xlink:href="#me86af80cc0" y="512.64"/>
     <use style="fill:#ffffff;stroke:#2ca02c;" x="128.462545" xlink:href="#me86af80cc0" y="496.369283"/>
     <use style="fill:#ffffff;stroke:#2ca02c;" x="159.984544" xlink:href="#me86af80cc0" y="484.787961"/>
     <use style="fill:#ffffff;stroke:#2ca02c;" x="223.028542" xlink:href="#me86af80cc0" y="456.128356"/>
     <use style="fill:#ffffff;stroke:#2ca02c;" x="254.550541" xlink:href="#me86af80cc0" y="454.432838"/>
     <use style="fill:#ffffff;stroke:#2ca02c;" x="286.07254" xlink:href="#me86af80cc0" y="436.433978"/>
     <use style="fill:#ffffff;stroke:#2ca02c;" x="317.594539" xlink:href="#me86af80cc0" y="422.519725"/>
     <use style="fill:#ffffff;stroke:#2ca02c;" x="349.116537" xlink:href="#me86af80cc0" y="416.547808"/>
     <use style="fill:#ffffff;stroke:#2ca02c;" x="380.638536" xlink:href="#me86af80cc0" y="412.149269"/>
     <use style="fill:#ffffff;stroke:#2ca02c;" x="443.682534" xlink:href="#me86af80cc0" y="404.96464"/>
     <use style="fill:#ffffff;stroke:#2ca02c;" x="475.204533" xlink:href="#me86af80cc0" y="392.465071"/>
     <use style="fill:#ffffff;stroke:#2ca02c;" x="506.726532" xlink:href="#me86af80cc0" y="362.747171"/>
     <use style="fill:#ffffff;stroke:#2ca02c;" x="538.248531" xlink:href="#me86af80cc0" y="353.067987"/>
     <use style="fill:#ffffff;stroke:#2ca02c;" x="569.77053" xlink:href="#me86af80cc0" y="349.5169"/>
     <use style="fill:#ffffff;stroke:#2ca02c;" x="632.814528" xlink:href="#me86af80cc0" y="334.59092"/>
     <use style="fill:#ffffff;stroke:#2ca02c;" x="664.336527" xlink:href="#me86af80cc0" y="327.940072"/>
     <use style="fill:#ffffff;stroke:#2ca02c;" x="695.858526" xlink:href="#me86af80cc0" y="315.053093"/>
    </g>
   </g>
   <g id="line2d_28">
    <path clip-path="url(#p59acdbb99b)" d="M 117 512.64 
L 145.019555 496.369283 
L 176.541554 468.298467 
L 208.063552 454.432838 
L 239.585551 446.107332 
L 271.10755 441.228896 
L 302.629549 439.62147 
L 334.151548 434.853682 
L 365.673547 403.548925 
L 397.195546 395.196726 
L 428.717545 383.10009 
L 460.239544 371.480643 
L 491.761543 363.979294 
L 523.283542 362.747171 
L 554.80554 360.298012 
L 586.327539 348.342398 
L 617.849538 340.245582 
L 649.371537 331.24752 
" style="fill:none;stroke:#d62728;stroke-linecap:square;stroke-width:1.5;"/>
    <g clip-path="url(#p59acdbb99b)">
     <use style="fill:#ffffff;stroke:#d62728;" x="117" xlink:href="#mda97ee59e4" y="512.64"/>
     <use style="fill:#ffffff;stroke:#d62728;" x="145.019555" xlink:href="#mda97ee59e4" y="496.369283"/>
     <use style="fill:#ffffff;stroke:#d62728;" x="176.541554" xlink:href="#mda97ee59e4" y="468.298467"/>
     <use style="fill:#ffffff;stroke:#d62728;" x="208.063552" xlink:href="#mda97ee59e4" y="454.432838"/>
     <use style="fill:#ffffff;stroke:#d62728;" x="239.585551" xlink:href="#mda97ee59e4" y="446.107332"/>
     <use style="fill:#ffffff;stroke:#d62728;" x="271.10755" xlink:href="#mda97ee59e4" y="441.228896"/>
     <use style="fill:#ffffff;stroke:#d62728;" x="302.629549" xlink:href="#mda97ee59e4" y="439.62147"/>
     <use style="fill:#ffffff;stroke:#d62728;" x="334.151548" xlink:href="#mda97ee59e4" y="434.853682"/>
     <use style="fill:#ffffff;stroke:#d62728;" x="365.673547" xlink:href="#mda97ee59e4" y="403.548925"/>
     <use style="fill:#ffffff;stroke:#d62728;" x="397.195546" xlink:href="#mda97ee59e4" y="395.196726"/>
     <use style="fill:#ffffff;stroke:#d62728;" x="428.717545" xlink:href="#mda97ee59e4" y="383.10009"/>
     <use style="fill:#ffffff;stroke:#d62728;" x="460.239544" xlink:href="#mda97ee59e4" y="371.480643"/>
     <use style="fill:#ffffff;stroke:#d62728;" x="491.761543" xlink:href="#mda97ee59e4" y="363.979294"/>
     <use style="fill:#ffffff;stroke:#d62728;" x="523.283542" xlink:href="#mda97ee59e4" y="362.747171"/>
     <use style="fill:#ffffff;stroke:#d62728;" x="554.80554" xlink:href="#mda97ee59e4" y="360.298012"/>
     <use style="fill:#ffffff;stroke:#d62728;" x="586.327539" xlink:href="#mda97ee59e4" y="348.342398"/>
     <use style="fill:#ffffff;stroke:#d62728;" x="617.849538" xlink:href="#mda97ee59e4" y="340.245582"/>
     <use style="fill:#ffffff;stroke:#d62728;" x="649.371537" xlink:href="#mda97ee59e4" y="331.24752"/>
    </g>
   </g>
   <g id="line2d_29">
    <path clip-path="url(#p59acdbb99b)" d="M 117 512.64 
L 123.3044 510.550421 
L 154.826399 506.420431 
" style="fill:none;stroke:#9467bd;stroke-linecap:square;stroke-width:1.5;"/>
    <g clip-path="url(#p59acdbb99b)">
     <use style="fill:#ffffff;stroke:#9467bd;" x="117" xlink:href="#m77364fe123" y="512.64"/>
     <use style="fill:#ffffff;stroke:#9467bd;" x="123.3044" xlink:href="#m77364fe123" y="510.550421"/>
     <use style="fill:#ffffff;stroke:#9467bd;" x="154.826399" xlink:href="#m77364fe123" y="506.420431"/>
    </g>
   </g>
   <g id="line2d_30">
    <path clip-path="url(#p59acdbb99b)" d="M 117 512.64 
L 125.756111 502.354106 
L 157.27811 477.33526 
L 188.800109 444.471705 
L 220.322108 424.032454 
L 251.844106 416.547808 
L 283.366105 393.827704 
L 314.888104 380.478262 
L 346.410103 370.217244 
L 377.932102 354.261013 
L 409.454101 339.106257 
L 440.9761 326.845429 
L 472.498099 319.289546 
L 504.020098 312.956282 
L 535.542097 300.662089 
L 567.064096 285.938975 
" style="fill:none;stroke:#8c564b;stroke-linecap:square;stroke-width:1.5;"/>
    <g clip-path="url(#p59acdbb99b)">
     <use style="fill:#ffffff;stroke:#8c564b;" x="117" xlink:href="#m82bc7b35d9" y="512.64"/>
     <use style="fill:#ffffff;stroke:#8c564b;" x="125.756111" xlink:href="#m82bc7b35d9" y="502.354106"/>
     <use style="fill:#ffffff;stroke:#8c564b;" x="157.27811" xlink:href="#m82bc7b35d9" y="477.33526"/>
     <use style="fill:#ffffff;stroke:#8c564b;" x="188.800109" xlink:href="#m82bc7b35d9" y="444.471705"/>
     <use style="fill:#ffffff;stroke:#8c564b;" x="220.322108" xlink:href="#m82bc7b35d9" y="424.032454"/>
     <use style="fill:#ffffff;stroke:#8c564b;" x="251.844106" xlink:href="#m82bc7b35d9" y="416.547808"/>
     <use style="fill:#ffffff;stroke:#8c564b;" x="283.366105" xlink:href="#m82bc7b35d9" y="393.827704"/>
     <use style="fill:#ffffff;stroke:#8c564b;" x="314.888104" xlink:href="#m82bc7b35d9" y="380.478262"/>
     <use style="fill:#ffffff;stroke:#8c564b;" x="346.410103" xlink:href="#m82bc7b35d9" y="370.217244"/>
     <use style="fill:#ffffff;stroke:#8c564b;" x="377.932102" xlink:href="#m82bc7b35d9" y="354.261013"/>
     <use style="fill:#ffffff;stroke:#8c564b;" x="409.454101" xlink:href="#m82bc7b35d9" y="339.106257"/>
     <use style="fill:#ffffff;stroke:#8c564b;" x="440.9761" xlink:href="#m82bc7b35d9" y="326.845429"/>
     <use style="fill:#ffffff;stroke:#8c564b;" x="472.498099" xlink:href="#m82bc7b35d9" y="319.289546"/>
     <use style="fill:#ffffff;stroke:#8c564b;" x="504.020098" xlink:href="#m82bc7b35d9" y="312.956282"/>
     <use style="fill:#ffffff;stroke:#8c564b;" x="535.542097" xlink:href="#m82bc7b35d9" y="300.662089"/>
     <use style="fill:#ffffff;stroke:#8c564b;" x="567.064096" xlink:href="#m82bc7b35d9" y="285.938975"/>
    </g>
   </g>
   <g id="line2d_31">
    <path clip-path="url(#p59acdbb99b)" d="M 117 512.64 
L 139.065399 498.34928 
L 170.587398 494.403898 
L 202.109397 481.03591 
L 233.631396 475.50372 
L 265.153395 473.684453 
L 296.675394 466.526493 
L 328.197393 447.752609 
L 359.719392 439.62147 
L 391.241391 424.032454 
L 422.763389 413.607968 
L 454.285388 400.738087 
L 485.807387 389.758711 
L 517.329386 385.74546 
L 548.851385 366.458862 
L 580.373384 320.357743 
L 611.895383 307.775008 
" style="fill:none;stroke:#e377c2;stroke-linecap:square;stroke-width:1.5;"/>
    <g clip-path="url(#p59acdbb99b)">
     <use style="fill:#ffffff;stroke:#e377c2;" x="117" xlink:href="#m564dd6d20f" y="512.64"/>
     <use style="fill:#ffffff;stroke:#e377c2;" x="139.065399" xlink:href="#m564dd6d20f" y="498.34928"/>
     <use style="fill:#ffffff;stroke:#e377c2;" x="170.587398" xlink:href="#m564dd6d20f" y="494.403898"/>
     <use style="fill:#ffffff;stroke:#e377c2;" x="202.109397" xlink:href="#m564dd6d20f" y="481.03591"/>
     <use style="fill:#ffffff;stroke:#e377c2;" x="233.631396" xlink:href="#m564dd6d20f" y="475.50372"/>
     <use style="fill:#ffffff;stroke:#e377c2;" x="265.153395" xlink:href="#m564dd6d20f" y="473.684453"/>
     <use style="fill:#ffffff;stroke:#e377c2;" x="296.675394" xlink:href="#m564dd6d20f" y="466.526493"/>
     <use style="fill:#ffffff;stroke:#e377c2;" x="328.197393" xlink:href="#m564dd6d20f" y="447.752609"/>
     <use style="fill:#ffffff;stroke:#e377c2;" x="359.719392" xlink:href="#m564dd6d20f" y="439.62147"/>
     <use style="fill:#ffffff;stroke:#e377c2;" x="391.241391" xlink:href="#m564dd6d20f" y="424.032454"/>
     <use style="fill:#ffffff;stroke:#e377c2;" x="422.763389" xlink:href="#m564dd6d20f" y="413.607968"/>
     <use style="fill:#ffffff;stroke:#e377c2;" x="454.285388" xlink:href="#m564dd6d20f" y="400.738087"/>
     <use style="fill:#ffffff;stroke:#e377c2;" x="485.807387" xlink:href="#m564dd6d20f" y="389.758711"/>
     <use style="fill:#ffffff;stroke:#e377c2;" x="517.329386" xlink:href="#m564dd6d20f" y="385.74546"/>
     <use style="fill:#ffffff;stroke:#e377c2;" x="548.851385" xlink:href="#m564dd6d20f" y="366.458862"/>
     <use style="fill:#ffffff;stroke:#e377c2;" x="580.373384" xlink:href="#m564dd6d20f" y="320.357743"/>
     <use style="fill:#ffffff;stroke:#e377c2;" x="611.895383" xlink:href="#m564dd6d20f" y="307.775008"/>
    </g>
   </g>
   <g id="line2d_32">
    <path clip-path="url(#p59acdbb99b)" d="M 117 512.64 
L 127.507333 510.550421 
L 190.551331 494.403898 
L 222.07333 466.526493 
L 253.595329 447.752609 
L 285.117328 438.023203 
L 316.639326 436.433978 
L 348.161325 431.719429 
L 379.683324 427.082278 
L 411.205323 421.01499 
L 442.727322 413.607968 
L 474.249321 400.738087 
L 505.77132 397.954212 
L 568.815318 384.419803 
L 600.337317 380.478262 
L 631.859316 376.588642 
L 663.381315 371.480643 
L 694.903313 362.747171 
L 726.425312 357.868665 
" style="fill:none;stroke:#7f7f7f;stroke-linecap:square;stroke-width:1.5;"/>
    <g clip-path="url(#p59acdbb99b)">
     <use style="fill:#ffffff;stroke:#7f7f7f;" x="117" xlink:href="#m3f1ca3ac25" y="512.64"/>
     <use style="fill:#ffffff;stroke:#7f7f7f;" x="127.507333" xlink:href="#m3f1ca3ac25" y="510.550421"/>
     <use style="fill:#ffffff;stroke:#7f7f7f;" x="190.551331" xlink:href="#m3f1ca3ac25" y="494.403898"/>
     <use style="fill:#ffffff;stroke:#7f7f7f;" x="222.07333" xlink:href="#m3f1ca3ac25" y="466.526493"/>
     <use style="fill:#ffffff;stroke:#7f7f7f;" x="253.595329" xlink:href="#m3f1ca3ac25" y="447.752609"/>
     <use style="fill:#ffffff;stroke:#7f7f7f;" x="285.117328" xlink:href="#m3f1ca3ac25" y="438.023203"/>
     <use style="fill:#ffffff;stroke:#7f7f7f;" x="316.639326" xlink:href="#m3f1ca3ac25" y="436.433978"/>
     <use style="fill:#ffffff;stroke:#7f7f7f;" x="348.161325" xlink:href="#m3f1ca3ac25" y="431.719429"/>
     <use style="fill:#ffffff;stroke:#7f7f7f;" x="379.683324" xlink:href="#m3f1ca3ac25" y="427.082278"/>
     <use style="fill:#ffffff;stroke:#7f7f7f;" x="411.205323" xlink:href="#m3f1ca3ac25" y="421.01499"/>
     <use style="fill:#ffffff;stroke:#7f7f7f;" x="442.727322" xlink:href="#m3f1ca3ac25" y="413.607968"/>
     <use style="fill:#ffffff;stroke:#7f7f7f;" x="474.249321" xlink:href="#m3f1ca3ac25" y="400.738087"/>
     <use style="fill:#ffffff;stroke:#7f7f7f;" x="505.77132" xlink:href="#m3f1ca3ac25" y="397.954212"/>
     <use style="fill:#ffffff;stroke:#7f7f7f;" x="568.815318" xlink:href="#m3f1ca3ac25" y="384.419803"/>
     <use style="fill:#ffffff;stroke:#7f7f7f;" x="600.337317" xlink:href="#m3f1ca3ac25" y="380.478262"/>
     <use style="fill:#ffffff;stroke:#7f7f7f;" x="631.859316" xlink:href="#m3f1ca3ac25" y="376.588642"/>
     <use style="fill:#ffffff;stroke:#7f7f7f;" x="663.381315" xlink:href="#m3f1ca3ac25" y="371.480643"/>
     <use style="fill:#ffffff;stroke:#7f7f7f;" x="694.903313" xlink:href="#m3f1ca3ac25" y="362.747171"/>
     <use style="fill:#ffffff;stroke:#7f7f7f;" x="726.425312" xlink:href="#m3f1ca3ac25" y="357.868665"/>
    </g>
   </g>
   <g id="line2d_33">
    <path clip-path="url(#p59acdbb99b)" d="M 117 512.64 
L 125.344059 494.403898 
L 156.866057 471.877273 
L 188.388056 456.128356 
L 219.910055 438.023203 
L 251.432054 425.553272 
L 282.954053 418.029123 
L 314.476052 362.747171 
L 345.998051 347.172427 
L 377.52005 321.429629 
L 409.042049 293.706137 
L 440.564048 275.558703 
L 472.086047 254.877967 
L 503.608045 237.075574 
L 535.130044 216.282281 
L 566.652043 198.902956 
L 598.174042 172.678011 
L 629.696041 156.019502 
L 661.21804 148.296065 
L 692.740039 141.98642 
L 724.262038 121.923987 
L 755.784037 106.869813 
L 787.306036 90.24 
" style="fill:none;stroke:#bcbd22;stroke-linecap:square;stroke-width:1.5;"/>
    <g clip-path="url(#p59acdbb99b)">
     <use style="fill:#ffffff;stroke:#bcbd22;" x="117" xlink:href="#m27df0affc3" y="512.64"/>
     <use style="fill:#ffffff;stroke:#bcbd22;" x="125.344059" xlink:href="#m27df0affc3" y="494.403898"/>
     <use style="fill:#ffffff;stroke:#bcbd22;" x="156.866057" xlink:href="#m27df0affc3" y="471.877273"/>
     <use style="fill:#ffffff;stroke:#bcbd22;" x="188.388056" xlink:href="#m27df0affc3" y="456.128356"/>
     <use style="fill:#ffffff;stroke:#bcbd22;" x="219.910055" xlink:href="#m27df0affc3" y="438.023203"/>
     <use style="fill:#ffffff;stroke:#bcbd22;" x="251.432054" xlink:href="#m27df0affc3" y="425.553272"/>
     <use style="fill:#ffffff;stroke:#bcbd22;" x="282.954053" xlink:href="#m27df0affc3" y="418.029123"/>
     <use style="fill:#ffffff;stroke:#bcbd22;" x="314.476052" xlink:href="#m27df0affc3" y="362.747171"/>
     <use style="fill:#ffffff;stroke:#bcbd22;" x="345.998051" xlink:href="#m27df0affc3" y="347.172427"/>
     <use style="fill:#ffffff;stroke:#bcbd22;" x="377.52005" xlink:href="#m27df0affc3" y="321.429629"/>
     <use style="fill:#ffffff;stroke:#bcbd22;" x="409.042049" xlink:href="#m27df0affc3" y="293.706137"/>
     <use style="fill:#ffffff;stroke:#bcbd22;" x="440.564048" xlink:href="#m27df0affc3" y="275.558703"/>
     <use style="fill:#ffffff;stroke:#bcbd22;" x="472.086047" xlink:href="#m27df0affc3" y="254.877967"/>
     <use style="fill:#ffffff;stroke:#bcbd22;" x="503.608045" xlink:href="#m27df0affc3" y="237.075574"/>
     <use style="fill:#ffffff;stroke:#bcbd22;" x="535.130044" xlink:href="#m27df0affc3" y="216.282281"/>
     <use style="fill:#ffffff;stroke:#bcbd22;" x="566.652043" xlink:href="#m27df0affc3" y="198.902956"/>
     <use style="fill:#ffffff;stroke:#bcbd22;" x="598.174042" xlink:href="#m27df0affc3" y="172.678011"/>
     <use style="fill:#ffffff;stroke:#bcbd22;" x="629.696041" xlink:href="#m27df0affc3" y="156.019502"/>
     <use style="fill:#ffffff;stroke:#bcbd22;" x="661.21804" xlink:href="#m27df0affc3" y="148.296065"/>
     <use style="fill:#ffffff;stroke:#bcbd22;" x="692.740039" xlink:href="#m27df0affc3" y="141.98642"/>
     <use style="fill:#ffffff;stroke:#bcbd22;" x="724.262038" xlink:href="#m27df0affc3" y="121.923987"/>
     <use style="fill:#ffffff;stroke:#bcbd22;" x="755.784037" xlink:href="#m27df0affc3" y="106.869813"/>
     <use style="fill:#ffffff;stroke:#bcbd22;" x="787.306036" xlink:href="#m27df0affc3" y="90.24"/>
    </g>
   </g>
   <g id="line2d_34">
    <path clip-path="url(#p59acdbb99b)" d="M 117 512.64 
L 145.895166 490.516012 
L 177.417165 459.550936 
L 208.939163 444.471705 
L 240.461162 433.282202 
L 271.983161 418.029123 
L 303.50516 395.196726 
L 335.027159 379.176029 
L 366.549158 360.298012 
L 398.071157 350.695972 
L 429.593156 343.689307 
L 461.115155 333.472404 
L 492.637154 322.505234 
L 524.159153 309.837232 
L 555.681152 305.726262 
L 587.20315 294.690528 
L 618.725149 289.798838 
L 650.247148 285.938975 
L 681.769147 280.235343 
L 713.291146 271.865773 
L 744.813145 254.877967 
L 776.335144 247.98195 
L 807.857143 241.227772 
" style="fill:none;stroke:#17becf;stroke-linecap:square;stroke-width:1.5;"/>
    <g clip-path="url(#p59acdbb99b)">
     <use style="fill:#ffffff;stroke:#17becf;" x="117" xlink:href="#m770099a89a" y="512.64"/>
     <use style="fill:#ffffff;stroke:#17becf;" x="145.895166" xlink:href="#m770099a89a" y="490.516012"/>
     <use style="fill:#ffffff;stroke:#17becf;" x="177.417165" xlink:href="#m770099a89a" y="459.550936"/>
     <use style="fill:#ffffff;stroke:#17becf;" x="208.939163" xlink:href="#m770099a89a" y="444.471705"/>
     <use style="fill:#ffffff;stroke:#17becf;" x="240.461162" xlink:href="#m770099a89a" y="433.282202"/>
     <use style="fill:#ffffff;stroke:#17becf;" x="271.983161" xlink:href="#m770099a89a" y="418.029123"/>
     <use style="fill:#ffffff;stroke:#17becf;" x="303.50516" xlink:href="#m770099a89a" y="395.196726"/>
     <use style="fill:#ffffff;stroke:#17becf;" x="335.027159" xlink:href="#m770099a89a" y="379.176029"/>
     <use style="fill:#ffffff;stroke:#17becf;" x="366.549158" xlink:href="#m770099a89a" y="360.298012"/>
     <use style="fill:#ffffff;stroke:#17becf;" x="398.071157" xlink:href="#m770099a89a" y="350.695972"/>
     <use style="fill:#ffffff;stroke:#17becf;" x="429.593156" xlink:href="#m770099a89a" y="343.689307"/>
     <use style="fill:#ffffff;stroke:#17becf;" x="461.115155" xlink:href="#m770099a89a" y="333.472404"/>
     <use style="fill:#ffffff;stroke:#17becf;" x="492.637154" xlink:href="#m770099a89a" y="322.505234"/>
     <use style="fill:#ffffff;stroke:#17becf;" x="524.159153" xlink:href="#m770099a89a" y="309.837232"/>
     <use style="fill:#ffffff;stroke:#17becf;" x="555.681152" xlink:href="#m770099a89a" y="305.726262"/>
     <use style="fill:#ffffff;stroke:#17becf;" x="587.20315" xlink:href="#m770099a89a" y="294.690528"/>
     <use style="fill:#ffffff;stroke:#17becf;" x="618.725149" xlink:href="#m770099a89a" y="289.798838"/>
     <use style="fill:#ffffff;stroke:#17becf;" x="650.247148" xlink:href="#m770099a89a" y="285.938975"/>
     <use style="fill:#ffffff;stroke:#17becf;" x="681.769147" xlink:href="#m770099a89a" y="280.235343"/>
     <use style="fill:#ffffff;stroke:#17becf;" x="713.291146" xlink:href="#m770099a89a" y="271.865773"/>
     <use style="fill:#ffffff;stroke:#17becf;" x="744.813145" xlink:href="#m770099a89a" y="254.877967"/>
     <use style="fill:#ffffff;stroke:#17becf;" x="776.335144" xlink:href="#m770099a89a" y="247.98195"/>
     <use style="fill:#ffffff;stroke:#17becf;" x="807.857143" xlink:href="#m770099a89a" y="241.227772"/>
    </g>
   </g>
   <g id="patch_3">
    <path d="M 117 512.64 
L 117 69.12 
" style="fill:none;stroke:#666666;stroke-linecap:square;stroke-linejoin:miter;stroke-width:0.8;"/>
   </g>
   <g id="patch_4">
    <path d="M 117 512.64 
L 842.4 512.64 
" style="fill:none;stroke:#666666;stroke-linecap:square;stroke-linejoin:miter;stroke-width:0.8;"/>
   </g>
   <g id="text_7">
    <g id="patch_5">
     <path d="M 517.869045 286.654124 
C 519.369045 288.154124 531.781545 288.154124 533.281545 286.654124 
C 534.781545 285.154124 534.781545 275.475999 533.281545 273.975999 
C 531.781545 272.475999 519.369045 272.475999 517.869045 273.975999 
C 516.369045 275.475999 516.369045 285.154124 517.869045 286.654124 
z
" style="fill:#ffffff;stroke:#1f77b4;stroke-linejoin:miter;"/>
    </g>
    <!-- AL -->
    <defs>
     <path d="M 34.1875 63.1875 
L 20.796875 26.90625 
L 47.609375 26.90625 
z
M 28.609375 72.90625 
L 39.796875 72.90625 
L 67.578125 0 
L 57.328125 0 
L 50.6875 18.703125 
L 17.828125 18.703125 
L 11.1875 0 
L 0.78125 0 
z
" id="DejaVuSans-65"/>
     <path d="M 9.8125 72.90625 
L 19.671875 72.90625 
L 19.671875 8.296875 
L 55.171875 8.296875 
L 55.171875 0 
L 9.8125 0 
z
" id="DejaVuSans-76"/>
    </defs>
    <g style="fill:#1f77b4;" transform="translate(519.369045 283.074437)scale(0.1 -0.1)">
     <use xlink:href="#DejaVuSans-65"/>
     <use x="68.408203" xlink:href="#DejaVuSans-76"/>
    </g>
   </g>
   <g id="text_8">
    <g id="patch_6">
     <path d="M 737.343069 241.481541 
C 738.843069 242.981541 752.533694 242.981541 754.033694 241.481541 
C 755.533694 239.981541 755.533694 230.303416 754.033694 228.803416 
C 752.533694 227.303416 738.843069 227.303416 737.343069 228.803416 
C 735.843069 230.303416 735.843069 239.981541 737.343069 241.481541 
z
" style="fill:#ffffff;stroke:#ff7f0e;stroke-linejoin:miter;"/>
    </g>
    <!-- AZ -->
    <defs>
     <path d="M 5.609375 72.90625 
L 62.890625 72.90625 
L 62.890625 65.375 
L 16.796875 8.296875 
L 64.015625 8.296875 
L 64.015625 0 
L 4.5 0 
L 4.5 7.515625 
L 50.59375 64.59375 
L 5.609375 64.59375 
z
" id="DejaVuSans-90"/>
    </defs>
    <g style="fill:#ff7f0e;" transform="translate(738.843069 237.901854)scale(0.1 -0.1)">
     <use xlink:href="#DejaVuSans-65"/>
     <use x="68.408203" xlink:href="#DejaVuSans-90"/>
    </g>
   </g>
   <g id="text_9">
    <g id="patch_7">
     <path d="M 448.232211 332.618301 
C 449.732211 334.118301 464.415023 334.118301 465.915023 332.618301 
C 467.415023 331.118301 467.415023 321.440176 465.915023 319.940176 
C 464.415023 318.440176 449.732211 318.440176 448.232211 319.940176 
C 446.732211 321.440176 446.732211 331.118301 448.232211 332.618301 
z
" style="fill:#ffffff;stroke:#2ca02c;stroke-linejoin:miter;"/>
    </g>
    <!-- DC -->
    <defs>
     <path d="M 64.40625 67.28125 
L 64.40625 56.890625 
Q 59.421875 61.53125 53.78125 63.8125 
Q 48.140625 66.109375 41.796875 66.109375 
Q 29.296875 66.109375 22.65625 58.46875 
Q 16.015625 50.828125 16.015625 36.375 
Q 16.015625 21.96875 22.65625 14.328125 
Q 29.296875 6.6875 41.796875 6.6875 
Q 48.140625 6.6875 53.78125 8.984375 
Q 59.421875 11.28125 64.40625 15.921875 
L 64.40625 5.609375 
Q 59.234375 2.09375 53.4375 0.328125 
Q 47.65625 -1.421875 41.21875 -1.421875 
Q 24.65625 -1.421875 15.125 8.703125 
Q 5.609375 18.84375 5.609375 36.375 
Q 5.609375 53.953125 15.125 64.078125 
Q 24.65625 74.21875 41.21875 74.21875 
Q 47.75 74.21875 53.53125 72.484375 
Q 59.328125 70.75 64.40625 67.28125 
z
" id="DejaVuSans-67"/>
    </defs>
    <g style="fill:#2ca02c;" transform="translate(449.732211 329.038614)scale(0.1 -0.1)">
     <use xlink:href="#DejaVuSans-68"/>
     <use x="77.001953" xlink:href="#DejaVuSans-67"/>
    </g>
   </g>
   <g id="text_10">
    <g id="patch_8">
     <path d="M 304.631993 424.594677 
C 306.131993 426.094677 320.150743 426.094677 321.650743 424.594677 
C 323.150743 423.094677 323.150743 413.416552 321.650743 411.916552 
C 320.150743 410.416552 306.131993 410.416552 304.631993 411.916552 
C 303.131993 413.416552 303.131993 423.094677 304.631993 424.594677 
z
" style="fill:#ffffff;stroke:#d62728;stroke-linejoin:miter;"/>
    </g>
    <!-- DE -->
    <defs>
     <path d="M 9.8125 72.90625 
L 55.90625 72.90625 
L 55.90625 64.59375 
L 19.671875 64.59375 
L 19.671875 43.015625 
L 54.390625 43.015625 
L 54.390625 34.71875 
L 19.671875 34.71875 
L 19.671875 8.296875 
L 56.78125 8.296875 
L 56.78125 0 
L 9.8125 0 
z
" id="DejaVuSans-69"/>
    </defs>
    <g style="fill:#d62728;" transform="translate(306.131993 421.01499)scale(0.1 -0.1)">
     <use xlink:href="#DejaVuSans-68"/>
     <use x="77.001953" xlink:href="#DejaVuSans-69"/>
    </g>
   </g>
   <g id="text_11">
    <g id="patch_9">
     <path d="M 324.691447 409.967008 
C 326.191447 411.467008 335.982072 411.467008 337.482072 409.967008 
C 338.982072 408.467008 338.982072 398.788883 337.482072 397.288883 
C 335.982072 395.788883 326.191447 395.788883 324.691447 397.288883 
C 323.191447 398.788883 323.191447 408.467008 324.691447 409.967008 
z
" style="fill:#ffffff;stroke:#9467bd;stroke-linejoin:miter;"/>
    </g>
    <!-- IA -->
    <defs>
     <path d="M 9.8125 72.90625 
L 19.671875 72.90625 
L 19.671875 0 
L 9.8125 0 
z
" id="DejaVuSans-73"/>
    </defs>
    <g style="fill:#9467bd;" transform="translate(326.191447 406.38732)scale(0.1 -0.1)">
     <use xlink:href="#DejaVuSans-73"/>
     <use x="29.492188" xlink:href="#DejaVuSans-65"/>
    </g>
   </g>
   <g id="text_12">
    <g id="patch_10">
     <path d="M 430.719989 461.414027 
C 432.219989 462.914027 445.126239 462.914027 446.626239 461.414027 
C 448.126239 459.914027 448.126239 450.235902 446.626239 448.735902 
C 445.126239 447.235902 432.219989 447.235902 430.719989 448.735902 
C 429.219989 450.235902 429.219989 459.914027 430.719989 461.414027 
z
" style="fill:#ffffff;stroke:#8c564b;stroke-linejoin:miter;"/>
    </g>
    <!-- KS -->
    <defs>
     <path d="M 9.8125 72.90625 
L 19.671875 72.90625 
L 19.671875 42.09375 
L 52.390625 72.90625 
L 65.09375 72.90625 
L 28.90625 38.921875 
L 67.671875 0 
L 54.6875 0 
L 19.671875 35.109375 
L 19.671875 0 
L 9.8125 0 
z
" id="DejaVuSans-75"/>
     <path d="M 53.515625 70.515625 
L 53.515625 60.890625 
Q 47.90625 63.578125 42.921875 64.890625 
Q 37.9375 66.21875 33.296875 66.21875 
Q 25.25 66.21875 20.875 63.09375 
Q 16.5 59.96875 16.5 54.203125 
Q 16.5 49.359375 19.40625 46.890625 
Q 22.3125 44.4375 30.421875 42.921875 
L 36.375 41.703125 
Q 47.40625 39.59375 52.65625 34.296875 
Q 57.90625 29 57.90625 20.125 
Q 57.90625 9.515625 50.796875 4.046875 
Q 43.703125 -1.421875 29.984375 -1.421875 
Q 24.8125 -1.421875 18.96875 -0.25 
Q 13.140625 0.921875 6.890625 3.21875 
L 6.890625 13.375 
Q 12.890625 10.015625 18.65625 8.296875 
Q 24.421875 6.59375 29.984375 6.59375 
Q 38.421875 6.59375 43.015625 9.90625 
Q 47.609375 13.234375 47.609375 19.390625 
Q 47.609375 24.75 44.3125 27.78125 
Q 41.015625 30.8125 33.5 32.328125 
L 27.484375 33.5 
Q 16.453125 35.6875 11.515625 40.375 
Q 6.59375 45.0625 6.59375 53.421875 
Q 6.59375 63.09375 13.40625 68.65625 
Q 20.21875 74.21875 32.171875 74.21875 
Q 37.3125 74.21875 42.625 73.28125 
Q 47.953125 72.359375 53.515625 70.515625 
z
" id="DejaVuSans-83"/>
    </defs>
    <g style="fill:#8c564b;" transform="translate(432.219989 457.834339)scale(0.1 -0.1)">
     <use xlink:href="#DejaVuSans-75"/>
     <use x="65.576172" xlink:href="#DejaVuSans-83"/>
    </g>
   </g>
   <g id="text_13">
    <g id="patch_11">
     <path d="M 663.982781 315.492823 
C 665.482781 316.992823 677.785906 316.992823 679.285906 315.492823 
C 680.785906 313.992823 680.785906 304.314698 679.285906 302.814698 
C 677.785906 301.314698 665.482781 301.314698 663.982781 302.814698 
C 662.482781 304.314698 662.482781 313.992823 663.982781 315.492823 
z
" style="fill:#ffffff;stroke:#e377c2;stroke-linejoin:miter;"/>
    </g>
    <!-- KY -->
    <defs>
     <path d="M -0.203125 72.90625 
L 10.40625 72.90625 
L 30.609375 42.921875 
L 50.6875 72.90625 
L 61.28125 72.90625 
L 35.5 34.71875 
L 35.5 0 
L 25.59375 0 
L 25.59375 34.71875 
z
" id="DejaVuSans-89"/>
    </defs>
    <g style="fill:#e377c2;" transform="translate(665.482781 311.913136)scale(0.1 -0.1)">
     <use xlink:href="#DejaVuSans-75"/>
     <use x="61.951172" xlink:href="#DejaVuSans-89"/>
    </g>
   </g>
   <g id="text_14">
    <g id="patch_12">
     <path d="M 545.682573 222.977968 
C 547.182573 224.477968 563.291948 224.477968 564.791948 222.977968 
C 566.291948 221.477968 566.291948 211.799843 564.791948 210.299843 
C 563.291948 208.799843 547.182573 208.799843 545.682573 210.299843 
C 544.182573 211.799843 544.182573 221.477968 545.682573 222.977968 
z
" style="fill:#ffffff;stroke:#7f7f7f;stroke-linejoin:miter;"/>
    </g>
    <!-- MN -->
    <defs>
     <path d="M 9.8125 72.90625 
L 24.515625 72.90625 
L 43.109375 23.296875 
L 61.8125 72.90625 
L 76.515625 72.90625 
L 76.515625 0 
L 66.890625 0 
L 66.890625 64.015625 
L 48.09375 14.015625 
L 38.1875 14.015625 
L 19.390625 64.015625 
L 19.390625 0 
L 9.8125 0 
z
" id="DejaVuSans-77"/>
     <path d="M 9.8125 72.90625 
L 23.09375 72.90625 
L 55.421875 11.921875 
L 55.421875 72.90625 
L 64.984375 72.90625 
L 64.984375 0 
L 51.703125 0 
L 19.390625 60.984375 
L 19.390625 0 
L 9.8125 0 
z
" id="DejaVuSans-78"/>
    </defs>
    <g style="fill:#7f7f7f;" transform="translate(547.182573 219.39828)scale(0.1 -0.1)">
     <use xlink:href="#DejaVuSans-77"/>
     <use x="86.279297" xlink:href="#DejaVuSans-78"/>
    </g>
   </g>
   <g id="text_15">
    <g id="patch_13">
     <path d="M 736.240902 234.118116 
C 737.740902 235.618116 754.240902 235.618116 755.740902 234.118116 
C 757.240902 232.618116 757.240902 222.939991 755.740902 221.439991 
C 754.240902 219.939991 737.740902 219.939991 736.240902 221.439991 
C 734.740902 222.939991 734.740902 232.618116 736.240902 234.118116 
z
" style="fill:#ffffff;stroke:#bcbd22;stroke-linejoin:miter;"/>
    </g>
    <!-- MO -->
    <defs>
     <path d="M 39.40625 66.21875 
Q 28.65625 66.21875 22.328125 58.203125 
Q 16.015625 50.203125 16.015625 36.375 
Q 16.015625 22.609375 22.328125 14.59375 
Q 28.65625 6.59375 39.40625 6.59375 
Q 50.140625 6.59375 56.421875 14.59375 
Q 62.703125 22.609375 62.703125 36.375 
Q 62.703125 50.203125 56.421875 58.203125 
Q 50.140625 66.21875 39.40625 66.21875 
z
M 39.40625 74.21875 
Q 54.734375 74.21875 63.90625 63.9375 
Q 73.09375 53.65625 73.09375 36.375 
Q 73.09375 19.140625 63.90625 8.859375 
Q 54.734375 -1.421875 39.40625 -1.421875 
Q 24.03125 -1.421875 14.8125 8.828125 
Q 5.609375 19.09375 5.609375 36.375 
Q 5.609375 53.65625 14.8125 63.9375 
Q 24.03125 74.21875 39.40625 74.21875 
z
" id="DejaVuSans-79"/>
    </defs>
    <g style="fill:#bcbd22;" transform="translate(737.740902 230.538428)scale(0.1 -0.1)">
     <use xlink:href="#DejaVuSans-77"/>
     <use x="86.279297" xlink:href="#DejaVuSans-79"/>
    </g>
   </g>
   <g id="text_16">
    <g id="patch_14">
     <path d="M 646.524443 294.350852 
C 648.024443 295.850852 663.001006 295.850852 664.501006 294.350852 
C 666.001006 292.850852 666.001006 283.172727 664.501006 281.672727 
C 663.001006 280.172727 648.024443 280.172727 646.524443 281.672727 
C 645.024443 283.172727 645.024443 292.850852 646.524443 294.350852 
z
" style="fill:#ffffff;stroke:#17becf;stroke-linejoin:miter;"/>
    </g>
    <!-- MS -->
    <g style="fill:#17becf;" transform="translate(648.024443 290.771165)scale(0.1 -0.1)">
     <use xlink:href="#DejaVuSans-77"/>
     <use x="86.279297" xlink:href="#DejaVuSans-83"/>
    </g>
   </g>
   <g id="text_17">
    <g id="patch_15">
     <path d="M 631.314528 196.64021 
C 632.814528 198.14021 647.27859 198.14021 648.77859 196.64021 
C 650.27859 195.14021 650.27859 185.462085 648.77859 183.962085 
C 647.27859 182.462085 632.814528 182.462085 631.314528 183.962085 
C 629.814528 185.462085 629.814528 195.14021 631.314528 196.64021 
z
" style="fill:#ffffff;stroke:#1f77b4;stroke-linejoin:miter;"/>
    </g>
    <!-- NC -->
    <g style="fill:#1f77b4;" transform="translate(632.814528 193.060523)scale(0.1 -0.1)">
     <use xlink:href="#DejaVuSans-78"/>
     <use x="74.804688" xlink:href="#DejaVuSans-67"/>
    </g>
   </g>
   <g id="text_18">
    <g id="patch_16">
     <path d="M 235.283596 471.878154 
C 236.783596 473.378154 252.892971 473.378154 254.392971 471.878154 
C 255.892971 470.378154 255.892971 460.700029 254.392971 459.200029 
C 252.892971 457.700029 236.783596 457.700029 235.283596 459.200029 
C 233.783596 460.700029 233.783596 470.378154 235.283596 471.878154 
z
" style="fill:#ffffff;stroke:#ff7f0e;stroke-linejoin:miter;"/>
    </g>
    <!-- NM -->
    <g style="fill:#ff7f0e;" transform="translate(236.783596 468.298467)scale(0.1 -0.1)">
     <use xlink:href="#DejaVuSans-78"/>
     <use x="74.804688" xlink:href="#DejaVuSans-77"/>
    </g>
   </g>
   <g id="text_19">
    <g id="patch_17">
     <path d="M 694.358526 318.632781 
C 695.858526 320.132781 710.180401 320.132781 711.680401 318.632781 
C 713.180401 317.132781 713.180401 307.454656 711.680401 305.954656 
C 710.180401 304.454656 695.858526 304.454656 694.358526 305.954656 
C 692.858526 307.454656 692.858526 317.132781 694.358526 318.632781 
z
" style="fill:#ffffff;stroke:#2ca02c;stroke-linejoin:miter;"/>
    </g>
    <!-- NV -->
    <defs>
     <path d="M 28.609375 0 
L 0.78125 72.90625 
L 11.078125 72.90625 
L 34.1875 11.53125 
L 57.328125 72.90625 
L 67.578125 72.90625 
L 39.796875 0 
z
" id="DejaVuSans-86"/>
    </defs>
    <g style="fill:#2ca02c;" transform="translate(695.858526 315.053093)scale(0.1 -0.1)">
     <use xlink:href="#DejaVuSans-78"/>
     <use x="74.804688" xlink:href="#DejaVuSans-86"/>
    </g>
   </g>
   <g id="text_20">
    <g id="patch_18">
     <path d="M 647.871537 334.827207 
C 649.371537 336.327207 663.801225 336.327207 665.301225 334.827207 
C 666.801225 333.327207 666.801225 323.649082 665.301225 322.149082 
C 663.801225 320.649082 649.371537 320.649082 647.871537 322.149082 
C 646.371537 323.649082 646.371537 333.327207 647.871537 334.827207 
z
" style="fill:#ffffff;stroke:#d62728;stroke-linejoin:miter;"/>
    </g>
    <!-- OK -->
    <g style="fill:#d62728;" transform="translate(649.371537 331.24752)scale(0.1 -0.1)">
     <use xlink:href="#DejaVuSans-79"/>
     <use x="78.710938" xlink:href="#DejaVuSans-75"/>
    </g>
   </g>
   <g id="text_21">
    <g id="patch_19">
     <path d="M 153.326399 510.000118 
C 154.826399 511.500118 169.646711 511.500118 171.146711 510.000118 
C 172.646711 508.500118 172.646711 498.821993 171.146711 497.321993 
C 169.646711 495.821993 154.826399 495.821993 153.326399 497.321993 
C 151.826399 498.821993 151.826399 508.500118 153.326399 510.000118 
z
" style="fill:#ffffff;stroke:#9467bd;stroke-linejoin:miter;"/>
    </g>
    <!-- OR -->
    <defs>
     <path d="M 44.390625 34.1875 
Q 47.5625 33.109375 50.5625 29.59375 
Q 53.5625 26.078125 56.59375 19.921875 
L 66.609375 0 
L 56 0 
L 46.6875 18.703125 
Q 43.0625 26.03125 39.671875 28.421875 
Q 36.28125 30.8125 30.421875 30.8125 
L 19.671875 30.8125 
L 19.671875 0 
L 9.8125 0 
L 9.8125 72.90625 
L 32.078125 72.90625 
Q 44.578125 72.90625 50.734375 67.671875 
Q 56.890625 62.453125 56.890625 51.90625 
Q 56.890625 45.015625 53.6875 40.46875 
Q 50.484375 35.9375 44.390625 34.1875 
z
M 19.671875 64.796875 
L 19.671875 38.921875 
L 32.078125 38.921875 
Q 39.203125 38.921875 42.84375 42.21875 
Q 46.484375 45.515625 46.484375 51.90625 
Q 46.484375 58.296875 42.84375 61.546875 
Q 39.203125 64.796875 32.078125 64.796875 
z
" id="DejaVuSans-82"/>
    </defs>
    <g style="fill:#9467bd;" transform="translate(154.826399 506.420431)scale(0.1 -0.1)">
     <use xlink:href="#DejaVuSans-79"/>
     <use x="78.710938" xlink:href="#DejaVuSans-82"/>
    </g>
   </g>
   <g id="text_22">
    <g id="patch_20">
     <path d="M 565.564096 289.518662 
C 567.064096 291.018662 576.962533 291.018662 578.462533 289.518662 
C 579.962533 288.018662 579.962533 278.340537 578.462533 276.840537 
C 576.962533 275.340537 567.064096 275.340537 565.564096 276.840537 
C 564.064096 278.340537 564.064096 288.018662 565.564096 289.518662 
z
" style="fill:#ffffff;stroke:#8c564b;stroke-linejoin:miter;"/>
    </g>
    <!-- RI -->
    <g style="fill:#8c564b;" transform="translate(567.064096 285.938975)scale(0.1 -0.1)">
     <use xlink:href="#DejaVuSans-82"/>
     <use x="69.482422" xlink:href="#DejaVuSans-73"/>
    </g>
   </g>
   <g id="text_23">
    <g id="patch_21">
     <path d="M 610.395383 311.354695 
C 611.895383 312.854695 625.226633 312.854695 626.726633 311.354695 
C 628.226633 309.854695 628.226633 300.17657 626.726633 298.67657 
C 625.226633 297.17657 611.895383 297.17657 610.395383 298.67657 
C 608.895383 300.17657 608.895383 309.854695 610.395383 311.354695 
z
" style="fill:#ffffff;stroke:#e377c2;stroke-linejoin:miter;"/>
    </g>
    <!-- SC -->
    <g style="fill:#e377c2;" transform="translate(611.895383 307.775008)scale(0.1 -0.1)">
     <use xlink:href="#DejaVuSans-83"/>
     <use x="63.476562" xlink:href="#DejaVuSans-67"/>
    </g>
   </g>
   <g id="text_24">
    <g id="patch_22">
     <path d="M 724.925312 361.448353 
C 726.425312 362.948353 740.014375 362.948353 741.514375 361.448353 
C 743.014375 359.948353 743.014375 350.270228 741.514375 348.770228 
C 740.014375 347.270228 726.425312 347.270228 724.925312 348.770228 
C 723.425312 350.270228 723.425312 359.948353 724.925312 361.448353 
z
" style="fill:#ffffff;stroke:#7f7f7f;stroke-linejoin:miter;"/>
    </g>
    <!-- TN -->
    <defs>
     <path d="M -0.296875 72.90625 
L 61.375 72.90625 
L 61.375 64.59375 
L 35.5 64.59375 
L 35.5 0 
L 25.59375 0 
L 25.59375 64.59375 
L -0.296875 64.59375 
z
" id="DejaVuSans-84"/>
    </defs>
    <g style="fill:#7f7f7f;" transform="translate(726.425312 357.868665)scale(0.1 -0.1)">
     <use xlink:href="#DejaVuSans-84"/>
     <use x="61.083984" xlink:href="#DejaVuSans-78"/>
    </g>
   </g>
   <g id="text_25">
    <g id="patch_23">
     <path d="M 785.806036 93.819688 
C 787.306036 95.319688 800.349786 95.319688 801.849786 93.819688 
C 803.349786 92.319688 803.349786 82.641563 801.849786 81.141563 
C 800.349786 79.641563 787.306036 79.641563 785.806036 81.141563 
C 784.306036 82.641563 784.306036 92.319688 785.806036 93.819688 
z
" style="fill:#ffffff;stroke:#bcbd22;stroke-linejoin:miter;"/>
    </g>
    <!-- VA -->
    <g style="fill:#bcbd22;" transform="translate(787.306036 90.24)scale(0.1 -0.1)">
     <use xlink:href="#DejaVuSans-86"/>
     <use x="62.033203" xlink:href="#DejaVuSans-65"/>
    </g>
   </g>
   <g id="text_26">
    <g id="patch_24">
     <path d="M 806.357143 244.807459 
C 807.857143 246.307459 820.694643 246.307459 822.194643 244.807459 
C 823.694643 243.307459 823.694643 233.629334 822.194643 232.129334 
C 820.694643 230.629334 807.857143 230.629334 806.357143 232.129334 
C 804.857143 233.629334 804.857143 243.307459 806.357143 244.807459 
z
" style="fill:#ffffff;stroke:#17becf;stroke-linejoin:miter;"/>
    </g>
    <!-- WI -->
    <defs>
     <path d="M 3.328125 72.90625 
L 13.28125 72.90625 
L 28.609375 11.28125 
L 43.890625 72.90625 
L 54.984375 72.90625 
L 70.3125 11.28125 
L 85.59375 72.90625 
L 95.609375 72.90625 
L 77.296875 0 
L 64.890625 0 
L 49.515625 63.28125 
L 33.984375 0 
L 21.578125 0 
z
" id="DejaVuSans-87"/>
    </defs>
    <g style="fill:#17becf;" transform="translate(807.857143 241.227772)scale(0.1 -0.1)">
     <use xlink:href="#DejaVuSans-87"/>
     <use x="98.876953" xlink:href="#DejaVuSans-73"/>
    </g>
   </g>
   <g id="text_27">
    <!-- 1d -->
    <g style="fill:#b2b2b2;" transform="translate(170.804997 93.146361)scale(0.1 -0.1)">
     <use xlink:href="#DejaVuSans-49"/>
     <use x="63.623047" xlink:href="#DejaVuSans-100"/>
    </g>
   </g>
   <g id="text_28">
    <!-- 2d -->
    <g style="fill:#b2b2b2;" transform="translate(249.609995 93.146361)scale(0.1 -0.1)">
     <use xlink:href="#DejaVuSans-50"/>
     <use x="63.623047" xlink:href="#DejaVuSans-100"/>
    </g>
   </g>
   <g id="text_29">
    <!-- 3d -->
    <defs>
     <path d="M 40.578125 39.3125 
Q 47.65625 37.796875 51.625 33 
Q 55.609375 28.21875 55.609375 21.1875 
Q 55.609375 10.40625 48.1875 4.484375 
Q 40.765625 -1.421875 27.09375 -1.421875 
Q 22.515625 -1.421875 17.65625 -0.515625 
Q 12.796875 0.390625 7.625 2.203125 
L 7.625 11.71875 
Q 11.71875 9.328125 16.59375 8.109375 
Q 21.484375 6.890625 26.8125 6.890625 
Q 36.078125 6.890625 40.9375 10.546875 
Q 45.796875 14.203125 45.796875 21.1875 
Q 45.796875 27.640625 41.28125 31.265625 
Q 36.765625 34.90625 28.71875 34.90625 
L 20.21875 34.90625 
L 20.21875 43.015625 
L 29.109375 43.015625 
Q 36.375 43.015625 40.234375 45.921875 
Q 44.09375 48.828125 44.09375 54.296875 
Q 44.09375 59.90625 40.109375 62.90625 
Q 36.140625 65.921875 28.71875 65.921875 
Q 24.65625 65.921875 20.015625 65.03125 
Q 15.375 64.15625 9.8125 62.3125 
L 9.8125 71.09375 
Q 15.4375 72.65625 20.34375 73.4375 
Q 25.25 74.21875 29.59375 74.21875 
Q 40.828125 74.21875 47.359375 69.109375 
Q 53.90625 64.015625 53.90625 55.328125 
Q 53.90625 49.265625 50.4375 45.09375 
Q 46.96875 40.921875 40.578125 39.3125 
z
" id="DejaVuSans-51"/>
    </defs>
    <g style="fill:#b2b2b2;" transform="translate(331.567192 86.275485)scale(0.1 -0.1)">
     <use xlink:href="#DejaVuSans-51"/>
     <use x="63.623047" xlink:href="#DejaVuSans-100"/>
    </g>
   </g>
   <g id="text_30">
    <!-- 7d -->
    <g style="fill:#b2b2b2;" transform="translate(653.091581 84.306539)scale(0.1 -0.1)">
     <use xlink:href="#DejaVuSans-55"/>
     <use x="63.623047" xlink:href="#DejaVuSans-100"/>
    </g>
   </g>
   <g id="text_31">
    <!-- COVID-19 Deaths by States as of 2020-05-01 03:06 EDT -->
    <defs>
     <path d="M 4.890625 31.390625 
L 31.203125 31.390625 
L 31.203125 23.390625 
L 4.890625 23.390625 
z
" id="DejaVuSans-45"/>
     <path d="M 10.984375 1.515625 
L 10.984375 10.5 
Q 14.703125 8.734375 18.5 7.8125 
Q 22.3125 6.890625 25.984375 6.890625 
Q 35.75 6.890625 40.890625 13.453125 
Q 46.046875 20.015625 46.78125 33.40625 
Q 43.953125 29.203125 39.59375 26.953125 
Q 35.25 24.703125 29.984375 24.703125 
Q 19.046875 24.703125 12.671875 31.3125 
Q 6.296875 37.9375 6.296875 49.421875 
Q 6.296875 60.640625 12.9375 67.421875 
Q 19.578125 74.21875 30.609375 74.21875 
Q 43.265625 74.21875 49.921875 64.515625 
Q 56.59375 54.828125 56.59375 36.375 
Q 56.59375 19.140625 48.40625 8.859375 
Q 40.234375 -1.421875 26.421875 -1.421875 
Q 22.703125 -1.421875 18.890625 -0.6875 
Q 15.09375 0.046875 10.984375 1.515625 
z
M 30.609375 32.421875 
Q 37.25 32.421875 41.125 36.953125 
Q 45.015625 41.5 45.015625 49.421875 
Q 45.015625 57.28125 41.125 61.84375 
Q 37.25 66.40625 30.609375 66.40625 
Q 23.96875 66.40625 20.09375 61.84375 
Q 16.21875 57.28125 16.21875 49.421875 
Q 16.21875 41.5 20.09375 36.953125 
Q 23.96875 32.421875 30.609375 32.421875 
z
" id="DejaVuSans-57"/>
     <path d="M 48.6875 27.296875 
Q 48.6875 37.203125 44.609375 42.84375 
Q 40.53125 48.484375 33.40625 48.484375 
Q 26.265625 48.484375 22.1875 42.84375 
Q 18.109375 37.203125 18.109375 27.296875 
Q 18.109375 17.390625 22.1875 11.75 
Q 26.265625 6.109375 33.40625 6.109375 
Q 40.53125 6.109375 44.609375 11.75 
Q 48.6875 17.390625 48.6875 27.296875 
z
M 18.109375 46.390625 
Q 20.953125 51.265625 25.265625 53.625 
Q 29.59375 56 35.59375 56 
Q 45.5625 56 51.78125 48.09375 
Q 58.015625 40.1875 58.015625 27.296875 
Q 58.015625 14.40625 51.78125 6.484375 
Q 45.5625 -1.421875 35.59375 -1.421875 
Q 29.59375 -1.421875 25.265625 0.953125 
Q 20.953125 3.328125 18.109375 8.203125 
L 18.109375 0 
L 9.078125 0 
L 9.078125 75.984375 
L 18.109375 75.984375 
z
" id="DejaVuSans-98"/>
     <path d="M 30.609375 48.390625 
Q 23.390625 48.390625 19.1875 42.75 
Q 14.984375 37.109375 14.984375 27.296875 
Q 14.984375 17.484375 19.15625 11.84375 
Q 23.34375 6.203125 30.609375 6.203125 
Q 37.796875 6.203125 41.984375 11.859375 
Q 46.1875 17.53125 46.1875 27.296875 
Q 46.1875 37.015625 41.984375 42.703125 
Q 37.796875 48.390625 30.609375 48.390625 
z
M 30.609375 56 
Q 42.328125 56 49.015625 48.375 
Q 55.71875 40.765625 55.71875 27.296875 
Q 55.71875 13.875 49.015625 6.21875 
Q 42.328125 -1.421875 30.609375 -1.421875 
Q 18.84375 -1.421875 12.171875 6.21875 
Q 5.515625 13.875 5.515625 27.296875 
Q 5.515625 40.765625 12.171875 48.375 
Q 18.84375 56 30.609375 56 
z
" id="DejaVuSans-111"/>
     <path d="M 37.109375 75.984375 
L 37.109375 68.5 
L 28.515625 68.5 
Q 23.6875 68.5 21.796875 66.546875 
Q 19.921875 64.59375 19.921875 59.515625 
L 19.921875 54.6875 
L 34.71875 54.6875 
L 34.71875 47.703125 
L 19.921875 47.703125 
L 19.921875 0 
L 10.890625 0 
L 10.890625 47.703125 
L 2.296875 47.703125 
L 2.296875 54.6875 
L 10.890625 54.6875 
L 10.890625 58.5 
Q 10.890625 67.625 15.140625 71.796875 
Q 19.390625 75.984375 28.609375 75.984375 
z
" id="DejaVuSans-102"/>
     <path d="M 10.796875 72.90625 
L 49.515625 72.90625 
L 49.515625 64.59375 
L 19.828125 64.59375 
L 19.828125 46.734375 
Q 21.96875 47.46875 24.109375 47.828125 
Q 26.265625 48.1875 28.421875 48.1875 
Q 40.625 48.1875 47.75 41.5 
Q 54.890625 34.8125 54.890625 23.390625 
Q 54.890625 11.625 47.5625 5.09375 
Q 40.234375 -1.421875 26.90625 -1.421875 
Q 22.3125 -1.421875 17.546875 -0.640625 
Q 12.796875 0.140625 7.71875 1.703125 
L 7.71875 11.625 
Q 12.109375 9.234375 16.796875 8.0625 
Q 21.484375 6.890625 26.703125 6.890625 
Q 35.15625 6.890625 40.078125 11.328125 
Q 45.015625 15.765625 45.015625 23.390625 
Q 45.015625 31 40.078125 35.4375 
Q 35.15625 39.890625 26.703125 39.890625 
Q 22.75 39.890625 18.8125 39.015625 
Q 14.890625 38.140625 10.796875 36.28125 
z
" id="DejaVuSans-53"/>
     <path d="M 11.71875 12.40625 
L 22.015625 12.40625 
L 22.015625 0 
L 11.71875 0 
z
M 11.71875 51.703125 
L 22.015625 51.703125 
L 22.015625 39.3125 
L 11.71875 39.3125 
z
" id="DejaVuSans-58"/>
     <path d="M 33.015625 40.375 
Q 26.375 40.375 22.484375 35.828125 
Q 18.609375 31.296875 18.609375 23.390625 
Q 18.609375 15.53125 22.484375 10.953125 
Q 26.375 6.390625 33.015625 6.390625 
Q 39.65625 6.390625 43.53125 10.953125 
Q 47.40625 15.53125 47.40625 23.390625 
Q 47.40625 31.296875 43.53125 35.828125 
Q 39.65625 40.375 33.015625 40.375 
z
M 52.59375 71.296875 
L 52.59375 62.3125 
Q 48.875 64.0625 45.09375 64.984375 
Q 41.3125 65.921875 37.59375 65.921875 
Q 27.828125 65.921875 22.671875 59.328125 
Q 17.53125 52.734375 16.796875 39.40625 
Q 19.671875 43.65625 24.015625 45.921875 
Q 28.375 48.1875 33.59375 48.1875 
Q 44.578125 48.1875 50.953125 41.515625 
Q 57.328125 34.859375 57.328125 23.390625 
Q 57.328125 12.15625 50.6875 5.359375 
Q 44.046875 -1.421875 33.015625 -1.421875 
Q 20.359375 -1.421875 13.671875 8.265625 
Q 6.984375 17.96875 6.984375 36.375 
Q 6.984375 53.65625 15.1875 63.9375 
Q 23.390625 74.21875 37.203125 74.21875 
Q 40.921875 74.21875 44.703125 73.484375 
Q 48.484375 72.75 52.59375 71.296875 
z
" id="DejaVuSans-54"/>
    </defs>
    <g style="fill:#666666;" transform="translate(310.883438 63.12)scale(0.12 -0.12)">
     <use xlink:href="#DejaVuSans-67"/>
     <use x="69.824219" xlink:href="#DejaVuSans-79"/>
     <use x="146.785156" xlink:href="#DejaVuSans-86"/>
     <use x="215.193359" xlink:href="#DejaVuSans-73"/>
     <use x="244.685547" xlink:href="#DejaVuSans-68"/>
     <use x="321.6875" xlink:href="#DejaVuSans-45"/>
     <use x="357.771484" xlink:href="#DejaVuSans-49"/>
     <use x="421.394531" xlink:href="#DejaVuSans-57"/>
     <use x="485.017578" xlink:href="#DejaVuSans-32"/>
     <use x="516.804688" xlink:href="#DejaVuSans-68"/>
     <use x="593.806641" xlink:href="#DejaVuSans-101"/>
     <use x="655.330078" xlink:href="#DejaVuSans-97"/>
     <use x="716.609375" xlink:href="#DejaVuSans-116"/>
     <use x="755.818359" xlink:href="#DejaVuSans-104"/>
     <use x="819.197266" xlink:href="#DejaVuSans-115"/>
     <use x="871.296875" xlink:href="#DejaVuSans-32"/>
     <use x="903.083984" xlink:href="#DejaVuSans-98"/>
     <use x="966.560547" xlink:href="#DejaVuSans-121"/>
     <use x="1025.740234" xlink:href="#DejaVuSans-32"/>
     <use x="1057.527344" xlink:href="#DejaVuSans-83"/>
     <use x="1121.003906" xlink:href="#DejaVuSans-116"/>
     <use x="1160.212891" xlink:href="#DejaVuSans-97"/>
     <use x="1221.492188" xlink:href="#DejaVuSans-116"/>
     <use x="1260.701172" xlink:href="#DejaVuSans-101"/>
     <use x="1322.224609" xlink:href="#DejaVuSans-115"/>
     <use x="1374.324219" xlink:href="#DejaVuSans-32"/>
     <use x="1406.111328" xlink:href="#DejaVuSans-97"/>
     <use x="1467.390625" xlink:href="#DejaVuSans-115"/>
     <use x="1519.490234" xlink:href="#DejaVuSans-32"/>
     <use x="1551.277344" xlink:href="#DejaVuSans-111"/>
     <use x="1612.458984" xlink:href="#DejaVuSans-102"/>
     <use x="1647.664062" xlink:href="#DejaVuSans-32"/>
     <use x="1679.451172" xlink:href="#DejaVuSans-50"/>
     <use x="1743.074219" xlink:href="#DejaVuSans-48"/>
     <use x="1806.697266" xlink:href="#DejaVuSans-50"/>
     <use x="1870.320312" xlink:href="#DejaVuSans-48"/>
     <use x="1933.943359" xlink:href="#DejaVuSans-45"/>
     <use x="1970.027344" xlink:href="#DejaVuSans-48"/>
     <use x="2033.650391" xlink:href="#DejaVuSans-53"/>
     <use x="2097.273438" xlink:href="#DejaVuSans-45"/>
     <use x="2133.357422" xlink:href="#DejaVuSans-48"/>
     <use x="2196.980469" xlink:href="#DejaVuSans-49"/>
     <use x="2260.603516" xlink:href="#DejaVuSans-32"/>
     <use x="2292.390625" xlink:href="#DejaVuSans-48"/>
     <use x="2356.013672" xlink:href="#DejaVuSans-51"/>
     <use x="2419.636719" xlink:href="#DejaVuSans-58"/>
     <use x="2453.328125" xlink:href="#DejaVuSans-48"/>
     <use x="2516.951172" xlink:href="#DejaVuSans-54"/>
     <use x="2580.574219" xlink:href="#DejaVuSans-32"/>
     <use x="2612.361328" xlink:href="#DejaVuSans-69"/>
     <use x="2675.544922" xlink:href="#DejaVuSans-68"/>
     <use x="2752.546875" xlink:href="#DejaVuSans-84"/>
    </g>
   </g>
  </g>
 </g>
 <defs>
  <clipPath id="p59acdbb99b">
   <rect height="443.52" width="725.4" x="117" y="69.12"/>
  </clipPath>
 </defs>
</svg>
