<?xml version="1.0" encoding="utf-8" standalone="no"?>
<!DOCTYPE svg PUBLIC "-//W3C//DTD SVG 1.1//EN"
  "http://www.w3.org/Graphics/SVG/1.1/DTD/svg11.dtd">
<!-- Created with matplotlib (https://matplotlib.org/) -->
<svg height="576pt" version="1.1" viewBox="0 0 936 576" width="936pt" xmlns="http://www.w3.org/2000/svg" xmlns:xlink="http://www.w3.org/1999/xlink">
 <defs>
  <style type="text/css">
*{stroke-linecap:butt;stroke-linejoin:round;}
  </style>
 </defs>
 <g id="figure_1">
  <g id="patch_1">
   <path d="M 0 576 
L 936 576 
L 936 0 
L 0 0 
z
" style="fill:#ffffff;"/>
  </g>
  <g id="axes_1">
   <g id="patch_2">
    <path d="M 117 512.64 
L 842.4 512.64 
L 842.4 69.12 
L 117 69.12 
z
" style="fill:#ffffff;"/>
   </g>
   <g id="line2d_1">
    <path clip-path="url(#p7e07b5c4d0)" d="M 117 512.64 
L 123.605805 482.319856 
L 130.211611 451.147297 
L 136.817416 419.098358 
L 143.423221 386.148401 
L 150.029027 352.272094 
L 156.634832 317.443395 
L 163.240637 281.635528 
L 169.846443 244.820964 
L 176.452248 206.971403 
L 183.058054 168.057745 
L 189.663859 128.050076 
L 196.269664 86.917637 
L 202.87547 44.628809 
L 209.801382 -1 
L 209.801382 -1 
" style="fill:none;stroke:#b2b2b2;stroke-dasharray:1.5,2.475;stroke-dashoffset:0;stroke-width:1.5;"/>
   </g>
   <g id="line2d_2">
    <path clip-path="url(#p7e07b5c4d0)" d="M 117 512.64 
L 126.908708 489.978885 
L 136.817416 466.841611 
L 146.726124 443.218174 
L 156.634832 419.098358 
L 166.54354 394.471734 
L 176.452248 369.327652 
L 186.360956 343.65524 
L 196.269664 317.443395 
L 206.178372 290.680784 
L 216.08708 263.355834 
L 225.995788 235.456728 
L 235.904496 206.971403 
L 245.813204 177.88754 
L 255.721912 148.192564 
L 265.63062 117.873633 
L 275.539328 86.917637 
L 285.448036 55.31119 
L 295.356744 23.040624 
L 302.60499 -1 
L 302.60499 -1 
" style="fill:none;stroke:#b2b2b2;stroke-dasharray:1.5,2.475;stroke-dashoffset:0;stroke-width:1.5;"/>
   </g>
   <g id="line2d_3">
    <path clip-path="url(#p7e07b5c4d0)" d="M 117 512.64 
L 130.211611 492.520119 
L 143.423221 472.024886 
L 156.634832 451.147297 
L 169.846443 429.88022 
L 183.058054 408.216389 
L 196.269664 386.148401 
L 209.481275 363.668717 
L 222.692886 340.769656 
L 235.904496 317.443395 
L 249.116107 293.681964 
L 262.327718 269.477243 
L 275.539328 244.820964 
L 288.750939 219.704703 
L 301.96255 194.119877 
L 315.174161 168.057745 
L 328.385771 141.509403 
L 341.597382 114.465781 
L 354.808993 86.917637 
L 368.020603 58.855561 
L 381.232214 30.269964 
L 395.4086 -1 
L 395.4086 -1 
" style="fill:none;stroke:#b2b2b2;stroke-dasharray:1.5,2.475;stroke-dashoffset:0;stroke-width:1.5;"/>
   </g>
   <g id="line2d_4">
    <path clip-path="url(#p7e07b5c4d0)" d="M 117 512.64 
L 143.423221 495.417207 
L 169.846443 477.919374 
L 196.269664 460.142109 
L 222.692886 442.080949 
L 249.116107 423.73136 
L 275.539328 405.088738 
L 301.96255 386.148401 
L 328.385771 366.905596 
L 354.808993 347.355492 
L 381.232214 327.493182 
L 404.352533 309.853637 
L 427.472851 291.967853 
L 450.59317 273.832393 
L 473.713489 255.443771 
L 496.833808 236.798453 
L 519.954126 217.892857 
L 543.074445 198.723348 
L 566.194764 179.286243 
L 589.315083 159.577806 
L 612.435401 139.59425 
L 635.55572 119.331733 
L 658.676039 98.786362 
L 681.796357 77.954189 
L 704.916676 56.831209 
L 728.036995 35.413364 
L 751.157314 13.696536 
L 766.623042 -1 
L 766.623042 -1 
" style="fill:none;stroke:#b2b2b2;stroke-dasharray:1.5,2.475;stroke-dashoffset:0;stroke-width:1.5;"/>
   </g>
   <g id="matplotlib.axis_1">
    <g id="xtick_1">
     <g id="line2d_5">
      <path clip-path="url(#p7e07b5c4d0)" d="M 117 512.64 
L 117 69.12 
" style="fill:none;stroke:#e6e6e6;stroke-linecap:square;stroke-width:0.8;"/>
     </g>
     <g id="line2d_6">
      <defs>
       <path d="M 0 0 
L 0 3.5 
" id="m0d860579d2" style="stroke:#666666;stroke-width:0.8;"/>
      </defs>
      <g>
       <use style="fill:#666666;stroke:#666666;stroke-width:0.8;" x="117" xlink:href="#m0d860579d2" y="512.64"/>
      </g>
     </g>
     <g id="text_1">
      <!-- 0 -->
      <defs>
       <path d="M 31.78125 66.40625 
Q 24.171875 66.40625 20.328125 58.90625 
Q 16.5 51.421875 16.5 36.375 
Q 16.5 21.390625 20.328125 13.890625 
Q 24.171875 6.390625 31.78125 6.390625 
Q 39.453125 6.390625 43.28125 13.890625 
Q 47.125 21.390625 47.125 36.375 
Q 47.125 51.421875 43.28125 58.90625 
Q 39.453125 66.40625 31.78125 66.40625 
z
M 31.78125 74.21875 
Q 44.046875 74.21875 50.515625 64.515625 
Q 56.984375 54.828125 56.984375 36.375 
Q 56.984375 17.96875 50.515625 8.265625 
Q 44.046875 -1.421875 31.78125 -1.421875 
Q 19.53125 -1.421875 13.0625 8.265625 
Q 6.59375 17.96875 6.59375 36.375 
Q 6.59375 54.828125 13.0625 64.515625 
Q 19.53125 74.21875 31.78125 74.21875 
z
" id="DejaVuSans-48"/>
      </defs>
      <g style="fill:#666666;" transform="translate(113.81875 527.238438)scale(0.1 -0.1)">
       <use xlink:href="#DejaVuSans-48"/>
      </g>
     </g>
    </g>
    <g id="xtick_2">
     <g id="line2d_7">
      <path clip-path="url(#p7e07b5c4d0)" d="M 348.203187 512.64 
L 348.203187 69.12 
" style="fill:none;stroke:#e6e6e6;stroke-linecap:square;stroke-width:0.8;"/>
     </g>
     <g id="line2d_8">
      <g>
       <use style="fill:#666666;stroke:#666666;stroke-width:0.8;" x="348.203187" xlink:href="#m0d860579d2" y="512.64"/>
      </g>
     </g>
     <g id="text_2">
      <!-- 7 -->
      <defs>
       <path d="M 8.203125 72.90625 
L 55.078125 72.90625 
L 55.078125 68.703125 
L 28.609375 0 
L 18.3125 0 
L 43.21875 64.59375 
L 8.203125 64.59375 
z
" id="DejaVuSans-55"/>
      </defs>
      <g style="fill:#666666;" transform="translate(345.021937 527.238438)scale(0.1 -0.1)">
       <use xlink:href="#DejaVuSans-55"/>
      </g>
     </g>
    </g>
    <g id="xtick_3">
     <g id="line2d_9">
      <path clip-path="url(#p7e07b5c4d0)" d="M 579.406375 512.64 
L 579.406375 69.12 
" style="fill:none;stroke:#e6e6e6;stroke-linecap:square;stroke-width:0.8;"/>
     </g>
     <g id="line2d_10">
      <g>
       <use style="fill:#666666;stroke:#666666;stroke-width:0.8;" x="579.406375" xlink:href="#m0d860579d2" y="512.64"/>
      </g>
     </g>
     <g id="text_3">
      <!-- 14 -->
      <defs>
       <path d="M 12.40625 8.296875 
L 28.515625 8.296875 
L 28.515625 63.921875 
L 10.984375 60.40625 
L 10.984375 69.390625 
L 28.421875 72.90625 
L 38.28125 72.90625 
L 38.28125 8.296875 
L 54.390625 8.296875 
L 54.390625 0 
L 12.40625 0 
z
" id="DejaVuSans-49"/>
       <path d="M 37.796875 64.3125 
L 12.890625 25.390625 
L 37.796875 25.390625 
z
M 35.203125 72.90625 
L 47.609375 72.90625 
L 47.609375 25.390625 
L 58.015625 25.390625 
L 58.015625 17.1875 
L 47.609375 17.1875 
L 47.609375 0 
L 37.796875 0 
L 37.796875 17.1875 
L 4.890625 17.1875 
L 4.890625 26.703125 
z
" id="DejaVuSans-52"/>
      </defs>
      <g style="fill:#666666;" transform="translate(573.043875 527.238438)scale(0.1 -0.1)">
       <use xlink:href="#DejaVuSans-49"/>
       <use x="63.623047" xlink:href="#DejaVuSans-52"/>
      </g>
     </g>
    </g>
    <g id="xtick_4">
     <g id="line2d_11">
      <path clip-path="url(#p7e07b5c4d0)" d="M 810.609562 512.64 
L 810.609562 69.12 
" style="fill:none;stroke:#e6e6e6;stroke-linecap:square;stroke-width:0.8;"/>
     </g>
     <g id="line2d_12">
      <g>
       <use style="fill:#666666;stroke:#666666;stroke-width:0.8;" x="810.609562" xlink:href="#m0d860579d2" y="512.64"/>
      </g>
     </g>
     <g id="text_4">
      <!-- 21 -->
      <defs>
       <path d="M 19.1875 8.296875 
L 53.609375 8.296875 
L 53.609375 0 
L 7.328125 0 
L 7.328125 8.296875 
Q 12.9375 14.109375 22.625 23.890625 
Q 32.328125 33.6875 34.8125 36.53125 
Q 39.546875 41.84375 41.421875 45.53125 
Q 43.3125 49.21875 43.3125 52.78125 
Q 43.3125 58.59375 39.234375 62.25 
Q 35.15625 65.921875 28.609375 65.921875 
Q 23.96875 65.921875 18.8125 64.3125 
Q 13.671875 62.703125 7.8125 59.421875 
L 7.8125 69.390625 
Q 13.765625 71.78125 18.9375 73 
Q 24.125 74.21875 28.421875 74.21875 
Q 39.75 74.21875 46.484375 68.546875 
Q 53.21875 62.890625 53.21875 53.421875 
Q 53.21875 48.921875 51.53125 44.890625 
Q 49.859375 40.875 45.40625 35.40625 
Q 44.1875 33.984375 37.640625 27.21875 
Q 31.109375 20.453125 19.1875 8.296875 
z
" id="DejaVuSans-50"/>
      </defs>
      <g style="fill:#666666;" transform="translate(804.247062 527.238438)scale(0.1 -0.1)">
       <use xlink:href="#DejaVuSans-50"/>
       <use x="63.623047" xlink:href="#DejaVuSans-49"/>
      </g>
     </g>
    </g>
    <g id="text_5">
     <!-- Days since 100 deaths -->
     <defs>
      <path d="M 19.671875 64.796875 
L 19.671875 8.109375 
L 31.59375 8.109375 
Q 46.6875 8.109375 53.6875 14.9375 
Q 60.6875 21.78125 60.6875 36.53125 
Q 60.6875 51.171875 53.6875 57.984375 
Q 46.6875 64.796875 31.59375 64.796875 
z
M 9.8125 72.90625 
L 30.078125 72.90625 
Q 51.265625 72.90625 61.171875 64.09375 
Q 71.09375 55.28125 71.09375 36.53125 
Q 71.09375 17.671875 61.125 8.828125 
Q 51.171875 0 30.078125 0 
L 9.8125 0 
z
" id="DejaVuSans-68"/>
      <path d="M 34.28125 27.484375 
Q 23.390625 27.484375 19.1875 25 
Q 14.984375 22.515625 14.984375 16.5 
Q 14.984375 11.71875 18.140625 8.90625 
Q 21.296875 6.109375 26.703125 6.109375 
Q 34.1875 6.109375 38.703125 11.40625 
Q 43.21875 16.703125 43.21875 25.484375 
L 43.21875 27.484375 
z
M 52.203125 31.203125 
L 52.203125 0 
L 43.21875 0 
L 43.21875 8.296875 
Q 40.140625 3.328125 35.546875 0.953125 
Q 30.953125 -1.421875 24.3125 -1.421875 
Q 15.921875 -1.421875 10.953125 3.296875 
Q 6 8.015625 6 15.921875 
Q 6 25.140625 12.171875 29.828125 
Q 18.359375 34.515625 30.609375 34.515625 
L 43.21875 34.515625 
L 43.21875 35.40625 
Q 43.21875 41.609375 39.140625 45 
Q 35.0625 48.390625 27.6875 48.390625 
Q 23 48.390625 18.546875 47.265625 
Q 14.109375 46.140625 10.015625 43.890625 
L 10.015625 52.203125 
Q 14.9375 54.109375 19.578125 55.046875 
Q 24.21875 56 28.609375 56 
Q 40.484375 56 46.34375 49.84375 
Q 52.203125 43.703125 52.203125 31.203125 
z
" id="DejaVuSans-97"/>
      <path d="M 32.171875 -5.078125 
Q 28.375 -14.84375 24.75 -17.8125 
Q 21.140625 -20.796875 15.09375 -20.796875 
L 7.90625 -20.796875 
L 7.90625 -13.28125 
L 13.1875 -13.28125 
Q 16.890625 -13.28125 18.9375 -11.515625 
Q 21 -9.765625 23.484375 -3.21875 
L 25.09375 0.875 
L 2.984375 54.6875 
L 12.5 54.6875 
L 29.59375 11.921875 
L 46.6875 54.6875 
L 56.203125 54.6875 
z
" id="DejaVuSans-121"/>
      <path d="M 44.28125 53.078125 
L 44.28125 44.578125 
Q 40.484375 46.53125 36.375 47.5 
Q 32.28125 48.484375 27.875 48.484375 
Q 21.1875 48.484375 17.84375 46.4375 
Q 14.5 44.390625 14.5 40.28125 
Q 14.5 37.15625 16.890625 35.375 
Q 19.28125 33.59375 26.515625 31.984375 
L 29.59375 31.296875 
Q 39.15625 29.25 43.1875 25.515625 
Q 47.21875 21.78125 47.21875 15.09375 
Q 47.21875 7.46875 41.1875 3.015625 
Q 35.15625 -1.421875 24.609375 -1.421875 
Q 20.21875 -1.421875 15.453125 -0.5625 
Q 10.6875 0.296875 5.421875 2 
L 5.421875 11.28125 
Q 10.40625 8.6875 15.234375 7.390625 
Q 20.0625 6.109375 24.8125 6.109375 
Q 31.15625 6.109375 34.5625 8.28125 
Q 37.984375 10.453125 37.984375 14.40625 
Q 37.984375 18.0625 35.515625 20.015625 
Q 33.0625 21.96875 24.703125 23.78125 
L 21.578125 24.515625 
Q 13.234375 26.265625 9.515625 29.90625 
Q 5.8125 33.546875 5.8125 39.890625 
Q 5.8125 47.609375 11.28125 51.796875 
Q 16.75 56 26.8125 56 
Q 31.78125 56 36.171875 55.265625 
Q 40.578125 54.546875 44.28125 53.078125 
z
" id="DejaVuSans-115"/>
      <path id="DejaVuSans-32"/>
      <path d="M 9.421875 54.6875 
L 18.40625 54.6875 
L 18.40625 0 
L 9.421875 0 
z
M 9.421875 75.984375 
L 18.40625 75.984375 
L 18.40625 64.59375 
L 9.421875 64.59375 
z
" id="DejaVuSans-105"/>
      <path d="M 54.890625 33.015625 
L 54.890625 0 
L 45.90625 0 
L 45.90625 32.71875 
Q 45.90625 40.484375 42.875 44.328125 
Q 39.84375 48.1875 33.796875 48.1875 
Q 26.515625 48.1875 22.3125 43.546875 
Q 18.109375 38.921875 18.109375 30.90625 
L 18.109375 0 
L 9.078125 0 
L 9.078125 54.6875 
L 18.109375 54.6875 
L 18.109375 46.1875 
Q 21.34375 51.125 25.703125 53.5625 
Q 30.078125 56 35.796875 56 
Q 45.21875 56 50.046875 50.171875 
Q 54.890625 44.34375 54.890625 33.015625 
z
" id="DejaVuSans-110"/>
      <path d="M 48.78125 52.59375 
L 48.78125 44.1875 
Q 44.96875 46.296875 41.140625 47.34375 
Q 37.3125 48.390625 33.40625 48.390625 
Q 24.65625 48.390625 19.8125 42.84375 
Q 14.984375 37.3125 14.984375 27.296875 
Q 14.984375 17.28125 19.8125 11.734375 
Q 24.65625 6.203125 33.40625 6.203125 
Q 37.3125 6.203125 41.140625 7.25 
Q 44.96875 8.296875 48.78125 10.40625 
L 48.78125 2.09375 
Q 45.015625 0.34375 40.984375 -0.53125 
Q 36.96875 -1.421875 32.421875 -1.421875 
Q 20.0625 -1.421875 12.78125 6.34375 
Q 5.515625 14.109375 5.515625 27.296875 
Q 5.515625 40.671875 12.859375 48.328125 
Q 20.21875 56 33.015625 56 
Q 37.15625 56 41.109375 55.140625 
Q 45.0625 54.296875 48.78125 52.59375 
z
" id="DejaVuSans-99"/>
      <path d="M 56.203125 29.59375 
L 56.203125 25.203125 
L 14.890625 25.203125 
Q 15.484375 15.921875 20.484375 11.0625 
Q 25.484375 6.203125 34.421875 6.203125 
Q 39.59375 6.203125 44.453125 7.46875 
Q 49.3125 8.734375 54.109375 11.28125 
L 54.109375 2.78125 
Q 49.265625 0.734375 44.1875 -0.34375 
Q 39.109375 -1.421875 33.890625 -1.421875 
Q 20.796875 -1.421875 13.15625 6.1875 
Q 5.515625 13.8125 5.515625 26.8125 
Q 5.515625 40.234375 12.765625 48.109375 
Q 20.015625 56 32.328125 56 
Q 43.359375 56 49.78125 48.890625 
Q 56.203125 41.796875 56.203125 29.59375 
z
M 47.21875 32.234375 
Q 47.125 39.59375 43.09375 43.984375 
Q 39.0625 48.390625 32.421875 48.390625 
Q 24.90625 48.390625 20.390625 44.140625 
Q 15.875 39.890625 15.1875 32.171875 
z
" id="DejaVuSans-101"/>
      <path d="M 45.40625 46.390625 
L 45.40625 75.984375 
L 54.390625 75.984375 
L 54.390625 0 
L 45.40625 0 
L 45.40625 8.203125 
Q 42.578125 3.328125 38.25 0.953125 
Q 33.9375 -1.421875 27.875 -1.421875 
Q 17.96875 -1.421875 11.734375 6.484375 
Q 5.515625 14.40625 5.515625 27.296875 
Q 5.515625 40.1875 11.734375 48.09375 
Q 17.96875 56 27.875 56 
Q 33.9375 56 38.25 53.625 
Q 42.578125 51.265625 45.40625 46.390625 
z
M 14.796875 27.296875 
Q 14.796875 17.390625 18.875 11.75 
Q 22.953125 6.109375 30.078125 6.109375 
Q 37.203125 6.109375 41.296875 11.75 
Q 45.40625 17.390625 45.40625 27.296875 
Q 45.40625 37.203125 41.296875 42.84375 
Q 37.203125 48.484375 30.078125 48.484375 
Q 22.953125 48.484375 18.875 42.84375 
Q 14.796875 37.203125 14.796875 27.296875 
z
" id="DejaVuSans-100"/>
      <path d="M 18.3125 70.21875 
L 18.3125 54.6875 
L 36.8125 54.6875 
L 36.8125 47.703125 
L 18.3125 47.703125 
L 18.3125 18.015625 
Q 18.3125 11.328125 20.140625 9.421875 
Q 21.96875 7.515625 27.59375 7.515625 
L 36.8125 7.515625 
L 36.8125 0 
L 27.59375 0 
Q 17.1875 0 13.234375 3.875 
Q 9.28125 7.765625 9.28125 18.015625 
L 9.28125 47.703125 
L 2.6875 47.703125 
L 2.6875 54.6875 
L 9.28125 54.6875 
L 9.28125 70.21875 
z
" id="DejaVuSans-116"/>
      <path d="M 54.890625 33.015625 
L 54.890625 0 
L 45.90625 0 
L 45.90625 32.71875 
Q 45.90625 40.484375 42.875 44.328125 
Q 39.84375 48.1875 33.796875 48.1875 
Q 26.515625 48.1875 22.3125 43.546875 
Q 18.109375 38.921875 18.109375 30.90625 
L 18.109375 0 
L 9.078125 0 
L 9.078125 75.984375 
L 18.109375 75.984375 
L 18.109375 46.1875 
Q 21.34375 51.125 25.703125 53.5625 
Q 30.078125 56 35.796875 56 
Q 45.21875 56 50.046875 50.171875 
Q 54.890625 44.34375 54.890625 33.015625 
z
" id="DejaVuSans-104"/>
     </defs>
     <g style="fill:#666666;" transform="translate(422.874219 540.916563)scale(0.1 -0.1)">
      <use xlink:href="#DejaVuSans-68"/>
      <use x="77.001953" xlink:href="#DejaVuSans-97"/>
      <use x="138.28125" xlink:href="#DejaVuSans-121"/>
      <use x="197.460938" xlink:href="#DejaVuSans-115"/>
      <use x="249.560547" xlink:href="#DejaVuSans-32"/>
      <use x="281.347656" xlink:href="#DejaVuSans-115"/>
      <use x="333.447266" xlink:href="#DejaVuSans-105"/>
      <use x="361.230469" xlink:href="#DejaVuSans-110"/>
      <use x="424.609375" xlink:href="#DejaVuSans-99"/>
      <use x="479.589844" xlink:href="#DejaVuSans-101"/>
      <use x="541.113281" xlink:href="#DejaVuSans-32"/>
      <use x="572.900391" xlink:href="#DejaVuSans-49"/>
      <use x="636.523438" xlink:href="#DejaVuSans-48"/>
      <use x="700.146484" xlink:href="#DejaVuSans-48"/>
      <use x="763.769531" xlink:href="#DejaVuSans-32"/>
      <use x="795.556641" xlink:href="#DejaVuSans-100"/>
      <use x="859.033203" xlink:href="#DejaVuSans-101"/>
      <use x="920.556641" xlink:href="#DejaVuSans-97"/>
      <use x="981.835938" xlink:href="#DejaVuSans-116"/>
      <use x="1021.044922" xlink:href="#DejaVuSans-104"/>
      <use x="1084.423828" xlink:href="#DejaVuSans-115"/>
     </g>
    </g>
   </g>
   <g id="matplotlib.axis_2">
    <g id="ytick_1">
     <g id="line2d_13">
      <path clip-path="url(#p7e07b5c4d0)" d="M 117 512.64 
L 842.4 512.64 
" style="fill:none;stroke:#e6e6e6;stroke-linecap:square;stroke-width:0.8;"/>
     </g>
     <g id="line2d_14">
      <defs>
       <path d="M 0 0 
L -3.5 0 
" id="m1905dfe91c" style="stroke:#666666;stroke-width:0.8;"/>
      </defs>
      <g>
       <use style="fill:#666666;stroke:#666666;stroke-width:0.8;" x="117" xlink:href="#m1905dfe91c" y="512.64"/>
      </g>
     </g>
     <g id="text_6">
      <!-- 100 -->
      <g style="fill:#666666;" transform="translate(90.9125 516.439219)scale(0.1 -0.1)">
       <use xlink:href="#DejaVuSans-49"/>
       <use x="63.623047" xlink:href="#DejaVuSans-48"/>
       <use x="127.246094" xlink:href="#DejaVuSans-48"/>
      </g>
     </g>
    </g>
   </g>
   <g id="line2d_15">
    <path clip-path="url(#p7e07b5c4d0)" d="M 117 512.64 
L 142.257491 485.953365 
L 241.344571 431.049087 
L 274.373598 380.811708 
L 307.402625 356.011134 
L 340.431652 341.317921 
L 373.460678 336.570205 
L 406.489705 329.580648 
L 439.518732 319.378209 
L 472.547759 304.130396 
L 505.576785 283.528125 
" style="fill:none;stroke:#1f77b4;stroke-linecap:square;stroke-width:1.5;"/>
    <defs>
     <path d="M 0 1.5 
C 0.397805 1.5 0.77937 1.341951 1.06066 1.06066 
C 1.341951 0.77937 1.5 0.397805 1.5 0 
C 1.5 -0.397805 1.341951 -0.77937 1.06066 -1.06066 
C 0.77937 -1.341951 0.397805 -1.5 0 -1.5 
C -0.397805 -1.5 -0.77937 -1.341951 -1.06066 -1.06066 
C -1.341951 -0.77937 -1.5 -0.397805 -1.5 0 
C -1.5 0.397805 -1.341951 0.77937 -1.06066 1.06066 
C -0.77937 1.341951 -0.397805 1.5 0 1.5 
z
" id="m952fd9de94" style="stroke:#1f77b4;"/>
    </defs>
    <g clip-path="url(#p7e07b5c4d0)">
     <use style="fill:#ffffff;stroke:#1f77b4;" x="117" xlink:href="#m952fd9de94" y="512.64"/>
     <use style="fill:#ffffff;stroke:#1f77b4;" x="142.257491" xlink:href="#m952fd9de94" y="485.953365"/>
     <use style="fill:#ffffff;stroke:#1f77b4;" x="241.344571" xlink:href="#m952fd9de94" y="431.049087"/>
     <use style="fill:#ffffff;stroke:#1f77b4;" x="274.373598" xlink:href="#m952fd9de94" y="380.811708"/>
     <use style="fill:#ffffff;stroke:#1f77b4;" x="307.402625" xlink:href="#m952fd9de94" y="356.011134"/>
     <use style="fill:#ffffff;stroke:#1f77b4;" x="340.431652" xlink:href="#m952fd9de94" y="341.317921"/>
     <use style="fill:#ffffff;stroke:#1f77b4;" x="373.460678" xlink:href="#m952fd9de94" y="336.570205"/>
     <use style="fill:#ffffff;stroke:#1f77b4;" x="406.489705" xlink:href="#m952fd9de94" y="329.580648"/>
     <use style="fill:#ffffff;stroke:#1f77b4;" x="439.518732" xlink:href="#m952fd9de94" y="319.378209"/>
     <use style="fill:#ffffff;stroke:#1f77b4;" x="472.547759" xlink:href="#m952fd9de94" y="304.130396"/>
     <use style="fill:#ffffff;stroke:#1f77b4;" x="505.576785" xlink:href="#m952fd9de94" y="283.528125"/>
    </g>
   </g>
   <g id="line2d_16">
    <path clip-path="url(#p7e07b5c4d0)" d="M 117 512.64 
L 141.02111 495.911427 
L 174.050137 482.068684 
L 207.079164 468.884428 
L 240.108191 452.794899 
L 273.137217 434.289554 
L 306.166244 421.539053 
L 339.195271 393.306078 
L 372.224298 382.174669 
L 405.253324 372.76018 
L 438.282351 368.812933 
L 471.311378 342.516197 
L 504.340405 318.264599 
L 537.369431 296.769692 
L 570.398458 279.559646 
L 603.427485 272.728243 
L 636.456512 270.802172 
L 702.514565 253.953571 
L 735.543592 244.060893 
" style="fill:none;stroke:#ff7f0e;stroke-linecap:square;stroke-width:1.5;"/>
    <defs>
     <path d="M 0 1.5 
C 0.397805 1.5 0.77937 1.341951 1.06066 1.06066 
C 1.341951 0.77937 1.5 0.397805 1.5 0 
C 1.5 -0.397805 1.341951 -0.77937 1.06066 -1.06066 
C 0.77937 -1.341951 0.397805 -1.5 0 -1.5 
C -0.397805 -1.5 -0.77937 -1.341951 -1.06066 -1.06066 
C -1.341951 -0.77937 -1.5 -0.397805 -1.5 0 
C -1.5 0.397805 -1.341951 0.77937 -1.06066 1.06066 
C -0.77937 1.341951 -0.397805 1.5 0 1.5 
z
" id="m92e0bfcf0d" style="stroke:#ff7f0e;"/>
    </defs>
    <g clip-path="url(#p7e07b5c4d0)">
     <use style="fill:#ffffff;stroke:#ff7f0e;" x="117" xlink:href="#m92e0bfcf0d" y="512.64"/>
     <use style="fill:#ffffff;stroke:#ff7f0e;" x="141.02111" xlink:href="#m92e0bfcf0d" y="495.911427"/>
     <use style="fill:#ffffff;stroke:#ff7f0e;" x="174.050137" xlink:href="#m92e0bfcf0d" y="482.068684"/>
     <use style="fill:#ffffff;stroke:#ff7f0e;" x="207.079164" xlink:href="#m92e0bfcf0d" y="468.884428"/>
     <use style="fill:#ffffff;stroke:#ff7f0e;" x="240.108191" xlink:href="#m92e0bfcf0d" y="452.794899"/>
     <use style="fill:#ffffff;stroke:#ff7f0e;" x="273.137217" xlink:href="#m92e0bfcf0d" y="434.289554"/>
     <use style="fill:#ffffff;stroke:#ff7f0e;" x="306.166244" xlink:href="#m92e0bfcf0d" y="421.539053"/>
     <use style="fill:#ffffff;stroke:#ff7f0e;" x="339.195271" xlink:href="#m92e0bfcf0d" y="393.306078"/>
     <use style="fill:#ffffff;stroke:#ff7f0e;" x="372.224298" xlink:href="#m92e0bfcf0d" y="382.174669"/>
     <use style="fill:#ffffff;stroke:#ff7f0e;" x="405.253324" xlink:href="#m92e0bfcf0d" y="372.76018"/>
     <use style="fill:#ffffff;stroke:#ff7f0e;" x="438.282351" xlink:href="#m92e0bfcf0d" y="368.812933"/>
     <use style="fill:#ffffff;stroke:#ff7f0e;" x="471.311378" xlink:href="#m92e0bfcf0d" y="342.516197"/>
     <use style="fill:#ffffff;stroke:#ff7f0e;" x="504.340405" xlink:href="#m92e0bfcf0d" y="318.264599"/>
     <use style="fill:#ffffff;stroke:#ff7f0e;" x="537.369431" xlink:href="#m92e0bfcf0d" y="296.769692"/>
     <use style="fill:#ffffff;stroke:#ff7f0e;" x="570.398458" xlink:href="#m92e0bfcf0d" y="279.559646"/>
     <use style="fill:#ffffff;stroke:#ff7f0e;" x="603.427485" xlink:href="#m92e0bfcf0d" y="272.728243"/>
     <use style="fill:#ffffff;stroke:#ff7f0e;" x="636.456512" xlink:href="#m92e0bfcf0d" y="270.802172"/>
     <use style="fill:#ffffff;stroke:#ff7f0e;" x="702.514565" xlink:href="#m92e0bfcf0d" y="253.953571"/>
     <use style="fill:#ffffff;stroke:#ff7f0e;" x="735.543592" xlink:href="#m92e0bfcf0d" y="244.060893"/>
    </g>
   </g>
   <g id="line2d_17">
    <path clip-path="url(#p7e07b5c4d0)" d="M 117 512.64 
L 135.349459 502.064663 
L 168.378486 487.91637 
L 201.407513 459.832985 
L 234.43654 439.2194 
L 267.465566 416.89772 
L 300.494593 399.03065 
L 333.52362 380.811708 
L 366.552647 371.438747 
L 399.581673 364.916026 
L 432.6107 346.138894 
" style="fill:none;stroke:#2ca02c;stroke-linecap:square;stroke-width:1.5;"/>
    <defs>
     <path d="M 0 1.5 
C 0.397805 1.5 0.77937 1.341951 1.06066 1.06066 
C 1.341951 0.77937 1.5 0.397805 1.5 0 
C 1.5 -0.397805 1.341951 -0.77937 1.06066 -1.06066 
C 0.77937 -1.341951 0.397805 -1.5 0 -1.5 
C -0.397805 -1.5 -0.77937 -1.341951 -1.06066 -1.06066 
C -1.341951 -0.77937 -1.5 -0.397805 -1.5 0 
C -1.5 0.397805 -1.341951 0.77937 -1.06066 1.06066 
C -0.77937 1.341951 -0.397805 1.5 0 1.5 
z
" id="mf01b68b481" style="stroke:#2ca02c;"/>
    </defs>
    <g clip-path="url(#p7e07b5c4d0)">
     <use style="fill:#ffffff;stroke:#2ca02c;" x="117" xlink:href="#mf01b68b481" y="512.64"/>
     <use style="fill:#ffffff;stroke:#2ca02c;" x="135.349459" xlink:href="#mf01b68b481" y="502.064663"/>
     <use style="fill:#ffffff;stroke:#2ca02c;" x="168.378486" xlink:href="#mf01b68b481" y="487.91637"/>
     <use style="fill:#ffffff;stroke:#2ca02c;" x="201.407513" xlink:href="#mf01b68b481" y="459.832985"/>
     <use style="fill:#ffffff;stroke:#2ca02c;" x="234.43654" xlink:href="#mf01b68b481" y="439.2194"/>
     <use style="fill:#ffffff;stroke:#2ca02c;" x="267.465566" xlink:href="#mf01b68b481" y="416.89772"/>
     <use style="fill:#ffffff;stroke:#2ca02c;" x="300.494593" xlink:href="#mf01b68b481" y="399.03065"/>
     <use style="fill:#ffffff;stroke:#2ca02c;" x="333.52362" xlink:href="#mf01b68b481" y="380.811708"/>
     <use style="fill:#ffffff;stroke:#2ca02c;" x="366.552647" xlink:href="#mf01b68b481" y="371.438747"/>
     <use style="fill:#ffffff;stroke:#2ca02c;" x="399.581673" xlink:href="#mf01b68b481" y="364.916026"/>
     <use style="fill:#ffffff;stroke:#2ca02c;" x="432.6107" xlink:href="#mf01b68b481" y="346.138894"/>
    </g>
   </g>
   <g id="line2d_18">
    <path clip-path="url(#p7e07b5c4d0)" d="M 117 512.64 
L 150.029027 487.91637 
L 183.058054 472.58825 
L 216.08708 463.418746 
L 249.116107 442.55346 
L 282.145134 431.049087 
" style="fill:none;stroke:#d62728;stroke-linecap:square;stroke-width:1.5;"/>
    <defs>
     <path d="M 0 1.5 
C 0.397805 1.5 0.77937 1.341951 1.06066 1.06066 
C 1.341951 0.77937 1.5 0.397805 1.5 0 
C 1.5 -0.397805 1.341951 -0.77937 1.06066 -1.06066 
C 0.77937 -1.341951 0.397805 -1.5 0 -1.5 
C -0.397805 -1.5 -0.77937 -1.341951 -1.06066 -1.06066 
C -1.341951 -0.77937 -1.5 -0.397805 -1.5 0 
C -1.5 0.397805 -1.341951 0.77937 -1.06066 1.06066 
C -0.77937 1.341951 -0.397805 1.5 0 1.5 
z
" id="mdd30488963" style="stroke:#d62728;"/>
    </defs>
    <g clip-path="url(#p7e07b5c4d0)">
     <use style="fill:#ffffff;stroke:#d62728;" x="117" xlink:href="#mdd30488963" y="512.64"/>
     <use style="fill:#ffffff;stroke:#d62728;" x="150.029027" xlink:href="#mdd30488963" y="487.91637"/>
     <use style="fill:#ffffff;stroke:#d62728;" x="183.058054" xlink:href="#mdd30488963" y="472.58825"/>
     <use style="fill:#ffffff;stroke:#d62728;" x="216.08708" xlink:href="#mdd30488963" y="463.418746"/>
     <use style="fill:#ffffff;stroke:#d62728;" x="249.116107" xlink:href="#mdd30488963" y="442.55346"/>
     <use style="fill:#ffffff;stroke:#d62728;" x="282.145134" xlink:href="#mdd30488963" y="431.049087"/>
    </g>
   </g>
   <g id="line2d_19">
    <path clip-path="url(#p7e07b5c4d0)" d="M 117 512.64 
L 138.018472 497.947141 
L 171.047498 487.91637 
L 204.076525 476.34179 
L 237.105552 459.832985 
L 270.134579 444.235114 
L 303.163605 424.674698 
" style="fill:none;stroke:#9467bd;stroke-linecap:square;stroke-width:1.5;"/>
    <defs>
     <path d="M 0 1.5 
C 0.397805 1.5 0.77937 1.341951 1.06066 1.06066 
C 1.341951 0.77937 1.5 0.397805 1.5 0 
C 1.5 -0.397805 1.341951 -0.77937 1.06066 -1.06066 
C 0.77937 -1.341951 0.397805 -1.5 0 -1.5 
C -0.397805 -1.5 -0.77937 -1.341951 -1.06066 -1.06066 
C -1.341951 -0.77937 -1.5 -0.397805 -1.5 0 
C -1.5 0.397805 -1.341951 0.77937 -1.06066 1.06066 
C -0.77937 1.341951 -0.397805 1.5 0 1.5 
z
" id="m6d1b14119f" style="stroke:#9467bd;"/>
    </defs>
    <g clip-path="url(#p7e07b5c4d0)">
     <use style="fill:#ffffff;stroke:#9467bd;" x="117" xlink:href="#m6d1b14119f" y="512.64"/>
     <use style="fill:#ffffff;stroke:#9467bd;" x="138.018472" xlink:href="#m6d1b14119f" y="497.947141"/>
     <use style="fill:#ffffff;stroke:#9467bd;" x="171.047498" xlink:href="#m6d1b14119f" y="487.91637"/>
     <use style="fill:#ffffff;stroke:#9467bd;" x="204.076525" xlink:href="#m6d1b14119f" y="476.34179"/>
     <use style="fill:#ffffff;stroke:#9467bd;" x="237.105552" xlink:href="#m6d1b14119f" y="459.832985"/>
     <use style="fill:#ffffff;stroke:#9467bd;" x="270.134579" xlink:href="#m6d1b14119f" y="444.235114"/>
     <use style="fill:#ffffff;stroke:#9467bd;" x="303.163605" xlink:href="#m6d1b14119f" y="424.674698"/>
    </g>
   </g>
   <g id="line2d_20">
    <path clip-path="url(#p7e07b5c4d0)" d="M 117 512.64 
L 150.029027 497.947141 
L 183.058054 491.884824 
L 216.08708 489.893446 
L 282.145134 478.237679 
L 315.174161 476.34179 
L 348.203187 472.58825 
L 414.261241 463.418746 
" style="fill:none;stroke:#8c564b;stroke-linecap:square;stroke-width:1.5;"/>
    <defs>
     <path d="M 0 1.5 
C 0.397805 1.5 0.77937 1.341951 1.06066 1.06066 
C 1.341951 0.77937 1.5 0.397805 1.5 0 
C 1.5 -0.397805 1.341951 -0.77937 1.06066 -1.06066 
C 0.77937 -1.341951 0.397805 -1.5 0 -1.5 
C -0.397805 -1.5 -0.77937 -1.341951 -1.06066 -1.06066 
C -1.341951 -0.77937 -1.5 -0.397805 -1.5 0 
C -1.5 0.397805 -1.341951 0.77937 -1.06066 1.06066 
C -0.77937 1.341951 -0.397805 1.5 0 1.5 
z
" id="m0b43b60e36" style="stroke:#8c564b;"/>
    </defs>
    <g clip-path="url(#p7e07b5c4d0)">
     <use style="fill:#ffffff;stroke:#8c564b;" x="117" xlink:href="#m0b43b60e36" y="512.64"/>
     <use style="fill:#ffffff;stroke:#8c564b;" x="150.029027" xlink:href="#m0b43b60e36" y="497.947141"/>
     <use style="fill:#ffffff;stroke:#8c564b;" x="183.058054" xlink:href="#m0b43b60e36" y="491.884824"/>
     <use style="fill:#ffffff;stroke:#8c564b;" x="216.08708" xlink:href="#m0b43b60e36" y="489.893446"/>
     <use style="fill:#ffffff;stroke:#8c564b;" x="282.145134" xlink:href="#m0b43b60e36" y="478.237679"/>
     <use style="fill:#ffffff;stroke:#8c564b;" x="315.174161" xlink:href="#m0b43b60e36" y="476.34179"/>
     <use style="fill:#ffffff;stroke:#8c564b;" x="348.203187" xlink:href="#m0b43b60e36" y="472.58825"/>
     <use style="fill:#ffffff;stroke:#8c564b;" x="414.261241" xlink:href="#m0b43b60e36" y="463.418746"/>
    </g>
   </g>
   <g id="line2d_21">
    <path clip-path="url(#p7e07b5c4d0)" d="M 117 512.64 
L 130.211611 504.146998 
L 163.240637 482.068684 
L 196.269664 468.884428 
L 229.298691 456.292117 
L 262.327718 442.55346 
L 295.356744 431.049087 
L 328.385771 424.674698 
L 361.414798 415.366789 
L 394.443825 390.484346 
L 427.472851 371.438747 
L 460.501878 363.627996 
L 493.530905 352.272094 
L 526.559932 346.138894 
L 559.588958 342.516197 
L 592.617985 336.570205 
L 625.647012 322.742647 
L 658.676039 311.66345 
" style="fill:none;stroke:#e377c2;stroke-linecap:square;stroke-width:1.5;"/>
    <defs>
     <path d="M 0 1.5 
C 0.397805 1.5 0.77937 1.341951 1.06066 1.06066 
C 1.341951 0.77937 1.5 0.397805 1.5 0 
C 1.5 -0.397805 1.341951 -0.77937 1.06066 -1.06066 
C 0.77937 -1.341951 0.397805 -1.5 0 -1.5 
C -0.397805 -1.5 -0.77937 -1.341951 -1.06066 -1.06066 
C -1.341951 -0.77937 -1.5 -0.397805 -1.5 0 
C -1.5 0.397805 -1.341951 0.77937 -1.06066 1.06066 
C -0.77937 1.341951 -0.397805 1.5 0 1.5 
z
" id="mf91c994c67" style="stroke:#e377c2;"/>
    </defs>
    <g clip-path="url(#p7e07b5c4d0)">
     <use style="fill:#ffffff;stroke:#e377c2;" x="117" xlink:href="#mf91c994c67" y="512.64"/>
     <use style="fill:#ffffff;stroke:#e377c2;" x="130.211611" xlink:href="#mf91c994c67" y="504.146998"/>
     <use style="fill:#ffffff;stroke:#e377c2;" x="163.240637" xlink:href="#mf91c994c67" y="482.068684"/>
     <use style="fill:#ffffff;stroke:#e377c2;" x="196.269664" xlink:href="#mf91c994c67" y="468.884428"/>
     <use style="fill:#ffffff;stroke:#e377c2;" x="229.298691" xlink:href="#mf91c994c67" y="456.292117"/>
     <use style="fill:#ffffff;stroke:#e377c2;" x="262.327718" xlink:href="#mf91c994c67" y="442.55346"/>
     <use style="fill:#ffffff;stroke:#e377c2;" x="295.356744" xlink:href="#mf91c994c67" y="431.049087"/>
     <use style="fill:#ffffff;stroke:#e377c2;" x="328.385771" xlink:href="#mf91c994c67" y="424.674698"/>
     <use style="fill:#ffffff;stroke:#e377c2;" x="361.414798" xlink:href="#mf91c994c67" y="415.366789"/>
     <use style="fill:#ffffff;stroke:#e377c2;" x="394.443825" xlink:href="#mf91c994c67" y="390.484346"/>
     <use style="fill:#ffffff;stroke:#e377c2;" x="427.472851" xlink:href="#mf91c994c67" y="371.438747"/>
     <use style="fill:#ffffff;stroke:#e377c2;" x="460.501878" xlink:href="#mf91c994c67" y="363.627996"/>
     <use style="fill:#ffffff;stroke:#e377c2;" x="493.530905" xlink:href="#mf91c994c67" y="352.272094"/>
     <use style="fill:#ffffff;stroke:#e377c2;" x="526.559932" xlink:href="#mf91c994c67" y="346.138894"/>
     <use style="fill:#ffffff;stroke:#e377c2;" x="559.588958" xlink:href="#mf91c994c67" y="342.516197"/>
     <use style="fill:#ffffff;stroke:#e377c2;" x="592.617985" xlink:href="#mf91c994c67" y="336.570205"/>
     <use style="fill:#ffffff;stroke:#e377c2;" x="625.647012" xlink:href="#mf91c994c67" y="322.742647"/>
     <use style="fill:#ffffff;stroke:#e377c2;" x="658.676039" xlink:href="#mf91c994c67" y="311.66345"/>
    </g>
   </g>
   <g id="line2d_22">
    <path clip-path="url(#p7e07b5c4d0)" d="M 117 512.64 
L 138.371723 489.893446 
L 171.40075 470.730217 
L 204.429777 447.628318 
L 237.458803 432.664788 
L 270.48783 406.344622 
L 303.516857 379.454859 
L 336.545884 352.272094 
L 369.57491 327.284842 
L 402.603937 302.010141 
L 435.632964 273.695514 
L 468.661991 260.4047 
L 501.691017 246.730115 
L 534.720044 231.022425 
" style="fill:none;stroke:#7f7f7f;stroke-linecap:square;stroke-width:1.5;"/>
    <defs>
     <path d="M 0 1.5 
C 0.397805 1.5 0.77937 1.341951 1.06066 1.06066 
C 1.341951 0.77937 1.5 0.397805 1.5 0 
C 1.5 -0.397805 1.341951 -0.77937 1.06066 -1.06066 
C 0.77937 -1.341951 0.397805 -1.5 0 -1.5 
C -0.397805 -1.5 -0.77937 -1.341951 -1.06066 -1.06066 
C -1.341951 -0.77937 -1.5 -0.397805 -1.5 0 
C -1.5 0.397805 -1.341951 0.77937 -1.06066 1.06066 
C -0.77937 1.341951 -0.397805 1.5 0 1.5 
z
" id="m3ba020020e" style="stroke:#7f7f7f;"/>
    </defs>
    <g clip-path="url(#p7e07b5c4d0)">
     <use style="fill:#ffffff;stroke:#7f7f7f;" x="117" xlink:href="#m3ba020020e" y="512.64"/>
     <use style="fill:#ffffff;stroke:#7f7f7f;" x="138.371723" xlink:href="#m3ba020020e" y="489.893446"/>
     <use style="fill:#ffffff;stroke:#7f7f7f;" x="171.40075" xlink:href="#m3ba020020e" y="470.730217"/>
     <use style="fill:#ffffff;stroke:#7f7f7f;" x="204.429777" xlink:href="#m3ba020020e" y="447.628318"/>
     <use style="fill:#ffffff;stroke:#7f7f7f;" x="237.458803" xlink:href="#m3ba020020e" y="432.664788"/>
     <use style="fill:#ffffff;stroke:#7f7f7f;" x="270.48783" xlink:href="#m3ba020020e" y="406.344622"/>
     <use style="fill:#ffffff;stroke:#7f7f7f;" x="303.516857" xlink:href="#m3ba020020e" y="379.454859"/>
     <use style="fill:#ffffff;stroke:#7f7f7f;" x="336.545884" xlink:href="#m3ba020020e" y="352.272094"/>
     <use style="fill:#ffffff;stroke:#7f7f7f;" x="369.57491" xlink:href="#m3ba020020e" y="327.284842"/>
     <use style="fill:#ffffff;stroke:#7f7f7f;" x="402.603937" xlink:href="#m3ba020020e" y="302.010141"/>
     <use style="fill:#ffffff;stroke:#7f7f7f;" x="435.632964" xlink:href="#m3ba020020e" y="273.695514"/>
     <use style="fill:#ffffff;stroke:#7f7f7f;" x="468.661991" xlink:href="#m3ba020020e" y="260.4047"/>
     <use style="fill:#ffffff;stroke:#7f7f7f;" x="501.691017" xlink:href="#m3ba020020e" y="246.730115"/>
     <use style="fill:#ffffff;stroke:#7f7f7f;" x="534.720044" xlink:href="#m3ba020020e" y="231.022425"/>
    </g>
   </g>
   <g id="line2d_23">
    <path clip-path="url(#p7e07b5c4d0)" d="M 117 512.64 
L 139.866249 493.890737 
L 172.895276 491.884824 
L 205.924303 484.004209 
L 238.95333 449.340137 
L 271.982356 426.25525 
L 305.011383 418.436677 
L 338.04041 399.03065 
L 371.069437 384.919177 
L 404.098463 383.543804 
L 437.12749 382.174669 
L 470.156517 366.209491 
L 503.185544 342.516197 
L 536.21457 330.734847 
L 569.243597 283.528125 
L 602.272624 272.728243 
L 635.301651 271.763802 
L 668.330677 258.548747 
L 734.388731 231.876221 
" style="fill:none;stroke:#bcbd22;stroke-linecap:square;stroke-width:1.5;"/>
    <defs>
     <path d="M 0 1.5 
C 0.397805 1.5 0.77937 1.341951 1.06066 1.06066 
C 1.341951 0.77937 1.5 0.397805 1.5 0 
C 1.5 -0.397805 1.341951 -0.77937 1.06066 -1.06066 
C 0.77937 -1.341951 0.397805 -1.5 0 -1.5 
C -0.397805 -1.5 -0.77937 -1.341951 -1.06066 -1.06066 
C -1.341951 -0.77937 -1.5 -0.397805 -1.5 0 
C -1.5 0.397805 -1.341951 0.77937 -1.06066 1.06066 
C -0.77937 1.341951 -0.397805 1.5 0 1.5 
z
" id="mca17fb4958" style="stroke:#bcbd22;"/>
    </defs>
    <g clip-path="url(#p7e07b5c4d0)">
     <use style="fill:#ffffff;stroke:#bcbd22;" x="117" xlink:href="#mca17fb4958" y="512.64"/>
     <use style="fill:#ffffff;stroke:#bcbd22;" x="139.866249" xlink:href="#mca17fb4958" y="493.890737"/>
     <use style="fill:#ffffff;stroke:#bcbd22;" x="172.895276" xlink:href="#mca17fb4958" y="491.884824"/>
     <use style="fill:#ffffff;stroke:#bcbd22;" x="205.924303" xlink:href="#mca17fb4958" y="484.004209"/>
     <use style="fill:#ffffff;stroke:#bcbd22;" x="238.95333" xlink:href="#mca17fb4958" y="449.340137"/>
     <use style="fill:#ffffff;stroke:#bcbd22;" x="271.982356" xlink:href="#mca17fb4958" y="426.25525"/>
     <use style="fill:#ffffff;stroke:#bcbd22;" x="305.011383" xlink:href="#mca17fb4958" y="418.436677"/>
     <use style="fill:#ffffff;stroke:#bcbd22;" x="338.04041" xlink:href="#mca17fb4958" y="399.03065"/>
     <use style="fill:#ffffff;stroke:#bcbd22;" x="371.069437" xlink:href="#mca17fb4958" y="384.919177"/>
     <use style="fill:#ffffff;stroke:#bcbd22;" x="404.098463" xlink:href="#mca17fb4958" y="383.543804"/>
     <use style="fill:#ffffff;stroke:#bcbd22;" x="437.12749" xlink:href="#mca17fb4958" y="382.174669"/>
     <use style="fill:#ffffff;stroke:#bcbd22;" x="470.156517" xlink:href="#mca17fb4958" y="366.209491"/>
     <use style="fill:#ffffff;stroke:#bcbd22;" x="503.185544" xlink:href="#mca17fb4958" y="342.516197"/>
     <use style="fill:#ffffff;stroke:#bcbd22;" x="536.21457" xlink:href="#mca17fb4958" y="330.734847"/>
     <use style="fill:#ffffff;stroke:#bcbd22;" x="569.243597" xlink:href="#mca17fb4958" y="283.528125"/>
     <use style="fill:#ffffff;stroke:#bcbd22;" x="602.272624" xlink:href="#mca17fb4958" y="272.728243"/>
     <use style="fill:#ffffff;stroke:#bcbd22;" x="635.301651" xlink:href="#mca17fb4958" y="271.763802"/>
     <use style="fill:#ffffff;stroke:#bcbd22;" x="668.330677" xlink:href="#mca17fb4958" y="258.548747"/>
     <use style="fill:#ffffff;stroke:#bcbd22;" x="734.388731" xlink:href="#mca17fb4958" y="231.876221"/>
    </g>
   </g>
   <g id="line2d_24">
    <path clip-path="url(#p7e07b5c4d0)" d="M 117 512.64 
L 144.947638 489.893446 
L 177.976665 468.884428 
L 211.005692 456.292117 
L 244.034718 437.566741 
L 277.063745 418.436677 
L 310.092772 407.829305 
L 343.121799 393.306078 
L 376.150825 374.08737 
L 409.179852 361.068036 
L 442.208879 351.035719 
L 475.237906 341.317921 
L 508.266932 327.284842 
L 541.295959 320.495732 
L 574.324986 318.264599 
L 607.354013 307.337215 
L 640.383039 295.731721 
" style="fill:none;stroke:#17becf;stroke-linecap:square;stroke-width:1.5;"/>
    <defs>
     <path d="M 0 1.5 
C 0.397805 1.5 0.77937 1.341951 1.06066 1.06066 
C 1.341951 0.77937 1.5 0.397805 1.5 0 
C 1.5 -0.397805 1.341951 -0.77937 1.06066 -1.06066 
C 0.77937 -1.341951 0.397805 -1.5 0 -1.5 
C -0.397805 -1.5 -0.77937 -1.341951 -1.06066 -1.06066 
C -1.341951 -0.77937 -1.5 -0.397805 -1.5 0 
C -1.5 0.397805 -1.341951 0.77937 -1.06066 1.06066 
C -0.77937 1.341951 -0.397805 1.5 0 1.5 
z
" id="m8c936ef28f" style="stroke:#17becf;"/>
    </defs>
    <g clip-path="url(#p7e07b5c4d0)">
     <use style="fill:#ffffff;stroke:#17becf;" x="117" xlink:href="#m8c936ef28f" y="512.64"/>
     <use style="fill:#ffffff;stroke:#17becf;" x="144.947638" xlink:href="#m8c936ef28f" y="489.893446"/>
     <use style="fill:#ffffff;stroke:#17becf;" x="177.976665" xlink:href="#m8c936ef28f" y="468.884428"/>
     <use style="fill:#ffffff;stroke:#17becf;" x="211.005692" xlink:href="#m8c936ef28f" y="456.292117"/>
     <use style="fill:#ffffff;stroke:#17becf;" x="244.034718" xlink:href="#m8c936ef28f" y="437.566741"/>
     <use style="fill:#ffffff;stroke:#17becf;" x="277.063745" xlink:href="#m8c936ef28f" y="418.436677"/>
     <use style="fill:#ffffff;stroke:#17becf;" x="310.092772" xlink:href="#m8c936ef28f" y="407.829305"/>
     <use style="fill:#ffffff;stroke:#17becf;" x="343.121799" xlink:href="#m8c936ef28f" y="393.306078"/>
     <use style="fill:#ffffff;stroke:#17becf;" x="376.150825" xlink:href="#m8c936ef28f" y="374.08737"/>
     <use style="fill:#ffffff;stroke:#17becf;" x="409.179852" xlink:href="#m8c936ef28f" y="361.068036"/>
     <use style="fill:#ffffff;stroke:#17becf;" x="442.208879" xlink:href="#m8c936ef28f" y="351.035719"/>
     <use style="fill:#ffffff;stroke:#17becf;" x="475.237906" xlink:href="#m8c936ef28f" y="341.317921"/>
     <use style="fill:#ffffff;stroke:#17becf;" x="508.266932" xlink:href="#m8c936ef28f" y="327.284842"/>
     <use style="fill:#ffffff;stroke:#17becf;" x="541.295959" xlink:href="#m8c936ef28f" y="320.495732"/>
     <use style="fill:#ffffff;stroke:#17becf;" x="574.324986" xlink:href="#m8c936ef28f" y="318.264599"/>
     <use style="fill:#ffffff;stroke:#17becf;" x="607.354013" xlink:href="#m8c936ef28f" y="307.337215"/>
     <use style="fill:#ffffff;stroke:#17becf;" x="640.383039" xlink:href="#m8c936ef28f" y="295.731721"/>
    </g>
   </g>
   <g id="line2d_25">
    <path clip-path="url(#p7e07b5c4d0)" d="M 117 512.64 
L 129.010555 495.911427 
L 162.039582 478.237679 
L 195.068609 452.794899 
L 228.097635 418.436677 
L 261.126662 400.47912 
L 294.155689 389.083369 
L 327.184716 379.454859 
L 360.213742 336.570205 
L 393.242769 304.130396 
L 426.271796 292.63761 
L 459.300823 276.6145 
L 492.329849 257.624634 
L 525.358876 248.521445 
L 558.387903 242.293095 
L 591.41693 211.952095 
L 624.445956 202.406783 
" style="fill:none;stroke:#1f77b4;stroke-linecap:square;stroke-width:1.5;"/>
    <g clip-path="url(#p7e07b5c4d0)">
     <use style="fill:#ffffff;stroke:#1f77b4;" x="117" xlink:href="#m952fd9de94" y="512.64"/>
     <use style="fill:#ffffff;stroke:#1f77b4;" x="129.010555" xlink:href="#m952fd9de94" y="495.911427"/>
     <use style="fill:#ffffff;stroke:#1f77b4;" x="162.039582" xlink:href="#m952fd9de94" y="478.237679"/>
     <use style="fill:#ffffff;stroke:#1f77b4;" x="195.068609" xlink:href="#m952fd9de94" y="452.794899"/>
     <use style="fill:#ffffff;stroke:#1f77b4;" x="228.097635" xlink:href="#m952fd9de94" y="418.436677"/>
     <use style="fill:#ffffff;stroke:#1f77b4;" x="261.126662" xlink:href="#m952fd9de94" y="400.47912"/>
     <use style="fill:#ffffff;stroke:#1f77b4;" x="294.155689" xlink:href="#m952fd9de94" y="389.083369"/>
     <use style="fill:#ffffff;stroke:#1f77b4;" x="327.184716" xlink:href="#m952fd9de94" y="379.454859"/>
     <use style="fill:#ffffff;stroke:#1f77b4;" x="360.213742" xlink:href="#m952fd9de94" y="336.570205"/>
     <use style="fill:#ffffff;stroke:#1f77b4;" x="393.242769" xlink:href="#m952fd9de94" y="304.130396"/>
     <use style="fill:#ffffff;stroke:#1f77b4;" x="426.271796" xlink:href="#m952fd9de94" y="292.63761"/>
     <use style="fill:#ffffff;stroke:#1f77b4;" x="459.300823" xlink:href="#m952fd9de94" y="276.6145"/>
     <use style="fill:#ffffff;stroke:#1f77b4;" x="492.329849" xlink:href="#m952fd9de94" y="257.624634"/>
     <use style="fill:#ffffff;stroke:#1f77b4;" x="525.358876" xlink:href="#m952fd9de94" y="248.521445"/>
     <use style="fill:#ffffff;stroke:#1f77b4;" x="558.387903" xlink:href="#m952fd9de94" y="242.293095"/>
     <use style="fill:#ffffff;stroke:#1f77b4;" x="591.41693" xlink:href="#m952fd9de94" y="211.952095"/>
     <use style="fill:#ffffff;stroke:#1f77b4;" x="624.445956" xlink:href="#m952fd9de94" y="202.406783"/>
    </g>
   </g>
   <g id="line2d_26">
    <path clip-path="url(#p7e07b5c4d0)" d="M 117 512.64 
L 143.423221 504.146998 
L 176.452248 491.884824 
L 209.481275 487.91637 
" style="fill:none;stroke:#ff7f0e;stroke-linecap:square;stroke-width:1.5;"/>
    <g clip-path="url(#p7e07b5c4d0)">
     <use style="fill:#ffffff;stroke:#ff7f0e;" x="117" xlink:href="#m92e0bfcf0d" y="512.64"/>
     <use style="fill:#ffffff;stroke:#ff7f0e;" x="143.423221" xlink:href="#m92e0bfcf0d" y="504.146998"/>
     <use style="fill:#ffffff;stroke:#ff7f0e;" x="176.452248" xlink:href="#m92e0bfcf0d" y="491.884824"/>
     <use style="fill:#ffffff;stroke:#ff7f0e;" x="209.481275" xlink:href="#m92e0bfcf0d" y="487.91637"/>
    </g>
   </g>
   <g id="line2d_27">
    <path clip-path="url(#p7e07b5c4d0)" d="M 117 512.64 
L 129.010555 495.911427 
L 162.039582 484.004209 
L 228.097635 454.538128 
L 261.126662 452.794899 
L 294.155689 434.289554 
L 327.184716 419.983756 
L 360.213742 413.84379 
L 393.242769 409.321477 
L 459.300823 401.934673 
L 492.329849 389.083369 
L 525.358876 358.529212 
L 558.387903 348.577657 
L 591.41693 344.926643 
L 657.474983 329.580648 
L 723.533037 309.493031 
" style="fill:none;stroke:#2ca02c;stroke-linecap:square;stroke-width:1.5;"/>
    <g clip-path="url(#p7e07b5c4d0)">
     <use style="fill:#ffffff;stroke:#2ca02c;" x="117" xlink:href="#mf01b68b481" y="512.64"/>
     <use style="fill:#ffffff;stroke:#2ca02c;" x="129.010555" xlink:href="#mf01b68b481" y="495.911427"/>
     <use style="fill:#ffffff;stroke:#2ca02c;" x="162.039582" xlink:href="#mf01b68b481" y="484.004209"/>
     <use style="fill:#ffffff;stroke:#2ca02c;" x="228.097635" xlink:href="#mf01b68b481" y="454.538128"/>
     <use style="fill:#ffffff;stroke:#2ca02c;" x="261.126662" xlink:href="#mf01b68b481" y="452.794899"/>
     <use style="fill:#ffffff;stroke:#2ca02c;" x="294.155689" xlink:href="#mf01b68b481" y="434.289554"/>
     <use style="fill:#ffffff;stroke:#2ca02c;" x="327.184716" xlink:href="#mf01b68b481" y="419.983756"/>
     <use style="fill:#ffffff;stroke:#2ca02c;" x="360.213742" xlink:href="#mf01b68b481" y="413.84379"/>
     <use style="fill:#ffffff;stroke:#2ca02c;" x="393.242769" xlink:href="#mf01b68b481" y="409.321477"/>
     <use style="fill:#ffffff;stroke:#2ca02c;" x="459.300823" xlink:href="#mf01b68b481" y="401.934673"/>
     <use style="fill:#ffffff;stroke:#2ca02c;" x="492.329849" xlink:href="#mf01b68b481" y="389.083369"/>
     <use style="fill:#ffffff;stroke:#2ca02c;" x="525.358876" xlink:href="#mf01b68b481" y="358.529212"/>
     <use style="fill:#ffffff;stroke:#2ca02c;" x="558.387903" xlink:href="#mf01b68b481" y="348.577657"/>
     <use style="fill:#ffffff;stroke:#2ca02c;" x="591.41693" xlink:href="#mf01b68b481" y="344.926643"/>
     <use style="fill:#ffffff;stroke:#2ca02c;" x="657.474983" xlink:href="#mf01b68b481" y="329.580648"/>
     <use style="fill:#ffffff;stroke:#2ca02c;" x="723.533037" xlink:href="#mf01b68b481" y="309.493031"/>
    </g>
   </g>
   <g id="line2d_28">
    <path clip-path="url(#p7e07b5c4d0)" d="M 117 512.64 
L 146.359135 495.911427 
L 179.388162 467.050703 
L 212.417188 452.794899 
L 245.446215 444.235114 
L 278.475242 439.2194 
L 311.504269 437.566741 
L 344.533295 432.664788 
L 377.562322 400.47912 
L 410.591349 391.891892 
L 443.620376 379.454859 
L 476.649402 367.508443 
L 509.678429 359.796007 
L 542.707456 358.529212 
L 575.736483 356.011134 
L 608.765509 343.719091 
L 641.794536 335.394432 
" style="fill:none;stroke:#d62728;stroke-linecap:square;stroke-width:1.5;"/>
    <g clip-path="url(#p7e07b5c4d0)">
     <use style="fill:#ffffff;stroke:#d62728;" x="117" xlink:href="#mdd30488963" y="512.64"/>
     <use style="fill:#ffffff;stroke:#d62728;" x="146.359135" xlink:href="#mdd30488963" y="495.911427"/>
     <use style="fill:#ffffff;stroke:#d62728;" x="179.388162" xlink:href="#mdd30488963" y="467.050703"/>
     <use style="fill:#ffffff;stroke:#d62728;" x="212.417188" xlink:href="#mdd30488963" y="452.794899"/>
     <use style="fill:#ffffff;stroke:#d62728;" x="245.446215" xlink:href="#mdd30488963" y="444.235114"/>
     <use style="fill:#ffffff;stroke:#d62728;" x="278.475242" xlink:href="#mdd30488963" y="439.2194"/>
     <use style="fill:#ffffff;stroke:#d62728;" x="311.504269" xlink:href="#mdd30488963" y="437.566741"/>
     <use style="fill:#ffffff;stroke:#d62728;" x="344.533295" xlink:href="#mdd30488963" y="432.664788"/>
     <use style="fill:#ffffff;stroke:#d62728;" x="377.562322" xlink:href="#mdd30488963" y="400.47912"/>
     <use style="fill:#ffffff;stroke:#d62728;" x="410.591349" xlink:href="#mdd30488963" y="391.891892"/>
     <use style="fill:#ffffff;stroke:#d62728;" x="443.620376" xlink:href="#mdd30488963" y="379.454859"/>
     <use style="fill:#ffffff;stroke:#d62728;" x="476.649402" xlink:href="#mdd30488963" y="367.508443"/>
     <use style="fill:#ffffff;stroke:#d62728;" x="509.678429" xlink:href="#mdd30488963" y="359.796007"/>
     <use style="fill:#ffffff;stroke:#d62728;" x="542.707456" xlink:href="#mdd30488963" y="358.529212"/>
     <use style="fill:#ffffff;stroke:#d62728;" x="575.736483" xlink:href="#mdd30488963" y="356.011134"/>
     <use style="fill:#ffffff;stroke:#d62728;" x="608.765509" xlink:href="#mdd30488963" y="343.719091"/>
     <use style="fill:#ffffff;stroke:#d62728;" x="641.794536" xlink:href="#mdd30488963" y="335.394432"/>
    </g>
   </g>
   <g id="line2d_29">
    <path clip-path="url(#p7e07b5c4d0)" d="M 117 512.64 
L 123.605805 510.49162 
" style="fill:none;stroke:#9467bd;stroke-linecap:square;stroke-width:1.5;"/>
    <g clip-path="url(#p7e07b5c4d0)">
     <use style="fill:#ffffff;stroke:#9467bd;" x="117" xlink:href="#m6d1b14119f" y="512.64"/>
     <use style="fill:#ffffff;stroke:#9467bd;" x="123.605805" xlink:href="#m6d1b14119f" y="510.49162"/>
    </g>
   </g>
   <g id="line2d_30">
    <path clip-path="url(#p7e07b5c4d0)" d="M 117 512.64 
L 126.17473 502.064663 
L 159.203756 476.34179 
L 192.232783 442.55346 
L 225.26181 421.539053 
L 258.290837 413.84379 
L 291.319863 390.484346 
L 324.34889 376.759252 
L 357.377917 366.209491 
L 390.406944 349.804254 
L 423.43597 334.223046 
L 456.464997 321.617201 
L 489.494024 313.848696 
L 522.523051 307.337215 
L 555.552077 294.697066 
" style="fill:none;stroke:#8c564b;stroke-linecap:square;stroke-width:1.5;"/>
    <g clip-path="url(#p7e07b5c4d0)">
     <use style="fill:#ffffff;stroke:#8c564b;" x="117" xlink:href="#m0b43b60e36" y="512.64"/>
     <use style="fill:#ffffff;stroke:#8c564b;" x="126.17473" xlink:href="#m0b43b60e36" y="502.064663"/>
     <use style="fill:#ffffff;stroke:#8c564b;" x="159.203756" xlink:href="#m0b43b60e36" y="476.34179"/>
     <use style="fill:#ffffff;stroke:#8c564b;" x="192.232783" xlink:href="#m0b43b60e36" y="442.55346"/>
     <use style="fill:#ffffff;stroke:#8c564b;" x="225.26181" xlink:href="#m0b43b60e36" y="421.539053"/>
     <use style="fill:#ffffff;stroke:#8c564b;" x="258.290837" xlink:href="#m0b43b60e36" y="413.84379"/>
     <use style="fill:#ffffff;stroke:#8c564b;" x="291.319863" xlink:href="#m0b43b60e36" y="390.484346"/>
     <use style="fill:#ffffff;stroke:#8c564b;" x="324.34889" xlink:href="#m0b43b60e36" y="376.759252"/>
     <use style="fill:#ffffff;stroke:#8c564b;" x="357.377917" xlink:href="#m0b43b60e36" y="366.209491"/>
     <use style="fill:#ffffff;stroke:#8c564b;" x="390.406944" xlink:href="#m0b43b60e36" y="349.804254"/>
     <use style="fill:#ffffff;stroke:#8c564b;" x="423.43597" xlink:href="#m0b43b60e36" y="334.223046"/>
     <use style="fill:#ffffff;stroke:#8c564b;" x="456.464997" xlink:href="#m0b43b60e36" y="321.617201"/>
     <use style="fill:#ffffff;stroke:#8c564b;" x="489.494024" xlink:href="#m0b43b60e36" y="313.848696"/>
     <use style="fill:#ffffff;stroke:#8c564b;" x="522.523051" xlink:href="#m0b43b60e36" y="307.337215"/>
     <use style="fill:#ffffff;stroke:#8c564b;" x="555.552077" xlink:href="#m0b43b60e36" y="294.697066"/>
    </g>
   </g>
   <g id="line2d_31">
    <path clip-path="url(#p7e07b5c4d0)" d="M 117 512.64 
L 140.120319 497.947141 
L 173.149345 493.890737 
L 206.178372 480.146576 
L 239.207399 474.458712 
L 272.236426 472.58825 
L 305.265452 465.228867 
L 338.294479 445.926689 
L 371.323506 437.566741 
L 404.352533 421.539053 
L 437.381559 410.821223 
L 470.410586 397.589186 
L 503.439613 386.300852 
L 536.46864 382.174669 
L 569.497666 362.34535 
L 602.526693 314.946952 
" style="fill:none;stroke:#e377c2;stroke-linecap:square;stroke-width:1.5;"/>
    <g clip-path="url(#p7e07b5c4d0)">
     <use style="fill:#ffffff;stroke:#e377c2;" x="117" xlink:href="#mf91c994c67" y="512.64"/>
     <use style="fill:#ffffff;stroke:#e377c2;" x="140.120319" xlink:href="#mf91c994c67" y="497.947141"/>
     <use style="fill:#ffffff;stroke:#e377c2;" x="173.149345" xlink:href="#mf91c994c67" y="493.890737"/>
     <use style="fill:#ffffff;stroke:#e377c2;" x="206.178372" xlink:href="#mf91c994c67" y="480.146576"/>
     <use style="fill:#ffffff;stroke:#e377c2;" x="239.207399" xlink:href="#mf91c994c67" y="474.458712"/>
     <use style="fill:#ffffff;stroke:#e377c2;" x="272.236426" xlink:href="#mf91c994c67" y="472.58825"/>
     <use style="fill:#ffffff;stroke:#e377c2;" x="305.265452" xlink:href="#mf91c994c67" y="465.228867"/>
     <use style="fill:#ffffff;stroke:#e377c2;" x="338.294479" xlink:href="#mf91c994c67" y="445.926689"/>
     <use style="fill:#ffffff;stroke:#e377c2;" x="371.323506" xlink:href="#mf91c994c67" y="437.566741"/>
     <use style="fill:#ffffff;stroke:#e377c2;" x="404.352533" xlink:href="#mf91c994c67" y="421.539053"/>
     <use style="fill:#ffffff;stroke:#e377c2;" x="437.381559" xlink:href="#mf91c994c67" y="410.821223"/>
     <use style="fill:#ffffff;stroke:#e377c2;" x="470.410586" xlink:href="#mf91c994c67" y="397.589186"/>
     <use style="fill:#ffffff;stroke:#e377c2;" x="503.439613" xlink:href="#mf91c994c67" y="386.300852"/>
     <use style="fill:#ffffff;stroke:#e377c2;" x="536.46864" xlink:href="#mf91c994c67" y="382.174669"/>
     <use style="fill:#ffffff;stroke:#e377c2;" x="569.497666" xlink:href="#mf91c994c67" y="362.34535"/>
     <use style="fill:#ffffff;stroke:#e377c2;" x="602.526693" xlink:href="#mf91c994c67" y="314.946952"/>
    </g>
   </g>
   <g id="line2d_32">
    <path clip-path="url(#p7e07b5c4d0)" d="M 117 512.64 
L 128.009676 510.49162 
L 194.067729 493.890737 
L 227.096756 465.228867 
L 260.125783 445.926689 
L 293.154809 435.923499 
L 326.183836 434.289554 
L 359.212863 429.442337 
L 392.24189 424.674698 
L 425.270916 418.436677 
L 458.299943 410.821223 
L 491.32897 397.589186 
L 524.357997 394.726974 
L 590.41605 380.811708 
L 623.445077 376.759252 
L 656.474104 372.76018 
L 689.50313 367.508443 
L 722.532157 358.529212 
" style="fill:none;stroke:#7f7f7f;stroke-linecap:square;stroke-width:1.5;"/>
    <g clip-path="url(#p7e07b5c4d0)">
     <use style="fill:#ffffff;stroke:#7f7f7f;" x="117" xlink:href="#m3ba020020e" y="512.64"/>
     <use style="fill:#ffffff;stroke:#7f7f7f;" x="128.009676" xlink:href="#m3ba020020e" y="510.49162"/>
     <use style="fill:#ffffff;stroke:#7f7f7f;" x="194.067729" xlink:href="#m3ba020020e" y="493.890737"/>
     <use style="fill:#ffffff;stroke:#7f7f7f;" x="227.096756" xlink:href="#m3ba020020e" y="465.228867"/>
     <use style="fill:#ffffff;stroke:#7f7f7f;" x="260.125783" xlink:href="#m3ba020020e" y="445.926689"/>
     <use style="fill:#ffffff;stroke:#7f7f7f;" x="293.154809" xlink:href="#m3ba020020e" y="435.923499"/>
     <use style="fill:#ffffff;stroke:#7f7f7f;" x="326.183836" xlink:href="#m3ba020020e" y="434.289554"/>
     <use style="fill:#ffffff;stroke:#7f7f7f;" x="359.212863" xlink:href="#m3ba020020e" y="429.442337"/>
     <use style="fill:#ffffff;stroke:#7f7f7f;" x="392.24189" xlink:href="#m3ba020020e" y="424.674698"/>
     <use style="fill:#ffffff;stroke:#7f7f7f;" x="425.270916" xlink:href="#m3ba020020e" y="418.436677"/>
     <use style="fill:#ffffff;stroke:#7f7f7f;" x="458.299943" xlink:href="#m3ba020020e" y="410.821223"/>
     <use style="fill:#ffffff;stroke:#7f7f7f;" x="491.32897" xlink:href="#m3ba020020e" y="397.589186"/>
     <use style="fill:#ffffff;stroke:#7f7f7f;" x="524.357997" xlink:href="#m3ba020020e" y="394.726974"/>
     <use style="fill:#ffffff;stroke:#7f7f7f;" x="590.41605" xlink:href="#m3ba020020e" y="380.811708"/>
     <use style="fill:#ffffff;stroke:#7f7f7f;" x="623.445077" xlink:href="#m3ba020020e" y="376.759252"/>
     <use style="fill:#ffffff;stroke:#7f7f7f;" x="656.474104" xlink:href="#m3ba020020e" y="372.76018"/>
     <use style="fill:#ffffff;stroke:#7f7f7f;" x="689.50313" xlink:href="#m3ba020020e" y="367.508443"/>
     <use style="fill:#ffffff;stroke:#7f7f7f;" x="722.532157" xlink:href="#m3ba020020e" y="358.529212"/>
    </g>
   </g>
   <g id="line2d_33">
    <path clip-path="url(#p7e07b5c4d0)" d="M 117 512.64 
L 125.742978 493.890737 
L 158.772004 470.730217 
L 191.801031 454.538128 
L 224.830058 435.923499 
L 257.859085 423.102666 
L 290.888111 415.366789 
L 323.917138 358.529212 
L 356.946165 342.516197 
L 389.975192 316.049001 
L 423.004218 287.545374 
L 456.033245 268.887275 
L 489.062272 247.624586 
L 522.091299 229.321237 
L 555.120325 207.942824 
L 588.149352 190.074448 
L 621.178379 163.111538 
L 654.207406 145.984261 
L 687.236432 138.043488 
L 720.265459 131.55629 
L 753.294486 107.902308 
L 786.323513 90.24 
" style="fill:none;stroke:#bcbd22;stroke-linecap:square;stroke-width:1.5;"/>
    <g clip-path="url(#p7e07b5c4d0)">
     <use style="fill:#ffffff;stroke:#bcbd22;" x="117" xlink:href="#mca17fb4958" y="512.64"/>
     <use style="fill:#ffffff;stroke:#bcbd22;" x="125.742978" xlink:href="#mca17fb4958" y="493.890737"/>
     <use style="fill:#ffffff;stroke:#bcbd22;" x="158.772004" xlink:href="#mca17fb4958" y="470.730217"/>
     <use style="fill:#ffffff;stroke:#bcbd22;" x="191.801031" xlink:href="#mca17fb4958" y="454.538128"/>
     <use style="fill:#ffffff;stroke:#bcbd22;" x="224.830058" xlink:href="#mca17fb4958" y="435.923499"/>
     <use style="fill:#ffffff;stroke:#bcbd22;" x="257.859085" xlink:href="#mca17fb4958" y="423.102666"/>
     <use style="fill:#ffffff;stroke:#bcbd22;" x="290.888111" xlink:href="#mca17fb4958" y="415.366789"/>
     <use style="fill:#ffffff;stroke:#bcbd22;" x="323.917138" xlink:href="#mca17fb4958" y="358.529212"/>
     <use style="fill:#ffffff;stroke:#bcbd22;" x="356.946165" xlink:href="#mca17fb4958" y="342.516197"/>
     <use style="fill:#ffffff;stroke:#bcbd22;" x="389.975192" xlink:href="#mca17fb4958" y="316.049001"/>
     <use style="fill:#ffffff;stroke:#bcbd22;" x="423.004218" xlink:href="#mca17fb4958" y="287.545374"/>
     <use style="fill:#ffffff;stroke:#bcbd22;" x="456.033245" xlink:href="#mca17fb4958" y="268.887275"/>
     <use style="fill:#ffffff;stroke:#bcbd22;" x="489.062272" xlink:href="#mca17fb4958" y="247.624586"/>
     <use style="fill:#ffffff;stroke:#bcbd22;" x="522.091299" xlink:href="#mca17fb4958" y="229.321237"/>
     <use style="fill:#ffffff;stroke:#bcbd22;" x="555.120325" xlink:href="#mca17fb4958" y="207.942824"/>
     <use style="fill:#ffffff;stroke:#bcbd22;" x="588.149352" xlink:href="#mca17fb4958" y="190.074448"/>
     <use style="fill:#ffffff;stroke:#bcbd22;" x="621.178379" xlink:href="#mca17fb4958" y="163.111538"/>
     <use style="fill:#ffffff;stroke:#bcbd22;" x="654.207406" xlink:href="#mca17fb4958" y="145.984261"/>
     <use style="fill:#ffffff;stroke:#bcbd22;" x="687.236432" xlink:href="#mca17fb4958" y="138.043488"/>
     <use style="fill:#ffffff;stroke:#bcbd22;" x="720.265459" xlink:href="#mca17fb4958" y="131.55629"/>
     <use style="fill:#ffffff;stroke:#bcbd22;" x="753.294486" xlink:href="#mca17fb4958" y="107.902308"/>
     <use style="fill:#ffffff;stroke:#bcbd22;" x="786.323513" xlink:href="#mca17fb4958" y="90.24"/>
    </g>
   </g>
   <g id="line2d_34">
    <path clip-path="url(#p7e07b5c4d0)" d="M 117 512.64 
L 147.276608 489.893446 
L 180.305635 458.057018 
L 213.334661 442.55346 
L 246.363688 431.049087 
L 279.392715 415.366789 
L 312.421742 391.891892 
L 345.450768 375.420375 
L 378.479795 356.011134 
L 411.508822 346.138894 
L 444.537849 338.935062 
L 477.566875 328.430658 
L 510.595902 317.154874 
L 543.624929 304.130396 
L 576.653956 299.903744 
L 609.682982 288.557466 
L 642.712009 283.528125 
L 675.741036 279.559646 
L 708.770063 273.695514 
L 741.799089 265.090427 
L 774.828116 247.624586 
L 807.857143 240.534517 
" style="fill:none;stroke:#17becf;stroke-linecap:square;stroke-width:1.5;"/>
    <g clip-path="url(#p7e07b5c4d0)">
     <use style="fill:#ffffff;stroke:#17becf;" x="117" xlink:href="#m8c936ef28f" y="512.64"/>
     <use style="fill:#ffffff;stroke:#17becf;" x="147.276608" xlink:href="#m8c936ef28f" y="489.893446"/>
     <use style="fill:#ffffff;stroke:#17becf;" x="180.305635" xlink:href="#m8c936ef28f" y="458.057018"/>
     <use style="fill:#ffffff;stroke:#17becf;" x="213.334661" xlink:href="#m8c936ef28f" y="442.55346"/>
     <use style="fill:#ffffff;stroke:#17becf;" x="246.363688" xlink:href="#m8c936ef28f" y="431.049087"/>
     <use style="fill:#ffffff;stroke:#17becf;" x="279.392715" xlink:href="#m8c936ef28f" y="415.366789"/>
     <use style="fill:#ffffff;stroke:#17becf;" x="312.421742" xlink:href="#m8c936ef28f" y="391.891892"/>
     <use style="fill:#ffffff;stroke:#17becf;" x="345.450768" xlink:href="#m8c936ef28f" y="375.420375"/>
     <use style="fill:#ffffff;stroke:#17becf;" x="378.479795" xlink:href="#m8c936ef28f" y="356.011134"/>
     <use style="fill:#ffffff;stroke:#17becf;" x="411.508822" xlink:href="#m8c936ef28f" y="346.138894"/>
     <use style="fill:#ffffff;stroke:#17becf;" x="444.537849" xlink:href="#m8c936ef28f" y="338.935062"/>
     <use style="fill:#ffffff;stroke:#17becf;" x="477.566875" xlink:href="#m8c936ef28f" y="328.430658"/>
     <use style="fill:#ffffff;stroke:#17becf;" x="510.595902" xlink:href="#m8c936ef28f" y="317.154874"/>
     <use style="fill:#ffffff;stroke:#17becf;" x="543.624929" xlink:href="#m8c936ef28f" y="304.130396"/>
     <use style="fill:#ffffff;stroke:#17becf;" x="576.653956" xlink:href="#m8c936ef28f" y="299.903744"/>
     <use style="fill:#ffffff;stroke:#17becf;" x="609.682982" xlink:href="#m8c936ef28f" y="288.557466"/>
     <use style="fill:#ffffff;stroke:#17becf;" x="642.712009" xlink:href="#m8c936ef28f" y="283.528125"/>
     <use style="fill:#ffffff;stroke:#17becf;" x="675.741036" xlink:href="#m8c936ef28f" y="279.559646"/>
     <use style="fill:#ffffff;stroke:#17becf;" x="708.770063" xlink:href="#m8c936ef28f" y="273.695514"/>
     <use style="fill:#ffffff;stroke:#17becf;" x="741.799089" xlink:href="#m8c936ef28f" y="265.090427"/>
     <use style="fill:#ffffff;stroke:#17becf;" x="774.828116" xlink:href="#m8c936ef28f" y="247.624586"/>
     <use style="fill:#ffffff;stroke:#17becf;" x="807.857143" xlink:href="#m8c936ef28f" y="240.534517"/>
    </g>
   </g>
   <g id="patch_3">
    <path d="M 117 512.64 
L 117 69.12 
" style="fill:none;stroke:#666666;stroke-linecap:square;stroke-linejoin:miter;stroke-width:0.8;"/>
   </g>
   <g id="patch_4">
    <path d="M 117 512.64 
L 842.4 512.64 
" style="fill:none;stroke:#666666;stroke-linecap:square;stroke-linejoin:miter;stroke-width:0.8;"/>
   </g>
   <g id="text_7">
    <g id="patch_5">
     <path d="M 504.076785 287.107812 
C 505.576785 288.607812 517.989285 288.607812 519.489285 287.107812 
C 520.989285 285.607812 520.989285 275.929687 519.489285 274.429687 
C 517.989285 272.929687 505.576785 272.929687 504.076785 274.429687 
C 502.576785 275.929687 502.576785 285.607812 504.076785 287.107812 
z
" style="fill:#ffffff;stroke:#1f77b4;stroke-linejoin:miter;"/>
    </g>
    <!-- AL -->
    <defs>
     <path d="M 34.1875 63.1875 
L 20.796875 26.90625 
L 47.609375 26.90625 
z
M 28.609375 72.90625 
L 39.796875 72.90625 
L 67.578125 0 
L 57.328125 0 
L 50.6875 18.703125 
L 17.828125 18.703125 
L 11.1875 0 
L 0.78125 0 
z
" id="DejaVuSans-65"/>
     <path d="M 9.8125 72.90625 
L 19.671875 72.90625 
L 19.671875 8.296875 
L 55.171875 8.296875 
L 55.171875 0 
L 9.8125 0 
z
" id="DejaVuSans-76"/>
    </defs>
    <g style="fill:#1f77b4;" transform="translate(505.576785 283.528125)scale(0.1 -0.1)">
     <use xlink:href="#DejaVuSans-65"/>
     <use x="68.408203" xlink:href="#DejaVuSans-76"/>
    </g>
   </g>
   <g id="text_8">
    <g id="patch_6">
     <path d="M 734.043592 247.64058 
C 735.543592 249.14058 749.234217 249.14058 750.734217 247.64058 
C 752.234217 246.14058 752.234217 236.462455 750.734217 234.962455 
C 749.234217 233.462455 735.543592 233.462455 734.043592 234.962455 
C 732.543592 236.462455 732.543592 246.14058 734.043592 247.64058 
z
" style="fill:#ffffff;stroke:#ff7f0e;stroke-linejoin:miter;"/>
    </g>
    <!-- AZ -->
    <defs>
     <path d="M 5.609375 72.90625 
L 62.890625 72.90625 
L 62.890625 65.375 
L 16.796875 8.296875 
L 64.015625 8.296875 
L 64.015625 0 
L 4.5 0 
L 4.5 7.515625 
L 50.59375 64.59375 
L 5.609375 64.59375 
z
" id="DejaVuSans-90"/>
    </defs>
    <g style="fill:#ff7f0e;" transform="translate(735.543592 244.060893)scale(0.1 -0.1)">
     <use xlink:href="#DejaVuSans-65"/>
     <use x="68.408203" xlink:href="#DejaVuSans-90"/>
    </g>
   </g>
   <g id="text_9">
    <g id="patch_7">
     <path d="M 431.1107 349.718581 
C 432.6107 351.218581 447.293513 351.218581 448.793513 349.718581 
C 450.293513 348.218581 450.293513 338.540456 448.793513 337.040456 
C 447.293513 335.540456 432.6107 335.540456 431.1107 337.040456 
C 429.6107 338.540456 429.6107 348.218581 431.1107 349.718581 
z
" style="fill:#ffffff;stroke:#2ca02c;stroke-linejoin:miter;"/>
    </g>
    <!-- DC -->
    <defs>
     <path d="M 64.40625 67.28125 
L 64.40625 56.890625 
Q 59.421875 61.53125 53.78125 63.8125 
Q 48.140625 66.109375 41.796875 66.109375 
Q 29.296875 66.109375 22.65625 58.46875 
Q 16.015625 50.828125 16.015625 36.375 
Q 16.015625 21.96875 22.65625 14.328125 
Q 29.296875 6.6875 41.796875 6.6875 
Q 48.140625 6.6875 53.78125 8.984375 
Q 59.421875 11.28125 64.40625 15.921875 
L 64.40625 5.609375 
Q 59.234375 2.09375 53.4375 0.328125 
Q 47.65625 -1.421875 41.21875 -1.421875 
Q 24.65625 -1.421875 15.125 8.703125 
Q 5.609375 18.84375 5.609375 36.375 
Q 5.609375 53.953125 15.125 64.078125 
Q 24.65625 74.21875 41.21875 74.21875 
Q 47.75 74.21875 53.53125 72.484375 
Q 59.328125 70.75 64.40625 67.28125 
z
" id="DejaVuSans-67"/>
    </defs>
    <g style="fill:#2ca02c;" transform="translate(432.6107 346.138894)scale(0.1 -0.1)">
     <use xlink:href="#DejaVuSans-68"/>
     <use x="77.001953" xlink:href="#DejaVuSans-67"/>
    </g>
   </g>
   <g id="text_10">
    <g id="patch_8">
     <path d="M 280.645134 434.628774 
C 282.145134 436.128774 296.163884 436.128774 297.663884 434.628774 
C 299.163884 433.128774 299.163884 423.450649 297.663884 421.950649 
C 296.163884 420.450649 282.145134 420.450649 280.645134 421.950649 
C 279.145134 423.450649 279.145134 433.128774 280.645134 434.628774 
z
" style="fill:#ffffff;stroke:#d62728;stroke-linejoin:miter;"/>
    </g>
    <!-- DE -->
    <defs>
     <path d="M 9.8125 72.90625 
L 55.90625 72.90625 
L 55.90625 64.59375 
L 19.671875 64.59375 
L 19.671875 43.015625 
L 54.390625 43.015625 
L 54.390625 34.71875 
L 19.671875 34.71875 
L 19.671875 8.296875 
L 56.78125 8.296875 
L 56.78125 0 
L 9.8125 0 
z
" id="DejaVuSans-69"/>
    </defs>
    <g style="fill:#d62728;" transform="translate(282.145134 431.049087)scale(0.1 -0.1)">
     <use xlink:href="#DejaVuSans-68"/>
     <use x="77.001953" xlink:href="#DejaVuSans-69"/>
    </g>
   </g>
   <g id="text_11">
    <g id="patch_9">
     <path d="M 301.663605 428.254386 
C 303.163605 429.754386 312.95423 429.754386 314.45423 428.254386 
C 315.95423 426.754386 315.95423 417.076261 314.45423 415.576261 
C 312.95423 414.076261 303.163605 414.076261 301.663605 415.576261 
C 300.163605 417.076261 300.163605 426.754386 301.663605 428.254386 
z
" style="fill:#ffffff;stroke:#9467bd;stroke-linejoin:miter;"/>
    </g>
    <!-- IA -->
    <defs>
     <path d="M 9.8125 72.90625 
L 19.671875 72.90625 
L 19.671875 0 
L 9.8125 0 
z
" id="DejaVuSans-73"/>
    </defs>
    <g style="fill:#9467bd;" transform="translate(303.163605 424.674698)scale(0.1 -0.1)">
     <use xlink:href="#DejaVuSans-73"/>
     <use x="29.492188" xlink:href="#DejaVuSans-65"/>
    </g>
   </g>
   <g id="text_12">
    <g id="patch_10">
     <path d="M 412.761241 466.998434 
C 414.261241 468.498434 427.167491 468.498434 428.667491 466.998434 
C 430.167491 465.498434 430.167491 455.820309 428.667491 454.320309 
C 427.167491 452.820309 414.261241 452.820309 412.761241 454.320309 
C 411.261241 455.820309 411.261241 465.498434 412.761241 466.998434 
z
" style="fill:#ffffff;stroke:#8c564b;stroke-linejoin:miter;"/>
    </g>
    <!-- KS -->
    <defs>
     <path d="M 9.8125 72.90625 
L 19.671875 72.90625 
L 19.671875 42.09375 
L 52.390625 72.90625 
L 65.09375 72.90625 
L 28.90625 38.921875 
L 67.671875 0 
L 54.6875 0 
L 19.671875 35.109375 
L 19.671875 0 
L 9.8125 0 
z
" id="DejaVuSans-75"/>
     <path d="M 53.515625 70.515625 
L 53.515625 60.890625 
Q 47.90625 63.578125 42.921875 64.890625 
Q 37.9375 66.21875 33.296875 66.21875 
Q 25.25 66.21875 20.875 63.09375 
Q 16.5 59.96875 16.5 54.203125 
Q 16.5 49.359375 19.40625 46.890625 
Q 22.3125 44.4375 30.421875 42.921875 
L 36.375 41.703125 
Q 47.40625 39.59375 52.65625 34.296875 
Q 57.90625 29 57.90625 20.125 
Q 57.90625 9.515625 50.796875 4.046875 
Q 43.703125 -1.421875 29.984375 -1.421875 
Q 24.8125 -1.421875 18.96875 -0.25 
Q 13.140625 0.921875 6.890625 3.21875 
L 6.890625 13.375 
Q 12.890625 10.015625 18.65625 8.296875 
Q 24.421875 6.59375 29.984375 6.59375 
Q 38.421875 6.59375 43.015625 9.90625 
Q 47.609375 13.234375 47.609375 19.390625 
Q 47.609375 24.75 44.3125 27.78125 
Q 41.015625 30.8125 33.5 32.328125 
L 27.484375 33.5 
Q 16.453125 35.6875 11.515625 40.375 
Q 6.59375 45.0625 6.59375 53.421875 
Q 6.59375 63.09375 13.40625 68.65625 
Q 20.21875 74.21875 32.171875 74.21875 
Q 37.3125 74.21875 42.625 73.28125 
Q 47.953125 72.359375 53.515625 70.515625 
z
" id="DejaVuSans-83"/>
    </defs>
    <g style="fill:#8c564b;" transform="translate(414.261241 463.418746)scale(0.1 -0.1)">
     <use xlink:href="#DejaVuSans-75"/>
     <use x="65.576172" xlink:href="#DejaVuSans-83"/>
    </g>
   </g>
   <g id="text_13">
    <g id="patch_11">
     <path d="M 657.176039 315.243137 
C 658.676039 316.743137 670.979164 316.743137 672.479164 315.243137 
C 673.979164 313.743137 673.979164 304.065012 672.479164 302.565012 
C 670.979164 301.065012 658.676039 301.065012 657.176039 302.565012 
C 655.676039 304.065012 655.676039 313.743137 657.176039 315.243137 
z
" style="fill:#ffffff;stroke:#e377c2;stroke-linejoin:miter;"/>
    </g>
    <!-- KY -->
    <defs>
     <path d="M -0.203125 72.90625 
L 10.40625 72.90625 
L 30.609375 42.921875 
L 50.6875 72.90625 
L 61.28125 72.90625 
L 35.5 34.71875 
L 35.5 0 
L 25.59375 0 
L 25.59375 34.71875 
z
" id="DejaVuSans-89"/>
    </defs>
    <g style="fill:#e377c2;" transform="translate(658.676039 311.66345)scale(0.1 -0.1)">
     <use xlink:href="#DejaVuSans-75"/>
     <use x="61.951172" xlink:href="#DejaVuSans-89"/>
    </g>
   </g>
   <g id="text_14">
    <g id="patch_12">
     <path d="M 533.220044 234.602113 
C 534.720044 236.102113 550.829419 236.102113 552.329419 234.602113 
C 553.829419 233.102113 553.829419 223.423988 552.329419 221.923988 
C 550.829419 220.423988 534.720044 220.423988 533.220044 221.923988 
C 531.720044 223.423988 531.720044 233.102113 533.220044 234.602113 
z
" style="fill:#ffffff;stroke:#7f7f7f;stroke-linejoin:miter;"/>
    </g>
    <!-- MN -->
    <defs>
     <path d="M 9.8125 72.90625 
L 24.515625 72.90625 
L 43.109375 23.296875 
L 61.8125 72.90625 
L 76.515625 72.90625 
L 76.515625 0 
L 66.890625 0 
L 66.890625 64.015625 
L 48.09375 14.015625 
L 38.1875 14.015625 
L 19.390625 64.015625 
L 19.390625 0 
L 9.8125 0 
z
" id="DejaVuSans-77"/>
     <path d="M 9.8125 72.90625 
L 23.09375 72.90625 
L 55.421875 11.921875 
L 55.421875 72.90625 
L 64.984375 72.90625 
L 64.984375 0 
L 51.703125 0 
L 19.390625 60.984375 
L 19.390625 0 
L 9.8125 0 
z
" id="DejaVuSans-78"/>
    </defs>
    <g style="fill:#7f7f7f;" transform="translate(534.720044 231.022425)scale(0.1 -0.1)">
     <use xlink:href="#DejaVuSans-77"/>
     <use x="86.279297" xlink:href="#DejaVuSans-78"/>
    </g>
   </g>
   <g id="text_15">
    <g id="patch_13">
     <path d="M 732.888731 235.455909 
C 734.388731 236.955909 750.888731 236.955909 752.388731 235.455909 
C 753.888731 233.955909 753.888731 224.277784 752.388731 222.777784 
C 750.888731 221.277784 734.388731 221.277784 732.888731 222.777784 
C 731.388731 224.277784 731.388731 233.955909 732.888731 235.455909 
z
" style="fill:#ffffff;stroke:#bcbd22;stroke-linejoin:miter;"/>
    </g>
    <!-- MO -->
    <defs>
     <path d="M 39.40625 66.21875 
Q 28.65625 66.21875 22.328125 58.203125 
Q 16.015625 50.203125 16.015625 36.375 
Q 16.015625 22.609375 22.328125 14.59375 
Q 28.65625 6.59375 39.40625 6.59375 
Q 50.140625 6.59375 56.421875 14.59375 
Q 62.703125 22.609375 62.703125 36.375 
Q 62.703125 50.203125 56.421875 58.203125 
Q 50.140625 66.21875 39.40625 66.21875 
z
M 39.40625 74.21875 
Q 54.734375 74.21875 63.90625 63.9375 
Q 73.09375 53.65625 73.09375 36.375 
Q 73.09375 19.140625 63.90625 8.859375 
Q 54.734375 -1.421875 39.40625 -1.421875 
Q 24.03125 -1.421875 14.8125 8.828125 
Q 5.609375 19.09375 5.609375 36.375 
Q 5.609375 53.65625 14.8125 63.9375 
Q 24.03125 74.21875 39.40625 74.21875 
z
" id="DejaVuSans-79"/>
    </defs>
    <g style="fill:#bcbd22;" transform="translate(734.388731 231.876221)scale(0.1 -0.1)">
     <use xlink:href="#DejaVuSans-77"/>
     <use x="86.279297" xlink:href="#DejaVuSans-79"/>
    </g>
   </g>
   <g id="text_16">
    <g id="patch_14">
     <path d="M 638.883039 299.311409 
C 640.383039 300.811409 655.359602 300.811409 656.859602 299.311409 
C 658.359602 297.811409 658.359602 288.133284 656.859602 286.633284 
C 655.359602 285.133284 640.383039 285.133284 638.883039 286.633284 
C 637.383039 288.133284 637.383039 297.811409 638.883039 299.311409 
z
" style="fill:#ffffff;stroke:#17becf;stroke-linejoin:miter;"/>
    </g>
    <!-- MS -->
    <g style="fill:#17becf;" transform="translate(640.383039 295.731721)scale(0.1 -0.1)">
     <use xlink:href="#DejaVuSans-77"/>
     <use x="86.279297" xlink:href="#DejaVuSans-83"/>
    </g>
   </g>
   <g id="text_17">
    <g id="patch_15">
     <path d="M 622.945956 205.986471 
C 624.445956 207.486471 638.910019 207.486471 640.410019 205.986471 
C 641.910019 204.486471 641.910019 194.808346 640.410019 193.308346 
C 638.910019 191.808346 624.445956 191.808346 622.945956 193.308346 
C 621.445956 194.808346 621.445956 204.486471 622.945956 205.986471 
z
" style="fill:#ffffff;stroke:#1f77b4;stroke-linejoin:miter;"/>
    </g>
    <!-- NC -->
    <g style="fill:#1f77b4;" transform="translate(624.445956 202.406783)scale(0.1 -0.1)">
     <use xlink:href="#DejaVuSans-78"/>
     <use x="74.804688" xlink:href="#DejaVuSans-67"/>
    </g>
   </g>
   <g id="text_18">
    <g id="patch_16">
     <path d="M 207.981275 491.496057 
C 209.481275 492.996057 225.59065 492.996057 227.09065 491.496057 
C 228.59065 489.996057 228.59065 480.317932 227.09065 478.817932 
C 225.59065 477.317932 209.481275 477.317932 207.981275 478.817932 
C 206.481275 480.317932 206.481275 489.996057 207.981275 491.496057 
z
" style="fill:#ffffff;stroke:#ff7f0e;stroke-linejoin:miter;"/>
    </g>
    <!-- NM -->
    <g style="fill:#ff7f0e;" transform="translate(209.481275 487.91637)scale(0.1 -0.1)">
     <use xlink:href="#DejaVuSans-78"/>
     <use x="74.804688" xlink:href="#DejaVuSans-77"/>
    </g>
   </g>
   <g id="text_19">
    <g id="patch_17">
     <path d="M 722.033037 313.072718 
C 723.533037 314.572718 737.854912 314.572718 739.354912 313.072718 
C 740.854912 311.572718 740.854912 301.894593 739.354912 300.394593 
C 737.854912 298.894593 723.533037 298.894593 722.033037 300.394593 
C 720.533037 301.894593 720.533037 311.572718 722.033037 313.072718 
z
" style="fill:#ffffff;stroke:#2ca02c;stroke-linejoin:miter;"/>
    </g>
    <!-- NV -->
    <defs>
     <path d="M 28.609375 0 
L 0.78125 72.90625 
L 11.078125 72.90625 
L 34.1875 11.53125 
L 57.328125 72.90625 
L 67.578125 72.90625 
L 39.796875 0 
z
" id="DejaVuSans-86"/>
    </defs>
    <g style="fill:#2ca02c;" transform="translate(723.533037 309.493031)scale(0.1 -0.1)">
     <use xlink:href="#DejaVuSans-78"/>
     <use x="74.804688" xlink:href="#DejaVuSans-86"/>
    </g>
   </g>
   <g id="text_20">
    <g id="patch_18">
     <path d="M 640.294536 338.974119 
C 641.794536 340.474119 656.224224 340.474119 657.724224 338.974119 
C 659.224224 337.474119 659.224224 327.795994 657.724224 326.295994 
C 656.224224 324.795994 641.794536 324.795994 640.294536 326.295994 
C 638.794536 327.795994 638.794536 337.474119 640.294536 338.974119 
z
" style="fill:#ffffff;stroke:#d62728;stroke-linejoin:miter;"/>
    </g>
    <!-- OK -->
    <g style="fill:#d62728;" transform="translate(641.794536 335.394432)scale(0.1 -0.1)">
     <use xlink:href="#DejaVuSans-79"/>
     <use x="78.710938" xlink:href="#DejaVuSans-75"/>
    </g>
   </g>
   <g id="text_21">
    <g id="patch_19">
     <path d="M 122.105805 514.071308 
C 123.605805 515.571308 138.426118 515.571308 139.926118 514.071308 
C 141.426118 512.571308 141.426118 502.893183 139.926118 501.393183 
C 138.426118 499.893183 123.605805 499.893183 122.105805 501.393183 
C 120.605805 502.893183 120.605805 512.571308 122.105805 514.071308 
z
" style="fill:#ffffff;stroke:#9467bd;stroke-linejoin:miter;"/>
    </g>
    <!-- OR -->
    <defs>
     <path d="M 44.390625 34.1875 
Q 47.5625 33.109375 50.5625 29.59375 
Q 53.5625 26.078125 56.59375 19.921875 
L 66.609375 0 
L 56 0 
L 46.6875 18.703125 
Q 43.0625 26.03125 39.671875 28.421875 
Q 36.28125 30.8125 30.421875 30.8125 
L 19.671875 30.8125 
L 19.671875 0 
L 9.8125 0 
L 9.8125 72.90625 
L 32.078125 72.90625 
Q 44.578125 72.90625 50.734375 67.671875 
Q 56.890625 62.453125 56.890625 51.90625 
Q 56.890625 45.015625 53.6875 40.46875 
Q 50.484375 35.9375 44.390625 34.1875 
z
M 19.671875 64.796875 
L 19.671875 38.921875 
L 32.078125 38.921875 
Q 39.203125 38.921875 42.84375 42.21875 
Q 46.484375 45.515625 46.484375 51.90625 
Q 46.484375 58.296875 42.84375 61.546875 
Q 39.203125 64.796875 32.078125 64.796875 
z
" id="DejaVuSans-82"/>
    </defs>
    <g style="fill:#9467bd;" transform="translate(123.605805 510.49162)scale(0.1 -0.1)">
     <use xlink:href="#DejaVuSans-79"/>
     <use x="78.710938" xlink:href="#DejaVuSans-82"/>
    </g>
   </g>
   <g id="text_22">
    <g id="patch_20">
     <path d="M 554.052077 298.276754 
C 555.552077 299.776754 565.450515 299.776754 566.950515 298.276754 
C 568.450515 296.776754 568.450515 287.098629 566.950515 285.598629 
C 565.450515 284.098629 555.552077 284.098629 554.052077 285.598629 
C 552.552077 287.098629 552.552077 296.776754 554.052077 298.276754 
z
" style="fill:#ffffff;stroke:#8c564b;stroke-linejoin:miter;"/>
    </g>
    <!-- RI -->
    <g style="fill:#8c564b;" transform="translate(555.552077 294.697066)scale(0.1 -0.1)">
     <use xlink:href="#DejaVuSans-82"/>
     <use x="69.482422" xlink:href="#DejaVuSans-73"/>
    </g>
   </g>
   <g id="text_23">
    <g id="patch_21">
     <path d="M 601.026693 318.526639 
C 602.526693 320.026639 615.857943 320.026639 617.357943 318.526639 
C 618.857943 317.026639 618.857943 307.348514 617.357943 305.848514 
C 615.857943 304.348514 602.526693 304.348514 601.026693 305.848514 
C 599.526693 307.348514 599.526693 317.026639 601.026693 318.526639 
z
" style="fill:#ffffff;stroke:#e377c2;stroke-linejoin:miter;"/>
    </g>
    <!-- SC -->
    <g style="fill:#e377c2;" transform="translate(602.526693 314.946952)scale(0.1 -0.1)">
     <use xlink:href="#DejaVuSans-83"/>
     <use x="63.476562" xlink:href="#DejaVuSans-67"/>
    </g>
   </g>
   <g id="text_24">
    <g id="patch_22">
     <path d="M 721.032157 362.108899 
C 722.532157 363.608899 736.12122 363.608899 737.62122 362.108899 
C 739.12122 360.608899 739.12122 350.930774 737.62122 349.430774 
C 736.12122 347.930774 722.532157 347.930774 721.032157 349.430774 
C 719.532157 350.930774 719.532157 360.608899 721.032157 362.108899 
z
" style="fill:#ffffff;stroke:#7f7f7f;stroke-linejoin:miter;"/>
    </g>
    <!-- TN -->
    <defs>
     <path d="M -0.296875 72.90625 
L 61.375 72.90625 
L 61.375 64.59375 
L 35.5 64.59375 
L 35.5 0 
L 25.59375 0 
L 25.59375 64.59375 
L -0.296875 64.59375 
z
" id="DejaVuSans-84"/>
    </defs>
    <g style="fill:#7f7f7f;" transform="translate(722.532157 358.529212)scale(0.1 -0.1)">
     <use xlink:href="#DejaVuSans-84"/>
     <use x="61.083984" xlink:href="#DejaVuSans-78"/>
    </g>
   </g>
   <g id="text_25">
    <g id="patch_23">
     <path d="M 784.823513 93.819688 
C 786.323513 95.319688 799.367263 95.319688 800.867263 93.819688 
C 802.367263 92.319688 802.367263 82.641563 800.867263 81.141563 
C 799.367263 79.641563 786.323513 79.641563 784.823513 81.141563 
C 783.323513 82.641563 783.323513 92.319688 784.823513 93.819688 
z
" style="fill:#ffffff;stroke:#bcbd22;stroke-linejoin:miter;"/>
    </g>
    <!-- VA -->
    <g style="fill:#bcbd22;" transform="translate(786.323513 90.24)scale(0.1 -0.1)">
     <use xlink:href="#DejaVuSans-86"/>
     <use x="62.033203" xlink:href="#DejaVuSans-65"/>
    </g>
   </g>
   <g id="text_26">
    <g id="patch_24">
     <path d="M 806.357143 244.114205 
C 807.857143 245.614205 820.694643 245.614205 822.194643 244.114205 
C 823.694643 242.614205 823.694643 232.93608 822.194643 231.43608 
C 820.694643 229.93608 807.857143 229.93608 806.357143 231.43608 
C 804.857143 232.93608 804.857143 242.614205 806.357143 244.114205 
z
" style="fill:#ffffff;stroke:#17becf;stroke-linejoin:miter;"/>
    </g>
    <!-- WI -->
    <defs>
     <path d="M 3.328125 72.90625 
L 13.28125 72.90625 
L 28.609375 11.28125 
L 43.890625 72.90625 
L 54.984375 72.90625 
L 70.3125 11.28125 
L 85.59375 72.90625 
L 95.609375 72.90625 
L 77.296875 0 
L 64.890625 0 
L 49.515625 63.28125 
L 33.984375 0 
L 21.578125 0 
z
" id="DejaVuSans-87"/>
    </defs>
    <g style="fill:#17becf;" transform="translate(807.857143 240.534517)scale(0.1 -0.1)">
     <use xlink:href="#DejaVuSans-87"/>
     <use x="98.876953" xlink:href="#DejaVuSans-73"/>
    </g>
   </g>
   <g id="text_27">
    <!-- 1d -->
    <g style="fill:#b2b2b2;" transform="translate(171.269664 101.917637)scale(0.1 -0.1)">
     <use xlink:href="#DejaVuSans-49"/>
     <use x="63.623047" xlink:href="#DejaVuSans-100"/>
    </g>
   </g>
   <g id="text_28">
    <!-- 2d -->
    <g style="fill:#b2b2b2;" transform="translate(253.842231 91.455096)scale(0.1 -0.1)">
     <use xlink:href="#DejaVuSans-50"/>
     <use x="63.623047" xlink:href="#DejaVuSans-100"/>
    </g>
   </g>
   <g id="text_29">
    <!-- 3d -->
    <defs>
     <path d="M 40.578125 39.3125 
Q 47.65625 37.796875 51.625 33 
Q 55.609375 28.21875 55.609375 21.1875 
Q 55.609375 10.40625 48.1875 4.484375 
Q 40.765625 -1.421875 27.09375 -1.421875 
Q 22.515625 -1.421875 17.65625 -0.515625 
Q 12.796875 0.390625 7.625 2.203125 
L 7.625 11.71875 
Q 11.71875 9.328125 16.59375 8.109375 
Q 21.484375 6.890625 26.8125 6.890625 
Q 36.078125 6.890625 40.9375 10.546875 
Q 45.796875 14.203125 45.796875 21.1875 
Q 45.796875 27.640625 41.28125 31.265625 
Q 36.765625 34.90625 28.71875 34.90625 
L 20.21875 34.90625 
L 20.21875 43.015625 
L 29.109375 43.015625 
Q 36.375 43.015625 40.234375 45.921875 
Q 44.09375 48.828125 44.09375 54.296875 
Q 44.09375 59.90625 40.109375 62.90625 
Q 36.140625 65.921875 28.71875 65.921875 
Q 24.65625 65.921875 20.015625 65.03125 
Q 15.375 64.15625 9.8125 62.3125 
L 9.8125 71.09375 
Q 15.4375 72.65625 20.34375 73.4375 
Q 25.25 74.21875 29.59375 74.21875 
Q 40.828125 74.21875 47.359375 69.109375 
Q 53.90625 64.015625 53.90625 55.328125 
Q 53.90625 49.265625 50.4375 45.09375 
Q 46.96875 40.921875 40.578125 39.3125 
z
" id="DejaVuSans-51"/>
    </defs>
    <g style="fill:#b2b2b2;" transform="translate(336.414798 87.951436)scale(0.1 -0.1)">
     <use xlink:href="#DejaVuSans-51"/>
     <use x="63.623047" xlink:href="#DejaVuSans-100"/>
    </g>
   </g>
   <g id="text_30">
    <!-- 7d -->
    <g style="fill:#b2b2b2;" transform="translate(663.402163 86.948902)scale(0.1 -0.1)">
     <use xlink:href="#DejaVuSans-55"/>
     <use x="63.623047" xlink:href="#DejaVuSans-100"/>
    </g>
   </g>
   <g id="text_31">
    <!-- COVID-19 Deaths by States as of 2020-04-30 03:06 EDT -->
    <defs>
     <path d="M 4.890625 31.390625 
L 31.203125 31.390625 
L 31.203125 23.390625 
L 4.890625 23.390625 
z
" id="DejaVuSans-45"/>
     <path d="M 10.984375 1.515625 
L 10.984375 10.5 
Q 14.703125 8.734375 18.5 7.8125 
Q 22.3125 6.890625 25.984375 6.890625 
Q 35.75 6.890625 40.890625 13.453125 
Q 46.046875 20.015625 46.78125 33.40625 
Q 43.953125 29.203125 39.59375 26.953125 
Q 35.25 24.703125 29.984375 24.703125 
Q 19.046875 24.703125 12.671875 31.3125 
Q 6.296875 37.9375 6.296875 49.421875 
Q 6.296875 60.640625 12.9375 67.421875 
Q 19.578125 74.21875 30.609375 74.21875 
Q 43.265625 74.21875 49.921875 64.515625 
Q 56.59375 54.828125 56.59375 36.375 
Q 56.59375 19.140625 48.40625 8.859375 
Q 40.234375 -1.421875 26.421875 -1.421875 
Q 22.703125 -1.421875 18.890625 -0.6875 
Q 15.09375 0.046875 10.984375 1.515625 
z
M 30.609375 32.421875 
Q 37.25 32.421875 41.125 36.953125 
Q 45.015625 41.5 45.015625 49.421875 
Q 45.015625 57.28125 41.125 61.84375 
Q 37.25 66.40625 30.609375 66.40625 
Q 23.96875 66.40625 20.09375 61.84375 
Q 16.21875 57.28125 16.21875 49.421875 
Q 16.21875 41.5 20.09375 36.953125 
Q 23.96875 32.421875 30.609375 32.421875 
z
" id="DejaVuSans-57"/>
     <path d="M 48.6875 27.296875 
Q 48.6875 37.203125 44.609375 42.84375 
Q 40.53125 48.484375 33.40625 48.484375 
Q 26.265625 48.484375 22.1875 42.84375 
Q 18.109375 37.203125 18.109375 27.296875 
Q 18.109375 17.390625 22.1875 11.75 
Q 26.265625 6.109375 33.40625 6.109375 
Q 40.53125 6.109375 44.609375 11.75 
Q 48.6875 17.390625 48.6875 27.296875 
z
M 18.109375 46.390625 
Q 20.953125 51.265625 25.265625 53.625 
Q 29.59375 56 35.59375 56 
Q 45.5625 56 51.78125 48.09375 
Q 58.015625 40.1875 58.015625 27.296875 
Q 58.015625 14.40625 51.78125 6.484375 
Q 45.5625 -1.421875 35.59375 -1.421875 
Q 29.59375 -1.421875 25.265625 0.953125 
Q 20.953125 3.328125 18.109375 8.203125 
L 18.109375 0 
L 9.078125 0 
L 9.078125 75.984375 
L 18.109375 75.984375 
z
" id="DejaVuSans-98"/>
     <path d="M 30.609375 48.390625 
Q 23.390625 48.390625 19.1875 42.75 
Q 14.984375 37.109375 14.984375 27.296875 
Q 14.984375 17.484375 19.15625 11.84375 
Q 23.34375 6.203125 30.609375 6.203125 
Q 37.796875 6.203125 41.984375 11.859375 
Q 46.1875 17.53125 46.1875 27.296875 
Q 46.1875 37.015625 41.984375 42.703125 
Q 37.796875 48.390625 30.609375 48.390625 
z
M 30.609375 56 
Q 42.328125 56 49.015625 48.375 
Q 55.71875 40.765625 55.71875 27.296875 
Q 55.71875 13.875 49.015625 6.21875 
Q 42.328125 -1.421875 30.609375 -1.421875 
Q 18.84375 -1.421875 12.171875 6.21875 
Q 5.515625 13.875 5.515625 27.296875 
Q 5.515625 40.765625 12.171875 48.375 
Q 18.84375 56 30.609375 56 
z
" id="DejaVuSans-111"/>
     <path d="M 37.109375 75.984375 
L 37.109375 68.5 
L 28.515625 68.5 
Q 23.6875 68.5 21.796875 66.546875 
Q 19.921875 64.59375 19.921875 59.515625 
L 19.921875 54.6875 
L 34.71875 54.6875 
L 34.71875 47.703125 
L 19.921875 47.703125 
L 19.921875 0 
L 10.890625 0 
L 10.890625 47.703125 
L 2.296875 47.703125 
L 2.296875 54.6875 
L 10.890625 54.6875 
L 10.890625 58.5 
Q 10.890625 67.625 15.140625 71.796875 
Q 19.390625 75.984375 28.609375 75.984375 
z
" id="DejaVuSans-102"/>
     <path d="M 11.71875 12.40625 
L 22.015625 12.40625 
L 22.015625 0 
L 11.71875 0 
z
M 11.71875 51.703125 
L 22.015625 51.703125 
L 22.015625 39.3125 
L 11.71875 39.3125 
z
" id="DejaVuSans-58"/>
     <path d="M 33.015625 40.375 
Q 26.375 40.375 22.484375 35.828125 
Q 18.609375 31.296875 18.609375 23.390625 
Q 18.609375 15.53125 22.484375 10.953125 
Q 26.375 6.390625 33.015625 6.390625 
Q 39.65625 6.390625 43.53125 10.953125 
Q 47.40625 15.53125 47.40625 23.390625 
Q 47.40625 31.296875 43.53125 35.828125 
Q 39.65625 40.375 33.015625 40.375 
z
M 52.59375 71.296875 
L 52.59375 62.3125 
Q 48.875 64.0625 45.09375 64.984375 
Q 41.3125 65.921875 37.59375 65.921875 
Q 27.828125 65.921875 22.671875 59.328125 
Q 17.53125 52.734375 16.796875 39.40625 
Q 19.671875 43.65625 24.015625 45.921875 
Q 28.375 48.1875 33.59375 48.1875 
Q 44.578125 48.1875 50.953125 41.515625 
Q 57.328125 34.859375 57.328125 23.390625 
Q 57.328125 12.15625 50.6875 5.359375 
Q 44.046875 -1.421875 33.015625 -1.421875 
Q 20.359375 -1.421875 13.671875 8.265625 
Q 6.984375 17.96875 6.984375 36.375 
Q 6.984375 53.65625 15.1875 63.9375 
Q 23.390625 74.21875 37.203125 74.21875 
Q 40.921875 74.21875 44.703125 73.484375 
Q 48.484375 72.75 52.59375 71.296875 
z
" id="DejaVuSans-54"/>
    </defs>
    <g style="fill:#666666;" transform="translate(310.883438 63.12)scale(0.12 -0.12)">
     <use xlink:href="#DejaVuSans-67"/>
     <use x="69.824219" xlink:href="#DejaVuSans-79"/>
     <use x="146.785156" xlink:href="#DejaVuSans-86"/>
     <use x="215.193359" xlink:href="#DejaVuSans-73"/>
     <use x="244.685547" xlink:href="#DejaVuSans-68"/>
     <use x="321.6875" xlink:href="#DejaVuSans-45"/>
     <use x="357.771484" xlink:href="#DejaVuSans-49"/>
     <use x="421.394531" xlink:href="#DejaVuSans-57"/>
     <use x="485.017578" xlink:href="#DejaVuSans-32"/>
     <use x="516.804688" xlink:href="#DejaVuSans-68"/>
     <use x="593.806641" xlink:href="#DejaVuSans-101"/>
     <use x="655.330078" xlink:href="#DejaVuSans-97"/>
     <use x="716.609375" xlink:href="#DejaVuSans-116"/>
     <use x="755.818359" xlink:href="#DejaVuSans-104"/>
     <use x="819.197266" xlink:href="#DejaVuSans-115"/>
     <use x="871.296875" xlink:href="#DejaVuSans-32"/>
     <use x="903.083984" xlink:href="#DejaVuSans-98"/>
     <use x="966.560547" xlink:href="#DejaVuSans-121"/>
     <use x="1025.740234" xlink:href="#DejaVuSans-32"/>
     <use x="1057.527344" xlink:href="#DejaVuSans-83"/>
     <use x="1121.003906" xlink:href="#DejaVuSans-116"/>
     <use x="1160.212891" xlink:href="#DejaVuSans-97"/>
     <use x="1221.492188" xlink:href="#DejaVuSans-116"/>
     <use x="1260.701172" xlink:href="#DejaVuSans-101"/>
     <use x="1322.224609" xlink:href="#DejaVuSans-115"/>
     <use x="1374.324219" xlink:href="#DejaVuSans-32"/>
     <use x="1406.111328" xlink:href="#DejaVuSans-97"/>
     <use x="1467.390625" xlink:href="#DejaVuSans-115"/>
     <use x="1519.490234" xlink:href="#DejaVuSans-32"/>
     <use x="1551.277344" xlink:href="#DejaVuSans-111"/>
     <use x="1612.458984" xlink:href="#DejaVuSans-102"/>
     <use x="1647.664062" xlink:href="#DejaVuSans-32"/>
     <use x="1679.451172" xlink:href="#DejaVuSans-50"/>
     <use x="1743.074219" xlink:href="#DejaVuSans-48"/>
     <use x="1806.697266" xlink:href="#DejaVuSans-50"/>
     <use x="1870.320312" xlink:href="#DejaVuSans-48"/>
     <use x="1933.943359" xlink:href="#DejaVuSans-45"/>
     <use x="1970.027344" xlink:href="#DejaVuSans-48"/>
     <use x="2033.650391" xlink:href="#DejaVuSans-52"/>
     <use x="2097.273438" xlink:href="#DejaVuSans-45"/>
     <use x="2133.357422" xlink:href="#DejaVuSans-51"/>
     <use x="2196.980469" xlink:href="#DejaVuSans-48"/>
     <use x="2260.603516" xlink:href="#DejaVuSans-32"/>
     <use x="2292.390625" xlink:href="#DejaVuSans-48"/>
     <use x="2356.013672" xlink:href="#DejaVuSans-51"/>
     <use x="2419.636719" xlink:href="#DejaVuSans-58"/>
     <use x="2453.328125" xlink:href="#DejaVuSans-48"/>
     <use x="2516.951172" xlink:href="#DejaVuSans-54"/>
     <use x="2580.574219" xlink:href="#DejaVuSans-32"/>
     <use x="2612.361328" xlink:href="#DejaVuSans-69"/>
     <use x="2675.544922" xlink:href="#DejaVuSans-68"/>
     <use x="2752.546875" xlink:href="#DejaVuSans-84"/>
    </g>
   </g>
  </g>
 </g>
 <defs>
  <clipPath id="p7e07b5c4d0">
   <rect height="443.52" width="725.4" x="117" y="69.12"/>
  </clipPath>
 </defs>
</svg>
