<?xml version="1.0" encoding="utf-8" standalone="no"?>
<!DOCTYPE svg PUBLIC "-//W3C//DTD SVG 1.1//EN"
  "http://www.w3.org/Graphics/SVG/1.1/DTD/svg11.dtd">
<!-- Created with matplotlib (https://matplotlib.org/) -->
<svg height="576pt" version="1.1" viewBox="0 0 936 576" width="936pt" xmlns="http://www.w3.org/2000/svg" xmlns:xlink="http://www.w3.org/1999/xlink">
 <defs>
  <style type="text/css">
*{stroke-linecap:butt;stroke-linejoin:round;}
  </style>
 </defs>
 <g id="figure_1">
  <g id="patch_1">
   <path d="M 0 576 
L 936 576 
L 936 0 
L 0 0 
z
" style="fill:#ffffff;"/>
  </g>
  <g id="axes_1">
   <g id="patch_2">
    <path d="M 117 512.64 
L 842.4 512.64 
L 842.4 69.12 
L 117 69.12 
z
" style="fill:#ffffff;"/>
   </g>
   <g id="line2d_1">
    <path clip-path="url(#p761a79b90c)" d="M 117 512.64 
L 123.342295 487.034219 
L 129.68459 460.708562 
L 136.026885 433.642789 
L 142.36918 405.816095 
L 148.711475 377.207085 
L 155.05377 347.793767 
L 161.396066 317.553527 
L 167.738361 286.463119 
L 174.080656 254.498641 
L 180.422951 221.635519 
L 186.765246 187.848488 
L 193.107541 153.111575 
L 199.449836 117.398074 
L 205.792131 80.68053 
L 212.134426 42.930716 
L 219.296142 -1 
L 219.296142 -1 
" style="fill:none;stroke:#b2b2b2;stroke-dasharray:1.5,2.475;stroke-dashoffset:0;stroke-width:1.5;"/>
   </g>
   <g id="line2d_2">
    <path clip-path="url(#p761a79b90c)" d="M 117 512.64 
L 126.513443 493.502374 
L 136.026885 473.962627 
L 145.540328 454.012307 
L 155.05377 433.642789 
L 164.567213 412.845265 
L 174.080656 391.61074 
L 183.594098 369.930032 
L 193.107541 347.793767 
L 202.620984 325.192371 
L 212.134426 302.116073 
L 221.647869 278.554892 
L 231.161311 254.498641 
L 240.674754 229.936917 
L 250.188197 204.859098 
L 259.701639 179.254342 
L 269.215082 153.111575 
L 278.728525 126.419493 
L 288.241967 99.166554 
L 297.75541 71.340972 
L 307.268852 42.930716 
L 316.782295 13.9235 
L 321.597983 -1 
L 321.597983 -1 
" style="fill:none;stroke:#b2b2b2;stroke-dasharray:1.5,2.475;stroke-dashoffset:0;stroke-width:1.5;"/>
   </g>
   <g id="line2d_3">
    <path clip-path="url(#p761a79b90c)" d="M 117 512.64 
L 129.68459 495.648482 
L 142.36918 478.339974 
L 155.05377 460.708562 
L 167.738361 442.748221 
L 180.422951 424.452816 
L 193.107541 405.816095 
L 205.792131 386.831691 
L 218.476721 367.493117 
L 231.161311 347.793767 
L 243.845902 327.726909 
L 256.530492 307.285688 
L 269.215082 286.463119 
L 281.899672 265.252089 
L 294.584262 243.645349 
L 307.268852 221.635519 
L 319.953443 199.215077 
L 332.638033 176.376363 
L 345.322623 153.111575 
L 358.007213 129.412763 
L 370.691803 105.271831 
L 383.376393 80.68053 
L 396.060984 55.630459 
L 408.745574 30.113058 
L 421.430164 4.11961 
L 423.899829 -1 
L 423.899829 -1 
" style="fill:none;stroke:#b2b2b2;stroke-dasharray:1.5,2.475;stroke-dashoffset:0;stroke-width:1.5;"/>
   </g>
   <g id="line2d_4">
    <path clip-path="url(#p761a79b90c)" d="M 117 512.64 
L 142.36918 498.095113 
L 167.738361 483.317951 
L 193.107541 468.304805 
L 218.476721 453.051905 
L 243.845902 437.555424 
L 269.215082 421.811471 
L 294.584262 405.816095 
L 319.953443 389.56528 
L 345.322623 373.054946 
L 370.691803 356.280951 
L 396.060984 339.239083 
L 421.430164 321.925064 
L 446.799344 304.334548 
L 472.168525 286.463119 
L 497.537705 268.306293 
L 522.906885 249.85951 
L 548.276066 231.11814 
L 573.645246 212.07748 
L 599.014426 192.732749 
L 624.383607 173.079092 
L 649.752787 153.111575 
L 675.121967 132.825186 
L 700.491148 112.214833 
L 722.68918 93.910957 
L 744.887213 75.351568 
L 767.085246 56.5331 
L 789.283279 37.451936 
L 811.481311 18.104409 
L 833.102076 -1 
L 833.102076 -1 
" style="fill:none;stroke:#b2b2b2;stroke-dasharray:1.5,2.475;stroke-dashoffset:0;stroke-width:1.5;"/>
   </g>
   <g id="matplotlib.axis_1">
    <g id="xtick_1">
     <g id="line2d_5">
      <path clip-path="url(#p761a79b90c)" d="M 117 512.64 
L 117 69.12 
" style="fill:none;stroke:#e6e6e6;stroke-linecap:square;stroke-width:0.8;"/>
     </g>
     <g id="line2d_6">
      <defs>
       <path d="M 0 0 
L 0 3.5 
" id="m36cd2141c5" style="stroke:#666666;stroke-width:0.8;"/>
      </defs>
      <g>
       <use style="fill:#666666;stroke:#666666;stroke-width:0.8;" x="117" xlink:href="#m36cd2141c5" y="512.64"/>
      </g>
     </g>
     <g id="text_1">
      <!-- 0 -->
      <defs>
       <path d="M 31.78125 66.40625 
Q 24.171875 66.40625 20.328125 58.90625 
Q 16.5 51.421875 16.5 36.375 
Q 16.5 21.390625 20.328125 13.890625 
Q 24.171875 6.390625 31.78125 6.390625 
Q 39.453125 6.390625 43.28125 13.890625 
Q 47.125 21.390625 47.125 36.375 
Q 47.125 51.421875 43.28125 58.90625 
Q 39.453125 66.40625 31.78125 66.40625 
z
M 31.78125 74.21875 
Q 44.046875 74.21875 50.515625 64.515625 
Q 56.984375 54.828125 56.984375 36.375 
Q 56.984375 17.96875 50.515625 8.265625 
Q 44.046875 -1.421875 31.78125 -1.421875 
Q 19.53125 -1.421875 13.0625 8.265625 
Q 6.59375 17.96875 6.59375 36.375 
Q 6.59375 54.828125 13.0625 64.515625 
Q 19.53125 74.21875 31.78125 74.21875 
z
" id="DejaVuSans-48"/>
      </defs>
      <g style="fill:#666666;" transform="translate(113.81875 527.238438)scale(0.1 -0.1)">
       <use xlink:href="#DejaVuSans-48"/>
      </g>
     </g>
    </g>
    <g id="xtick_2">
     <g id="line2d_7">
      <path clip-path="url(#p761a79b90c)" d="M 338.980328 512.64 
L 338.980328 69.12 
" style="fill:none;stroke:#e6e6e6;stroke-linecap:square;stroke-width:0.8;"/>
     </g>
     <g id="line2d_8">
      <g>
       <use style="fill:#666666;stroke:#666666;stroke-width:0.8;" x="338.980328" xlink:href="#m36cd2141c5" y="512.64"/>
      </g>
     </g>
     <g id="text_2">
      <!-- 7 -->
      <defs>
       <path d="M 8.203125 72.90625 
L 55.078125 72.90625 
L 55.078125 68.703125 
L 28.609375 0 
L 18.3125 0 
L 43.21875 64.59375 
L 8.203125 64.59375 
z
" id="DejaVuSans-55"/>
      </defs>
      <g style="fill:#666666;" transform="translate(335.799078 527.238438)scale(0.1 -0.1)">
       <use xlink:href="#DejaVuSans-55"/>
      </g>
     </g>
    </g>
    <g id="xtick_3">
     <g id="line2d_9">
      <path clip-path="url(#p761a79b90c)" d="M 560.960656 512.64 
L 560.960656 69.12 
" style="fill:none;stroke:#e6e6e6;stroke-linecap:square;stroke-width:0.8;"/>
     </g>
     <g id="line2d_10">
      <g>
       <use style="fill:#666666;stroke:#666666;stroke-width:0.8;" x="560.960656" xlink:href="#m36cd2141c5" y="512.64"/>
      </g>
     </g>
     <g id="text_3">
      <!-- 14 -->
      <defs>
       <path d="M 12.40625 8.296875 
L 28.515625 8.296875 
L 28.515625 63.921875 
L 10.984375 60.40625 
L 10.984375 69.390625 
L 28.421875 72.90625 
L 38.28125 72.90625 
L 38.28125 8.296875 
L 54.390625 8.296875 
L 54.390625 0 
L 12.40625 0 
z
" id="DejaVuSans-49"/>
       <path d="M 37.796875 64.3125 
L 12.890625 25.390625 
L 37.796875 25.390625 
z
M 35.203125 72.90625 
L 47.609375 72.90625 
L 47.609375 25.390625 
L 58.015625 25.390625 
L 58.015625 17.1875 
L 47.609375 17.1875 
L 47.609375 0 
L 37.796875 0 
L 37.796875 17.1875 
L 4.890625 17.1875 
L 4.890625 26.703125 
z
" id="DejaVuSans-52"/>
      </defs>
      <g style="fill:#666666;" transform="translate(554.598156 527.238438)scale(0.1 -0.1)">
       <use xlink:href="#DejaVuSans-49"/>
       <use x="63.623047" xlink:href="#DejaVuSans-52"/>
      </g>
     </g>
    </g>
    <g id="xtick_4">
     <g id="line2d_11">
      <path clip-path="url(#p761a79b90c)" d="M 782.940984 512.64 
L 782.940984 69.12 
" style="fill:none;stroke:#e6e6e6;stroke-linecap:square;stroke-width:0.8;"/>
     </g>
     <g id="line2d_12">
      <g>
       <use style="fill:#666666;stroke:#666666;stroke-width:0.8;" x="782.940984" xlink:href="#m36cd2141c5" y="512.64"/>
      </g>
     </g>
     <g id="text_4">
      <!-- 21 -->
      <defs>
       <path d="M 19.1875 8.296875 
L 53.609375 8.296875 
L 53.609375 0 
L 7.328125 0 
L 7.328125 8.296875 
Q 12.9375 14.109375 22.625 23.890625 
Q 32.328125 33.6875 34.8125 36.53125 
Q 39.546875 41.84375 41.421875 45.53125 
Q 43.3125 49.21875 43.3125 52.78125 
Q 43.3125 58.59375 39.234375 62.25 
Q 35.15625 65.921875 28.609375 65.921875 
Q 23.96875 65.921875 18.8125 64.3125 
Q 13.671875 62.703125 7.8125 59.421875 
L 7.8125 69.390625 
Q 13.765625 71.78125 18.9375 73 
Q 24.125 74.21875 28.421875 74.21875 
Q 39.75 74.21875 46.484375 68.546875 
Q 53.21875 62.890625 53.21875 53.421875 
Q 53.21875 48.921875 51.53125 44.890625 
Q 49.859375 40.875 45.40625 35.40625 
Q 44.1875 33.984375 37.640625 27.21875 
Q 31.109375 20.453125 19.1875 8.296875 
z
" id="DejaVuSans-50"/>
      </defs>
      <g style="fill:#666666;" transform="translate(776.578484 527.238438)scale(0.1 -0.1)">
       <use xlink:href="#DejaVuSans-50"/>
       <use x="63.623047" xlink:href="#DejaVuSans-49"/>
      </g>
     </g>
    </g>
    <g id="text_5">
     <!-- Days since 100 deaths -->
     <defs>
      <path d="M 19.671875 64.796875 
L 19.671875 8.109375 
L 31.59375 8.109375 
Q 46.6875 8.109375 53.6875 14.9375 
Q 60.6875 21.78125 60.6875 36.53125 
Q 60.6875 51.171875 53.6875 57.984375 
Q 46.6875 64.796875 31.59375 64.796875 
z
M 9.8125 72.90625 
L 30.078125 72.90625 
Q 51.265625 72.90625 61.171875 64.09375 
Q 71.09375 55.28125 71.09375 36.53125 
Q 71.09375 17.671875 61.125 8.828125 
Q 51.171875 0 30.078125 0 
L 9.8125 0 
z
" id="DejaVuSans-68"/>
      <path d="M 34.28125 27.484375 
Q 23.390625 27.484375 19.1875 25 
Q 14.984375 22.515625 14.984375 16.5 
Q 14.984375 11.71875 18.140625 8.90625 
Q 21.296875 6.109375 26.703125 6.109375 
Q 34.1875 6.109375 38.703125 11.40625 
Q 43.21875 16.703125 43.21875 25.484375 
L 43.21875 27.484375 
z
M 52.203125 31.203125 
L 52.203125 0 
L 43.21875 0 
L 43.21875 8.296875 
Q 40.140625 3.328125 35.546875 0.953125 
Q 30.953125 -1.421875 24.3125 -1.421875 
Q 15.921875 -1.421875 10.953125 3.296875 
Q 6 8.015625 6 15.921875 
Q 6 25.140625 12.171875 29.828125 
Q 18.359375 34.515625 30.609375 34.515625 
L 43.21875 34.515625 
L 43.21875 35.40625 
Q 43.21875 41.609375 39.140625 45 
Q 35.0625 48.390625 27.6875 48.390625 
Q 23 48.390625 18.546875 47.265625 
Q 14.109375 46.140625 10.015625 43.890625 
L 10.015625 52.203125 
Q 14.9375 54.109375 19.578125 55.046875 
Q 24.21875 56 28.609375 56 
Q 40.484375 56 46.34375 49.84375 
Q 52.203125 43.703125 52.203125 31.203125 
z
" id="DejaVuSans-97"/>
      <path d="M 32.171875 -5.078125 
Q 28.375 -14.84375 24.75 -17.8125 
Q 21.140625 -20.796875 15.09375 -20.796875 
L 7.90625 -20.796875 
L 7.90625 -13.28125 
L 13.1875 -13.28125 
Q 16.890625 -13.28125 18.9375 -11.515625 
Q 21 -9.765625 23.484375 -3.21875 
L 25.09375 0.875 
L 2.984375 54.6875 
L 12.5 54.6875 
L 29.59375 11.921875 
L 46.6875 54.6875 
L 56.203125 54.6875 
z
" id="DejaVuSans-121"/>
      <path d="M 44.28125 53.078125 
L 44.28125 44.578125 
Q 40.484375 46.53125 36.375 47.5 
Q 32.28125 48.484375 27.875 48.484375 
Q 21.1875 48.484375 17.84375 46.4375 
Q 14.5 44.390625 14.5 40.28125 
Q 14.5 37.15625 16.890625 35.375 
Q 19.28125 33.59375 26.515625 31.984375 
L 29.59375 31.296875 
Q 39.15625 29.25 43.1875 25.515625 
Q 47.21875 21.78125 47.21875 15.09375 
Q 47.21875 7.46875 41.1875 3.015625 
Q 35.15625 -1.421875 24.609375 -1.421875 
Q 20.21875 -1.421875 15.453125 -0.5625 
Q 10.6875 0.296875 5.421875 2 
L 5.421875 11.28125 
Q 10.40625 8.6875 15.234375 7.390625 
Q 20.0625 6.109375 24.8125 6.109375 
Q 31.15625 6.109375 34.5625 8.28125 
Q 37.984375 10.453125 37.984375 14.40625 
Q 37.984375 18.0625 35.515625 20.015625 
Q 33.0625 21.96875 24.703125 23.78125 
L 21.578125 24.515625 
Q 13.234375 26.265625 9.515625 29.90625 
Q 5.8125 33.546875 5.8125 39.890625 
Q 5.8125 47.609375 11.28125 51.796875 
Q 16.75 56 26.8125 56 
Q 31.78125 56 36.171875 55.265625 
Q 40.578125 54.546875 44.28125 53.078125 
z
" id="DejaVuSans-115"/>
      <path id="DejaVuSans-32"/>
      <path d="M 9.421875 54.6875 
L 18.40625 54.6875 
L 18.40625 0 
L 9.421875 0 
z
M 9.421875 75.984375 
L 18.40625 75.984375 
L 18.40625 64.59375 
L 9.421875 64.59375 
z
" id="DejaVuSans-105"/>
      <path d="M 54.890625 33.015625 
L 54.890625 0 
L 45.90625 0 
L 45.90625 32.71875 
Q 45.90625 40.484375 42.875 44.328125 
Q 39.84375 48.1875 33.796875 48.1875 
Q 26.515625 48.1875 22.3125 43.546875 
Q 18.109375 38.921875 18.109375 30.90625 
L 18.109375 0 
L 9.078125 0 
L 9.078125 54.6875 
L 18.109375 54.6875 
L 18.109375 46.1875 
Q 21.34375 51.125 25.703125 53.5625 
Q 30.078125 56 35.796875 56 
Q 45.21875 56 50.046875 50.171875 
Q 54.890625 44.34375 54.890625 33.015625 
z
" id="DejaVuSans-110"/>
      <path d="M 48.78125 52.59375 
L 48.78125 44.1875 
Q 44.96875 46.296875 41.140625 47.34375 
Q 37.3125 48.390625 33.40625 48.390625 
Q 24.65625 48.390625 19.8125 42.84375 
Q 14.984375 37.3125 14.984375 27.296875 
Q 14.984375 17.28125 19.8125 11.734375 
Q 24.65625 6.203125 33.40625 6.203125 
Q 37.3125 6.203125 41.140625 7.25 
Q 44.96875 8.296875 48.78125 10.40625 
L 48.78125 2.09375 
Q 45.015625 0.34375 40.984375 -0.53125 
Q 36.96875 -1.421875 32.421875 -1.421875 
Q 20.0625 -1.421875 12.78125 6.34375 
Q 5.515625 14.109375 5.515625 27.296875 
Q 5.515625 40.671875 12.859375 48.328125 
Q 20.21875 56 33.015625 56 
Q 37.15625 56 41.109375 55.140625 
Q 45.0625 54.296875 48.78125 52.59375 
z
" id="DejaVuSans-99"/>
      <path d="M 56.203125 29.59375 
L 56.203125 25.203125 
L 14.890625 25.203125 
Q 15.484375 15.921875 20.484375 11.0625 
Q 25.484375 6.203125 34.421875 6.203125 
Q 39.59375 6.203125 44.453125 7.46875 
Q 49.3125 8.734375 54.109375 11.28125 
L 54.109375 2.78125 
Q 49.265625 0.734375 44.1875 -0.34375 
Q 39.109375 -1.421875 33.890625 -1.421875 
Q 20.796875 -1.421875 13.15625 6.1875 
Q 5.515625 13.8125 5.515625 26.8125 
Q 5.515625 40.234375 12.765625 48.109375 
Q 20.015625 56 32.328125 56 
Q 43.359375 56 49.78125 48.890625 
Q 56.203125 41.796875 56.203125 29.59375 
z
M 47.21875 32.234375 
Q 47.125 39.59375 43.09375 43.984375 
Q 39.0625 48.390625 32.421875 48.390625 
Q 24.90625 48.390625 20.390625 44.140625 
Q 15.875 39.890625 15.1875 32.171875 
z
" id="DejaVuSans-101"/>
      <path d="M 45.40625 46.390625 
L 45.40625 75.984375 
L 54.390625 75.984375 
L 54.390625 0 
L 45.40625 0 
L 45.40625 8.203125 
Q 42.578125 3.328125 38.25 0.953125 
Q 33.9375 -1.421875 27.875 -1.421875 
Q 17.96875 -1.421875 11.734375 6.484375 
Q 5.515625 14.40625 5.515625 27.296875 
Q 5.515625 40.1875 11.734375 48.09375 
Q 17.96875 56 27.875 56 
Q 33.9375 56 38.25 53.625 
Q 42.578125 51.265625 45.40625 46.390625 
z
M 14.796875 27.296875 
Q 14.796875 17.390625 18.875 11.75 
Q 22.953125 6.109375 30.078125 6.109375 
Q 37.203125 6.109375 41.296875 11.75 
Q 45.40625 17.390625 45.40625 27.296875 
Q 45.40625 37.203125 41.296875 42.84375 
Q 37.203125 48.484375 30.078125 48.484375 
Q 22.953125 48.484375 18.875 42.84375 
Q 14.796875 37.203125 14.796875 27.296875 
z
" id="DejaVuSans-100"/>
      <path d="M 18.3125 70.21875 
L 18.3125 54.6875 
L 36.8125 54.6875 
L 36.8125 47.703125 
L 18.3125 47.703125 
L 18.3125 18.015625 
Q 18.3125 11.328125 20.140625 9.421875 
Q 21.96875 7.515625 27.59375 7.515625 
L 36.8125 7.515625 
L 36.8125 0 
L 27.59375 0 
Q 17.1875 0 13.234375 3.875 
Q 9.28125 7.765625 9.28125 18.015625 
L 9.28125 47.703125 
L 2.6875 47.703125 
L 2.6875 54.6875 
L 9.28125 54.6875 
L 9.28125 70.21875 
z
" id="DejaVuSans-116"/>
      <path d="M 54.890625 33.015625 
L 54.890625 0 
L 45.90625 0 
L 45.90625 32.71875 
Q 45.90625 40.484375 42.875 44.328125 
Q 39.84375 48.1875 33.796875 48.1875 
Q 26.515625 48.1875 22.3125 43.546875 
Q 18.109375 38.921875 18.109375 30.90625 
L 18.109375 0 
L 9.078125 0 
L 9.078125 75.984375 
L 18.109375 75.984375 
L 18.109375 46.1875 
Q 21.34375 51.125 25.703125 53.5625 
Q 30.078125 56 35.796875 56 
Q 45.21875 56 50.046875 50.171875 
Q 54.890625 44.34375 54.890625 33.015625 
z
" id="DejaVuSans-104"/>
     </defs>
     <g style="fill:#666666;" transform="translate(422.874219 540.916563)scale(0.1 -0.1)">
      <use xlink:href="#DejaVuSans-68"/>
      <use x="77.001953" xlink:href="#DejaVuSans-97"/>
      <use x="138.28125" xlink:href="#DejaVuSans-121"/>
      <use x="197.460938" xlink:href="#DejaVuSans-115"/>
      <use x="249.560547" xlink:href="#DejaVuSans-32"/>
      <use x="281.347656" xlink:href="#DejaVuSans-115"/>
      <use x="333.447266" xlink:href="#DejaVuSans-105"/>
      <use x="361.230469" xlink:href="#DejaVuSans-110"/>
      <use x="424.609375" xlink:href="#DejaVuSans-99"/>
      <use x="479.589844" xlink:href="#DejaVuSans-101"/>
      <use x="541.113281" xlink:href="#DejaVuSans-32"/>
      <use x="572.900391" xlink:href="#DejaVuSans-49"/>
      <use x="636.523438" xlink:href="#DejaVuSans-48"/>
      <use x="700.146484" xlink:href="#DejaVuSans-48"/>
      <use x="763.769531" xlink:href="#DejaVuSans-32"/>
      <use x="795.556641" xlink:href="#DejaVuSans-100"/>
      <use x="859.033203" xlink:href="#DejaVuSans-101"/>
      <use x="920.556641" xlink:href="#DejaVuSans-97"/>
      <use x="981.835938" xlink:href="#DejaVuSans-116"/>
      <use x="1021.044922" xlink:href="#DejaVuSans-104"/>
      <use x="1084.423828" xlink:href="#DejaVuSans-115"/>
     </g>
    </g>
   </g>
   <g id="matplotlib.axis_2">
    <g id="ytick_1">
     <g id="line2d_13">
      <path clip-path="url(#p761a79b90c)" d="M 117 512.64 
L 842.4 512.64 
" style="fill:none;stroke:#e6e6e6;stroke-linecap:square;stroke-width:0.8;"/>
     </g>
     <g id="line2d_14">
      <defs>
       <path d="M 0 0 
L -3.5 0 
" id="m160faaf15b" style="stroke:#666666;stroke-width:0.8;"/>
      </defs>
      <g>
       <use style="fill:#666666;stroke:#666666;stroke-width:0.8;" x="117" xlink:href="#m160faaf15b" y="512.64"/>
      </g>
     </g>
     <g id="text_6">
      <!-- 100 -->
      <g style="fill:#666666;" transform="translate(90.9125 516.439219)scale(0.1 -0.1)">
       <use xlink:href="#DejaVuSans-49"/>
       <use x="63.623047" xlink:href="#DejaVuSans-48"/>
       <use x="127.246094" xlink:href="#DejaVuSans-48"/>
      </g>
     </g>
    </g>
   </g>
   <g id="line2d_15">
    <path clip-path="url(#p761a79b90c)" d="M 117 512.64 
L 141.249952 490.102768 
L 236.384378 443.735345 
L 268.095853 401.309184 
L 299.807329 380.364756 
L 331.518804 367.956134 
L 363.23028 363.946622 
" style="fill:none;stroke:#1f77b4;stroke-linecap:square;stroke-width:1.5;"/>
    <defs>
     <path d="M 0 1.5 
C 0.397805 1.5 0.77937 1.341951 1.06066 1.06066 
C 1.341951 0.77937 1.5 0.397805 1.5 0 
C 1.5 -0.397805 1.341951 -0.77937 1.06066 -1.06066 
C 0.77937 -1.341951 0.397805 -1.5 0 -1.5 
C -0.397805 -1.5 -0.77937 -1.341951 -1.06066 -1.06066 
C -1.341951 -0.77937 -1.5 -0.397805 -1.5 0 
C -1.5 0.397805 -1.341951 0.77937 -1.06066 1.06066 
C -0.77937 1.341951 -0.397805 1.5 0 1.5 
z
" id="m2574b502da" style="stroke:#1f77b4;"/>
    </defs>
    <g clip-path="url(#p761a79b90c)">
     <use style="fill:#ffffff;stroke:#1f77b4;" x="117" xlink:href="#m2574b502da" y="512.64"/>
     <use style="fill:#ffffff;stroke:#1f77b4;" x="141.249952" xlink:href="#m2574b502da" y="490.102768"/>
     <use style="fill:#ffffff;stroke:#1f77b4;" x="236.384378" xlink:href="#m2574b502da" y="443.735345"/>
     <use style="fill:#ffffff;stroke:#1f77b4;" x="268.095853" xlink:href="#m2574b502da" y="401.309184"/>
     <use style="fill:#ffffff;stroke:#1f77b4;" x="299.807329" xlink:href="#m2574b502da" y="380.364756"/>
     <use style="fill:#ffffff;stroke:#1f77b4;" x="331.518804" xlink:href="#m2574b502da" y="367.956134"/>
     <use style="fill:#ffffff;stroke:#1f77b4;" x="363.23028" xlink:href="#m2574b502da" y="363.946622"/>
    </g>
   </g>
   <g id="line2d_16">
    <path clip-path="url(#p761a79b90c)" d="M 117 512.64 
L 140.062891 498.512489 
L 171.774367 486.8221 
L 203.485842 475.687814 
L 235.197317 462.099984 
L 266.908793 446.471964 
L 298.620268 435.70399 
L 330.331744 411.860852 
L 362.043219 402.460223 
L 393.754694 394.509557 
L 425.46617 391.176052 
L 457.177645 368.968095 
L 488.889121 348.487285 
L 520.600596 330.334539 
L 552.312072 315.800416 
L 584.023547 310.031202 
" style="fill:none;stroke:#ff7f0e;stroke-linecap:square;stroke-width:1.5;"/>
    <defs>
     <path d="M 0 1.5 
C 0.397805 1.5 0.77937 1.341951 1.06066 1.06066 
C 1.341951 0.77937 1.5 0.397805 1.5 0 
C 1.5 -0.397805 1.341951 -0.77937 1.06066 -1.06066 
C 0.77937 -1.341951 0.397805 -1.5 0 -1.5 
C -0.397805 -1.5 -0.77937 -1.341951 -1.06066 -1.06066 
C -1.341951 -0.77937 -1.5 -0.397805 -1.5 0 
C -1.5 0.397805 -1.341951 0.77937 -1.06066 1.06066 
C -0.77937 1.341951 -0.397805 1.5 0 1.5 
z
" id="m794f664ea2" style="stroke:#ff7f0e;"/>
    </defs>
    <g clip-path="url(#p761a79b90c)">
     <use style="fill:#ffffff;stroke:#ff7f0e;" x="117" xlink:href="#m794f664ea2" y="512.64"/>
     <use style="fill:#ffffff;stroke:#ff7f0e;" x="140.062891" xlink:href="#m794f664ea2" y="498.512489"/>
     <use style="fill:#ffffff;stroke:#ff7f0e;" x="171.774367" xlink:href="#m794f664ea2" y="486.8221"/>
     <use style="fill:#ffffff;stroke:#ff7f0e;" x="203.485842" xlink:href="#m794f664ea2" y="475.687814"/>
     <use style="fill:#ffffff;stroke:#ff7f0e;" x="235.197317" xlink:href="#m794f664ea2" y="462.099984"/>
     <use style="fill:#ffffff;stroke:#ff7f0e;" x="266.908793" xlink:href="#m794f664ea2" y="446.471964"/>
     <use style="fill:#ffffff;stroke:#ff7f0e;" x="298.620268" xlink:href="#m794f664ea2" y="435.70399"/>
     <use style="fill:#ffffff;stroke:#ff7f0e;" x="330.331744" xlink:href="#m794f664ea2" y="411.860852"/>
     <use style="fill:#ffffff;stroke:#ff7f0e;" x="362.043219" xlink:href="#m794f664ea2" y="402.460223"/>
     <use style="fill:#ffffff;stroke:#ff7f0e;" x="393.754694" xlink:href="#m794f664ea2" y="394.509557"/>
     <use style="fill:#ffffff;stroke:#ff7f0e;" x="425.46617" xlink:href="#m794f664ea2" y="391.176052"/>
     <use style="fill:#ffffff;stroke:#ff7f0e;" x="457.177645" xlink:href="#m794f664ea2" y="368.968095"/>
     <use style="fill:#ffffff;stroke:#ff7f0e;" x="488.889121" xlink:href="#m794f664ea2" y="348.487285"/>
     <use style="fill:#ffffff;stroke:#ff7f0e;" x="520.600596" xlink:href="#m794f664ea2" y="330.334539"/>
     <use style="fill:#ffffff;stroke:#ff7f0e;" x="552.312072" xlink:href="#m794f664ea2" y="315.800416"/>
     <use style="fill:#ffffff;stroke:#ff7f0e;" x="584.023547" xlink:href="#m794f664ea2" y="310.031202"/>
    </g>
   </g>
   <g id="line2d_17">
    <path clip-path="url(#p761a79b90c)" d="M 117 512.64 
L 141.916159 493.430221 
L 173.627635 469.553051 
L 205.33911 449.239594 
L 237.050585 435.70399 
L 268.762061 400.163306 
L 300.473536 384.63538 
L 332.185012 351.318603 
L 363.896487 329.457958 
L 395.607963 309.216718 
L 427.319438 296.497727 
L 459.030913 282.843155 
L 490.742389 267.697323 
L 522.453864 248.662688 
L 554.16534 237.681648 
L 585.876815 227.092932 
L 617.58829 215.097183 
L 649.299766 208.697375 
L 681.011241 193.536597 
L 712.722717 173.903545 
L 744.434192 162.790407 
L 776.145667 141.672068 
L 807.857143 90.24 
" style="fill:none;stroke:#2ca02c;stroke-linecap:square;stroke-width:1.5;"/>
    <defs>
     <path d="M 0 1.5 
C 0.397805 1.5 0.77937 1.341951 1.06066 1.06066 
C 1.341951 0.77937 1.5 0.397805 1.5 0 
C 1.5 -0.397805 1.341951 -0.77937 1.06066 -1.06066 
C 0.77937 -1.341951 0.397805 -1.5 0 -1.5 
C -0.397805 -1.5 -0.77937 -1.341951 -1.06066 -1.06066 
C -1.341951 -0.77937 -1.5 -0.397805 -1.5 0 
C -1.5 0.397805 -1.341951 0.77937 -1.06066 1.06066 
C -0.77937 1.341951 -0.397805 1.5 0 1.5 
z
" id="m83b9d5e8b8" style="stroke:#2ca02c;"/>
    </defs>
    <g clip-path="url(#p761a79b90c)">
     <use style="fill:#ffffff;stroke:#2ca02c;" x="117" xlink:href="#m83b9d5e8b8" y="512.64"/>
     <use style="fill:#ffffff;stroke:#2ca02c;" x="141.916159" xlink:href="#m83b9d5e8b8" y="493.430221"/>
     <use style="fill:#ffffff;stroke:#2ca02c;" x="173.627635" xlink:href="#m83b9d5e8b8" y="469.553051"/>
     <use style="fill:#ffffff;stroke:#2ca02c;" x="205.33911" xlink:href="#m83b9d5e8b8" y="449.239594"/>
     <use style="fill:#ffffff;stroke:#2ca02c;" x="237.050585" xlink:href="#m83b9d5e8b8" y="435.70399"/>
     <use style="fill:#ffffff;stroke:#2ca02c;" x="268.762061" xlink:href="#m83b9d5e8b8" y="400.163306"/>
     <use style="fill:#ffffff;stroke:#2ca02c;" x="300.473536" xlink:href="#m83b9d5e8b8" y="384.63538"/>
     <use style="fill:#ffffff;stroke:#2ca02c;" x="332.185012" xlink:href="#m83b9d5e8b8" y="351.318603"/>
     <use style="fill:#ffffff;stroke:#2ca02c;" x="363.896487" xlink:href="#m83b9d5e8b8" y="329.457958"/>
     <use style="fill:#ffffff;stroke:#2ca02c;" x="395.607963" xlink:href="#m83b9d5e8b8" y="309.216718"/>
     <use style="fill:#ffffff;stroke:#2ca02c;" x="427.319438" xlink:href="#m83b9d5e8b8" y="296.497727"/>
     <use style="fill:#ffffff;stroke:#2ca02c;" x="459.030913" xlink:href="#m83b9d5e8b8" y="282.843155"/>
     <use style="fill:#ffffff;stroke:#2ca02c;" x="490.742389" xlink:href="#m83b9d5e8b8" y="267.697323"/>
     <use style="fill:#ffffff;stroke:#2ca02c;" x="522.453864" xlink:href="#m83b9d5e8b8" y="248.662688"/>
     <use style="fill:#ffffff;stroke:#2ca02c;" x="554.16534" xlink:href="#m83b9d5e8b8" y="237.681648"/>
     <use style="fill:#ffffff;stroke:#2ca02c;" x="585.876815" xlink:href="#m83b9d5e8b8" y="227.092932"/>
     <use style="fill:#ffffff;stroke:#2ca02c;" x="617.58829" xlink:href="#m83b9d5e8b8" y="215.097183"/>
     <use style="fill:#ffffff;stroke:#2ca02c;" x="649.299766" xlink:href="#m83b9d5e8b8" y="208.697375"/>
     <use style="fill:#ffffff;stroke:#2ca02c;" x="681.011241" xlink:href="#m83b9d5e8b8" y="193.536597"/>
     <use style="fill:#ffffff;stroke:#2ca02c;" x="712.722717" xlink:href="#m83b9d5e8b8" y="173.903545"/>
     <use style="fill:#ffffff;stroke:#2ca02c;" x="744.434192" xlink:href="#m83b9d5e8b8" y="162.790407"/>
     <use style="fill:#ffffff;stroke:#2ca02c;" x="776.145667" xlink:href="#m83b9d5e8b8" y="141.672068"/>
     <use style="fill:#ffffff;stroke:#2ca02c;" x="807.857143" xlink:href="#m83b9d5e8b8" y="90.24"/>
    </g>
   </g>
   <g id="line2d_18">
    <path clip-path="url(#p761a79b90c)" d="M 117 512.64 
L 134.617486 503.708981 
L 166.328962 491.760552 
L 198.040437 468.043745 
L 229.751913 450.635287 
L 261.463388 431.78432 
L 293.174863 416.695332 
" style="fill:none;stroke:#d62728;stroke-linecap:square;stroke-width:1.5;"/>
    <defs>
     <path d="M 0 1.5 
C 0.397805 1.5 0.77937 1.341951 1.06066 1.06066 
C 1.341951 0.77937 1.5 0.397805 1.5 0 
C 1.5 -0.397805 1.341951 -0.77937 1.06066 -1.06066 
C 0.77937 -1.341951 0.397805 -1.5 0 -1.5 
C -0.397805 -1.5 -0.77937 -1.341951 -1.06066 -1.06066 
C -1.341951 -0.77937 -1.5 -0.397805 -1.5 0 
C -1.5 0.397805 -1.341951 0.77937 -1.06066 1.06066 
C -0.77937 1.341951 -0.397805 1.5 0 1.5 
z
" id="maeedd64923" style="stroke:#d62728;"/>
    </defs>
    <g clip-path="url(#p761a79b90c)">
     <use style="fill:#ffffff;stroke:#d62728;" x="117" xlink:href="#maeedd64923" y="512.64"/>
     <use style="fill:#ffffff;stroke:#d62728;" x="134.617486" xlink:href="#maeedd64923" y="503.708981"/>
     <use style="fill:#ffffff;stroke:#d62728;" x="166.328962" xlink:href="#maeedd64923" y="491.760552"/>
     <use style="fill:#ffffff;stroke:#d62728;" x="198.040437" xlink:href="#maeedd64923" y="468.043745"/>
     <use style="fill:#ffffff;stroke:#d62728;" x="229.751913" xlink:href="#maeedd64923" y="450.635287"/>
     <use style="fill:#ffffff;stroke:#d62728;" x="261.463388" xlink:href="#maeedd64923" y="431.78432"/>
     <use style="fill:#ffffff;stroke:#d62728;" x="293.174863" xlink:href="#maeedd64923" y="416.695332"/>
    </g>
   </g>
   <g id="line2d_19">
    <path clip-path="url(#p761a79b90c)" d="M 117 512.64 
L 148.711475 491.760552 
" style="fill:none;stroke:#9467bd;stroke-linecap:square;stroke-width:1.5;"/>
    <defs>
     <path d="M 0 1.5 
C 0.397805 1.5 0.77937 1.341951 1.06066 1.06066 
C 1.341951 0.77937 1.5 0.397805 1.5 0 
C 1.5 -0.397805 1.341951 -0.77937 1.06066 -1.06066 
C 0.77937 -1.341951 0.397805 -1.5 0 -1.5 
C -0.397805 -1.5 -0.77937 -1.341951 -1.06066 -1.06066 
C -1.341951 -0.77937 -1.5 -0.397805 -1.5 0 
C -1.5 0.397805 -1.341951 0.77937 -1.06066 1.06066 
C -0.77937 1.341951 -0.397805 1.5 0 1.5 
z
" id="m2502329d19" style="stroke:#9467bd;"/>
    </defs>
    <g clip-path="url(#p761a79b90c)">
     <use style="fill:#ffffff;stroke:#9467bd;" x="117" xlink:href="#m2502329d19" y="512.64"/>
     <use style="fill:#ffffff;stroke:#9467bd;" x="148.711475" xlink:href="#m2502329d19" y="491.760552"/>
    </g>
   </g>
   <g id="line2d_20">
    <path clip-path="url(#p761a79b90c)" d="M 117 512.64 
L 137.18003 500.231678 
L 168.891505 491.760552 
" style="fill:none;stroke:#8c564b;stroke-linecap:square;stroke-width:1.5;"/>
    <defs>
     <path d="M 0 1.5 
C 0.397805 1.5 0.77937 1.341951 1.06066 1.06066 
C 1.341951 0.77937 1.5 0.397805 1.5 0 
C 1.5 -0.397805 1.341951 -0.77937 1.06066 -1.06066 
C 0.77937 -1.341951 0.397805 -1.5 0 -1.5 
C -0.397805 -1.5 -0.77937 -1.341951 -1.06066 -1.06066 
C -1.341951 -0.77937 -1.5 -0.397805 -1.5 0 
C -1.5 0.397805 -1.341951 0.77937 -1.06066 1.06066 
C -0.77937 1.341951 -0.397805 1.5 0 1.5 
z
" id="mfd063104b7" style="stroke:#8c564b;"/>
    </defs>
    <g clip-path="url(#p761a79b90c)">
     <use style="fill:#ffffff;stroke:#8c564b;" x="117" xlink:href="#mfd063104b7" y="512.64"/>
     <use style="fill:#ffffff;stroke:#8c564b;" x="137.18003" xlink:href="#mfd063104b7" y="500.231678"/>
     <use style="fill:#ffffff;stroke:#8c564b;" x="168.891505" xlink:href="#mfd063104b7" y="491.760552"/>
    </g>
   </g>
   <g id="line2d_21">
    <path clip-path="url(#p761a79b90c)" d="M 117 512.64 
L 148.711475 500.231678 
L 180.422951 495.111967 
L 212.134426 493.430221 
L 275.557377 483.586764 
" style="fill:none;stroke:#e377c2;stroke-linecap:square;stroke-width:1.5;"/>
    <defs>
     <path d="M 0 1.5 
C 0.397805 1.5 0.77937 1.341951 1.06066 1.06066 
C 1.341951 0.77937 1.5 0.397805 1.5 0 
C 1.5 -0.397805 1.341951 -0.77937 1.06066 -1.06066 
C 0.77937 -1.341951 0.397805 -1.5 0 -1.5 
C -0.397805 -1.5 -0.77937 -1.341951 -1.06066 -1.06066 
C -1.341951 -0.77937 -1.5 -0.397805 -1.5 0 
C -1.5 0.397805 -1.341951 0.77937 -1.06066 1.06066 
C -0.77937 1.341951 -0.397805 1.5 0 1.5 
z
" id="m7158532d32" style="stroke:#e377c2;"/>
    </defs>
    <g clip-path="url(#p761a79b90c)">
     <use style="fill:#ffffff;stroke:#e377c2;" x="117" xlink:href="#m7158532d32" y="512.64"/>
     <use style="fill:#ffffff;stroke:#e377c2;" x="148.711475" xlink:href="#m7158532d32" y="500.231678"/>
     <use style="fill:#ffffff;stroke:#e377c2;" x="180.422951" xlink:href="#m7158532d32" y="495.111967"/>
     <use style="fill:#ffffff;stroke:#e377c2;" x="212.134426" xlink:href="#m7158532d32" y="493.430221"/>
     <use style="fill:#ffffff;stroke:#e377c2;" x="275.557377" xlink:href="#m7158532d32" y="483.586764"/>
    </g>
   </g>
   <g id="line2d_22">
    <path clip-path="url(#p761a79b90c)" d="M 117 512.64 
L 129.68459 505.467542 
L 161.396066 486.8221 
L 193.107541 475.687814 
L 224.819016 465.053433 
L 256.530492 453.450948 
L 288.241967 443.735345 
L 319.953443 438.352086 
L 351.664918 430.491428 
L 383.376393 409.47786 
L 415.087869 393.393589 
L 446.799344 386.797301 
L 478.51082 377.207085 
L 510.222295 372.027512 
" style="fill:none;stroke:#7f7f7f;stroke-linecap:square;stroke-width:1.5;"/>
    <defs>
     <path d="M 0 1.5 
C 0.397805 1.5 0.77937 1.341951 1.06066 1.06066 
C 1.341951 0.77937 1.5 0.397805 1.5 0 
C 1.5 -0.397805 1.341951 -0.77937 1.06066 -1.06066 
C 0.77937 -1.341951 0.397805 -1.5 0 -1.5 
C -0.397805 -1.5 -0.77937 -1.341951 -1.06066 -1.06066 
C -1.341951 -0.77937 -1.5 -0.397805 -1.5 0 
C -1.5 0.397805 -1.341951 0.77937 -1.06066 1.06066 
C -0.77937 1.341951 -0.397805 1.5 0 1.5 
z
" id="mb4c33b9d3f" style="stroke:#7f7f7f;"/>
    </defs>
    <g clip-path="url(#p761a79b90c)">
     <use style="fill:#ffffff;stroke:#7f7f7f;" x="117" xlink:href="#mb4c33b9d3f" y="512.64"/>
     <use style="fill:#ffffff;stroke:#7f7f7f;" x="129.68459" xlink:href="#mb4c33b9d3f" y="505.467542"/>
     <use style="fill:#ffffff;stroke:#7f7f7f;" x="161.396066" xlink:href="#mb4c33b9d3f" y="486.8221"/>
     <use style="fill:#ffffff;stroke:#7f7f7f;" x="193.107541" xlink:href="#mb4c33b9d3f" y="475.687814"/>
     <use style="fill:#ffffff;stroke:#7f7f7f;" x="224.819016" xlink:href="#mb4c33b9d3f" y="465.053433"/>
     <use style="fill:#ffffff;stroke:#7f7f7f;" x="256.530492" xlink:href="#mb4c33b9d3f" y="453.450948"/>
     <use style="fill:#ffffff;stroke:#7f7f7f;" x="288.241967" xlink:href="#mb4c33b9d3f" y="443.735345"/>
     <use style="fill:#ffffff;stroke:#7f7f7f;" x="319.953443" xlink:href="#mb4c33b9d3f" y="438.352086"/>
     <use style="fill:#ffffff;stroke:#7f7f7f;" x="351.664918" xlink:href="#mb4c33b9d3f" y="430.491428"/>
     <use style="fill:#ffffff;stroke:#7f7f7f;" x="383.376393" xlink:href="#mb4c33b9d3f" y="409.47786"/>
     <use style="fill:#ffffff;stroke:#7f7f7f;" x="415.087869" xlink:href="#mb4c33b9d3f" y="393.393589"/>
     <use style="fill:#ffffff;stroke:#7f7f7f;" x="446.799344" xlink:href="#mb4c33b9d3f" y="386.797301"/>
     <use style="fill:#ffffff;stroke:#7f7f7f;" x="478.51082" xlink:href="#mb4c33b9d3f" y="377.207085"/>
     <use style="fill:#ffffff;stroke:#7f7f7f;" x="510.222295" xlink:href="#mb4c33b9d3f" y="372.027512"/>
    </g>
   </g>
   <g id="line2d_23">
    <path clip-path="url(#p761a79b90c)" d="M 117 512.64 
L 137.51919 493.430221 
L 169.230665 477.246609 
L 200.942141 457.736735 
L 232.653616 445.099827 
L 264.365092 422.872082 
L 296.076567 400.163306 
L 327.788042 377.207085 
L 359.499518 356.105004 
L 391.210993 334.76017 
" style="fill:none;stroke:#bcbd22;stroke-linecap:square;stroke-width:1.5;"/>
    <defs>
     <path d="M 0 1.5 
C 0.397805 1.5 0.77937 1.341951 1.06066 1.06066 
C 1.341951 0.77937 1.5 0.397805 1.5 0 
C 1.5 -0.397805 1.341951 -0.77937 1.06066 -1.06066 
C 0.77937 -1.341951 0.397805 -1.5 0 -1.5 
C -0.397805 -1.5 -0.77937 -1.341951 -1.06066 -1.06066 
C -1.341951 -0.77937 -1.5 -0.397805 -1.5 0 
C -1.5 0.397805 -1.341951 0.77937 -1.06066 1.06066 
C -0.77937 1.341951 -0.397805 1.5 0 1.5 
z
" id="m963fe52c46" style="stroke:#bcbd22;"/>
    </defs>
    <g clip-path="url(#p761a79b90c)">
     <use style="fill:#ffffff;stroke:#bcbd22;" x="117" xlink:href="#m963fe52c46" y="512.64"/>
     <use style="fill:#ffffff;stroke:#bcbd22;" x="137.51919" xlink:href="#m963fe52c46" y="493.430221"/>
     <use style="fill:#ffffff;stroke:#bcbd22;" x="169.230665" xlink:href="#m963fe52c46" y="477.246609"/>
     <use style="fill:#ffffff;stroke:#bcbd22;" x="200.942141" xlink:href="#m963fe52c46" y="457.736735"/>
     <use style="fill:#ffffff;stroke:#bcbd22;" x="232.653616" xlink:href="#m963fe52c46" y="445.099827"/>
     <use style="fill:#ffffff;stroke:#bcbd22;" x="264.365092" xlink:href="#m963fe52c46" y="422.872082"/>
     <use style="fill:#ffffff;stroke:#bcbd22;" x="296.076567" xlink:href="#m963fe52c46" y="400.163306"/>
     <use style="fill:#ffffff;stroke:#bcbd22;" x="327.788042" xlink:href="#m963fe52c46" y="377.207085"/>
     <use style="fill:#ffffff;stroke:#bcbd22;" x="359.499518" xlink:href="#m963fe52c46" y="356.105004"/>
     <use style="fill:#ffffff;stroke:#bcbd22;" x="391.210993" xlink:href="#m963fe52c46" y="334.76017"/>
    </g>
   </g>
   <g id="line2d_24">
    <path clip-path="url(#p761a79b90c)" d="M 117 512.64 
L 138.954098 496.805988 
L 170.665574 495.111967 
L 202.377049 488.456678 
L 234.088525 459.18239 
L 265.8 439.686884 
L 297.511475 433.083991 
L 329.222951 416.695332 
L 360.934426 404.777998 
L 392.645902 403.616477 
L 424.357377 402.460223 
L 456.068852 388.977409 
L 487.780328 368.968095 
L 519.491803 359.018582 
L 551.203279 319.151852 
L 582.914754 310.031202 
" style="fill:none;stroke:#17becf;stroke-linecap:square;stroke-width:1.5;"/>
    <defs>
     <path d="M 0 1.5 
C 0.397805 1.5 0.77937 1.341951 1.06066 1.06066 
C 1.341951 0.77937 1.5 0.397805 1.5 0 
C 1.5 -0.397805 1.341951 -0.77937 1.06066 -1.06066 
C 0.77937 -1.341951 0.397805 -1.5 0 -1.5 
C -0.397805 -1.5 -0.77937 -1.341951 -1.06066 -1.06066 
C -1.341951 -0.77937 -1.5 -0.397805 -1.5 0 
C -1.5 0.397805 -1.341951 0.77937 -1.06066 1.06066 
C -0.77937 1.341951 -0.397805 1.5 0 1.5 
z
" id="me972d5bf57" style="stroke:#17becf;"/>
    </defs>
    <g clip-path="url(#p761a79b90c)">
     <use style="fill:#ffffff;stroke:#17becf;" x="117" xlink:href="#me972d5bf57" y="512.64"/>
     <use style="fill:#ffffff;stroke:#17becf;" x="138.954098" xlink:href="#me972d5bf57" y="496.805988"/>
     <use style="fill:#ffffff;stroke:#17becf;" x="170.665574" xlink:href="#me972d5bf57" y="495.111967"/>
     <use style="fill:#ffffff;stroke:#17becf;" x="202.377049" xlink:href="#me972d5bf57" y="488.456678"/>
     <use style="fill:#ffffff;stroke:#17becf;" x="234.088525" xlink:href="#me972d5bf57" y="459.18239"/>
     <use style="fill:#ffffff;stroke:#17becf;" x="265.8" xlink:href="#me972d5bf57" y="439.686884"/>
     <use style="fill:#ffffff;stroke:#17becf;" x="297.511475" xlink:href="#me972d5bf57" y="433.083991"/>
     <use style="fill:#ffffff;stroke:#17becf;" x="329.222951" xlink:href="#me972d5bf57" y="416.695332"/>
     <use style="fill:#ffffff;stroke:#17becf;" x="360.934426" xlink:href="#me972d5bf57" y="404.777998"/>
     <use style="fill:#ffffff;stroke:#17becf;" x="392.645902" xlink:href="#me972d5bf57" y="403.616477"/>
     <use style="fill:#ffffff;stroke:#17becf;" x="424.357377" xlink:href="#me972d5bf57" y="402.460223"/>
     <use style="fill:#ffffff;stroke:#17becf;" x="456.068852" xlink:href="#me972d5bf57" y="388.977409"/>
     <use style="fill:#ffffff;stroke:#17becf;" x="487.780328" xlink:href="#me972d5bf57" y="368.968095"/>
     <use style="fill:#ffffff;stroke:#17becf;" x="519.491803" xlink:href="#me972d5bf57" y="359.018582"/>
     <use style="fill:#ffffff;stroke:#17becf;" x="551.203279" xlink:href="#me972d5bf57" y="319.151852"/>
     <use style="fill:#ffffff;stroke:#17becf;" x="582.914754" xlink:href="#me972d5bf57" y="310.031202"/>
    </g>
   </g>
   <g id="line2d_25">
    <path clip-path="url(#p761a79b90c)" d="M 117 512.64 
L 143.832787 493.430221 
L 175.544262 475.687814 
L 207.255738 465.053433 
L 238.967213 449.239594 
L 270.678689 433.083991 
L 302.390164 424.125918 
L 334.101639 411.860852 
L 365.813115 395.630387 
L 397.52459 384.63538 
L 429.236066 376.162949 
L 460.947541 367.956134 
L 492.659016 356.105004 
" style="fill:none;stroke:#1f77b4;stroke-linecap:square;stroke-width:1.5;"/>
    <g clip-path="url(#p761a79b90c)">
     <use style="fill:#ffffff;stroke:#1f77b4;" x="117" xlink:href="#m2574b502da" y="512.64"/>
     <use style="fill:#ffffff;stroke:#1f77b4;" x="143.832787" xlink:href="#m2574b502da" y="493.430221"/>
     <use style="fill:#ffffff;stroke:#1f77b4;" x="175.544262" xlink:href="#m2574b502da" y="475.687814"/>
     <use style="fill:#ffffff;stroke:#1f77b4;" x="207.255738" xlink:href="#m2574b502da" y="465.053433"/>
     <use style="fill:#ffffff;stroke:#1f77b4;" x="238.967213" xlink:href="#m2574b502da" y="449.239594"/>
     <use style="fill:#ffffff;stroke:#1f77b4;" x="270.678689" xlink:href="#m2574b502da" y="433.083991"/>
     <use style="fill:#ffffff;stroke:#1f77b4;" x="302.390164" xlink:href="#m2574b502da" y="424.125918"/>
     <use style="fill:#ffffff;stroke:#1f77b4;" x="334.101639" xlink:href="#m2574b502da" y="411.860852"/>
     <use style="fill:#ffffff;stroke:#1f77b4;" x="365.813115" xlink:href="#m2574b502da" y="395.630387"/>
     <use style="fill:#ffffff;stroke:#1f77b4;" x="397.52459" xlink:href="#m2574b502da" y="384.63538"/>
     <use style="fill:#ffffff;stroke:#1f77b4;" x="429.236066" xlink:href="#m2574b502da" y="376.162949"/>
     <use style="fill:#ffffff;stroke:#1f77b4;" x="460.947541" xlink:href="#m2574b502da" y="367.956134"/>
     <use style="fill:#ffffff;stroke:#1f77b4;" x="492.659016" xlink:href="#m2574b502da" y="356.105004"/>
    </g>
   </g>
   <g id="line2d_26">
    <path clip-path="url(#p761a79b90c)" d="M 117 512.64 
L 128.531446 498.512489 
L 160.242921 483.586764 
L 191.954396 462.099984 
L 223.665872 433.083991 
L 255.377347 417.918585 
L 287.088823 408.294716 
L 318.800298 400.163306 
L 350.511773 363.946622 
L 382.223249 336.550755 
L 413.934724 326.844938 
L 445.6462 313.3132 
L 477.357675 297.275995 
" style="fill:none;stroke:#ff7f0e;stroke-linecap:square;stroke-width:1.5;"/>
    <g clip-path="url(#p761a79b90c)">
     <use style="fill:#ffffff;stroke:#ff7f0e;" x="117" xlink:href="#m794f664ea2" y="512.64"/>
     <use style="fill:#ffffff;stroke:#ff7f0e;" x="128.531446" xlink:href="#m794f664ea2" y="498.512489"/>
     <use style="fill:#ffffff;stroke:#ff7f0e;" x="160.242921" xlink:href="#m794f664ea2" y="483.586764"/>
     <use style="fill:#ffffff;stroke:#ff7f0e;" x="191.954396" xlink:href="#m794f664ea2" y="462.099984"/>
     <use style="fill:#ffffff;stroke:#ff7f0e;" x="223.665872" xlink:href="#m794f664ea2" y="433.083991"/>
     <use style="fill:#ffffff;stroke:#ff7f0e;" x="255.377347" xlink:href="#m794f664ea2" y="417.918585"/>
     <use style="fill:#ffffff;stroke:#ff7f0e;" x="287.088823" xlink:href="#m794f664ea2" y="408.294716"/>
     <use style="fill:#ffffff;stroke:#ff7f0e;" x="318.800298" xlink:href="#m794f664ea2" y="400.163306"/>
     <use style="fill:#ffffff;stroke:#ff7f0e;" x="350.511773" xlink:href="#m794f664ea2" y="363.946622"/>
     <use style="fill:#ffffff;stroke:#ff7f0e;" x="382.223249" xlink:href="#m794f664ea2" y="336.550755"/>
     <use style="fill:#ffffff;stroke:#ff7f0e;" x="413.934724" xlink:href="#m794f664ea2" y="326.844938"/>
     <use style="fill:#ffffff;stroke:#ff7f0e;" x="445.6462" xlink:href="#m794f664ea2" y="313.3132"/>
     <use style="fill:#ffffff;stroke:#ff7f0e;" x="477.357675" xlink:href="#m794f664ea2" y="297.275995"/>
    </g>
   </g>
   <g id="line2d_27">
    <path clip-path="url(#p761a79b90c)" d="M 117 512.64 
L 128.531446 498.512489 
L 160.242921 488.456678 
L 223.665872 463.572165 
L 255.377347 462.099984 
L 287.088823 446.471964 
L 318.800298 434.39052 
L 350.511773 429.205234 
L 382.223249 425.386078 
L 445.6462 419.14782 
L 477.357675 408.294716 
L 509.069151 382.491307 
L 540.780626 374.087082 
L 572.492101 371.00375 
" style="fill:none;stroke:#2ca02c;stroke-linecap:square;stroke-width:1.5;"/>
    <g clip-path="url(#p761a79b90c)">
     <use style="fill:#ffffff;stroke:#2ca02c;" x="117" xlink:href="#m83b9d5e8b8" y="512.64"/>
     <use style="fill:#ffffff;stroke:#2ca02c;" x="128.531446" xlink:href="#m83b9d5e8b8" y="498.512489"/>
     <use style="fill:#ffffff;stroke:#2ca02c;" x="160.242921" xlink:href="#m83b9d5e8b8" y="488.456678"/>
     <use style="fill:#ffffff;stroke:#2ca02c;" x="223.665872" xlink:href="#m83b9d5e8b8" y="463.572165"/>
     <use style="fill:#ffffff;stroke:#2ca02c;" x="255.377347" xlink:href="#m83b9d5e8b8" y="462.099984"/>
     <use style="fill:#ffffff;stroke:#2ca02c;" x="287.088823" xlink:href="#m83b9d5e8b8" y="446.471964"/>
     <use style="fill:#ffffff;stroke:#2ca02c;" x="318.800298" xlink:href="#m83b9d5e8b8" y="434.39052"/>
     <use style="fill:#ffffff;stroke:#2ca02c;" x="350.511773" xlink:href="#m83b9d5e8b8" y="429.205234"/>
     <use style="fill:#ffffff;stroke:#2ca02c;" x="382.223249" xlink:href="#m83b9d5e8b8" y="425.386078"/>
     <use style="fill:#ffffff;stroke:#2ca02c;" x="445.6462" xlink:href="#m83b9d5e8b8" y="419.14782"/>
     <use style="fill:#ffffff;stroke:#2ca02c;" x="477.357675" xlink:href="#m83b9d5e8b8" y="408.294716"/>
     <use style="fill:#ffffff;stroke:#2ca02c;" x="509.069151" xlink:href="#m83b9d5e8b8" y="382.491307"/>
     <use style="fill:#ffffff;stroke:#2ca02c;" x="540.780626" xlink:href="#m83b9d5e8b8" y="374.087082"/>
     <use style="fill:#ffffff;stroke:#2ca02c;" x="572.492101" xlink:href="#m83b9d5e8b8" y="371.00375"/>
    </g>
   </g>
   <g id="line2d_28">
    <path clip-path="url(#p761a79b90c)" d="M 117 512.64 
L 145.187978 498.512489 
L 176.899454 474.139208 
L 208.610929 462.099984 
L 240.322404 454.871127 
L 272.03388 450.635287 
L 303.745355 449.239594 
L 335.456831 445.099827 
L 367.168306 417.918585 
L 398.879781 410.666552 
L 430.591257 400.163306 
L 462.302732 390.074392 
L 494.014208 383.561133 
" style="fill:none;stroke:#d62728;stroke-linecap:square;stroke-width:1.5;"/>
    <g clip-path="url(#p761a79b90c)">
     <use style="fill:#ffffff;stroke:#d62728;" x="117" xlink:href="#maeedd64923" y="512.64"/>
     <use style="fill:#ffffff;stroke:#d62728;" x="145.187978" xlink:href="#maeedd64923" y="498.512489"/>
     <use style="fill:#ffffff;stroke:#d62728;" x="176.899454" xlink:href="#maeedd64923" y="474.139208"/>
     <use style="fill:#ffffff;stroke:#d62728;" x="208.610929" xlink:href="#maeedd64923" y="462.099984"/>
     <use style="fill:#ffffff;stroke:#d62728;" x="240.322404" xlink:href="#maeedd64923" y="454.871127"/>
     <use style="fill:#ffffff;stroke:#d62728;" x="272.03388" xlink:href="#maeedd64923" y="450.635287"/>
     <use style="fill:#ffffff;stroke:#d62728;" x="303.745355" xlink:href="#maeedd64923" y="449.239594"/>
     <use style="fill:#ffffff;stroke:#d62728;" x="335.456831" xlink:href="#maeedd64923" y="445.099827"/>
     <use style="fill:#ffffff;stroke:#d62728;" x="367.168306" xlink:href="#maeedd64923" y="417.918585"/>
     <use style="fill:#ffffff;stroke:#d62728;" x="398.879781" xlink:href="#maeedd64923" y="410.666552"/>
     <use style="fill:#ffffff;stroke:#d62728;" x="430.591257" xlink:href="#maeedd64923" y="400.163306"/>
     <use style="fill:#ffffff;stroke:#d62728;" x="462.302732" xlink:href="#maeedd64923" y="390.074392"/>
     <use style="fill:#ffffff;stroke:#d62728;" x="494.014208" xlink:href="#maeedd64923" y="383.561133"/>
    </g>
   </g>
   <g id="line2d_29">
    <path clip-path="url(#p761a79b90c)" d="M 117 512.64 
L 125.808743 503.708981 
L 157.520219 481.98566 
L 189.231694 453.450948 
L 220.943169 435.70399 
L 252.654645 429.205234 
L 284.36612 409.47786 
L 316.077596 397.886829 
L 347.789071 388.977409 
L 379.500546 375.12296 
L 411.212022 361.964414 
" style="fill:none;stroke:#9467bd;stroke-linecap:square;stroke-width:1.5;"/>
    <g clip-path="url(#p761a79b90c)">
     <use style="fill:#ffffff;stroke:#9467bd;" x="117" xlink:href="#m2502329d19" y="512.64"/>
     <use style="fill:#ffffff;stroke:#9467bd;" x="125.808743" xlink:href="#m2502329d19" y="503.708981"/>
     <use style="fill:#ffffff;stroke:#9467bd;" x="157.520219" xlink:href="#m2502329d19" y="481.98566"/>
     <use style="fill:#ffffff;stroke:#9467bd;" x="189.231694" xlink:href="#m2502329d19" y="453.450948"/>
     <use style="fill:#ffffff;stroke:#9467bd;" x="220.943169" xlink:href="#m2502329d19" y="435.70399"/>
     <use style="fill:#ffffff;stroke:#9467bd;" x="252.654645" xlink:href="#m2502329d19" y="429.205234"/>
     <use style="fill:#ffffff;stroke:#9467bd;" x="284.36612" xlink:href="#m2502329d19" y="409.47786"/>
     <use style="fill:#ffffff;stroke:#9467bd;" x="316.077596" xlink:href="#m2502329d19" y="397.886829"/>
     <use style="fill:#ffffff;stroke:#9467bd;" x="347.789071" xlink:href="#m2502329d19" y="388.977409"/>
     <use style="fill:#ffffff;stroke:#9467bd;" x="379.500546" xlink:href="#m2502329d19" y="375.12296"/>
     <use style="fill:#ffffff;stroke:#9467bd;" x="411.212022" xlink:href="#m2502329d19" y="361.964414"/>
    </g>
   </g>
   <g id="line2d_30">
    <path clip-path="url(#p761a79b90c)" d="M 117 512.64 
L 139.198033 500.231678 
L 170.909508 496.805988 
L 202.620984 485.198854 
L 234.332459 480.395374 
L 266.043934 478.815743 
L 297.75541 472.600642 
L 329.466885 456.299686 
L 361.178361 449.239594 
L 392.889836 435.70399 
L 424.601311 426.652635 
L 456.312787 415.477996 
" style="fill:none;stroke:#8c564b;stroke-linecap:square;stroke-width:1.5;"/>
    <g clip-path="url(#p761a79b90c)">
     <use style="fill:#ffffff;stroke:#8c564b;" x="117" xlink:href="#mfd063104b7" y="512.64"/>
     <use style="fill:#ffffff;stroke:#8c564b;" x="139.198033" xlink:href="#mfd063104b7" y="500.231678"/>
     <use style="fill:#ffffff;stroke:#8c564b;" x="170.909508" xlink:href="#mfd063104b7" y="496.805988"/>
     <use style="fill:#ffffff;stroke:#8c564b;" x="202.620984" xlink:href="#mfd063104b7" y="485.198854"/>
     <use style="fill:#ffffff;stroke:#8c564b;" x="234.332459" xlink:href="#mfd063104b7" y="480.395374"/>
     <use style="fill:#ffffff;stroke:#8c564b;" x="266.043934" xlink:href="#mfd063104b7" y="478.815743"/>
     <use style="fill:#ffffff;stroke:#8c564b;" x="297.75541" xlink:href="#mfd063104b7" y="472.600642"/>
     <use style="fill:#ffffff;stroke:#8c564b;" x="329.466885" xlink:href="#mfd063104b7" y="456.299686"/>
     <use style="fill:#ffffff;stroke:#8c564b;" x="361.178361" xlink:href="#mfd063104b7" y="449.239594"/>
     <use style="fill:#ffffff;stroke:#8c564b;" x="392.889836" xlink:href="#mfd063104b7" y="435.70399"/>
     <use style="fill:#ffffff;stroke:#8c564b;" x="424.601311" xlink:href="#mfd063104b7" y="426.652635"/>
     <use style="fill:#ffffff;stroke:#8c564b;" x="456.312787" xlink:href="#mfd063104b7" y="415.477996"/>
    </g>
   </g>
   <g id="line2d_31">
    <path clip-path="url(#p761a79b90c)" d="M 117 512.64 
L 127.570492 510.825664 
L 190.993443 496.805988 
L 222.704918 472.600642 
L 254.416393 456.299686 
L 286.127869 447.851853 
L 317.839344 446.471964 
L 349.55082 442.378423 
L 381.262295 438.352086 
L 412.97377 433.083991 
L 444.685246 426.652635 
L 476.396721 415.477996 
L 508.108197 413.060818 
L 571.531148 401.309184 
" style="fill:none;stroke:#e377c2;stroke-linecap:square;stroke-width:1.5;"/>
    <g clip-path="url(#p761a79b90c)">
     <use style="fill:#ffffff;stroke:#e377c2;" x="117" xlink:href="#m7158532d32" y="512.64"/>
     <use style="fill:#ffffff;stroke:#e377c2;" x="127.570492" xlink:href="#m7158532d32" y="510.825664"/>
     <use style="fill:#ffffff;stroke:#e377c2;" x="190.993443" xlink:href="#m7158532d32" y="496.805988"/>
     <use style="fill:#ffffff;stroke:#e377c2;" x="222.704918" xlink:href="#m7158532d32" y="472.600642"/>
     <use style="fill:#ffffff;stroke:#e377c2;" x="254.416393" xlink:href="#m7158532d32" y="456.299686"/>
     <use style="fill:#ffffff;stroke:#e377c2;" x="286.127869" xlink:href="#m7158532d32" y="447.851853"/>
     <use style="fill:#ffffff;stroke:#e377c2;" x="317.839344" xlink:href="#m7158532d32" y="446.471964"/>
     <use style="fill:#ffffff;stroke:#e377c2;" x="349.55082" xlink:href="#m7158532d32" y="442.378423"/>
     <use style="fill:#ffffff;stroke:#e377c2;" x="381.262295" xlink:href="#m7158532d32" y="438.352086"/>
     <use style="fill:#ffffff;stroke:#e377c2;" x="412.97377" xlink:href="#m7158532d32" y="433.083991"/>
     <use style="fill:#ffffff;stroke:#e377c2;" x="444.685246" xlink:href="#m7158532d32" y="426.652635"/>
     <use style="fill:#ffffff;stroke:#e377c2;" x="476.396721" xlink:href="#m7158532d32" y="415.477996"/>
     <use style="fill:#ffffff;stroke:#e377c2;" x="508.108197" xlink:href="#m7158532d32" y="413.060818"/>
     <use style="fill:#ffffff;stroke:#e377c2;" x="571.531148" xlink:href="#m7158532d32" y="401.309184"/>
    </g>
   </g>
   <g id="line2d_32">
    <path clip-path="url(#p761a79b90c)" d="M 117 512.64 
L 127.570492 503.708981 
L 159.281967 468.043745 
L 190.993443 449.239594 
L 222.704918 430.491428 
L 254.416393 402.460223 
L 286.127869 378.255406 
L 317.839344 351.318603 
L 349.55082 325.97944 
L 381.262295 311.667357 
L 412.97377 298.839018 
L 444.685246 275.531105 
L 476.396721 244.091472 
L 508.108197 225.871555 
L 539.819672 205.262639 
L 571.531148 191.353018 
L 603.242623 178.566086 
L 634.954098 169.309575 
L 666.665574 158.354898 
L 698.377049 145.879241 
L 730.088525 137.519419 
L 761.8 123.173197 
L 793.511475 110.275567 
" style="fill:none;stroke:#7f7f7f;stroke-linecap:square;stroke-width:1.5;"/>
    <g clip-path="url(#p761a79b90c)">
     <use style="fill:#ffffff;stroke:#7f7f7f;" x="117" xlink:href="#mb4c33b9d3f" y="512.64"/>
     <use style="fill:#ffffff;stroke:#7f7f7f;" x="127.570492" xlink:href="#mb4c33b9d3f" y="503.708981"/>
     <use style="fill:#ffffff;stroke:#7f7f7f;" x="159.281967" xlink:href="#mb4c33b9d3f" y="468.043745"/>
     <use style="fill:#ffffff;stroke:#7f7f7f;" x="190.993443" xlink:href="#mb4c33b9d3f" y="449.239594"/>
     <use style="fill:#ffffff;stroke:#7f7f7f;" x="222.704918" xlink:href="#mb4c33b9d3f" y="430.491428"/>
     <use style="fill:#ffffff;stroke:#7f7f7f;" x="254.416393" xlink:href="#mb4c33b9d3f" y="402.460223"/>
     <use style="fill:#ffffff;stroke:#7f7f7f;" x="286.127869" xlink:href="#mb4c33b9d3f" y="378.255406"/>
     <use style="fill:#ffffff;stroke:#7f7f7f;" x="317.839344" xlink:href="#mb4c33b9d3f" y="351.318603"/>
     <use style="fill:#ffffff;stroke:#7f7f7f;" x="349.55082" xlink:href="#mb4c33b9d3f" y="325.97944"/>
     <use style="fill:#ffffff;stroke:#7f7f7f;" x="381.262295" xlink:href="#mb4c33b9d3f" y="311.667357"/>
     <use style="fill:#ffffff;stroke:#7f7f7f;" x="412.97377" xlink:href="#mb4c33b9d3f" y="298.839018"/>
     <use style="fill:#ffffff;stroke:#7f7f7f;" x="444.685246" xlink:href="#mb4c33b9d3f" y="275.531105"/>
     <use style="fill:#ffffff;stroke:#7f7f7f;" x="476.396721" xlink:href="#mb4c33b9d3f" y="244.091472"/>
     <use style="fill:#ffffff;stroke:#7f7f7f;" x="508.108197" xlink:href="#mb4c33b9d3f" y="225.871555"/>
     <use style="fill:#ffffff;stroke:#7f7f7f;" x="539.819672" xlink:href="#mb4c33b9d3f" y="205.262639"/>
     <use style="fill:#ffffff;stroke:#7f7f7f;" x="571.531148" xlink:href="#mb4c33b9d3f" y="191.353018"/>
     <use style="fill:#ffffff;stroke:#7f7f7f;" x="603.242623" xlink:href="#mb4c33b9d3f" y="178.566086"/>
     <use style="fill:#ffffff;stroke:#7f7f7f;" x="634.954098" xlink:href="#mb4c33b9d3f" y="169.309575"/>
     <use style="fill:#ffffff;stroke:#7f7f7f;" x="666.665574" xlink:href="#mb4c33b9d3f" y="158.354898"/>
     <use style="fill:#ffffff;stroke:#7f7f7f;" x="698.377049" xlink:href="#mb4c33b9d3f" y="145.879241"/>
     <use style="fill:#ffffff;stroke:#7f7f7f;" x="730.088525" xlink:href="#mb4c33b9d3f" y="137.519419"/>
     <use style="fill:#ffffff;stroke:#7f7f7f;" x="761.8" xlink:href="#mb4c33b9d3f" y="123.173197"/>
     <use style="fill:#ffffff;stroke:#7f7f7f;" x="793.511475" xlink:href="#mb4c33b9d3f" y="110.275567"/>
    </g>
   </g>
   <g id="line2d_33">
    <path clip-path="url(#p761a79b90c)" d="M 117 512.64 
L 125.394214 496.805988 
L 157.105689 477.246609 
L 188.817165 463.572165 
L 220.52864 447.851853 
L 252.240116 437.024483 
L 283.951591 430.491428 
L 315.663067 382.491307 
L 347.374542 368.968095 
L 379.086017 346.616182 
L 410.797493 322.544474 
L 442.508968 306.787452 
L 474.220444 288.830816 
L 505.931919 273.373385 
L 537.643394 255.31902 
L 569.35487 240.228929 
L 601.066345 217.458378 
L 632.777821 202.994156 
" style="fill:none;stroke:#bcbd22;stroke-linecap:square;stroke-width:1.5;"/>
    <g clip-path="url(#p761a79b90c)">
     <use style="fill:#ffffff;stroke:#bcbd22;" x="117" xlink:href="#m963fe52c46" y="512.64"/>
     <use style="fill:#ffffff;stroke:#bcbd22;" x="125.394214" xlink:href="#m963fe52c46" y="496.805988"/>
     <use style="fill:#ffffff;stroke:#bcbd22;" x="157.105689" xlink:href="#m963fe52c46" y="477.246609"/>
     <use style="fill:#ffffff;stroke:#bcbd22;" x="188.817165" xlink:href="#m963fe52c46" y="463.572165"/>
     <use style="fill:#ffffff;stroke:#bcbd22;" x="220.52864" xlink:href="#m963fe52c46" y="447.851853"/>
     <use style="fill:#ffffff;stroke:#bcbd22;" x="252.240116" xlink:href="#m963fe52c46" y="437.024483"/>
     <use style="fill:#ffffff;stroke:#bcbd22;" x="283.951591" xlink:href="#m963fe52c46" y="430.491428"/>
     <use style="fill:#ffffff;stroke:#bcbd22;" x="315.663067" xlink:href="#m963fe52c46" y="382.491307"/>
     <use style="fill:#ffffff;stroke:#bcbd22;" x="347.374542" xlink:href="#m963fe52c46" y="368.968095"/>
     <use style="fill:#ffffff;stroke:#bcbd22;" x="379.086017" xlink:href="#m963fe52c46" y="346.616182"/>
     <use style="fill:#ffffff;stroke:#bcbd22;" x="410.797493" xlink:href="#m963fe52c46" y="322.544474"/>
     <use style="fill:#ffffff;stroke:#bcbd22;" x="442.508968" xlink:href="#m963fe52c46" y="306.787452"/>
     <use style="fill:#ffffff;stroke:#bcbd22;" x="474.220444" xlink:href="#m963fe52c46" y="288.830816"/>
     <use style="fill:#ffffff;stroke:#bcbd22;" x="505.931919" xlink:href="#m963fe52c46" y="273.373385"/>
     <use style="fill:#ffffff;stroke:#bcbd22;" x="537.643394" xlink:href="#m963fe52c46" y="255.31902"/>
     <use style="fill:#ffffff;stroke:#bcbd22;" x="569.35487" xlink:href="#m963fe52c46" y="240.228929"/>
     <use style="fill:#ffffff;stroke:#bcbd22;" x="601.066345" xlink:href="#m963fe52c46" y="217.458378"/>
     <use style="fill:#ffffff;stroke:#bcbd22;" x="632.777821" xlink:href="#m963fe52c46" y="202.994156"/>
    </g>
   </g>
   <g id="line2d_34">
    <path clip-path="url(#p761a79b90c)" d="M 117 512.64 
L 146.068852 493.430221 
L 177.780328 466.543917 
L 209.491803 453.450948 
L 241.203279 443.735345 
L 272.914754 430.491428 
L 304.62623 410.666552 
L 336.337705 396.756128 
L 368.04918 380.364756 
L 399.760656 372.027512 
L 431.472131 365.943777 
L 463.183607 357.072662 
L 494.895082 347.550106 
L 526.606557 336.550755 
L 558.318033 332.981289 
L 590.029508 323.3992 
L 621.740984 319.151852 
L 653.452459 315.800416 
" style="fill:none;stroke:#17becf;stroke-linecap:square;stroke-width:1.5;"/>
    <g clip-path="url(#p761a79b90c)">
     <use style="fill:#ffffff;stroke:#17becf;" x="117" xlink:href="#me972d5bf57" y="512.64"/>
     <use style="fill:#ffffff;stroke:#17becf;" x="146.068852" xlink:href="#me972d5bf57" y="493.430221"/>
     <use style="fill:#ffffff;stroke:#17becf;" x="177.780328" xlink:href="#me972d5bf57" y="466.543917"/>
     <use style="fill:#ffffff;stroke:#17becf;" x="209.491803" xlink:href="#me972d5bf57" y="453.450948"/>
     <use style="fill:#ffffff;stroke:#17becf;" x="241.203279" xlink:href="#me972d5bf57" y="443.735345"/>
     <use style="fill:#ffffff;stroke:#17becf;" x="272.914754" xlink:href="#me972d5bf57" y="430.491428"/>
     <use style="fill:#ffffff;stroke:#17becf;" x="304.62623" xlink:href="#me972d5bf57" y="410.666552"/>
     <use style="fill:#ffffff;stroke:#17becf;" x="336.337705" xlink:href="#me972d5bf57" y="396.756128"/>
     <use style="fill:#ffffff;stroke:#17becf;" x="368.04918" xlink:href="#me972d5bf57" y="380.364756"/>
     <use style="fill:#ffffff;stroke:#17becf;" x="399.760656" xlink:href="#me972d5bf57" y="372.027512"/>
     <use style="fill:#ffffff;stroke:#17becf;" x="431.472131" xlink:href="#me972d5bf57" y="365.943777"/>
     <use style="fill:#ffffff;stroke:#17becf;" x="463.183607" xlink:href="#me972d5bf57" y="357.072662"/>
     <use style="fill:#ffffff;stroke:#17becf;" x="494.895082" xlink:href="#me972d5bf57" y="347.550106"/>
     <use style="fill:#ffffff;stroke:#17becf;" x="526.606557" xlink:href="#me972d5bf57" y="336.550755"/>
     <use style="fill:#ffffff;stroke:#17becf;" x="558.318033" xlink:href="#me972d5bf57" y="332.981289"/>
     <use style="fill:#ffffff;stroke:#17becf;" x="590.029508" xlink:href="#me972d5bf57" y="323.3992"/>
     <use style="fill:#ffffff;stroke:#17becf;" x="621.740984" xlink:href="#me972d5bf57" y="319.151852"/>
     <use style="fill:#ffffff;stroke:#17becf;" x="653.452459" xlink:href="#me972d5bf57" y="315.800416"/>
    </g>
   </g>
   <g id="patch_3">
    <path d="M 117 512.64 
L 117 69.12 
" style="fill:none;stroke:#666666;stroke-linecap:square;stroke-linejoin:miter;stroke-width:0.8;"/>
   </g>
   <g id="patch_4">
    <path d="M 117 512.64 
L 842.4 512.64 
" style="fill:none;stroke:#666666;stroke-linecap:square;stroke-linejoin:miter;stroke-width:0.8;"/>
   </g>
   <g id="text_7">
    <g id="patch_5">
     <path d="M 361.73028 367.52631 
C 363.23028 369.02631 375.64278 369.02631 377.14278 367.52631 
C 378.64278 366.02631 378.64278 356.348185 377.14278 354.848185 
C 375.64278 353.348185 363.23028 353.348185 361.73028 354.848185 
C 360.23028 356.348185 360.23028 366.02631 361.73028 367.52631 
z
" style="fill:#ffffff;stroke:#1f77b4;stroke-linejoin:miter;"/>
    </g>
    <!-- AL -->
    <defs>
     <path d="M 34.1875 63.1875 
L 20.796875 26.90625 
L 47.609375 26.90625 
z
M 28.609375 72.90625 
L 39.796875 72.90625 
L 67.578125 0 
L 57.328125 0 
L 50.6875 18.703125 
L 17.828125 18.703125 
L 11.1875 0 
L 0.78125 0 
z
" id="DejaVuSans-65"/>
     <path d="M 9.8125 72.90625 
L 19.671875 72.90625 
L 19.671875 8.296875 
L 55.171875 8.296875 
L 55.171875 0 
L 9.8125 0 
z
" id="DejaVuSans-76"/>
    </defs>
    <g style="fill:#1f77b4;" transform="translate(363.23028 363.946622)scale(0.1 -0.1)">
     <use xlink:href="#DejaVuSans-65"/>
     <use x="68.408203" xlink:href="#DejaVuSans-76"/>
    </g>
   </g>
   <g id="text_8">
    <g id="patch_6">
     <path d="M 582.523547 313.610889 
C 584.023547 315.110889 597.714172 315.110889 599.214172 313.610889 
C 600.714172 312.110889 600.714172 302.432764 599.214172 300.932764 
C 597.714172 299.432764 584.023547 299.432764 582.523547 300.932764 
C 581.023547 302.432764 581.023547 312.110889 582.523547 313.610889 
z
" style="fill:#ffffff;stroke:#ff7f0e;stroke-linejoin:miter;"/>
    </g>
    <!-- AZ -->
    <defs>
     <path d="M 5.609375 72.90625 
L 62.890625 72.90625 
L 62.890625 65.375 
L 16.796875 8.296875 
L 64.015625 8.296875 
L 64.015625 0 
L 4.5 0 
L 4.5 7.515625 
L 50.59375 64.59375 
L 5.609375 64.59375 
z
" id="DejaVuSans-90"/>
    </defs>
    <g style="fill:#ff7f0e;" transform="translate(584.023547 310.031202)scale(0.1 -0.1)">
     <use xlink:href="#DejaVuSans-65"/>
     <use x="68.408203" xlink:href="#DejaVuSans-90"/>
    </g>
   </g>
   <g id="text_9">
    <g id="patch_7">
     <path d="M 806.357143 93.819687 
C 807.857143 95.319687 822.71183 95.319687 824.21183 93.819687 
C 825.71183 92.319687 825.71183 82.641562 824.21183 81.141562 
C 822.71183 79.641562 807.857143 79.641562 806.357143 81.141562 
C 804.857143 82.641562 804.857143 92.319687 806.357143 93.819687 
z
" style="fill:#ffffff;stroke:#2ca02c;stroke-linejoin:miter;"/>
    </g>
    <!-- CO -->
    <defs>
     <path d="M 64.40625 67.28125 
L 64.40625 56.890625 
Q 59.421875 61.53125 53.78125 63.8125 
Q 48.140625 66.109375 41.796875 66.109375 
Q 29.296875 66.109375 22.65625 58.46875 
Q 16.015625 50.828125 16.015625 36.375 
Q 16.015625 21.96875 22.65625 14.328125 
Q 29.296875 6.6875 41.796875 6.6875 
Q 48.140625 6.6875 53.78125 8.984375 
Q 59.421875 11.28125 64.40625 15.921875 
L 64.40625 5.609375 
Q 59.234375 2.09375 53.4375 0.328125 
Q 47.65625 -1.421875 41.21875 -1.421875 
Q 24.65625 -1.421875 15.125 8.703125 
Q 5.609375 18.84375 5.609375 36.375 
Q 5.609375 53.953125 15.125 64.078125 
Q 24.65625 74.21875 41.21875 74.21875 
Q 47.75 74.21875 53.53125 72.484375 
Q 59.328125 70.75 64.40625 67.28125 
z
" id="DejaVuSans-67"/>
     <path d="M 39.40625 66.21875 
Q 28.65625 66.21875 22.328125 58.203125 
Q 16.015625 50.203125 16.015625 36.375 
Q 16.015625 22.609375 22.328125 14.59375 
Q 28.65625 6.59375 39.40625 6.59375 
Q 50.140625 6.59375 56.421875 14.59375 
Q 62.703125 22.609375 62.703125 36.375 
Q 62.703125 50.203125 56.421875 58.203125 
Q 50.140625 66.21875 39.40625 66.21875 
z
M 39.40625 74.21875 
Q 54.734375 74.21875 63.90625 63.9375 
Q 73.09375 53.65625 73.09375 36.375 
Q 73.09375 19.140625 63.90625 8.859375 
Q 54.734375 -1.421875 39.40625 -1.421875 
Q 24.03125 -1.421875 14.8125 8.828125 
Q 5.609375 19.09375 5.609375 36.375 
Q 5.609375 53.65625 14.8125 63.9375 
Q 24.03125 74.21875 39.40625 74.21875 
z
" id="DejaVuSans-79"/>
    </defs>
    <g style="fill:#2ca02c;" transform="translate(807.857143 90.24)scale(0.1 -0.1)">
     <use xlink:href="#DejaVuSans-67"/>
     <use x="69.824219" xlink:href="#DejaVuSans-79"/>
    </g>
   </g>
   <g id="text_10">
    <g id="patch_8">
     <path d="M 291.674863 420.27502 
C 293.174863 421.77502 307.857676 421.77502 309.357676 420.27502 
C 310.857676 418.77502 310.857676 409.096895 309.357676 407.596895 
C 307.857676 406.096895 293.174863 406.096895 291.674863 407.596895 
C 290.174863 409.096895 290.174863 418.77502 291.674863 420.27502 
z
" style="fill:#ffffff;stroke:#d62728;stroke-linejoin:miter;"/>
    </g>
    <!-- DC -->
    <g style="fill:#d62728;" transform="translate(293.174863 416.695332)scale(0.1 -0.1)">
     <use xlink:href="#DejaVuSans-68"/>
     <use x="77.001953" xlink:href="#DejaVuSans-67"/>
    </g>
   </g>
   <g id="text_11">
    <g id="patch_9">
     <path d="M 147.211475 495.34024 
C 148.711475 496.84024 162.730225 496.84024 164.230225 495.34024 
C 165.730225 493.84024 165.730225 484.162115 164.230225 482.662115 
C 162.730225 481.162115 148.711475 481.162115 147.211475 482.662115 
C 145.711475 484.162115 145.711475 493.84024 147.211475 495.34024 
z
" style="fill:#ffffff;stroke:#9467bd;stroke-linejoin:miter;"/>
    </g>
    <!-- DE -->
    <defs>
     <path d="M 9.8125 72.90625 
L 55.90625 72.90625 
L 55.90625 64.59375 
L 19.671875 64.59375 
L 19.671875 43.015625 
L 54.390625 43.015625 
L 54.390625 34.71875 
L 19.671875 34.71875 
L 19.671875 8.296875 
L 56.78125 8.296875 
L 56.78125 0 
L 9.8125 0 
z
" id="DejaVuSans-69"/>
    </defs>
    <g style="fill:#9467bd;" transform="translate(148.711475 491.760552)scale(0.1 -0.1)">
     <use xlink:href="#DejaVuSans-68"/>
     <use x="77.001953" xlink:href="#DejaVuSans-69"/>
    </g>
   </g>
   <g id="text_12">
    <g id="patch_10">
     <path d="M 167.391505 495.34024 
C 168.891505 496.84024 178.68213 496.84024 180.18213 495.34024 
C 181.68213 493.84024 181.68213 484.162115 180.18213 482.662115 
C 178.68213 481.162115 168.891505 481.162115 167.391505 482.662115 
C 165.891505 484.162115 165.891505 493.84024 167.391505 495.34024 
z
" style="fill:#ffffff;stroke:#8c564b;stroke-linejoin:miter;"/>
    </g>
    <!-- IA -->
    <defs>
     <path d="M 9.8125 72.90625 
L 19.671875 72.90625 
L 19.671875 0 
L 9.8125 0 
z
" id="DejaVuSans-73"/>
    </defs>
    <g style="fill:#8c564b;" transform="translate(168.891505 491.760552)scale(0.1 -0.1)">
     <use xlink:href="#DejaVuSans-73"/>
     <use x="29.492188" xlink:href="#DejaVuSans-65"/>
    </g>
   </g>
   <g id="text_13">
    <g id="patch_11">
     <path d="M 274.057377 487.166452 
C 275.557377 488.666452 288.463627 488.666452 289.963627 487.166452 
C 291.463627 485.666452 291.463627 475.988327 289.963627 474.488327 
C 288.463627 472.988327 275.557377 472.988327 274.057377 474.488327 
C 272.557377 475.988327 272.557377 485.666452 274.057377 487.166452 
z
" style="fill:#ffffff;stroke:#e377c2;stroke-linejoin:miter;"/>
    </g>
    <!-- KS -->
    <defs>
     <path d="M 9.8125 72.90625 
L 19.671875 72.90625 
L 19.671875 42.09375 
L 52.390625 72.90625 
L 65.09375 72.90625 
L 28.90625 38.921875 
L 67.671875 0 
L 54.6875 0 
L 19.671875 35.109375 
L 19.671875 0 
L 9.8125 0 
z
" id="DejaVuSans-75"/>
     <path d="M 53.515625 70.515625 
L 53.515625 60.890625 
Q 47.90625 63.578125 42.921875 64.890625 
Q 37.9375 66.21875 33.296875 66.21875 
Q 25.25 66.21875 20.875 63.09375 
Q 16.5 59.96875 16.5 54.203125 
Q 16.5 49.359375 19.40625 46.890625 
Q 22.3125 44.4375 30.421875 42.921875 
L 36.375 41.703125 
Q 47.40625 39.59375 52.65625 34.296875 
Q 57.90625 29 57.90625 20.125 
Q 57.90625 9.515625 50.796875 4.046875 
Q 43.703125 -1.421875 29.984375 -1.421875 
Q 24.8125 -1.421875 18.96875 -0.25 
Q 13.140625 0.921875 6.890625 3.21875 
L 6.890625 13.375 
Q 12.890625 10.015625 18.65625 8.296875 
Q 24.421875 6.59375 29.984375 6.59375 
Q 38.421875 6.59375 43.015625 9.90625 
Q 47.609375 13.234375 47.609375 19.390625 
Q 47.609375 24.75 44.3125 27.78125 
Q 41.015625 30.8125 33.5 32.328125 
L 27.484375 33.5 
Q 16.453125 35.6875 11.515625 40.375 
Q 6.59375 45.0625 6.59375 53.421875 
Q 6.59375 63.09375 13.40625 68.65625 
Q 20.21875 74.21875 32.171875 74.21875 
Q 37.3125 74.21875 42.625 73.28125 
Q 47.953125 72.359375 53.515625 70.515625 
z
" id="DejaVuSans-83"/>
    </defs>
    <g style="fill:#e377c2;" transform="translate(275.557377 483.586764)scale(0.1 -0.1)">
     <use xlink:href="#DejaVuSans-75"/>
     <use x="65.576172" xlink:href="#DejaVuSans-83"/>
    </g>
   </g>
   <g id="text_14">
    <g id="patch_12">
     <path d="M 508.722295 375.6072 
C 510.222295 377.1072 522.52542 377.1072 524.02542 375.6072 
C 525.52542 374.1072 525.52542 364.429075 524.02542 362.929075 
C 522.52542 361.429075 510.222295 361.429075 508.722295 362.929075 
C 507.222295 364.429075 507.222295 374.1072 508.722295 375.6072 
z
" style="fill:#ffffff;stroke:#7f7f7f;stroke-linejoin:miter;"/>
    </g>
    <!-- KY -->
    <defs>
     <path d="M -0.203125 72.90625 
L 10.40625 72.90625 
L 30.609375 42.921875 
L 50.6875 72.90625 
L 61.28125 72.90625 
L 35.5 34.71875 
L 35.5 0 
L 25.59375 0 
L 25.59375 34.71875 
z
" id="DejaVuSans-89"/>
    </defs>
    <g style="fill:#7f7f7f;" transform="translate(510.222295 372.027512)scale(0.1 -0.1)">
     <use xlink:href="#DejaVuSans-75"/>
     <use x="61.951172" xlink:href="#DejaVuSans-89"/>
    </g>
   </g>
   <g id="text_15">
    <g id="patch_13">
     <path d="M 389.710993 338.339858 
C 391.210993 339.839858 407.320368 339.839858 408.820368 338.339858 
C 410.320368 336.839858 410.320368 327.161733 408.820368 325.661733 
C 407.320368 324.161733 391.210993 324.161733 389.710993 325.661733 
C 388.210993 327.161733 388.210993 336.839858 389.710993 338.339858 
z
" style="fill:#ffffff;stroke:#bcbd22;stroke-linejoin:miter;"/>
    </g>
    <!-- MN -->
    <defs>
     <path d="M 9.8125 72.90625 
L 24.515625 72.90625 
L 43.109375 23.296875 
L 61.8125 72.90625 
L 76.515625 72.90625 
L 76.515625 0 
L 66.890625 0 
L 66.890625 64.015625 
L 48.09375 14.015625 
L 38.1875 14.015625 
L 19.390625 64.015625 
L 19.390625 0 
L 9.8125 0 
z
" id="DejaVuSans-77"/>
     <path d="M 9.8125 72.90625 
L 23.09375 72.90625 
L 55.421875 11.921875 
L 55.421875 72.90625 
L 64.984375 72.90625 
L 64.984375 0 
L 51.703125 0 
L 19.390625 60.984375 
L 19.390625 0 
L 9.8125 0 
z
" id="DejaVuSans-78"/>
    </defs>
    <g style="fill:#bcbd22;" transform="translate(391.210993 334.76017)scale(0.1 -0.1)">
     <use xlink:href="#DejaVuSans-77"/>
     <use x="86.279297" xlink:href="#DejaVuSans-78"/>
    </g>
   </g>
   <g id="text_16">
    <g id="patch_14">
     <path d="M 581.414754 313.610889 
C 582.914754 315.110889 599.414754 315.110889 600.914754 313.610889 
C 602.414754 312.110889 602.414754 302.432764 600.914754 300.932764 
C 599.414754 299.432764 582.914754 299.432764 581.414754 300.932764 
C 579.914754 302.432764 579.914754 312.110889 581.414754 313.610889 
z
" style="fill:#ffffff;stroke:#17becf;stroke-linejoin:miter;"/>
    </g>
    <!-- MO -->
    <g style="fill:#17becf;" transform="translate(582.914754 310.031202)scale(0.1 -0.1)">
     <use xlink:href="#DejaVuSans-77"/>
     <use x="86.279297" xlink:href="#DejaVuSans-79"/>
    </g>
   </g>
   <g id="text_17">
    <g id="patch_15">
     <path d="M 491.159016 359.684692 
C 492.659016 361.184692 507.635579 361.184692 509.135579 359.684692 
C 510.635579 358.184692 510.635579 348.506567 509.135579 347.006567 
C 507.635579 345.506567 492.659016 345.506567 491.159016 347.006567 
C 489.659016 348.506567 489.659016 358.184692 491.159016 359.684692 
z
" style="fill:#ffffff;stroke:#1f77b4;stroke-linejoin:miter;"/>
    </g>
    <!-- MS -->
    <g style="fill:#1f77b4;" transform="translate(492.659016 356.105004)scale(0.1 -0.1)">
     <use xlink:href="#DejaVuSans-77"/>
     <use x="86.279297" xlink:href="#DejaVuSans-83"/>
    </g>
   </g>
   <g id="text_18">
    <g id="patch_16">
     <path d="M 475.857675 300.855683 
C 477.357675 302.355683 491.821738 302.355683 493.321738 300.855683 
C 494.821738 299.355683 494.821738 289.677558 493.321738 288.177558 
C 491.821738 286.677558 477.357675 286.677558 475.857675 288.177558 
C 474.357675 289.677558 474.357675 299.355683 475.857675 300.855683 
z
" style="fill:#ffffff;stroke:#ff7f0e;stroke-linejoin:miter;"/>
    </g>
    <!-- NC -->
    <g style="fill:#ff7f0e;" transform="translate(477.357675 297.275995)scale(0.1 -0.1)">
     <use xlink:href="#DejaVuSans-78"/>
     <use x="74.804688" xlink:href="#DejaVuSans-67"/>
    </g>
   </g>
   <g id="text_19">
    <g id="patch_17">
     <path d="M 570.992101 374.583437 
C 572.492101 376.083437 586.813976 376.083437 588.313976 374.583437 
C 589.813976 373.083437 589.813976 363.405312 588.313976 361.905312 
C 586.813976 360.405312 572.492101 360.405312 570.992101 361.905312 
C 569.492101 363.405312 569.492101 373.083437 570.992101 374.583437 
z
" style="fill:#ffffff;stroke:#2ca02c;stroke-linejoin:miter;"/>
    </g>
    <!-- NV -->
    <defs>
     <path d="M 28.609375 0 
L 0.78125 72.90625 
L 11.078125 72.90625 
L 34.1875 11.53125 
L 57.328125 72.90625 
L 67.578125 72.90625 
L 39.796875 0 
z
" id="DejaVuSans-86"/>
    </defs>
    <g style="fill:#2ca02c;" transform="translate(572.492101 371.00375)scale(0.1 -0.1)">
     <use xlink:href="#DejaVuSans-78"/>
     <use x="74.804688" xlink:href="#DejaVuSans-86"/>
    </g>
   </g>
   <g id="text_20">
    <g id="patch_18">
     <path d="M 492.514208 387.140821 
C 494.014208 388.640821 508.443895 388.640821 509.943895 387.140821 
C 511.443895 385.640821 511.443895 375.962696 509.943895 374.462696 
C 508.443895 372.962696 494.014208 372.962696 492.514208 374.462696 
C 491.014208 375.962696 491.014208 385.640821 492.514208 387.140821 
z
" style="fill:#ffffff;stroke:#d62728;stroke-linejoin:miter;"/>
    </g>
    <!-- OK -->
    <g style="fill:#d62728;" transform="translate(494.014208 383.561133)scale(0.1 -0.1)">
     <use xlink:href="#DejaVuSans-79"/>
     <use x="78.710938" xlink:href="#DejaVuSans-75"/>
    </g>
   </g>
   <g id="text_21">
    <g id="patch_19">
     <path d="M 409.712022 365.544101 
C 411.212022 367.044101 421.110459 367.044101 422.610459 365.544101 
C 424.110459 364.044101 424.110459 354.365976 422.610459 352.865976 
C 421.110459 351.365976 411.212022 351.365976 409.712022 352.865976 
C 408.212022 354.365976 408.212022 364.044101 409.712022 365.544101 
z
" style="fill:#ffffff;stroke:#9467bd;stroke-linejoin:miter;"/>
    </g>
    <!-- RI -->
    <defs>
     <path d="M 44.390625 34.1875 
Q 47.5625 33.109375 50.5625 29.59375 
Q 53.5625 26.078125 56.59375 19.921875 
L 66.609375 0 
L 56 0 
L 46.6875 18.703125 
Q 43.0625 26.03125 39.671875 28.421875 
Q 36.28125 30.8125 30.421875 30.8125 
L 19.671875 30.8125 
L 19.671875 0 
L 9.8125 0 
L 9.8125 72.90625 
L 32.078125 72.90625 
Q 44.578125 72.90625 50.734375 67.671875 
Q 56.890625 62.453125 56.890625 51.90625 
Q 56.890625 45.015625 53.6875 40.46875 
Q 50.484375 35.9375 44.390625 34.1875 
z
M 19.671875 64.796875 
L 19.671875 38.921875 
L 32.078125 38.921875 
Q 39.203125 38.921875 42.84375 42.21875 
Q 46.484375 45.515625 46.484375 51.90625 
Q 46.484375 58.296875 42.84375 61.546875 
Q 39.203125 64.796875 32.078125 64.796875 
z
" id="DejaVuSans-82"/>
    </defs>
    <g style="fill:#9467bd;" transform="translate(411.212022 361.964414)scale(0.1 -0.1)">
     <use xlink:href="#DejaVuSans-82"/>
     <use x="69.482422" xlink:href="#DejaVuSans-73"/>
    </g>
   </g>
   <g id="text_22">
    <g id="patch_20">
     <path d="M 454.812787 419.057683 
C 456.312787 420.557683 469.644037 420.557683 471.144037 419.057683 
C 472.644037 417.557683 472.644037 407.879558 471.144037 406.379558 
C 469.644037 404.879558 456.312787 404.879558 454.812787 406.379558 
C 453.312787 407.879558 453.312787 417.557683 454.812787 419.057683 
z
" style="fill:#ffffff;stroke:#8c564b;stroke-linejoin:miter;"/>
    </g>
    <!-- SC -->
    <g style="fill:#8c564b;" transform="translate(456.312787 415.477996)scale(0.1 -0.1)">
     <use xlink:href="#DejaVuSans-83"/>
     <use x="63.476562" xlink:href="#DejaVuSans-67"/>
    </g>
   </g>
   <g id="text_23">
    <g id="patch_21">
     <path d="M 570.031148 404.888871 
C 571.531148 406.388871 585.12021 406.388871 586.62021 404.888871 
C 588.12021 403.388871 588.12021 393.710746 586.62021 392.210746 
C 585.12021 390.710746 571.531148 390.710746 570.031148 392.210746 
C 568.531148 393.710746 568.531148 403.388871 570.031148 404.888871 
z
" style="fill:#ffffff;stroke:#e377c2;stroke-linejoin:miter;"/>
    </g>
    <!-- TN -->
    <defs>
     <path d="M -0.296875 72.90625 
L 61.375 72.90625 
L 61.375 64.59375 
L 35.5 64.59375 
L 35.5 0 
L 25.59375 0 
L 25.59375 64.59375 
L -0.296875 64.59375 
z
" id="DejaVuSans-84"/>
    </defs>
    <g style="fill:#e377c2;" transform="translate(571.531148 401.309184)scale(0.1 -0.1)">
     <use xlink:href="#DejaVuSans-84"/>
     <use x="61.083984" xlink:href="#DejaVuSans-78"/>
    </g>
   </g>
   <g id="text_24">
    <g id="patch_22">
     <path d="M 792.011475 113.855254 
C 793.511475 115.355254 806.469288 115.355254 807.969288 113.855254 
C 809.469288 112.355254 809.469288 102.677129 807.969288 101.177129 
C 806.469288 99.677129 793.511475 99.677129 792.011475 101.177129 
C 790.511475 102.677129 790.511475 112.355254 792.011475 113.855254 
z
" style="fill:#ffffff;stroke:#7f7f7f;stroke-linejoin:miter;"/>
    </g>
    <!-- TX -->
    <defs>
     <path d="M 6.296875 72.90625 
L 16.890625 72.90625 
L 35.015625 45.796875 
L 53.21875 72.90625 
L 63.8125 72.90625 
L 40.375 37.890625 
L 65.375 0 
L 54.78125 0 
L 34.28125 31 
L 13.625 0 
L 2.984375 0 
L 29 38.921875 
z
" id="DejaVuSans-88"/>
    </defs>
    <g style="fill:#7f7f7f;" transform="translate(793.511475 110.275567)scale(0.1 -0.1)">
     <use xlink:href="#DejaVuSans-84"/>
     <use x="61.083984" xlink:href="#DejaVuSans-88"/>
    </g>
   </g>
   <g id="text_25">
    <g id="patch_23">
     <path d="M 631.277821 206.573844 
C 632.777821 208.073844 645.821571 208.073844 647.321571 206.573844 
C 648.821571 205.073844 648.821571 195.395719 647.321571 193.895719 
C 645.821571 192.395719 632.777821 192.395719 631.277821 193.895719 
C 629.777821 195.395719 629.777821 205.073844 631.277821 206.573844 
z
" style="fill:#ffffff;stroke:#bcbd22;stroke-linejoin:miter;"/>
    </g>
    <!-- VA -->
    <g style="fill:#bcbd22;" transform="translate(632.777821 202.994156)scale(0.1 -0.1)">
     <use xlink:href="#DejaVuSans-86"/>
     <use x="62.033203" xlink:href="#DejaVuSans-65"/>
    </g>
   </g>
   <g id="text_26">
    <g id="patch_24">
     <path d="M 651.952459 319.380104 
C 653.452459 320.880104 666.289959 320.880104 667.789959 319.380104 
C 669.289959 317.880104 669.289959 308.201979 667.789959 306.701979 
C 666.289959 305.201979 653.452459 305.201979 651.952459 306.701979 
C 650.452459 308.201979 650.452459 317.880104 651.952459 319.380104 
z
" style="fill:#ffffff;stroke:#17becf;stroke-linejoin:miter;"/>
    </g>
    <!-- WI -->
    <defs>
     <path d="M 3.328125 72.90625 
L 13.28125 72.90625 
L 28.609375 11.28125 
L 43.890625 72.90625 
L 54.984375 72.90625 
L 70.3125 11.28125 
L 85.59375 72.90625 
L 95.609375 72.90625 
L 77.296875 0 
L 64.890625 0 
L 49.515625 63.28125 
L 33.984375 0 
L 21.578125 0 
z
" id="DejaVuSans-87"/>
    </defs>
    <g style="fill:#17becf;" transform="translate(653.452459 315.800416)scale(0.1 -0.1)">
     <use xlink:href="#DejaVuSans-87"/>
     <use x="98.876953" xlink:href="#DejaVuSans-73"/>
    </g>
   </g>
   <g id="text_27">
    <!-- 1d -->
    <g style="fill:#b2b2b2;" transform="translate(180.792131 95.68053)scale(0.1 -0.1)">
     <use xlink:href="#DejaVuSans-49"/>
     <use x="63.623047" xlink:href="#DejaVuSans-100"/>
    </g>
   </g>
   <g id="text_28">
    <!-- 2d -->
    <g style="fill:#b2b2b2;" transform="translate(272.75541 86.340972)scale(0.1 -0.1)">
     <use xlink:href="#DejaVuSans-50"/>
     <use x="63.623047" xlink:href="#DejaVuSans-100"/>
    </g>
   </g>
   <g id="text_29">
    <!-- 3d -->
    <defs>
     <path d="M 40.578125 39.3125 
Q 47.65625 37.796875 51.625 33 
Q 55.609375 28.21875 55.609375 21.1875 
Q 55.609375 10.40625 48.1875 4.484375 
Q 40.765625 -1.421875 27.09375 -1.421875 
Q 22.515625 -1.421875 17.65625 -0.515625 
Q 12.796875 0.390625 7.625 2.203125 
L 7.625 11.71875 
Q 11.71875 9.328125 16.59375 8.109375 
Q 21.484375 6.890625 26.8125 6.890625 
Q 36.078125 6.890625 40.9375 10.546875 
Q 45.796875 14.203125 45.796875 21.1875 
Q 45.796875 27.640625 41.28125 31.265625 
Q 36.765625 34.90625 28.71875 34.90625 
L 20.21875 34.90625 
L 20.21875 43.015625 
L 29.109375 43.015625 
Q 36.375 43.015625 40.234375 45.921875 
Q 44.09375 48.828125 44.09375 54.296875 
Q 44.09375 59.90625 40.109375 62.90625 
Q 36.140625 65.921875 28.71875 65.921875 
Q 24.65625 65.921875 20.015625 65.03125 
Q 15.375 64.15625 9.8125 62.3125 
L 9.8125 71.09375 
Q 15.4375 72.65625 20.34375 73.4375 
Q 25.25 74.21875 29.59375 74.21875 
Q 40.828125 74.21875 47.359375 69.109375 
Q 53.90625 64.015625 53.90625 55.328125 
Q 53.90625 49.265625 50.4375 45.09375 
Q 46.96875 40.921875 40.578125 39.3125 
z
" id="DejaVuSans-51"/>
    </defs>
    <g style="fill:#b2b2b2;" transform="translate(361.547541 89.461354)scale(0.1 -0.1)">
     <use xlink:href="#DejaVuSans-51"/>
     <use x="63.623047" xlink:href="#DejaVuSans-100"/>
    </g>
   </g>
   <g id="text_30">
    <!-- 7d -->
    <g style="fill:#b2b2b2;" transform="translate(726.229508 85.001457)scale(0.1 -0.1)">
     <use xlink:href="#DejaVuSans-55"/>
     <use x="63.623047" xlink:href="#DejaVuSans-100"/>
    </g>
   </g>
   <g id="text_31">
    <!-- COVID-19 Deaths by States as of 2020-04-26 03:04 EDT -->
    <defs>
     <path d="M 4.890625 31.390625 
L 31.203125 31.390625 
L 31.203125 23.390625 
L 4.890625 23.390625 
z
" id="DejaVuSans-45"/>
     <path d="M 10.984375 1.515625 
L 10.984375 10.5 
Q 14.703125 8.734375 18.5 7.8125 
Q 22.3125 6.890625 25.984375 6.890625 
Q 35.75 6.890625 40.890625 13.453125 
Q 46.046875 20.015625 46.78125 33.40625 
Q 43.953125 29.203125 39.59375 26.953125 
Q 35.25 24.703125 29.984375 24.703125 
Q 19.046875 24.703125 12.671875 31.3125 
Q 6.296875 37.9375 6.296875 49.421875 
Q 6.296875 60.640625 12.9375 67.421875 
Q 19.578125 74.21875 30.609375 74.21875 
Q 43.265625 74.21875 49.921875 64.515625 
Q 56.59375 54.828125 56.59375 36.375 
Q 56.59375 19.140625 48.40625 8.859375 
Q 40.234375 -1.421875 26.421875 -1.421875 
Q 22.703125 -1.421875 18.890625 -0.6875 
Q 15.09375 0.046875 10.984375 1.515625 
z
M 30.609375 32.421875 
Q 37.25 32.421875 41.125 36.953125 
Q 45.015625 41.5 45.015625 49.421875 
Q 45.015625 57.28125 41.125 61.84375 
Q 37.25 66.40625 30.609375 66.40625 
Q 23.96875 66.40625 20.09375 61.84375 
Q 16.21875 57.28125 16.21875 49.421875 
Q 16.21875 41.5 20.09375 36.953125 
Q 23.96875 32.421875 30.609375 32.421875 
z
" id="DejaVuSans-57"/>
     <path d="M 48.6875 27.296875 
Q 48.6875 37.203125 44.609375 42.84375 
Q 40.53125 48.484375 33.40625 48.484375 
Q 26.265625 48.484375 22.1875 42.84375 
Q 18.109375 37.203125 18.109375 27.296875 
Q 18.109375 17.390625 22.1875 11.75 
Q 26.265625 6.109375 33.40625 6.109375 
Q 40.53125 6.109375 44.609375 11.75 
Q 48.6875 17.390625 48.6875 27.296875 
z
M 18.109375 46.390625 
Q 20.953125 51.265625 25.265625 53.625 
Q 29.59375 56 35.59375 56 
Q 45.5625 56 51.78125 48.09375 
Q 58.015625 40.1875 58.015625 27.296875 
Q 58.015625 14.40625 51.78125 6.484375 
Q 45.5625 -1.421875 35.59375 -1.421875 
Q 29.59375 -1.421875 25.265625 0.953125 
Q 20.953125 3.328125 18.109375 8.203125 
L 18.109375 0 
L 9.078125 0 
L 9.078125 75.984375 
L 18.109375 75.984375 
z
" id="DejaVuSans-98"/>
     <path d="M 30.609375 48.390625 
Q 23.390625 48.390625 19.1875 42.75 
Q 14.984375 37.109375 14.984375 27.296875 
Q 14.984375 17.484375 19.15625 11.84375 
Q 23.34375 6.203125 30.609375 6.203125 
Q 37.796875 6.203125 41.984375 11.859375 
Q 46.1875 17.53125 46.1875 27.296875 
Q 46.1875 37.015625 41.984375 42.703125 
Q 37.796875 48.390625 30.609375 48.390625 
z
M 30.609375 56 
Q 42.328125 56 49.015625 48.375 
Q 55.71875 40.765625 55.71875 27.296875 
Q 55.71875 13.875 49.015625 6.21875 
Q 42.328125 -1.421875 30.609375 -1.421875 
Q 18.84375 -1.421875 12.171875 6.21875 
Q 5.515625 13.875 5.515625 27.296875 
Q 5.515625 40.765625 12.171875 48.375 
Q 18.84375 56 30.609375 56 
z
" id="DejaVuSans-111"/>
     <path d="M 37.109375 75.984375 
L 37.109375 68.5 
L 28.515625 68.5 
Q 23.6875 68.5 21.796875 66.546875 
Q 19.921875 64.59375 19.921875 59.515625 
L 19.921875 54.6875 
L 34.71875 54.6875 
L 34.71875 47.703125 
L 19.921875 47.703125 
L 19.921875 0 
L 10.890625 0 
L 10.890625 47.703125 
L 2.296875 47.703125 
L 2.296875 54.6875 
L 10.890625 54.6875 
L 10.890625 58.5 
Q 10.890625 67.625 15.140625 71.796875 
Q 19.390625 75.984375 28.609375 75.984375 
z
" id="DejaVuSans-102"/>
     <path d="M 33.015625 40.375 
Q 26.375 40.375 22.484375 35.828125 
Q 18.609375 31.296875 18.609375 23.390625 
Q 18.609375 15.53125 22.484375 10.953125 
Q 26.375 6.390625 33.015625 6.390625 
Q 39.65625 6.390625 43.53125 10.953125 
Q 47.40625 15.53125 47.40625 23.390625 
Q 47.40625 31.296875 43.53125 35.828125 
Q 39.65625 40.375 33.015625 40.375 
z
M 52.59375 71.296875 
L 52.59375 62.3125 
Q 48.875 64.0625 45.09375 64.984375 
Q 41.3125 65.921875 37.59375 65.921875 
Q 27.828125 65.921875 22.671875 59.328125 
Q 17.53125 52.734375 16.796875 39.40625 
Q 19.671875 43.65625 24.015625 45.921875 
Q 28.375 48.1875 33.59375 48.1875 
Q 44.578125 48.1875 50.953125 41.515625 
Q 57.328125 34.859375 57.328125 23.390625 
Q 57.328125 12.15625 50.6875 5.359375 
Q 44.046875 -1.421875 33.015625 -1.421875 
Q 20.359375 -1.421875 13.671875 8.265625 
Q 6.984375 17.96875 6.984375 36.375 
Q 6.984375 53.65625 15.1875 63.9375 
Q 23.390625 74.21875 37.203125 74.21875 
Q 40.921875 74.21875 44.703125 73.484375 
Q 48.484375 72.75 52.59375 71.296875 
z
" id="DejaVuSans-54"/>
     <path d="M 11.71875 12.40625 
L 22.015625 12.40625 
L 22.015625 0 
L 11.71875 0 
z
M 11.71875 51.703125 
L 22.015625 51.703125 
L 22.015625 39.3125 
L 11.71875 39.3125 
z
" id="DejaVuSans-58"/>
    </defs>
    <g style="fill:#666666;" transform="translate(310.883438 63.12)scale(0.12 -0.12)">
     <use xlink:href="#DejaVuSans-67"/>
     <use x="69.824219" xlink:href="#DejaVuSans-79"/>
     <use x="146.785156" xlink:href="#DejaVuSans-86"/>
     <use x="215.193359" xlink:href="#DejaVuSans-73"/>
     <use x="244.685547" xlink:href="#DejaVuSans-68"/>
     <use x="321.6875" xlink:href="#DejaVuSans-45"/>
     <use x="357.771484" xlink:href="#DejaVuSans-49"/>
     <use x="421.394531" xlink:href="#DejaVuSans-57"/>
     <use x="485.017578" xlink:href="#DejaVuSans-32"/>
     <use x="516.804688" xlink:href="#DejaVuSans-68"/>
     <use x="593.806641" xlink:href="#DejaVuSans-101"/>
     <use x="655.330078" xlink:href="#DejaVuSans-97"/>
     <use x="716.609375" xlink:href="#DejaVuSans-116"/>
     <use x="755.818359" xlink:href="#DejaVuSans-104"/>
     <use x="819.197266" xlink:href="#DejaVuSans-115"/>
     <use x="871.296875" xlink:href="#DejaVuSans-32"/>
     <use x="903.083984" xlink:href="#DejaVuSans-98"/>
     <use x="966.560547" xlink:href="#DejaVuSans-121"/>
     <use x="1025.740234" xlink:href="#DejaVuSans-32"/>
     <use x="1057.527344" xlink:href="#DejaVuSans-83"/>
     <use x="1121.003906" xlink:href="#DejaVuSans-116"/>
     <use x="1160.212891" xlink:href="#DejaVuSans-97"/>
     <use x="1221.492188" xlink:href="#DejaVuSans-116"/>
     <use x="1260.701172" xlink:href="#DejaVuSans-101"/>
     <use x="1322.224609" xlink:href="#DejaVuSans-115"/>
     <use x="1374.324219" xlink:href="#DejaVuSans-32"/>
     <use x="1406.111328" xlink:href="#DejaVuSans-97"/>
     <use x="1467.390625" xlink:href="#DejaVuSans-115"/>
     <use x="1519.490234" xlink:href="#DejaVuSans-32"/>
     <use x="1551.277344" xlink:href="#DejaVuSans-111"/>
     <use x="1612.458984" xlink:href="#DejaVuSans-102"/>
     <use x="1647.664062" xlink:href="#DejaVuSans-32"/>
     <use x="1679.451172" xlink:href="#DejaVuSans-50"/>
     <use x="1743.074219" xlink:href="#DejaVuSans-48"/>
     <use x="1806.697266" xlink:href="#DejaVuSans-50"/>
     <use x="1870.320312" xlink:href="#DejaVuSans-48"/>
     <use x="1933.943359" xlink:href="#DejaVuSans-45"/>
     <use x="1970.027344" xlink:href="#DejaVuSans-48"/>
     <use x="2033.650391" xlink:href="#DejaVuSans-52"/>
     <use x="2097.273438" xlink:href="#DejaVuSans-45"/>
     <use x="2133.357422" xlink:href="#DejaVuSans-50"/>
     <use x="2196.980469" xlink:href="#DejaVuSans-54"/>
     <use x="2260.603516" xlink:href="#DejaVuSans-32"/>
     <use x="2292.390625" xlink:href="#DejaVuSans-48"/>
     <use x="2356.013672" xlink:href="#DejaVuSans-51"/>
     <use x="2419.636719" xlink:href="#DejaVuSans-58"/>
     <use x="2453.328125" xlink:href="#DejaVuSans-48"/>
     <use x="2516.951172" xlink:href="#DejaVuSans-52"/>
     <use x="2580.574219" xlink:href="#DejaVuSans-32"/>
     <use x="2612.361328" xlink:href="#DejaVuSans-69"/>
     <use x="2675.544922" xlink:href="#DejaVuSans-68"/>
     <use x="2752.546875" xlink:href="#DejaVuSans-84"/>
    </g>
   </g>
  </g>
 </g>
 <defs>
  <clipPath id="p761a79b90c">
   <rect height="443.52" width="725.4" x="117" y="69.12"/>
  </clipPath>
 </defs>
</svg>
