<?xml version="1.0" encoding="utf-8" standalone="no"?>
<!DOCTYPE svg PUBLIC "-//W3C//DTD SVG 1.1//EN"
  "http://www.w3.org/Graphics/SVG/1.1/DTD/svg11.dtd">
<!-- Created with matplotlib (https://matplotlib.org/) -->
<svg height="576pt" version="1.1" viewBox="0 0 936 576" width="936pt" xmlns="http://www.w3.org/2000/svg" xmlns:xlink="http://www.w3.org/1999/xlink">
 <defs>
  <style type="text/css">
*{stroke-linecap:butt;stroke-linejoin:round;}
  </style>
 </defs>
 <g id="figure_1">
  <g id="patch_1">
   <path d="M 0 576 
L 936 576 
L 936 0 
L 0 0 
z
" style="fill:#ffffff;"/>
  </g>
  <g id="axes_1">
   <g id="patch_2">
    <path d="M 117 512.64 
L 842.4 512.64 
L 842.4 69.12 
L 117 69.12 
z
" style="fill:#ffffff;"/>
   </g>
   <g id="line2d_1">
    <path clip-path="url(#p795461666e)" d="M 117 512.64 
L 122.809009 487.876547 
L 128.618018 462.416898 
L 134.427027 436.241481 
L 140.236036 409.330173 
L 146.045045 381.662285 
L 151.854054 353.216547 
L 157.663063 323.97109 
L 163.472072 293.903432 
L 169.281081 262.990456 
L 175.09009 231.208399 
L 180.899099 198.532826 
L 186.708108 164.938618 
L 192.517117 130.399948 
L 198.326126 94.890265 
L 204.135135 58.382268 
L 209.944144 20.847891 
L 213.25032 -1 
L 213.25032 -1 
" style="fill:none;stroke:#b2b2b2;stroke-dasharray:1.5,2.475;stroke-dashoffset:0;stroke-width:1.5;"/>
   </g>
   <g id="line2d_2">
    <path clip-path="url(#p795461666e)" d="M 117 512.64 
L 128.618018 487.876547 
L 140.236036 462.416898 
L 148.94955 442.853529 
L 157.663063 422.879093 
L 166.376577 402.484951 
L 175.09009 381.662285 
L 183.803604 360.40209 
L 192.517117 338.695174 
L 201.230631 316.532149 
L 209.944144 293.903432 
L 218.657658 270.799237 
L 227.371171 247.209574 
L 236.084685 223.124242 
L 244.798198 198.532826 
L 253.511712 173.424692 
L 262.225225 147.788983 
L 270.938739 121.614614 
L 279.652252 94.890265 
L 288.365766 67.60438 
L 297.079279 39.745161 
L 305.792793 11.300561 
L 309.503434 -1 
L 309.503434 -1 
" style="fill:none;stroke:#b2b2b2;stroke-dasharray:1.5,2.475;stroke-dashoffset:0;stroke-width:1.5;"/>
   </g>
   <g id="line2d_3">
    <path clip-path="url(#p795461666e)" d="M 117 512.64 
L 131.522523 492.051615 
L 146.045045 470.981999 
L 157.663063 453.772271 
L 169.281081 436.241481 
L 180.899099 418.38364 
L 192.517117 400.192646 
L 204.135135 381.662285 
L 215.753153 362.786225 
L 227.371171 343.558016 
L 238.989189 323.97109 
L 250.607207 304.018754 
L 262.225225 283.694191 
L 273.843243 262.990456 
L 285.461261 241.900477 
L 297.079279 220.417047 
L 308.697297 198.532826 
L 320.315315 176.240338 
L 331.933333 153.531965 
L 343.551351 130.399948 
L 355.169369 106.836386 
L 366.787387 82.833226 
L 378.405405 58.382268 
L 390.023423 33.475157 
L 401.641441 8.103384 
L 405.75655 -1 
L 405.75655 -1 
" style="fill:none;stroke:#b2b2b2;stroke-dasharray:1.5,2.475;stroke-dashoffset:0;stroke-width:1.5;"/>
   </g>
   <g id="line2d_4">
    <path clip-path="url(#p795461666e)" d="M 117 512.64 
L 143.140541 496.799558 
L 169.281081 480.674247 
L 195.421622 464.258946 
L 218.657658 449.419905 
L 241.893694 434.343891 
L 265.12973 419.02712 
L 288.365766 403.465747 
L 311.601802 387.655866 
L 334.837838 371.593509 
L 358.073874 355.274644 
L 381.30991 338.695174 
L 404.545946 321.850937 
L 427.781982 304.737706 
L 451.018018 287.351184 
L 474.254054 269.687008 
L 497.49009 251.740743 
L 520.726126 233.507884 
L 543.962162 214.983856 
L 567.198198 196.164007 
L 590.434234 177.043614 
L 613.67027 157.617877 
L 636.906306 137.88192 
L 660.142342 117.830789 
L 683.378378 97.45945 
L 706.614414 76.762791 
L 729.85045 55.735616 
L 753.086486 34.372647 
L 776.322523 12.66852 
L 790.769018 -1 
L 790.769018 -1 
" style="fill:none;stroke:#b2b2b2;stroke-dasharray:1.5,2.475;stroke-dashoffset:0;stroke-width:1.5;"/>
   </g>
   <g id="matplotlib.axis_1">
    <g id="xtick_1">
     <g id="line2d_5">
      <path clip-path="url(#p795461666e)" d="M 117 512.64 
L 117 69.12 
" style="fill:none;stroke:#e6e6e6;stroke-linecap:square;stroke-width:0.8;"/>
     </g>
     <g id="line2d_6">
      <defs>
       <path d="M 0 0 
L 0 3.5 
" id="me4ecac9070" style="stroke:#666666;stroke-width:0.8;"/>
      </defs>
      <g>
       <use style="fill:#666666;stroke:#666666;stroke-width:0.8;" x="117" xlink:href="#me4ecac9070" y="512.64"/>
      </g>
     </g>
     <g id="text_1">
      <!-- 0 -->
      <defs>
       <path d="M 31.78125 66.40625 
Q 24.171875 66.40625 20.328125 58.90625 
Q 16.5 51.421875 16.5 36.375 
Q 16.5 21.390625 20.328125 13.890625 
Q 24.171875 6.390625 31.78125 6.390625 
Q 39.453125 6.390625 43.28125 13.890625 
Q 47.125 21.390625 47.125 36.375 
Q 47.125 51.421875 43.28125 58.90625 
Q 39.453125 66.40625 31.78125 66.40625 
z
M 31.78125 74.21875 
Q 44.046875 74.21875 50.515625 64.515625 
Q 56.984375 54.828125 56.984375 36.375 
Q 56.984375 17.96875 50.515625 8.265625 
Q 44.046875 -1.421875 31.78125 -1.421875 
Q 19.53125 -1.421875 13.0625 8.265625 
Q 6.59375 17.96875 6.59375 36.375 
Q 6.59375 54.828125 13.0625 64.515625 
Q 19.53125 74.21875 31.78125 74.21875 
z
" id="DejaVuSans-48"/>
      </defs>
      <g style="fill:#666666;" transform="translate(113.81875 527.238438)scale(0.1 -0.1)">
       <use xlink:href="#DejaVuSans-48"/>
      </g>
     </g>
    </g>
    <g id="xtick_2">
     <g id="line2d_7">
      <path clip-path="url(#p795461666e)" d="M 320.315315 512.64 
L 320.315315 69.12 
" style="fill:none;stroke:#e6e6e6;stroke-linecap:square;stroke-width:0.8;"/>
     </g>
     <g id="line2d_8">
      <g>
       <use style="fill:#666666;stroke:#666666;stroke-width:0.8;" x="320.315315" xlink:href="#me4ecac9070" y="512.64"/>
      </g>
     </g>
     <g id="text_2">
      <!-- 7 -->
      <defs>
       <path d="M 8.203125 72.90625 
L 55.078125 72.90625 
L 55.078125 68.703125 
L 28.609375 0 
L 18.3125 0 
L 43.21875 64.59375 
L 8.203125 64.59375 
z
" id="DejaVuSans-55"/>
      </defs>
      <g style="fill:#666666;" transform="translate(317.134065 527.238438)scale(0.1 -0.1)">
       <use xlink:href="#DejaVuSans-55"/>
      </g>
     </g>
    </g>
    <g id="xtick_3">
     <g id="line2d_9">
      <path clip-path="url(#p795461666e)" d="M 523.630631 512.64 
L 523.630631 69.12 
" style="fill:none;stroke:#e6e6e6;stroke-linecap:square;stroke-width:0.8;"/>
     </g>
     <g id="line2d_10">
      <g>
       <use style="fill:#666666;stroke:#666666;stroke-width:0.8;" x="523.630631" xlink:href="#me4ecac9070" y="512.64"/>
      </g>
     </g>
     <g id="text_3">
      <!-- 14 -->
      <defs>
       <path d="M 12.40625 8.296875 
L 28.515625 8.296875 
L 28.515625 63.921875 
L 10.984375 60.40625 
L 10.984375 69.390625 
L 28.421875 72.90625 
L 38.28125 72.90625 
L 38.28125 8.296875 
L 54.390625 8.296875 
L 54.390625 0 
L 12.40625 0 
z
" id="DejaVuSans-49"/>
       <path d="M 37.796875 64.3125 
L 12.890625 25.390625 
L 37.796875 25.390625 
z
M 35.203125 72.90625 
L 47.609375 72.90625 
L 47.609375 25.390625 
L 58.015625 25.390625 
L 58.015625 17.1875 
L 47.609375 17.1875 
L 47.609375 0 
L 37.796875 0 
L 37.796875 17.1875 
L 4.890625 17.1875 
L 4.890625 26.703125 
z
" id="DejaVuSans-52"/>
      </defs>
      <g style="fill:#666666;" transform="translate(517.268131 527.238438)scale(0.1 -0.1)">
       <use xlink:href="#DejaVuSans-49"/>
       <use x="63.623047" xlink:href="#DejaVuSans-52"/>
      </g>
     </g>
    </g>
    <g id="xtick_4">
     <g id="line2d_11">
      <path clip-path="url(#p795461666e)" d="M 726.945946 512.64 
L 726.945946 69.12 
" style="fill:none;stroke:#e6e6e6;stroke-linecap:square;stroke-width:0.8;"/>
     </g>
     <g id="line2d_12">
      <g>
       <use style="fill:#666666;stroke:#666666;stroke-width:0.8;" x="726.945946" xlink:href="#me4ecac9070" y="512.64"/>
      </g>
     </g>
     <g id="text_4">
      <!-- 21 -->
      <defs>
       <path d="M 19.1875 8.296875 
L 53.609375 8.296875 
L 53.609375 0 
L 7.328125 0 
L 7.328125 8.296875 
Q 12.9375 14.109375 22.625 23.890625 
Q 32.328125 33.6875 34.8125 36.53125 
Q 39.546875 41.84375 41.421875 45.53125 
Q 43.3125 49.21875 43.3125 52.78125 
Q 43.3125 58.59375 39.234375 62.25 
Q 35.15625 65.921875 28.609375 65.921875 
Q 23.96875 65.921875 18.8125 64.3125 
Q 13.671875 62.703125 7.8125 59.421875 
L 7.8125 69.390625 
Q 13.765625 71.78125 18.9375 73 
Q 24.125 74.21875 28.421875 74.21875 
Q 39.75 74.21875 46.484375 68.546875 
Q 53.21875 62.890625 53.21875 53.421875 
Q 53.21875 48.921875 51.53125 44.890625 
Q 49.859375 40.875 45.40625 35.40625 
Q 44.1875 33.984375 37.640625 27.21875 
Q 31.109375 20.453125 19.1875 8.296875 
z
" id="DejaVuSans-50"/>
      </defs>
      <g style="fill:#666666;" transform="translate(720.583446 527.238438)scale(0.1 -0.1)">
       <use xlink:href="#DejaVuSans-50"/>
       <use x="63.623047" xlink:href="#DejaVuSans-49"/>
      </g>
     </g>
    </g>
    <g id="text_5">
     <!-- Days since 100 deaths -->
     <defs>
      <path d="M 19.671875 64.796875 
L 19.671875 8.109375 
L 31.59375 8.109375 
Q 46.6875 8.109375 53.6875 14.9375 
Q 60.6875 21.78125 60.6875 36.53125 
Q 60.6875 51.171875 53.6875 57.984375 
Q 46.6875 64.796875 31.59375 64.796875 
z
M 9.8125 72.90625 
L 30.078125 72.90625 
Q 51.265625 72.90625 61.171875 64.09375 
Q 71.09375 55.28125 71.09375 36.53125 
Q 71.09375 17.671875 61.125 8.828125 
Q 51.171875 0 30.078125 0 
L 9.8125 0 
z
" id="DejaVuSans-68"/>
      <path d="M 34.28125 27.484375 
Q 23.390625 27.484375 19.1875 25 
Q 14.984375 22.515625 14.984375 16.5 
Q 14.984375 11.71875 18.140625 8.90625 
Q 21.296875 6.109375 26.703125 6.109375 
Q 34.1875 6.109375 38.703125 11.40625 
Q 43.21875 16.703125 43.21875 25.484375 
L 43.21875 27.484375 
z
M 52.203125 31.203125 
L 52.203125 0 
L 43.21875 0 
L 43.21875 8.296875 
Q 40.140625 3.328125 35.546875 0.953125 
Q 30.953125 -1.421875 24.3125 -1.421875 
Q 15.921875 -1.421875 10.953125 3.296875 
Q 6 8.015625 6 15.921875 
Q 6 25.140625 12.171875 29.828125 
Q 18.359375 34.515625 30.609375 34.515625 
L 43.21875 34.515625 
L 43.21875 35.40625 
Q 43.21875 41.609375 39.140625 45 
Q 35.0625 48.390625 27.6875 48.390625 
Q 23 48.390625 18.546875 47.265625 
Q 14.109375 46.140625 10.015625 43.890625 
L 10.015625 52.203125 
Q 14.9375 54.109375 19.578125 55.046875 
Q 24.21875 56 28.609375 56 
Q 40.484375 56 46.34375 49.84375 
Q 52.203125 43.703125 52.203125 31.203125 
z
" id="DejaVuSans-97"/>
      <path d="M 32.171875 -5.078125 
Q 28.375 -14.84375 24.75 -17.8125 
Q 21.140625 -20.796875 15.09375 -20.796875 
L 7.90625 -20.796875 
L 7.90625 -13.28125 
L 13.1875 -13.28125 
Q 16.890625 -13.28125 18.9375 -11.515625 
Q 21 -9.765625 23.484375 -3.21875 
L 25.09375 0.875 
L 2.984375 54.6875 
L 12.5 54.6875 
L 29.59375 11.921875 
L 46.6875 54.6875 
L 56.203125 54.6875 
z
" id="DejaVuSans-121"/>
      <path d="M 44.28125 53.078125 
L 44.28125 44.578125 
Q 40.484375 46.53125 36.375 47.5 
Q 32.28125 48.484375 27.875 48.484375 
Q 21.1875 48.484375 17.84375 46.4375 
Q 14.5 44.390625 14.5 40.28125 
Q 14.5 37.15625 16.890625 35.375 
Q 19.28125 33.59375 26.515625 31.984375 
L 29.59375 31.296875 
Q 39.15625 29.25 43.1875 25.515625 
Q 47.21875 21.78125 47.21875 15.09375 
Q 47.21875 7.46875 41.1875 3.015625 
Q 35.15625 -1.421875 24.609375 -1.421875 
Q 20.21875 -1.421875 15.453125 -0.5625 
Q 10.6875 0.296875 5.421875 2 
L 5.421875 11.28125 
Q 10.40625 8.6875 15.234375 7.390625 
Q 20.0625 6.109375 24.8125 6.109375 
Q 31.15625 6.109375 34.5625 8.28125 
Q 37.984375 10.453125 37.984375 14.40625 
Q 37.984375 18.0625 35.515625 20.015625 
Q 33.0625 21.96875 24.703125 23.78125 
L 21.578125 24.515625 
Q 13.234375 26.265625 9.515625 29.90625 
Q 5.8125 33.546875 5.8125 39.890625 
Q 5.8125 47.609375 11.28125 51.796875 
Q 16.75 56 26.8125 56 
Q 31.78125 56 36.171875 55.265625 
Q 40.578125 54.546875 44.28125 53.078125 
z
" id="DejaVuSans-115"/>
      <path id="DejaVuSans-32"/>
      <path d="M 9.421875 54.6875 
L 18.40625 54.6875 
L 18.40625 0 
L 9.421875 0 
z
M 9.421875 75.984375 
L 18.40625 75.984375 
L 18.40625 64.59375 
L 9.421875 64.59375 
z
" id="DejaVuSans-105"/>
      <path d="M 54.890625 33.015625 
L 54.890625 0 
L 45.90625 0 
L 45.90625 32.71875 
Q 45.90625 40.484375 42.875 44.328125 
Q 39.84375 48.1875 33.796875 48.1875 
Q 26.515625 48.1875 22.3125 43.546875 
Q 18.109375 38.921875 18.109375 30.90625 
L 18.109375 0 
L 9.078125 0 
L 9.078125 54.6875 
L 18.109375 54.6875 
L 18.109375 46.1875 
Q 21.34375 51.125 25.703125 53.5625 
Q 30.078125 56 35.796875 56 
Q 45.21875 56 50.046875 50.171875 
Q 54.890625 44.34375 54.890625 33.015625 
z
" id="DejaVuSans-110"/>
      <path d="M 48.78125 52.59375 
L 48.78125 44.1875 
Q 44.96875 46.296875 41.140625 47.34375 
Q 37.3125 48.390625 33.40625 48.390625 
Q 24.65625 48.390625 19.8125 42.84375 
Q 14.984375 37.3125 14.984375 27.296875 
Q 14.984375 17.28125 19.8125 11.734375 
Q 24.65625 6.203125 33.40625 6.203125 
Q 37.3125 6.203125 41.140625 7.25 
Q 44.96875 8.296875 48.78125 10.40625 
L 48.78125 2.09375 
Q 45.015625 0.34375 40.984375 -0.53125 
Q 36.96875 -1.421875 32.421875 -1.421875 
Q 20.0625 -1.421875 12.78125 6.34375 
Q 5.515625 14.109375 5.515625 27.296875 
Q 5.515625 40.671875 12.859375 48.328125 
Q 20.21875 56 33.015625 56 
Q 37.15625 56 41.109375 55.140625 
Q 45.0625 54.296875 48.78125 52.59375 
z
" id="DejaVuSans-99"/>
      <path d="M 56.203125 29.59375 
L 56.203125 25.203125 
L 14.890625 25.203125 
Q 15.484375 15.921875 20.484375 11.0625 
Q 25.484375 6.203125 34.421875 6.203125 
Q 39.59375 6.203125 44.453125 7.46875 
Q 49.3125 8.734375 54.109375 11.28125 
L 54.109375 2.78125 
Q 49.265625 0.734375 44.1875 -0.34375 
Q 39.109375 -1.421875 33.890625 -1.421875 
Q 20.796875 -1.421875 13.15625 6.1875 
Q 5.515625 13.8125 5.515625 26.8125 
Q 5.515625 40.234375 12.765625 48.109375 
Q 20.015625 56 32.328125 56 
Q 43.359375 56 49.78125 48.890625 
Q 56.203125 41.796875 56.203125 29.59375 
z
M 47.21875 32.234375 
Q 47.125 39.59375 43.09375 43.984375 
Q 39.0625 48.390625 32.421875 48.390625 
Q 24.90625 48.390625 20.390625 44.140625 
Q 15.875 39.890625 15.1875 32.171875 
z
" id="DejaVuSans-101"/>
      <path d="M 45.40625 46.390625 
L 45.40625 75.984375 
L 54.390625 75.984375 
L 54.390625 0 
L 45.40625 0 
L 45.40625 8.203125 
Q 42.578125 3.328125 38.25 0.953125 
Q 33.9375 -1.421875 27.875 -1.421875 
Q 17.96875 -1.421875 11.734375 6.484375 
Q 5.515625 14.40625 5.515625 27.296875 
Q 5.515625 40.1875 11.734375 48.09375 
Q 17.96875 56 27.875 56 
Q 33.9375 56 38.25 53.625 
Q 42.578125 51.265625 45.40625 46.390625 
z
M 14.796875 27.296875 
Q 14.796875 17.390625 18.875 11.75 
Q 22.953125 6.109375 30.078125 6.109375 
Q 37.203125 6.109375 41.296875 11.75 
Q 45.40625 17.390625 45.40625 27.296875 
Q 45.40625 37.203125 41.296875 42.84375 
Q 37.203125 48.484375 30.078125 48.484375 
Q 22.953125 48.484375 18.875 42.84375 
Q 14.796875 37.203125 14.796875 27.296875 
z
" id="DejaVuSans-100"/>
      <path d="M 18.3125 70.21875 
L 18.3125 54.6875 
L 36.8125 54.6875 
L 36.8125 47.703125 
L 18.3125 47.703125 
L 18.3125 18.015625 
Q 18.3125 11.328125 20.140625 9.421875 
Q 21.96875 7.515625 27.59375 7.515625 
L 36.8125 7.515625 
L 36.8125 0 
L 27.59375 0 
Q 17.1875 0 13.234375 3.875 
Q 9.28125 7.765625 9.28125 18.015625 
L 9.28125 47.703125 
L 2.6875 47.703125 
L 2.6875 54.6875 
L 9.28125 54.6875 
L 9.28125 70.21875 
z
" id="DejaVuSans-116"/>
      <path d="M 54.890625 33.015625 
L 54.890625 0 
L 45.90625 0 
L 45.90625 32.71875 
Q 45.90625 40.484375 42.875 44.328125 
Q 39.84375 48.1875 33.796875 48.1875 
Q 26.515625 48.1875 22.3125 43.546875 
Q 18.109375 38.921875 18.109375 30.90625 
L 18.109375 0 
L 9.078125 0 
L 9.078125 75.984375 
L 18.109375 75.984375 
L 18.109375 46.1875 
Q 21.34375 51.125 25.703125 53.5625 
Q 30.078125 56 35.796875 56 
Q 45.21875 56 50.046875 50.171875 
Q 54.890625 44.34375 54.890625 33.015625 
z
" id="DejaVuSans-104"/>
     </defs>
     <g style="fill:#666666;" transform="translate(422.874219 540.916563)scale(0.1 -0.1)">
      <use xlink:href="#DejaVuSans-68"/>
      <use x="77.001953" xlink:href="#DejaVuSans-97"/>
      <use x="138.28125" xlink:href="#DejaVuSans-121"/>
      <use x="197.460938" xlink:href="#DejaVuSans-115"/>
      <use x="249.560547" xlink:href="#DejaVuSans-32"/>
      <use x="281.347656" xlink:href="#DejaVuSans-115"/>
      <use x="333.447266" xlink:href="#DejaVuSans-105"/>
      <use x="361.230469" xlink:href="#DejaVuSans-110"/>
      <use x="424.609375" xlink:href="#DejaVuSans-99"/>
      <use x="479.589844" xlink:href="#DejaVuSans-101"/>
      <use x="541.113281" xlink:href="#DejaVuSans-32"/>
      <use x="572.900391" xlink:href="#DejaVuSans-49"/>
      <use x="636.523438" xlink:href="#DejaVuSans-48"/>
      <use x="700.146484" xlink:href="#DejaVuSans-48"/>
      <use x="763.769531" xlink:href="#DejaVuSans-32"/>
      <use x="795.556641" xlink:href="#DejaVuSans-100"/>
      <use x="859.033203" xlink:href="#DejaVuSans-101"/>
      <use x="920.556641" xlink:href="#DejaVuSans-97"/>
      <use x="981.835938" xlink:href="#DejaVuSans-116"/>
      <use x="1021.044922" xlink:href="#DejaVuSans-104"/>
      <use x="1084.423828" xlink:href="#DejaVuSans-115"/>
     </g>
    </g>
   </g>
   <g id="matplotlib.axis_2">
    <g id="ytick_1">
     <g id="line2d_13">
      <path clip-path="url(#p795461666e)" d="M 117 512.64 
L 842.4 512.64 
" style="fill:none;stroke:#e6e6e6;stroke-linecap:square;stroke-width:0.8;"/>
     </g>
     <g id="line2d_14">
      <defs>
       <path d="M 0 0 
L -3.5 0 
" id="m4558550ebb" style="stroke:#666666;stroke-width:0.8;"/>
      </defs>
      <g>
       <use style="fill:#666666;stroke:#666666;stroke-width:0.8;" x="117" xlink:href="#m4558550ebb" y="512.64"/>
      </g>
     </g>
     <g id="text_6">
      <!-- 100 -->
      <g style="fill:#666666;" transform="translate(90.9125 516.439219)scale(0.1 -0.1)">
       <use xlink:href="#DejaVuSans-49"/>
       <use x="63.623047" xlink:href="#DejaVuSans-48"/>
       <use x="127.246094" xlink:href="#DejaVuSans-48"/>
      </g>
     </g>
    </g>
   </g>
   <g id="line2d_15">
    <path clip-path="url(#p795461666e)" d="M 117 512.64 
L 139.210917 490.844152 
L 226.346052 446.002032 
L 255.391097 404.971521 
L 284.436142 384.716081 
L 313.481187 372.715653 
L 342.526232 368.838038 
L 371.571277 363.129438 
" style="fill:none;stroke:#1f77b4;stroke-linecap:square;stroke-width:1.5;"/>
    <defs>
     <path d="M 0 1.5 
C 0.397805 1.5 0.77937 1.341951 1.06066 1.06066 
C 1.341951 0.77937 1.5 0.397805 1.5 0 
C 1.5 -0.397805 1.341951 -0.77937 1.06066 -1.06066 
C 0.77937 -1.341951 0.397805 -1.5 0 -1.5 
C -0.397805 -1.5 -0.77937 -1.341951 -1.06066 -1.06066 
C -1.341951 -0.77937 -1.5 -0.397805 -1.5 0 
C -1.5 0.397805 -1.341951 0.77937 -1.06066 1.06066 
C -0.77937 1.341951 -0.397805 1.5 0 1.5 
z
" id="m5df6e28759" style="stroke:#1f77b4;"/>
    </defs>
    <g clip-path="url(#p795461666e)">
     <use style="fill:#ffffff;stroke:#1f77b4;" x="117" xlink:href="#m5df6e28759" y="512.64"/>
     <use style="fill:#ffffff;stroke:#1f77b4;" x="139.210917" xlink:href="#m5df6e28759" y="490.844152"/>
     <use style="fill:#ffffff;stroke:#1f77b4;" x="226.346052" xlink:href="#m5df6e28759" y="446.002032"/>
     <use style="fill:#ffffff;stroke:#1f77b4;" x="255.391097" xlink:href="#m5df6e28759" y="404.971521"/>
     <use style="fill:#ffffff;stroke:#1f77b4;" x="284.436142" xlink:href="#m5df6e28759" y="384.716081"/>
     <use style="fill:#ffffff;stroke:#1f77b4;" x="313.481187" xlink:href="#m5df6e28759" y="372.715653"/>
     <use style="fill:#ffffff;stroke:#1f77b4;" x="342.526232" xlink:href="#m5df6e28759" y="368.838038"/>
     <use style="fill:#ffffff;stroke:#1f77b4;" x="371.571277" xlink:href="#m5df6e28759" y="363.129438"/>
    </g>
   </g>
   <g id="line2d_16">
    <path clip-path="url(#p795461666e)" d="M 117 512.64 
L 138.123669 498.977227 
L 167.168714 487.671406 
L 196.213759 476.903393 
L 225.258804 463.762548 
L 254.303849 448.648627 
L 283.348894 438.234876 
L 312.393939 415.176081 
L 341.438984 406.084696 
L 370.484029 398.395574 
L 399.529075 395.171729 
L 428.57412 373.694324 
L 457.619165 353.887251 
L 486.66421 336.331657 
L 515.709255 322.275649 
L 544.7543 316.696219 
L 573.799345 315.123134 
" style="fill:none;stroke:#ff7f0e;stroke-linecap:square;stroke-width:1.5;"/>
    <defs>
     <path d="M 0 1.5 
C 0.397805 1.5 0.77937 1.341951 1.06066 1.06066 
C 1.341951 0.77937 1.5 0.397805 1.5 0 
C 1.5 -0.397805 1.341951 -0.77937 1.06066 -1.06066 
C 0.77937 -1.341951 0.397805 -1.5 0 -1.5 
C -0.397805 -1.5 -0.77937 -1.341951 -1.06066 -1.06066 
C -1.341951 -0.77937 -1.5 -0.397805 -1.5 0 
C -1.5 0.397805 -1.341951 0.77937 -1.06066 1.06066 
C -0.77937 1.341951 -0.397805 1.5 0 1.5 
z
" id="m85991d6f97" style="stroke:#ff7f0e;"/>
    </defs>
    <g clip-path="url(#p795461666e)">
     <use style="fill:#ffffff;stroke:#ff7f0e;" x="117" xlink:href="#m85991d6f97" y="512.64"/>
     <use style="fill:#ffffff;stroke:#ff7f0e;" x="138.123669" xlink:href="#m85991d6f97" y="498.977227"/>
     <use style="fill:#ffffff;stroke:#ff7f0e;" x="167.168714" xlink:href="#m85991d6f97" y="487.671406"/>
     <use style="fill:#ffffff;stroke:#ff7f0e;" x="196.213759" xlink:href="#m85991d6f97" y="476.903393"/>
     <use style="fill:#ffffff;stroke:#ff7f0e;" x="225.258804" xlink:href="#m85991d6f97" y="463.762548"/>
     <use style="fill:#ffffff;stroke:#ff7f0e;" x="254.303849" xlink:href="#m85991d6f97" y="448.648627"/>
     <use style="fill:#ffffff;stroke:#ff7f0e;" x="283.348894" xlink:href="#m85991d6f97" y="438.234876"/>
     <use style="fill:#ffffff;stroke:#ff7f0e;" x="312.393939" xlink:href="#m85991d6f97" y="415.176081"/>
     <use style="fill:#ffffff;stroke:#ff7f0e;" x="341.438984" xlink:href="#m85991d6f97" y="406.084696"/>
     <use style="fill:#ffffff;stroke:#ff7f0e;" x="370.484029" xlink:href="#m85991d6f97" y="398.395574"/>
     <use style="fill:#ffffff;stroke:#ff7f0e;" x="399.529075" xlink:href="#m85991d6f97" y="395.171729"/>
     <use style="fill:#ffffff;stroke:#ff7f0e;" x="428.57412" xlink:href="#m85991d6f97" y="373.694324"/>
     <use style="fill:#ffffff;stroke:#ff7f0e;" x="457.619165" xlink:href="#m85991d6f97" y="353.887251"/>
     <use style="fill:#ffffff;stroke:#ff7f0e;" x="486.66421" xlink:href="#m85991d6f97" y="336.331657"/>
     <use style="fill:#ffffff;stroke:#ff7f0e;" x="515.709255" xlink:href="#m85991d6f97" y="322.275649"/>
     <use style="fill:#ffffff;stroke:#ff7f0e;" x="544.7543" xlink:href="#m85991d6f97" y="316.696219"/>
     <use style="fill:#ffffff;stroke:#ff7f0e;" x="573.799345" xlink:href="#m85991d6f97" y="315.123134"/>
    </g>
   </g>
   <g id="line2d_17">
    <path clip-path="url(#p795461666e)" d="M 117 512.64 
L 139.821107 494.062146 
L 168.866152 470.970439 
L 197.911197 451.325213 
L 226.956242 438.234876 
L 256.001287 403.863338 
L 285.046332 388.846218 
L 314.091377 356.62543 
L 343.136422 335.483912 
L 372.181467 315.908528 
L 401.226512 303.607941 
L 430.271557 290.40255 
L 459.316602 275.754955 
L 488.361647 257.346483 
L 517.406692 246.726675 
L 546.451737 236.486285 
L 575.496782 224.885148 
L 604.541828 218.695868 
L 633.586873 204.033819 
L 662.631918 185.046616 
L 691.676963 174.299056 
L 720.722008 153.875425 
L 749.767053 104.135266 
L 778.812098 93.194359 
L 807.857143 90.24 
" style="fill:none;stroke:#2ca02c;stroke-linecap:square;stroke-width:1.5;"/>
    <defs>
     <path d="M 0 1.5 
C 0.397805 1.5 0.77937 1.341951 1.06066 1.06066 
C 1.341951 0.77937 1.5 0.397805 1.5 0 
C 1.5 -0.397805 1.341951 -0.77937 1.06066 -1.06066 
C 0.77937 -1.341951 0.397805 -1.5 0 -1.5 
C -0.397805 -1.5 -0.77937 -1.341951 -1.06066 -1.06066 
C -1.341951 -0.77937 -1.5 -0.397805 -1.5 0 
C -1.5 0.397805 -1.341951 0.77937 -1.06066 1.06066 
C -0.77937 1.341951 -0.397805 1.5 0 1.5 
z
" id="m1fdd84668d" style="stroke:#2ca02c;"/>
    </defs>
    <g clip-path="url(#p795461666e)">
     <use style="fill:#ffffff;stroke:#2ca02c;" x="117" xlink:href="#m1fdd84668d" y="512.64"/>
     <use style="fill:#ffffff;stroke:#2ca02c;" x="139.821107" xlink:href="#m1fdd84668d" y="494.062146"/>
     <use style="fill:#ffffff;stroke:#2ca02c;" x="168.866152" xlink:href="#m1fdd84668d" y="470.970439"/>
     <use style="fill:#ffffff;stroke:#2ca02c;" x="197.911197" xlink:href="#m1fdd84668d" y="451.325213"/>
     <use style="fill:#ffffff;stroke:#2ca02c;" x="226.956242" xlink:href="#m1fdd84668d" y="438.234876"/>
     <use style="fill:#ffffff;stroke:#2ca02c;" x="256.001287" xlink:href="#m1fdd84668d" y="403.863338"/>
     <use style="fill:#ffffff;stroke:#2ca02c;" x="285.046332" xlink:href="#m1fdd84668d" y="388.846218"/>
     <use style="fill:#ffffff;stroke:#2ca02c;" x="314.091377" xlink:href="#m1fdd84668d" y="356.62543"/>
     <use style="fill:#ffffff;stroke:#2ca02c;" x="343.136422" xlink:href="#m1fdd84668d" y="335.483912"/>
     <use style="fill:#ffffff;stroke:#2ca02c;" x="372.181467" xlink:href="#m1fdd84668d" y="315.908528"/>
     <use style="fill:#ffffff;stroke:#2ca02c;" x="401.226512" xlink:href="#m1fdd84668d" y="303.607941"/>
     <use style="fill:#ffffff;stroke:#2ca02c;" x="430.271557" xlink:href="#m1fdd84668d" y="290.40255"/>
     <use style="fill:#ffffff;stroke:#2ca02c;" x="459.316602" xlink:href="#m1fdd84668d" y="275.754955"/>
     <use style="fill:#ffffff;stroke:#2ca02c;" x="488.361647" xlink:href="#m1fdd84668d" y="257.346483"/>
     <use style="fill:#ffffff;stroke:#2ca02c;" x="517.406692" xlink:href="#m1fdd84668d" y="246.726675"/>
     <use style="fill:#ffffff;stroke:#2ca02c;" x="546.451737" xlink:href="#m1fdd84668d" y="236.486285"/>
     <use style="fill:#ffffff;stroke:#2ca02c;" x="575.496782" xlink:href="#m1fdd84668d" y="224.885148"/>
     <use style="fill:#ffffff;stroke:#2ca02c;" x="604.541828" xlink:href="#m1fdd84668d" y="218.695868"/>
     <use style="fill:#ffffff;stroke:#2ca02c;" x="633.586873" xlink:href="#m1fdd84668d" y="204.033819"/>
     <use style="fill:#ffffff;stroke:#2ca02c;" x="662.631918" xlink:href="#m1fdd84668d" y="185.046616"/>
     <use style="fill:#ffffff;stroke:#2ca02c;" x="691.676963" xlink:href="#m1fdd84668d" y="174.299056"/>
     <use style="fill:#ffffff;stroke:#2ca02c;" x="720.722008" xlink:href="#m1fdd84668d" y="153.875425"/>
     <use style="fill:#ffffff;stroke:#2ca02c;" x="749.767053" xlink:href="#m1fdd84668d" y="104.135266"/>
     <use style="fill:#ffffff;stroke:#2ca02c;" x="778.812098" xlink:href="#m1fdd84668d" y="93.194359"/>
     <use style="fill:#ffffff;stroke:#2ca02c;" x="807.857143" xlink:href="#m1fdd84668d" y="90.24"/>
    </g>
   </g>
   <g id="line2d_18">
    <path clip-path="url(#p795461666e)" d="M 117 512.64 
L 133.136136 504.002776 
L 162.181181 492.447402 
L 191.226226 469.510783 
L 220.271271 452.674994 
L 249.316316 434.444148 
L 278.361361 419.851527 
L 307.406406 404.971521 
" style="fill:none;stroke:#d62728;stroke-linecap:square;stroke-width:1.5;"/>
    <defs>
     <path d="M 0 1.5 
C 0.397805 1.5 0.77937 1.341951 1.06066 1.06066 
C 1.341951 0.77937 1.5 0.397805 1.5 0 
C 1.5 -0.397805 1.341951 -0.77937 1.06066 -1.06066 
C 0.77937 -1.341951 0.397805 -1.5 0 -1.5 
C -0.397805 -1.5 -0.77937 -1.341951 -1.06066 -1.06066 
C -1.341951 -0.77937 -1.5 -0.397805 -1.5 0 
C -1.5 0.397805 -1.341951 0.77937 -1.06066 1.06066 
C -0.77937 1.341951 -0.397805 1.5 0 1.5 
z
" id="ma67bed7ebd" style="stroke:#d62728;"/>
    </defs>
    <g clip-path="url(#p795461666e)">
     <use style="fill:#ffffff;stroke:#d62728;" x="117" xlink:href="#ma67bed7ebd" y="512.64"/>
     <use style="fill:#ffffff;stroke:#d62728;" x="133.136136" xlink:href="#ma67bed7ebd" y="504.002776"/>
     <use style="fill:#ffffff;stroke:#d62728;" x="162.181181" xlink:href="#ma67bed7ebd" y="492.447402"/>
     <use style="fill:#ffffff;stroke:#d62728;" x="191.226226" xlink:href="#ma67bed7ebd" y="469.510783"/>
     <use style="fill:#ffffff;stroke:#d62728;" x="220.271271" xlink:href="#ma67bed7ebd" y="452.674994"/>
     <use style="fill:#ffffff;stroke:#d62728;" x="249.316316" xlink:href="#ma67bed7ebd" y="434.444148"/>
     <use style="fill:#ffffff;stroke:#d62728;" x="278.361361" xlink:href="#ma67bed7ebd" y="419.851527"/>
     <use style="fill:#ffffff;stroke:#d62728;" x="307.406406" xlink:href="#ma67bed7ebd" y="404.971521"/>
    </g>
   </g>
   <g id="line2d_19">
    <path clip-path="url(#p795461666e)" d="M 117 512.64 
L 146.045045 492.447402 
L 175.09009 479.928426 
" style="fill:none;stroke:#9467bd;stroke-linecap:square;stroke-width:1.5;"/>
    <defs>
     <path d="M 0 1.5 
C 0.397805 1.5 0.77937 1.341951 1.06066 1.06066 
C 1.341951 0.77937 1.5 0.397805 1.5 0 
C 1.5 -0.397805 1.341951 -0.77937 1.06066 -1.06066 
C 0.77937 -1.341951 0.397805 -1.5 0 -1.5 
C -0.397805 -1.5 -0.77937 -1.341951 -1.06066 -1.06066 
C -1.341951 -0.77937 -1.5 -0.397805 -1.5 0 
C -1.5 0.397805 -1.341951 0.77937 -1.06066 1.06066 
C -0.77937 1.341951 -0.397805 1.5 0 1.5 
z
" id="mdb5a78d0ec" style="stroke:#9467bd;"/>
    </defs>
    <g clip-path="url(#p795461666e)">
     <use style="fill:#ffffff;stroke:#9467bd;" x="117" xlink:href="#mdb5a78d0ec" y="512.64"/>
     <use style="fill:#ffffff;stroke:#9467bd;" x="146.045045" xlink:href="#mdb5a78d0ec" y="492.447402"/>
     <use style="fill:#ffffff;stroke:#9467bd;" x="175.09009" xlink:href="#mdb5a78d0ec" y="479.928426"/>
    </g>
   </g>
   <g id="line2d_20">
    <path clip-path="url(#p795461666e)" d="M 117 512.64 
L 135.48321 500.639862 
L 164.528256 492.447402 
L 193.573301 482.994065 
" style="fill:none;stroke:#8c564b;stroke-linecap:square;stroke-width:1.5;"/>
    <defs>
     <path d="M 0 1.5 
C 0.397805 1.5 0.77937 1.341951 1.06066 1.06066 
C 1.341951 0.77937 1.5 0.397805 1.5 0 
C 1.5 -0.397805 1.341951 -0.77937 1.06066 -1.06066 
C 0.77937 -1.341951 0.397805 -1.5 0 -1.5 
C -0.397805 -1.5 -0.77937 -1.341951 -1.06066 -1.06066 
C -1.341951 -0.77937 -1.5 -0.397805 -1.5 0 
C -1.5 0.397805 -1.341951 0.77937 -1.06066 1.06066 
C -0.77937 1.341951 -0.397805 1.5 0 1.5 
z
" id="mc9127fd79f" style="stroke:#8c564b;"/>
    </defs>
    <g clip-path="url(#p795461666e)">
     <use style="fill:#ffffff;stroke:#8c564b;" x="117" xlink:href="#mc9127fd79f" y="512.64"/>
     <use style="fill:#ffffff;stroke:#8c564b;" x="135.48321" xlink:href="#mc9127fd79f" y="500.639862"/>
     <use style="fill:#ffffff;stroke:#8c564b;" x="164.528256" xlink:href="#mc9127fd79f" y="492.447402"/>
     <use style="fill:#ffffff;stroke:#8c564b;" x="193.573301" xlink:href="#mc9127fd79f" y="482.994065"/>
    </g>
   </g>
   <g id="line2d_21">
    <path clip-path="url(#p795461666e)" d="M 117 512.64 
L 146.045045 500.639862 
L 175.09009 495.688569 
L 204.135135 494.062146 
L 262.225225 484.542499 
L 291.27027 482.994065 
" style="fill:none;stroke:#e377c2;stroke-linecap:square;stroke-width:1.5;"/>
    <defs>
     <path d="M 0 1.5 
C 0.397805 1.5 0.77937 1.341951 1.06066 1.06066 
C 1.341951 0.77937 1.5 0.397805 1.5 0 
C 1.5 -0.397805 1.341951 -0.77937 1.06066 -1.06066 
C 0.77937 -1.341951 0.397805 -1.5 0 -1.5 
C -0.397805 -1.5 -0.77937 -1.341951 -1.06066 -1.06066 
C -1.341951 -0.77937 -1.5 -0.397805 -1.5 0 
C -1.5 0.397805 -1.341951 0.77937 -1.06066 1.06066 
C -0.77937 1.341951 -0.397805 1.5 0 1.5 
z
" id="me20ed4cd61" style="stroke:#e377c2;"/>
    </defs>
    <g clip-path="url(#p795461666e)">
     <use style="fill:#ffffff;stroke:#e377c2;" x="117" xlink:href="#me20ed4cd61" y="512.64"/>
     <use style="fill:#ffffff;stroke:#e377c2;" x="146.045045" xlink:href="#me20ed4cd61" y="500.639862"/>
     <use style="fill:#ffffff;stroke:#e377c2;" x="175.09009" xlink:href="#me20ed4cd61" y="495.688569"/>
     <use style="fill:#ffffff;stroke:#e377c2;" x="204.135135" xlink:href="#me20ed4cd61" y="494.062146"/>
     <use style="fill:#ffffff;stroke:#e377c2;" x="262.225225" xlink:href="#me20ed4cd61" y="484.542499"/>
     <use style="fill:#ffffff;stroke:#e377c2;" x="291.27027" xlink:href="#me20ed4cd61" y="482.994065"/>
    </g>
   </g>
   <g id="line2d_22">
    <path clip-path="url(#p795461666e)" d="M 117 512.64 
L 128.618018 505.703487 
L 157.663063 487.671406 
L 186.708108 476.903393 
L 215.753153 466.618841 
L 244.798198 455.39803 
L 273.843243 446.002032 
L 302.888288 440.79586 
L 331.933333 433.193786 
L 360.978378 412.871481 
L 390.023423 397.316317 
L 419.068468 390.937021 
L 448.113514 381.662285 
L 477.158559 376.653099 
L 506.203604 373.694324 
" style="fill:none;stroke:#7f7f7f;stroke-linecap:square;stroke-width:1.5;"/>
    <defs>
     <path d="M 0 1.5 
C 0.397805 1.5 0.77937 1.341951 1.06066 1.06066 
C 1.341951 0.77937 1.5 0.397805 1.5 0 
C 1.5 -0.397805 1.341951 -0.77937 1.06066 -1.06066 
C 0.77937 -1.341951 0.397805 -1.5 0 -1.5 
C -0.397805 -1.5 -0.77937 -1.341951 -1.06066 -1.06066 
C -1.341951 -0.77937 -1.5 -0.397805 -1.5 0 
C -1.5 0.397805 -1.341951 0.77937 -1.06066 1.06066 
C -0.77937 1.341951 -0.397805 1.5 0 1.5 
z
" id="m3d666b6005" style="stroke:#7f7f7f;"/>
    </defs>
    <g clip-path="url(#p795461666e)">
     <use style="fill:#ffffff;stroke:#7f7f7f;" x="117" xlink:href="#m3d666b6005" y="512.64"/>
     <use style="fill:#ffffff;stroke:#7f7f7f;" x="128.618018" xlink:href="#m3d666b6005" y="505.703487"/>
     <use style="fill:#ffffff;stroke:#7f7f7f;" x="157.663063" xlink:href="#m3d666b6005" y="487.671406"/>
     <use style="fill:#ffffff;stroke:#7f7f7f;" x="186.708108" xlink:href="#m3d666b6005" y="476.903393"/>
     <use style="fill:#ffffff;stroke:#7f7f7f;" x="215.753153" xlink:href="#m3d666b6005" y="466.618841"/>
     <use style="fill:#ffffff;stroke:#7f7f7f;" x="244.798198" xlink:href="#m3d666b6005" y="455.39803"/>
     <use style="fill:#ffffff;stroke:#7f7f7f;" x="273.843243" xlink:href="#m3d666b6005" y="446.002032"/>
     <use style="fill:#ffffff;stroke:#7f7f7f;" x="302.888288" xlink:href="#m3d666b6005" y="440.79586"/>
     <use style="fill:#ffffff;stroke:#7f7f7f;" x="331.933333" xlink:href="#m3d666b6005" y="433.193786"/>
     <use style="fill:#ffffff;stroke:#7f7f7f;" x="360.978378" xlink:href="#m3d666b6005" y="412.871481"/>
     <use style="fill:#ffffff;stroke:#7f7f7f;" x="390.023423" xlink:href="#m3d666b6005" y="397.316317"/>
     <use style="fill:#ffffff;stroke:#7f7f7f;" x="419.068468" xlink:href="#m3d666b6005" y="390.937021"/>
     <use style="fill:#ffffff;stroke:#7f7f7f;" x="448.113514" xlink:href="#m3d666b6005" y="381.662285"/>
     <use style="fill:#ffffff;stroke:#7f7f7f;" x="477.158559" xlink:href="#m3d666b6005" y="376.653099"/>
     <use style="fill:#ffffff;stroke:#7f7f7f;" x="506.203604" xlink:href="#m3d666b6005" y="373.694324"/>
    </g>
   </g>
   <g id="line2d_23">
    <path clip-path="url(#p795461666e)" d="M 117 512.64 
L 135.793853 494.062146 
L 164.838898 478.410909 
L 193.883943 459.542832 
L 222.928988 447.321628 
L 251.974033 425.825087 
L 281.019078 403.863338 
L 310.064123 381.662285 
L 339.109168 361.254378 
L 368.154213 340.611703 
L 397.199258 317.486221 
" style="fill:none;stroke:#bcbd22;stroke-linecap:square;stroke-width:1.5;"/>
    <defs>
     <path d="M 0 1.5 
C 0.397805 1.5 0.77937 1.341951 1.06066 1.06066 
C 1.341951 0.77937 1.5 0.397805 1.5 0 
C 1.5 -0.397805 1.341951 -0.77937 1.06066 -1.06066 
C 0.77937 -1.341951 0.397805 -1.5 0 -1.5 
C -0.397805 -1.5 -0.77937 -1.341951 -1.06066 -1.06066 
C -1.341951 -0.77937 -1.5 -0.397805 -1.5 0 
C -1.5 0.397805 -1.341951 0.77937 -1.06066 1.06066 
C -0.77937 1.341951 -0.397805 1.5 0 1.5 
z
" id="md76bab445a" style="stroke:#bcbd22;"/>
    </defs>
    <g clip-path="url(#p795461666e)">
     <use style="fill:#ffffff;stroke:#bcbd22;" x="117" xlink:href="#md76bab445a" y="512.64"/>
     <use style="fill:#ffffff;stroke:#bcbd22;" x="135.793853" xlink:href="#md76bab445a" y="494.062146"/>
     <use style="fill:#ffffff;stroke:#bcbd22;" x="164.838898" xlink:href="#md76bab445a" y="478.410909"/>
     <use style="fill:#ffffff;stroke:#bcbd22;" x="193.883943" xlink:href="#md76bab445a" y="459.542832"/>
     <use style="fill:#ffffff;stroke:#bcbd22;" x="222.928988" xlink:href="#md76bab445a" y="447.321628"/>
     <use style="fill:#ffffff;stroke:#bcbd22;" x="251.974033" xlink:href="#md76bab445a" y="425.825087"/>
     <use style="fill:#ffffff;stroke:#bcbd22;" x="281.019078" xlink:href="#md76bab445a" y="403.863338"/>
     <use style="fill:#ffffff;stroke:#bcbd22;" x="310.064123" xlink:href="#md76bab445a" y="381.662285"/>
     <use style="fill:#ffffff;stroke:#bcbd22;" x="339.109168" xlink:href="#md76bab445a" y="361.254378"/>
     <use style="fill:#ffffff;stroke:#bcbd22;" x="368.154213" xlink:href="#md76bab445a" y="340.611703"/>
     <use style="fill:#ffffff;stroke:#bcbd22;" x="397.199258" xlink:href="#md76bab445a" y="317.486221"/>
    </g>
   </g>
   <g id="line2d_24">
    <path clip-path="url(#p795461666e)" d="M 117 512.64 
L 137.108108 497.326864 
L 166.153153 495.688569 
L 195.198198 489.252213 
L 224.243243 460.940931 
L 253.288288 442.086749 
L 282.333333 435.701064 
L 311.378378 419.851527 
L 340.423423 408.326225 
L 369.468468 407.202913 
L 398.513514 406.084696 
L 427.558559 393.045413 
L 456.603604 373.694324 
L 485.648649 364.07211 
L 514.693694 325.516836 
L 543.738739 316.696219 
L 572.783784 315.908528 
" style="fill:none;stroke:#17becf;stroke-linecap:square;stroke-width:1.5;"/>
    <defs>
     <path d="M 0 1.5 
C 0.397805 1.5 0.77937 1.341951 1.06066 1.06066 
C 1.341951 0.77937 1.5 0.397805 1.5 0 
C 1.5 -0.397805 1.341951 -0.77937 1.06066 -1.06066 
C 0.77937 -1.341951 0.397805 -1.5 0 -1.5 
C -0.397805 -1.5 -0.77937 -1.341951 -1.06066 -1.06066 
C -1.341951 -0.77937 -1.5 -0.397805 -1.5 0 
C -1.5 0.397805 -1.341951 0.77937 -1.06066 1.06066 
C -0.77937 1.341951 -0.397805 1.5 0 1.5 
z
" id="m34411f7ee1" style="stroke:#17becf;"/>
    </defs>
    <g clip-path="url(#p795461666e)">
     <use style="fill:#ffffff;stroke:#17becf;" x="117" xlink:href="#m34411f7ee1" y="512.64"/>
     <use style="fill:#ffffff;stroke:#17becf;" x="137.108108" xlink:href="#m34411f7ee1" y="497.326864"/>
     <use style="fill:#ffffff;stroke:#17becf;" x="166.153153" xlink:href="#m34411f7ee1" y="495.688569"/>
     <use style="fill:#ffffff;stroke:#17becf;" x="195.198198" xlink:href="#m34411f7ee1" y="489.252213"/>
     <use style="fill:#ffffff;stroke:#17becf;" x="224.243243" xlink:href="#m34411f7ee1" y="460.940931"/>
     <use style="fill:#ffffff;stroke:#17becf;" x="253.288288" xlink:href="#m34411f7ee1" y="442.086749"/>
     <use style="fill:#ffffff;stroke:#17becf;" x="282.333333" xlink:href="#m34411f7ee1" y="435.701064"/>
     <use style="fill:#ffffff;stroke:#17becf;" x="311.378378" xlink:href="#m34411f7ee1" y="419.851527"/>
     <use style="fill:#ffffff;stroke:#17becf;" x="340.423423" xlink:href="#m34411f7ee1" y="408.326225"/>
     <use style="fill:#ffffff;stroke:#17becf;" x="369.468468" xlink:href="#m34411f7ee1" y="407.202913"/>
     <use style="fill:#ffffff;stroke:#17becf;" x="398.513514" xlink:href="#m34411f7ee1" y="406.084696"/>
     <use style="fill:#ffffff;stroke:#17becf;" x="427.558559" xlink:href="#m34411f7ee1" y="393.045413"/>
     <use style="fill:#ffffff;stroke:#17becf;" x="456.603604" xlink:href="#m34411f7ee1" y="373.694324"/>
     <use style="fill:#ffffff;stroke:#17becf;" x="485.648649" xlink:href="#m34411f7ee1" y="364.07211"/>
     <use style="fill:#ffffff;stroke:#17becf;" x="514.693694" xlink:href="#m34411f7ee1" y="325.516836"/>
     <use style="fill:#ffffff;stroke:#17becf;" x="543.738739" xlink:href="#m34411f7ee1" y="316.696219"/>
     <use style="fill:#ffffff;stroke:#17becf;" x="572.783784" xlink:href="#m34411f7ee1" y="315.908528"/>
    </g>
   </g>
   <g id="line2d_25">
    <path clip-path="url(#p795461666e)" d="M 117 512.64 
L 141.576577 494.062146 
L 170.621622 476.903393 
L 199.666667 466.618841 
L 228.711712 451.325213 
L 257.756757 435.701064 
L 286.801802 427.037676 
L 315.846847 415.176081 
L 344.891892 399.479534 
L 373.936937 388.846218 
L 402.981982 380.652496 
L 432.027027 372.715653 
L 461.072072 361.254378 
L 490.117117 355.70949 
" style="fill:none;stroke:#1f77b4;stroke-linecap:square;stroke-width:1.5;"/>
    <g clip-path="url(#p795461666e)">
     <use style="fill:#ffffff;stroke:#1f77b4;" x="117" xlink:href="#m5df6e28759" y="512.64"/>
     <use style="fill:#ffffff;stroke:#1f77b4;" x="141.576577" xlink:href="#m5df6e28759" y="494.062146"/>
     <use style="fill:#ffffff;stroke:#1f77b4;" x="170.621622" xlink:href="#m5df6e28759" y="476.903393"/>
     <use style="fill:#ffffff;stroke:#1f77b4;" x="199.666667" xlink:href="#m5df6e28759" y="466.618841"/>
     <use style="fill:#ffffff;stroke:#1f77b4;" x="228.711712" xlink:href="#m5df6e28759" y="451.325213"/>
     <use style="fill:#ffffff;stroke:#1f77b4;" x="257.756757" xlink:href="#m5df6e28759" y="435.701064"/>
     <use style="fill:#ffffff;stroke:#1f77b4;" x="286.801802" xlink:href="#m5df6e28759" y="427.037676"/>
     <use style="fill:#ffffff;stroke:#1f77b4;" x="315.846847" xlink:href="#m5df6e28759" y="415.176081"/>
     <use style="fill:#ffffff;stroke:#1f77b4;" x="344.891892" xlink:href="#m5df6e28759" y="399.479534"/>
     <use style="fill:#ffffff;stroke:#1f77b4;" x="373.936937" xlink:href="#m5df6e28759" y="388.846218"/>
     <use style="fill:#ffffff;stroke:#1f77b4;" x="402.981982" xlink:href="#m5df6e28759" y="380.652496"/>
     <use style="fill:#ffffff;stroke:#1f77b4;" x="432.027027" xlink:href="#m5df6e28759" y="372.715653"/>
     <use style="fill:#ffffff;stroke:#1f77b4;" x="461.072072" xlink:href="#m5df6e28759" y="361.254378"/>
     <use style="fill:#ffffff;stroke:#1f77b4;" x="490.117117" xlink:href="#m5df6e28759" y="355.70949"/>
    </g>
   </g>
   <g id="line2d_26">
    <path clip-path="url(#p795461666e)" d="M 117 512.64 
L 127.561835 498.977227 
L 156.60688 484.542499 
L 185.651925 463.762548 
L 214.69697 435.701064 
L 243.742015 421.03454 
L 272.78706 411.727257 
L 301.832105 403.863338 
L 330.87715 368.838038 
L 359.922195 342.343384 
L 388.96724 332.956851 
L 418.012285 319.870252 
L 447.05733 304.360607 
L 476.102375 296.925735 
" style="fill:none;stroke:#ff7f0e;stroke-linecap:square;stroke-width:1.5;"/>
    <g clip-path="url(#p795461666e)">
     <use style="fill:#ffffff;stroke:#ff7f0e;" x="117" xlink:href="#m85991d6f97" y="512.64"/>
     <use style="fill:#ffffff;stroke:#ff7f0e;" x="127.561835" xlink:href="#m85991d6f97" y="498.977227"/>
     <use style="fill:#ffffff;stroke:#ff7f0e;" x="156.60688" xlink:href="#m85991d6f97" y="484.542499"/>
     <use style="fill:#ffffff;stroke:#ff7f0e;" x="185.651925" xlink:href="#m85991d6f97" y="463.762548"/>
     <use style="fill:#ffffff;stroke:#ff7f0e;" x="214.69697" xlink:href="#m85991d6f97" y="435.701064"/>
     <use style="fill:#ffffff;stroke:#ff7f0e;" x="243.742015" xlink:href="#m85991d6f97" y="421.03454"/>
     <use style="fill:#ffffff;stroke:#ff7f0e;" x="272.78706" xlink:href="#m85991d6f97" y="411.727257"/>
     <use style="fill:#ffffff;stroke:#ff7f0e;" x="301.832105" xlink:href="#m85991d6f97" y="403.863338"/>
     <use style="fill:#ffffff;stroke:#ff7f0e;" x="330.87715" xlink:href="#m85991d6f97" y="368.838038"/>
     <use style="fill:#ffffff;stroke:#ff7f0e;" x="359.922195" xlink:href="#m85991d6f97" y="342.343384"/>
     <use style="fill:#ffffff;stroke:#ff7f0e;" x="388.96724" xlink:href="#m85991d6f97" y="332.956851"/>
     <use style="fill:#ffffff;stroke:#ff7f0e;" x="418.012285" xlink:href="#m85991d6f97" y="319.870252"/>
     <use style="fill:#ffffff;stroke:#ff7f0e;" x="447.05733" xlink:href="#m85991d6f97" y="304.360607"/>
     <use style="fill:#ffffff;stroke:#ff7f0e;" x="476.102375" xlink:href="#m85991d6f97" y="296.925735"/>
    </g>
   </g>
   <g id="line2d_27">
    <path clip-path="url(#p795461666e)" d="M 117 512.64 
L 127.561835 498.977227 
L 156.60688 489.252213 
L 214.69697 465.1863 
L 243.742015 463.762548 
L 272.78706 448.648627 
L 301.832105 436.964614 
L 330.87715 431.949903 
L 359.922195 428.256382 
L 418.012285 422.223338 
L 447.05733 411.727257 
L 476.102375 386.772677 
L 505.14742 378.644917 
L 534.192465 375.663015 
" style="fill:none;stroke:#2ca02c;stroke-linecap:square;stroke-width:1.5;"/>
    <g clip-path="url(#p795461666e)">
     <use style="fill:#ffffff;stroke:#2ca02c;" x="117" xlink:href="#m1fdd84668d" y="512.64"/>
     <use style="fill:#ffffff;stroke:#2ca02c;" x="127.561835" xlink:href="#m1fdd84668d" y="498.977227"/>
     <use style="fill:#ffffff;stroke:#2ca02c;" x="156.60688" xlink:href="#m1fdd84668d" y="489.252213"/>
     <use style="fill:#ffffff;stroke:#2ca02c;" x="214.69697" xlink:href="#m1fdd84668d" y="465.1863"/>
     <use style="fill:#ffffff;stroke:#2ca02c;" x="243.742015" xlink:href="#m1fdd84668d" y="463.762548"/>
     <use style="fill:#ffffff;stroke:#2ca02c;" x="272.78706" xlink:href="#m1fdd84668d" y="448.648627"/>
     <use style="fill:#ffffff;stroke:#2ca02c;" x="301.832105" xlink:href="#m1fdd84668d" y="436.964614"/>
     <use style="fill:#ffffff;stroke:#2ca02c;" x="330.87715" xlink:href="#m1fdd84668d" y="431.949903"/>
     <use style="fill:#ffffff;stroke:#2ca02c;" x="359.922195" xlink:href="#m1fdd84668d" y="428.256382"/>
     <use style="fill:#ffffff;stroke:#2ca02c;" x="418.012285" xlink:href="#m1fdd84668d" y="422.223338"/>
     <use style="fill:#ffffff;stroke:#2ca02c;" x="447.05733" xlink:href="#m1fdd84668d" y="411.727257"/>
     <use style="fill:#ffffff;stroke:#2ca02c;" x="476.102375" xlink:href="#m1fdd84668d" y="386.772677"/>
     <use style="fill:#ffffff;stroke:#2ca02c;" x="505.14742" xlink:href="#m1fdd84668d" y="378.644917"/>
     <use style="fill:#ffffff;stroke:#2ca02c;" x="534.192465" xlink:href="#m1fdd84668d" y="375.663015"/>
    </g>
   </g>
   <g id="line2d_28">
    <path clip-path="url(#p795461666e)" d="M 117 512.64 
L 142.817818 498.977227 
L 171.862863 475.40573 
L 200.907908 463.762548 
L 229.952953 456.771492 
L 258.997998 452.674994 
L 288.043043 451.325213 
L 317.088088 447.321628 
L 346.133133 421.03454 
L 375.178178 414.02107 
L 404.223223 403.863338 
L 433.268268 394.106309 
L 462.313313 387.80731 
L 491.358358 386.772677 
" style="fill:none;stroke:#d62728;stroke-linecap:square;stroke-width:1.5;"/>
    <g clip-path="url(#p795461666e)">
     <use style="fill:#ffffff;stroke:#d62728;" x="117" xlink:href="#ma67bed7ebd" y="512.64"/>
     <use style="fill:#ffffff;stroke:#d62728;" x="142.817818" xlink:href="#ma67bed7ebd" y="498.977227"/>
     <use style="fill:#ffffff;stroke:#d62728;" x="171.862863" xlink:href="#ma67bed7ebd" y="475.40573"/>
     <use style="fill:#ffffff;stroke:#d62728;" x="200.907908" xlink:href="#ma67bed7ebd" y="463.762548"/>
     <use style="fill:#ffffff;stroke:#d62728;" x="229.952953" xlink:href="#ma67bed7ebd" y="456.771492"/>
     <use style="fill:#ffffff;stroke:#d62728;" x="258.997998" xlink:href="#ma67bed7ebd" y="452.674994"/>
     <use style="fill:#ffffff;stroke:#d62728;" x="288.043043" xlink:href="#ma67bed7ebd" y="451.325213"/>
     <use style="fill:#ffffff;stroke:#d62728;" x="317.088088" xlink:href="#ma67bed7ebd" y="447.321628"/>
     <use style="fill:#ffffff;stroke:#d62728;" x="346.133133" xlink:href="#ma67bed7ebd" y="421.03454"/>
     <use style="fill:#ffffff;stroke:#d62728;" x="375.178178" xlink:href="#ma67bed7ebd" y="414.02107"/>
     <use style="fill:#ffffff;stroke:#d62728;" x="404.223223" xlink:href="#ma67bed7ebd" y="403.863338"/>
     <use style="fill:#ffffff;stroke:#d62728;" x="433.268268" xlink:href="#ma67bed7ebd" y="394.106309"/>
     <use style="fill:#ffffff;stroke:#d62728;" x="462.313313" xlink:href="#ma67bed7ebd" y="387.80731"/>
     <use style="fill:#ffffff;stroke:#d62728;" x="491.358358" xlink:href="#ma67bed7ebd" y="386.772677"/>
    </g>
   </g>
   <g id="line2d_29">
    <path clip-path="url(#p795461666e)" d="M 117 512.64 
L 125.068068 504.002776 
L 154.113113 482.994065 
L 183.158158 455.39803 
L 212.203203 438.234876 
L 241.248248 431.949903 
L 270.293293 412.871481 
L 299.338338 401.661748 
L 328.383383 393.045413 
L 357.428428 379.646719 
L 386.473473 366.921036 
L 415.518519 356.62543 
" style="fill:none;stroke:#9467bd;stroke-linecap:square;stroke-width:1.5;"/>
    <g clip-path="url(#p795461666e)">
     <use style="fill:#ffffff;stroke:#9467bd;" x="117" xlink:href="#mdb5a78d0ec" y="512.64"/>
     <use style="fill:#ffffff;stroke:#9467bd;" x="125.068068" xlink:href="#mdb5a78d0ec" y="504.002776"/>
     <use style="fill:#ffffff;stroke:#9467bd;" x="154.113113" xlink:href="#mdb5a78d0ec" y="482.994065"/>
     <use style="fill:#ffffff;stroke:#9467bd;" x="183.158158" xlink:href="#mdb5a78d0ec" y="455.39803"/>
     <use style="fill:#ffffff;stroke:#9467bd;" x="212.203203" xlink:href="#mdb5a78d0ec" y="438.234876"/>
     <use style="fill:#ffffff;stroke:#9467bd;" x="241.248248" xlink:href="#mdb5a78d0ec" y="431.949903"/>
     <use style="fill:#ffffff;stroke:#9467bd;" x="270.293293" xlink:href="#mdb5a78d0ec" y="412.871481"/>
     <use style="fill:#ffffff;stroke:#9467bd;" x="299.338338" xlink:href="#mdb5a78d0ec" y="401.661748"/>
     <use style="fill:#ffffff;stroke:#9467bd;" x="328.383383" xlink:href="#mdb5a78d0ec" y="393.045413"/>
     <use style="fill:#ffffff;stroke:#9467bd;" x="357.428428" xlink:href="#mdb5a78d0ec" y="379.646719"/>
     <use style="fill:#ffffff;stroke:#9467bd;" x="386.473473" xlink:href="#mdb5a78d0ec" y="366.921036"/>
     <use style="fill:#ffffff;stroke:#9467bd;" x="415.518519" xlink:href="#mdb5a78d0ec" y="356.62543"/>
    </g>
   </g>
   <g id="line2d_30">
    <path clip-path="url(#p795461666e)" d="M 117 512.64 
L 137.331532 500.639862 
L 166.376577 497.326864 
L 195.421622 486.101558 
L 224.466667 481.456093 
L 253.511712 479.928426 
L 282.556757 473.917776 
L 311.601802 458.153056 
L 340.646847 451.325213 
L 369.691892 438.234876 
L 398.736937 429.481274 
L 427.781982 418.674236 
L 456.827027 409.454684 
" style="fill:none;stroke:#8c564b;stroke-linecap:square;stroke-width:1.5;"/>
    <g clip-path="url(#p795461666e)">
     <use style="fill:#ffffff;stroke:#8c564b;" x="117" xlink:href="#mc9127fd79f" y="512.64"/>
     <use style="fill:#ffffff;stroke:#8c564b;" x="137.331532" xlink:href="#mc9127fd79f" y="500.639862"/>
     <use style="fill:#ffffff;stroke:#8c564b;" x="166.376577" xlink:href="#mc9127fd79f" y="497.326864"/>
     <use style="fill:#ffffff;stroke:#8c564b;" x="195.421622" xlink:href="#mc9127fd79f" y="486.101558"/>
     <use style="fill:#ffffff;stroke:#8c564b;" x="224.466667" xlink:href="#mc9127fd79f" y="481.456093"/>
     <use style="fill:#ffffff;stroke:#8c564b;" x="253.511712" xlink:href="#mc9127fd79f" y="479.928426"/>
     <use style="fill:#ffffff;stroke:#8c564b;" x="282.556757" xlink:href="#mc9127fd79f" y="473.917776"/>
     <use style="fill:#ffffff;stroke:#8c564b;" x="311.601802" xlink:href="#mc9127fd79f" y="458.153056"/>
     <use style="fill:#ffffff;stroke:#8c564b;" x="340.646847" xlink:href="#mc9127fd79f" y="451.325213"/>
     <use style="fill:#ffffff;stroke:#8c564b;" x="369.691892" xlink:href="#mc9127fd79f" y="438.234876"/>
     <use style="fill:#ffffff;stroke:#8c564b;" x="398.736937" xlink:href="#mc9127fd79f" y="429.481274"/>
     <use style="fill:#ffffff;stroke:#8c564b;" x="427.781982" xlink:href="#mc9127fd79f" y="418.674236"/>
     <use style="fill:#ffffff;stroke:#8c564b;" x="456.827027" xlink:href="#mc9127fd79f" y="409.454684"/>
    </g>
   </g>
   <g id="line2d_31">
    <path clip-path="url(#p795461666e)" d="M 117 512.64 
L 126.681682 510.885348 
L 184.771772 497.326864 
L 213.816817 473.917776 
L 242.861862 458.153056 
L 271.906907 449.983123 
L 300.951952 448.648627 
L 329.996997 444.689747 
L 359.042042 440.79586 
L 388.087087 435.701064 
L 417.132132 429.481274 
L 446.177177 418.674236 
L 475.222222 416.336574 
L 533.312312 404.971521 
L 562.357357 401.661748 
" style="fill:none;stroke:#e377c2;stroke-linecap:square;stroke-width:1.5;"/>
    <g clip-path="url(#p795461666e)">
     <use style="fill:#ffffff;stroke:#e377c2;" x="117" xlink:href="#me20ed4cd61" y="512.64"/>
     <use style="fill:#ffffff;stroke:#e377c2;" x="126.681682" xlink:href="#me20ed4cd61" y="510.885348"/>
     <use style="fill:#ffffff;stroke:#e377c2;" x="184.771772" xlink:href="#me20ed4cd61" y="497.326864"/>
     <use style="fill:#ffffff;stroke:#e377c2;" x="213.816817" xlink:href="#me20ed4cd61" y="473.917776"/>
     <use style="fill:#ffffff;stroke:#e377c2;" x="242.861862" xlink:href="#me20ed4cd61" y="458.153056"/>
     <use style="fill:#ffffff;stroke:#e377c2;" x="271.906907" xlink:href="#me20ed4cd61" y="449.983123"/>
     <use style="fill:#ffffff;stroke:#e377c2;" x="300.951952" xlink:href="#me20ed4cd61" y="448.648627"/>
     <use style="fill:#ffffff;stroke:#e377c2;" x="329.996997" xlink:href="#me20ed4cd61" y="444.689747"/>
     <use style="fill:#ffffff;stroke:#e377c2;" x="359.042042" xlink:href="#me20ed4cd61" y="440.79586"/>
     <use style="fill:#ffffff;stroke:#e377c2;" x="388.087087" xlink:href="#me20ed4cd61" y="435.701064"/>
     <use style="fill:#ffffff;stroke:#e377c2;" x="417.132132" xlink:href="#me20ed4cd61" y="429.481274"/>
     <use style="fill:#ffffff;stroke:#e377c2;" x="446.177177" xlink:href="#me20ed4cd61" y="418.674236"/>
     <use style="fill:#ffffff;stroke:#e377c2;" x="475.222222" xlink:href="#me20ed4cd61" y="416.336574"/>
     <use style="fill:#ffffff;stroke:#e377c2;" x="533.312312" xlink:href="#me20ed4cd61" y="404.971521"/>
     <use style="fill:#ffffff;stroke:#e377c2;" x="562.357357" xlink:href="#me20ed4cd61" y="401.661748"/>
    </g>
   </g>
   <g id="line2d_32">
    <path clip-path="url(#p795461666e)" d="M 117 512.64 
L 126.681682 504.002776 
L 155.726727 469.510783 
L 184.771772 451.325213 
L 213.816817 433.193786 
L 242.861862 406.084696 
L 271.906907 382.676121 
L 300.951952 356.62543 
L 329.996997 332.119824 
L 359.042042 318.278551 
L 388.087087 305.872213 
L 417.132132 283.331036 
L 446.177177 252.925642 
L 475.222222 235.305086 
L 504.267267 215.374121 
L 533.312312 201.922071 
L 562.357357 189.555778 
L 591.402402 180.603769 
L 620.447447 170.009457 
L 649.492492 157.944199 
L 678.537538 149.859382 
L 707.582583 135.985092 
L 736.627628 123.511743 
L 765.672673 113.479244 
" style="fill:none;stroke:#7f7f7f;stroke-linecap:square;stroke-width:1.5;"/>
    <g clip-path="url(#p795461666e)">
     <use style="fill:#ffffff;stroke:#7f7f7f;" x="117" xlink:href="#m3d666b6005" y="512.64"/>
     <use style="fill:#ffffff;stroke:#7f7f7f;" x="126.681682" xlink:href="#m3d666b6005" y="504.002776"/>
     <use style="fill:#ffffff;stroke:#7f7f7f;" x="155.726727" xlink:href="#m3d666b6005" y="469.510783"/>
     <use style="fill:#ffffff;stroke:#7f7f7f;" x="184.771772" xlink:href="#m3d666b6005" y="451.325213"/>
     <use style="fill:#ffffff;stroke:#7f7f7f;" x="213.816817" xlink:href="#m3d666b6005" y="433.193786"/>
     <use style="fill:#ffffff;stroke:#7f7f7f;" x="242.861862" xlink:href="#m3d666b6005" y="406.084696"/>
     <use style="fill:#ffffff;stroke:#7f7f7f;" x="271.906907" xlink:href="#m3d666b6005" y="382.676121"/>
     <use style="fill:#ffffff;stroke:#7f7f7f;" x="300.951952" xlink:href="#m3d666b6005" y="356.62543"/>
     <use style="fill:#ffffff;stroke:#7f7f7f;" x="329.996997" xlink:href="#m3d666b6005" y="332.119824"/>
     <use style="fill:#ffffff;stroke:#7f7f7f;" x="359.042042" xlink:href="#m3d666b6005" y="318.278551"/>
     <use style="fill:#ffffff;stroke:#7f7f7f;" x="388.087087" xlink:href="#m3d666b6005" y="305.872213"/>
     <use style="fill:#ffffff;stroke:#7f7f7f;" x="417.132132" xlink:href="#m3d666b6005" y="283.331036"/>
     <use style="fill:#ffffff;stroke:#7f7f7f;" x="446.177177" xlink:href="#m3d666b6005" y="252.925642"/>
     <use style="fill:#ffffff;stroke:#7f7f7f;" x="475.222222" xlink:href="#m3d666b6005" y="235.305086"/>
     <use style="fill:#ffffff;stroke:#7f7f7f;" x="504.267267" xlink:href="#m3d666b6005" y="215.374121"/>
     <use style="fill:#ffffff;stroke:#7f7f7f;" x="533.312312" xlink:href="#m3d666b6005" y="201.922071"/>
     <use style="fill:#ffffff;stroke:#7f7f7f;" x="562.357357" xlink:href="#m3d666b6005" y="189.555778"/>
     <use style="fill:#ffffff;stroke:#7f7f7f;" x="591.402402" xlink:href="#m3d666b6005" y="180.603769"/>
     <use style="fill:#ffffff;stroke:#7f7f7f;" x="620.447447" xlink:href="#m3d666b6005" y="170.009457"/>
     <use style="fill:#ffffff;stroke:#7f7f7f;" x="649.492492" xlink:href="#m3d666b6005" y="157.944199"/>
     <use style="fill:#ffffff;stroke:#7f7f7f;" x="678.537538" xlink:href="#m3d666b6005" y="149.859382"/>
     <use style="fill:#ffffff;stroke:#7f7f7f;" x="707.582583" xlink:href="#m3d666b6005" y="135.985092"/>
     <use style="fill:#ffffff;stroke:#7f7f7f;" x="736.627628" xlink:href="#m3d666b6005" y="123.511743"/>
     <use style="fill:#ffffff;stroke:#7f7f7f;" x="765.672673" xlink:href="#m3d666b6005" y="113.479244"/>
    </g>
   </g>
   <g id="line2d_33">
    <path clip-path="url(#p795461666e)" d="M 117 512.64 
L 124.688394 497.326864 
L 153.733439 478.410909 
L 182.778484 465.1863 
L 211.823529 449.983123 
L 240.868574 439.51193 
L 269.91362 433.193786 
L 298.958665 386.772677 
L 328.00371 373.694324 
L 357.048755 352.077699 
L 386.0938 328.797855 
L 415.138845 313.559175 
L 444.18389 296.193241 
L 473.228935 281.244297 
L 502.27398 263.783848 
L 531.319025 249.19016 
L 560.36407 227.168669 
L 589.409115 213.180262 
L 618.45416 204.564107 
" style="fill:none;stroke:#bcbd22;stroke-linecap:square;stroke-width:1.5;"/>
    <g clip-path="url(#p795461666e)">
     <use style="fill:#ffffff;stroke:#bcbd22;" x="117" xlink:href="#md76bab445a" y="512.64"/>
     <use style="fill:#ffffff;stroke:#bcbd22;" x="124.688394" xlink:href="#md76bab445a" y="497.326864"/>
     <use style="fill:#ffffff;stroke:#bcbd22;" x="153.733439" xlink:href="#md76bab445a" y="478.410909"/>
     <use style="fill:#ffffff;stroke:#bcbd22;" x="182.778484" xlink:href="#md76bab445a" y="465.1863"/>
     <use style="fill:#ffffff;stroke:#bcbd22;" x="211.823529" xlink:href="#md76bab445a" y="449.983123"/>
     <use style="fill:#ffffff;stroke:#bcbd22;" x="240.868574" xlink:href="#md76bab445a" y="439.51193"/>
     <use style="fill:#ffffff;stroke:#bcbd22;" x="269.91362" xlink:href="#md76bab445a" y="433.193786"/>
     <use style="fill:#ffffff;stroke:#bcbd22;" x="298.958665" xlink:href="#md76bab445a" y="386.772677"/>
     <use style="fill:#ffffff;stroke:#bcbd22;" x="328.00371" xlink:href="#md76bab445a" y="373.694324"/>
     <use style="fill:#ffffff;stroke:#bcbd22;" x="357.048755" xlink:href="#md76bab445a" y="352.077699"/>
     <use style="fill:#ffffff;stroke:#bcbd22;" x="386.0938" xlink:href="#md76bab445a" y="328.797855"/>
     <use style="fill:#ffffff;stroke:#bcbd22;" x="415.138845" xlink:href="#md76bab445a" y="313.559175"/>
     <use style="fill:#ffffff;stroke:#bcbd22;" x="444.18389" xlink:href="#md76bab445a" y="296.193241"/>
     <use style="fill:#ffffff;stroke:#bcbd22;" x="473.228935" xlink:href="#md76bab445a" y="281.244297"/>
     <use style="fill:#ffffff;stroke:#bcbd22;" x="502.27398" xlink:href="#md76bab445a" y="263.783848"/>
     <use style="fill:#ffffff;stroke:#bcbd22;" x="531.319025" xlink:href="#md76bab445a" y="249.19016"/>
     <use style="fill:#ffffff;stroke:#bcbd22;" x="560.36407" xlink:href="#md76bab445a" y="227.168669"/>
     <use style="fill:#ffffff;stroke:#bcbd22;" x="589.409115" xlink:href="#md76bab445a" y="213.180262"/>
     <use style="fill:#ffffff;stroke:#bcbd22;" x="618.45416" xlink:href="#md76bab445a" y="204.564107"/>
    </g>
   </g>
   <g id="line2d_34">
    <path clip-path="url(#p795461666e)" d="M 117 512.64 
L 143.624625 494.062146 
L 172.66967 468.060293 
L 201.714715 455.39803 
L 230.75976 446.002032 
L 259.804805 433.193786 
L 288.84985 414.02107 
L 317.894895 400.568243 
L 346.93994 384.716081 
L 375.984985 376.653099 
L 405.03003 370.769494 
L 434.075075 362.190204 
L 463.12012 352.980902 
L 492.165165 342.343384 
L 521.21021 338.89134 
L 550.255255 329.624463 
L 579.3003 325.516836 
L 608.345345 322.275649 
L 637.39039 317.486221 
" style="fill:none;stroke:#17becf;stroke-linecap:square;stroke-width:1.5;"/>
    <g clip-path="url(#p795461666e)">
     <use style="fill:#ffffff;stroke:#17becf;" x="117" xlink:href="#m34411f7ee1" y="512.64"/>
     <use style="fill:#ffffff;stroke:#17becf;" x="143.624625" xlink:href="#m34411f7ee1" y="494.062146"/>
     <use style="fill:#ffffff;stroke:#17becf;" x="172.66967" xlink:href="#m34411f7ee1" y="468.060293"/>
     <use style="fill:#ffffff;stroke:#17becf;" x="201.714715" xlink:href="#m34411f7ee1" y="455.39803"/>
     <use style="fill:#ffffff;stroke:#17becf;" x="230.75976" xlink:href="#m34411f7ee1" y="446.002032"/>
     <use style="fill:#ffffff;stroke:#17becf;" x="259.804805" xlink:href="#m34411f7ee1" y="433.193786"/>
     <use style="fill:#ffffff;stroke:#17becf;" x="288.84985" xlink:href="#m34411f7ee1" y="414.02107"/>
     <use style="fill:#ffffff;stroke:#17becf;" x="317.894895" xlink:href="#m34411f7ee1" y="400.568243"/>
     <use style="fill:#ffffff;stroke:#17becf;" x="346.93994" xlink:href="#m34411f7ee1" y="384.716081"/>
     <use style="fill:#ffffff;stroke:#17becf;" x="375.984985" xlink:href="#m34411f7ee1" y="376.653099"/>
     <use style="fill:#ffffff;stroke:#17becf;" x="405.03003" xlink:href="#m34411f7ee1" y="370.769494"/>
     <use style="fill:#ffffff;stroke:#17becf;" x="434.075075" xlink:href="#m34411f7ee1" y="362.190204"/>
     <use style="fill:#ffffff;stroke:#17becf;" x="463.12012" xlink:href="#m34411f7ee1" y="352.980902"/>
     <use style="fill:#ffffff;stroke:#17becf;" x="492.165165" xlink:href="#m34411f7ee1" y="342.343384"/>
     <use style="fill:#ffffff;stroke:#17becf;" x="521.21021" xlink:href="#m34411f7ee1" y="338.89134"/>
     <use style="fill:#ffffff;stroke:#17becf;" x="550.255255" xlink:href="#m34411f7ee1" y="329.624463"/>
     <use style="fill:#ffffff;stroke:#17becf;" x="579.3003" xlink:href="#m34411f7ee1" y="325.516836"/>
     <use style="fill:#ffffff;stroke:#17becf;" x="608.345345" xlink:href="#m34411f7ee1" y="322.275649"/>
     <use style="fill:#ffffff;stroke:#17becf;" x="637.39039" xlink:href="#m34411f7ee1" y="317.486221"/>
    </g>
   </g>
   <g id="patch_3">
    <path d="M 117 512.64 
L 117 69.12 
" style="fill:none;stroke:#666666;stroke-linecap:square;stroke-linejoin:miter;stroke-width:0.8;"/>
   </g>
   <g id="patch_4">
    <path d="M 117 512.64 
L 842.4 512.64 
" style="fill:none;stroke:#666666;stroke-linecap:square;stroke-linejoin:miter;stroke-width:0.8;"/>
   </g>
   <g id="text_7">
    <g id="patch_5">
     <path d="M 370.071277 366.709126 
C 371.571277 368.209126 383.983777 368.209126 385.483777 366.709126 
C 386.983777 365.209126 386.983777 355.531001 385.483777 354.031001 
C 383.983777 352.531001 371.571277 352.531001 370.071277 354.031001 
C 368.571277 355.531001 368.571277 365.209126 370.071277 366.709126 
z
" style="fill:#ffffff;stroke:#1f77b4;stroke-linejoin:miter;"/>
    </g>
    <!-- AL -->
    <defs>
     <path d="M 34.1875 63.1875 
L 20.796875 26.90625 
L 47.609375 26.90625 
z
M 28.609375 72.90625 
L 39.796875 72.90625 
L 67.578125 0 
L 57.328125 0 
L 50.6875 18.703125 
L 17.828125 18.703125 
L 11.1875 0 
L 0.78125 0 
z
" id="DejaVuSans-65"/>
     <path d="M 9.8125 72.90625 
L 19.671875 72.90625 
L 19.671875 8.296875 
L 55.171875 8.296875 
L 55.171875 0 
L 9.8125 0 
z
" id="DejaVuSans-76"/>
    </defs>
    <g style="fill:#1f77b4;" transform="translate(371.571277 363.129438)scale(0.1 -0.1)">
     <use xlink:href="#DejaVuSans-65"/>
     <use x="68.408203" xlink:href="#DejaVuSans-76"/>
    </g>
   </g>
   <g id="text_8">
    <g id="patch_6">
     <path d="M 572.299345 318.702821 
C 573.799345 320.202821 587.48997 320.202821 588.98997 318.702821 
C 590.48997 317.202821 590.48997 307.524696 588.98997 306.024696 
C 587.48997 304.524696 573.799345 304.524696 572.299345 306.024696 
C 570.799345 307.524696 570.799345 317.202821 572.299345 318.702821 
z
" style="fill:#ffffff;stroke:#ff7f0e;stroke-linejoin:miter;"/>
    </g>
    <!-- AZ -->
    <defs>
     <path d="M 5.609375 72.90625 
L 62.890625 72.90625 
L 62.890625 65.375 
L 16.796875 8.296875 
L 64.015625 8.296875 
L 64.015625 0 
L 4.5 0 
L 4.5 7.515625 
L 50.59375 64.59375 
L 5.609375 64.59375 
z
" id="DejaVuSans-90"/>
    </defs>
    <g style="fill:#ff7f0e;" transform="translate(573.799345 315.123134)scale(0.1 -0.1)">
     <use xlink:href="#DejaVuSans-65"/>
     <use x="68.408203" xlink:href="#DejaVuSans-90"/>
    </g>
   </g>
   <g id="text_9">
    <g id="patch_7">
     <path d="M 806.357143 93.819688 
C 807.857143 95.319688 822.71183 95.319688 824.21183 93.819688 
C 825.71183 92.319688 825.71183 82.641563 824.21183 81.141563 
C 822.71183 79.641563 807.857143 79.641563 806.357143 81.141563 
C 804.857143 82.641563 804.857143 92.319688 806.357143 93.819688 
z
" style="fill:#ffffff;stroke:#2ca02c;stroke-linejoin:miter;"/>
    </g>
    <!-- CO -->
    <defs>
     <path d="M 64.40625 67.28125 
L 64.40625 56.890625 
Q 59.421875 61.53125 53.78125 63.8125 
Q 48.140625 66.109375 41.796875 66.109375 
Q 29.296875 66.109375 22.65625 58.46875 
Q 16.015625 50.828125 16.015625 36.375 
Q 16.015625 21.96875 22.65625 14.328125 
Q 29.296875 6.6875 41.796875 6.6875 
Q 48.140625 6.6875 53.78125 8.984375 
Q 59.421875 11.28125 64.40625 15.921875 
L 64.40625 5.609375 
Q 59.234375 2.09375 53.4375 0.328125 
Q 47.65625 -1.421875 41.21875 -1.421875 
Q 24.65625 -1.421875 15.125 8.703125 
Q 5.609375 18.84375 5.609375 36.375 
Q 5.609375 53.953125 15.125 64.078125 
Q 24.65625 74.21875 41.21875 74.21875 
Q 47.75 74.21875 53.53125 72.484375 
Q 59.328125 70.75 64.40625 67.28125 
z
" id="DejaVuSans-67"/>
     <path d="M 39.40625 66.21875 
Q 28.65625 66.21875 22.328125 58.203125 
Q 16.015625 50.203125 16.015625 36.375 
Q 16.015625 22.609375 22.328125 14.59375 
Q 28.65625 6.59375 39.40625 6.59375 
Q 50.140625 6.59375 56.421875 14.59375 
Q 62.703125 22.609375 62.703125 36.375 
Q 62.703125 50.203125 56.421875 58.203125 
Q 50.140625 66.21875 39.40625 66.21875 
z
M 39.40625 74.21875 
Q 54.734375 74.21875 63.90625 63.9375 
Q 73.09375 53.65625 73.09375 36.375 
Q 73.09375 19.140625 63.90625 8.859375 
Q 54.734375 -1.421875 39.40625 -1.421875 
Q 24.03125 -1.421875 14.8125 8.828125 
Q 5.609375 19.09375 5.609375 36.375 
Q 5.609375 53.65625 14.8125 63.9375 
Q 24.03125 74.21875 39.40625 74.21875 
z
" id="DejaVuSans-79"/>
    </defs>
    <g style="fill:#2ca02c;" transform="translate(807.857143 90.24)scale(0.1 -0.1)">
     <use xlink:href="#DejaVuSans-67"/>
     <use x="69.824219" xlink:href="#DejaVuSans-79"/>
    </g>
   </g>
   <g id="text_10">
    <g id="patch_8">
     <path d="M 305.906406 408.551208 
C 307.406406 410.051208 322.089219 410.051208 323.589219 408.551208 
C 325.089219 407.051208 325.089219 397.373083 323.589219 395.873083 
C 322.089219 394.373083 307.406406 394.373083 305.906406 395.873083 
C 304.406406 397.373083 304.406406 407.051208 305.906406 408.551208 
z
" style="fill:#ffffff;stroke:#d62728;stroke-linejoin:miter;"/>
    </g>
    <!-- DC -->
    <g style="fill:#d62728;" transform="translate(307.406406 404.971521)scale(0.1 -0.1)">
     <use xlink:href="#DejaVuSans-68"/>
     <use x="77.001953" xlink:href="#DejaVuSans-67"/>
    </g>
   </g>
   <g id="text_11">
    <g id="patch_9">
     <path d="M 173.59009 483.508113 
C 175.09009 485.008113 189.10884 485.008113 190.60884 483.508113 
C 192.10884 482.008113 192.10884 472.329988 190.60884 470.829988 
C 189.10884 469.329988 175.09009 469.329988 173.59009 470.829988 
C 172.09009 472.329988 172.09009 482.008113 173.59009 483.508113 
z
" style="fill:#ffffff;stroke:#9467bd;stroke-linejoin:miter;"/>
    </g>
    <!-- DE -->
    <defs>
     <path d="M 9.8125 72.90625 
L 55.90625 72.90625 
L 55.90625 64.59375 
L 19.671875 64.59375 
L 19.671875 43.015625 
L 54.390625 43.015625 
L 54.390625 34.71875 
L 19.671875 34.71875 
L 19.671875 8.296875 
L 56.78125 8.296875 
L 56.78125 0 
L 9.8125 0 
z
" id="DejaVuSans-69"/>
    </defs>
    <g style="fill:#9467bd;" transform="translate(175.09009 479.928426)scale(0.1 -0.1)">
     <use xlink:href="#DejaVuSans-68"/>
     <use x="77.001953" xlink:href="#DejaVuSans-69"/>
    </g>
   </g>
   <g id="text_12">
    <g id="patch_10">
     <path d="M 192.073301 486.573752 
C 193.573301 488.073752 203.363926 488.073752 204.863926 486.573752 
C 206.363926 485.073752 206.363926 475.395627 204.863926 473.895627 
C 203.363926 472.395627 193.573301 472.395627 192.073301 473.895627 
C 190.573301 475.395627 190.573301 485.073752 192.073301 486.573752 
z
" style="fill:#ffffff;stroke:#8c564b;stroke-linejoin:miter;"/>
    </g>
    <!-- IA -->
    <defs>
     <path d="M 9.8125 72.90625 
L 19.671875 72.90625 
L 19.671875 0 
L 9.8125 0 
z
" id="DejaVuSans-73"/>
    </defs>
    <g style="fill:#8c564b;" transform="translate(193.573301 482.994065)scale(0.1 -0.1)">
     <use xlink:href="#DejaVuSans-73"/>
     <use x="29.492188" xlink:href="#DejaVuSans-65"/>
    </g>
   </g>
   <g id="text_13">
    <g id="patch_11">
     <path d="M 289.77027 486.573752 
C 291.27027 488.073752 304.17652 488.073752 305.67652 486.573752 
C 307.17652 485.073752 307.17652 475.395627 305.67652 473.895627 
C 304.17652 472.395627 291.27027 472.395627 289.77027 473.895627 
C 288.27027 475.395627 288.27027 485.073752 289.77027 486.573752 
z
" style="fill:#ffffff;stroke:#e377c2;stroke-linejoin:miter;"/>
    </g>
    <!-- KS -->
    <defs>
     <path d="M 9.8125 72.90625 
L 19.671875 72.90625 
L 19.671875 42.09375 
L 52.390625 72.90625 
L 65.09375 72.90625 
L 28.90625 38.921875 
L 67.671875 0 
L 54.6875 0 
L 19.671875 35.109375 
L 19.671875 0 
L 9.8125 0 
z
" id="DejaVuSans-75"/>
     <path d="M 53.515625 70.515625 
L 53.515625 60.890625 
Q 47.90625 63.578125 42.921875 64.890625 
Q 37.9375 66.21875 33.296875 66.21875 
Q 25.25 66.21875 20.875 63.09375 
Q 16.5 59.96875 16.5 54.203125 
Q 16.5 49.359375 19.40625 46.890625 
Q 22.3125 44.4375 30.421875 42.921875 
L 36.375 41.703125 
Q 47.40625 39.59375 52.65625 34.296875 
Q 57.90625 29 57.90625 20.125 
Q 57.90625 9.515625 50.796875 4.046875 
Q 43.703125 -1.421875 29.984375 -1.421875 
Q 24.8125 -1.421875 18.96875 -0.25 
Q 13.140625 0.921875 6.890625 3.21875 
L 6.890625 13.375 
Q 12.890625 10.015625 18.65625 8.296875 
Q 24.421875 6.59375 29.984375 6.59375 
Q 38.421875 6.59375 43.015625 9.90625 
Q 47.609375 13.234375 47.609375 19.390625 
Q 47.609375 24.75 44.3125 27.78125 
Q 41.015625 30.8125 33.5 32.328125 
L 27.484375 33.5 
Q 16.453125 35.6875 11.515625 40.375 
Q 6.59375 45.0625 6.59375 53.421875 
Q 6.59375 63.09375 13.40625 68.65625 
Q 20.21875 74.21875 32.171875 74.21875 
Q 37.3125 74.21875 42.625 73.28125 
Q 47.953125 72.359375 53.515625 70.515625 
z
" id="DejaVuSans-83"/>
    </defs>
    <g style="fill:#e377c2;" transform="translate(291.27027 482.994065)scale(0.1 -0.1)">
     <use xlink:href="#DejaVuSans-75"/>
     <use x="65.576172" xlink:href="#DejaVuSans-83"/>
    </g>
   </g>
   <g id="text_14">
    <g id="patch_12">
     <path d="M 504.703604 377.274012 
C 506.203604 378.774012 518.506729 378.774012 520.006729 377.274012 
C 521.506729 375.774012 521.506729 366.095887 520.006729 364.595887 
C 518.506729 363.095887 506.203604 363.095887 504.703604 364.595887 
C 503.203604 366.095887 503.203604 375.774012 504.703604 377.274012 
z
" style="fill:#ffffff;stroke:#7f7f7f;stroke-linejoin:miter;"/>
    </g>
    <!-- KY -->
    <defs>
     <path d="M -0.203125 72.90625 
L 10.40625 72.90625 
L 30.609375 42.921875 
L 50.6875 72.90625 
L 61.28125 72.90625 
L 35.5 34.71875 
L 35.5 0 
L 25.59375 0 
L 25.59375 34.71875 
z
" id="DejaVuSans-89"/>
    </defs>
    <g style="fill:#7f7f7f;" transform="translate(506.203604 373.694324)scale(0.1 -0.1)">
     <use xlink:href="#DejaVuSans-75"/>
     <use x="61.951172" xlink:href="#DejaVuSans-89"/>
    </g>
   </g>
   <g id="text_15">
    <g id="patch_13">
     <path d="M 395.699258 321.065909 
C 397.199258 322.565909 413.308633 322.565909 414.808633 321.065909 
C 416.308633 319.565909 416.308633 309.887784 414.808633 308.387784 
C 413.308633 306.887784 397.199258 306.887784 395.699258 308.387784 
C 394.199258 309.887784 394.199258 319.565909 395.699258 321.065909 
z
" style="fill:#ffffff;stroke:#bcbd22;stroke-linejoin:miter;"/>
    </g>
    <!-- MN -->
    <defs>
     <path d="M 9.8125 72.90625 
L 24.515625 72.90625 
L 43.109375 23.296875 
L 61.8125 72.90625 
L 76.515625 72.90625 
L 76.515625 0 
L 66.890625 0 
L 66.890625 64.015625 
L 48.09375 14.015625 
L 38.1875 14.015625 
L 19.390625 64.015625 
L 19.390625 0 
L 9.8125 0 
z
" id="DejaVuSans-77"/>
     <path d="M 9.8125 72.90625 
L 23.09375 72.90625 
L 55.421875 11.921875 
L 55.421875 72.90625 
L 64.984375 72.90625 
L 64.984375 0 
L 51.703125 0 
L 19.390625 60.984375 
L 19.390625 0 
L 9.8125 0 
z
" id="DejaVuSans-78"/>
    </defs>
    <g style="fill:#bcbd22;" transform="translate(397.199258 317.486221)scale(0.1 -0.1)">
     <use xlink:href="#DejaVuSans-77"/>
     <use x="86.279297" xlink:href="#DejaVuSans-78"/>
    </g>
   </g>
   <g id="text_16">
    <g id="patch_14">
     <path d="M 571.283784 319.488216 
C 572.783784 320.988216 589.283784 320.988216 590.783784 319.488216 
C 592.283784 317.988216 592.283784 308.310091 590.783784 306.810091 
C 589.283784 305.310091 572.783784 305.310091 571.283784 306.810091 
C 569.783784 308.310091 569.783784 317.988216 571.283784 319.488216 
z
" style="fill:#ffffff;stroke:#17becf;stroke-linejoin:miter;"/>
    </g>
    <!-- MO -->
    <g style="fill:#17becf;" transform="translate(572.783784 315.908528)scale(0.1 -0.1)">
     <use xlink:href="#DejaVuSans-77"/>
     <use x="86.279297" xlink:href="#DejaVuSans-79"/>
    </g>
   </g>
   <g id="text_17">
    <g id="patch_15">
     <path d="M 488.617117 359.289178 
C 490.117117 360.789178 505.09368 360.789178 506.59368 359.289178 
C 508.09368 357.789178 508.09368 348.111053 506.59368 346.611053 
C 505.09368 345.111053 490.117117 345.111053 488.617117 346.611053 
C 487.117117 348.111053 487.117117 357.789178 488.617117 359.289178 
z
" style="fill:#ffffff;stroke:#1f77b4;stroke-linejoin:miter;"/>
    </g>
    <!-- MS -->
    <g style="fill:#1f77b4;" transform="translate(490.117117 355.70949)scale(0.1 -0.1)">
     <use xlink:href="#DejaVuSans-77"/>
     <use x="86.279297" xlink:href="#DejaVuSans-83"/>
    </g>
   </g>
   <g id="text_18">
    <g id="patch_16">
     <path d="M 474.602375 300.505422 
C 476.102375 302.005422 490.566438 302.005422 492.066438 300.505422 
C 493.566438 299.005422 493.566438 289.327297 492.066438 287.827297 
C 490.566438 286.327297 476.102375 286.327297 474.602375 287.827297 
C 473.102375 289.327297 473.102375 299.005422 474.602375 300.505422 
z
" style="fill:#ffffff;stroke:#ff7f0e;stroke-linejoin:miter;"/>
    </g>
    <!-- NC -->
    <g style="fill:#ff7f0e;" transform="translate(476.102375 296.925735)scale(0.1 -0.1)">
     <use xlink:href="#DejaVuSans-78"/>
     <use x="74.804688" xlink:href="#DejaVuSans-67"/>
    </g>
   </g>
   <g id="text_19">
    <g id="patch_17">
     <path d="M 532.692465 379.242702 
C 534.192465 380.742702 548.51434 380.742702 550.01434 379.242702 
C 551.51434 377.742702 551.51434 368.064577 550.01434 366.564577 
C 548.51434 365.064577 534.192465 365.064577 532.692465 366.564577 
C 531.192465 368.064577 531.192465 377.742702 532.692465 379.242702 
z
" style="fill:#ffffff;stroke:#2ca02c;stroke-linejoin:miter;"/>
    </g>
    <!-- NV -->
    <defs>
     <path d="M 28.609375 0 
L 0.78125 72.90625 
L 11.078125 72.90625 
L 34.1875 11.53125 
L 57.328125 72.90625 
L 67.578125 72.90625 
L 39.796875 0 
z
" id="DejaVuSans-86"/>
    </defs>
    <g style="fill:#2ca02c;" transform="translate(534.192465 375.663015)scale(0.1 -0.1)">
     <use xlink:href="#DejaVuSans-78"/>
     <use x="74.804688" xlink:href="#DejaVuSans-86"/>
    </g>
   </g>
   <g id="text_20">
    <g id="patch_18">
     <path d="M 489.858358 390.352365 
C 491.358358 391.852365 505.788046 391.852365 507.288046 390.352365 
C 508.788046 388.852365 508.788046 379.17424 507.288046 377.67424 
C 505.788046 376.17424 491.358358 376.17424 489.858358 377.67424 
C 488.358358 379.17424 488.358358 388.852365 489.858358 390.352365 
z
" style="fill:#ffffff;stroke:#d62728;stroke-linejoin:miter;"/>
    </g>
    <!-- OK -->
    <g style="fill:#d62728;" transform="translate(491.358358 386.772677)scale(0.1 -0.1)">
     <use xlink:href="#DejaVuSans-79"/>
     <use x="78.710938" xlink:href="#DejaVuSans-75"/>
    </g>
   </g>
   <g id="text_21">
    <g id="patch_19">
     <path d="M 414.018519 360.205118 
C 415.518519 361.705118 425.416956 361.705118 426.916956 360.205118 
C 428.416956 358.705118 428.416956 349.026993 426.916956 347.526993 
C 425.416956 346.026993 415.518519 346.026993 414.018519 347.526993 
C 412.518519 349.026993 412.518519 358.705118 414.018519 360.205118 
z
" style="fill:#ffffff;stroke:#9467bd;stroke-linejoin:miter;"/>
    </g>
    <!-- RI -->
    <defs>
     <path d="M 44.390625 34.1875 
Q 47.5625 33.109375 50.5625 29.59375 
Q 53.5625 26.078125 56.59375 19.921875 
L 66.609375 0 
L 56 0 
L 46.6875 18.703125 
Q 43.0625 26.03125 39.671875 28.421875 
Q 36.28125 30.8125 30.421875 30.8125 
L 19.671875 30.8125 
L 19.671875 0 
L 9.8125 0 
L 9.8125 72.90625 
L 32.078125 72.90625 
Q 44.578125 72.90625 50.734375 67.671875 
Q 56.890625 62.453125 56.890625 51.90625 
Q 56.890625 45.015625 53.6875 40.46875 
Q 50.484375 35.9375 44.390625 34.1875 
z
M 19.671875 64.796875 
L 19.671875 38.921875 
L 32.078125 38.921875 
Q 39.203125 38.921875 42.84375 42.21875 
Q 46.484375 45.515625 46.484375 51.90625 
Q 46.484375 58.296875 42.84375 61.546875 
Q 39.203125 64.796875 32.078125 64.796875 
z
" id="DejaVuSans-82"/>
    </defs>
    <g style="fill:#9467bd;" transform="translate(415.518519 356.62543)scale(0.1 -0.1)">
     <use xlink:href="#DejaVuSans-82"/>
     <use x="69.482422" xlink:href="#DejaVuSans-73"/>
    </g>
   </g>
   <g id="text_22">
    <g id="patch_20">
     <path d="M 455.327027 413.034372 
C 456.827027 414.534372 470.158277 414.534372 471.658277 413.034372 
C 473.158277 411.534372 473.158277 401.856247 471.658277 400.356247 
C 470.158277 398.856247 456.827027 398.856247 455.327027 400.356247 
C 453.827027 401.856247 453.827027 411.534372 455.327027 413.034372 
z
" style="fill:#ffffff;stroke:#8c564b;stroke-linejoin:miter;"/>
    </g>
    <!-- SC -->
    <g style="fill:#8c564b;" transform="translate(456.827027 409.454684)scale(0.1 -0.1)">
     <use xlink:href="#DejaVuSans-83"/>
     <use x="63.476562" xlink:href="#DejaVuSans-67"/>
    </g>
   </g>
   <g id="text_23">
    <g id="patch_21">
     <path d="M 560.857357 405.241435 
C 562.357357 406.741435 575.94642 406.741435 577.44642 405.241435 
C 578.94642 403.741435 578.94642 394.06331 577.44642 392.56331 
C 575.94642 391.06331 562.357357 391.06331 560.857357 392.56331 
C 559.357357 394.06331 559.357357 403.741435 560.857357 405.241435 
z
" style="fill:#ffffff;stroke:#e377c2;stroke-linejoin:miter;"/>
    </g>
    <!-- TN -->
    <defs>
     <path d="M -0.296875 72.90625 
L 61.375 72.90625 
L 61.375 64.59375 
L 35.5 64.59375 
L 35.5 0 
L 25.59375 0 
L 25.59375 64.59375 
L -0.296875 64.59375 
z
" id="DejaVuSans-84"/>
    </defs>
    <g style="fill:#e377c2;" transform="translate(562.357357 401.661748)scale(0.1 -0.1)">
     <use xlink:href="#DejaVuSans-84"/>
     <use x="61.083984" xlink:href="#DejaVuSans-78"/>
    </g>
   </g>
   <g id="text_24">
    <g id="patch_22">
     <path d="M 764.172673 117.058931 
C 765.672673 118.558931 778.630485 118.558931 780.130485 117.058931 
C 781.630485 115.558931 781.630485 105.880806 780.130485 104.380806 
C 778.630485 102.880806 765.672673 102.880806 764.172673 104.380806 
C 762.672673 105.880806 762.672673 115.558931 764.172673 117.058931 
z
" style="fill:#ffffff;stroke:#7f7f7f;stroke-linejoin:miter;"/>
    </g>
    <!-- TX -->
    <defs>
     <path d="M 6.296875 72.90625 
L 16.890625 72.90625 
L 35.015625 45.796875 
L 53.21875 72.90625 
L 63.8125 72.90625 
L 40.375 37.890625 
L 65.375 0 
L 54.78125 0 
L 34.28125 31 
L 13.625 0 
L 2.984375 0 
L 29 38.921875 
z
" id="DejaVuSans-88"/>
    </defs>
    <g style="fill:#7f7f7f;" transform="translate(765.672673 113.479244)scale(0.1 -0.1)">
     <use xlink:href="#DejaVuSans-84"/>
     <use x="61.083984" xlink:href="#DejaVuSans-88"/>
    </g>
   </g>
   <g id="text_25">
    <g id="patch_23">
     <path d="M 616.95416 208.143794 
C 618.45416 209.643794 631.49791 209.643794 632.99791 208.143794 
C 634.49791 206.643794 634.49791 196.965669 632.99791 195.465669 
C 631.49791 193.965669 618.45416 193.965669 616.95416 195.465669 
C 615.45416 196.965669 615.45416 206.643794 616.95416 208.143794 
z
" style="fill:#ffffff;stroke:#bcbd22;stroke-linejoin:miter;"/>
    </g>
    <!-- VA -->
    <g style="fill:#bcbd22;" transform="translate(618.45416 204.564107)scale(0.1 -0.1)">
     <use xlink:href="#DejaVuSans-86"/>
     <use x="62.033203" xlink:href="#DejaVuSans-65"/>
    </g>
   </g>
   <g id="text_26">
    <g id="patch_24">
     <path d="M 635.89039 321.065909 
C 637.39039 322.565909 650.22789 322.565909 651.72789 321.065909 
C 653.22789 319.565909 653.22789 309.887784 651.72789 308.387784 
C 650.22789 306.887784 637.39039 306.887784 635.89039 308.387784 
C 634.39039 309.887784 634.39039 319.565909 635.89039 321.065909 
z
" style="fill:#ffffff;stroke:#17becf;stroke-linejoin:miter;"/>
    </g>
    <!-- WI -->
    <defs>
     <path d="M 3.328125 72.90625 
L 13.28125 72.90625 
L 28.609375 11.28125 
L 43.890625 72.90625 
L 54.984375 72.90625 
L 70.3125 11.28125 
L 85.59375 72.90625 
L 95.609375 72.90625 
L 77.296875 0 
L 64.890625 0 
L 49.515625 63.28125 
L 33.984375 0 
L 21.578125 0 
z
" id="DejaVuSans-87"/>
    </defs>
    <g style="fill:#17becf;" transform="translate(637.39039 317.486221)scale(0.1 -0.1)">
     <use xlink:href="#DejaVuSans-87"/>
     <use x="98.876953" xlink:href="#DejaVuSans-73"/>
    </g>
   </g>
   <g id="text_27">
    <!-- 1d -->
    <g style="fill:#b2b2b2;" transform="translate(176.230631 91.762791)scale(0.1 -0.1)">
     <use xlink:href="#DejaVuSans-49"/>
     <use x="63.623047" xlink:href="#DejaVuSans-100"/>
    </g>
   </g>
   <g id="text_28">
    <!-- 2d -->
    <g style="fill:#b2b2b2;" transform="translate(260.461261 91.762791)scale(0.1 -0.1)">
     <use xlink:href="#DejaVuSans-50"/>
     <use x="63.623047" xlink:href="#DejaVuSans-100"/>
    </g>
   </g>
   <g id="text_29">
    <!-- 3d -->
    <defs>
     <path d="M 40.578125 39.3125 
Q 47.65625 37.796875 51.625 33 
Q 55.609375 28.21875 55.609375 21.1875 
Q 55.609375 10.40625 48.1875 4.484375 
Q 40.765625 -1.421875 27.09375 -1.421875 
Q 22.515625 -1.421875 17.65625 -0.515625 
Q 12.796875 0.390625 7.625 2.203125 
L 7.625 11.71875 
Q 11.71875 9.328125 16.59375 8.109375 
Q 21.484375 6.890625 26.8125 6.890625 
Q 36.078125 6.890625 40.9375 10.546875 
Q 45.796875 14.203125 45.796875 21.1875 
Q 45.796875 27.640625 41.28125 31.265625 
Q 36.765625 34.90625 28.71875 34.90625 
L 20.21875 34.90625 
L 20.21875 43.015625 
L 29.109375 43.015625 
Q 36.375 43.015625 40.234375 45.921875 
Q 44.09375 48.828125 44.09375 54.296875 
Q 44.09375 59.90625 40.109375 62.90625 
Q 36.140625 65.921875 28.71875 65.921875 
Q 24.65625 65.921875 20.015625 65.03125 
Q 15.375 64.15625 9.8125 62.3125 
L 9.8125 71.09375 
Q 15.4375 72.65625 20.34375 73.4375 
Q 25.25 74.21875 29.59375 74.21875 
Q 40.828125 74.21875 47.359375 69.109375 
Q 53.90625 64.015625 53.90625 55.328125 
Q 53.90625 49.265625 50.4375 45.09375 
Q 46.96875 40.921875 40.578125 39.3125 
z
" id="DejaVuSans-51"/>
    </defs>
    <g style="fill:#b2b2b2;" transform="translate(347.596396 85.66424)scale(0.1 -0.1)">
     <use xlink:href="#DejaVuSans-51"/>
     <use x="63.623047" xlink:href="#DejaVuSans-100"/>
    </g>
   </g>
   <g id="text_30">
    <!-- 7d -->
    <g style="fill:#b2b2b2;" transform="translate(687.423423 86.537188)scale(0.1 -0.1)">
     <use xlink:href="#DejaVuSans-55"/>
     <use x="63.623047" xlink:href="#DejaVuSans-100"/>
    </g>
   </g>
   <g id="text_31">
    <!-- COVID-19 Deaths by States as of 2020-04-27 03:03 EDT -->
    <defs>
     <path d="M 4.890625 31.390625 
L 31.203125 31.390625 
L 31.203125 23.390625 
L 4.890625 23.390625 
z
" id="DejaVuSans-45"/>
     <path d="M 10.984375 1.515625 
L 10.984375 10.5 
Q 14.703125 8.734375 18.5 7.8125 
Q 22.3125 6.890625 25.984375 6.890625 
Q 35.75 6.890625 40.890625 13.453125 
Q 46.046875 20.015625 46.78125 33.40625 
Q 43.953125 29.203125 39.59375 26.953125 
Q 35.25 24.703125 29.984375 24.703125 
Q 19.046875 24.703125 12.671875 31.3125 
Q 6.296875 37.9375 6.296875 49.421875 
Q 6.296875 60.640625 12.9375 67.421875 
Q 19.578125 74.21875 30.609375 74.21875 
Q 43.265625 74.21875 49.921875 64.515625 
Q 56.59375 54.828125 56.59375 36.375 
Q 56.59375 19.140625 48.40625 8.859375 
Q 40.234375 -1.421875 26.421875 -1.421875 
Q 22.703125 -1.421875 18.890625 -0.6875 
Q 15.09375 0.046875 10.984375 1.515625 
z
M 30.609375 32.421875 
Q 37.25 32.421875 41.125 36.953125 
Q 45.015625 41.5 45.015625 49.421875 
Q 45.015625 57.28125 41.125 61.84375 
Q 37.25 66.40625 30.609375 66.40625 
Q 23.96875 66.40625 20.09375 61.84375 
Q 16.21875 57.28125 16.21875 49.421875 
Q 16.21875 41.5 20.09375 36.953125 
Q 23.96875 32.421875 30.609375 32.421875 
z
" id="DejaVuSans-57"/>
     <path d="M 48.6875 27.296875 
Q 48.6875 37.203125 44.609375 42.84375 
Q 40.53125 48.484375 33.40625 48.484375 
Q 26.265625 48.484375 22.1875 42.84375 
Q 18.109375 37.203125 18.109375 27.296875 
Q 18.109375 17.390625 22.1875 11.75 
Q 26.265625 6.109375 33.40625 6.109375 
Q 40.53125 6.109375 44.609375 11.75 
Q 48.6875 17.390625 48.6875 27.296875 
z
M 18.109375 46.390625 
Q 20.953125 51.265625 25.265625 53.625 
Q 29.59375 56 35.59375 56 
Q 45.5625 56 51.78125 48.09375 
Q 58.015625 40.1875 58.015625 27.296875 
Q 58.015625 14.40625 51.78125 6.484375 
Q 45.5625 -1.421875 35.59375 -1.421875 
Q 29.59375 -1.421875 25.265625 0.953125 
Q 20.953125 3.328125 18.109375 8.203125 
L 18.109375 0 
L 9.078125 0 
L 9.078125 75.984375 
L 18.109375 75.984375 
z
" id="DejaVuSans-98"/>
     <path d="M 30.609375 48.390625 
Q 23.390625 48.390625 19.1875 42.75 
Q 14.984375 37.109375 14.984375 27.296875 
Q 14.984375 17.484375 19.15625 11.84375 
Q 23.34375 6.203125 30.609375 6.203125 
Q 37.796875 6.203125 41.984375 11.859375 
Q 46.1875 17.53125 46.1875 27.296875 
Q 46.1875 37.015625 41.984375 42.703125 
Q 37.796875 48.390625 30.609375 48.390625 
z
M 30.609375 56 
Q 42.328125 56 49.015625 48.375 
Q 55.71875 40.765625 55.71875 27.296875 
Q 55.71875 13.875 49.015625 6.21875 
Q 42.328125 -1.421875 30.609375 -1.421875 
Q 18.84375 -1.421875 12.171875 6.21875 
Q 5.515625 13.875 5.515625 27.296875 
Q 5.515625 40.765625 12.171875 48.375 
Q 18.84375 56 30.609375 56 
z
" id="DejaVuSans-111"/>
     <path d="M 37.109375 75.984375 
L 37.109375 68.5 
L 28.515625 68.5 
Q 23.6875 68.5 21.796875 66.546875 
Q 19.921875 64.59375 19.921875 59.515625 
L 19.921875 54.6875 
L 34.71875 54.6875 
L 34.71875 47.703125 
L 19.921875 47.703125 
L 19.921875 0 
L 10.890625 0 
L 10.890625 47.703125 
L 2.296875 47.703125 
L 2.296875 54.6875 
L 10.890625 54.6875 
L 10.890625 58.5 
Q 10.890625 67.625 15.140625 71.796875 
Q 19.390625 75.984375 28.609375 75.984375 
z
" id="DejaVuSans-102"/>
     <path d="M 11.71875 12.40625 
L 22.015625 12.40625 
L 22.015625 0 
L 11.71875 0 
z
M 11.71875 51.703125 
L 22.015625 51.703125 
L 22.015625 39.3125 
L 11.71875 39.3125 
z
" id="DejaVuSans-58"/>
    </defs>
    <g style="fill:#666666;" transform="translate(310.883438 63.12)scale(0.12 -0.12)">
     <use xlink:href="#DejaVuSans-67"/>
     <use x="69.824219" xlink:href="#DejaVuSans-79"/>
     <use x="146.785156" xlink:href="#DejaVuSans-86"/>
     <use x="215.193359" xlink:href="#DejaVuSans-73"/>
     <use x="244.685547" xlink:href="#DejaVuSans-68"/>
     <use x="321.6875" xlink:href="#DejaVuSans-45"/>
     <use x="357.771484" xlink:href="#DejaVuSans-49"/>
     <use x="421.394531" xlink:href="#DejaVuSans-57"/>
     <use x="485.017578" xlink:href="#DejaVuSans-32"/>
     <use x="516.804688" xlink:href="#DejaVuSans-68"/>
     <use x="593.806641" xlink:href="#DejaVuSans-101"/>
     <use x="655.330078" xlink:href="#DejaVuSans-97"/>
     <use x="716.609375" xlink:href="#DejaVuSans-116"/>
     <use x="755.818359" xlink:href="#DejaVuSans-104"/>
     <use x="819.197266" xlink:href="#DejaVuSans-115"/>
     <use x="871.296875" xlink:href="#DejaVuSans-32"/>
     <use x="903.083984" xlink:href="#DejaVuSans-98"/>
     <use x="966.560547" xlink:href="#DejaVuSans-121"/>
     <use x="1025.740234" xlink:href="#DejaVuSans-32"/>
     <use x="1057.527344" xlink:href="#DejaVuSans-83"/>
     <use x="1121.003906" xlink:href="#DejaVuSans-116"/>
     <use x="1160.212891" xlink:href="#DejaVuSans-97"/>
     <use x="1221.492188" xlink:href="#DejaVuSans-116"/>
     <use x="1260.701172" xlink:href="#DejaVuSans-101"/>
     <use x="1322.224609" xlink:href="#DejaVuSans-115"/>
     <use x="1374.324219" xlink:href="#DejaVuSans-32"/>
     <use x="1406.111328" xlink:href="#DejaVuSans-97"/>
     <use x="1467.390625" xlink:href="#DejaVuSans-115"/>
     <use x="1519.490234" xlink:href="#DejaVuSans-32"/>
     <use x="1551.277344" xlink:href="#DejaVuSans-111"/>
     <use x="1612.458984" xlink:href="#DejaVuSans-102"/>
     <use x="1647.664062" xlink:href="#DejaVuSans-32"/>
     <use x="1679.451172" xlink:href="#DejaVuSans-50"/>
     <use x="1743.074219" xlink:href="#DejaVuSans-48"/>
     <use x="1806.697266" xlink:href="#DejaVuSans-50"/>
     <use x="1870.320312" xlink:href="#DejaVuSans-48"/>
     <use x="1933.943359" xlink:href="#DejaVuSans-45"/>
     <use x="1970.027344" xlink:href="#DejaVuSans-48"/>
     <use x="2033.650391" xlink:href="#DejaVuSans-52"/>
     <use x="2097.273438" xlink:href="#DejaVuSans-45"/>
     <use x="2133.357422" xlink:href="#DejaVuSans-50"/>
     <use x="2196.980469" xlink:href="#DejaVuSans-55"/>
     <use x="2260.603516" xlink:href="#DejaVuSans-32"/>
     <use x="2292.390625" xlink:href="#DejaVuSans-48"/>
     <use x="2356.013672" xlink:href="#DejaVuSans-51"/>
     <use x="2419.636719" xlink:href="#DejaVuSans-58"/>
     <use x="2453.328125" xlink:href="#DejaVuSans-48"/>
     <use x="2516.951172" xlink:href="#DejaVuSans-51"/>
     <use x="2580.574219" xlink:href="#DejaVuSans-32"/>
     <use x="2612.361328" xlink:href="#DejaVuSans-69"/>
     <use x="2675.544922" xlink:href="#DejaVuSans-68"/>
     <use x="2752.546875" xlink:href="#DejaVuSans-84"/>
    </g>
   </g>
  </g>
 </g>
 <defs>
  <clipPath id="p795461666e">
   <rect height="443.52" width="725.4" x="117" y="69.12"/>
  </clipPath>
 </defs>
</svg>
