<?xml version="1.0" encoding="utf-8" standalone="no"?>
<!DOCTYPE svg PUBLIC "-//W3C//DTD SVG 1.1//EN"
  "http://www.w3.org/Graphics/SVG/1.1/DTD/svg11.dtd">
<!-- Created with matplotlib (https://matplotlib.org/) -->
<svg height="576pt" version="1.1" viewBox="0 0 936 576" width="936pt" xmlns="http://www.w3.org/2000/svg" xmlns:xlink="http://www.w3.org/1999/xlink">
 <defs>
  <style type="text/css">
*{stroke-linecap:butt;stroke-linejoin:round;}
  </style>
 </defs>
 <g id="figure_1">
  <g id="patch_1">
   <path d="M 0 576 
L 936 576 
L 936 0 
L 0 0 
z
" style="fill:#ffffff;"/>
  </g>
  <g id="axes_1">
   <g id="patch_2">
    <path d="M 117 512.64 
L 842.4 512.64 
L 842.4 69.12 
L 117 69.12 
z
" style="fill:#ffffff;"/>
   </g>
   <g id="line2d_1">
    <path clip-path="url(#p58d08f33de)" d="M 117 512.64 
L 122.678278 487.455556 
L 128.356556 461.563081 
L 134.034834 434.942669 
L 139.713112 407.573856 
L 145.391389 379.435601 
L 151.069667 350.506272 
L 156.747945 320.763628 
L 162.426223 290.184805 
L 168.104501 258.746295 
L 173.782779 226.423927 
L 179.461057 193.192854 
L 185.139335 159.027528 
L 190.817613 123.901685 
L 196.49589 87.788319 
L 202.174168 50.659669 
L 209.817468 -1 
L 209.817468 -1 
" style="fill:none;stroke:#b2b2b2;stroke-dasharray:1.5,2.475;stroke-dashoffset:0;stroke-width:1.5;"/>
   </g>
   <g id="line2d_2">
    <path clip-path="url(#p58d08f33de)" d="M 117 512.64 
L 128.356556 487.455556 
L 139.713112 461.563081 
L 151.069667 434.942669 
L 162.426223 407.573856 
L 173.782779 379.435601 
L 185.139335 350.506272 
L 196.49589 320.763628 
L 205.013307 297.909177 
L 213.530724 274.574506 
L 222.048141 250.749523 
L 230.565558 226.423927 
L 239.082975 201.587198 
L 247.600391 176.228597 
L 256.117808 150.337158 
L 264.635225 123.901685 
L 273.152642 96.910746 
L 281.670059 69.35267 
L 290.187476 41.21554 
L 298.704892 12.48719 
L 302.640973 -1 
L 302.640973 -1 
" style="fill:none;stroke:#b2b2b2;stroke-dasharray:1.5,2.475;stroke-dashoffset:0;stroke-width:1.5;"/>
   </g>
   <g id="line2d_3">
    <path clip-path="url(#p58d08f33de)" d="M 117 512.64 
L 131.195695 491.701603 
L 145.391389 470.273794 
L 159.587084 448.345133 
L 170.94364 430.433734 
L 182.300196 412.188183 
L 193.656751 393.602247 
L 205.013307 374.669575 
L 216.369863 355.383698 
L 227.726419 335.738028 
L 239.082975 315.725853 
L 250.43953 295.340333 
L 261.796086 274.574506 
L 273.152642 253.421275 
L 284.509198 231.873413 
L 295.865753 209.923559 
L 307.222309 187.564212 
L 318.578865 164.787734 
L 329.935421 141.586342 
L 341.291977 117.952109 
L 352.648532 93.87696 
L 364.005088 69.35267 
L 375.361644 44.37086 
L 386.7182 18.922993 
L 395.464474 -1 
L 395.464474 -1 
" style="fill:none;stroke:#b2b2b2;stroke-dasharray:1.5,2.475;stroke-dashoffset:0;stroke-width:1.5;"/>
   </g>
   <g id="line2d_4">
    <path clip-path="url(#p58d08f33de)" d="M 117 512.64 
L 142.55225 496.530263 
L 168.104501 480.130814 
L 193.656751 463.436445 
L 216.369863 448.345133 
L 239.082975 433.01282 
L 261.796086 417.435656 
L 284.509198 401.609733 
L 307.222309 385.531076 
L 329.935421 369.195652 
L 352.648532 352.599358 
L 375.361644 335.738028 
L 398.074755 318.607432 
L 420.787867 301.203267 
L 443.500978 283.521167 
L 466.21409 265.556691 
L 488.927202 247.305331 
L 511.640313 228.762505 
L 534.353425 209.923559 
L 557.066536 190.783763 
L 579.779648 171.338314 
L 602.492759 151.582331 
L 625.205871 131.510853 
L 647.918982 111.118843 
L 670.632094 90.401182 
L 693.345205 69.35267 
L 716.058317 47.968023 
L 738.771429 26.241873 
L 761.48454 4.168766 
L 766.751227 -1 
L 766.751227 -1 
" style="fill:none;stroke:#b2b2b2;stroke-dasharray:1.5,2.475;stroke-dashoffset:0;stroke-width:1.5;"/>
   </g>
   <g id="matplotlib.axis_1">
    <g id="xtick_1">
     <g id="line2d_5">
      <path clip-path="url(#p58d08f33de)" d="M 117 512.64 
L 117 69.12 
" style="fill:none;stroke:#e6e6e6;stroke-linecap:square;stroke-width:0.8;"/>
     </g>
     <g id="line2d_6">
      <defs>
       <path d="M 0 0 
L 0 3.5 
" id="m17a4061de2" style="stroke:#666666;stroke-width:0.8;"/>
      </defs>
      <g>
       <use style="fill:#666666;stroke:#666666;stroke-width:0.8;" x="117" xlink:href="#m17a4061de2" y="512.64"/>
      </g>
     </g>
     <g id="text_1">
      <!-- 0 -->
      <defs>
       <path d="M 31.78125 66.40625 
Q 24.171875 66.40625 20.328125 58.90625 
Q 16.5 51.421875 16.5 36.375 
Q 16.5 21.390625 20.328125 13.890625 
Q 24.171875 6.390625 31.78125 6.390625 
Q 39.453125 6.390625 43.28125 13.890625 
Q 47.125 21.390625 47.125 36.375 
Q 47.125 51.421875 43.28125 58.90625 
Q 39.453125 66.40625 31.78125 66.40625 
z
M 31.78125 74.21875 
Q 44.046875 74.21875 50.515625 64.515625 
Q 56.984375 54.828125 56.984375 36.375 
Q 56.984375 17.96875 50.515625 8.265625 
Q 44.046875 -1.421875 31.78125 -1.421875 
Q 19.53125 -1.421875 13.0625 8.265625 
Q 6.59375 17.96875 6.59375 36.375 
Q 6.59375 54.828125 13.0625 64.515625 
Q 19.53125 74.21875 31.78125 74.21875 
z
" id="DejaVuSans-48"/>
      </defs>
      <g style="fill:#666666;" transform="translate(113.81875 527.238438)scale(0.1 -0.1)">
       <use xlink:href="#DejaVuSans-48"/>
      </g>
     </g>
    </g>
    <g id="xtick_2">
     <g id="line2d_7">
      <path clip-path="url(#p58d08f33de)" d="M 315.739726 512.64 
L 315.739726 69.12 
" style="fill:none;stroke:#e6e6e6;stroke-linecap:square;stroke-width:0.8;"/>
     </g>
     <g id="line2d_8">
      <g>
       <use style="fill:#666666;stroke:#666666;stroke-width:0.8;" x="315.739726" xlink:href="#m17a4061de2" y="512.64"/>
      </g>
     </g>
     <g id="text_2">
      <!-- 7 -->
      <defs>
       <path d="M 8.203125 72.90625 
L 55.078125 72.90625 
L 55.078125 68.703125 
L 28.609375 0 
L 18.3125 0 
L 43.21875 64.59375 
L 8.203125 64.59375 
z
" id="DejaVuSans-55"/>
      </defs>
      <g style="fill:#666666;" transform="translate(312.558476 527.238438)scale(0.1 -0.1)">
       <use xlink:href="#DejaVuSans-55"/>
      </g>
     </g>
    </g>
    <g id="xtick_3">
     <g id="line2d_9">
      <path clip-path="url(#p58d08f33de)" d="M 514.479452 512.64 
L 514.479452 69.12 
" style="fill:none;stroke:#e6e6e6;stroke-linecap:square;stroke-width:0.8;"/>
     </g>
     <g id="line2d_10">
      <g>
       <use style="fill:#666666;stroke:#666666;stroke-width:0.8;" x="514.479452" xlink:href="#m17a4061de2" y="512.64"/>
      </g>
     </g>
     <g id="text_3">
      <!-- 14 -->
      <defs>
       <path d="M 12.40625 8.296875 
L 28.515625 8.296875 
L 28.515625 63.921875 
L 10.984375 60.40625 
L 10.984375 69.390625 
L 28.421875 72.90625 
L 38.28125 72.90625 
L 38.28125 8.296875 
L 54.390625 8.296875 
L 54.390625 0 
L 12.40625 0 
z
" id="DejaVuSans-49"/>
       <path d="M 37.796875 64.3125 
L 12.890625 25.390625 
L 37.796875 25.390625 
z
M 35.203125 72.90625 
L 47.609375 72.90625 
L 47.609375 25.390625 
L 58.015625 25.390625 
L 58.015625 17.1875 
L 47.609375 17.1875 
L 47.609375 0 
L 37.796875 0 
L 37.796875 17.1875 
L 4.890625 17.1875 
L 4.890625 26.703125 
z
" id="DejaVuSans-52"/>
      </defs>
      <g style="fill:#666666;" transform="translate(508.116952 527.238438)scale(0.1 -0.1)">
       <use xlink:href="#DejaVuSans-49"/>
       <use x="63.623047" xlink:href="#DejaVuSans-52"/>
      </g>
     </g>
    </g>
    <g id="xtick_4">
     <g id="line2d_11">
      <path clip-path="url(#p58d08f33de)" d="M 713.219178 512.64 
L 713.219178 69.12 
" style="fill:none;stroke:#e6e6e6;stroke-linecap:square;stroke-width:0.8;"/>
     </g>
     <g id="line2d_12">
      <g>
       <use style="fill:#666666;stroke:#666666;stroke-width:0.8;" x="713.219178" xlink:href="#m17a4061de2" y="512.64"/>
      </g>
     </g>
     <g id="text_4">
      <!-- 21 -->
      <defs>
       <path d="M 19.1875 8.296875 
L 53.609375 8.296875 
L 53.609375 0 
L 7.328125 0 
L 7.328125 8.296875 
Q 12.9375 14.109375 22.625 23.890625 
Q 32.328125 33.6875 34.8125 36.53125 
Q 39.546875 41.84375 41.421875 45.53125 
Q 43.3125 49.21875 43.3125 52.78125 
Q 43.3125 58.59375 39.234375 62.25 
Q 35.15625 65.921875 28.609375 65.921875 
Q 23.96875 65.921875 18.8125 64.3125 
Q 13.671875 62.703125 7.8125 59.421875 
L 7.8125 69.390625 
Q 13.765625 71.78125 18.9375 73 
Q 24.125 74.21875 28.421875 74.21875 
Q 39.75 74.21875 46.484375 68.546875 
Q 53.21875 62.890625 53.21875 53.421875 
Q 53.21875 48.921875 51.53125 44.890625 
Q 49.859375 40.875 45.40625 35.40625 
Q 44.1875 33.984375 37.640625 27.21875 
Q 31.109375 20.453125 19.1875 8.296875 
z
" id="DejaVuSans-50"/>
      </defs>
      <g style="fill:#666666;" transform="translate(706.856678 527.238438)scale(0.1 -0.1)">
       <use xlink:href="#DejaVuSans-50"/>
       <use x="63.623047" xlink:href="#DejaVuSans-49"/>
      </g>
     </g>
    </g>
    <g id="text_5">
     <!-- Days since 100 deaths -->
     <defs>
      <path d="M 19.671875 64.796875 
L 19.671875 8.109375 
L 31.59375 8.109375 
Q 46.6875 8.109375 53.6875 14.9375 
Q 60.6875 21.78125 60.6875 36.53125 
Q 60.6875 51.171875 53.6875 57.984375 
Q 46.6875 64.796875 31.59375 64.796875 
z
M 9.8125 72.90625 
L 30.078125 72.90625 
Q 51.265625 72.90625 61.171875 64.09375 
Q 71.09375 55.28125 71.09375 36.53125 
Q 71.09375 17.671875 61.125 8.828125 
Q 51.171875 0 30.078125 0 
L 9.8125 0 
z
" id="DejaVuSans-68"/>
      <path d="M 34.28125 27.484375 
Q 23.390625 27.484375 19.1875 25 
Q 14.984375 22.515625 14.984375 16.5 
Q 14.984375 11.71875 18.140625 8.90625 
Q 21.296875 6.109375 26.703125 6.109375 
Q 34.1875 6.109375 38.703125 11.40625 
Q 43.21875 16.703125 43.21875 25.484375 
L 43.21875 27.484375 
z
M 52.203125 31.203125 
L 52.203125 0 
L 43.21875 0 
L 43.21875 8.296875 
Q 40.140625 3.328125 35.546875 0.953125 
Q 30.953125 -1.421875 24.3125 -1.421875 
Q 15.921875 -1.421875 10.953125 3.296875 
Q 6 8.015625 6 15.921875 
Q 6 25.140625 12.171875 29.828125 
Q 18.359375 34.515625 30.609375 34.515625 
L 43.21875 34.515625 
L 43.21875 35.40625 
Q 43.21875 41.609375 39.140625 45 
Q 35.0625 48.390625 27.6875 48.390625 
Q 23 48.390625 18.546875 47.265625 
Q 14.109375 46.140625 10.015625 43.890625 
L 10.015625 52.203125 
Q 14.9375 54.109375 19.578125 55.046875 
Q 24.21875 56 28.609375 56 
Q 40.484375 56 46.34375 49.84375 
Q 52.203125 43.703125 52.203125 31.203125 
z
" id="DejaVuSans-97"/>
      <path d="M 32.171875 -5.078125 
Q 28.375 -14.84375 24.75 -17.8125 
Q 21.140625 -20.796875 15.09375 -20.796875 
L 7.90625 -20.796875 
L 7.90625 -13.28125 
L 13.1875 -13.28125 
Q 16.890625 -13.28125 18.9375 -11.515625 
Q 21 -9.765625 23.484375 -3.21875 
L 25.09375 0.875 
L 2.984375 54.6875 
L 12.5 54.6875 
L 29.59375 11.921875 
L 46.6875 54.6875 
L 56.203125 54.6875 
z
" id="DejaVuSans-121"/>
      <path d="M 44.28125 53.078125 
L 44.28125 44.578125 
Q 40.484375 46.53125 36.375 47.5 
Q 32.28125 48.484375 27.875 48.484375 
Q 21.1875 48.484375 17.84375 46.4375 
Q 14.5 44.390625 14.5 40.28125 
Q 14.5 37.15625 16.890625 35.375 
Q 19.28125 33.59375 26.515625 31.984375 
L 29.59375 31.296875 
Q 39.15625 29.25 43.1875 25.515625 
Q 47.21875 21.78125 47.21875 15.09375 
Q 47.21875 7.46875 41.1875 3.015625 
Q 35.15625 -1.421875 24.609375 -1.421875 
Q 20.21875 -1.421875 15.453125 -0.5625 
Q 10.6875 0.296875 5.421875 2 
L 5.421875 11.28125 
Q 10.40625 8.6875 15.234375 7.390625 
Q 20.0625 6.109375 24.8125 6.109375 
Q 31.15625 6.109375 34.5625 8.28125 
Q 37.984375 10.453125 37.984375 14.40625 
Q 37.984375 18.0625 35.515625 20.015625 
Q 33.0625 21.96875 24.703125 23.78125 
L 21.578125 24.515625 
Q 13.234375 26.265625 9.515625 29.90625 
Q 5.8125 33.546875 5.8125 39.890625 
Q 5.8125 47.609375 11.28125 51.796875 
Q 16.75 56 26.8125 56 
Q 31.78125 56 36.171875 55.265625 
Q 40.578125 54.546875 44.28125 53.078125 
z
" id="DejaVuSans-115"/>
      <path id="DejaVuSans-32"/>
      <path d="M 9.421875 54.6875 
L 18.40625 54.6875 
L 18.40625 0 
L 9.421875 0 
z
M 9.421875 75.984375 
L 18.40625 75.984375 
L 18.40625 64.59375 
L 9.421875 64.59375 
z
" id="DejaVuSans-105"/>
      <path d="M 54.890625 33.015625 
L 54.890625 0 
L 45.90625 0 
L 45.90625 32.71875 
Q 45.90625 40.484375 42.875 44.328125 
Q 39.84375 48.1875 33.796875 48.1875 
Q 26.515625 48.1875 22.3125 43.546875 
Q 18.109375 38.921875 18.109375 30.90625 
L 18.109375 0 
L 9.078125 0 
L 9.078125 54.6875 
L 18.109375 54.6875 
L 18.109375 46.1875 
Q 21.34375 51.125 25.703125 53.5625 
Q 30.078125 56 35.796875 56 
Q 45.21875 56 50.046875 50.171875 
Q 54.890625 44.34375 54.890625 33.015625 
z
" id="DejaVuSans-110"/>
      <path d="M 48.78125 52.59375 
L 48.78125 44.1875 
Q 44.96875 46.296875 41.140625 47.34375 
Q 37.3125 48.390625 33.40625 48.390625 
Q 24.65625 48.390625 19.8125 42.84375 
Q 14.984375 37.3125 14.984375 27.296875 
Q 14.984375 17.28125 19.8125 11.734375 
Q 24.65625 6.203125 33.40625 6.203125 
Q 37.3125 6.203125 41.140625 7.25 
Q 44.96875 8.296875 48.78125 10.40625 
L 48.78125 2.09375 
Q 45.015625 0.34375 40.984375 -0.53125 
Q 36.96875 -1.421875 32.421875 -1.421875 
Q 20.0625 -1.421875 12.78125 6.34375 
Q 5.515625 14.109375 5.515625 27.296875 
Q 5.515625 40.671875 12.859375 48.328125 
Q 20.21875 56 33.015625 56 
Q 37.15625 56 41.109375 55.140625 
Q 45.0625 54.296875 48.78125 52.59375 
z
" id="DejaVuSans-99"/>
      <path d="M 56.203125 29.59375 
L 56.203125 25.203125 
L 14.890625 25.203125 
Q 15.484375 15.921875 20.484375 11.0625 
Q 25.484375 6.203125 34.421875 6.203125 
Q 39.59375 6.203125 44.453125 7.46875 
Q 49.3125 8.734375 54.109375 11.28125 
L 54.109375 2.78125 
Q 49.265625 0.734375 44.1875 -0.34375 
Q 39.109375 -1.421875 33.890625 -1.421875 
Q 20.796875 -1.421875 13.15625 6.1875 
Q 5.515625 13.8125 5.515625 26.8125 
Q 5.515625 40.234375 12.765625 48.109375 
Q 20.015625 56 32.328125 56 
Q 43.359375 56 49.78125 48.890625 
Q 56.203125 41.796875 56.203125 29.59375 
z
M 47.21875 32.234375 
Q 47.125 39.59375 43.09375 43.984375 
Q 39.0625 48.390625 32.421875 48.390625 
Q 24.90625 48.390625 20.390625 44.140625 
Q 15.875 39.890625 15.1875 32.171875 
z
" id="DejaVuSans-101"/>
      <path d="M 45.40625 46.390625 
L 45.40625 75.984375 
L 54.390625 75.984375 
L 54.390625 0 
L 45.40625 0 
L 45.40625 8.203125 
Q 42.578125 3.328125 38.25 0.953125 
Q 33.9375 -1.421875 27.875 -1.421875 
Q 17.96875 -1.421875 11.734375 6.484375 
Q 5.515625 14.40625 5.515625 27.296875 
Q 5.515625 40.1875 11.734375 48.09375 
Q 17.96875 56 27.875 56 
Q 33.9375 56 38.25 53.625 
Q 42.578125 51.265625 45.40625 46.390625 
z
M 14.796875 27.296875 
Q 14.796875 17.390625 18.875 11.75 
Q 22.953125 6.109375 30.078125 6.109375 
Q 37.203125 6.109375 41.296875 11.75 
Q 45.40625 17.390625 45.40625 27.296875 
Q 45.40625 37.203125 41.296875 42.84375 
Q 37.203125 48.484375 30.078125 48.484375 
Q 22.953125 48.484375 18.875 42.84375 
Q 14.796875 37.203125 14.796875 27.296875 
z
" id="DejaVuSans-100"/>
      <path d="M 18.3125 70.21875 
L 18.3125 54.6875 
L 36.8125 54.6875 
L 36.8125 47.703125 
L 18.3125 47.703125 
L 18.3125 18.015625 
Q 18.3125 11.328125 20.140625 9.421875 
Q 21.96875 7.515625 27.59375 7.515625 
L 36.8125 7.515625 
L 36.8125 0 
L 27.59375 0 
Q 17.1875 0 13.234375 3.875 
Q 9.28125 7.765625 9.28125 18.015625 
L 9.28125 47.703125 
L 2.6875 47.703125 
L 2.6875 54.6875 
L 9.28125 54.6875 
L 9.28125 70.21875 
z
" id="DejaVuSans-116"/>
      <path d="M 54.890625 33.015625 
L 54.890625 0 
L 45.90625 0 
L 45.90625 32.71875 
Q 45.90625 40.484375 42.875 44.328125 
Q 39.84375 48.1875 33.796875 48.1875 
Q 26.515625 48.1875 22.3125 43.546875 
Q 18.109375 38.921875 18.109375 30.90625 
L 18.109375 0 
L 9.078125 0 
L 9.078125 75.984375 
L 18.109375 75.984375 
L 18.109375 46.1875 
Q 21.34375 51.125 25.703125 53.5625 
Q 30.078125 56 35.796875 56 
Q 45.21875 56 50.046875 50.171875 
Q 54.890625 44.34375 54.890625 33.015625 
z
" id="DejaVuSans-104"/>
     </defs>
     <g style="fill:#666666;" transform="translate(422.874219 540.916563)scale(0.1 -0.1)">
      <use xlink:href="#DejaVuSans-68"/>
      <use x="77.001953" xlink:href="#DejaVuSans-97"/>
      <use x="138.28125" xlink:href="#DejaVuSans-121"/>
      <use x="197.460938" xlink:href="#DejaVuSans-115"/>
      <use x="249.560547" xlink:href="#DejaVuSans-32"/>
      <use x="281.347656" xlink:href="#DejaVuSans-115"/>
      <use x="333.447266" xlink:href="#DejaVuSans-105"/>
      <use x="361.230469" xlink:href="#DejaVuSans-110"/>
      <use x="424.609375" xlink:href="#DejaVuSans-99"/>
      <use x="479.589844" xlink:href="#DejaVuSans-101"/>
      <use x="541.113281" xlink:href="#DejaVuSans-32"/>
      <use x="572.900391" xlink:href="#DejaVuSans-49"/>
      <use x="636.523438" xlink:href="#DejaVuSans-48"/>
      <use x="700.146484" xlink:href="#DejaVuSans-48"/>
      <use x="763.769531" xlink:href="#DejaVuSans-32"/>
      <use x="795.556641" xlink:href="#DejaVuSans-100"/>
      <use x="859.033203" xlink:href="#DejaVuSans-101"/>
      <use x="920.556641" xlink:href="#DejaVuSans-97"/>
      <use x="981.835938" xlink:href="#DejaVuSans-116"/>
      <use x="1021.044922" xlink:href="#DejaVuSans-104"/>
      <use x="1084.423828" xlink:href="#DejaVuSans-115"/>
     </g>
    </g>
   </g>
   <g id="matplotlib.axis_2">
    <g id="ytick_1">
     <g id="line2d_13">
      <path clip-path="url(#p58d08f33de)" d="M 117 512.64 
L 842.4 512.64 
" style="fill:none;stroke:#e6e6e6;stroke-linecap:square;stroke-width:0.8;"/>
     </g>
     <g id="line2d_14">
      <defs>
       <path d="M 0 0 
L -3.5 0 
" id="mb496a8df73" style="stroke:#666666;stroke-width:0.8;"/>
      </defs>
      <g>
       <use style="fill:#666666;stroke:#666666;stroke-width:0.8;" x="117" xlink:href="#mb496a8df73" y="512.64"/>
      </g>
     </g>
     <g id="text_6">
      <!-- 100 -->
      <g style="fill:#666666;" transform="translate(90.9125 516.439219)scale(0.1 -0.1)">
       <use xlink:href="#DejaVuSans-49"/>
       <use x="63.623047" xlink:href="#DejaVuSans-48"/>
       <use x="127.246094" xlink:href="#DejaVuSans-48"/>
      </g>
     </g>
    </g>
   </g>
   <g id="line2d_15">
    <path clip-path="url(#p58d08f33de)" d="M 117 512.64 
L 138.711063 490.473612 
L 223.885231 444.869155 
L 252.27662 403.141105 
L 280.66801 382.541313 
L 309.059399 370.336872 
L 337.450789 366.393336 
L 365.842178 360.587687 
L 394.233567 352.113362 
L 422.624957 339.448261 
" style="fill:none;stroke:#1f77b4;stroke-linecap:square;stroke-width:1.5;"/>
    <defs>
     <path d="M 0 1.5 
C 0.397805 1.5 0.77937 1.341951 1.06066 1.06066 
C 1.341951 0.77937 1.5 0.397805 1.5 0 
C 1.5 -0.397805 1.341951 -0.77937 1.06066 -1.06066 
C 0.77937 -1.341951 0.397805 -1.5 0 -1.5 
C -0.397805 -1.5 -0.77937 -1.341951 -1.06066 -1.06066 
C -1.341951 -0.77937 -1.5 -0.397805 -1.5 0 
C -1.5 0.397805 -1.341951 0.77937 -1.06066 1.06066 
C -0.77937 1.341951 -0.397805 1.5 0 1.5 
z
" id="mea6a5b41d4" style="stroke:#1f77b4;"/>
    </defs>
    <g clip-path="url(#p58d08f33de)">
     <use style="fill:#ffffff;stroke:#1f77b4;" x="117" xlink:href="#mea6a5b41d4" y="512.64"/>
     <use style="fill:#ffffff;stroke:#1f77b4;" x="138.711063" xlink:href="#mea6a5b41d4" y="490.473612"/>
     <use style="fill:#ffffff;stroke:#1f77b4;" x="223.885231" xlink:href="#mea6a5b41d4" y="444.869155"/>
     <use style="fill:#ffffff;stroke:#1f77b4;" x="252.27662" xlink:href="#mea6a5b41d4" y="403.141105"/>
     <use style="fill:#ffffff;stroke:#1f77b4;" x="280.66801" xlink:href="#mea6a5b41d4" y="382.541313"/>
     <use style="fill:#ffffff;stroke:#1f77b4;" x="309.059399" xlink:href="#mea6a5b41d4" y="370.336872"/>
     <use style="fill:#ffffff;stroke:#1f77b4;" x="337.450789" xlink:href="#mea6a5b41d4" y="366.393336"/>
     <use style="fill:#ffffff;stroke:#1f77b4;" x="365.842178" xlink:href="#mea6a5b41d4" y="360.587687"/>
     <use style="fill:#ffffff;stroke:#1f77b4;" x="394.233567" xlink:href="#mea6a5b41d4" y="352.113362"/>
     <use style="fill:#ffffff;stroke:#1f77b4;" x="422.624957" xlink:href="#mea6a5b41d4" y="339.448261"/>
    </g>
   </g>
   <g id="line2d_16">
    <path clip-path="url(#p58d08f33de)" d="M 117 512.64 
L 137.648283 498.744954 
L 166.039673 487.246928 
L 194.431062 476.295854 
L 222.822452 462.931608 
L 251.213841 447.560743 
L 279.60523 436.969953 
L 307.99662 413.519148 
L 336.388009 404.273205 
L 364.779399 396.453365 
L 393.170788 393.174712 
L 421.562178 371.332181 
L 449.953567 351.188378 
L 478.344956 333.334331 
L 506.736346 319.039364 
L 535.127735 313.365081 
L 563.519125 311.765253 
L 620.301904 297.770509 
" style="fill:none;stroke:#ff7f0e;stroke-linecap:square;stroke-width:1.5;"/>
    <defs>
     <path d="M 0 1.5 
C 0.397805 1.5 0.77937 1.341951 1.06066 1.06066 
C 1.341951 0.77937 1.5 0.397805 1.5 0 
C 1.5 -0.397805 1.341951 -0.77937 1.06066 -1.06066 
C 0.77937 -1.341951 0.397805 -1.5 0 -1.5 
C -0.397805 -1.5 -0.77937 -1.341951 -1.06066 -1.06066 
C -1.341951 -0.77937 -1.5 -0.397805 -1.5 0 
C -1.5 0.397805 -1.341951 0.77937 -1.06066 1.06066 
C -0.77937 1.341951 -0.397805 1.5 0 1.5 
z
" id="mcdf6e3d254" style="stroke:#ff7f0e;"/>
    </defs>
    <g clip-path="url(#p58d08f33de)">
     <use style="fill:#ffffff;stroke:#ff7f0e;" x="117" xlink:href="#mcdf6e3d254" y="512.64"/>
     <use style="fill:#ffffff;stroke:#ff7f0e;" x="137.648283" xlink:href="#mcdf6e3d254" y="498.744954"/>
     <use style="fill:#ffffff;stroke:#ff7f0e;" x="166.039673" xlink:href="#mcdf6e3d254" y="487.246928"/>
     <use style="fill:#ffffff;stroke:#ff7f0e;" x="194.431062" xlink:href="#mcdf6e3d254" y="476.295854"/>
     <use style="fill:#ffffff;stroke:#ff7f0e;" x="222.822452" xlink:href="#mcdf6e3d254" y="462.931608"/>
     <use style="fill:#ffffff;stroke:#ff7f0e;" x="251.213841" xlink:href="#mcdf6e3d254" y="447.560743"/>
     <use style="fill:#ffffff;stroke:#ff7f0e;" x="279.60523" xlink:href="#mcdf6e3d254" y="436.969953"/>
     <use style="fill:#ffffff;stroke:#ff7f0e;" x="307.99662" xlink:href="#mcdf6e3d254" y="413.519148"/>
     <use style="fill:#ffffff;stroke:#ff7f0e;" x="336.388009" xlink:href="#mcdf6e3d254" y="404.273205"/>
     <use style="fill:#ffffff;stroke:#ff7f0e;" x="364.779399" xlink:href="#mcdf6e3d254" y="396.453365"/>
     <use style="fill:#ffffff;stroke:#ff7f0e;" x="393.170788" xlink:href="#mcdf6e3d254" y="393.174712"/>
     <use style="fill:#ffffff;stroke:#ff7f0e;" x="421.562178" xlink:href="#mcdf6e3d254" y="371.332181"/>
     <use style="fill:#ffffff;stroke:#ff7f0e;" x="449.953567" xlink:href="#mcdf6e3d254" y="351.188378"/>
     <use style="fill:#ffffff;stroke:#ff7f0e;" x="478.344956" xlink:href="#mcdf6e3d254" y="333.334331"/>
     <use style="fill:#ffffff;stroke:#ff7f0e;" x="506.736346" xlink:href="#mcdf6e3d254" y="319.039364"/>
     <use style="fill:#ffffff;stroke:#ff7f0e;" x="535.127735" xlink:href="#mcdf6e3d254" y="313.365081"/>
     <use style="fill:#ffffff;stroke:#ff7f0e;" x="563.519125" xlink:href="#mcdf6e3d254" y="311.765253"/>
     <use style="fill:#ffffff;stroke:#ff7f0e;" x="620.301904" xlink:href="#mcdf6e3d254" y="297.770509"/>
    </g>
   </g>
   <g id="line2d_17">
    <path clip-path="url(#p58d08f33de)" d="M 117 512.64 
L 132.772994 503.855939 
L 161.164384 492.104119 
L 189.555773 468.777566 
L 217.947162 451.65556 
L 246.338552 433.114781 
L 274.729941 418.274079 
L 303.121331 403.141105 
L 331.51272 395.35576 
L 359.90411 389.937873 
" style="fill:none;stroke:#2ca02c;stroke-linecap:square;stroke-width:1.5;"/>
    <defs>
     <path d="M 0 1.5 
C 0.397805 1.5 0.77937 1.341951 1.06066 1.06066 
C 1.341951 0.77937 1.5 0.397805 1.5 0 
C 1.5 -0.397805 1.341951 -0.77937 1.06066 -1.06066 
C 0.77937 -1.341951 0.397805 -1.5 0 -1.5 
C -0.397805 -1.5 -0.77937 -1.341951 -1.06066 -1.06066 
C -1.341951 -0.77937 -1.5 -0.397805 -1.5 0 
C -1.5 0.397805 -1.341951 0.77937 -1.06066 1.06066 
C -0.77937 1.341951 -0.397805 1.5 0 1.5 
z
" id="mc3b2bdc4bf" style="stroke:#2ca02c;"/>
    </defs>
    <g clip-path="url(#p58d08f33de)">
     <use style="fill:#ffffff;stroke:#2ca02c;" x="117" xlink:href="#mc3b2bdc4bf" y="512.64"/>
     <use style="fill:#ffffff;stroke:#2ca02c;" x="132.772994" xlink:href="#mc3b2bdc4bf" y="503.855939"/>
     <use style="fill:#ffffff;stroke:#2ca02c;" x="161.164384" xlink:href="#mc3b2bdc4bf" y="492.104119"/>
     <use style="fill:#ffffff;stroke:#2ca02c;" x="189.555773" xlink:href="#mc3b2bdc4bf" y="468.777566"/>
     <use style="fill:#ffffff;stroke:#2ca02c;" x="217.947162" xlink:href="#mc3b2bdc4bf" y="451.65556"/>
     <use style="fill:#ffffff;stroke:#2ca02c;" x="246.338552" xlink:href="#mc3b2bdc4bf" y="433.114781"/>
     <use style="fill:#ffffff;stroke:#2ca02c;" x="274.729941" xlink:href="#mc3b2bdc4bf" y="418.274079"/>
     <use style="fill:#ffffff;stroke:#2ca02c;" x="303.121331" xlink:href="#mc3b2bdc4bf" y="403.141105"/>
     <use style="fill:#ffffff;stroke:#2ca02c;" x="331.51272" xlink:href="#mc3b2bdc4bf" y="395.35576"/>
     <use style="fill:#ffffff;stroke:#2ca02c;" x="359.90411" xlink:href="#mc3b2bdc4bf" y="389.937873"/>
    </g>
   </g>
   <g id="line2d_18">
    <path clip-path="url(#p58d08f33de)" d="M 117 512.64 
L 145.391389 492.104119 
L 173.782779 479.372313 
L 202.174168 471.755962 
L 230.565558 454.424889 
" style="fill:none;stroke:#d62728;stroke-linecap:square;stroke-width:1.5;"/>
    <defs>
     <path d="M 0 1.5 
C 0.397805 1.5 0.77937 1.341951 1.06066 1.06066 
C 1.341951 0.77937 1.5 0.397805 1.5 0 
C 1.5 -0.397805 1.341951 -0.77937 1.06066 -1.06066 
C 0.77937 -1.341951 0.397805 -1.5 0 -1.5 
C -0.397805 -1.5 -0.77937 -1.341951 -1.06066 -1.06066 
C -1.341951 -0.77937 -1.5 -0.397805 -1.5 0 
C -1.5 0.397805 -1.341951 0.77937 -1.06066 1.06066 
C -0.77937 1.341951 -0.397805 1.5 0 1.5 
z
" id="ma95efb97f4" style="stroke:#d62728;"/>
    </defs>
    <g clip-path="url(#p58d08f33de)">
     <use style="fill:#ffffff;stroke:#d62728;" x="117" xlink:href="#ma95efb97f4" y="512.64"/>
     <use style="fill:#ffffff;stroke:#d62728;" x="145.391389" xlink:href="#ma95efb97f4" y="492.104119"/>
     <use style="fill:#ffffff;stroke:#d62728;" x="173.782779" xlink:href="#ma95efb97f4" y="479.372313"/>
     <use style="fill:#ffffff;stroke:#d62728;" x="202.174168" xlink:href="#ma95efb97f4" y="471.755962"/>
     <use style="fill:#ffffff;stroke:#d62728;" x="230.565558" xlink:href="#ma95efb97f4" y="454.424889"/>
    </g>
   </g>
   <g id="line2d_19">
    <path clip-path="url(#p58d08f33de)" d="M 117 512.64 
L 135.067248 500.435854 
L 163.458637 492.104119 
L 191.850027 482.49007 
L 220.241416 468.777566 
L 248.632806 455.8217 
" style="fill:none;stroke:#9467bd;stroke-linecap:square;stroke-width:1.5;"/>
    <defs>
     <path d="M 0 1.5 
C 0.397805 1.5 0.77937 1.341951 1.06066 1.06066 
C 1.341951 0.77937 1.5 0.397805 1.5 0 
C 1.5 -0.397805 1.341951 -0.77937 1.06066 -1.06066 
C 0.77937 -1.341951 0.397805 -1.5 0 -1.5 
C -0.397805 -1.5 -0.77937 -1.341951 -1.06066 -1.06066 
C -1.341951 -0.77937 -1.5 -0.397805 -1.5 0 
C -1.5 0.397805 -1.341951 0.77937 -1.06066 1.06066 
C -0.77937 1.341951 -0.397805 1.5 0 1.5 
z
" id="m78beefc1c4" style="stroke:#9467bd;"/>
    </defs>
    <g clip-path="url(#p58d08f33de)">
     <use style="fill:#ffffff;stroke:#9467bd;" x="117" xlink:href="#m78beefc1c4" y="512.64"/>
     <use style="fill:#ffffff;stroke:#9467bd;" x="135.067248" xlink:href="#m78beefc1c4" y="500.435854"/>
     <use style="fill:#ffffff;stroke:#9467bd;" x="163.458637" xlink:href="#m78beefc1c4" y="492.104119"/>
     <use style="fill:#ffffff;stroke:#9467bd;" x="191.850027" xlink:href="#m78beefc1c4" y="482.49007"/>
     <use style="fill:#ffffff;stroke:#9467bd;" x="220.241416" xlink:href="#m78beefc1c4" y="468.777566"/>
     <use style="fill:#ffffff;stroke:#9467bd;" x="248.632806" xlink:href="#m78beefc1c4" y="455.8217"/>
    </g>
   </g>
   <g id="line2d_20">
    <path clip-path="url(#p58d08f33de)" d="M 117 512.64 
L 145.391389 500.435854 
L 173.782779 495.400386 
L 202.174168 493.746313 
L 258.956947 484.064828 
L 287.348337 482.49007 
L 315.739726 479.372313 
" style="fill:none;stroke:#8c564b;stroke-linecap:square;stroke-width:1.5;"/>
    <defs>
     <path d="M 0 1.5 
C 0.397805 1.5 0.77937 1.341951 1.06066 1.06066 
C 1.341951 0.77937 1.5 0.397805 1.5 0 
C 1.5 -0.397805 1.341951 -0.77937 1.06066 -1.06066 
C 0.77937 -1.341951 0.397805 -1.5 0 -1.5 
C -0.397805 -1.5 -0.77937 -1.341951 -1.06066 -1.06066 
C -1.341951 -0.77937 -1.5 -0.397805 -1.5 0 
C -1.5 0.397805 -1.341951 0.77937 -1.06066 1.06066 
C -0.77937 1.341951 -0.397805 1.5 0 1.5 
z
" id="m3860392715" style="stroke:#8c564b;"/>
    </defs>
    <g clip-path="url(#p58d08f33de)">
     <use style="fill:#ffffff;stroke:#8c564b;" x="117" xlink:href="#m3860392715" y="512.64"/>
     <use style="fill:#ffffff;stroke:#8c564b;" x="145.391389" xlink:href="#m3860392715" y="500.435854"/>
     <use style="fill:#ffffff;stroke:#8c564b;" x="173.782779" xlink:href="#m3860392715" y="495.400386"/>
     <use style="fill:#ffffff;stroke:#8c564b;" x="202.174168" xlink:href="#m3860392715" y="493.746313"/>
     <use style="fill:#ffffff;stroke:#8c564b;" x="258.956947" xlink:href="#m3860392715" y="484.064828"/>
     <use style="fill:#ffffff;stroke:#8c564b;" x="287.348337" xlink:href="#m3860392715" y="482.49007"/>
     <use style="fill:#ffffff;stroke:#8c564b;" x="315.739726" xlink:href="#m3860392715" y="479.372313"/>
    </g>
   </g>
   <g id="line2d_21">
    <path clip-path="url(#p58d08f33de)" d="M 117 512.64 
L 128.356556 505.585563 
L 156.747945 487.246928 
L 185.139335 476.295854 
L 213.530724 465.836459 
L 241.922114 454.424889 
L 270.313503 444.869155 
L 298.704892 439.574475 
L 327.096282 431.843163 
L 355.487671 411.175368 
L 383.879061 395.35576 
L 412.27045 388.868012 
L 440.66184 379.435601 
L 469.053229 374.341257 
L 497.444618 371.332181 
L 525.836008 366.393336 
L 554.227397 354.907923 
" style="fill:none;stroke:#e377c2;stroke-linecap:square;stroke-width:1.5;"/>
    <defs>
     <path d="M 0 1.5 
C 0.397805 1.5 0.77937 1.341951 1.06066 1.06066 
C 1.341951 0.77937 1.5 0.397805 1.5 0 
C 1.5 -0.397805 1.341951 -0.77937 1.06066 -1.06066 
C 0.77937 -1.341951 0.397805 -1.5 0 -1.5 
C -0.397805 -1.5 -0.77937 -1.341951 -1.06066 -1.06066 
C -1.341951 -0.77937 -1.5 -0.397805 -1.5 0 
C -1.5 0.397805 -1.341951 0.77937 -1.06066 1.06066 
C -0.77937 1.341951 -0.397805 1.5 0 1.5 
z
" id="m81d8fffdce" style="stroke:#e377c2;"/>
    </defs>
    <g clip-path="url(#p58d08f33de)">
     <use style="fill:#ffffff;stroke:#e377c2;" x="117" xlink:href="#m81d8fffdce" y="512.64"/>
     <use style="fill:#ffffff;stroke:#e377c2;" x="128.356556" xlink:href="#m81d8fffdce" y="505.585563"/>
     <use style="fill:#ffffff;stroke:#e377c2;" x="156.747945" xlink:href="#m81d8fffdce" y="487.246928"/>
     <use style="fill:#ffffff;stroke:#e377c2;" x="185.139335" xlink:href="#m81d8fffdce" y="476.295854"/>
     <use style="fill:#ffffff;stroke:#e377c2;" x="213.530724" xlink:href="#m81d8fffdce" y="465.836459"/>
     <use style="fill:#ffffff;stroke:#e377c2;" x="241.922114" xlink:href="#m81d8fffdce" y="454.424889"/>
     <use style="fill:#ffffff;stroke:#e377c2;" x="270.313503" xlink:href="#m81d8fffdce" y="444.869155"/>
     <use style="fill:#ffffff;stroke:#e377c2;" x="298.704892" xlink:href="#m81d8fffdce" y="439.574475"/>
     <use style="fill:#ffffff;stroke:#e377c2;" x="327.096282" xlink:href="#m81d8fffdce" y="431.843163"/>
     <use style="fill:#ffffff;stroke:#e377c2;" x="355.487671" xlink:href="#m81d8fffdce" y="411.175368"/>
     <use style="fill:#ffffff;stroke:#e377c2;" x="383.879061" xlink:href="#m81d8fffdce" y="395.35576"/>
     <use style="fill:#ffffff;stroke:#e377c2;" x="412.27045" xlink:href="#m81d8fffdce" y="388.868012"/>
     <use style="fill:#ffffff;stroke:#e377c2;" x="440.66184" xlink:href="#m81d8fffdce" y="379.435601"/>
     <use style="fill:#ffffff;stroke:#e377c2;" x="469.053229" xlink:href="#m81d8fffdce" y="374.341257"/>
     <use style="fill:#ffffff;stroke:#e377c2;" x="497.444618" xlink:href="#m81d8fffdce" y="371.332181"/>
     <use style="fill:#ffffff;stroke:#e377c2;" x="525.836008" xlink:href="#m81d8fffdce" y="366.393336"/>
     <use style="fill:#ffffff;stroke:#e377c2;" x="554.227397" xlink:href="#m81d8fffdce" y="354.907923"/>
    </g>
   </g>
   <g id="line2d_22">
    <path clip-path="url(#p58d08f33de)" d="M 117 512.64 
L 135.370899 493.746313 
L 163.762288 477.828998 
L 192.153678 458.640155 
L 220.545067 446.211184 
L 248.936457 424.349192 
L 277.327846 402.014083 
L 305.719236 379.435601 
L 334.110625 358.68075 
L 362.502015 337.68714 
L 390.893404 314.168514 
L 419.284793 303.12893 
L 447.676183 291.77058 
" style="fill:none;stroke:#7f7f7f;stroke-linecap:square;stroke-width:1.5;"/>
    <defs>
     <path d="M 0 1.5 
C 0.397805 1.5 0.77937 1.341951 1.06066 1.06066 
C 1.341951 0.77937 1.5 0.397805 1.5 0 
C 1.5 -0.397805 1.341951 -0.77937 1.06066 -1.06066 
C 0.77937 -1.341951 0.397805 -1.5 0 -1.5 
C -0.397805 -1.5 -0.77937 -1.341951 -1.06066 -1.06066 
C -1.341951 -0.77937 -1.5 -0.397805 -1.5 0 
C -1.5 0.397805 -1.341951 0.77937 -1.06066 1.06066 
C -0.77937 1.341951 -0.397805 1.5 0 1.5 
z
" id="mf601087a1c" style="stroke:#7f7f7f;"/>
    </defs>
    <g clip-path="url(#p58d08f33de)">
     <use style="fill:#ffffff;stroke:#7f7f7f;" x="117" xlink:href="#mf601087a1c" y="512.64"/>
     <use style="fill:#ffffff;stroke:#7f7f7f;" x="135.370899" xlink:href="#mf601087a1c" y="493.746313"/>
     <use style="fill:#ffffff;stroke:#7f7f7f;" x="163.762288" xlink:href="#mf601087a1c" y="477.828998"/>
     <use style="fill:#ffffff;stroke:#7f7f7f;" x="192.153678" xlink:href="#mf601087a1c" y="458.640155"/>
     <use style="fill:#ffffff;stroke:#7f7f7f;" x="220.545067" xlink:href="#mf601087a1c" y="446.211184"/>
     <use style="fill:#ffffff;stroke:#7f7f7f;" x="248.936457" xlink:href="#mf601087a1c" y="424.349192"/>
     <use style="fill:#ffffff;stroke:#7f7f7f;" x="277.327846" xlink:href="#mf601087a1c" y="402.014083"/>
     <use style="fill:#ffffff;stroke:#7f7f7f;" x="305.719236" xlink:href="#mf601087a1c" y="379.435601"/>
     <use style="fill:#ffffff;stroke:#7f7f7f;" x="334.110625" xlink:href="#mf601087a1c" y="358.68075"/>
     <use style="fill:#ffffff;stroke:#7f7f7f;" x="362.502015" xlink:href="#mf601087a1c" y="337.68714"/>
     <use style="fill:#ffffff;stroke:#7f7f7f;" x="390.893404" xlink:href="#mf601087a1c" y="314.168514"/>
     <use style="fill:#ffffff;stroke:#7f7f7f;" x="419.284793" xlink:href="#mf601087a1c" y="303.12893"/>
     <use style="fill:#ffffff;stroke:#7f7f7f;" x="447.676183" xlink:href="#mf601087a1c" y="291.77058"/>
    </g>
   </g>
   <g id="line2d_23">
    <path clip-path="url(#p58d08f33de)" d="M 117 512.64 
L 136.655577 497.066533 
L 165.046967 495.400386 
L 193.438356 488.854609 
L 221.829746 460.062022 
L 250.221135 440.88731 
L 278.612524 434.393066 
L 307.003914 418.274079 
L 335.395303 406.552841 
L 363.786693 405.410432 
L 392.178082 404.273205 
L 420.569472 391.012248 
L 448.960861 371.332181 
L 477.35225 361.546385 
L 505.74364 322.335653 
L 534.135029 313.365081 
L 562.526419 312.563999 
L 590.917808 301.587342 
" style="fill:none;stroke:#bcbd22;stroke-linecap:square;stroke-width:1.5;"/>
    <defs>
     <path d="M 0 1.5 
C 0.397805 1.5 0.77937 1.341951 1.06066 1.06066 
C 1.341951 0.77937 1.5 0.397805 1.5 0 
C 1.5 -0.397805 1.341951 -0.77937 1.06066 -1.06066 
C 0.77937 -1.341951 0.397805 -1.5 0 -1.5 
C -0.397805 -1.5 -0.77937 -1.341951 -1.06066 -1.06066 
C -1.341951 -0.77937 -1.5 -0.397805 -1.5 0 
C -1.5 0.397805 -1.341951 0.77937 -1.06066 1.06066 
C -0.77937 1.341951 -0.397805 1.5 0 1.5 
z
" id="m6bfdb46e66" style="stroke:#bcbd22;"/>
    </defs>
    <g clip-path="url(#p58d08f33de)">
     <use style="fill:#ffffff;stroke:#bcbd22;" x="117" xlink:href="#m6bfdb46e66" y="512.64"/>
     <use style="fill:#ffffff;stroke:#bcbd22;" x="136.655577" xlink:href="#m6bfdb46e66" y="497.066533"/>
     <use style="fill:#ffffff;stroke:#bcbd22;" x="165.046967" xlink:href="#m6bfdb46e66" y="495.400386"/>
     <use style="fill:#ffffff;stroke:#bcbd22;" x="193.438356" xlink:href="#m6bfdb46e66" y="488.854609"/>
     <use style="fill:#ffffff;stroke:#bcbd22;" x="221.829746" xlink:href="#m6bfdb46e66" y="460.062022"/>
     <use style="fill:#ffffff;stroke:#bcbd22;" x="250.221135" xlink:href="#m6bfdb46e66" y="440.88731"/>
     <use style="fill:#ffffff;stroke:#bcbd22;" x="278.612524" xlink:href="#m6bfdb46e66" y="434.393066"/>
     <use style="fill:#ffffff;stroke:#bcbd22;" x="307.003914" xlink:href="#m6bfdb46e66" y="418.274079"/>
     <use style="fill:#ffffff;stroke:#bcbd22;" x="335.395303" xlink:href="#m6bfdb46e66" y="406.552841"/>
     <use style="fill:#ffffff;stroke:#bcbd22;" x="363.786693" xlink:href="#m6bfdb46e66" y="405.410432"/>
     <use style="fill:#ffffff;stroke:#bcbd22;" x="392.178082" xlink:href="#m6bfdb46e66" y="404.273205"/>
     <use style="fill:#ffffff;stroke:#bcbd22;" x="420.569472" xlink:href="#m6bfdb46e66" y="391.012248"/>
     <use style="fill:#ffffff;stroke:#bcbd22;" x="448.960861" xlink:href="#m6bfdb46e66" y="371.332181"/>
     <use style="fill:#ffffff;stroke:#bcbd22;" x="477.35225" xlink:href="#m6bfdb46e66" y="361.546385"/>
     <use style="fill:#ffffff;stroke:#bcbd22;" x="505.74364" xlink:href="#m6bfdb46e66" y="322.335653"/>
     <use style="fill:#ffffff;stroke:#bcbd22;" x="534.135029" xlink:href="#m6bfdb46e66" y="313.365081"/>
     <use style="fill:#ffffff;stroke:#bcbd22;" x="562.526419" xlink:href="#m6bfdb46e66" y="312.563999"/>
     <use style="fill:#ffffff;stroke:#bcbd22;" x="590.917808" xlink:href="#m6bfdb46e66" y="301.587342"/>
    </g>
   </g>
   <g id="line2d_24">
    <path clip-path="url(#p58d08f33de)" d="M 117 512.64 
L 141.023483 493.746313 
L 169.414873 476.295854 
L 197.806262 465.836459 
L 226.197652 450.282832 
L 254.589041 434.393066 
L 282.980431 425.582396 
L 311.37182 413.519148 
L 339.763209 397.555752 
L 368.154599 386.741665 
L 396.545988 378.408646 
L 424.937378 370.336872 
L 453.328767 358.68075 
L 481.720157 353.041596 
L 510.111546 351.188378 
L 538.502935 342.111901 
" style="fill:none;stroke:#17becf;stroke-linecap:square;stroke-width:1.5;"/>
    <defs>
     <path d="M 0 1.5 
C 0.397805 1.5 0.77937 1.341951 1.06066 1.06066 
C 1.341951 0.77937 1.5 0.397805 1.5 0 
C 1.5 -0.397805 1.341951 -0.77937 1.06066 -1.06066 
C 0.77937 -1.341951 0.397805 -1.5 0 -1.5 
C -0.397805 -1.5 -0.77937 -1.341951 -1.06066 -1.06066 
C -1.341951 -0.77937 -1.5 -0.397805 -1.5 0 
C -1.5 0.397805 -1.341951 0.77937 -1.06066 1.06066 
C -0.77937 1.341951 -0.397805 1.5 0 1.5 
z
" id="m0cdaf9573a" style="stroke:#17becf;"/>
    </defs>
    <g clip-path="url(#p58d08f33de)">
     <use style="fill:#ffffff;stroke:#17becf;" x="117" xlink:href="#m0cdaf9573a" y="512.64"/>
     <use style="fill:#ffffff;stroke:#17becf;" x="141.023483" xlink:href="#m0cdaf9573a" y="493.746313"/>
     <use style="fill:#ffffff;stroke:#17becf;" x="169.414873" xlink:href="#m0cdaf9573a" y="476.295854"/>
     <use style="fill:#ffffff;stroke:#17becf;" x="197.806262" xlink:href="#m0cdaf9573a" y="465.836459"/>
     <use style="fill:#ffffff;stroke:#17becf;" x="226.197652" xlink:href="#m0cdaf9573a" y="450.282832"/>
     <use style="fill:#ffffff;stroke:#17becf;" x="254.589041" xlink:href="#m0cdaf9573a" y="434.393066"/>
     <use style="fill:#ffffff;stroke:#17becf;" x="282.980431" xlink:href="#m0cdaf9573a" y="425.582396"/>
     <use style="fill:#ffffff;stroke:#17becf;" x="311.37182" xlink:href="#m0cdaf9573a" y="413.519148"/>
     <use style="fill:#ffffff;stroke:#17becf;" x="339.763209" xlink:href="#m0cdaf9573a" y="397.555752"/>
     <use style="fill:#ffffff;stroke:#17becf;" x="368.154599" xlink:href="#m0cdaf9573a" y="386.741665"/>
     <use style="fill:#ffffff;stroke:#17becf;" x="396.545988" xlink:href="#m0cdaf9573a" y="378.408646"/>
     <use style="fill:#ffffff;stroke:#17becf;" x="424.937378" xlink:href="#m0cdaf9573a" y="370.336872"/>
     <use style="fill:#ffffff;stroke:#17becf;" x="453.328767" xlink:href="#m0cdaf9573a" y="358.68075"/>
     <use style="fill:#ffffff;stroke:#17becf;" x="481.720157" xlink:href="#m0cdaf9573a" y="353.041596"/>
     <use style="fill:#ffffff;stroke:#17becf;" x="510.111546" xlink:href="#m0cdaf9573a" y="351.188378"/>
     <use style="fill:#ffffff;stroke:#17becf;" x="538.502935" xlink:href="#m0cdaf9573a" y="342.111901"/>
    </g>
   </g>
   <g id="line2d_25">
    <path clip-path="url(#p58d08f33de)" d="M 117 512.64 
L 127.324142 498.744954 
L 155.715531 484.064828 
L 184.10692 462.931608 
L 212.49831 434.393066 
L 240.889699 419.477203 
L 269.281089 410.011692 
L 297.672478 402.014083 
L 326.063868 366.393336 
L 354.455257 339.448261 
L 382.846647 329.902151 
L 411.238036 316.593074 
L 439.629425 300.819758 
L 468.020815 293.258489 
L 496.412204 288.085113 
L 524.803594 262.883345 
" style="fill:none;stroke:#1f77b4;stroke-linecap:square;stroke-width:1.5;"/>
    <g clip-path="url(#p58d08f33de)">
     <use style="fill:#ffffff;stroke:#1f77b4;" x="117" xlink:href="#mea6a5b41d4" y="512.64"/>
     <use style="fill:#ffffff;stroke:#1f77b4;" x="127.324142" xlink:href="#mea6a5b41d4" y="498.744954"/>
     <use style="fill:#ffffff;stroke:#1f77b4;" x="155.715531" xlink:href="#mea6a5b41d4" y="484.064828"/>
     <use style="fill:#ffffff;stroke:#1f77b4;" x="184.10692" xlink:href="#mea6a5b41d4" y="462.931608"/>
     <use style="fill:#ffffff;stroke:#1f77b4;" x="212.49831" xlink:href="#mea6a5b41d4" y="434.393066"/>
     <use style="fill:#ffffff;stroke:#1f77b4;" x="240.889699" xlink:href="#mea6a5b41d4" y="419.477203"/>
     <use style="fill:#ffffff;stroke:#1f77b4;" x="269.281089" xlink:href="#mea6a5b41d4" y="410.011692"/>
     <use style="fill:#ffffff;stroke:#1f77b4;" x="297.672478" xlink:href="#mea6a5b41d4" y="402.014083"/>
     <use style="fill:#ffffff;stroke:#1f77b4;" x="326.063868" xlink:href="#mea6a5b41d4" y="366.393336"/>
     <use style="fill:#ffffff;stroke:#1f77b4;" x="354.455257" xlink:href="#mea6a5b41d4" y="339.448261"/>
     <use style="fill:#ffffff;stroke:#1f77b4;" x="382.846647" xlink:href="#mea6a5b41d4" y="329.902151"/>
     <use style="fill:#ffffff;stroke:#1f77b4;" x="411.238036" xlink:href="#mea6a5b41d4" y="316.593074"/>
     <use style="fill:#ffffff;stroke:#1f77b4;" x="439.629425" xlink:href="#mea6a5b41d4" y="300.819758"/>
     <use style="fill:#ffffff;stroke:#1f77b4;" x="468.020815" xlink:href="#mea6a5b41d4" y="293.258489"/>
     <use style="fill:#ffffff;stroke:#1f77b4;" x="496.412204" xlink:href="#mea6a5b41d4" y="288.085113"/>
     <use style="fill:#ffffff;stroke:#1f77b4;" x="524.803594" xlink:href="#mea6a5b41d4" y="262.883345"/>
    </g>
   </g>
   <g id="line2d_26">
    <path clip-path="url(#p58d08f33de)" d="M 117 512.64 
L 139.713112 505.585563 
L 168.104501 495.400386 
" style="fill:none;stroke:#ff7f0e;stroke-linecap:square;stroke-width:1.5;"/>
    <g clip-path="url(#p58d08f33de)">
     <use style="fill:#ffffff;stroke:#ff7f0e;" x="117" xlink:href="#mcdf6e3d254" y="512.64"/>
     <use style="fill:#ffffff;stroke:#ff7f0e;" x="139.713112" xlink:href="#mcdf6e3d254" y="505.585563"/>
     <use style="fill:#ffffff;stroke:#ff7f0e;" x="168.104501" xlink:href="#mcdf6e3d254" y="495.400386"/>
    </g>
   </g>
   <g id="line2d_27">
    <path clip-path="url(#p58d08f33de)" d="M 117 512.64 
L 127.324142 498.744954 
L 155.715531 488.854609 
L 212.49831 464.379564 
L 240.889699 462.931608 
L 269.281089 447.560743 
L 297.672478 435.678096 
L 326.063868 430.578133 
L 354.455257 426.82182 
L 411.238036 420.686211 
L 439.629425 410.011692 
L 468.020815 384.632873 
L 496.412204 376.366937 
L 524.803594 373.33434 
L 581.586373 360.587687 
" style="fill:none;stroke:#2ca02c;stroke-linecap:square;stroke-width:1.5;"/>
    <g clip-path="url(#p58d08f33de)">
     <use style="fill:#ffffff;stroke:#2ca02c;" x="117" xlink:href="#mc3b2bdc4bf" y="512.64"/>
     <use style="fill:#ffffff;stroke:#2ca02c;" x="127.324142" xlink:href="#mc3b2bdc4bf" y="498.744954"/>
     <use style="fill:#ffffff;stroke:#2ca02c;" x="155.715531" xlink:href="#mc3b2bdc4bf" y="488.854609"/>
     <use style="fill:#ffffff;stroke:#2ca02c;" x="212.49831" xlink:href="#mc3b2bdc4bf" y="464.379564"/>
     <use style="fill:#ffffff;stroke:#2ca02c;" x="240.889699" xlink:href="#mc3b2bdc4bf" y="462.931608"/>
     <use style="fill:#ffffff;stroke:#2ca02c;" x="269.281089" xlink:href="#mc3b2bdc4bf" y="447.560743"/>
     <use style="fill:#ffffff;stroke:#2ca02c;" x="297.672478" xlink:href="#mc3b2bdc4bf" y="435.678096"/>
     <use style="fill:#ffffff;stroke:#2ca02c;" x="326.063868" xlink:href="#mc3b2bdc4bf" y="430.578133"/>
     <use style="fill:#ffffff;stroke:#2ca02c;" x="354.455257" xlink:href="#mc3b2bdc4bf" y="426.82182"/>
     <use style="fill:#ffffff;stroke:#2ca02c;" x="411.238036" xlink:href="#mc3b2bdc4bf" y="420.686211"/>
     <use style="fill:#ffffff;stroke:#2ca02c;" x="439.629425" xlink:href="#mc3b2bdc4bf" y="410.011692"/>
     <use style="fill:#ffffff;stroke:#2ca02c;" x="468.020815" xlink:href="#mc3b2bdc4bf" y="384.632873"/>
     <use style="fill:#ffffff;stroke:#2ca02c;" x="496.412204" xlink:href="#mc3b2bdc4bf" y="376.366937"/>
     <use style="fill:#ffffff;stroke:#2ca02c;" x="524.803594" xlink:href="#mc3b2bdc4bf" y="373.33434"/>
     <use style="fill:#ffffff;stroke:#2ca02c;" x="581.586373" xlink:href="#mc3b2bdc4bf" y="360.587687"/>
    </g>
   </g>
   <g id="line2d_28">
    <path clip-path="url(#p58d08f33de)" d="M 117 512.64 
L 142.236791 498.744954 
L 170.62818 474.77273 
L 199.019569 462.931608 
L 227.410959 455.8217 
L 255.802348 451.65556 
L 284.193738 450.282832 
L 312.585127 446.211184 
L 340.976517 419.477203 
L 369.367906 412.344501 
L 397.759295 402.014083 
L 426.150685 392.091179 
L 454.542074 385.685095 
L 482.933464 384.632873 
L 511.324853 382.541313 
L 539.716243 372.331326 
" style="fill:none;stroke:#d62728;stroke-linecap:square;stroke-width:1.5;"/>
    <g clip-path="url(#p58d08f33de)">
     <use style="fill:#ffffff;stroke:#d62728;" x="117" xlink:href="#ma95efb97f4" y="512.64"/>
     <use style="fill:#ffffff;stroke:#d62728;" x="142.236791" xlink:href="#ma95efb97f4" y="498.744954"/>
     <use style="fill:#ffffff;stroke:#d62728;" x="170.62818" xlink:href="#ma95efb97f4" y="474.77273"/>
     <use style="fill:#ffffff;stroke:#d62728;" x="199.019569" xlink:href="#ma95efb97f4" y="462.931608"/>
     <use style="fill:#ffffff;stroke:#d62728;" x="227.410959" xlink:href="#ma95efb97f4" y="455.8217"/>
     <use style="fill:#ffffff;stroke:#d62728;" x="255.802348" xlink:href="#ma95efb97f4" y="451.65556"/>
     <use style="fill:#ffffff;stroke:#d62728;" x="284.193738" xlink:href="#ma95efb97f4" y="450.282832"/>
     <use style="fill:#ffffff;stroke:#d62728;" x="312.585127" xlink:href="#ma95efb97f4" y="446.211184"/>
     <use style="fill:#ffffff;stroke:#d62728;" x="340.976517" xlink:href="#ma95efb97f4" y="419.477203"/>
     <use style="fill:#ffffff;stroke:#d62728;" x="369.367906" xlink:href="#ma95efb97f4" y="412.344501"/>
     <use style="fill:#ffffff;stroke:#d62728;" x="397.759295" xlink:href="#ma95efb97f4" y="402.014083"/>
     <use style="fill:#ffffff;stroke:#d62728;" x="426.150685" xlink:href="#ma95efb97f4" y="392.091179"/>
     <use style="fill:#ffffff;stroke:#d62728;" x="454.542074" xlink:href="#ma95efb97f4" y="385.685095"/>
     <use style="fill:#ffffff;stroke:#d62728;" x="482.933464" xlink:href="#ma95efb97f4" y="384.632873"/>
     <use style="fill:#ffffff;stroke:#d62728;" x="511.324853" xlink:href="#ma95efb97f4" y="382.541313"/>
     <use style="fill:#ffffff;stroke:#d62728;" x="539.716243" xlink:href="#ma95efb97f4" y="372.331326"/>
    </g>
   </g>
   <g id="line2d_29">
    <path clip-path="url(#p58d08f33de)" d="M 117 512.64 
L 124.886497 503.855939 
L 153.277886 482.49007 
L 181.669276 454.424889 
L 210.060665 436.969953 
L 238.452055 430.578133 
L 266.843444 411.175368 
L 295.234834 399.775064 
L 323.626223 391.012248 
L 352.017613 377.38577 
L 380.409002 364.443744 
L 408.800391 353.973108 
L 437.191781 347.520452 
L 465.58317 342.111901 
" style="fill:none;stroke:#9467bd;stroke-linecap:square;stroke-width:1.5;"/>
    <g clip-path="url(#p58d08f33de)">
     <use style="fill:#ffffff;stroke:#9467bd;" x="117" xlink:href="#m78beefc1c4" y="512.64"/>
     <use style="fill:#ffffff;stroke:#9467bd;" x="124.886497" xlink:href="#m78beefc1c4" y="503.855939"/>
     <use style="fill:#ffffff;stroke:#9467bd;" x="153.277886" xlink:href="#m78beefc1c4" y="482.49007"/>
     <use style="fill:#ffffff;stroke:#9467bd;" x="181.669276" xlink:href="#m78beefc1c4" y="454.424889"/>
     <use style="fill:#ffffff;stroke:#9467bd;" x="210.060665" xlink:href="#m78beefc1c4" y="436.969953"/>
     <use style="fill:#ffffff;stroke:#9467bd;" x="238.452055" xlink:href="#m78beefc1c4" y="430.578133"/>
     <use style="fill:#ffffff;stroke:#9467bd;" x="266.843444" xlink:href="#m78beefc1c4" y="411.175368"/>
     <use style="fill:#ffffff;stroke:#9467bd;" x="295.234834" xlink:href="#m78beefc1c4" y="399.775064"/>
     <use style="fill:#ffffff;stroke:#9467bd;" x="323.626223" xlink:href="#m78beefc1c4" y="391.012248"/>
     <use style="fill:#ffffff;stroke:#9467bd;" x="352.017613" xlink:href="#m78beefc1c4" y="377.38577"/>
     <use style="fill:#ffffff;stroke:#9467bd;" x="380.409002" xlink:href="#m78beefc1c4" y="364.443744"/>
     <use style="fill:#ffffff;stroke:#9467bd;" x="408.800391" xlink:href="#m78beefc1c4" y="353.973108"/>
     <use style="fill:#ffffff;stroke:#9467bd;" x="437.191781" xlink:href="#m78beefc1c4" y="347.520452"/>
     <use style="fill:#ffffff;stroke:#9467bd;" x="465.58317" xlink:href="#m78beefc1c4" y="342.111901"/>
    </g>
   </g>
   <g id="line2d_30">
    <path clip-path="url(#p58d08f33de)" d="M 117 512.64 
L 136.873973 500.435854 
L 165.265362 497.066533 
L 193.656751 485.650392 
L 222.048141 480.925951 
L 250.43953 479.372313 
L 278.83092 473.25948 
L 307.222309 457.226752 
L 335.613699 450.282832 
L 364.005088 436.969953 
L 392.396477 428.067536 
L 420.787867 417.076773 
L 449.179256 407.700484 
L 477.570646 404.273205 
L 505.962035 387.802624 
" style="fill:none;stroke:#8c564b;stroke-linecap:square;stroke-width:1.5;"/>
    <g clip-path="url(#p58d08f33de)">
     <use style="fill:#ffffff;stroke:#8c564b;" x="117" xlink:href="#m3860392715" y="512.64"/>
     <use style="fill:#ffffff;stroke:#8c564b;" x="136.873973" xlink:href="#m3860392715" y="500.435854"/>
     <use style="fill:#ffffff;stroke:#8c564b;" x="165.265362" xlink:href="#m3860392715" y="497.066533"/>
     <use style="fill:#ffffff;stroke:#8c564b;" x="193.656751" xlink:href="#m3860392715" y="485.650392"/>
     <use style="fill:#ffffff;stroke:#8c564b;" x="222.048141" xlink:href="#m3860392715" y="480.925951"/>
     <use style="fill:#ffffff;stroke:#8c564b;" x="250.43953" xlink:href="#m3860392715" y="479.372313"/>
     <use style="fill:#ffffff;stroke:#8c564b;" x="278.83092" xlink:href="#m3860392715" y="473.25948"/>
     <use style="fill:#ffffff;stroke:#8c564b;" x="307.222309" xlink:href="#m3860392715" y="457.226752"/>
     <use style="fill:#ffffff;stroke:#8c564b;" x="335.613699" xlink:href="#m3860392715" y="450.282832"/>
     <use style="fill:#ffffff;stroke:#8c564b;" x="364.005088" xlink:href="#m3860392715" y="436.969953"/>
     <use style="fill:#ffffff;stroke:#8c564b;" x="392.396477" xlink:href="#m3860392715" y="428.067536"/>
     <use style="fill:#ffffff;stroke:#8c564b;" x="420.787867" xlink:href="#m3860392715" y="417.076773"/>
     <use style="fill:#ffffff;stroke:#8c564b;" x="449.179256" xlink:href="#m3860392715" y="407.700484"/>
     <use style="fill:#ffffff;stroke:#8c564b;" x="477.570646" xlink:href="#m3860392715" y="404.273205"/>
     <use style="fill:#ffffff;stroke:#8c564b;" x="505.962035" xlink:href="#m3860392715" y="387.802624"/>
    </g>
   </g>
   <g id="line2d_31">
    <path clip-path="url(#p58d08f33de)" d="M 117 512.64 
L 126.463796 510.855518 
L 183.246575 497.066533 
L 211.637965 473.25948 
L 240.029354 457.226752 
L 268.420744 448.917927 
L 296.812133 447.560743 
L 325.203523 443.53456 
L 353.594912 439.574475 
L 381.986301 434.393066 
L 410.377691 428.067536 
L 438.76908 417.076773 
L 467.16047 414.699369 
L 523.943249 403.141105 
L 552.334638 399.775064 
L 580.726027 396.453365 
L 609.117417 392.091179 
" style="fill:none;stroke:#e377c2;stroke-linecap:square;stroke-width:1.5;"/>
    <g clip-path="url(#p58d08f33de)">
     <use style="fill:#ffffff;stroke:#e377c2;" x="117" xlink:href="#m81d8fffdce" y="512.64"/>
     <use style="fill:#ffffff;stroke:#e377c2;" x="126.463796" xlink:href="#m81d8fffdce" y="510.855518"/>
     <use style="fill:#ffffff;stroke:#e377c2;" x="183.246575" xlink:href="#m81d8fffdce" y="497.066533"/>
     <use style="fill:#ffffff;stroke:#e377c2;" x="211.637965" xlink:href="#m81d8fffdce" y="473.25948"/>
     <use style="fill:#ffffff;stroke:#e377c2;" x="240.029354" xlink:href="#m81d8fffdce" y="457.226752"/>
     <use style="fill:#ffffff;stroke:#e377c2;" x="268.420744" xlink:href="#m81d8fffdce" y="448.917927"/>
     <use style="fill:#ffffff;stroke:#e377c2;" x="296.812133" xlink:href="#m81d8fffdce" y="447.560743"/>
     <use style="fill:#ffffff;stroke:#e377c2;" x="325.203523" xlink:href="#m81d8fffdce" y="443.53456"/>
     <use style="fill:#ffffff;stroke:#e377c2;" x="353.594912" xlink:href="#m81d8fffdce" y="439.574475"/>
     <use style="fill:#ffffff;stroke:#e377c2;" x="381.986301" xlink:href="#m81d8fffdce" y="434.393066"/>
     <use style="fill:#ffffff;stroke:#e377c2;" x="410.377691" xlink:href="#m81d8fffdce" y="428.067536"/>
     <use style="fill:#ffffff;stroke:#e377c2;" x="438.76908" xlink:href="#m81d8fffdce" y="417.076773"/>
     <use style="fill:#ffffff;stroke:#e377c2;" x="467.16047" xlink:href="#m81d8fffdce" y="414.699369"/>
     <use style="fill:#ffffff;stroke:#e377c2;" x="523.943249" xlink:href="#m81d8fffdce" y="403.141105"/>
     <use style="fill:#ffffff;stroke:#e377c2;" x="552.334638" xlink:href="#m81d8fffdce" y="399.775064"/>
     <use style="fill:#ffffff;stroke:#e377c2;" x="580.726027" xlink:href="#m81d8fffdce" y="396.453365"/>
     <use style="fill:#ffffff;stroke:#e377c2;" x="609.117417" xlink:href="#m81d8fffdce" y="392.091179"/>
    </g>
   </g>
   <g id="line2d_32">
    <path clip-path="url(#p58d08f33de)" d="M 117 512.64 
L 126.463796 503.855939 
L 154.855186 468.777566 
L 183.246575 450.282832 
L 211.637965 431.843163 
L 240.029354 404.273205 
L 268.420744 380.466672 
L 296.812133 353.973108 
L 325.203523 329.050895 
L 353.594912 314.974313 
L 381.986301 302.357062 
L 410.377691 279.432674 
L 438.76908 248.510374 
L 467.16047 230.59026 
L 495.551859 210.320459 
L 523.943249 196.639718 
L 552.334638 184.063191 
L 580.726027 174.958994 
L 609.117417 164.184574 
L 637.508806 151.9142 
L 665.900196 143.691938 
L 694.291585 129.581779 
L 722.682975 116.896376 
L 751.074364 106.69332 
L 779.465753 100.721741 
L 807.857143 90.24 
" style="fill:none;stroke:#7f7f7f;stroke-linecap:square;stroke-width:1.5;"/>
    <g clip-path="url(#p58d08f33de)">
     <use style="fill:#ffffff;stroke:#7f7f7f;" x="117" xlink:href="#mf601087a1c" y="512.64"/>
     <use style="fill:#ffffff;stroke:#7f7f7f;" x="126.463796" xlink:href="#mf601087a1c" y="503.855939"/>
     <use style="fill:#ffffff;stroke:#7f7f7f;" x="154.855186" xlink:href="#mf601087a1c" y="468.777566"/>
     <use style="fill:#ffffff;stroke:#7f7f7f;" x="183.246575" xlink:href="#mf601087a1c" y="450.282832"/>
     <use style="fill:#ffffff;stroke:#7f7f7f;" x="211.637965" xlink:href="#mf601087a1c" y="431.843163"/>
     <use style="fill:#ffffff;stroke:#7f7f7f;" x="240.029354" xlink:href="#mf601087a1c" y="404.273205"/>
     <use style="fill:#ffffff;stroke:#7f7f7f;" x="268.420744" xlink:href="#mf601087a1c" y="380.466672"/>
     <use style="fill:#ffffff;stroke:#7f7f7f;" x="296.812133" xlink:href="#mf601087a1c" y="353.973108"/>
     <use style="fill:#ffffff;stroke:#7f7f7f;" x="325.203523" xlink:href="#mf601087a1c" y="329.050895"/>
     <use style="fill:#ffffff;stroke:#7f7f7f;" x="353.594912" xlink:href="#mf601087a1c" y="314.974313"/>
     <use style="fill:#ffffff;stroke:#7f7f7f;" x="381.986301" xlink:href="#mf601087a1c" y="302.357062"/>
     <use style="fill:#ffffff;stroke:#7f7f7f;" x="410.377691" xlink:href="#mf601087a1c" y="279.432674"/>
     <use style="fill:#ffffff;stroke:#7f7f7f;" x="438.76908" xlink:href="#mf601087a1c" y="248.510374"/>
     <use style="fill:#ffffff;stroke:#7f7f7f;" x="467.16047" xlink:href="#mf601087a1c" y="230.59026"/>
     <use style="fill:#ffffff;stroke:#7f7f7f;" x="495.551859" xlink:href="#mf601087a1c" y="210.320459"/>
     <use style="fill:#ffffff;stroke:#7f7f7f;" x="523.943249" xlink:href="#mf601087a1c" y="196.639718"/>
     <use style="fill:#ffffff;stroke:#7f7f7f;" x="552.334638" xlink:href="#mf601087a1c" y="184.063191"/>
     <use style="fill:#ffffff;stroke:#7f7f7f;" x="580.726027" xlink:href="#mf601087a1c" y="174.958994"/>
     <use style="fill:#ffffff;stroke:#7f7f7f;" x="609.117417" xlink:href="#mf601087a1c" y="164.184574"/>
     <use style="fill:#ffffff;stroke:#7f7f7f;" x="637.508806" xlink:href="#mf601087a1c" y="151.9142"/>
     <use style="fill:#ffffff;stroke:#7f7f7f;" x="665.900196" xlink:href="#mf601087a1c" y="143.691938"/>
     <use style="fill:#ffffff;stroke:#7f7f7f;" x="694.291585" xlink:href="#mf601087a1c" y="129.581779"/>
     <use style="fill:#ffffff;stroke:#7f7f7f;" x="722.682975" xlink:href="#mf601087a1c" y="116.896376"/>
     <use style="fill:#ffffff;stroke:#7f7f7f;" x="751.074364" xlink:href="#mf601087a1c" y="106.69332"/>
     <use style="fill:#ffffff;stroke:#7f7f7f;" x="779.465753" xlink:href="#mf601087a1c" y="100.721741"/>
     <use style="fill:#ffffff;stroke:#7f7f7f;" x="807.857143" xlink:href="#mf601087a1c" y="90.24"/>
    </g>
   </g>
   <g id="line2d_33">
    <path clip-path="url(#p58d08f33de)" d="M 117 512.64 
L 124.515368 497.066533 
L 152.906757 477.828998 
L 181.298147 464.379564 
L 209.689536 448.917927 
L 238.080926 438.268718 
L 266.472315 431.843163 
L 294.863704 384.632873 
L 323.255094 371.332181 
L 351.646483 349.348064 
L 380.037873 325.67245 
L 408.429262 310.174706 
L 436.820652 292.513542 
L 465.212041 277.31046 
L 493.60343 259.553174 
L 521.99482 244.711387 
L 550.386209 222.31552 
L 578.777599 208.089304 
L 607.168988 201.493558 
L 635.560378 196.105177 
L 663.951767 176.457764 
" style="fill:none;stroke:#bcbd22;stroke-linecap:square;stroke-width:1.5;"/>
    <g clip-path="url(#p58d08f33de)">
     <use style="fill:#ffffff;stroke:#bcbd22;" x="117" xlink:href="#m6bfdb46e66" y="512.64"/>
     <use style="fill:#ffffff;stroke:#bcbd22;" x="124.515368" xlink:href="#m6bfdb46e66" y="497.066533"/>
     <use style="fill:#ffffff;stroke:#bcbd22;" x="152.906757" xlink:href="#m6bfdb46e66" y="477.828998"/>
     <use style="fill:#ffffff;stroke:#bcbd22;" x="181.298147" xlink:href="#m6bfdb46e66" y="464.379564"/>
     <use style="fill:#ffffff;stroke:#bcbd22;" x="209.689536" xlink:href="#m6bfdb46e66" y="448.917927"/>
     <use style="fill:#ffffff;stroke:#bcbd22;" x="238.080926" xlink:href="#m6bfdb46e66" y="438.268718"/>
     <use style="fill:#ffffff;stroke:#bcbd22;" x="266.472315" xlink:href="#m6bfdb46e66" y="431.843163"/>
     <use style="fill:#ffffff;stroke:#bcbd22;" x="294.863704" xlink:href="#m6bfdb46e66" y="384.632873"/>
     <use style="fill:#ffffff;stroke:#bcbd22;" x="323.255094" xlink:href="#m6bfdb46e66" y="371.332181"/>
     <use style="fill:#ffffff;stroke:#bcbd22;" x="351.646483" xlink:href="#m6bfdb46e66" y="349.348064"/>
     <use style="fill:#ffffff;stroke:#bcbd22;" x="380.037873" xlink:href="#m6bfdb46e66" y="325.67245"/>
     <use style="fill:#ffffff;stroke:#bcbd22;" x="408.429262" xlink:href="#m6bfdb46e66" y="310.174706"/>
     <use style="fill:#ffffff;stroke:#bcbd22;" x="436.820652" xlink:href="#m6bfdb46e66" y="292.513542"/>
     <use style="fill:#ffffff;stroke:#bcbd22;" x="465.212041" xlink:href="#m6bfdb46e66" y="277.31046"/>
     <use style="fill:#ffffff;stroke:#bcbd22;" x="493.60343" xlink:href="#m6bfdb46e66" y="259.553174"/>
     <use style="fill:#ffffff;stroke:#bcbd22;" x="521.99482" xlink:href="#m6bfdb46e66" y="244.711387"/>
     <use style="fill:#ffffff;stroke:#bcbd22;" x="550.386209" xlink:href="#m6bfdb46e66" y="222.31552"/>
     <use style="fill:#ffffff;stroke:#bcbd22;" x="578.777599" xlink:href="#m6bfdb46e66" y="208.089304"/>
     <use style="fill:#ffffff;stroke:#bcbd22;" x="607.168988" xlink:href="#m6bfdb46e66" y="201.493558"/>
     <use style="fill:#ffffff;stroke:#bcbd22;" x="635.560378" xlink:href="#m6bfdb46e66" y="196.105177"/>
     <use style="fill:#ffffff;stroke:#bcbd22;" x="663.951767" xlink:href="#m6bfdb46e66" y="176.457764"/>
    </g>
   </g>
   <g id="line2d_34">
    <path clip-path="url(#p58d08f33de)" d="M 117 512.64 
L 143.02544 493.746313 
L 171.41683 467.302417 
L 199.808219 454.424889 
L 228.199609 444.869155 
L 256.590998 431.843163 
L 284.982387 412.344501 
L 313.373777 398.662969 
L 341.765166 382.541313 
L 370.156556 374.341257 
L 398.547945 368.357628 
L 426.939335 359.632485 
L 455.330724 350.266621 
L 483.722114 339.448261 
L 512.113503 335.93753 
L 540.504892 326.513112 
L 568.896282 322.335653 
L 597.287671 319.039364 
L 625.679061 314.168514 
L 654.07045 307.020977 
L 682.46184 292.513542 
" style="fill:none;stroke:#17becf;stroke-linecap:square;stroke-width:1.5;"/>
    <g clip-path="url(#p58d08f33de)">
     <use style="fill:#ffffff;stroke:#17becf;" x="117" xlink:href="#m0cdaf9573a" y="512.64"/>
     <use style="fill:#ffffff;stroke:#17becf;" x="143.02544" xlink:href="#m0cdaf9573a" y="493.746313"/>
     <use style="fill:#ffffff;stroke:#17becf;" x="171.41683" xlink:href="#m0cdaf9573a" y="467.302417"/>
     <use style="fill:#ffffff;stroke:#17becf;" x="199.808219" xlink:href="#m0cdaf9573a" y="454.424889"/>
     <use style="fill:#ffffff;stroke:#17becf;" x="228.199609" xlink:href="#m0cdaf9573a" y="444.869155"/>
     <use style="fill:#ffffff;stroke:#17becf;" x="256.590998" xlink:href="#m0cdaf9573a" y="431.843163"/>
     <use style="fill:#ffffff;stroke:#17becf;" x="284.982387" xlink:href="#m0cdaf9573a" y="412.344501"/>
     <use style="fill:#ffffff;stroke:#17becf;" x="313.373777" xlink:href="#m0cdaf9573a" y="398.662969"/>
     <use style="fill:#ffffff;stroke:#17becf;" x="341.765166" xlink:href="#m0cdaf9573a" y="382.541313"/>
     <use style="fill:#ffffff;stroke:#17becf;" x="370.156556" xlink:href="#m0cdaf9573a" y="374.341257"/>
     <use style="fill:#ffffff;stroke:#17becf;" x="398.547945" xlink:href="#m0cdaf9573a" y="368.357628"/>
     <use style="fill:#ffffff;stroke:#17becf;" x="426.939335" xlink:href="#m0cdaf9573a" y="359.632485"/>
     <use style="fill:#ffffff;stroke:#17becf;" x="455.330724" xlink:href="#m0cdaf9573a" y="350.266621"/>
     <use style="fill:#ffffff;stroke:#17becf;" x="483.722114" xlink:href="#m0cdaf9573a" y="339.448261"/>
     <use style="fill:#ffffff;stroke:#17becf;" x="512.113503" xlink:href="#m0cdaf9573a" y="335.93753"/>
     <use style="fill:#ffffff;stroke:#17becf;" x="540.504892" xlink:href="#m0cdaf9573a" y="326.513112"/>
     <use style="fill:#ffffff;stroke:#17becf;" x="568.896282" xlink:href="#m0cdaf9573a" y="322.335653"/>
     <use style="fill:#ffffff;stroke:#17becf;" x="597.287671" xlink:href="#m0cdaf9573a" y="319.039364"/>
     <use style="fill:#ffffff;stroke:#17becf;" x="625.679061" xlink:href="#m0cdaf9573a" y="314.168514"/>
     <use style="fill:#ffffff;stroke:#17becf;" x="654.07045" xlink:href="#m0cdaf9573a" y="307.020977"/>
     <use style="fill:#ffffff;stroke:#17becf;" x="682.46184" xlink:href="#m0cdaf9573a" y="292.513542"/>
    </g>
   </g>
   <g id="patch_3">
    <path d="M 117 512.64 
L 117 69.12 
" style="fill:none;stroke:#666666;stroke-linecap:square;stroke-linejoin:miter;stroke-width:0.8;"/>
   </g>
   <g id="patch_4">
    <path d="M 117 512.64 
L 842.4 512.64 
" style="fill:none;stroke:#666666;stroke-linecap:square;stroke-linejoin:miter;stroke-width:0.8;"/>
   </g>
   <g id="text_7">
    <g id="patch_5">
     <path d="M 421.124957 343.027948 
C 422.624957 344.527948 435.037457 344.527948 436.537457 343.027948 
C 438.037457 341.527948 438.037457 331.849823 436.537457 330.349823 
C 435.037457 328.849823 422.624957 328.849823 421.124957 330.349823 
C 419.624957 331.849823 419.624957 341.527948 421.124957 343.027948 
z
" style="fill:#ffffff;stroke:#1f77b4;stroke-linejoin:miter;"/>
    </g>
    <!-- AL -->
    <defs>
     <path d="M 34.1875 63.1875 
L 20.796875 26.90625 
L 47.609375 26.90625 
z
M 28.609375 72.90625 
L 39.796875 72.90625 
L 67.578125 0 
L 57.328125 0 
L 50.6875 18.703125 
L 17.828125 18.703125 
L 11.1875 0 
L 0.78125 0 
z
" id="DejaVuSans-65"/>
     <path d="M 9.8125 72.90625 
L 19.671875 72.90625 
L 19.671875 8.296875 
L 55.171875 8.296875 
L 55.171875 0 
L 9.8125 0 
z
" id="DejaVuSans-76"/>
    </defs>
    <g style="fill:#1f77b4;" transform="translate(422.624957 339.448261)scale(0.1 -0.1)">
     <use xlink:href="#DejaVuSans-65"/>
     <use x="68.408203" xlink:href="#DejaVuSans-76"/>
    </g>
   </g>
   <g id="text_8">
    <g id="patch_6">
     <path d="M 618.801904 301.350196 
C 620.301904 302.850196 633.992529 302.850196 635.492529 301.350196 
C 636.992529 299.850196 636.992529 290.172071 635.492529 288.672071 
C 633.992529 287.172071 620.301904 287.172071 618.801904 288.672071 
C 617.301904 290.172071 617.301904 299.850196 618.801904 301.350196 
z
" style="fill:#ffffff;stroke:#ff7f0e;stroke-linejoin:miter;"/>
    </g>
    <!-- AZ -->
    <defs>
     <path d="M 5.609375 72.90625 
L 62.890625 72.90625 
L 62.890625 65.375 
L 16.796875 8.296875 
L 64.015625 8.296875 
L 64.015625 0 
L 4.5 0 
L 4.5 7.515625 
L 50.59375 64.59375 
L 5.609375 64.59375 
z
" id="DejaVuSans-90"/>
    </defs>
    <g style="fill:#ff7f0e;" transform="translate(620.301904 297.770509)scale(0.1 -0.1)">
     <use xlink:href="#DejaVuSans-65"/>
     <use x="68.408203" xlink:href="#DejaVuSans-90"/>
    </g>
   </g>
   <g id="text_9">
    <g id="patch_7">
     <path d="M 358.40411 393.51756 
C 359.90411 395.01756 374.586922 395.01756 376.086922 393.51756 
C 377.586922 392.01756 377.586922 382.339435 376.086922 380.839435 
C 374.586922 379.339435 359.90411 379.339435 358.40411 380.839435 
C 356.90411 382.339435 356.90411 392.01756 358.40411 393.51756 
z
" style="fill:#ffffff;stroke:#2ca02c;stroke-linejoin:miter;"/>
    </g>
    <!-- DC -->
    <defs>
     <path d="M 64.40625 67.28125 
L 64.40625 56.890625 
Q 59.421875 61.53125 53.78125 63.8125 
Q 48.140625 66.109375 41.796875 66.109375 
Q 29.296875 66.109375 22.65625 58.46875 
Q 16.015625 50.828125 16.015625 36.375 
Q 16.015625 21.96875 22.65625 14.328125 
Q 29.296875 6.6875 41.796875 6.6875 
Q 48.140625 6.6875 53.78125 8.984375 
Q 59.421875 11.28125 64.40625 15.921875 
L 64.40625 5.609375 
Q 59.234375 2.09375 53.4375 0.328125 
Q 47.65625 -1.421875 41.21875 -1.421875 
Q 24.65625 -1.421875 15.125 8.703125 
Q 5.609375 18.84375 5.609375 36.375 
Q 5.609375 53.953125 15.125 64.078125 
Q 24.65625 74.21875 41.21875 74.21875 
Q 47.75 74.21875 53.53125 72.484375 
Q 59.328125 70.75 64.40625 67.28125 
z
" id="DejaVuSans-67"/>
    </defs>
    <g style="fill:#2ca02c;" transform="translate(359.90411 389.937873)scale(0.1 -0.1)">
     <use xlink:href="#DejaVuSans-68"/>
     <use x="77.001953" xlink:href="#DejaVuSans-67"/>
    </g>
   </g>
   <g id="text_10">
    <g id="patch_8">
     <path d="M 229.065558 458.004577 
C 230.565558 459.504577 244.584308 459.504577 246.084308 458.004577 
C 247.584308 456.504577 247.584308 446.826452 246.084308 445.326452 
C 244.584308 443.826452 230.565558 443.826452 229.065558 445.326452 
C 227.565558 446.826452 227.565558 456.504577 229.065558 458.004577 
z
" style="fill:#ffffff;stroke:#d62728;stroke-linejoin:miter;"/>
    </g>
    <!-- DE -->
    <defs>
     <path d="M 9.8125 72.90625 
L 55.90625 72.90625 
L 55.90625 64.59375 
L 19.671875 64.59375 
L 19.671875 43.015625 
L 54.390625 43.015625 
L 54.390625 34.71875 
L 19.671875 34.71875 
L 19.671875 8.296875 
L 56.78125 8.296875 
L 56.78125 0 
L 9.8125 0 
z
" id="DejaVuSans-69"/>
    </defs>
    <g style="fill:#d62728;" transform="translate(230.565558 454.424889)scale(0.1 -0.1)">
     <use xlink:href="#DejaVuSans-68"/>
     <use x="77.001953" xlink:href="#DejaVuSans-69"/>
    </g>
   </g>
   <g id="text_11">
    <g id="patch_9">
     <path d="M 247.132806 459.401388 
C 248.632806 460.901388 258.423431 460.901388 259.923431 459.401388 
C 261.423431 457.901388 261.423431 448.223263 259.923431 446.723263 
C 258.423431 445.223263 248.632806 445.223263 247.132806 446.723263 
C 245.632806 448.223263 245.632806 457.901388 247.132806 459.401388 
z
" style="fill:#ffffff;stroke:#9467bd;stroke-linejoin:miter;"/>
    </g>
    <!-- IA -->
    <defs>
     <path d="M 9.8125 72.90625 
L 19.671875 72.90625 
L 19.671875 0 
L 9.8125 0 
z
" id="DejaVuSans-73"/>
    </defs>
    <g style="fill:#9467bd;" transform="translate(248.632806 455.8217)scale(0.1 -0.1)">
     <use xlink:href="#DejaVuSans-73"/>
     <use x="29.492188" xlink:href="#DejaVuSans-65"/>
    </g>
   </g>
   <g id="text_12">
    <g id="patch_10">
     <path d="M 314.239726 482.952001 
C 315.739726 484.452001 328.645976 484.452001 330.145976 482.952001 
C 331.645976 481.452001 331.645976 471.773876 330.145976 470.273876 
C 328.645976 468.773876 315.739726 468.773876 314.239726 470.273876 
C 312.739726 471.773876 312.739726 481.452001 314.239726 482.952001 
z
" style="fill:#ffffff;stroke:#8c564b;stroke-linejoin:miter;"/>
    </g>
    <!-- KS -->
    <defs>
     <path d="M 9.8125 72.90625 
L 19.671875 72.90625 
L 19.671875 42.09375 
L 52.390625 72.90625 
L 65.09375 72.90625 
L 28.90625 38.921875 
L 67.671875 0 
L 54.6875 0 
L 19.671875 35.109375 
L 19.671875 0 
L 9.8125 0 
z
" id="DejaVuSans-75"/>
     <path d="M 53.515625 70.515625 
L 53.515625 60.890625 
Q 47.90625 63.578125 42.921875 64.890625 
Q 37.9375 66.21875 33.296875 66.21875 
Q 25.25 66.21875 20.875 63.09375 
Q 16.5 59.96875 16.5 54.203125 
Q 16.5 49.359375 19.40625 46.890625 
Q 22.3125 44.4375 30.421875 42.921875 
L 36.375 41.703125 
Q 47.40625 39.59375 52.65625 34.296875 
Q 57.90625 29 57.90625 20.125 
Q 57.90625 9.515625 50.796875 4.046875 
Q 43.703125 -1.421875 29.984375 -1.421875 
Q 24.8125 -1.421875 18.96875 -0.25 
Q 13.140625 0.921875 6.890625 3.21875 
L 6.890625 13.375 
Q 12.890625 10.015625 18.65625 8.296875 
Q 24.421875 6.59375 29.984375 6.59375 
Q 38.421875 6.59375 43.015625 9.90625 
Q 47.609375 13.234375 47.609375 19.390625 
Q 47.609375 24.75 44.3125 27.78125 
Q 41.015625 30.8125 33.5 32.328125 
L 27.484375 33.5 
Q 16.453125 35.6875 11.515625 40.375 
Q 6.59375 45.0625 6.59375 53.421875 
Q 6.59375 63.09375 13.40625 68.65625 
Q 20.21875 74.21875 32.171875 74.21875 
Q 37.3125 74.21875 42.625 73.28125 
Q 47.953125 72.359375 53.515625 70.515625 
z
" id="DejaVuSans-83"/>
    </defs>
    <g style="fill:#8c564b;" transform="translate(315.739726 479.372313)scale(0.1 -0.1)">
     <use xlink:href="#DejaVuSans-75"/>
     <use x="65.576172" xlink:href="#DejaVuSans-83"/>
    </g>
   </g>
   <g id="text_13">
    <g id="patch_11">
     <path d="M 552.727397 358.487611 
C 554.227397 359.987611 566.530522 359.987611 568.030522 358.487611 
C 569.530522 356.987611 569.530522 347.309486 568.030522 345.809486 
C 566.530522 344.309486 554.227397 344.309486 552.727397 345.809486 
C 551.227397 347.309486 551.227397 356.987611 552.727397 358.487611 
z
" style="fill:#ffffff;stroke:#e377c2;stroke-linejoin:miter;"/>
    </g>
    <!-- KY -->
    <defs>
     <path d="M -0.203125 72.90625 
L 10.40625 72.90625 
L 30.609375 42.921875 
L 50.6875 72.90625 
L 61.28125 72.90625 
L 35.5 34.71875 
L 35.5 0 
L 25.59375 0 
L 25.59375 34.71875 
z
" id="DejaVuSans-89"/>
    </defs>
    <g style="fill:#e377c2;" transform="translate(554.227397 354.907923)scale(0.1 -0.1)">
     <use xlink:href="#DejaVuSans-75"/>
     <use x="61.951172" xlink:href="#DejaVuSans-89"/>
    </g>
   </g>
   <g id="text_14">
    <g id="patch_12">
     <path d="M 446.176183 295.350267 
C 447.676183 296.850267 463.785558 296.850267 465.285558 295.350267 
C 466.785558 293.850267 466.785558 284.172142 465.285558 282.672142 
C 463.785558 281.172142 447.676183 281.172142 446.176183 282.672142 
C 444.676183 284.172142 444.676183 293.850267 446.176183 295.350267 
z
" style="fill:#ffffff;stroke:#7f7f7f;stroke-linejoin:miter;"/>
    </g>
    <!-- MN -->
    <defs>
     <path d="M 9.8125 72.90625 
L 24.515625 72.90625 
L 43.109375 23.296875 
L 61.8125 72.90625 
L 76.515625 72.90625 
L 76.515625 0 
L 66.890625 0 
L 66.890625 64.015625 
L 48.09375 14.015625 
L 38.1875 14.015625 
L 19.390625 64.015625 
L 19.390625 0 
L 9.8125 0 
z
" id="DejaVuSans-77"/>
     <path d="M 9.8125 72.90625 
L 23.09375 72.90625 
L 55.421875 11.921875 
L 55.421875 72.90625 
L 64.984375 72.90625 
L 64.984375 0 
L 51.703125 0 
L 19.390625 60.984375 
L 19.390625 0 
L 9.8125 0 
z
" id="DejaVuSans-78"/>
    </defs>
    <g style="fill:#7f7f7f;" transform="translate(447.676183 291.77058)scale(0.1 -0.1)">
     <use xlink:href="#DejaVuSans-77"/>
     <use x="86.279297" xlink:href="#DejaVuSans-78"/>
    </g>
   </g>
   <g id="text_15">
    <g id="patch_13">
     <path d="M 589.417808 305.16703 
C 590.917808 306.66703 607.417808 306.66703 608.917808 305.16703 
C 610.417808 303.66703 610.417808 293.988905 608.917808 292.488905 
C 607.417808 290.988905 590.917808 290.988905 589.417808 292.488905 
C 587.917808 293.988905 587.917808 303.66703 589.417808 305.16703 
z
" style="fill:#ffffff;stroke:#bcbd22;stroke-linejoin:miter;"/>
    </g>
    <!-- MO -->
    <defs>
     <path d="M 39.40625 66.21875 
Q 28.65625 66.21875 22.328125 58.203125 
Q 16.015625 50.203125 16.015625 36.375 
Q 16.015625 22.609375 22.328125 14.59375 
Q 28.65625 6.59375 39.40625 6.59375 
Q 50.140625 6.59375 56.421875 14.59375 
Q 62.703125 22.609375 62.703125 36.375 
Q 62.703125 50.203125 56.421875 58.203125 
Q 50.140625 66.21875 39.40625 66.21875 
z
M 39.40625 74.21875 
Q 54.734375 74.21875 63.90625 63.9375 
Q 73.09375 53.65625 73.09375 36.375 
Q 73.09375 19.140625 63.90625 8.859375 
Q 54.734375 -1.421875 39.40625 -1.421875 
Q 24.03125 -1.421875 14.8125 8.828125 
Q 5.609375 19.09375 5.609375 36.375 
Q 5.609375 53.65625 14.8125 63.9375 
Q 24.03125 74.21875 39.40625 74.21875 
z
" id="DejaVuSans-79"/>
    </defs>
    <g style="fill:#bcbd22;" transform="translate(590.917808 301.587342)scale(0.1 -0.1)">
     <use xlink:href="#DejaVuSans-77"/>
     <use x="86.279297" xlink:href="#DejaVuSans-79"/>
    </g>
   </g>
   <g id="text_16">
    <g id="patch_14">
     <path d="M 537.002935 345.691589 
C 538.502935 347.191589 553.479498 347.191589 554.979498 345.691589 
C 556.479498 344.191589 556.479498 334.513464 554.979498 333.013464 
C 553.479498 331.513464 538.502935 331.513464 537.002935 333.013464 
C 535.502935 334.513464 535.502935 344.191589 537.002935 345.691589 
z
" style="fill:#ffffff;stroke:#17becf;stroke-linejoin:miter;"/>
    </g>
    <!-- MS -->
    <g style="fill:#17becf;" transform="translate(538.502935 342.111901)scale(0.1 -0.1)">
     <use xlink:href="#DejaVuSans-77"/>
     <use x="86.279297" xlink:href="#DejaVuSans-83"/>
    </g>
   </g>
   <g id="text_17">
    <g id="patch_15">
     <path d="M 523.303594 266.463033 
C 524.803594 267.963033 539.267656 267.963033 540.767656 266.463033 
C 542.267656 264.963033 542.267656 255.284908 540.767656 253.784908 
C 539.267656 252.284908 524.803594 252.284908 523.303594 253.784908 
C 521.803594 255.284908 521.803594 264.963033 523.303594 266.463033 
z
" style="fill:#ffffff;stroke:#1f77b4;stroke-linejoin:miter;"/>
    </g>
    <!-- NC -->
    <g style="fill:#1f77b4;" transform="translate(524.803594 262.883345)scale(0.1 -0.1)">
     <use xlink:href="#DejaVuSans-78"/>
     <use x="74.804688" xlink:href="#DejaVuSans-67"/>
    </g>
   </g>
   <g id="text_18">
    <g id="patch_16">
     <path d="M 166.604501 498.980074 
C 168.104501 500.480074 184.213876 500.480074 185.713876 498.980074 
C 187.213876 497.480074 187.213876 487.801949 185.713876 486.301949 
C 184.213876 484.801949 168.104501 484.801949 166.604501 486.301949 
C 165.104501 487.801949 165.104501 497.480074 166.604501 498.980074 
z
" style="fill:#ffffff;stroke:#ff7f0e;stroke-linejoin:miter;"/>
    </g>
    <!-- NM -->
    <g style="fill:#ff7f0e;" transform="translate(168.104501 495.400386)scale(0.1 -0.1)">
     <use xlink:href="#DejaVuSans-78"/>
     <use x="74.804688" xlink:href="#DejaVuSans-77"/>
    </g>
   </g>
   <g id="text_19">
    <g id="patch_17">
     <path d="M 580.086373 364.167375 
C 581.586373 365.667375 595.908248 365.667375 597.408248 364.167375 
C 598.908248 362.667375 598.908248 352.98925 597.408248 351.48925 
C 595.908248 349.98925 581.586373 349.98925 580.086373 351.48925 
C 578.586373 352.98925 578.586373 362.667375 580.086373 364.167375 
z
" style="fill:#ffffff;stroke:#2ca02c;stroke-linejoin:miter;"/>
    </g>
    <!-- NV -->
    <defs>
     <path d="M 28.609375 0 
L 0.78125 72.90625 
L 11.078125 72.90625 
L 34.1875 11.53125 
L 57.328125 72.90625 
L 67.578125 72.90625 
L 39.796875 0 
z
" id="DejaVuSans-86"/>
    </defs>
    <g style="fill:#2ca02c;" transform="translate(581.586373 360.587687)scale(0.1 -0.1)">
     <use xlink:href="#DejaVuSans-78"/>
     <use x="74.804688" xlink:href="#DejaVuSans-86"/>
    </g>
   </g>
   <g id="text_20">
    <g id="patch_18">
     <path d="M 538.216243 375.911014 
C 539.716243 377.411014 554.14593 377.411014 555.64593 375.911014 
C 557.14593 374.411014 557.14593 364.732889 555.64593 363.232889 
C 554.14593 361.732889 539.716243 361.732889 538.216243 363.232889 
C 536.716243 364.732889 536.716243 374.411014 538.216243 375.911014 
z
" style="fill:#ffffff;stroke:#d62728;stroke-linejoin:miter;"/>
    </g>
    <!-- OK -->
    <g style="fill:#d62728;" transform="translate(539.716243 372.331326)scale(0.1 -0.1)">
     <use xlink:href="#DejaVuSans-79"/>
     <use x="78.710938" xlink:href="#DejaVuSans-75"/>
    </g>
   </g>
   <g id="text_21">
    <g id="patch_19">
     <path d="M 464.08317 345.691589 
C 465.58317 347.191589 475.481608 347.191589 476.981608 345.691589 
C 478.481608 344.191589 478.481608 334.513464 476.981608 333.013464 
C 475.481608 331.513464 465.58317 331.513464 464.08317 333.013464 
C 462.58317 334.513464 462.58317 344.191589 464.08317 345.691589 
z
" style="fill:#ffffff;stroke:#9467bd;stroke-linejoin:miter;"/>
    </g>
    <!-- RI -->
    <defs>
     <path d="M 44.390625 34.1875 
Q 47.5625 33.109375 50.5625 29.59375 
Q 53.5625 26.078125 56.59375 19.921875 
L 66.609375 0 
L 56 0 
L 46.6875 18.703125 
Q 43.0625 26.03125 39.671875 28.421875 
Q 36.28125 30.8125 30.421875 30.8125 
L 19.671875 30.8125 
L 19.671875 0 
L 9.8125 0 
L 9.8125 72.90625 
L 32.078125 72.90625 
Q 44.578125 72.90625 50.734375 67.671875 
Q 56.890625 62.453125 56.890625 51.90625 
Q 56.890625 45.015625 53.6875 40.46875 
Q 50.484375 35.9375 44.390625 34.1875 
z
M 19.671875 64.796875 
L 19.671875 38.921875 
L 32.078125 38.921875 
Q 39.203125 38.921875 42.84375 42.21875 
Q 46.484375 45.515625 46.484375 51.90625 
Q 46.484375 58.296875 42.84375 61.546875 
Q 39.203125 64.796875 32.078125 64.796875 
z
" id="DejaVuSans-82"/>
    </defs>
    <g style="fill:#9467bd;" transform="translate(465.58317 342.111901)scale(0.1 -0.1)">
     <use xlink:href="#DejaVuSans-82"/>
     <use x="69.482422" xlink:href="#DejaVuSans-73"/>
    </g>
   </g>
   <g id="text_22">
    <g id="patch_20">
     <path d="M 504.462035 391.382311 
C 505.962035 392.882311 519.293285 392.882311 520.793285 391.382311 
C 522.293285 389.882311 522.293285 380.204186 520.793285 378.704186 
C 519.293285 377.204186 505.962035 377.204186 504.462035 378.704186 
C 502.962035 380.204186 502.962035 389.882311 504.462035 391.382311 
z
" style="fill:#ffffff;stroke:#8c564b;stroke-linejoin:miter;"/>
    </g>
    <!-- SC -->
    <g style="fill:#8c564b;" transform="translate(505.962035 387.802624)scale(0.1 -0.1)">
     <use xlink:href="#DejaVuSans-83"/>
     <use x="63.476562" xlink:href="#DejaVuSans-67"/>
    </g>
   </g>
   <g id="text_23">
    <g id="patch_21">
     <path d="M 607.617417 395.670867 
C 609.117417 397.170867 622.706479 397.170867 624.206479 395.670867 
C 625.706479 394.170867 625.706479 384.492742 624.206479 382.992742 
C 622.706479 381.492742 609.117417 381.492742 607.617417 382.992742 
C 606.117417 384.492742 606.117417 394.170867 607.617417 395.670867 
z
" style="fill:#ffffff;stroke:#e377c2;stroke-linejoin:miter;"/>
    </g>
    <!-- TN -->
    <defs>
     <path d="M -0.296875 72.90625 
L 61.375 72.90625 
L 61.375 64.59375 
L 35.5 64.59375 
L 35.5 0 
L 25.59375 0 
L 25.59375 64.59375 
L -0.296875 64.59375 
z
" id="DejaVuSans-84"/>
    </defs>
    <g style="fill:#e377c2;" transform="translate(609.117417 392.091179)scale(0.1 -0.1)">
     <use xlink:href="#DejaVuSans-84"/>
     <use x="61.083984" xlink:href="#DejaVuSans-78"/>
    </g>
   </g>
   <g id="text_24">
    <g id="patch_22">
     <path d="M 806.357143 93.819687 
C 807.857143 95.319687 820.814955 95.319687 822.314955 93.819687 
C 823.814955 92.319687 823.814955 82.641562 822.314955 81.141562 
C 820.814955 79.641562 807.857143 79.641562 806.357143 81.141562 
C 804.857143 82.641562 804.857143 92.319687 806.357143 93.819687 
z
" style="fill:#ffffff;stroke:#7f7f7f;stroke-linejoin:miter;"/>
    </g>
    <!-- TX -->
    <defs>
     <path d="M 6.296875 72.90625 
L 16.890625 72.90625 
L 35.015625 45.796875 
L 53.21875 72.90625 
L 63.8125 72.90625 
L 40.375 37.890625 
L 65.375 0 
L 54.78125 0 
L 34.28125 31 
L 13.625 0 
L 2.984375 0 
L 29 38.921875 
z
" id="DejaVuSans-88"/>
    </defs>
    <g style="fill:#7f7f7f;" transform="translate(807.857143 90.24)scale(0.1 -0.1)">
     <use xlink:href="#DejaVuSans-84"/>
     <use x="61.083984" xlink:href="#DejaVuSans-88"/>
    </g>
   </g>
   <g id="text_25">
    <g id="patch_23">
     <path d="M 662.451767 180.037452 
C 663.951767 181.537452 676.995517 181.537452 678.495517 180.037452 
C 679.995517 178.537452 679.995517 168.859327 678.495517 167.359327 
C 676.995517 165.859327 663.951767 165.859327 662.451767 167.359327 
C 660.951767 168.859327 660.951767 178.537452 662.451767 180.037452 
z
" style="fill:#ffffff;stroke:#bcbd22;stroke-linejoin:miter;"/>
    </g>
    <!-- VA -->
    <g style="fill:#bcbd22;" transform="translate(663.951767 176.457764)scale(0.1 -0.1)">
     <use xlink:href="#DejaVuSans-86"/>
     <use x="62.033203" xlink:href="#DejaVuSans-65"/>
    </g>
   </g>
   <g id="text_26">
    <g id="patch_24">
     <path d="M 680.96184 296.09323 
C 682.46184 297.59323 695.29934 297.59323 696.79934 296.09323 
C 698.29934 294.59323 698.29934 284.915105 696.79934 283.415105 
C 695.29934 281.915105 682.46184 281.915105 680.96184 283.415105 
C 679.46184 284.915105 679.46184 294.59323 680.96184 296.09323 
z
" style="fill:#ffffff;stroke:#17becf;stroke-linejoin:miter;"/>
    </g>
    <!-- WI -->
    <defs>
     <path d="M 3.328125 72.90625 
L 13.28125 72.90625 
L 28.609375 11.28125 
L 43.890625 72.90625 
L 54.984375 72.90625 
L 70.3125 11.28125 
L 85.59375 72.90625 
L 95.609375 72.90625 
L 77.296875 0 
L 64.890625 0 
L 49.515625 63.28125 
L 33.984375 0 
L 21.578125 0 
z
" id="DejaVuSans-87"/>
    </defs>
    <g style="fill:#17becf;" transform="translate(682.46184 292.513542)scale(0.1 -0.1)">
     <use xlink:href="#DejaVuSans-87"/>
     <use x="98.876953" xlink:href="#DejaVuSans-73"/>
    </g>
   </g>
   <g id="text_27">
    <!-- 1d -->
    <g style="fill:#b2b2b2;" transform="translate(174.335029 84.35267)scale(0.1 -0.1)">
     <use xlink:href="#DejaVuSans-49"/>
     <use x="63.623047" xlink:href="#DejaVuSans-100"/>
    </g>
   </g>
   <g id="text_28">
    <!-- 2d -->
    <g style="fill:#b2b2b2;" transform="translate(256.670059 84.35267)scale(0.1 -0.1)">
     <use xlink:href="#DejaVuSans-50"/>
     <use x="63.623047" xlink:href="#DejaVuSans-100"/>
    </g>
   </g>
   <g id="text_29">
    <!-- 3d -->
    <defs>
     <path d="M 40.578125 39.3125 
Q 47.65625 37.796875 51.625 33 
Q 55.609375 28.21875 55.609375 21.1875 
Q 55.609375 10.40625 48.1875 4.484375 
Q 40.765625 -1.421875 27.09375 -1.421875 
Q 22.515625 -1.421875 17.65625 -0.515625 
Q 12.796875 0.390625 7.625 2.203125 
L 7.625 11.71875 
Q 11.71875 9.328125 16.59375 8.109375 
Q 21.484375 6.890625 26.8125 6.890625 
Q 36.078125 6.890625 40.9375 10.546875 
Q 45.796875 14.203125 45.796875 21.1875 
Q 45.796875 27.640625 41.28125 31.265625 
Q 36.765625 34.90625 28.71875 34.90625 
L 20.21875 34.90625 
L 20.21875 43.015625 
L 29.109375 43.015625 
Q 36.375 43.015625 40.234375 45.921875 
Q 44.09375 48.828125 44.09375 54.296875 
Q 44.09375 59.90625 40.109375 62.90625 
Q 36.140625 65.921875 28.71875 65.921875 
Q 24.65625 65.921875 20.015625 65.03125 
Q 15.375 64.15625 9.8125 62.3125 
L 9.8125 71.09375 
Q 15.4375 72.65625 20.34375 73.4375 
Q 25.25 74.21875 29.59375 74.21875 
Q 40.828125 74.21875 47.359375 69.109375 
Q 53.90625 64.015625 53.90625 55.328125 
Q 53.90625 49.265625 50.4375 45.09375 
Q 46.96875 40.921875 40.578125 39.3125 
z
" id="DejaVuSans-51"/>
    </defs>
    <g style="fill:#b2b2b2;" transform="translate(339.005088 84.35267)scale(0.1 -0.1)">
     <use xlink:href="#DejaVuSans-51"/>
     <use x="63.623047" xlink:href="#DejaVuSans-100"/>
    </g>
   </g>
   <g id="text_30">
    <!-- 7d -->
    <g style="fill:#b2b2b2;" transform="translate(668.345205 84.35267)scale(0.1 -0.1)">
     <use xlink:href="#DejaVuSans-55"/>
     <use x="63.623047" xlink:href="#DejaVuSans-100"/>
    </g>
   </g>
   <g id="text_31">
    <!-- COVID-19 Deaths by States as of 2020-04-29 03:05 EDT -->
    <defs>
     <path d="M 4.890625 31.390625 
L 31.203125 31.390625 
L 31.203125 23.390625 
L 4.890625 23.390625 
z
" id="DejaVuSans-45"/>
     <path d="M 10.984375 1.515625 
L 10.984375 10.5 
Q 14.703125 8.734375 18.5 7.8125 
Q 22.3125 6.890625 25.984375 6.890625 
Q 35.75 6.890625 40.890625 13.453125 
Q 46.046875 20.015625 46.78125 33.40625 
Q 43.953125 29.203125 39.59375 26.953125 
Q 35.25 24.703125 29.984375 24.703125 
Q 19.046875 24.703125 12.671875 31.3125 
Q 6.296875 37.9375 6.296875 49.421875 
Q 6.296875 60.640625 12.9375 67.421875 
Q 19.578125 74.21875 30.609375 74.21875 
Q 43.265625 74.21875 49.921875 64.515625 
Q 56.59375 54.828125 56.59375 36.375 
Q 56.59375 19.140625 48.40625 8.859375 
Q 40.234375 -1.421875 26.421875 -1.421875 
Q 22.703125 -1.421875 18.890625 -0.6875 
Q 15.09375 0.046875 10.984375 1.515625 
z
M 30.609375 32.421875 
Q 37.25 32.421875 41.125 36.953125 
Q 45.015625 41.5 45.015625 49.421875 
Q 45.015625 57.28125 41.125 61.84375 
Q 37.25 66.40625 30.609375 66.40625 
Q 23.96875 66.40625 20.09375 61.84375 
Q 16.21875 57.28125 16.21875 49.421875 
Q 16.21875 41.5 20.09375 36.953125 
Q 23.96875 32.421875 30.609375 32.421875 
z
" id="DejaVuSans-57"/>
     <path d="M 48.6875 27.296875 
Q 48.6875 37.203125 44.609375 42.84375 
Q 40.53125 48.484375 33.40625 48.484375 
Q 26.265625 48.484375 22.1875 42.84375 
Q 18.109375 37.203125 18.109375 27.296875 
Q 18.109375 17.390625 22.1875 11.75 
Q 26.265625 6.109375 33.40625 6.109375 
Q 40.53125 6.109375 44.609375 11.75 
Q 48.6875 17.390625 48.6875 27.296875 
z
M 18.109375 46.390625 
Q 20.953125 51.265625 25.265625 53.625 
Q 29.59375 56 35.59375 56 
Q 45.5625 56 51.78125 48.09375 
Q 58.015625 40.1875 58.015625 27.296875 
Q 58.015625 14.40625 51.78125 6.484375 
Q 45.5625 -1.421875 35.59375 -1.421875 
Q 29.59375 -1.421875 25.265625 0.953125 
Q 20.953125 3.328125 18.109375 8.203125 
L 18.109375 0 
L 9.078125 0 
L 9.078125 75.984375 
L 18.109375 75.984375 
z
" id="DejaVuSans-98"/>
     <path d="M 30.609375 48.390625 
Q 23.390625 48.390625 19.1875 42.75 
Q 14.984375 37.109375 14.984375 27.296875 
Q 14.984375 17.484375 19.15625 11.84375 
Q 23.34375 6.203125 30.609375 6.203125 
Q 37.796875 6.203125 41.984375 11.859375 
Q 46.1875 17.53125 46.1875 27.296875 
Q 46.1875 37.015625 41.984375 42.703125 
Q 37.796875 48.390625 30.609375 48.390625 
z
M 30.609375 56 
Q 42.328125 56 49.015625 48.375 
Q 55.71875 40.765625 55.71875 27.296875 
Q 55.71875 13.875 49.015625 6.21875 
Q 42.328125 -1.421875 30.609375 -1.421875 
Q 18.84375 -1.421875 12.171875 6.21875 
Q 5.515625 13.875 5.515625 27.296875 
Q 5.515625 40.765625 12.171875 48.375 
Q 18.84375 56 30.609375 56 
z
" id="DejaVuSans-111"/>
     <path d="M 37.109375 75.984375 
L 37.109375 68.5 
L 28.515625 68.5 
Q 23.6875 68.5 21.796875 66.546875 
Q 19.921875 64.59375 19.921875 59.515625 
L 19.921875 54.6875 
L 34.71875 54.6875 
L 34.71875 47.703125 
L 19.921875 47.703125 
L 19.921875 0 
L 10.890625 0 
L 10.890625 47.703125 
L 2.296875 47.703125 
L 2.296875 54.6875 
L 10.890625 54.6875 
L 10.890625 58.5 
Q 10.890625 67.625 15.140625 71.796875 
Q 19.390625 75.984375 28.609375 75.984375 
z
" id="DejaVuSans-102"/>
     <path d="M 11.71875 12.40625 
L 22.015625 12.40625 
L 22.015625 0 
L 11.71875 0 
z
M 11.71875 51.703125 
L 22.015625 51.703125 
L 22.015625 39.3125 
L 11.71875 39.3125 
z
" id="DejaVuSans-58"/>
     <path d="M 10.796875 72.90625 
L 49.515625 72.90625 
L 49.515625 64.59375 
L 19.828125 64.59375 
L 19.828125 46.734375 
Q 21.96875 47.46875 24.109375 47.828125 
Q 26.265625 48.1875 28.421875 48.1875 
Q 40.625 48.1875 47.75 41.5 
Q 54.890625 34.8125 54.890625 23.390625 
Q 54.890625 11.625 47.5625 5.09375 
Q 40.234375 -1.421875 26.90625 -1.421875 
Q 22.3125 -1.421875 17.546875 -0.640625 
Q 12.796875 0.140625 7.71875 1.703125 
L 7.71875 11.625 
Q 12.109375 9.234375 16.796875 8.0625 
Q 21.484375 6.890625 26.703125 6.890625 
Q 35.15625 6.890625 40.078125 11.328125 
Q 45.015625 15.765625 45.015625 23.390625 
Q 45.015625 31 40.078125 35.4375 
Q 35.15625 39.890625 26.703125 39.890625 
Q 22.75 39.890625 18.8125 39.015625 
Q 14.890625 38.140625 10.796875 36.28125 
z
" id="DejaVuSans-53"/>
    </defs>
    <g style="fill:#666666;" transform="translate(310.883438 63.12)scale(0.12 -0.12)">
     <use xlink:href="#DejaVuSans-67"/>
     <use x="69.824219" xlink:href="#DejaVuSans-79"/>
     <use x="146.785156" xlink:href="#DejaVuSans-86"/>
     <use x="215.193359" xlink:href="#DejaVuSans-73"/>
     <use x="244.685547" xlink:href="#DejaVuSans-68"/>
     <use x="321.6875" xlink:href="#DejaVuSans-45"/>
     <use x="357.771484" xlink:href="#DejaVuSans-49"/>
     <use x="421.394531" xlink:href="#DejaVuSans-57"/>
     <use x="485.017578" xlink:href="#DejaVuSans-32"/>
     <use x="516.804688" xlink:href="#DejaVuSans-68"/>
     <use x="593.806641" xlink:href="#DejaVuSans-101"/>
     <use x="655.330078" xlink:href="#DejaVuSans-97"/>
     <use x="716.609375" xlink:href="#DejaVuSans-116"/>
     <use x="755.818359" xlink:href="#DejaVuSans-104"/>
     <use x="819.197266" xlink:href="#DejaVuSans-115"/>
     <use x="871.296875" xlink:href="#DejaVuSans-32"/>
     <use x="903.083984" xlink:href="#DejaVuSans-98"/>
     <use x="966.560547" xlink:href="#DejaVuSans-121"/>
     <use x="1025.740234" xlink:href="#DejaVuSans-32"/>
     <use x="1057.527344" xlink:href="#DejaVuSans-83"/>
     <use x="1121.003906" xlink:href="#DejaVuSans-116"/>
     <use x="1160.212891" xlink:href="#DejaVuSans-97"/>
     <use x="1221.492188" xlink:href="#DejaVuSans-116"/>
     <use x="1260.701172" xlink:href="#DejaVuSans-101"/>
     <use x="1322.224609" xlink:href="#DejaVuSans-115"/>
     <use x="1374.324219" xlink:href="#DejaVuSans-32"/>
     <use x="1406.111328" xlink:href="#DejaVuSans-97"/>
     <use x="1467.390625" xlink:href="#DejaVuSans-115"/>
     <use x="1519.490234" xlink:href="#DejaVuSans-32"/>
     <use x="1551.277344" xlink:href="#DejaVuSans-111"/>
     <use x="1612.458984" xlink:href="#DejaVuSans-102"/>
     <use x="1647.664062" xlink:href="#DejaVuSans-32"/>
     <use x="1679.451172" xlink:href="#DejaVuSans-50"/>
     <use x="1743.074219" xlink:href="#DejaVuSans-48"/>
     <use x="1806.697266" xlink:href="#DejaVuSans-50"/>
     <use x="1870.320312" xlink:href="#DejaVuSans-48"/>
     <use x="1933.943359" xlink:href="#DejaVuSans-45"/>
     <use x="1970.027344" xlink:href="#DejaVuSans-48"/>
     <use x="2033.650391" xlink:href="#DejaVuSans-52"/>
     <use x="2097.273438" xlink:href="#DejaVuSans-45"/>
     <use x="2133.357422" xlink:href="#DejaVuSans-50"/>
     <use x="2196.980469" xlink:href="#DejaVuSans-57"/>
     <use x="2260.603516" xlink:href="#DejaVuSans-32"/>
     <use x="2292.390625" xlink:href="#DejaVuSans-48"/>
     <use x="2356.013672" xlink:href="#DejaVuSans-51"/>
     <use x="2419.636719" xlink:href="#DejaVuSans-58"/>
     <use x="2453.328125" xlink:href="#DejaVuSans-48"/>
     <use x="2516.951172" xlink:href="#DejaVuSans-53"/>
     <use x="2580.574219" xlink:href="#DejaVuSans-32"/>
     <use x="2612.361328" xlink:href="#DejaVuSans-69"/>
     <use x="2675.544922" xlink:href="#DejaVuSans-68"/>
     <use x="2752.546875" xlink:href="#DejaVuSans-84"/>
    </g>
   </g>
  </g>
 </g>
 <defs>
  <clipPath id="p58d08f33de">
   <rect height="443.52" width="725.4" x="117" y="69.12"/>
  </clipPath>
 </defs>
</svg>
