<?xml version="1.0" encoding="utf-8" standalone="no"?>
<!DOCTYPE svg PUBLIC "-//W3C//DTD SVG 1.1//EN"
  "http://www.w3.org/Graphics/SVG/1.1/DTD/svg11.dtd">
<!-- Created with matplotlib (https://matplotlib.org/) -->
<svg height="576pt" version="1.1" viewBox="0 0 936 576" width="936pt" xmlns="http://www.w3.org/2000/svg" xmlns:xlink="http://www.w3.org/1999/xlink">
 <defs>
  <style type="text/css">
*{stroke-linecap:butt;stroke-linejoin:round;}
  </style>
 </defs>
 <g id="figure_1">
  <g id="patch_1">
   <path d="M 0 576 
L 936 576 
L 936 0 
L 0 0 
z
" style="fill:#ffffff;"/>
  </g>
  <g id="axes_1">
   <g id="patch_2">
    <path d="M 117 512.64 
L 842.4 512.64 
L 842.4 69.12 
L 117 69.12 
z
" style="fill:#ffffff;"/>
   </g>
   <g id="line2d_1">
    <path clip-path="url(#p50e36e23ae)" d="M 117 512.64 
L 123.029299 484.186458 
L 129.058597 454.932979 
L 135.087896 424.857072 
L 141.117195 393.935616 
L 147.146494 362.14484 
L 153.175792 329.460304 
L 159.205091 295.85688 
L 165.23439 261.308736 
L 171.263688 225.78931 
L 177.292987 189.271298 
L 183.322286 151.726625 
L 189.351584 113.126427 
L 195.380883 73.44103 
L 201.410182 32.639925 
L 206.253538 -1 
L 206.253538 -1 
" style="fill:none;stroke:#b2b2b2;stroke-dasharray:1.5,2.475;stroke-dashoffset:0;stroke-width:1.5;"/>
   </g>
   <g id="line2d_2">
    <path clip-path="url(#p50e36e23ae)" d="M 117 512.64 
L 126.043948 491.373973 
L 135.087896 469.661102 
L 144.131844 447.491997 
L 153.175792 424.857072 
L 162.21974 401.746539 
L 171.263688 378.150405 
L 180.307636 354.058466 
L 189.351584 329.460304 
L 198.395532 304.345282 
L 207.439481 278.702541 
L 216.483429 252.520991 
L 225.527377 225.78931 
L 234.571325 198.495941 
L 243.615273 170.629079 
L 252.659221 142.176676 
L 261.703169 113.126427 
L 270.747117 83.465771 
L 279.791065 53.181881 
L 288.835013 22.261663 
L 295.515268 -1 
L 295.515268 -1 
" style="fill:none;stroke:#b2b2b2;stroke-dasharray:1.5,2.475;stroke-dashoffset:0;stroke-width:1.5;"/>
   </g>
   <g id="line2d_3">
    <path clip-path="url(#p50e36e23ae)" d="M 117 512.64 
L 129.058597 493.758762 
L 141.117195 474.525278 
L 153.175792 454.932979 
L 165.23439 434.975169 
L 177.292987 414.64503 
L 189.351584 393.935616 
L 201.410182 372.839852 
L 213.468779 351.350528 
L 225.527377 329.460304 
L 237.585974 307.1617 
L 249.644571 284.447097 
L 261.703169 261.308736 
L 273.761766 237.738709 
L 285.820364 213.728964 
L 297.878961 189.271298 
L 309.937558 164.357355 
L 321.996156 138.978621 
L 334.054753 113.126427 
L 346.113351 86.79194 
L 358.171948 59.966161 
L 370.230545 32.639925 
L 382.289143 4.803896 
L 384.774552 -1 
L 384.774552 -1 
" style="fill:none;stroke:#b2b2b2;stroke-dasharray:1.5,2.475;stroke-dashoffset:0;stroke-width:1.5;"/>
   </g>
   <g id="line2d_4">
    <path clip-path="url(#p50e36e23ae)" d="M 117 512.64 
L 141.117195 496.477496 
L 165.23439 480.056883 
L 189.351584 463.374042 
L 213.468779 446.424783 
L 237.585974 429.204852 
L 261.703169 411.709927 
L 285.820364 393.935616 
L 309.937558 375.877458 
L 334.054753 357.530919 
L 358.171948 338.891395 
L 382.289143 319.954206 
L 406.406338 300.714599 
L 430.523532 281.167744 
L 454.640727 261.308736 
L 478.757922 241.132588 
L 502.875117 220.634236 
L 526.992312 199.808535 
L 551.109506 178.650257 
L 572.212052 159.859774 
L 593.314597 140.806986 
L 614.417143 121.488231 
L 635.519688 101.899795 
L 656.622234 82.037916 
L 677.724779 61.898775 
L 698.827325 41.478502 
L 719.92987 20.773173 
L 741.809066 -1 
L 741.809066 -1 
" style="fill:none;stroke:#b2b2b2;stroke-dasharray:1.5,2.475;stroke-dashoffset:0;stroke-width:1.5;"/>
   </g>
   <g id="matplotlib.axis_1">
    <g id="xtick_1">
     <g id="line2d_5">
      <path clip-path="url(#p50e36e23ae)" d="M 117 512.64 
L 117 69.12 
" style="fill:none;stroke:#e6e6e6;stroke-linecap:square;stroke-width:0.8;"/>
     </g>
     <g id="line2d_6">
      <defs>
       <path d="M 0 0 
L 0 3.5 
" id="mc825f9bf1b" style="stroke:#666666;stroke-width:0.8;"/>
      </defs>
      <g>
       <use style="fill:#666666;stroke:#666666;stroke-width:0.8;" x="117" xlink:href="#mc825f9bf1b" y="512.64"/>
      </g>
     </g>
     <g id="text_1">
      <!-- 0 -->
      <defs>
       <path d="M 31.78125 66.40625 
Q 24.171875 66.40625 20.328125 58.90625 
Q 16.5 51.421875 16.5 36.375 
Q 16.5 21.390625 20.328125 13.890625 
Q 24.171875 6.390625 31.78125 6.390625 
Q 39.453125 6.390625 43.28125 13.890625 
Q 47.125 21.390625 47.125 36.375 
Q 47.125 51.421875 43.28125 58.90625 
Q 39.453125 66.40625 31.78125 66.40625 
z
M 31.78125 74.21875 
Q 44.046875 74.21875 50.515625 64.515625 
Q 56.984375 54.828125 56.984375 36.375 
Q 56.984375 17.96875 50.515625 8.265625 
Q 44.046875 -1.421875 31.78125 -1.421875 
Q 19.53125 -1.421875 13.0625 8.265625 
Q 6.59375 17.96875 6.59375 36.375 
Q 6.59375 54.828125 13.0625 64.515625 
Q 19.53125 74.21875 31.78125 74.21875 
z
" id="DejaVuSans-48"/>
      </defs>
      <g style="fill:#666666;" transform="translate(113.81875 527.238438)scale(0.1 -0.1)">
       <use xlink:href="#DejaVuSans-48"/>
      </g>
     </g>
    </g>
    <g id="xtick_2">
     <g id="line2d_7">
      <path clip-path="url(#p50e36e23ae)" d="M 328.025455 512.64 
L 328.025455 69.12 
" style="fill:none;stroke:#e6e6e6;stroke-linecap:square;stroke-width:0.8;"/>
     </g>
     <g id="line2d_8">
      <g>
       <use style="fill:#666666;stroke:#666666;stroke-width:0.8;" x="328.025455" xlink:href="#mc825f9bf1b" y="512.64"/>
      </g>
     </g>
     <g id="text_2">
      <!-- 7 -->
      <defs>
       <path d="M 8.203125 72.90625 
L 55.078125 72.90625 
L 55.078125 68.703125 
L 28.609375 0 
L 18.3125 0 
L 43.21875 64.59375 
L 8.203125 64.59375 
z
" id="DejaVuSans-55"/>
      </defs>
      <g style="fill:#666666;" transform="translate(324.844205 527.238438)scale(0.1 -0.1)">
       <use xlink:href="#DejaVuSans-55"/>
      </g>
     </g>
    </g>
    <g id="xtick_3">
     <g id="line2d_9">
      <path clip-path="url(#p50e36e23ae)" d="M 539.050909 512.64 
L 539.050909 69.12 
" style="fill:none;stroke:#e6e6e6;stroke-linecap:square;stroke-width:0.8;"/>
     </g>
     <g id="line2d_10">
      <g>
       <use style="fill:#666666;stroke:#666666;stroke-width:0.8;" x="539.050909" xlink:href="#mc825f9bf1b" y="512.64"/>
      </g>
     </g>
     <g id="text_3">
      <!-- 14 -->
      <defs>
       <path d="M 12.40625 8.296875 
L 28.515625 8.296875 
L 28.515625 63.921875 
L 10.984375 60.40625 
L 10.984375 69.390625 
L 28.421875 72.90625 
L 38.28125 72.90625 
L 38.28125 8.296875 
L 54.390625 8.296875 
L 54.390625 0 
L 12.40625 0 
z
" id="DejaVuSans-49"/>
       <path d="M 37.796875 64.3125 
L 12.890625 25.390625 
L 37.796875 25.390625 
z
M 35.203125 72.90625 
L 47.609375 72.90625 
L 47.609375 25.390625 
L 58.015625 25.390625 
L 58.015625 17.1875 
L 47.609375 17.1875 
L 47.609375 0 
L 37.796875 0 
L 37.796875 17.1875 
L 4.890625 17.1875 
L 4.890625 26.703125 
z
" id="DejaVuSans-52"/>
      </defs>
      <g style="fill:#666666;" transform="translate(532.688409 527.238438)scale(0.1 -0.1)">
       <use xlink:href="#DejaVuSans-49"/>
       <use x="63.623047" xlink:href="#DejaVuSans-52"/>
      </g>
     </g>
    </g>
    <g id="xtick_4">
     <g id="line2d_11">
      <path clip-path="url(#p50e36e23ae)" d="M 750.076364 512.64 
L 750.076364 69.12 
" style="fill:none;stroke:#e6e6e6;stroke-linecap:square;stroke-width:0.8;"/>
     </g>
     <g id="line2d_12">
      <g>
       <use style="fill:#666666;stroke:#666666;stroke-width:0.8;" x="750.076364" xlink:href="#mc825f9bf1b" y="512.64"/>
      </g>
     </g>
     <g id="text_4">
      <!-- 21 -->
      <defs>
       <path d="M 19.1875 8.296875 
L 53.609375 8.296875 
L 53.609375 0 
L 7.328125 0 
L 7.328125 8.296875 
Q 12.9375 14.109375 22.625 23.890625 
Q 32.328125 33.6875 34.8125 36.53125 
Q 39.546875 41.84375 41.421875 45.53125 
Q 43.3125 49.21875 43.3125 52.78125 
Q 43.3125 58.59375 39.234375 62.25 
Q 35.15625 65.921875 28.609375 65.921875 
Q 23.96875 65.921875 18.8125 64.3125 
Q 13.671875 62.703125 7.8125 59.421875 
L 7.8125 69.390625 
Q 13.765625 71.78125 18.9375 73 
Q 24.125 74.21875 28.421875 74.21875 
Q 39.75 74.21875 46.484375 68.546875 
Q 53.21875 62.890625 53.21875 53.421875 
Q 53.21875 48.921875 51.53125 44.890625 
Q 49.859375 40.875 45.40625 35.40625 
Q 44.1875 33.984375 37.640625 27.21875 
Q 31.109375 20.453125 19.1875 8.296875 
z
" id="DejaVuSans-50"/>
      </defs>
      <g style="fill:#666666;" transform="translate(743.713864 527.238438)scale(0.1 -0.1)">
       <use xlink:href="#DejaVuSans-50"/>
       <use x="63.623047" xlink:href="#DejaVuSans-49"/>
      </g>
     </g>
    </g>
    <g id="text_5">
     <!-- Days since 100 deaths -->
     <defs>
      <path d="M 19.671875 64.796875 
L 19.671875 8.109375 
L 31.59375 8.109375 
Q 46.6875 8.109375 53.6875 14.9375 
Q 60.6875 21.78125 60.6875 36.53125 
Q 60.6875 51.171875 53.6875 57.984375 
Q 46.6875 64.796875 31.59375 64.796875 
z
M 9.8125 72.90625 
L 30.078125 72.90625 
Q 51.265625 72.90625 61.171875 64.09375 
Q 71.09375 55.28125 71.09375 36.53125 
Q 71.09375 17.671875 61.125 8.828125 
Q 51.171875 0 30.078125 0 
L 9.8125 0 
z
" id="DejaVuSans-68"/>
      <path d="M 34.28125 27.484375 
Q 23.390625 27.484375 19.1875 25 
Q 14.984375 22.515625 14.984375 16.5 
Q 14.984375 11.71875 18.140625 8.90625 
Q 21.296875 6.109375 26.703125 6.109375 
Q 34.1875 6.109375 38.703125 11.40625 
Q 43.21875 16.703125 43.21875 25.484375 
L 43.21875 27.484375 
z
M 52.203125 31.203125 
L 52.203125 0 
L 43.21875 0 
L 43.21875 8.296875 
Q 40.140625 3.328125 35.546875 0.953125 
Q 30.953125 -1.421875 24.3125 -1.421875 
Q 15.921875 -1.421875 10.953125 3.296875 
Q 6 8.015625 6 15.921875 
Q 6 25.140625 12.171875 29.828125 
Q 18.359375 34.515625 30.609375 34.515625 
L 43.21875 34.515625 
L 43.21875 35.40625 
Q 43.21875 41.609375 39.140625 45 
Q 35.0625 48.390625 27.6875 48.390625 
Q 23 48.390625 18.546875 47.265625 
Q 14.109375 46.140625 10.015625 43.890625 
L 10.015625 52.203125 
Q 14.9375 54.109375 19.578125 55.046875 
Q 24.21875 56 28.609375 56 
Q 40.484375 56 46.34375 49.84375 
Q 52.203125 43.703125 52.203125 31.203125 
z
" id="DejaVuSans-97"/>
      <path d="M 32.171875 -5.078125 
Q 28.375 -14.84375 24.75 -17.8125 
Q 21.140625 -20.796875 15.09375 -20.796875 
L 7.90625 -20.796875 
L 7.90625 -13.28125 
L 13.1875 -13.28125 
Q 16.890625 -13.28125 18.9375 -11.515625 
Q 21 -9.765625 23.484375 -3.21875 
L 25.09375 0.875 
L 2.984375 54.6875 
L 12.5 54.6875 
L 29.59375 11.921875 
L 46.6875 54.6875 
L 56.203125 54.6875 
z
" id="DejaVuSans-121"/>
      <path d="M 44.28125 53.078125 
L 44.28125 44.578125 
Q 40.484375 46.53125 36.375 47.5 
Q 32.28125 48.484375 27.875 48.484375 
Q 21.1875 48.484375 17.84375 46.4375 
Q 14.5 44.390625 14.5 40.28125 
Q 14.5 37.15625 16.890625 35.375 
Q 19.28125 33.59375 26.515625 31.984375 
L 29.59375 31.296875 
Q 39.15625 29.25 43.1875 25.515625 
Q 47.21875 21.78125 47.21875 15.09375 
Q 47.21875 7.46875 41.1875 3.015625 
Q 35.15625 -1.421875 24.609375 -1.421875 
Q 20.21875 -1.421875 15.453125 -0.5625 
Q 10.6875 0.296875 5.421875 2 
L 5.421875 11.28125 
Q 10.40625 8.6875 15.234375 7.390625 
Q 20.0625 6.109375 24.8125 6.109375 
Q 31.15625 6.109375 34.5625 8.28125 
Q 37.984375 10.453125 37.984375 14.40625 
Q 37.984375 18.0625 35.515625 20.015625 
Q 33.0625 21.96875 24.703125 23.78125 
L 21.578125 24.515625 
Q 13.234375 26.265625 9.515625 29.90625 
Q 5.8125 33.546875 5.8125 39.890625 
Q 5.8125 47.609375 11.28125 51.796875 
Q 16.75 56 26.8125 56 
Q 31.78125 56 36.171875 55.265625 
Q 40.578125 54.546875 44.28125 53.078125 
z
" id="DejaVuSans-115"/>
      <path id="DejaVuSans-32"/>
      <path d="M 9.421875 54.6875 
L 18.40625 54.6875 
L 18.40625 0 
L 9.421875 0 
z
M 9.421875 75.984375 
L 18.40625 75.984375 
L 18.40625 64.59375 
L 9.421875 64.59375 
z
" id="DejaVuSans-105"/>
      <path d="M 54.890625 33.015625 
L 54.890625 0 
L 45.90625 0 
L 45.90625 32.71875 
Q 45.90625 40.484375 42.875 44.328125 
Q 39.84375 48.1875 33.796875 48.1875 
Q 26.515625 48.1875 22.3125 43.546875 
Q 18.109375 38.921875 18.109375 30.90625 
L 18.109375 0 
L 9.078125 0 
L 9.078125 54.6875 
L 18.109375 54.6875 
L 18.109375 46.1875 
Q 21.34375 51.125 25.703125 53.5625 
Q 30.078125 56 35.796875 56 
Q 45.21875 56 50.046875 50.171875 
Q 54.890625 44.34375 54.890625 33.015625 
z
" id="DejaVuSans-110"/>
      <path d="M 48.78125 52.59375 
L 48.78125 44.1875 
Q 44.96875 46.296875 41.140625 47.34375 
Q 37.3125 48.390625 33.40625 48.390625 
Q 24.65625 48.390625 19.8125 42.84375 
Q 14.984375 37.3125 14.984375 27.296875 
Q 14.984375 17.28125 19.8125 11.734375 
Q 24.65625 6.203125 33.40625 6.203125 
Q 37.3125 6.203125 41.140625 7.25 
Q 44.96875 8.296875 48.78125 10.40625 
L 48.78125 2.09375 
Q 45.015625 0.34375 40.984375 -0.53125 
Q 36.96875 -1.421875 32.421875 -1.421875 
Q 20.0625 -1.421875 12.78125 6.34375 
Q 5.515625 14.109375 5.515625 27.296875 
Q 5.515625 40.671875 12.859375 48.328125 
Q 20.21875 56 33.015625 56 
Q 37.15625 56 41.109375 55.140625 
Q 45.0625 54.296875 48.78125 52.59375 
z
" id="DejaVuSans-99"/>
      <path d="M 56.203125 29.59375 
L 56.203125 25.203125 
L 14.890625 25.203125 
Q 15.484375 15.921875 20.484375 11.0625 
Q 25.484375 6.203125 34.421875 6.203125 
Q 39.59375 6.203125 44.453125 7.46875 
Q 49.3125 8.734375 54.109375 11.28125 
L 54.109375 2.78125 
Q 49.265625 0.734375 44.1875 -0.34375 
Q 39.109375 -1.421875 33.890625 -1.421875 
Q 20.796875 -1.421875 13.15625 6.1875 
Q 5.515625 13.8125 5.515625 26.8125 
Q 5.515625 40.234375 12.765625 48.109375 
Q 20.015625 56 32.328125 56 
Q 43.359375 56 49.78125 48.890625 
Q 56.203125 41.796875 56.203125 29.59375 
z
M 47.21875 32.234375 
Q 47.125 39.59375 43.09375 43.984375 
Q 39.0625 48.390625 32.421875 48.390625 
Q 24.90625 48.390625 20.390625 44.140625 
Q 15.875 39.890625 15.1875 32.171875 
z
" id="DejaVuSans-101"/>
      <path d="M 45.40625 46.390625 
L 45.40625 75.984375 
L 54.390625 75.984375 
L 54.390625 0 
L 45.40625 0 
L 45.40625 8.203125 
Q 42.578125 3.328125 38.25 0.953125 
Q 33.9375 -1.421875 27.875 -1.421875 
Q 17.96875 -1.421875 11.734375 6.484375 
Q 5.515625 14.40625 5.515625 27.296875 
Q 5.515625 40.1875 11.734375 48.09375 
Q 17.96875 56 27.875 56 
Q 33.9375 56 38.25 53.625 
Q 42.578125 51.265625 45.40625 46.390625 
z
M 14.796875 27.296875 
Q 14.796875 17.390625 18.875 11.75 
Q 22.953125 6.109375 30.078125 6.109375 
Q 37.203125 6.109375 41.296875 11.75 
Q 45.40625 17.390625 45.40625 27.296875 
Q 45.40625 37.203125 41.296875 42.84375 
Q 37.203125 48.484375 30.078125 48.484375 
Q 22.953125 48.484375 18.875 42.84375 
Q 14.796875 37.203125 14.796875 27.296875 
z
" id="DejaVuSans-100"/>
      <path d="M 18.3125 70.21875 
L 18.3125 54.6875 
L 36.8125 54.6875 
L 36.8125 47.703125 
L 18.3125 47.703125 
L 18.3125 18.015625 
Q 18.3125 11.328125 20.140625 9.421875 
Q 21.96875 7.515625 27.59375 7.515625 
L 36.8125 7.515625 
L 36.8125 0 
L 27.59375 0 
Q 17.1875 0 13.234375 3.875 
Q 9.28125 7.765625 9.28125 18.015625 
L 9.28125 47.703125 
L 2.6875 47.703125 
L 2.6875 54.6875 
L 9.28125 54.6875 
L 9.28125 70.21875 
z
" id="DejaVuSans-116"/>
      <path d="M 54.890625 33.015625 
L 54.890625 0 
L 45.90625 0 
L 45.90625 32.71875 
Q 45.90625 40.484375 42.875 44.328125 
Q 39.84375 48.1875 33.796875 48.1875 
Q 26.515625 48.1875 22.3125 43.546875 
Q 18.109375 38.921875 18.109375 30.90625 
L 18.109375 0 
L 9.078125 0 
L 9.078125 75.984375 
L 18.109375 75.984375 
L 18.109375 46.1875 
Q 21.34375 51.125 25.703125 53.5625 
Q 30.078125 56 35.796875 56 
Q 45.21875 56 50.046875 50.171875 
Q 54.890625 44.34375 54.890625 33.015625 
z
" id="DejaVuSans-104"/>
     </defs>
     <g style="fill:#666666;" transform="translate(422.874219 540.916563)scale(0.1 -0.1)">
      <use xlink:href="#DejaVuSans-68"/>
      <use x="77.001953" xlink:href="#DejaVuSans-97"/>
      <use x="138.28125" xlink:href="#DejaVuSans-121"/>
      <use x="197.460938" xlink:href="#DejaVuSans-115"/>
      <use x="249.560547" xlink:href="#DejaVuSans-32"/>
      <use x="281.347656" xlink:href="#DejaVuSans-115"/>
      <use x="333.447266" xlink:href="#DejaVuSans-105"/>
      <use x="361.230469" xlink:href="#DejaVuSans-110"/>
      <use x="424.609375" xlink:href="#DejaVuSans-99"/>
      <use x="479.589844" xlink:href="#DejaVuSans-101"/>
      <use x="541.113281" xlink:href="#DejaVuSans-32"/>
      <use x="572.900391" xlink:href="#DejaVuSans-49"/>
      <use x="636.523438" xlink:href="#DejaVuSans-48"/>
      <use x="700.146484" xlink:href="#DejaVuSans-48"/>
      <use x="763.769531" xlink:href="#DejaVuSans-32"/>
      <use x="795.556641" xlink:href="#DejaVuSans-100"/>
      <use x="859.033203" xlink:href="#DejaVuSans-101"/>
      <use x="920.556641" xlink:href="#DejaVuSans-97"/>
      <use x="981.835938" xlink:href="#DejaVuSans-116"/>
      <use x="1021.044922" xlink:href="#DejaVuSans-104"/>
      <use x="1084.423828" xlink:href="#DejaVuSans-115"/>
     </g>
    </g>
   </g>
   <g id="matplotlib.axis_2">
    <g id="ytick_1">
     <g id="line2d_13">
      <path clip-path="url(#p50e36e23ae)" d="M 117 512.64 
L 842.4 512.64 
" style="fill:none;stroke:#e6e6e6;stroke-linecap:square;stroke-width:0.8;"/>
     </g>
     <g id="line2d_14">
      <defs>
       <path d="M 0 0 
L -3.5 0 
" id="mbf8168274a" style="stroke:#666666;stroke-width:0.8;"/>
      </defs>
      <g>
       <use style="fill:#666666;stroke:#666666;stroke-width:0.8;" x="117" xlink:href="#mbf8168274a" y="512.64"/>
      </g>
     </g>
     <g id="text_6">
      <!-- 100 -->
      <g style="fill:#666666;" transform="translate(90.9125 516.439219)scale(0.1 -0.1)">
       <use xlink:href="#DejaVuSans-49"/>
       <use x="63.623047" xlink:href="#DejaVuSans-48"/>
       <use x="127.246094" xlink:href="#DejaVuSans-48"/>
      </g>
     </g>
    </g>
   </g>
   <g id="line2d_15">
    <path clip-path="url(#p50e36e23ae)" d="M 117 512.64 
L 140.053201 487.596277 
L 230.492681 436.072077 
L 260.639175 388.927467 
L 290.785668 365.653693 
L 320.932162 351.86504 
L 351.078655 347.409608 
L 381.225149 340.85035 
L 411.371642 331.276004 
L 441.518136 316.966894 
L 471.664629 297.632963 
L 501.811123 291.144962 
L 531.957617 273.324172 
" style="fill:none;stroke:#1f77b4;stroke-linecap:square;stroke-width:1.5;"/>
    <defs>
     <path d="M 0 1.5 
C 0.397805 1.5 0.77937 1.341951 1.06066 1.06066 
C 1.341951 0.77937 1.5 0.397805 1.5 0 
C 1.5 -0.397805 1.341951 -0.77937 1.06066 -1.06066 
C 0.77937 -1.341951 0.397805 -1.5 0 -1.5 
C -0.397805 -1.5 -0.77937 -1.341951 -1.06066 -1.06066 
C -1.341951 -0.77937 -1.5 -0.397805 -1.5 0 
C -1.5 0.397805 -1.341951 0.77937 -1.06066 1.06066 
C -0.77937 1.341951 -0.397805 1.5 0 1.5 
z
" id="mc0d08ec2e9" style="stroke:#1f77b4;"/>
    </defs>
    <g clip-path="url(#p50e36e23ae)">
     <use style="fill:#ffffff;stroke:#1f77b4;" x="117" xlink:href="#mc0d08ec2e9" y="512.64"/>
     <use style="fill:#ffffff;stroke:#1f77b4;" x="140.053201" xlink:href="#mc0d08ec2e9" y="487.596277"/>
     <use style="fill:#ffffff;stroke:#1f77b4;" x="230.492681" xlink:href="#mc0d08ec2e9" y="436.072077"/>
     <use style="fill:#ffffff;stroke:#1f77b4;" x="260.639175" xlink:href="#mc0d08ec2e9" y="388.927467"/>
     <use style="fill:#ffffff;stroke:#1f77b4;" x="290.785668" xlink:href="#mc0d08ec2e9" y="365.653693"/>
     <use style="fill:#ffffff;stroke:#1f77b4;" x="320.932162" xlink:href="#mc0d08ec2e9" y="351.86504"/>
     <use style="fill:#ffffff;stroke:#1f77b4;" x="351.078655" xlink:href="#mc0d08ec2e9" y="347.409608"/>
     <use style="fill:#ffffff;stroke:#1f77b4;" x="381.225149" xlink:href="#mc0d08ec2e9" y="340.85035"/>
     <use style="fill:#ffffff;stroke:#1f77b4;" x="411.371642" xlink:href="#mc0d08ec2e9" y="331.276004"/>
     <use style="fill:#ffffff;stroke:#1f77b4;" x="441.518136" xlink:href="#mc0d08ec2e9" y="316.966894"/>
     <use style="fill:#ffffff;stroke:#1f77b4;" x="471.664629" xlink:href="#mc0d08ec2e9" y="297.632963"/>
     <use style="fill:#ffffff;stroke:#1f77b4;" x="501.811123" xlink:href="#mc0d08ec2e9" y="291.144962"/>
     <use style="fill:#ffffff;stroke:#1f77b4;" x="531.957617" xlink:href="#mc0d08ec2e9" y="273.324172"/>
    </g>
   </g>
   <g id="line2d_16">
    <path clip-path="url(#p50e36e23ae)" d="M 117 512.64 
L 138.924723 496.94129 
L 169.071216 483.950749 
L 199.21771 471.578157 
L 229.364203 456.479149 
L 259.510697 439.11305 
L 289.65719 427.14751 
L 319.803684 400.652644 
L 349.950177 390.20652 
L 380.096671 381.371616 
L 410.243164 377.667374 
L 440.389658 352.989546 
L 470.536151 330.230952 
L 500.682645 310.059338 
L 530.829138 293.908796 
L 560.975632 287.497955 
L 591.122125 285.690459 
L 651.415112 269.879111 
L 681.561606 260.595456 
L 711.708099 247.560451 
L 741.854593 239.676129 
" style="fill:none;stroke:#ff7f0e;stroke-linecap:square;stroke-width:1.5;"/>
    <defs>
     <path d="M 0 1.5 
C 0.397805 1.5 0.77937 1.341951 1.06066 1.06066 
C 1.341951 0.77937 1.5 0.397805 1.5 0 
C 1.5 -0.397805 1.341951 -0.77937 1.06066 -1.06066 
C 0.77937 -1.341951 0.397805 -1.5 0 -1.5 
C -0.397805 -1.5 -0.77937 -1.341951 -1.06066 -1.06066 
C -1.341951 -0.77937 -1.5 -0.397805 -1.5 0 
C -1.5 0.397805 -1.341951 0.77937 -1.06066 1.06066 
C -0.77937 1.341951 -0.397805 1.5 0 1.5 
z
" id="md0012ea0f2" style="stroke:#ff7f0e;"/>
    </defs>
    <g clip-path="url(#p50e36e23ae)">
     <use style="fill:#ffffff;stroke:#ff7f0e;" x="117" xlink:href="#md0012ea0f2" y="512.64"/>
     <use style="fill:#ffffff;stroke:#ff7f0e;" x="138.924723" xlink:href="#md0012ea0f2" y="496.94129"/>
     <use style="fill:#ffffff;stroke:#ff7f0e;" x="169.071216" xlink:href="#md0012ea0f2" y="483.950749"/>
     <use style="fill:#ffffff;stroke:#ff7f0e;" x="199.21771" xlink:href="#md0012ea0f2" y="471.578157"/>
     <use style="fill:#ffffff;stroke:#ff7f0e;" x="229.364203" xlink:href="#md0012ea0f2" y="456.479149"/>
     <use style="fill:#ffffff;stroke:#ff7f0e;" x="259.510697" xlink:href="#md0012ea0f2" y="439.11305"/>
     <use style="fill:#ffffff;stroke:#ff7f0e;" x="289.65719" xlink:href="#md0012ea0f2" y="427.14751"/>
     <use style="fill:#ffffff;stroke:#ff7f0e;" x="319.803684" xlink:href="#md0012ea0f2" y="400.652644"/>
     <use style="fill:#ffffff;stroke:#ff7f0e;" x="349.950177" xlink:href="#md0012ea0f2" y="390.20652"/>
     <use style="fill:#ffffff;stroke:#ff7f0e;" x="380.096671" xlink:href="#md0012ea0f2" y="381.371616"/>
     <use style="fill:#ffffff;stroke:#ff7f0e;" x="410.243164" xlink:href="#md0012ea0f2" y="377.667374"/>
     <use style="fill:#ffffff;stroke:#ff7f0e;" x="440.389658" xlink:href="#md0012ea0f2" y="352.989546"/>
     <use style="fill:#ffffff;stroke:#ff7f0e;" x="470.536151" xlink:href="#md0012ea0f2" y="330.230952"/>
     <use style="fill:#ffffff;stroke:#ff7f0e;" x="500.682645" xlink:href="#md0012ea0f2" y="310.059338"/>
     <use style="fill:#ffffff;stroke:#ff7f0e;" x="530.829138" xlink:href="#md0012ea0f2" y="293.908796"/>
     <use style="fill:#ffffff;stroke:#ff7f0e;" x="560.975632" xlink:href="#md0012ea0f2" y="287.497955"/>
     <use style="fill:#ffffff;stroke:#ff7f0e;" x="591.122125" xlink:href="#md0012ea0f2" y="285.690459"/>
     <use style="fill:#ffffff;stroke:#ff7f0e;" x="651.415112" xlink:href="#md0012ea0f2" y="269.879111"/>
     <use style="fill:#ffffff;stroke:#ff7f0e;" x="681.561606" xlink:href="#md0012ea0f2" y="260.595456"/>
     <use style="fill:#ffffff;stroke:#ff7f0e;" x="711.708099" xlink:href="#md0012ea0f2" y="247.560451"/>
     <use style="fill:#ffffff;stroke:#ff7f0e;" x="741.854593" xlink:href="#md0012ea0f2" y="239.676129"/>
    </g>
   </g>
   <g id="line2d_17">
    <path clip-path="url(#p50e36e23ae)" d="M 117 512.64 
L 133.748052 502.715713 
L 163.894545 489.438433 
L 194.041039 463.083948 
L 224.187532 443.7394 
L 254.334026 422.791912 
L 284.480519 406.024794 
L 314.627013 388.927467 
L 344.773506 380.131535 
L 374.92 374.010373 
L 405.066494 356.389219 
L 435.212987 335.493239 
L 465.359481 328.151753 
" style="fill:none;stroke:#2ca02c;stroke-linecap:square;stroke-width:1.5;"/>
    <defs>
     <path d="M 0 1.5 
C 0.397805 1.5 0.77937 1.341951 1.06066 1.06066 
C 1.341951 0.77937 1.5 0.397805 1.5 0 
C 1.5 -0.397805 1.341951 -0.77937 1.06066 -1.06066 
C 0.77937 -1.341951 0.397805 -1.5 0 -1.5 
C -0.397805 -1.5 -0.77937 -1.341951 -1.06066 -1.06066 
C -1.341951 -0.77937 -1.5 -0.397805 -1.5 0 
C -1.5 0.397805 -1.341951 0.77937 -1.06066 1.06066 
C -0.77937 1.341951 -0.397805 1.5 0 1.5 
z
" id="m5b8e664179" style="stroke:#2ca02c;"/>
    </defs>
    <g clip-path="url(#p50e36e23ae)">
     <use style="fill:#ffffff;stroke:#2ca02c;" x="117" xlink:href="#m5b8e664179" y="512.64"/>
     <use style="fill:#ffffff;stroke:#2ca02c;" x="133.748052" xlink:href="#m5b8e664179" y="502.715713"/>
     <use style="fill:#ffffff;stroke:#2ca02c;" x="163.894545" xlink:href="#m5b8e664179" y="489.438433"/>
     <use style="fill:#ffffff;stroke:#2ca02c;" x="194.041039" xlink:href="#m5b8e664179" y="463.083948"/>
     <use style="fill:#ffffff;stroke:#2ca02c;" x="224.187532" xlink:href="#m5b8e664179" y="443.7394"/>
     <use style="fill:#ffffff;stroke:#2ca02c;" x="254.334026" xlink:href="#m5b8e664179" y="422.791912"/>
     <use style="fill:#ffffff;stroke:#2ca02c;" x="284.480519" xlink:href="#m5b8e664179" y="406.024794"/>
     <use style="fill:#ffffff;stroke:#2ca02c;" x="314.627013" xlink:href="#m5b8e664179" y="388.927467"/>
     <use style="fill:#ffffff;stroke:#2ca02c;" x="344.773506" xlink:href="#m5b8e664179" y="380.131535"/>
     <use style="fill:#ffffff;stroke:#2ca02c;" x="374.92" xlink:href="#m5b8e664179" y="374.010373"/>
     <use style="fill:#ffffff;stroke:#2ca02c;" x="405.066494" xlink:href="#m5b8e664179" y="356.389219"/>
     <use style="fill:#ffffff;stroke:#2ca02c;" x="435.212987" xlink:href="#m5b8e664179" y="335.493239"/>
     <use style="fill:#ffffff;stroke:#2ca02c;" x="465.359481" xlink:href="#m5b8e664179" y="328.151753"/>
    </g>
   </g>
   <g id="line2d_18">
    <path clip-path="url(#p50e36e23ae)" d="M 117 512.64 
L 147.146494 489.438433 
L 177.292987 475.05396 
L 207.439481 466.448959 
L 237.585974 446.868205 
L 267.732468 436.072077 
L 297.878961 424.236126 
L 328.025455 414.281776 
" style="fill:none;stroke:#d62728;stroke-linecap:square;stroke-width:1.5;"/>
    <defs>
     <path d="M 0 1.5 
C 0.397805 1.5 0.77937 1.341951 1.06066 1.06066 
C 1.341951 0.77937 1.5 0.397805 1.5 0 
C 1.5 -0.397805 1.341951 -0.77937 1.06066 -1.06066 
C 0.77937 -1.341951 0.397805 -1.5 0 -1.5 
C -0.397805 -1.5 -0.77937 -1.341951 -1.06066 -1.06066 
C -1.341951 -0.77937 -1.5 -0.397805 -1.5 0 
C -1.5 0.397805 -1.341951 0.77937 -1.06066 1.06066 
C -0.77937 1.341951 -0.397805 1.5 0 1.5 
z
" id="me7fdc054ae" style="stroke:#d62728;"/>
    </defs>
    <g clip-path="url(#p50e36e23ae)">
     <use style="fill:#ffffff;stroke:#d62728;" x="117" xlink:href="#me7fdc054ae" y="512.64"/>
     <use style="fill:#ffffff;stroke:#d62728;" x="147.146494" xlink:href="#me7fdc054ae" y="489.438433"/>
     <use style="fill:#ffffff;stroke:#d62728;" x="177.292987" xlink:href="#me7fdc054ae" y="475.05396"/>
     <use style="fill:#ffffff;stroke:#d62728;" x="207.439481" xlink:href="#me7fdc054ae" y="466.448959"/>
     <use style="fill:#ffffff;stroke:#d62728;" x="237.585974" xlink:href="#me7fdc054ae" y="446.868205"/>
     <use style="fill:#ffffff;stroke:#d62728;" x="267.732468" xlink:href="#me7fdc054ae" y="436.072077"/>
     <use style="fill:#ffffff;stroke:#d62728;" x="297.878961" xlink:href="#me7fdc054ae" y="424.236126"/>
     <use style="fill:#ffffff;stroke:#d62728;" x="328.025455" xlink:href="#me7fdc054ae" y="414.281776"/>
    </g>
   </g>
   <g id="line2d_19">
    <path clip-path="url(#p50e36e23ae)" d="M 117 512.64 
L 136.184132 498.851679 
L 166.330626 489.438433 
L 196.477119 478.576421 
L 226.623613 463.083948 
L 256.770106 448.446331 
L 286.9166 430.090115 
L 317.063093 410.122702 
L 347.209587 399.32552 
" style="fill:none;stroke:#9467bd;stroke-linecap:square;stroke-width:1.5;"/>
    <defs>
     <path d="M 0 1.5 
C 0.397805 1.5 0.77937 1.341951 1.06066 1.06066 
C 1.341951 0.77937 1.5 0.397805 1.5 0 
C 1.5 -0.397805 1.341951 -0.77937 1.06066 -1.06066 
C 0.77937 -1.341951 0.397805 -1.5 0 -1.5 
C -0.397805 -1.5 -0.77937 -1.341951 -1.06066 -1.06066 
C -1.341951 -0.77937 -1.5 -0.397805 -1.5 0 
C -1.5 0.397805 -1.341951 0.77937 -1.06066 1.06066 
C -0.77937 1.341951 -0.397805 1.5 0 1.5 
z
" id="mb85847d627" style="stroke:#9467bd;"/>
    </defs>
    <g clip-path="url(#p50e36e23ae)">
     <use style="fill:#ffffff;stroke:#9467bd;" x="117" xlink:href="#mb85847d627" y="512.64"/>
     <use style="fill:#ffffff;stroke:#9467bd;" x="136.184132" xlink:href="#mb85847d627" y="498.851679"/>
     <use style="fill:#ffffff;stroke:#9467bd;" x="166.330626" xlink:href="#mb85847d627" y="489.438433"/>
     <use style="fill:#ffffff;stroke:#9467bd;" x="196.477119" xlink:href="#mb85847d627" y="478.576421"/>
     <use style="fill:#ffffff;stroke:#9467bd;" x="226.623613" xlink:href="#mb85847d627" y="463.083948"/>
     <use style="fill:#ffffff;stroke:#9467bd;" x="256.770106" xlink:href="#mb85847d627" y="448.446331"/>
     <use style="fill:#ffffff;stroke:#9467bd;" x="286.9166" xlink:href="#mb85847d627" y="430.090115"/>
     <use style="fill:#ffffff;stroke:#9467bd;" x="317.063093" xlink:href="#mb85847d627" y="410.122702"/>
     <use style="fill:#ffffff;stroke:#9467bd;" x="347.209587" xlink:href="#mb85847d627" y="399.32552"/>
    </g>
   </g>
   <g id="line2d_20">
    <path clip-path="url(#p50e36e23ae)" d="M 117 512.64 
L 147.146494 498.851679 
L 177.292987 493.162577 
L 207.439481 491.293795 
L 267.732468 480.355593 
L 297.878961 478.576421 
L 328.025455 475.05396 
L 358.171948 468.147643 
L 388.318442 466.448959 
L 418.464935 459.761068 
L 448.611429 458.115059 
" style="fill:none;stroke:#8c564b;stroke-linecap:square;stroke-width:1.5;"/>
    <defs>
     <path d="M 0 1.5 
C 0.397805 1.5 0.77937 1.341951 1.06066 1.06066 
C 1.341951 0.77937 1.5 0.397805 1.5 0 
C 1.5 -0.397805 1.341951 -0.77937 1.06066 -1.06066 
C 0.77937 -1.341951 0.397805 -1.5 0 -1.5 
C -0.397805 -1.5 -0.77937 -1.341951 -1.06066 -1.06066 
C -1.341951 -0.77937 -1.5 -0.397805 -1.5 0 
C -1.5 0.397805 -1.341951 0.77937 -1.06066 1.06066 
C -0.77937 1.341951 -0.397805 1.5 0 1.5 
z
" id="mf9d69bd7a6" style="stroke:#8c564b;"/>
    </defs>
    <g clip-path="url(#p50e36e23ae)">
     <use style="fill:#ffffff;stroke:#8c564b;" x="117" xlink:href="#mf9d69bd7a6" y="512.64"/>
     <use style="fill:#ffffff;stroke:#8c564b;" x="147.146494" xlink:href="#mf9d69bd7a6" y="498.851679"/>
     <use style="fill:#ffffff;stroke:#8c564b;" x="177.292987" xlink:href="#mf9d69bd7a6" y="493.162577"/>
     <use style="fill:#ffffff;stroke:#8c564b;" x="207.439481" xlink:href="#mf9d69bd7a6" y="491.293795"/>
     <use style="fill:#ffffff;stroke:#8c564b;" x="267.732468" xlink:href="#mf9d69bd7a6" y="480.355593"/>
     <use style="fill:#ffffff;stroke:#8c564b;" x="297.878961" xlink:href="#mf9d69bd7a6" y="478.576421"/>
     <use style="fill:#ffffff;stroke:#8c564b;" x="328.025455" xlink:href="#mf9d69bd7a6" y="475.05396"/>
     <use style="fill:#ffffff;stroke:#8c564b;" x="358.171948" xlink:href="#mf9d69bd7a6" y="468.147643"/>
     <use style="fill:#ffffff;stroke:#8c564b;" x="388.318442" xlink:href="#mf9d69bd7a6" y="466.448959"/>
     <use style="fill:#ffffff;stroke:#8c564b;" x="418.464935" xlink:href="#mf9d69bd7a6" y="459.761068"/>
     <use style="fill:#ffffff;stroke:#8c564b;" x="448.611429" xlink:href="#mf9d69bd7a6" y="458.115059"/>
    </g>
   </g>
   <g id="line2d_21">
    <path clip-path="url(#p50e36e23ae)" d="M 117 512.64 
L 129.058597 504.669854 
L 159.205091 483.950749 
L 189.351584 471.578157 
L 219.498078 459.761068 
L 249.644571 446.868205 
L 279.791065 436.072077 
L 309.937558 430.090115 
L 340.084052 421.35523 
L 370.230545 398.004627 
L 400.377039 380.131535 
L 430.523532 372.801638 
L 460.670026 362.14484 
L 490.816519 356.389219 
L 520.963013 352.989546 
L 551.109506 347.409608 
L 581.256 334.433317 
L 611.402494 324.03619 
L 641.548987 318.969818 
L 671.695481 311.036543 
" style="fill:none;stroke:#e377c2;stroke-linecap:square;stroke-width:1.5;"/>
    <defs>
     <path d="M 0 1.5 
C 0.397805 1.5 0.77937 1.341951 1.06066 1.06066 
C 1.341951 0.77937 1.5 0.397805 1.5 0 
C 1.5 -0.397805 1.341951 -0.77937 1.06066 -1.06066 
C 0.77937 -1.341951 0.397805 -1.5 0 -1.5 
C -0.397805 -1.5 -0.77937 -1.341951 -1.06066 -1.06066 
C -1.341951 -0.77937 -1.5 -0.397805 -1.5 0 
C -1.5 0.397805 -1.341951 0.77937 -1.06066 1.06066 
C -0.77937 1.341951 -0.397805 1.5 0 1.5 
z
" id="m94c59119c8" style="stroke:#e377c2;"/>
    </defs>
    <g clip-path="url(#p50e36e23ae)">
     <use style="fill:#ffffff;stroke:#e377c2;" x="117" xlink:href="#m94c59119c8" y="512.64"/>
     <use style="fill:#ffffff;stroke:#e377c2;" x="129.058597" xlink:href="#m94c59119c8" y="504.669854"/>
     <use style="fill:#ffffff;stroke:#e377c2;" x="159.205091" xlink:href="#m94c59119c8" y="483.950749"/>
     <use style="fill:#ffffff;stroke:#e377c2;" x="189.351584" xlink:href="#m94c59119c8" y="471.578157"/>
     <use style="fill:#ffffff;stroke:#e377c2;" x="219.498078" xlink:href="#m94c59119c8" y="459.761068"/>
     <use style="fill:#ffffff;stroke:#e377c2;" x="249.644571" xlink:href="#m94c59119c8" y="446.868205"/>
     <use style="fill:#ffffff;stroke:#e377c2;" x="279.791065" xlink:href="#m94c59119c8" y="436.072077"/>
     <use style="fill:#ffffff;stroke:#e377c2;" x="309.937558" xlink:href="#m94c59119c8" y="430.090115"/>
     <use style="fill:#ffffff;stroke:#e377c2;" x="340.084052" xlink:href="#m94c59119c8" y="421.35523"/>
     <use style="fill:#ffffff;stroke:#e377c2;" x="370.230545" xlink:href="#m94c59119c8" y="398.004627"/>
     <use style="fill:#ffffff;stroke:#e377c2;" x="400.377039" xlink:href="#m94c59119c8" y="380.131535"/>
     <use style="fill:#ffffff;stroke:#e377c2;" x="430.523532" xlink:href="#m94c59119c8" y="372.801638"/>
     <use style="fill:#ffffff;stroke:#e377c2;" x="460.670026" xlink:href="#m94c59119c8" y="362.14484"/>
     <use style="fill:#ffffff;stroke:#e377c2;" x="490.816519" xlink:href="#m94c59119c8" y="356.389219"/>
     <use style="fill:#ffffff;stroke:#e377c2;" x="520.963013" xlink:href="#m94c59119c8" y="352.989546"/>
     <use style="fill:#ffffff;stroke:#e377c2;" x="551.109506" xlink:href="#m94c59119c8" y="347.409608"/>
     <use style="fill:#ffffff;stroke:#e377c2;" x="581.256" xlink:href="#m94c59119c8" y="334.433317"/>
     <use style="fill:#ffffff;stroke:#e377c2;" x="611.402494" xlink:href="#m94c59119c8" y="324.03619"/>
     <use style="fill:#ffffff;stroke:#e377c2;" x="641.548987" xlink:href="#m94c59119c8" y="318.969818"/>
     <use style="fill:#ffffff;stroke:#e377c2;" x="671.695481" xlink:href="#m94c59119c8" y="311.036543"/>
    </g>
   </g>
   <g id="line2d_22">
    <path clip-path="url(#p50e36e23ae)" d="M 117 512.64 
L 136.506555 491.293795 
L 166.653048 473.310313 
L 196.799542 451.630639 
L 226.946035 437.58831 
L 257.092529 412.888495 
L 287.239022 387.65415 
L 317.385516 362.14484 
L 347.532009 338.69588 
L 377.678503 314.977169 
L 407.824996 288.405679 
L 437.97149 275.933088 
L 468.117983 263.100353 
L 498.264477 248.359677 
L 528.41097 229.707382 
L 558.557464 209.222654 
" style="fill:none;stroke:#7f7f7f;stroke-linecap:square;stroke-width:1.5;"/>
    <defs>
     <path d="M 0 1.5 
C 0.397805 1.5 0.77937 1.341951 1.06066 1.06066 
C 1.341951 0.77937 1.5 0.397805 1.5 0 
C 1.5 -0.397805 1.341951 -0.77937 1.06066 -1.06066 
C 0.77937 -1.341951 0.397805 -1.5 0 -1.5 
C -0.397805 -1.5 -0.77937 -1.341951 -1.06066 -1.06066 
C -1.341951 -0.77937 -1.5 -0.397805 -1.5 0 
C -1.5 0.397805 -1.341951 0.77937 -1.06066 1.06066 
C -0.77937 1.341951 -0.397805 1.5 0 1.5 
z
" id="m43a31deb1f" style="stroke:#7f7f7f;"/>
    </defs>
    <g clip-path="url(#p50e36e23ae)">
     <use style="fill:#ffffff;stroke:#7f7f7f;" x="117" xlink:href="#m43a31deb1f" y="512.64"/>
     <use style="fill:#ffffff;stroke:#7f7f7f;" x="136.506555" xlink:href="#m43a31deb1f" y="491.293795"/>
     <use style="fill:#ffffff;stroke:#7f7f7f;" x="166.653048" xlink:href="#m43a31deb1f" y="473.310313"/>
     <use style="fill:#ffffff;stroke:#7f7f7f;" x="196.799542" xlink:href="#m43a31deb1f" y="451.630639"/>
     <use style="fill:#ffffff;stroke:#7f7f7f;" x="226.946035" xlink:href="#m43a31deb1f" y="437.58831"/>
     <use style="fill:#ffffff;stroke:#7f7f7f;" x="257.092529" xlink:href="#m43a31deb1f" y="412.888495"/>
     <use style="fill:#ffffff;stroke:#7f7f7f;" x="287.239022" xlink:href="#m43a31deb1f" y="387.65415"/>
     <use style="fill:#ffffff;stroke:#7f7f7f;" x="317.385516" xlink:href="#m43a31deb1f" y="362.14484"/>
     <use style="fill:#ffffff;stroke:#7f7f7f;" x="347.532009" xlink:href="#m43a31deb1f" y="338.69588"/>
     <use style="fill:#ffffff;stroke:#7f7f7f;" x="377.678503" xlink:href="#m43a31deb1f" y="314.977169"/>
     <use style="fill:#ffffff;stroke:#7f7f7f;" x="407.824996" xlink:href="#m43a31deb1f" y="288.405679"/>
     <use style="fill:#ffffff;stroke:#7f7f7f;" x="437.97149" xlink:href="#m43a31deb1f" y="275.933088"/>
     <use style="fill:#ffffff;stroke:#7f7f7f;" x="468.117983" xlink:href="#m43a31deb1f" y="263.100353"/>
     <use style="fill:#ffffff;stroke:#7f7f7f;" x="498.264477" xlink:href="#m43a31deb1f" y="248.359677"/>
     <use style="fill:#ffffff;stroke:#7f7f7f;" x="528.41097" xlink:href="#m43a31deb1f" y="229.707382"/>
     <use style="fill:#ffffff;stroke:#7f7f7f;" x="558.557464" xlink:href="#m43a31deb1f" y="209.222654"/>
    </g>
   </g>
   <g id="line2d_23">
    <path clip-path="url(#p50e36e23ae)" d="M 117 512.64 
L 137.870649 495.045 
L 168.017143 493.162577 
L 198.163636 485.767117 
L 228.31013 453.237073 
L 258.456623 431.573364 
L 288.603117 424.236126 
L 318.74961 406.024794 
L 348.896104 392.782067 
L 379.042597 391.491367 
L 409.189091 390.20652 
L 439.335584 375.224208 
L 469.482078 352.989546 
L 499.628571 341.933493 
L 529.775065 297.632963 
L 559.921558 287.497955 
L 590.068052 286.592888 
L 620.214545 274.191393 
L 650.361039 252.386142 
L 680.507532 249.160911 
L 710.654026 240.455891 
" style="fill:none;stroke:#bcbd22;stroke-linecap:square;stroke-width:1.5;"/>
    <defs>
     <path d="M 0 1.5 
C 0.397805 1.5 0.77937 1.341951 1.06066 1.06066 
C 1.341951 0.77937 1.5 0.397805 1.5 0 
C 1.5 -0.397805 1.341951 -0.77937 1.06066 -1.06066 
C 0.77937 -1.341951 0.397805 -1.5 0 -1.5 
C -0.397805 -1.5 -0.77937 -1.341951 -1.06066 -1.06066 
C -1.341951 -0.77937 -1.5 -0.397805 -1.5 0 
C -1.5 0.397805 -1.341951 0.77937 -1.06066 1.06066 
C -0.77937 1.341951 -0.397805 1.5 0 1.5 
z
" id="mbde22ca3ad" style="stroke:#bcbd22;"/>
    </defs>
    <g clip-path="url(#p50e36e23ae)">
     <use style="fill:#ffffff;stroke:#bcbd22;" x="117" xlink:href="#mbde22ca3ad" y="512.64"/>
     <use style="fill:#ffffff;stroke:#bcbd22;" x="137.870649" xlink:href="#mbde22ca3ad" y="495.045"/>
     <use style="fill:#ffffff;stroke:#bcbd22;" x="168.017143" xlink:href="#mbde22ca3ad" y="493.162577"/>
     <use style="fill:#ffffff;stroke:#bcbd22;" x="198.163636" xlink:href="#mbde22ca3ad" y="485.767117"/>
     <use style="fill:#ffffff;stroke:#bcbd22;" x="228.31013" xlink:href="#mbde22ca3ad" y="453.237073"/>
     <use style="fill:#ffffff;stroke:#bcbd22;" x="258.456623" xlink:href="#mbde22ca3ad" y="431.573364"/>
     <use style="fill:#ffffff;stroke:#bcbd22;" x="288.603117" xlink:href="#mbde22ca3ad" y="424.236126"/>
     <use style="fill:#ffffff;stroke:#bcbd22;" x="318.74961" xlink:href="#mbde22ca3ad" y="406.024794"/>
     <use style="fill:#ffffff;stroke:#bcbd22;" x="348.896104" xlink:href="#mbde22ca3ad" y="392.782067"/>
     <use style="fill:#ffffff;stroke:#bcbd22;" x="379.042597" xlink:href="#mbde22ca3ad" y="391.491367"/>
     <use style="fill:#ffffff;stroke:#bcbd22;" x="409.189091" xlink:href="#mbde22ca3ad" y="390.20652"/>
     <use style="fill:#ffffff;stroke:#bcbd22;" x="439.335584" xlink:href="#mbde22ca3ad" y="375.224208"/>
     <use style="fill:#ffffff;stroke:#bcbd22;" x="469.482078" xlink:href="#mbde22ca3ad" y="352.989546"/>
     <use style="fill:#ffffff;stroke:#bcbd22;" x="499.628571" xlink:href="#mbde22ca3ad" y="341.933493"/>
     <use style="fill:#ffffff;stroke:#bcbd22;" x="529.775065" xlink:href="#mbde22ca3ad" y="297.632963"/>
     <use style="fill:#ffffff;stroke:#bcbd22;" x="559.921558" xlink:href="#mbde22ca3ad" y="287.497955"/>
     <use style="fill:#ffffff;stroke:#bcbd22;" x="590.068052" xlink:href="#mbde22ca3ad" y="286.592888"/>
     <use style="fill:#ffffff;stroke:#bcbd22;" x="620.214545" xlink:href="#mbde22ca3ad" y="274.191393"/>
     <use style="fill:#ffffff;stroke:#bcbd22;" x="650.361039" xlink:href="#mbde22ca3ad" y="252.386142"/>
     <use style="fill:#ffffff;stroke:#bcbd22;" x="680.507532" xlink:href="#mbde22ca3ad" y="249.160911"/>
     <use style="fill:#ffffff;stroke:#bcbd22;" x="710.654026" xlink:href="#mbde22ca3ad" y="240.455891"/>
    </g>
   </g>
   <g id="line2d_24">
    <path clip-path="url(#p50e36e23ae)" d="M 117 512.64 
L 142.508571 491.293795 
L 172.655065 471.578157 
L 202.801558 459.761068 
L 232.948052 442.188484 
L 263.094545 424.236126 
L 293.241039 414.281776 
L 323.387532 400.652644 
L 353.534026 382.6171 
L 383.680519 370.399277 
L 413.827013 360.98458 
L 443.973506 351.86504 
L 474.12 338.69588 
L 504.266494 332.32473 
L 534.412987 330.230952 
L 564.559481 319.976292 
L 594.705974 309.085268 
L 624.852468 298.571107 
L 654.998961 280.330347 
" style="fill:none;stroke:#17becf;stroke-linecap:square;stroke-width:1.5;"/>
    <defs>
     <path d="M 0 1.5 
C 0.397805 1.5 0.77937 1.341951 1.06066 1.06066 
C 1.341951 0.77937 1.5 0.397805 1.5 0 
C 1.5 -0.397805 1.341951 -0.77937 1.06066 -1.06066 
C 0.77937 -1.341951 0.397805 -1.5 0 -1.5 
C -0.397805 -1.5 -0.77937 -1.341951 -1.06066 -1.06066 
C -1.341951 -0.77937 -1.5 -0.397805 -1.5 0 
C -1.5 0.397805 -1.341951 0.77937 -1.06066 1.06066 
C -0.77937 1.341951 -0.397805 1.5 0 1.5 
z
" id="ma4622fad70" style="stroke:#17becf;"/>
    </defs>
    <g clip-path="url(#p50e36e23ae)">
     <use style="fill:#ffffff;stroke:#17becf;" x="117" xlink:href="#ma4622fad70" y="512.64"/>
     <use style="fill:#ffffff;stroke:#17becf;" x="142.508571" xlink:href="#ma4622fad70" y="491.293795"/>
     <use style="fill:#ffffff;stroke:#17becf;" x="172.655065" xlink:href="#ma4622fad70" y="471.578157"/>
     <use style="fill:#ffffff;stroke:#17becf;" x="202.801558" xlink:href="#ma4622fad70" y="459.761068"/>
     <use style="fill:#ffffff;stroke:#17becf;" x="232.948052" xlink:href="#ma4622fad70" y="442.188484"/>
     <use style="fill:#ffffff;stroke:#17becf;" x="263.094545" xlink:href="#ma4622fad70" y="424.236126"/>
     <use style="fill:#ffffff;stroke:#17becf;" x="293.241039" xlink:href="#ma4622fad70" y="414.281776"/>
     <use style="fill:#ffffff;stroke:#17becf;" x="323.387532" xlink:href="#ma4622fad70" y="400.652644"/>
     <use style="fill:#ffffff;stroke:#17becf;" x="353.534026" xlink:href="#ma4622fad70" y="382.6171"/>
     <use style="fill:#ffffff;stroke:#17becf;" x="383.680519" xlink:href="#ma4622fad70" y="370.399277"/>
     <use style="fill:#ffffff;stroke:#17becf;" x="413.827013" xlink:href="#ma4622fad70" y="360.98458"/>
     <use style="fill:#ffffff;stroke:#17becf;" x="443.973506" xlink:href="#ma4622fad70" y="351.86504"/>
     <use style="fill:#ffffff;stroke:#17becf;" x="474.12" xlink:href="#ma4622fad70" y="338.69588"/>
     <use style="fill:#ffffff;stroke:#17becf;" x="504.266494" xlink:href="#ma4622fad70" y="332.32473"/>
     <use style="fill:#ffffff;stroke:#17becf;" x="534.412987" xlink:href="#ma4622fad70" y="330.230952"/>
     <use style="fill:#ffffff;stroke:#17becf;" x="564.559481" xlink:href="#ma4622fad70" y="319.976292"/>
     <use style="fill:#ffffff;stroke:#17becf;" x="594.705974" xlink:href="#ma4622fad70" y="309.085268"/>
     <use style="fill:#ffffff;stroke:#17becf;" x="624.852468" xlink:href="#ma4622fad70" y="298.571107"/>
     <use style="fill:#ffffff;stroke:#17becf;" x="654.998961" xlink:href="#ma4622fad70" y="280.330347"/>
    </g>
   </g>
   <g id="line2d_25">
    <path clip-path="url(#p50e36e23ae)" d="M 117 512.64 
L 127.962361 496.94129 
L 158.108855 480.355593 
L 188.255348 456.479149 
L 218.401842 424.236126 
L 248.548335 407.384092 
L 278.694829 396.689899 
L 308.841322 387.65415 
L 338.987816 347.409608 
L 369.134309 316.966894 
L 399.280803 306.18164 
L 429.427296 291.144962 
L 459.57379 273.324172 
L 489.720283 264.781403 
L 519.866777 258.93649 
L 550.01327 230.463376 
L 580.159764 221.505703 
L 610.306257 204.295546 
L 640.452751 189.939693 
" style="fill:none;stroke:#1f77b4;stroke-linecap:square;stroke-width:1.5;"/>
    <g clip-path="url(#p50e36e23ae)">
     <use style="fill:#ffffff;stroke:#1f77b4;" x="117" xlink:href="#mc0d08ec2e9" y="512.64"/>
     <use style="fill:#ffffff;stroke:#1f77b4;" x="127.962361" xlink:href="#mc0d08ec2e9" y="496.94129"/>
     <use style="fill:#ffffff;stroke:#1f77b4;" x="158.108855" xlink:href="#mc0d08ec2e9" y="480.355593"/>
     <use style="fill:#ffffff;stroke:#1f77b4;" x="188.255348" xlink:href="#mc0d08ec2e9" y="456.479149"/>
     <use style="fill:#ffffff;stroke:#1f77b4;" x="218.401842" xlink:href="#mc0d08ec2e9" y="424.236126"/>
     <use style="fill:#ffffff;stroke:#1f77b4;" x="248.548335" xlink:href="#mc0d08ec2e9" y="407.384092"/>
     <use style="fill:#ffffff;stroke:#1f77b4;" x="278.694829" xlink:href="#mc0d08ec2e9" y="396.689899"/>
     <use style="fill:#ffffff;stroke:#1f77b4;" x="308.841322" xlink:href="#mc0d08ec2e9" y="387.65415"/>
     <use style="fill:#ffffff;stroke:#1f77b4;" x="338.987816" xlink:href="#mc0d08ec2e9" y="347.409608"/>
     <use style="fill:#ffffff;stroke:#1f77b4;" x="369.134309" xlink:href="#mc0d08ec2e9" y="316.966894"/>
     <use style="fill:#ffffff;stroke:#1f77b4;" x="399.280803" xlink:href="#mc0d08ec2e9" y="306.18164"/>
     <use style="fill:#ffffff;stroke:#1f77b4;" x="429.427296" xlink:href="#mc0d08ec2e9" y="291.144962"/>
     <use style="fill:#ffffff;stroke:#1f77b4;" x="459.57379" xlink:href="#mc0d08ec2e9" y="273.324172"/>
     <use style="fill:#ffffff;stroke:#1f77b4;" x="489.720283" xlink:href="#mc0d08ec2e9" y="264.781403"/>
     <use style="fill:#ffffff;stroke:#1f77b4;" x="519.866777" xlink:href="#mc0d08ec2e9" y="258.93649"/>
     <use style="fill:#ffffff;stroke:#1f77b4;" x="550.01327" xlink:href="#mc0d08ec2e9" y="230.463376"/>
     <use style="fill:#ffffff;stroke:#1f77b4;" x="580.159764" xlink:href="#mc0d08ec2e9" y="221.505703"/>
     <use style="fill:#ffffff;stroke:#1f77b4;" x="610.306257" xlink:href="#mc0d08ec2e9" y="204.295546"/>
     <use style="fill:#ffffff;stroke:#1f77b4;" x="640.452751" xlink:href="#mc0d08ec2e9" y="189.939693"/>
    </g>
   </g>
   <g id="line2d_26">
    <path clip-path="url(#p50e36e23ae)" d="M 117 512.64 
L 141.117195 504.669854 
L 171.263688 493.162577 
L 201.410182 489.438433 
L 231.556675 469.857322 
L 261.703169 456.479149 
" style="fill:none;stroke:#ff7f0e;stroke-linecap:square;stroke-width:1.5;"/>
    <g clip-path="url(#p50e36e23ae)">
     <use style="fill:#ffffff;stroke:#ff7f0e;" x="117" xlink:href="#md0012ea0f2" y="512.64"/>
     <use style="fill:#ffffff;stroke:#ff7f0e;" x="141.117195" xlink:href="#md0012ea0f2" y="504.669854"/>
     <use style="fill:#ffffff;stroke:#ff7f0e;" x="171.263688" xlink:href="#md0012ea0f2" y="493.162577"/>
     <use style="fill:#ffffff;stroke:#ff7f0e;" x="201.410182" xlink:href="#md0012ea0f2" y="489.438433"/>
     <use style="fill:#ffffff;stroke:#ff7f0e;" x="231.556675" xlink:href="#md0012ea0f2" y="469.857322"/>
     <use style="fill:#ffffff;stroke:#ff7f0e;" x="261.703169" xlink:href="#md0012ea0f2" y="456.479149"/>
    </g>
   </g>
   <g id="line2d_27">
    <path clip-path="url(#p50e36e23ae)" d="M 117 512.64 
L 127.962361 496.94129 
L 158.108855 485.767117 
L 218.401842 458.115059 
L 248.548335 456.479149 
L 278.694829 439.11305 
L 308.841322 425.687962 
L 338.987816 419.925991 
L 369.134309 415.682086 
L 429.427296 408.750037 
L 459.57379 396.689899 
L 489.720283 368.01675 
L 519.866777 358.677844 
L 550.01327 355.251598 
L 610.306257 340.85035 
L 640.452751 334.433317 
L 670.599244 321.999389 
L 730.892231 305.219885 
" style="fill:none;stroke:#2ca02c;stroke-linecap:square;stroke-width:1.5;"/>
    <g clip-path="url(#p50e36e23ae)">
     <use style="fill:#ffffff;stroke:#2ca02c;" x="117" xlink:href="#m5b8e664179" y="512.64"/>
     <use style="fill:#ffffff;stroke:#2ca02c;" x="127.962361" xlink:href="#m5b8e664179" y="496.94129"/>
     <use style="fill:#ffffff;stroke:#2ca02c;" x="158.108855" xlink:href="#m5b8e664179" y="485.767117"/>
     <use style="fill:#ffffff;stroke:#2ca02c;" x="218.401842" xlink:href="#m5b8e664179" y="458.115059"/>
     <use style="fill:#ffffff;stroke:#2ca02c;" x="248.548335" xlink:href="#m5b8e664179" y="456.479149"/>
     <use style="fill:#ffffff;stroke:#2ca02c;" x="278.694829" xlink:href="#m5b8e664179" y="439.11305"/>
     <use style="fill:#ffffff;stroke:#2ca02c;" x="308.841322" xlink:href="#m5b8e664179" y="425.687962"/>
     <use style="fill:#ffffff;stroke:#2ca02c;" x="338.987816" xlink:href="#m5b8e664179" y="419.925991"/>
     <use style="fill:#ffffff;stroke:#2ca02c;" x="369.134309" xlink:href="#m5b8e664179" y="415.682086"/>
     <use style="fill:#ffffff;stroke:#2ca02c;" x="429.427296" xlink:href="#m5b8e664179" y="408.750037"/>
     <use style="fill:#ffffff;stroke:#2ca02c;" x="459.57379" xlink:href="#m5b8e664179" y="396.689899"/>
     <use style="fill:#ffffff;stroke:#2ca02c;" x="489.720283" xlink:href="#m5b8e664179" y="368.01675"/>
     <use style="fill:#ffffff;stroke:#2ca02c;" x="519.866777" xlink:href="#m5b8e664179" y="358.677844"/>
     <use style="fill:#ffffff;stroke:#2ca02c;" x="550.01327" xlink:href="#m5b8e664179" y="355.251598"/>
     <use style="fill:#ffffff;stroke:#2ca02c;" x="610.306257" xlink:href="#m5b8e664179" y="340.85035"/>
     <use style="fill:#ffffff;stroke:#2ca02c;" x="640.452751" xlink:href="#m5b8e664179" y="334.433317"/>
     <use style="fill:#ffffff;stroke:#2ca02c;" x="670.599244" xlink:href="#m5b8e664179" y="321.999389"/>
     <use style="fill:#ffffff;stroke:#2ca02c;" x="730.892231" xlink:href="#m5b8e664179" y="305.219885"/>
    </g>
   </g>
   <g id="line2d_28">
    <path clip-path="url(#p50e36e23ae)" d="M 117 512.64 
L 143.796883 496.94129 
L 173.943377 469.857322 
L 204.08987 456.479149 
L 234.236364 448.446331 
L 264.382857 443.7394 
L 294.529351 442.188484 
L 324.675844 437.58831 
L 354.822338 407.384092 
L 384.968831 399.32552 
L 415.115325 387.65415 
L 445.261818 376.443192 
L 475.408312 369.205557 
L 505.554805 368.01675 
L 535.701299 365.653693 
L 565.847792 354.118387 
L 595.994286 346.306219 
L 626.140779 337.62449 
L 656.287273 329.189545 
" style="fill:none;stroke:#d62728;stroke-linecap:square;stroke-width:1.5;"/>
    <g clip-path="url(#p50e36e23ae)">
     <use style="fill:#ffffff;stroke:#d62728;" x="117" xlink:href="#me7fdc054ae" y="512.64"/>
     <use style="fill:#ffffff;stroke:#d62728;" x="143.796883" xlink:href="#me7fdc054ae" y="496.94129"/>
     <use style="fill:#ffffff;stroke:#d62728;" x="173.943377" xlink:href="#me7fdc054ae" y="469.857322"/>
     <use style="fill:#ffffff;stroke:#d62728;" x="204.08987" xlink:href="#me7fdc054ae" y="456.479149"/>
     <use style="fill:#ffffff;stroke:#d62728;" x="234.236364" xlink:href="#me7fdc054ae" y="448.446331"/>
     <use style="fill:#ffffff;stroke:#d62728;" x="264.382857" xlink:href="#me7fdc054ae" y="443.7394"/>
     <use style="fill:#ffffff;stroke:#d62728;" x="294.529351" xlink:href="#me7fdc054ae" y="442.188484"/>
     <use style="fill:#ffffff;stroke:#d62728;" x="324.675844" xlink:href="#me7fdc054ae" y="437.58831"/>
     <use style="fill:#ffffff;stroke:#d62728;" x="354.822338" xlink:href="#me7fdc054ae" y="407.384092"/>
     <use style="fill:#ffffff;stroke:#d62728;" x="384.968831" xlink:href="#me7fdc054ae" y="399.32552"/>
     <use style="fill:#ffffff;stroke:#d62728;" x="415.115325" xlink:href="#me7fdc054ae" y="387.65415"/>
     <use style="fill:#ffffff;stroke:#d62728;" x="445.261818" xlink:href="#me7fdc054ae" y="376.443192"/>
     <use style="fill:#ffffff;stroke:#d62728;" x="475.408312" xlink:href="#me7fdc054ae" y="369.205557"/>
     <use style="fill:#ffffff;stroke:#d62728;" x="505.554805" xlink:href="#me7fdc054ae" y="368.01675"/>
     <use style="fill:#ffffff;stroke:#d62728;" x="535.701299" xlink:href="#me7fdc054ae" y="365.653693"/>
     <use style="fill:#ffffff;stroke:#d62728;" x="565.847792" xlink:href="#me7fdc054ae" y="354.118387"/>
     <use style="fill:#ffffff;stroke:#d62728;" x="595.994286" xlink:href="#me7fdc054ae" y="346.306219"/>
     <use style="fill:#ffffff;stroke:#d62728;" x="626.140779" xlink:href="#me7fdc054ae" y="337.62449"/>
     <use style="fill:#ffffff;stroke:#d62728;" x="656.287273" xlink:href="#me7fdc054ae" y="329.189545"/>
    </g>
   </g>
   <g id="line2d_29">
    <path clip-path="url(#p50e36e23ae)" d="M 117 512.64 
L 123.029299 510.623881 
L 153.175792 506.639084 
L 183.322286 504.669854 
" style="fill:none;stroke:#9467bd;stroke-linecap:square;stroke-width:1.5;"/>
    <g clip-path="url(#p50e36e23ae)">
     <use style="fill:#ffffff;stroke:#9467bd;" x="117" xlink:href="#mb85847d627" y="512.64"/>
     <use style="fill:#ffffff;stroke:#9467bd;" x="123.029299" xlink:href="#mb85847d627" y="510.623881"/>
     <use style="fill:#ffffff;stroke:#9467bd;" x="153.175792" xlink:href="#mb85847d627" y="506.639084"/>
     <use style="fill:#ffffff;stroke:#9467bd;" x="183.322286" xlink:href="#mb85847d627" y="504.669854"/>
    </g>
   </g>
   <g id="line2d_30">
    <path clip-path="url(#p50e36e23ae)" d="M 117 512.64 
L 125.374026 502.715713 
L 155.520519 478.576421 
L 185.667013 446.868205 
L 215.813506 427.14751 
L 245.96 419.925991 
L 276.106494 398.004627 
L 306.252987 385.124493 
L 336.399481 375.224208 
L 366.545974 359.828928 
L 396.692468 345.206947 
L 426.838961 333.377157 
L 456.985455 326.086906 
L 487.131948 319.976292 
L 517.278442 308.11431 
L 547.424935 293.908796 
L 577.571429 282.10679 
" style="fill:none;stroke:#8c564b;stroke-linecap:square;stroke-width:1.5;"/>
    <g clip-path="url(#p50e36e23ae)">
     <use style="fill:#ffffff;stroke:#8c564b;" x="117" xlink:href="#mf9d69bd7a6" y="512.64"/>
     <use style="fill:#ffffff;stroke:#8c564b;" x="125.374026" xlink:href="#mf9d69bd7a6" y="502.715713"/>
     <use style="fill:#ffffff;stroke:#8c564b;" x="155.520519" xlink:href="#mf9d69bd7a6" y="478.576421"/>
     <use style="fill:#ffffff;stroke:#8c564b;" x="185.667013" xlink:href="#mf9d69bd7a6" y="446.868205"/>
     <use style="fill:#ffffff;stroke:#8c564b;" x="215.813506" xlink:href="#mf9d69bd7a6" y="427.14751"/>
     <use style="fill:#ffffff;stroke:#8c564b;" x="245.96" xlink:href="#mf9d69bd7a6" y="419.925991"/>
     <use style="fill:#ffffff;stroke:#8c564b;" x="276.106494" xlink:href="#mf9d69bd7a6" y="398.004627"/>
     <use style="fill:#ffffff;stroke:#8c564b;" x="306.252987" xlink:href="#mf9d69bd7a6" y="385.124493"/>
     <use style="fill:#ffffff;stroke:#8c564b;" x="336.399481" xlink:href="#mf9d69bd7a6" y="375.224208"/>
     <use style="fill:#ffffff;stroke:#8c564b;" x="366.545974" xlink:href="#mf9d69bd7a6" y="359.828928"/>
     <use style="fill:#ffffff;stroke:#8c564b;" x="396.692468" xlink:href="#mf9d69bd7a6" y="345.206947"/>
     <use style="fill:#ffffff;stroke:#8c564b;" x="426.838961" xlink:href="#mf9d69bd7a6" y="333.377157"/>
     <use style="fill:#ffffff;stroke:#8c564b;" x="456.985455" xlink:href="#mf9d69bd7a6" y="326.086906"/>
     <use style="fill:#ffffff;stroke:#8c564b;" x="487.131948" xlink:href="#mf9d69bd7a6" y="319.976292"/>
     <use style="fill:#ffffff;stroke:#8c564b;" x="517.278442" xlink:href="#mf9d69bd7a6" y="308.11431"/>
     <use style="fill:#ffffff;stroke:#8c564b;" x="547.424935" xlink:href="#mf9d69bd7a6" y="293.908796"/>
     <use style="fill:#ffffff;stroke:#8c564b;" x="577.571429" xlink:href="#mf9d69bd7a6" y="282.10679"/>
    </g>
   </g>
   <g id="line2d_31">
    <path clip-path="url(#p50e36e23ae)" d="M 117 512.64 
L 138.102545 498.851679 
L 168.249039 495.045 
L 198.395532 482.146972 
L 228.542026 476.80927 
L 258.688519 475.05396 
L 288.835013 468.147643 
L 318.981506 450.033768 
L 349.128 442.188484 
L 379.274494 427.14751 
L 409.420987 417.089503 
L 439.567481 404.672071 
L 469.713974 394.078682 
L 499.860468 390.20652 
L 530.006961 371.597955 
L 560.153455 327.11755 
L 590.299948 314.977169 
L 620.446442 303.305428 
" style="fill:none;stroke:#e377c2;stroke-linecap:square;stroke-width:1.5;"/>
    <g clip-path="url(#p50e36e23ae)">
     <use style="fill:#ffffff;stroke:#e377c2;" x="117" xlink:href="#m94c59119c8" y="512.64"/>
     <use style="fill:#ffffff;stroke:#e377c2;" x="138.102545" xlink:href="#m94c59119c8" y="498.851679"/>
     <use style="fill:#ffffff;stroke:#e377c2;" x="168.249039" xlink:href="#m94c59119c8" y="495.045"/>
     <use style="fill:#ffffff;stroke:#e377c2;" x="198.395532" xlink:href="#m94c59119c8" y="482.146972"/>
     <use style="fill:#ffffff;stroke:#e377c2;" x="228.542026" xlink:href="#m94c59119c8" y="476.80927"/>
     <use style="fill:#ffffff;stroke:#e377c2;" x="258.688519" xlink:href="#m94c59119c8" y="475.05396"/>
     <use style="fill:#ffffff;stroke:#e377c2;" x="288.835013" xlink:href="#m94c59119c8" y="468.147643"/>
     <use style="fill:#ffffff;stroke:#e377c2;" x="318.981506" xlink:href="#m94c59119c8" y="450.033768"/>
     <use style="fill:#ffffff;stroke:#e377c2;" x="349.128" xlink:href="#m94c59119c8" y="442.188484"/>
     <use style="fill:#ffffff;stroke:#e377c2;" x="379.274494" xlink:href="#m94c59119c8" y="427.14751"/>
     <use style="fill:#ffffff;stroke:#e377c2;" x="409.420987" xlink:href="#m94c59119c8" y="417.089503"/>
     <use style="fill:#ffffff;stroke:#e377c2;" x="439.567481" xlink:href="#m94c59119c8" y="404.672071"/>
     <use style="fill:#ffffff;stroke:#e377c2;" x="469.713974" xlink:href="#m94c59119c8" y="394.078682"/>
     <use style="fill:#ffffff;stroke:#e377c2;" x="499.860468" xlink:href="#m94c59119c8" y="390.20652"/>
     <use style="fill:#ffffff;stroke:#e377c2;" x="530.006961" xlink:href="#m94c59119c8" y="371.597955"/>
     <use style="fill:#ffffff;stroke:#e377c2;" x="560.153455" xlink:href="#m94c59119c8" y="327.11755"/>
     <use style="fill:#ffffff;stroke:#e377c2;" x="590.299948" xlink:href="#m94c59119c8" y="314.977169"/>
     <use style="fill:#ffffff;stroke:#e377c2;" x="620.446442" xlink:href="#m94c59119c8" y="303.305428"/>
    </g>
   </g>
   <g id="line2d_32">
    <path clip-path="url(#p50e36e23ae)" d="M 117 512.64 
L 127.048831 510.623881 
L 187.341818 495.045 
L 217.488312 468.147643 
L 247.634805 450.033768 
L 277.781299 440.646405 
L 307.927792 439.11305 
L 338.074286 434.564244 
L 368.220779 430.090115 
L 398.367273 424.236126 
L 428.513766 417.089503 
L 458.66026 404.672071 
L 488.806753 401.986065 
L 549.09974 388.927467 
L 579.246234 385.124493 
L 609.392727 381.371616 
L 639.539221 376.443192 
L 669.685714 368.01675 
L 699.832208 363.309751 
L 729.978701 357.531288 
" style="fill:none;stroke:#7f7f7f;stroke-linecap:square;stroke-width:1.5;"/>
    <g clip-path="url(#p50e36e23ae)">
     <use style="fill:#ffffff;stroke:#7f7f7f;" x="117" xlink:href="#m43a31deb1f" y="512.64"/>
     <use style="fill:#ffffff;stroke:#7f7f7f;" x="127.048831" xlink:href="#m43a31deb1f" y="510.623881"/>
     <use style="fill:#ffffff;stroke:#7f7f7f;" x="187.341818" xlink:href="#m43a31deb1f" y="495.045"/>
     <use style="fill:#ffffff;stroke:#7f7f7f;" x="217.488312" xlink:href="#m43a31deb1f" y="468.147643"/>
     <use style="fill:#ffffff;stroke:#7f7f7f;" x="247.634805" xlink:href="#m43a31deb1f" y="450.033768"/>
     <use style="fill:#ffffff;stroke:#7f7f7f;" x="277.781299" xlink:href="#m43a31deb1f" y="440.646405"/>
     <use style="fill:#ffffff;stroke:#7f7f7f;" x="307.927792" xlink:href="#m43a31deb1f" y="439.11305"/>
     <use style="fill:#ffffff;stroke:#7f7f7f;" x="338.074286" xlink:href="#m43a31deb1f" y="434.564244"/>
     <use style="fill:#ffffff;stroke:#7f7f7f;" x="368.220779" xlink:href="#m43a31deb1f" y="430.090115"/>
     <use style="fill:#ffffff;stroke:#7f7f7f;" x="398.367273" xlink:href="#m43a31deb1f" y="424.236126"/>
     <use style="fill:#ffffff;stroke:#7f7f7f;" x="428.513766" xlink:href="#m43a31deb1f" y="417.089503"/>
     <use style="fill:#ffffff;stroke:#7f7f7f;" x="458.66026" xlink:href="#m43a31deb1f" y="404.672071"/>
     <use style="fill:#ffffff;stroke:#7f7f7f;" x="488.806753" xlink:href="#m43a31deb1f" y="401.986065"/>
     <use style="fill:#ffffff;stroke:#7f7f7f;" x="549.09974" xlink:href="#m43a31deb1f" y="388.927467"/>
     <use style="fill:#ffffff;stroke:#7f7f7f;" x="579.246234" xlink:href="#m43a31deb1f" y="385.124493"/>
     <use style="fill:#ffffff;stroke:#7f7f7f;" x="609.392727" xlink:href="#m43a31deb1f" y="381.371616"/>
     <use style="fill:#ffffff;stroke:#7f7f7f;" x="639.539221" xlink:href="#m43a31deb1f" y="376.443192"/>
     <use style="fill:#ffffff;stroke:#7f7f7f;" x="669.685714" xlink:href="#m43a31deb1f" y="368.01675"/>
     <use style="fill:#ffffff;stroke:#7f7f7f;" x="699.832208" xlink:href="#m43a31deb1f" y="363.309751"/>
     <use style="fill:#ffffff;stroke:#7f7f7f;" x="729.978701" xlink:href="#m43a31deb1f" y="357.531288"/>
    </g>
   </g>
   <g id="line2d_33">
    <path clip-path="url(#p50e36e23ae)" d="M 117 512.64 
L 124.979954 495.045 
L 155.126448 473.310313 
L 185.272941 458.115059 
L 215.419435 440.646405 
L 245.565928 428.614863 
L 275.712422 421.35523 
L 305.858915 368.01675 
L 336.005409 352.989546 
L 366.151902 328.151753 
L 396.298396 301.402898 
L 426.444889 283.89345 
L 456.591383 263.939757 
L 486.737876 246.76322 
L 516.88437 226.700928 
L 547.030863 209.932584 
L 577.177357 184.629594 
L 607.32385 168.556726 
L 637.470344 161.104812 
L 667.616837 155.016986 
L 697.763331 135.659861 
L 727.909824 121.134926 
L 758.056318 105.089745 
L 788.202811 90.24 
" style="fill:none;stroke:#bcbd22;stroke-linecap:square;stroke-width:1.5;"/>
    <g clip-path="url(#p50e36e23ae)">
     <use style="fill:#ffffff;stroke:#bcbd22;" x="117" xlink:href="#mbde22ca3ad" y="512.64"/>
     <use style="fill:#ffffff;stroke:#bcbd22;" x="124.979954" xlink:href="#mbde22ca3ad" y="495.045"/>
     <use style="fill:#ffffff;stroke:#bcbd22;" x="155.126448" xlink:href="#mbde22ca3ad" y="473.310313"/>
     <use style="fill:#ffffff;stroke:#bcbd22;" x="185.272941" xlink:href="#mbde22ca3ad" y="458.115059"/>
     <use style="fill:#ffffff;stroke:#bcbd22;" x="215.419435" xlink:href="#mbde22ca3ad" y="440.646405"/>
     <use style="fill:#ffffff;stroke:#bcbd22;" x="245.565928" xlink:href="#mbde22ca3ad" y="428.614863"/>
     <use style="fill:#ffffff;stroke:#bcbd22;" x="275.712422" xlink:href="#mbde22ca3ad" y="421.35523"/>
     <use style="fill:#ffffff;stroke:#bcbd22;" x="305.858915" xlink:href="#mbde22ca3ad" y="368.01675"/>
     <use style="fill:#ffffff;stroke:#bcbd22;" x="336.005409" xlink:href="#mbde22ca3ad" y="352.989546"/>
     <use style="fill:#ffffff;stroke:#bcbd22;" x="366.151902" xlink:href="#mbde22ca3ad" y="328.151753"/>
     <use style="fill:#ffffff;stroke:#bcbd22;" x="396.298396" xlink:href="#mbde22ca3ad" y="301.402898"/>
     <use style="fill:#ffffff;stroke:#bcbd22;" x="426.444889" xlink:href="#mbde22ca3ad" y="283.89345"/>
     <use style="fill:#ffffff;stroke:#bcbd22;" x="456.591383" xlink:href="#mbde22ca3ad" y="263.939757"/>
     <use style="fill:#ffffff;stroke:#bcbd22;" x="486.737876" xlink:href="#mbde22ca3ad" y="246.76322"/>
     <use style="fill:#ffffff;stroke:#bcbd22;" x="516.88437" xlink:href="#mbde22ca3ad" y="226.700928"/>
     <use style="fill:#ffffff;stroke:#bcbd22;" x="547.030863" xlink:href="#mbde22ca3ad" y="209.932584"/>
     <use style="fill:#ffffff;stroke:#bcbd22;" x="577.177357" xlink:href="#mbde22ca3ad" y="184.629594"/>
     <use style="fill:#ffffff;stroke:#bcbd22;" x="607.32385" xlink:href="#mbde22ca3ad" y="168.556726"/>
     <use style="fill:#ffffff;stroke:#bcbd22;" x="637.470344" xlink:href="#mbde22ca3ad" y="161.104812"/>
     <use style="fill:#ffffff;stroke:#bcbd22;" x="667.616837" xlink:href="#mbde22ca3ad" y="155.016986"/>
     <use style="fill:#ffffff;stroke:#bcbd22;" x="697.763331" xlink:href="#mbde22ca3ad" y="135.659861"/>
     <use style="fill:#ffffff;stroke:#bcbd22;" x="727.909824" xlink:href="#mbde22ca3ad" y="121.134926"/>
     <use style="fill:#ffffff;stroke:#bcbd22;" x="758.056318" xlink:href="#mbde22ca3ad" y="105.089745"/>
     <use style="fill:#ffffff;stroke:#bcbd22;" x="788.202811" xlink:href="#mbde22ca3ad" y="90.24"/>
    </g>
   </g>
   <g id="line2d_34">
    <path clip-path="url(#p50e36e23ae)" d="M 117 512.64 
L 144.634286 491.293795 
L 174.780779 461.417316 
L 204.927273 446.868205 
L 235.073766 436.072077 
L 265.22026 421.35523 
L 295.366753 399.32552 
L 325.513247 383.868041 
L 355.65974 365.653693 
L 385.806234 356.389219 
L 415.952727 349.628877 
L 446.099221 339.771157 
L 476.245714 329.189545 
L 506.392208 316.966894 
L 536.538701 313.000449 
L 566.685195 302.352682 
L 596.831688 297.632963 
L 626.978182 293.908796 
L 657.124675 288.405679 
L 687.271169 280.330347 
L 717.417662 263.939757 
L 747.564156 257.286175 
L 777.710649 250.769444 
L 807.857143 242.021122 
" style="fill:none;stroke:#17becf;stroke-linecap:square;stroke-width:1.5;"/>
    <g clip-path="url(#p50e36e23ae)">
     <use style="fill:#ffffff;stroke:#17becf;" x="117" xlink:href="#ma4622fad70" y="512.64"/>
     <use style="fill:#ffffff;stroke:#17becf;" x="144.634286" xlink:href="#ma4622fad70" y="491.293795"/>
     <use style="fill:#ffffff;stroke:#17becf;" x="174.780779" xlink:href="#ma4622fad70" y="461.417316"/>
     <use style="fill:#ffffff;stroke:#17becf;" x="204.927273" xlink:href="#ma4622fad70" y="446.868205"/>
     <use style="fill:#ffffff;stroke:#17becf;" x="235.073766" xlink:href="#ma4622fad70" y="436.072077"/>
     <use style="fill:#ffffff;stroke:#17becf;" x="265.22026" xlink:href="#ma4622fad70" y="421.35523"/>
     <use style="fill:#ffffff;stroke:#17becf;" x="295.366753" xlink:href="#ma4622fad70" y="399.32552"/>
     <use style="fill:#ffffff;stroke:#17becf;" x="325.513247" xlink:href="#ma4622fad70" y="383.868041"/>
     <use style="fill:#ffffff;stroke:#17becf;" x="355.65974" xlink:href="#ma4622fad70" y="365.653693"/>
     <use style="fill:#ffffff;stroke:#17becf;" x="385.806234" xlink:href="#ma4622fad70" y="356.389219"/>
     <use style="fill:#ffffff;stroke:#17becf;" x="415.952727" xlink:href="#ma4622fad70" y="349.628877"/>
     <use style="fill:#ffffff;stroke:#17becf;" x="446.099221" xlink:href="#ma4622fad70" y="339.771157"/>
     <use style="fill:#ffffff;stroke:#17becf;" x="476.245714" xlink:href="#ma4622fad70" y="329.189545"/>
     <use style="fill:#ffffff;stroke:#17becf;" x="506.392208" xlink:href="#ma4622fad70" y="316.966894"/>
     <use style="fill:#ffffff;stroke:#17becf;" x="536.538701" xlink:href="#ma4622fad70" y="313.000449"/>
     <use style="fill:#ffffff;stroke:#17becf;" x="566.685195" xlink:href="#ma4622fad70" y="302.352682"/>
     <use style="fill:#ffffff;stroke:#17becf;" x="596.831688" xlink:href="#ma4622fad70" y="297.632963"/>
     <use style="fill:#ffffff;stroke:#17becf;" x="626.978182" xlink:href="#ma4622fad70" y="293.908796"/>
     <use style="fill:#ffffff;stroke:#17becf;" x="657.124675" xlink:href="#ma4622fad70" y="288.405679"/>
     <use style="fill:#ffffff;stroke:#17becf;" x="687.271169" xlink:href="#ma4622fad70" y="280.330347"/>
     <use style="fill:#ffffff;stroke:#17becf;" x="717.417662" xlink:href="#ma4622fad70" y="263.939757"/>
     <use style="fill:#ffffff;stroke:#17becf;" x="747.564156" xlink:href="#ma4622fad70" y="257.286175"/>
     <use style="fill:#ffffff;stroke:#17becf;" x="777.710649" xlink:href="#ma4622fad70" y="250.769444"/>
     <use style="fill:#ffffff;stroke:#17becf;" x="807.857143" xlink:href="#ma4622fad70" y="242.021122"/>
    </g>
   </g>
   <g id="patch_3">
    <path d="M 117 512.64 
L 117 69.12 
" style="fill:none;stroke:#666666;stroke-linecap:square;stroke-linejoin:miter;stroke-width:0.8;"/>
   </g>
   <g id="patch_4">
    <path d="M 117 512.64 
L 842.4 512.64 
" style="fill:none;stroke:#666666;stroke-linecap:square;stroke-linejoin:miter;stroke-width:0.8;"/>
   </g>
   <g id="text_7">
    <g id="patch_5">
     <path d="M 530.457617 276.903859 
C 531.957617 278.403859 544.370117 278.403859 545.870117 276.903859 
C 547.370117 275.403859 547.370117 265.725734 545.870117 264.225734 
C 544.370117 262.725734 531.957617 262.725734 530.457617 264.225734 
C 528.957617 265.725734 528.957617 275.403859 530.457617 276.903859 
z
" style="fill:#ffffff;stroke:#1f77b4;stroke-linejoin:miter;"/>
    </g>
    <!-- AL -->
    <defs>
     <path d="M 34.1875 63.1875 
L 20.796875 26.90625 
L 47.609375 26.90625 
z
M 28.609375 72.90625 
L 39.796875 72.90625 
L 67.578125 0 
L 57.328125 0 
L 50.6875 18.703125 
L 17.828125 18.703125 
L 11.1875 0 
L 0.78125 0 
z
" id="DejaVuSans-65"/>
     <path d="M 9.8125 72.90625 
L 19.671875 72.90625 
L 19.671875 8.296875 
L 55.171875 8.296875 
L 55.171875 0 
L 9.8125 0 
z
" id="DejaVuSans-76"/>
    </defs>
    <g style="fill:#1f77b4;" transform="translate(531.957617 273.324172)scale(0.1 -0.1)">
     <use xlink:href="#DejaVuSans-65"/>
     <use x="68.408203" xlink:href="#DejaVuSans-76"/>
    </g>
   </g>
   <g id="text_8">
    <g id="patch_6">
     <path d="M 740.354593 243.255816 
C 741.854593 244.755816 755.545218 244.755816 757.045218 243.255816 
C 758.545218 241.755816 758.545218 232.077691 757.045218 230.577691 
C 755.545218 229.077691 741.854593 229.077691 740.354593 230.577691 
C 738.854593 232.077691 738.854593 241.755816 740.354593 243.255816 
z
" style="fill:#ffffff;stroke:#ff7f0e;stroke-linejoin:miter;"/>
    </g>
    <!-- AZ -->
    <defs>
     <path d="M 5.609375 72.90625 
L 62.890625 72.90625 
L 62.890625 65.375 
L 16.796875 8.296875 
L 64.015625 8.296875 
L 64.015625 0 
L 4.5 0 
L 4.5 7.515625 
L 50.59375 64.59375 
L 5.609375 64.59375 
z
" id="DejaVuSans-90"/>
    </defs>
    <g style="fill:#ff7f0e;" transform="translate(741.854593 239.676129)scale(0.1 -0.1)">
     <use xlink:href="#DejaVuSans-65"/>
     <use x="68.408203" xlink:href="#DejaVuSans-90"/>
    </g>
   </g>
   <g id="text_9">
    <g id="patch_7">
     <path d="M 463.859481 331.731441 
C 465.359481 333.231441 480.042293 333.231441 481.542293 331.731441 
C 483.042293 330.231441 483.042293 320.553316 481.542293 319.053316 
C 480.042293 317.553316 465.359481 317.553316 463.859481 319.053316 
C 462.359481 320.553316 462.359481 330.231441 463.859481 331.731441 
z
" style="fill:#ffffff;stroke:#2ca02c;stroke-linejoin:miter;"/>
    </g>
    <!-- DC -->
    <defs>
     <path d="M 64.40625 67.28125 
L 64.40625 56.890625 
Q 59.421875 61.53125 53.78125 63.8125 
Q 48.140625 66.109375 41.796875 66.109375 
Q 29.296875 66.109375 22.65625 58.46875 
Q 16.015625 50.828125 16.015625 36.375 
Q 16.015625 21.96875 22.65625 14.328125 
Q 29.296875 6.6875 41.796875 6.6875 
Q 48.140625 6.6875 53.78125 8.984375 
Q 59.421875 11.28125 64.40625 15.921875 
L 64.40625 5.609375 
Q 59.234375 2.09375 53.4375 0.328125 
Q 47.65625 -1.421875 41.21875 -1.421875 
Q 24.65625 -1.421875 15.125 8.703125 
Q 5.609375 18.84375 5.609375 36.375 
Q 5.609375 53.953125 15.125 64.078125 
Q 24.65625 74.21875 41.21875 74.21875 
Q 47.75 74.21875 53.53125 72.484375 
Q 59.328125 70.75 64.40625 67.28125 
z
" id="DejaVuSans-67"/>
    </defs>
    <g style="fill:#2ca02c;" transform="translate(465.359481 328.151753)scale(0.1 -0.1)">
     <use xlink:href="#DejaVuSans-68"/>
     <use x="77.001953" xlink:href="#DejaVuSans-67"/>
    </g>
   </g>
   <g id="text_10">
    <g id="patch_8">
     <path d="M 326.525455 417.861464 
C 328.025455 419.361464 342.044205 419.361464 343.544205 417.861464 
C 345.044205 416.361464 345.044205 406.683339 343.544205 405.183339 
C 342.044205 403.683339 328.025455 403.683339 326.525455 405.183339 
C 325.025455 406.683339 325.025455 416.361464 326.525455 417.861464 
z
" style="fill:#ffffff;stroke:#d62728;stroke-linejoin:miter;"/>
    </g>
    <!-- DE -->
    <defs>
     <path d="M 9.8125 72.90625 
L 55.90625 72.90625 
L 55.90625 64.59375 
L 19.671875 64.59375 
L 19.671875 43.015625 
L 54.390625 43.015625 
L 54.390625 34.71875 
L 19.671875 34.71875 
L 19.671875 8.296875 
L 56.78125 8.296875 
L 56.78125 0 
L 9.8125 0 
z
" id="DejaVuSans-69"/>
    </defs>
    <g style="fill:#d62728;" transform="translate(328.025455 414.281776)scale(0.1 -0.1)">
     <use xlink:href="#DejaVuSans-68"/>
     <use x="77.001953" xlink:href="#DejaVuSans-69"/>
    </g>
   </g>
   <g id="text_11">
    <g id="patch_9">
     <path d="M 345.709587 402.905208 
C 347.209587 404.405208 357.000212 404.405208 358.500212 402.905208 
C 360.000212 401.405208 360.000212 391.727083 358.500212 390.227083 
C 357.000212 388.727083 347.209587 388.727083 345.709587 390.227083 
C 344.209587 391.727083 344.209587 401.405208 345.709587 402.905208 
z
" style="fill:#ffffff;stroke:#9467bd;stroke-linejoin:miter;"/>
    </g>
    <!-- IA -->
    <defs>
     <path d="M 9.8125 72.90625 
L 19.671875 72.90625 
L 19.671875 0 
L 9.8125 0 
z
" id="DejaVuSans-73"/>
    </defs>
    <g style="fill:#9467bd;" transform="translate(347.209587 399.32552)scale(0.1 -0.1)">
     <use xlink:href="#DejaVuSans-73"/>
     <use x="29.492188" xlink:href="#DejaVuSans-65"/>
    </g>
   </g>
   <g id="text_12">
    <g id="patch_10">
     <path d="M 447.111429 461.694747 
C 448.611429 463.194747 461.517679 463.194747 463.017679 461.694747 
C 464.517679 460.194747 464.517679 450.516622 463.017679 449.016622 
C 461.517679 447.516622 448.611429 447.516622 447.111429 449.016622 
C 445.611429 450.516622 445.611429 460.194747 447.111429 461.694747 
z
" style="fill:#ffffff;stroke:#8c564b;stroke-linejoin:miter;"/>
    </g>
    <!-- KS -->
    <defs>
     <path d="M 9.8125 72.90625 
L 19.671875 72.90625 
L 19.671875 42.09375 
L 52.390625 72.90625 
L 65.09375 72.90625 
L 28.90625 38.921875 
L 67.671875 0 
L 54.6875 0 
L 19.671875 35.109375 
L 19.671875 0 
L 9.8125 0 
z
" id="DejaVuSans-75"/>
     <path d="M 53.515625 70.515625 
L 53.515625 60.890625 
Q 47.90625 63.578125 42.921875 64.890625 
Q 37.9375 66.21875 33.296875 66.21875 
Q 25.25 66.21875 20.875 63.09375 
Q 16.5 59.96875 16.5 54.203125 
Q 16.5 49.359375 19.40625 46.890625 
Q 22.3125 44.4375 30.421875 42.921875 
L 36.375 41.703125 
Q 47.40625 39.59375 52.65625 34.296875 
Q 57.90625 29 57.90625 20.125 
Q 57.90625 9.515625 50.796875 4.046875 
Q 43.703125 -1.421875 29.984375 -1.421875 
Q 24.8125 -1.421875 18.96875 -0.25 
Q 13.140625 0.921875 6.890625 3.21875 
L 6.890625 13.375 
Q 12.890625 10.015625 18.65625 8.296875 
Q 24.421875 6.59375 29.984375 6.59375 
Q 38.421875 6.59375 43.015625 9.90625 
Q 47.609375 13.234375 47.609375 19.390625 
Q 47.609375 24.75 44.3125 27.78125 
Q 41.015625 30.8125 33.5 32.328125 
L 27.484375 33.5 
Q 16.453125 35.6875 11.515625 40.375 
Q 6.59375 45.0625 6.59375 53.421875 
Q 6.59375 63.09375 13.40625 68.65625 
Q 20.21875 74.21875 32.171875 74.21875 
Q 37.3125 74.21875 42.625 73.28125 
Q 47.953125 72.359375 53.515625 70.515625 
z
" id="DejaVuSans-83"/>
    </defs>
    <g style="fill:#8c564b;" transform="translate(448.611429 458.115059)scale(0.1 -0.1)">
     <use xlink:href="#DejaVuSans-75"/>
     <use x="65.576172" xlink:href="#DejaVuSans-83"/>
    </g>
   </g>
   <g id="text_13">
    <g id="patch_11">
     <path d="M 670.195481 314.616231 
C 671.695481 316.116231 683.998606 316.116231 685.498606 314.616231 
C 686.998606 313.116231 686.998606 303.438106 685.498606 301.938106 
C 683.998606 300.438106 671.695481 300.438106 670.195481 301.938106 
C 668.695481 303.438106 668.695481 313.116231 670.195481 314.616231 
z
" style="fill:#ffffff;stroke:#e377c2;stroke-linejoin:miter;"/>
    </g>
    <!-- KY -->
    <defs>
     <path d="M -0.203125 72.90625 
L 10.40625 72.90625 
L 30.609375 42.921875 
L 50.6875 72.90625 
L 61.28125 72.90625 
L 35.5 34.71875 
L 35.5 0 
L 25.59375 0 
L 25.59375 34.71875 
z
" id="DejaVuSans-89"/>
    </defs>
    <g style="fill:#e377c2;" transform="translate(671.695481 311.036543)scale(0.1 -0.1)">
     <use xlink:href="#DejaVuSans-75"/>
     <use x="61.951172" xlink:href="#DejaVuSans-89"/>
    </g>
   </g>
   <g id="text_14">
    <g id="patch_12">
     <path d="M 557.057464 212.802341 
C 558.557464 214.302341 574.666839 214.302341 576.166839 212.802341 
C 577.666839 211.302341 577.666839 201.624216 576.166839 200.124216 
C 574.666839 198.624216 558.557464 198.624216 557.057464 200.124216 
C 555.557464 201.624216 555.557464 211.302341 557.057464 212.802341 
z
" style="fill:#ffffff;stroke:#7f7f7f;stroke-linejoin:miter;"/>
    </g>
    <!-- MN -->
    <defs>
     <path d="M 9.8125 72.90625 
L 24.515625 72.90625 
L 43.109375 23.296875 
L 61.8125 72.90625 
L 76.515625 72.90625 
L 76.515625 0 
L 66.890625 0 
L 66.890625 64.015625 
L 48.09375 14.015625 
L 38.1875 14.015625 
L 19.390625 64.015625 
L 19.390625 0 
L 9.8125 0 
z
" id="DejaVuSans-77"/>
     <path d="M 9.8125 72.90625 
L 23.09375 72.90625 
L 55.421875 11.921875 
L 55.421875 72.90625 
L 64.984375 72.90625 
L 64.984375 0 
L 51.703125 0 
L 19.390625 60.984375 
L 19.390625 0 
L 9.8125 0 
z
" id="DejaVuSans-78"/>
    </defs>
    <g style="fill:#7f7f7f;" transform="translate(558.557464 209.222654)scale(0.1 -0.1)">
     <use xlink:href="#DejaVuSans-77"/>
     <use x="86.279297" xlink:href="#DejaVuSans-78"/>
    </g>
   </g>
   <g id="text_15">
    <g id="patch_13">
     <path d="M 709.154026 244.035579 
C 710.654026 245.535579 727.154026 245.535579 728.654026 244.035579 
C 730.154026 242.535579 730.154026 232.857454 728.654026 231.357454 
C 727.154026 229.857454 710.654026 229.857454 709.154026 231.357454 
C 707.654026 232.857454 707.654026 242.535579 709.154026 244.035579 
z
" style="fill:#ffffff;stroke:#bcbd22;stroke-linejoin:miter;"/>
    </g>
    <!-- MO -->
    <defs>
     <path d="M 39.40625 66.21875 
Q 28.65625 66.21875 22.328125 58.203125 
Q 16.015625 50.203125 16.015625 36.375 
Q 16.015625 22.609375 22.328125 14.59375 
Q 28.65625 6.59375 39.40625 6.59375 
Q 50.140625 6.59375 56.421875 14.59375 
Q 62.703125 22.609375 62.703125 36.375 
Q 62.703125 50.203125 56.421875 58.203125 
Q 50.140625 66.21875 39.40625 66.21875 
z
M 39.40625 74.21875 
Q 54.734375 74.21875 63.90625 63.9375 
Q 73.09375 53.65625 73.09375 36.375 
Q 73.09375 19.140625 63.90625 8.859375 
Q 54.734375 -1.421875 39.40625 -1.421875 
Q 24.03125 -1.421875 14.8125 8.828125 
Q 5.609375 19.09375 5.609375 36.375 
Q 5.609375 53.65625 14.8125 63.9375 
Q 24.03125 74.21875 39.40625 74.21875 
z
" id="DejaVuSans-79"/>
    </defs>
    <g style="fill:#bcbd22;" transform="translate(710.654026 240.455891)scale(0.1 -0.1)">
     <use xlink:href="#DejaVuSans-77"/>
     <use x="86.279297" xlink:href="#DejaVuSans-79"/>
    </g>
   </g>
   <g id="text_16">
    <g id="patch_14">
     <path d="M 653.498961 283.910034 
C 654.998961 285.410034 669.975524 285.410034 671.475524 283.910034 
C 672.975524 282.410034 672.975524 272.731909 671.475524 271.231909 
C 669.975524 269.731909 654.998961 269.731909 653.498961 271.231909 
C 651.998961 272.731909 651.998961 282.410034 653.498961 283.910034 
z
" style="fill:#ffffff;stroke:#17becf;stroke-linejoin:miter;"/>
    </g>
    <!-- MS -->
    <g style="fill:#17becf;" transform="translate(654.998961 280.330347)scale(0.1 -0.1)">
     <use xlink:href="#DejaVuSans-77"/>
     <use x="86.279297" xlink:href="#DejaVuSans-83"/>
    </g>
   </g>
   <g id="text_17">
    <g id="patch_15">
     <path d="M 638.952751 193.519381 
C 640.452751 195.019381 654.916813 195.019381 656.416813 193.519381 
C 657.916813 192.019381 657.916813 182.341256 656.416813 180.841256 
C 654.916813 179.341256 640.452751 179.341256 638.952751 180.841256 
C 637.452751 182.341256 637.452751 192.019381 638.952751 193.519381 
z
" style="fill:#ffffff;stroke:#1f77b4;stroke-linejoin:miter;"/>
    </g>
    <!-- NC -->
    <g style="fill:#1f77b4;" transform="translate(640.452751 189.939693)scale(0.1 -0.1)">
     <use xlink:href="#DejaVuSans-78"/>
     <use x="74.804688" xlink:href="#DejaVuSans-67"/>
    </g>
   </g>
   <g id="text_18">
    <g id="patch_16">
     <path d="M 260.203169 460.058836 
C 261.703169 461.558836 277.812544 461.558836 279.312544 460.058836 
C 280.812544 458.558836 280.812544 448.880711 279.312544 447.380711 
C 277.812544 445.880711 261.703169 445.880711 260.203169 447.380711 
C 258.703169 448.880711 258.703169 458.558836 260.203169 460.058836 
z
" style="fill:#ffffff;stroke:#ff7f0e;stroke-linejoin:miter;"/>
    </g>
    <!-- NM -->
    <g style="fill:#ff7f0e;" transform="translate(261.703169 456.479149)scale(0.1 -0.1)">
     <use xlink:href="#DejaVuSans-78"/>
     <use x="74.804688" xlink:href="#DejaVuSans-77"/>
    </g>
   </g>
   <g id="text_19">
    <g id="patch_17">
     <path d="M 729.392231 308.799573 
C 730.892231 310.299573 745.214106 310.299573 746.714106 308.799573 
C 748.214106 307.299573 748.214106 297.621448 746.714106 296.121448 
C 745.214106 294.621448 730.892231 294.621448 729.392231 296.121448 
C 727.892231 297.621448 727.892231 307.299573 729.392231 308.799573 
z
" style="fill:#ffffff;stroke:#2ca02c;stroke-linejoin:miter;"/>
    </g>
    <!-- NV -->
    <defs>
     <path d="M 28.609375 0 
L 0.78125 72.90625 
L 11.078125 72.90625 
L 34.1875 11.53125 
L 57.328125 72.90625 
L 67.578125 72.90625 
L 39.796875 0 
z
" id="DejaVuSans-86"/>
    </defs>
    <g style="fill:#2ca02c;" transform="translate(730.892231 305.219885)scale(0.1 -0.1)">
     <use xlink:href="#DejaVuSans-78"/>
     <use x="74.804688" xlink:href="#DejaVuSans-86"/>
    </g>
   </g>
   <g id="text_20">
    <g id="patch_18">
     <path d="M 654.787273 332.769232 
C 656.287273 334.269232 670.71696 334.269232 672.21696 332.769232 
C 673.71696 331.269232 673.71696 321.591107 672.21696 320.091107 
C 670.71696 318.591107 656.287273 318.591107 654.787273 320.091107 
C 653.287273 321.591107 653.287273 331.269232 654.787273 332.769232 
z
" style="fill:#ffffff;stroke:#d62728;stroke-linejoin:miter;"/>
    </g>
    <!-- OK -->
    <g style="fill:#d62728;" transform="translate(656.287273 329.189545)scale(0.1 -0.1)">
     <use xlink:href="#DejaVuSans-79"/>
     <use x="78.710938" xlink:href="#DejaVuSans-75"/>
    </g>
   </g>
   <g id="text_21">
    <g id="patch_19">
     <path d="M 181.822286 508.249541 
C 183.322286 509.749541 198.142598 509.749541 199.642598 508.249541 
C 201.142598 506.749541 201.142598 497.071416 199.642598 495.571416 
C 198.142598 494.071416 183.322286 494.071416 181.822286 495.571416 
C 180.322286 497.071416 180.322286 506.749541 181.822286 508.249541 
z
" style="fill:#ffffff;stroke:#9467bd;stroke-linejoin:miter;"/>
    </g>
    <!-- OR -->
    <defs>
     <path d="M 44.390625 34.1875 
Q 47.5625 33.109375 50.5625 29.59375 
Q 53.5625 26.078125 56.59375 19.921875 
L 66.609375 0 
L 56 0 
L 46.6875 18.703125 
Q 43.0625 26.03125 39.671875 28.421875 
Q 36.28125 30.8125 30.421875 30.8125 
L 19.671875 30.8125 
L 19.671875 0 
L 9.8125 0 
L 9.8125 72.90625 
L 32.078125 72.90625 
Q 44.578125 72.90625 50.734375 67.671875 
Q 56.890625 62.453125 56.890625 51.90625 
Q 56.890625 45.015625 53.6875 40.46875 
Q 50.484375 35.9375 44.390625 34.1875 
z
M 19.671875 64.796875 
L 19.671875 38.921875 
L 32.078125 38.921875 
Q 39.203125 38.921875 42.84375 42.21875 
Q 46.484375 45.515625 46.484375 51.90625 
Q 46.484375 58.296875 42.84375 61.546875 
Q 39.203125 64.796875 32.078125 64.796875 
z
" id="DejaVuSans-82"/>
    </defs>
    <g style="fill:#9467bd;" transform="translate(183.322286 504.669854)scale(0.1 -0.1)">
     <use xlink:href="#DejaVuSans-79"/>
     <use x="78.710938" xlink:href="#DejaVuSans-82"/>
    </g>
   </g>
   <g id="text_22">
    <g id="patch_20">
     <path d="M 576.071429 285.686477 
C 577.571429 287.186477 587.469866 287.186477 588.969866 285.686477 
C 590.469866 284.186477 590.469866 274.508352 588.969866 273.008352 
C 587.469866 271.508352 577.571429 271.508352 576.071429 273.008352 
C 574.571429 274.508352 574.571429 284.186477 576.071429 285.686477 
z
" style="fill:#ffffff;stroke:#8c564b;stroke-linejoin:miter;"/>
    </g>
    <!-- RI -->
    <g style="fill:#8c564b;" transform="translate(577.571429 282.10679)scale(0.1 -0.1)">
     <use xlink:href="#DejaVuSans-82"/>
     <use x="69.482422" xlink:href="#DejaVuSans-73"/>
    </g>
   </g>
   <g id="text_23">
    <g id="patch_21">
     <path d="M 618.946442 306.885115 
C 620.446442 308.385115 633.777692 308.385115 635.277692 306.885115 
C 636.777692 305.385115 636.777692 295.70699 635.277692 294.20699 
C 633.777692 292.70699 620.446442 292.70699 618.946442 294.20699 
C 617.446442 295.70699 617.446442 305.385115 618.946442 306.885115 
z
" style="fill:#ffffff;stroke:#e377c2;stroke-linejoin:miter;"/>
    </g>
    <!-- SC -->
    <g style="fill:#e377c2;" transform="translate(620.446442 303.305428)scale(0.1 -0.1)">
     <use xlink:href="#DejaVuSans-83"/>
     <use x="63.476562" xlink:href="#DejaVuSans-67"/>
    </g>
   </g>
   <g id="text_24">
    <g id="patch_22">
     <path d="M 728.478701 361.110975 
C 729.978701 362.610975 743.567764 362.610975 745.067764 361.110975 
C 746.567764 359.610975 746.567764 349.93285 745.067764 348.43285 
C 743.567764 346.93285 729.978701 346.93285 728.478701 348.43285 
C 726.978701 349.93285 726.978701 359.610975 728.478701 361.110975 
z
" style="fill:#ffffff;stroke:#7f7f7f;stroke-linejoin:miter;"/>
    </g>
    <!-- TN -->
    <defs>
     <path d="M -0.296875 72.90625 
L 61.375 72.90625 
L 61.375 64.59375 
L 35.5 64.59375 
L 35.5 0 
L 25.59375 0 
L 25.59375 64.59375 
L -0.296875 64.59375 
z
" id="DejaVuSans-84"/>
    </defs>
    <g style="fill:#7f7f7f;" transform="translate(729.978701 357.531288)scale(0.1 -0.1)">
     <use xlink:href="#DejaVuSans-84"/>
     <use x="61.083984" xlink:href="#DejaVuSans-78"/>
    </g>
   </g>
   <g id="text_25">
    <g id="patch_23">
     <path d="M 786.702811 93.819687 
C 788.202811 95.319687 801.246561 95.319687 802.746561 93.819687 
C 804.246561 92.319687 804.246561 82.641562 802.746561 81.141562 
C 801.246561 79.641562 788.202811 79.641562 786.702811 81.141562 
C 785.202811 82.641562 785.202811 92.319687 786.702811 93.819687 
z
" style="fill:#ffffff;stroke:#bcbd22;stroke-linejoin:miter;"/>
    </g>
    <!-- VA -->
    <g style="fill:#bcbd22;" transform="translate(788.202811 90.24)scale(0.1 -0.1)">
     <use xlink:href="#DejaVuSans-86"/>
     <use x="62.033203" xlink:href="#DejaVuSans-65"/>
    </g>
   </g>
   <g id="text_26">
    <g id="patch_24">
     <path d="M 806.357143 245.600809 
C 807.857143 247.100809 820.694643 247.100809 822.194643 245.600809 
C 823.694643 244.100809 823.694643 234.422684 822.194643 232.922684 
C 820.694643 231.422684 807.857143 231.422684 806.357143 232.922684 
C 804.857143 234.422684 804.857143 244.100809 806.357143 245.600809 
z
" style="fill:#ffffff;stroke:#17becf;stroke-linejoin:miter;"/>
    </g>
    <!-- WI -->
    <defs>
     <path d="M 3.328125 72.90625 
L 13.28125 72.90625 
L 28.609375 11.28125 
L 43.890625 72.90625 
L 54.984375 72.90625 
L 70.3125 11.28125 
L 85.59375 72.90625 
L 95.609375 72.90625 
L 77.296875 0 
L 64.890625 0 
L 49.515625 63.28125 
L 33.984375 0 
L 21.578125 0 
z
" id="DejaVuSans-87"/>
    </defs>
    <g style="fill:#17becf;" transform="translate(807.857143 242.021122)scale(0.1 -0.1)">
     <use xlink:href="#DejaVuSans-87"/>
     <use x="98.876953" xlink:href="#DejaVuSans-73"/>
    </g>
   </g>
   <g id="text_27">
    <!-- 1d -->
    <g style="fill:#b2b2b2;" transform="translate(170.380883 88.44103)scale(0.1 -0.1)">
     <use xlink:href="#DejaVuSans-49"/>
     <use x="63.623047" xlink:href="#DejaVuSans-100"/>
    </g>
   </g>
   <g id="text_28">
    <!-- 2d -->
    <g style="fill:#b2b2b2;" transform="translate(248.761766 88.44103)scale(0.1 -0.1)">
     <use xlink:href="#DejaVuSans-50"/>
     <use x="63.623047" xlink:href="#DejaVuSans-100"/>
    </g>
   </g>
   <g id="text_29">
    <!-- 3d -->
    <defs>
     <path d="M 40.578125 39.3125 
Q 47.65625 37.796875 51.625 33 
Q 55.609375 28.21875 55.609375 21.1875 
Q 55.609375 10.40625 48.1875 4.484375 
Q 40.765625 -1.421875 27.09375 -1.421875 
Q 22.515625 -1.421875 17.65625 -0.515625 
Q 12.796875 0.390625 7.625 2.203125 
L 7.625 11.71875 
Q 11.71875 9.328125 16.59375 8.109375 
Q 21.484375 6.890625 26.8125 6.890625 
Q 36.078125 6.890625 40.9375 10.546875 
Q 45.796875 14.203125 45.796875 21.1875 
Q 45.796875 27.640625 41.28125 31.265625 
Q 36.765625 34.90625 28.71875 34.90625 
L 20.21875 34.90625 
L 20.21875 43.015625 
L 29.109375 43.015625 
Q 36.375 43.015625 40.234375 45.921875 
Q 44.09375 48.828125 44.09375 54.296875 
Q 44.09375 59.90625 40.109375 62.90625 
Q 36.140625 65.921875 28.71875 65.921875 
Q 24.65625 65.921875 20.015625 65.03125 
Q 15.375 64.15625 9.8125 62.3125 
L 9.8125 71.09375 
Q 15.4375 72.65625 20.34375 73.4375 
Q 25.25 74.21875 29.59375 74.21875 
Q 40.828125 74.21875 47.359375 69.109375 
Q 53.90625 64.015625 53.90625 55.328125 
Q 53.90625 49.265625 50.4375 45.09375 
Q 46.96875 40.921875 40.578125 39.3125 
z
" id="DejaVuSans-51"/>
    </defs>
    <g style="fill:#b2b2b2;" transform="translate(327.142649 88.44103)scale(0.1 -0.1)">
     <use xlink:href="#DejaVuSans-51"/>
     <use x="63.623047" xlink:href="#DejaVuSans-100"/>
    </g>
   </g>
   <g id="text_30">
    <!-- 7d -->
    <g style="fill:#b2b2b2;" transform="translate(643.680831 85.564033)scale(0.1 -0.1)">
     <use xlink:href="#DejaVuSans-55"/>
     <use x="63.623047" xlink:href="#DejaVuSans-100"/>
    </g>
   </g>
   <g id="text_31">
    <!-- COVID-19 Deaths by States as of 2020-05-02 03:08 EDT -->
    <defs>
     <path d="M 4.890625 31.390625 
L 31.203125 31.390625 
L 31.203125 23.390625 
L 4.890625 23.390625 
z
" id="DejaVuSans-45"/>
     <path d="M 10.984375 1.515625 
L 10.984375 10.5 
Q 14.703125 8.734375 18.5 7.8125 
Q 22.3125 6.890625 25.984375 6.890625 
Q 35.75 6.890625 40.890625 13.453125 
Q 46.046875 20.015625 46.78125 33.40625 
Q 43.953125 29.203125 39.59375 26.953125 
Q 35.25 24.703125 29.984375 24.703125 
Q 19.046875 24.703125 12.671875 31.3125 
Q 6.296875 37.9375 6.296875 49.421875 
Q 6.296875 60.640625 12.9375 67.421875 
Q 19.578125 74.21875 30.609375 74.21875 
Q 43.265625 74.21875 49.921875 64.515625 
Q 56.59375 54.828125 56.59375 36.375 
Q 56.59375 19.140625 48.40625 8.859375 
Q 40.234375 -1.421875 26.421875 -1.421875 
Q 22.703125 -1.421875 18.890625 -0.6875 
Q 15.09375 0.046875 10.984375 1.515625 
z
M 30.609375 32.421875 
Q 37.25 32.421875 41.125 36.953125 
Q 45.015625 41.5 45.015625 49.421875 
Q 45.015625 57.28125 41.125 61.84375 
Q 37.25 66.40625 30.609375 66.40625 
Q 23.96875 66.40625 20.09375 61.84375 
Q 16.21875 57.28125 16.21875 49.421875 
Q 16.21875 41.5 20.09375 36.953125 
Q 23.96875 32.421875 30.609375 32.421875 
z
" id="DejaVuSans-57"/>
     <path d="M 48.6875 27.296875 
Q 48.6875 37.203125 44.609375 42.84375 
Q 40.53125 48.484375 33.40625 48.484375 
Q 26.265625 48.484375 22.1875 42.84375 
Q 18.109375 37.203125 18.109375 27.296875 
Q 18.109375 17.390625 22.1875 11.75 
Q 26.265625 6.109375 33.40625 6.109375 
Q 40.53125 6.109375 44.609375 11.75 
Q 48.6875 17.390625 48.6875 27.296875 
z
M 18.109375 46.390625 
Q 20.953125 51.265625 25.265625 53.625 
Q 29.59375 56 35.59375 56 
Q 45.5625 56 51.78125 48.09375 
Q 58.015625 40.1875 58.015625 27.296875 
Q 58.015625 14.40625 51.78125 6.484375 
Q 45.5625 -1.421875 35.59375 -1.421875 
Q 29.59375 -1.421875 25.265625 0.953125 
Q 20.953125 3.328125 18.109375 8.203125 
L 18.109375 0 
L 9.078125 0 
L 9.078125 75.984375 
L 18.109375 75.984375 
z
" id="DejaVuSans-98"/>
     <path d="M 30.609375 48.390625 
Q 23.390625 48.390625 19.1875 42.75 
Q 14.984375 37.109375 14.984375 27.296875 
Q 14.984375 17.484375 19.15625 11.84375 
Q 23.34375 6.203125 30.609375 6.203125 
Q 37.796875 6.203125 41.984375 11.859375 
Q 46.1875 17.53125 46.1875 27.296875 
Q 46.1875 37.015625 41.984375 42.703125 
Q 37.796875 48.390625 30.609375 48.390625 
z
M 30.609375 56 
Q 42.328125 56 49.015625 48.375 
Q 55.71875 40.765625 55.71875 27.296875 
Q 55.71875 13.875 49.015625 6.21875 
Q 42.328125 -1.421875 30.609375 -1.421875 
Q 18.84375 -1.421875 12.171875 6.21875 
Q 5.515625 13.875 5.515625 27.296875 
Q 5.515625 40.765625 12.171875 48.375 
Q 18.84375 56 30.609375 56 
z
" id="DejaVuSans-111"/>
     <path d="M 37.109375 75.984375 
L 37.109375 68.5 
L 28.515625 68.5 
Q 23.6875 68.5 21.796875 66.546875 
Q 19.921875 64.59375 19.921875 59.515625 
L 19.921875 54.6875 
L 34.71875 54.6875 
L 34.71875 47.703125 
L 19.921875 47.703125 
L 19.921875 0 
L 10.890625 0 
L 10.890625 47.703125 
L 2.296875 47.703125 
L 2.296875 54.6875 
L 10.890625 54.6875 
L 10.890625 58.5 
Q 10.890625 67.625 15.140625 71.796875 
Q 19.390625 75.984375 28.609375 75.984375 
z
" id="DejaVuSans-102"/>
     <path d="M 10.796875 72.90625 
L 49.515625 72.90625 
L 49.515625 64.59375 
L 19.828125 64.59375 
L 19.828125 46.734375 
Q 21.96875 47.46875 24.109375 47.828125 
Q 26.265625 48.1875 28.421875 48.1875 
Q 40.625 48.1875 47.75 41.5 
Q 54.890625 34.8125 54.890625 23.390625 
Q 54.890625 11.625 47.5625 5.09375 
Q 40.234375 -1.421875 26.90625 -1.421875 
Q 22.3125 -1.421875 17.546875 -0.640625 
Q 12.796875 0.140625 7.71875 1.703125 
L 7.71875 11.625 
Q 12.109375 9.234375 16.796875 8.0625 
Q 21.484375 6.890625 26.703125 6.890625 
Q 35.15625 6.890625 40.078125 11.328125 
Q 45.015625 15.765625 45.015625 23.390625 
Q 45.015625 31 40.078125 35.4375 
Q 35.15625 39.890625 26.703125 39.890625 
Q 22.75 39.890625 18.8125 39.015625 
Q 14.890625 38.140625 10.796875 36.28125 
z
" id="DejaVuSans-53"/>
     <path d="M 11.71875 12.40625 
L 22.015625 12.40625 
L 22.015625 0 
L 11.71875 0 
z
M 11.71875 51.703125 
L 22.015625 51.703125 
L 22.015625 39.3125 
L 11.71875 39.3125 
z
" id="DejaVuSans-58"/>
     <path d="M 31.78125 34.625 
Q 24.75 34.625 20.71875 30.859375 
Q 16.703125 27.09375 16.703125 20.515625 
Q 16.703125 13.921875 20.71875 10.15625 
Q 24.75 6.390625 31.78125 6.390625 
Q 38.8125 6.390625 42.859375 10.171875 
Q 46.921875 13.96875 46.921875 20.515625 
Q 46.921875 27.09375 42.890625 30.859375 
Q 38.875 34.625 31.78125 34.625 
z
M 21.921875 38.8125 
Q 15.578125 40.375 12.03125 44.71875 
Q 8.5 49.078125 8.5 55.328125 
Q 8.5 64.0625 14.71875 69.140625 
Q 20.953125 74.21875 31.78125 74.21875 
Q 42.671875 74.21875 48.875 69.140625 
Q 55.078125 64.0625 55.078125 55.328125 
Q 55.078125 49.078125 51.53125 44.71875 
Q 48 40.375 41.703125 38.8125 
Q 48.828125 37.15625 52.796875 32.3125 
Q 56.78125 27.484375 56.78125 20.515625 
Q 56.78125 9.90625 50.3125 4.234375 
Q 43.84375 -1.421875 31.78125 -1.421875 
Q 19.734375 -1.421875 13.25 4.234375 
Q 6.78125 9.90625 6.78125 20.515625 
Q 6.78125 27.484375 10.78125 32.3125 
Q 14.796875 37.15625 21.921875 38.8125 
z
M 18.3125 54.390625 
Q 18.3125 48.734375 21.84375 45.5625 
Q 25.390625 42.390625 31.78125 42.390625 
Q 38.140625 42.390625 41.71875 45.5625 
Q 45.3125 48.734375 45.3125 54.390625 
Q 45.3125 60.0625 41.71875 63.234375 
Q 38.140625 66.40625 31.78125 66.40625 
Q 25.390625 66.40625 21.84375 63.234375 
Q 18.3125 60.0625 18.3125 54.390625 
z
" id="DejaVuSans-56"/>
    </defs>
    <g style="fill:#666666;" transform="translate(310.883438 63.12)scale(0.12 -0.12)">
     <use xlink:href="#DejaVuSans-67"/>
     <use x="69.824219" xlink:href="#DejaVuSans-79"/>
     <use x="146.785156" xlink:href="#DejaVuSans-86"/>
     <use x="215.193359" xlink:href="#DejaVuSans-73"/>
     <use x="244.685547" xlink:href="#DejaVuSans-68"/>
     <use x="321.6875" xlink:href="#DejaVuSans-45"/>
     <use x="357.771484" xlink:href="#DejaVuSans-49"/>
     <use x="421.394531" xlink:href="#DejaVuSans-57"/>
     <use x="485.017578" xlink:href="#DejaVuSans-32"/>
     <use x="516.804688" xlink:href="#DejaVuSans-68"/>
     <use x="593.806641" xlink:href="#DejaVuSans-101"/>
     <use x="655.330078" xlink:href="#DejaVuSans-97"/>
     <use x="716.609375" xlink:href="#DejaVuSans-116"/>
     <use x="755.818359" xlink:href="#DejaVuSans-104"/>
     <use x="819.197266" xlink:href="#DejaVuSans-115"/>
     <use x="871.296875" xlink:href="#DejaVuSans-32"/>
     <use x="903.083984" xlink:href="#DejaVuSans-98"/>
     <use x="966.560547" xlink:href="#DejaVuSans-121"/>
     <use x="1025.740234" xlink:href="#DejaVuSans-32"/>
     <use x="1057.527344" xlink:href="#DejaVuSans-83"/>
     <use x="1121.003906" xlink:href="#DejaVuSans-116"/>
     <use x="1160.212891" xlink:href="#DejaVuSans-97"/>
     <use x="1221.492188" xlink:href="#DejaVuSans-116"/>
     <use x="1260.701172" xlink:href="#DejaVuSans-101"/>
     <use x="1322.224609" xlink:href="#DejaVuSans-115"/>
     <use x="1374.324219" xlink:href="#DejaVuSans-32"/>
     <use x="1406.111328" xlink:href="#DejaVuSans-97"/>
     <use x="1467.390625" xlink:href="#DejaVuSans-115"/>
     <use x="1519.490234" xlink:href="#DejaVuSans-32"/>
     <use x="1551.277344" xlink:href="#DejaVuSans-111"/>
     <use x="1612.458984" xlink:href="#DejaVuSans-102"/>
     <use x="1647.664062" xlink:href="#DejaVuSans-32"/>
     <use x="1679.451172" xlink:href="#DejaVuSans-50"/>
     <use x="1743.074219" xlink:href="#DejaVuSans-48"/>
     <use x="1806.697266" xlink:href="#DejaVuSans-50"/>
     <use x="1870.320312" xlink:href="#DejaVuSans-48"/>
     <use x="1933.943359" xlink:href="#DejaVuSans-45"/>
     <use x="1970.027344" xlink:href="#DejaVuSans-48"/>
     <use x="2033.650391" xlink:href="#DejaVuSans-53"/>
     <use x="2097.273438" xlink:href="#DejaVuSans-45"/>
     <use x="2133.357422" xlink:href="#DejaVuSans-48"/>
     <use x="2196.980469" xlink:href="#DejaVuSans-50"/>
     <use x="2260.603516" xlink:href="#DejaVuSans-32"/>
     <use x="2292.390625" xlink:href="#DejaVuSans-48"/>
     <use x="2356.013672" xlink:href="#DejaVuSans-51"/>
     <use x="2419.636719" xlink:href="#DejaVuSans-58"/>
     <use x="2453.328125" xlink:href="#DejaVuSans-48"/>
     <use x="2516.951172" xlink:href="#DejaVuSans-56"/>
     <use x="2580.574219" xlink:href="#DejaVuSans-32"/>
     <use x="2612.361328" xlink:href="#DejaVuSans-69"/>
     <use x="2675.544922" xlink:href="#DejaVuSans-68"/>
     <use x="2752.546875" xlink:href="#DejaVuSans-84"/>
    </g>
   </g>
  </g>
 </g>
 <defs>
  <clipPath id="p50e36e23ae">
   <rect height="443.52" width="725.4" x="117" y="69.12"/>
  </clipPath>
 </defs>
</svg>
