<?xml version="1.0" encoding="utf-8" standalone="no"?>
<!DOCTYPE svg PUBLIC "-//W3C//DTD SVG 1.1//EN"
  "http://www.w3.org/Graphics/SVG/1.1/DTD/svg11.dtd">
<!-- Created with matplotlib (https://matplotlib.org/) -->
<svg height="576pt" version="1.1" viewBox="0 0 936 576" width="936pt" xmlns="http://www.w3.org/2000/svg" xmlns:xlink="http://www.w3.org/1999/xlink">
 <defs>
  <style type="text/css">
*{stroke-linecap:butt;stroke-linejoin:round;}
  </style>
 </defs>
 <g id="figure_1">
  <g id="patch_1">
   <path d="M 0 576 
L 936 576 
L 936 0 
L 0 0 
z
" style="fill:#ffffff;"/>
  </g>
  <g id="axes_1">
   <g id="patch_2">
    <path d="M 117 512.64 
L 842.4 512.64 
L 842.4 69.12 
L 117 69.12 
z
" style="fill:#ffffff;"/>
   </g>
   <g id="line2d_1">
    <path clip-path="url(#p7561b81810)" d="M 117 512.64 
L 123.795316 486.639668 
L 130.590632 459.908366 
L 137.385948 432.425546 
L 144.181265 404.170078 
L 150.976581 375.120242 
L 157.771897 345.253703 
L 164.567213 314.547501 
L 171.362529 282.97803 
L 178.157845 250.521021 
L 184.953162 217.151521 
L 191.748478 182.843877 
L 198.543794 147.571714 
L 205.33911 111.307915 
L 212.134426 74.024602 
L 218.929742 35.693112 
L 225.259959 -1 
L 225.259959 -1 
" style="fill:none;stroke:#b2b2b2;stroke-dasharray:1.5,2.475;stroke-dashoffset:0;stroke-width:1.5;"/>
   </g>
   <g id="line2d_2">
    <path clip-path="url(#p7561b81810)" d="M 117 512.64 
L 127.192974 493.207489 
L 137.385948 473.366659 
L 147.578923 453.108932 
L 157.771897 432.425546 
L 167.964871 411.307559 
L 178.157845 389.745837 
L 188.35082 367.731059 
L 198.543794 345.253703 
L 208.736768 322.304049 
L 218.929742 298.872175 
L 229.122717 274.947948 
L 239.315691 250.521021 
L 249.508665 225.580833 
L 259.701639 200.116598 
L 269.894614 174.117306 
L 280.087588 147.571714 
L 290.280562 120.468342 
L 300.473536 92.79547 
L 310.666511 64.541133 
L 320.859485 35.693112 
L 331.052459 6.238933 
L 333.52313 -1 
L 333.52313 -1 
" style="fill:none;stroke:#b2b2b2;stroke-dasharray:1.5,2.475;stroke-dashoffset:0;stroke-width:1.5;"/>
   </g>
   <g id="line2d_3">
    <path clip-path="url(#p7561b81810)" d="M 117 512.64 
L 130.590632 495.386665 
L 144.181265 477.811456 
L 157.771897 459.908366 
L 171.362529 441.67128 
L 184.953162 423.093967 
L 198.543794 404.170078 
L 212.134426 384.89315 
L 225.725059 365.256594 
L 239.315691 345.253703 
L 252.906323 324.877641 
L 266.496956 304.121447 
L 280.087588 282.97803 
L 293.67822 261.440166 
L 307.268852 239.500495 
L 320.859485 217.151521 
L 334.450117 194.38561 
L 348.040749 171.194982 
L 361.631382 147.571714 
L 375.222014 123.507734 
L 388.812646 98.994822 
L 402.403279 74.024602 
L 415.993911 48.588541 
L 429.584543 22.677951 
L 441.786299 -1 
L 441.786299 -1 
" style="fill:none;stroke:#b2b2b2;stroke-dasharray:1.5,2.475;stroke-dashoffset:0;stroke-width:1.5;"/>
   </g>
   <g id="line2d_4">
    <path clip-path="url(#p7561b81810)" d="M 117 512.64 
L 144.181265 497.870995 
L 171.362529 482.866137 
L 198.543794 467.621657 
L 225.725059 452.133731 
L 252.906323 436.398469 
L 280.087588 420.411923 
L 307.268852 404.170078 
L 334.450117 387.66886 
L 361.631382 370.904124 
L 388.812646 353.871663 
L 415.993911 336.567202 
L 443.175176 318.986397 
L 470.35644 301.124834 
L 497.537705 282.97803 
L 524.71897 264.541431 
L 551.900234 245.810407 
L 579.081499 226.780258 
L 606.262763 207.446206 
L 633.444028 187.803398 
L 657.227635 170.358791 
L 681.011241 152.670666 
L 704.794848 134.735624 
L 728.578454 116.550218 
L 752.362061 98.110953 
L 776.145667 79.414286 
L 799.929274 60.456623 
L 823.712881 41.234321 
L 847.496487 21.743686 
L 871.280094 1.980971 
L 874.838971 -1 
L 874.838971 -1 
" style="fill:none;stroke:#b2b2b2;stroke-dasharray:1.5,2.475;stroke-dashoffset:0;stroke-width:1.5;"/>
   </g>
   <g id="matplotlib.axis_1">
    <g id="xtick_1">
     <g id="line2d_5">
      <path clip-path="url(#p7561b81810)" d="M 117 512.64 
L 117 69.12 
" style="fill:none;stroke:#e6e6e6;stroke-linecap:square;stroke-width:0.8;"/>
     </g>
     <g id="line2d_6">
      <defs>
       <path d="M 0 0 
L 0 3.5 
" id="m3dffa534d5" style="stroke:#666666;stroke-width:0.8;"/>
      </defs>
      <g>
       <use style="fill:#666666;stroke:#666666;stroke-width:0.8;" x="117" xlink:href="#m3dffa534d5" y="512.64"/>
      </g>
     </g>
     <g id="text_1">
      <!-- 0 -->
      <defs>
       <path d="M 31.78125 66.40625 
Q 24.171875 66.40625 20.328125 58.90625 
Q 16.5 51.421875 16.5 36.375 
Q 16.5 21.390625 20.328125 13.890625 
Q 24.171875 6.390625 31.78125 6.390625 
Q 39.453125 6.390625 43.28125 13.890625 
Q 47.125 21.390625 47.125 36.375 
Q 47.125 51.421875 43.28125 58.90625 
Q 39.453125 66.40625 31.78125 66.40625 
z
M 31.78125 74.21875 
Q 44.046875 74.21875 50.515625 64.515625 
Q 56.984375 54.828125 56.984375 36.375 
Q 56.984375 17.96875 50.515625 8.265625 
Q 44.046875 -1.421875 31.78125 -1.421875 
Q 19.53125 -1.421875 13.0625 8.265625 
Q 6.59375 17.96875 6.59375 36.375 
Q 6.59375 54.828125 13.0625 64.515625 
Q 19.53125 74.21875 31.78125 74.21875 
z
" id="DejaVuSans-48"/>
      </defs>
      <g style="fill:#666666;" transform="translate(113.81875 527.238438)scale(0.1 -0.1)">
       <use xlink:href="#DejaVuSans-48"/>
      </g>
     </g>
    </g>
    <g id="xtick_2">
     <g id="line2d_7">
      <path clip-path="url(#p7561b81810)" d="M 354.836066 512.64 
L 354.836066 69.12 
" style="fill:none;stroke:#e6e6e6;stroke-linecap:square;stroke-width:0.8;"/>
     </g>
     <g id="line2d_8">
      <g>
       <use style="fill:#666666;stroke:#666666;stroke-width:0.8;" x="354.836066" xlink:href="#m3dffa534d5" y="512.64"/>
      </g>
     </g>
     <g id="text_2">
      <!-- 7 -->
      <defs>
       <path d="M 8.203125 72.90625 
L 55.078125 72.90625 
L 55.078125 68.703125 
L 28.609375 0 
L 18.3125 0 
L 43.21875 64.59375 
L 8.203125 64.59375 
z
" id="DejaVuSans-55"/>
      </defs>
      <g style="fill:#666666;" transform="translate(351.654816 527.238438)scale(0.1 -0.1)">
       <use xlink:href="#DejaVuSans-55"/>
      </g>
     </g>
    </g>
    <g id="xtick_3">
     <g id="line2d_9">
      <path clip-path="url(#p7561b81810)" d="M 592.672131 512.64 
L 592.672131 69.12 
" style="fill:none;stroke:#e6e6e6;stroke-linecap:square;stroke-width:0.8;"/>
     </g>
     <g id="line2d_10">
      <g>
       <use style="fill:#666666;stroke:#666666;stroke-width:0.8;" x="592.672131" xlink:href="#m3dffa534d5" y="512.64"/>
      </g>
     </g>
     <g id="text_3">
      <!-- 14 -->
      <defs>
       <path d="M 12.40625 8.296875 
L 28.515625 8.296875 
L 28.515625 63.921875 
L 10.984375 60.40625 
L 10.984375 69.390625 
L 28.421875 72.90625 
L 38.28125 72.90625 
L 38.28125 8.296875 
L 54.390625 8.296875 
L 54.390625 0 
L 12.40625 0 
z
" id="DejaVuSans-49"/>
       <path d="M 37.796875 64.3125 
L 12.890625 25.390625 
L 37.796875 25.390625 
z
M 35.203125 72.90625 
L 47.609375 72.90625 
L 47.609375 25.390625 
L 58.015625 25.390625 
L 58.015625 17.1875 
L 47.609375 17.1875 
L 47.609375 0 
L 37.796875 0 
L 37.796875 17.1875 
L 4.890625 17.1875 
L 4.890625 26.703125 
z
" id="DejaVuSans-52"/>
      </defs>
      <g style="fill:#666666;" transform="translate(586.309631 527.238438)scale(0.1 -0.1)">
       <use xlink:href="#DejaVuSans-49"/>
       <use x="63.623047" xlink:href="#DejaVuSans-52"/>
      </g>
     </g>
    </g>
    <g id="xtick_4">
     <g id="line2d_11">
      <path clip-path="url(#p7561b81810)" d="M 830.508197 512.64 
L 830.508197 69.12 
" style="fill:none;stroke:#e6e6e6;stroke-linecap:square;stroke-width:0.8;"/>
     </g>
     <g id="line2d_12">
      <g>
       <use style="fill:#666666;stroke:#666666;stroke-width:0.8;" x="830.508197" xlink:href="#m3dffa534d5" y="512.64"/>
      </g>
     </g>
     <g id="text_4">
      <!-- 21 -->
      <defs>
       <path d="M 19.1875 8.296875 
L 53.609375 8.296875 
L 53.609375 0 
L 7.328125 0 
L 7.328125 8.296875 
Q 12.9375 14.109375 22.625 23.890625 
Q 32.328125 33.6875 34.8125 36.53125 
Q 39.546875 41.84375 41.421875 45.53125 
Q 43.3125 49.21875 43.3125 52.78125 
Q 43.3125 58.59375 39.234375 62.25 
Q 35.15625 65.921875 28.609375 65.921875 
Q 23.96875 65.921875 18.8125 64.3125 
Q 13.671875 62.703125 7.8125 59.421875 
L 7.8125 69.390625 
Q 13.765625 71.78125 18.9375 73 
Q 24.125 74.21875 28.421875 74.21875 
Q 39.75 74.21875 46.484375 68.546875 
Q 53.21875 62.890625 53.21875 53.421875 
Q 53.21875 48.921875 51.53125 44.890625 
Q 49.859375 40.875 45.40625 35.40625 
Q 44.1875 33.984375 37.640625 27.21875 
Q 31.109375 20.453125 19.1875 8.296875 
z
" id="DejaVuSans-50"/>
      </defs>
      <g style="fill:#666666;" transform="translate(824.145697 527.238438)scale(0.1 -0.1)">
       <use xlink:href="#DejaVuSans-50"/>
       <use x="63.623047" xlink:href="#DejaVuSans-49"/>
      </g>
     </g>
    </g>
    <g id="text_5">
     <!-- Days since 100 deaths -->
     <defs>
      <path d="M 19.671875 64.796875 
L 19.671875 8.109375 
L 31.59375 8.109375 
Q 46.6875 8.109375 53.6875 14.9375 
Q 60.6875 21.78125 60.6875 36.53125 
Q 60.6875 51.171875 53.6875 57.984375 
Q 46.6875 64.796875 31.59375 64.796875 
z
M 9.8125 72.90625 
L 30.078125 72.90625 
Q 51.265625 72.90625 61.171875 64.09375 
Q 71.09375 55.28125 71.09375 36.53125 
Q 71.09375 17.671875 61.125 8.828125 
Q 51.171875 0 30.078125 0 
L 9.8125 0 
z
" id="DejaVuSans-68"/>
      <path d="M 34.28125 27.484375 
Q 23.390625 27.484375 19.1875 25 
Q 14.984375 22.515625 14.984375 16.5 
Q 14.984375 11.71875 18.140625 8.90625 
Q 21.296875 6.109375 26.703125 6.109375 
Q 34.1875 6.109375 38.703125 11.40625 
Q 43.21875 16.703125 43.21875 25.484375 
L 43.21875 27.484375 
z
M 52.203125 31.203125 
L 52.203125 0 
L 43.21875 0 
L 43.21875 8.296875 
Q 40.140625 3.328125 35.546875 0.953125 
Q 30.953125 -1.421875 24.3125 -1.421875 
Q 15.921875 -1.421875 10.953125 3.296875 
Q 6 8.015625 6 15.921875 
Q 6 25.140625 12.171875 29.828125 
Q 18.359375 34.515625 30.609375 34.515625 
L 43.21875 34.515625 
L 43.21875 35.40625 
Q 43.21875 41.609375 39.140625 45 
Q 35.0625 48.390625 27.6875 48.390625 
Q 23 48.390625 18.546875 47.265625 
Q 14.109375 46.140625 10.015625 43.890625 
L 10.015625 52.203125 
Q 14.9375 54.109375 19.578125 55.046875 
Q 24.21875 56 28.609375 56 
Q 40.484375 56 46.34375 49.84375 
Q 52.203125 43.703125 52.203125 31.203125 
z
" id="DejaVuSans-97"/>
      <path d="M 32.171875 -5.078125 
Q 28.375 -14.84375 24.75 -17.8125 
Q 21.140625 -20.796875 15.09375 -20.796875 
L 7.90625 -20.796875 
L 7.90625 -13.28125 
L 13.1875 -13.28125 
Q 16.890625 -13.28125 18.9375 -11.515625 
Q 21 -9.765625 23.484375 -3.21875 
L 25.09375 0.875 
L 2.984375 54.6875 
L 12.5 54.6875 
L 29.59375 11.921875 
L 46.6875 54.6875 
L 56.203125 54.6875 
z
" id="DejaVuSans-121"/>
      <path d="M 44.28125 53.078125 
L 44.28125 44.578125 
Q 40.484375 46.53125 36.375 47.5 
Q 32.28125 48.484375 27.875 48.484375 
Q 21.1875 48.484375 17.84375 46.4375 
Q 14.5 44.390625 14.5 40.28125 
Q 14.5 37.15625 16.890625 35.375 
Q 19.28125 33.59375 26.515625 31.984375 
L 29.59375 31.296875 
Q 39.15625 29.25 43.1875 25.515625 
Q 47.21875 21.78125 47.21875 15.09375 
Q 47.21875 7.46875 41.1875 3.015625 
Q 35.15625 -1.421875 24.609375 -1.421875 
Q 20.21875 -1.421875 15.453125 -0.5625 
Q 10.6875 0.296875 5.421875 2 
L 5.421875 11.28125 
Q 10.40625 8.6875 15.234375 7.390625 
Q 20.0625 6.109375 24.8125 6.109375 
Q 31.15625 6.109375 34.5625 8.28125 
Q 37.984375 10.453125 37.984375 14.40625 
Q 37.984375 18.0625 35.515625 20.015625 
Q 33.0625 21.96875 24.703125 23.78125 
L 21.578125 24.515625 
Q 13.234375 26.265625 9.515625 29.90625 
Q 5.8125 33.546875 5.8125 39.890625 
Q 5.8125 47.609375 11.28125 51.796875 
Q 16.75 56 26.8125 56 
Q 31.78125 56 36.171875 55.265625 
Q 40.578125 54.546875 44.28125 53.078125 
z
" id="DejaVuSans-115"/>
      <path id="DejaVuSans-32"/>
      <path d="M 9.421875 54.6875 
L 18.40625 54.6875 
L 18.40625 0 
L 9.421875 0 
z
M 9.421875 75.984375 
L 18.40625 75.984375 
L 18.40625 64.59375 
L 9.421875 64.59375 
z
" id="DejaVuSans-105"/>
      <path d="M 54.890625 33.015625 
L 54.890625 0 
L 45.90625 0 
L 45.90625 32.71875 
Q 45.90625 40.484375 42.875 44.328125 
Q 39.84375 48.1875 33.796875 48.1875 
Q 26.515625 48.1875 22.3125 43.546875 
Q 18.109375 38.921875 18.109375 30.90625 
L 18.109375 0 
L 9.078125 0 
L 9.078125 54.6875 
L 18.109375 54.6875 
L 18.109375 46.1875 
Q 21.34375 51.125 25.703125 53.5625 
Q 30.078125 56 35.796875 56 
Q 45.21875 56 50.046875 50.171875 
Q 54.890625 44.34375 54.890625 33.015625 
z
" id="DejaVuSans-110"/>
      <path d="M 48.78125 52.59375 
L 48.78125 44.1875 
Q 44.96875 46.296875 41.140625 47.34375 
Q 37.3125 48.390625 33.40625 48.390625 
Q 24.65625 48.390625 19.8125 42.84375 
Q 14.984375 37.3125 14.984375 27.296875 
Q 14.984375 17.28125 19.8125 11.734375 
Q 24.65625 6.203125 33.40625 6.203125 
Q 37.3125 6.203125 41.140625 7.25 
Q 44.96875 8.296875 48.78125 10.40625 
L 48.78125 2.09375 
Q 45.015625 0.34375 40.984375 -0.53125 
Q 36.96875 -1.421875 32.421875 -1.421875 
Q 20.0625 -1.421875 12.78125 6.34375 
Q 5.515625 14.109375 5.515625 27.296875 
Q 5.515625 40.671875 12.859375 48.328125 
Q 20.21875 56 33.015625 56 
Q 37.15625 56 41.109375 55.140625 
Q 45.0625 54.296875 48.78125 52.59375 
z
" id="DejaVuSans-99"/>
      <path d="M 56.203125 29.59375 
L 56.203125 25.203125 
L 14.890625 25.203125 
Q 15.484375 15.921875 20.484375 11.0625 
Q 25.484375 6.203125 34.421875 6.203125 
Q 39.59375 6.203125 44.453125 7.46875 
Q 49.3125 8.734375 54.109375 11.28125 
L 54.109375 2.78125 
Q 49.265625 0.734375 44.1875 -0.34375 
Q 39.109375 -1.421875 33.890625 -1.421875 
Q 20.796875 -1.421875 13.15625 6.1875 
Q 5.515625 13.8125 5.515625 26.8125 
Q 5.515625 40.234375 12.765625 48.109375 
Q 20.015625 56 32.328125 56 
Q 43.359375 56 49.78125 48.890625 
Q 56.203125 41.796875 56.203125 29.59375 
z
M 47.21875 32.234375 
Q 47.125 39.59375 43.09375 43.984375 
Q 39.0625 48.390625 32.421875 48.390625 
Q 24.90625 48.390625 20.390625 44.140625 
Q 15.875 39.890625 15.1875 32.171875 
z
" id="DejaVuSans-101"/>
      <path d="M 45.40625 46.390625 
L 45.40625 75.984375 
L 54.390625 75.984375 
L 54.390625 0 
L 45.40625 0 
L 45.40625 8.203125 
Q 42.578125 3.328125 38.25 0.953125 
Q 33.9375 -1.421875 27.875 -1.421875 
Q 17.96875 -1.421875 11.734375 6.484375 
Q 5.515625 14.40625 5.515625 27.296875 
Q 5.515625 40.1875 11.734375 48.09375 
Q 17.96875 56 27.875 56 
Q 33.9375 56 38.25 53.625 
Q 42.578125 51.265625 45.40625 46.390625 
z
M 14.796875 27.296875 
Q 14.796875 17.390625 18.875 11.75 
Q 22.953125 6.109375 30.078125 6.109375 
Q 37.203125 6.109375 41.296875 11.75 
Q 45.40625 17.390625 45.40625 27.296875 
Q 45.40625 37.203125 41.296875 42.84375 
Q 37.203125 48.484375 30.078125 48.484375 
Q 22.953125 48.484375 18.875 42.84375 
Q 14.796875 37.203125 14.796875 27.296875 
z
" id="DejaVuSans-100"/>
      <path d="M 18.3125 70.21875 
L 18.3125 54.6875 
L 36.8125 54.6875 
L 36.8125 47.703125 
L 18.3125 47.703125 
L 18.3125 18.015625 
Q 18.3125 11.328125 20.140625 9.421875 
Q 21.96875 7.515625 27.59375 7.515625 
L 36.8125 7.515625 
L 36.8125 0 
L 27.59375 0 
Q 17.1875 0 13.234375 3.875 
Q 9.28125 7.765625 9.28125 18.015625 
L 9.28125 47.703125 
L 2.6875 47.703125 
L 2.6875 54.6875 
L 9.28125 54.6875 
L 9.28125 70.21875 
z
" id="DejaVuSans-116"/>
      <path d="M 54.890625 33.015625 
L 54.890625 0 
L 45.90625 0 
L 45.90625 32.71875 
Q 45.90625 40.484375 42.875 44.328125 
Q 39.84375 48.1875 33.796875 48.1875 
Q 26.515625 48.1875 22.3125 43.546875 
Q 18.109375 38.921875 18.109375 30.90625 
L 18.109375 0 
L 9.078125 0 
L 9.078125 75.984375 
L 18.109375 75.984375 
L 18.109375 46.1875 
Q 21.34375 51.125 25.703125 53.5625 
Q 30.078125 56 35.796875 56 
Q 45.21875 56 50.046875 50.171875 
Q 54.890625 44.34375 54.890625 33.015625 
z
" id="DejaVuSans-104"/>
     </defs>
     <g style="fill:#666666;" transform="translate(422.874219 540.916563)scale(0.1 -0.1)">
      <use xlink:href="#DejaVuSans-68"/>
      <use x="77.001953" xlink:href="#DejaVuSans-97"/>
      <use x="138.28125" xlink:href="#DejaVuSans-121"/>
      <use x="197.460938" xlink:href="#DejaVuSans-115"/>
      <use x="249.560547" xlink:href="#DejaVuSans-32"/>
      <use x="281.347656" xlink:href="#DejaVuSans-115"/>
      <use x="333.447266" xlink:href="#DejaVuSans-105"/>
      <use x="361.230469" xlink:href="#DejaVuSans-110"/>
      <use x="424.609375" xlink:href="#DejaVuSans-99"/>
      <use x="479.589844" xlink:href="#DejaVuSans-101"/>
      <use x="541.113281" xlink:href="#DejaVuSans-32"/>
      <use x="572.900391" xlink:href="#DejaVuSans-49"/>
      <use x="636.523438" xlink:href="#DejaVuSans-48"/>
      <use x="700.146484" xlink:href="#DejaVuSans-48"/>
      <use x="763.769531" xlink:href="#DejaVuSans-32"/>
      <use x="795.556641" xlink:href="#DejaVuSans-100"/>
      <use x="859.033203" xlink:href="#DejaVuSans-101"/>
      <use x="920.556641" xlink:href="#DejaVuSans-97"/>
      <use x="981.835938" xlink:href="#DejaVuSans-116"/>
      <use x="1021.044922" xlink:href="#DejaVuSans-104"/>
      <use x="1084.423828" xlink:href="#DejaVuSans-115"/>
     </g>
    </g>
   </g>
   <g id="matplotlib.axis_2">
    <g id="ytick_1">
     <g id="line2d_13">
      <path clip-path="url(#p7561b81810)" d="M 117 512.64 
L 842.4 512.64 
" style="fill:none;stroke:#e6e6e6;stroke-linecap:square;stroke-width:0.8;"/>
     </g>
     <g id="line2d_14">
      <defs>
       <path d="M 0 0 
L -3.5 0 
" id="m5ee54e3a20" style="stroke:#666666;stroke-width:0.8;"/>
      </defs>
      <g>
       <use style="fill:#666666;stroke:#666666;stroke-width:0.8;" x="117" xlink:href="#m5ee54e3a20" y="512.64"/>
      </g>
     </g>
     <g id="text_6">
      <!-- 100 -->
      <g style="fill:#666666;" transform="translate(90.9125 516.439219)scale(0.1 -0.1)">
       <use xlink:href="#DejaVuSans-49"/>
       <use x="63.623047" xlink:href="#DejaVuSans-48"/>
       <use x="127.246094" xlink:href="#DejaVuSans-48"/>
      </g>
     </g>
    </g>
   </g>
   <g id="line2d_15">
    <path clip-path="url(#p7561b81810)" d="M 117 512.64 
L 142.982091 489.755499 
L 244.911834 442.673615 
L 278.888414 399.593722 
L 312.864995 378.326568 
" style="fill:none;stroke:#1f77b4;stroke-linecap:square;stroke-width:1.5;"/>
    <defs>
     <path d="M 0 1.5 
C 0.397805 1.5 0.77937 1.341951 1.06066 1.06066 
C 1.341951 0.77937 1.5 0.397805 1.5 0 
C 1.5 -0.397805 1.341951 -0.77937 1.06066 -1.06066 
C 0.77937 -1.341951 0.397805 -1.5 0 -1.5 
C -0.397805 -1.5 -0.77937 -1.341951 -1.06066 -1.06066 
C -1.341951 -0.77937 -1.5 -0.397805 -1.5 0 
C -1.5 0.397805 -1.341951 0.77937 -1.06066 1.06066 
C -0.77937 1.341951 -0.397805 1.5 0 1.5 
z
" id="m3bfca870d6" style="stroke:#1f77b4;"/>
    </defs>
    <g clip-path="url(#p7561b81810)">
     <use style="fill:#ffffff;stroke:#1f77b4;" x="117" xlink:href="#m3bfca870d6" y="512.64"/>
     <use style="fill:#ffffff;stroke:#1f77b4;" x="142.982091" xlink:href="#m3bfca870d6" y="489.755499"/>
     <use style="fill:#ffffff;stroke:#1f77b4;" x="244.911834" xlink:href="#m3bfca870d6" y="442.673615"/>
     <use style="fill:#ffffff;stroke:#1f77b4;" x="278.888414" xlink:href="#m3bfca870d6" y="399.593722"/>
     <use style="fill:#ffffff;stroke:#1f77b4;" x="312.864995" xlink:href="#m3bfca870d6" y="378.326568"/>
    </g>
   </g>
   <g id="line2d_16">
    <path clip-path="url(#p7561b81810)" d="M 117 512.64 
L 141.710241 498.294803 
L 175.686821 486.42428 
L 209.663402 475.11843 
L 243.639983 461.321229 
L 277.616564 445.452401 
L 311.593145 434.518506 
L 345.569725 410.307977 
L 379.546306 400.762497 
L 413.522887 392.689321 
L 447.499468 389.304452 
L 481.476049 366.754299 
L 515.452629 345.957907 
L 549.42921 327.525451 
L 583.405791 312.767376 
" style="fill:none;stroke:#ff7f0e;stroke-linecap:square;stroke-width:1.5;"/>
    <defs>
     <path d="M 0 1.5 
C 0.397805 1.5 0.77937 1.341951 1.06066 1.06066 
C 1.341951 0.77937 1.5 0.397805 1.5 0 
C 1.5 -0.397805 1.341951 -0.77937 1.06066 -1.06066 
C 0.77937 -1.341951 0.397805 -1.5 0 -1.5 
C -0.397805 -1.5 -0.77937 -1.341951 -1.06066 -1.06066 
C -1.341951 -0.77937 -1.5 -0.397805 -1.5 0 
C -1.5 0.397805 -1.341951 0.77937 -1.06066 1.06066 
C -0.77937 1.341951 -0.397805 1.5 0 1.5 
z
" id="mbb95ec39da" style="stroke:#ff7f0e;"/>
    </defs>
    <g clip-path="url(#p7561b81810)">
     <use style="fill:#ffffff;stroke:#ff7f0e;" x="117" xlink:href="#mbb95ec39da" y="512.64"/>
     <use style="fill:#ffffff;stroke:#ff7f0e;" x="141.710241" xlink:href="#mbb95ec39da" y="498.294803"/>
     <use style="fill:#ffffff;stroke:#ff7f0e;" x="175.686821" xlink:href="#mbb95ec39da" y="486.42428"/>
     <use style="fill:#ffffff;stroke:#ff7f0e;" x="209.663402" xlink:href="#mbb95ec39da" y="475.11843"/>
     <use style="fill:#ffffff;stroke:#ff7f0e;" x="243.639983" xlink:href="#mbb95ec39da" y="461.321229"/>
     <use style="fill:#ffffff;stroke:#ff7f0e;" x="277.616564" xlink:href="#mbb95ec39da" y="445.452401"/>
     <use style="fill:#ffffff;stroke:#ff7f0e;" x="311.593145" xlink:href="#mbb95ec39da" y="434.518506"/>
     <use style="fill:#ffffff;stroke:#ff7f0e;" x="345.569725" xlink:href="#mbb95ec39da" y="410.307977"/>
     <use style="fill:#ffffff;stroke:#ff7f0e;" x="379.546306" xlink:href="#mbb95ec39da" y="400.762497"/>
     <use style="fill:#ffffff;stroke:#ff7f0e;" x="413.522887" xlink:href="#mbb95ec39da" y="392.689321"/>
     <use style="fill:#ffffff;stroke:#ff7f0e;" x="447.499468" xlink:href="#mbb95ec39da" y="389.304452"/>
     <use style="fill:#ffffff;stroke:#ff7f0e;" x="481.476049" xlink:href="#mbb95ec39da" y="366.754299"/>
     <use style="fill:#ffffff;stroke:#ff7f0e;" x="515.452629" xlink:href="#mbb95ec39da" y="345.957907"/>
     <use style="fill:#ffffff;stroke:#ff7f0e;" x="549.42921" xlink:href="#mbb95ec39da" y="327.525451"/>
     <use style="fill:#ffffff;stroke:#ff7f0e;" x="583.405791" xlink:href="#mbb95ec39da" y="312.767376"/>
    </g>
   </g>
   <g id="line2d_17">
    <path clip-path="url(#p7561b81810)" d="M 117 512.64 
L 135.875878 503.571366 
L 169.852459 491.438827 
L 203.82904 467.356575 
L 237.805621 449.679876 
L 271.782201 430.53844 
" style="fill:none;stroke:#2ca02c;stroke-linecap:square;stroke-width:1.5;"/>
    <defs>
     <path d="M 0 1.5 
C 0.397805 1.5 0.77937 1.341951 1.06066 1.06066 
C 1.341951 0.77937 1.5 0.397805 1.5 0 
C 1.5 -0.397805 1.341951 -0.77937 1.06066 -1.06066 
C 0.77937 -1.341951 0.397805 -1.5 0 -1.5 
C -0.397805 -1.5 -0.77937 -1.341951 -1.06066 -1.06066 
C -1.341951 -0.77937 -1.5 -0.397805 -1.5 0 
C -1.5 0.397805 -1.341951 0.77937 -1.06066 1.06066 
C -0.77937 1.341951 -0.397805 1.5 0 1.5 
z
" id="m61171d093f" style="stroke:#2ca02c;"/>
    </defs>
    <g clip-path="url(#p7561b81810)">
     <use style="fill:#ffffff;stroke:#2ca02c;" x="117" xlink:href="#m61171d093f" y="512.64"/>
     <use style="fill:#ffffff;stroke:#2ca02c;" x="135.875878" xlink:href="#m61171d093f" y="503.571366"/>
     <use style="fill:#ffffff;stroke:#2ca02c;" x="169.852459" xlink:href="#m61171d093f" y="491.438827"/>
     <use style="fill:#ffffff;stroke:#2ca02c;" x="203.82904" xlink:href="#m61171d093f" y="467.356575"/>
     <use style="fill:#ffffff;stroke:#2ca02c;" x="237.805621" xlink:href="#m61171d093f" y="449.679876"/>
     <use style="fill:#ffffff;stroke:#2ca02c;" x="271.782201" xlink:href="#m61171d093f" y="430.53844"/>
    </g>
   </g>
   <g id="line2d_18">
    <path clip-path="url(#p7561b81810)" d="M 117 512.64 
" style="fill:none;stroke:#d62728;stroke-linecap:square;stroke-width:1.5;"/>
    <defs>
     <path d="M 0 1.5 
C 0.397805 1.5 0.77937 1.341951 1.06066 1.06066 
C 1.341951 0.77937 1.5 0.397805 1.5 0 
C 1.5 -0.397805 1.341951 -0.77937 1.06066 -1.06066 
C 0.77937 -1.341951 0.397805 -1.5 0 -1.5 
C -0.397805 -1.5 -0.77937 -1.341951 -1.06066 -1.06066 
C -1.341951 -0.77937 -1.5 -0.397805 -1.5 0 
C -1.5 0.397805 -1.341951 0.77937 -1.06066 1.06066 
C -0.77937 1.341951 -0.397805 1.5 0 1.5 
z
" id="me39ad61dde" style="stroke:#d62728;"/>
    </defs>
    <g clip-path="url(#p7561b81810)">
     <use style="fill:#ffffff;stroke:#d62728;" x="117" xlink:href="#me39ad61dde" y="512.64"/>
    </g>
   </g>
   <g id="line2d_19">
    <path clip-path="url(#p7561b81810)" d="M 117 512.64 
L 138.621461 500.040482 
" style="fill:none;stroke:#9467bd;stroke-linecap:square;stroke-width:1.5;"/>
    <defs>
     <path d="M 0 1.5 
C 0.397805 1.5 0.77937 1.341951 1.06066 1.06066 
C 1.341951 0.77937 1.5 0.397805 1.5 0 
C 1.5 -0.397805 1.341951 -0.77937 1.06066 -1.06066 
C 0.77937 -1.341951 0.397805 -1.5 0 -1.5 
C -0.397805 -1.5 -0.77937 -1.341951 -1.06066 -1.06066 
C -1.341951 -0.77937 -1.5 -0.397805 -1.5 0 
C -1.5 0.397805 -1.341951 0.77937 -1.06066 1.06066 
C -0.77937 1.341951 -0.397805 1.5 0 1.5 
z
" id="md5cf36bc6b" style="stroke:#9467bd;"/>
    </defs>
    <g clip-path="url(#p7561b81810)">
     <use style="fill:#ffffff;stroke:#9467bd;" x="117" xlink:href="#md5cf36bc6b" y="512.64"/>
     <use style="fill:#ffffff;stroke:#9467bd;" x="138.621461" xlink:href="#md5cf36bc6b" y="500.040482"/>
    </g>
   </g>
   <g id="line2d_20">
    <path clip-path="url(#p7561b81810)" d="M 117 512.64 
L 150.976581 500.040482 
L 184.953162 494.841883 
L 218.929742 493.134223 
" style="fill:none;stroke:#8c564b;stroke-linecap:square;stroke-width:1.5;"/>
    <defs>
     <path d="M 0 1.5 
C 0.397805 1.5 0.77937 1.341951 1.06066 1.06066 
C 1.341951 0.77937 1.5 0.397805 1.5 0 
C 1.5 -0.397805 1.341951 -0.77937 1.06066 -1.06066 
C 0.77937 -1.341951 0.397805 -1.5 0 -1.5 
C -0.397805 -1.5 -0.77937 -1.341951 -1.06066 -1.06066 
C -1.341951 -0.77937 -1.5 -0.397805 -1.5 0 
C -1.5 0.397805 -1.341951 0.77937 -1.06066 1.06066 
C -0.77937 1.341951 -0.397805 1.5 0 1.5 
z
" id="m6741aac2fe" style="stroke:#8c564b;"/>
    </defs>
    <g clip-path="url(#p7561b81810)">
     <use style="fill:#ffffff;stroke:#8c564b;" x="117" xlink:href="#m6741aac2fe" y="512.64"/>
     <use style="fill:#ffffff;stroke:#8c564b;" x="150.976581" xlink:href="#m6741aac2fe" y="500.040482"/>
     <use style="fill:#ffffff;stroke:#8c564b;" x="184.953162" xlink:href="#m6741aac2fe" y="494.841883"/>
     <use style="fill:#ffffff;stroke:#8c564b;" x="218.929742" xlink:href="#m6741aac2fe" y="493.134223"/>
    </g>
   </g>
   <g id="line2d_21">
    <path clip-path="url(#p7561b81810)" d="M 117 512.64 
L 130.590632 505.357024 
L 164.567213 486.42428 
L 198.543794 475.11843 
L 232.520375 464.320187 
L 266.496956 452.538922 
L 300.473536 442.673615 
L 334.450117 437.207406 
L 368.426698 429.225626 
L 402.403279 407.888267 
L 436.379859 391.556158 
L 470.35644 384.85823 
L 504.333021 375.120242 
" style="fill:none;stroke:#e377c2;stroke-linecap:square;stroke-width:1.5;"/>
    <defs>
     <path d="M 0 1.5 
C 0.397805 1.5 0.77937 1.341951 1.06066 1.06066 
C 1.341951 0.77937 1.5 0.397805 1.5 0 
C 1.5 -0.397805 1.341951 -0.77937 1.06066 -1.06066 
C 0.77937 -1.341951 0.397805 -1.5 0 -1.5 
C -0.397805 -1.5 -0.77937 -1.341951 -1.06066 -1.06066 
C -1.341951 -0.77937 -1.5 -0.397805 -1.5 0 
C -1.5 0.397805 -1.341951 0.77937 -1.06066 1.06066 
C -0.77937 1.341951 -0.397805 1.5 0 1.5 
z
" id="m0e8adcf9fc" style="stroke:#e377c2;"/>
    </defs>
    <g clip-path="url(#p7561b81810)">
     <use style="fill:#ffffff;stroke:#e377c2;" x="117" xlink:href="#m0e8adcf9fc" y="512.64"/>
     <use style="fill:#ffffff;stroke:#e377c2;" x="130.590632" xlink:href="#m0e8adcf9fc" y="505.357024"/>
     <use style="fill:#ffffff;stroke:#e377c2;" x="164.567213" xlink:href="#m0e8adcf9fc" y="486.42428"/>
     <use style="fill:#ffffff;stroke:#e377c2;" x="198.543794" xlink:href="#m0e8adcf9fc" y="475.11843"/>
     <use style="fill:#ffffff;stroke:#e377c2;" x="232.520375" xlink:href="#m0e8adcf9fc" y="464.320187"/>
     <use style="fill:#ffffff;stroke:#e377c2;" x="266.496956" xlink:href="#m0e8adcf9fc" y="452.538922"/>
     <use style="fill:#ffffff;stroke:#e377c2;" x="300.473536" xlink:href="#m0e8adcf9fc" y="442.673615"/>
     <use style="fill:#ffffff;stroke:#e377c2;" x="334.450117" xlink:href="#m0e8adcf9fc" y="437.207406"/>
     <use style="fill:#ffffff;stroke:#e377c2;" x="368.426698" xlink:href="#m0e8adcf9fc" y="429.225626"/>
     <use style="fill:#ffffff;stroke:#e377c2;" x="402.403279" xlink:href="#m0e8adcf9fc" y="407.888267"/>
     <use style="fill:#ffffff;stroke:#e377c2;" x="436.379859" xlink:href="#m0e8adcf9fc" y="391.556158"/>
     <use style="fill:#ffffff;stroke:#e377c2;" x="470.35644" xlink:href="#m0e8adcf9fc" y="384.85823"/>
     <use style="fill:#ffffff;stroke:#e377c2;" x="504.333021" xlink:href="#m0e8adcf9fc" y="375.120242"/>
    </g>
   </g>
   <g id="line2d_22">
    <path clip-path="url(#p7561b81810)" d="M 117 512.64 
L 138.984846 493.134223 
L 172.961427 476.701243 
L 206.938008 456.890748 
L 240.914589 444.059122 
L 274.89117 421.488877 
L 308.86775 398.430187 
L 342.844331 375.120242 
L 376.820912 353.693005 
" style="fill:none;stroke:#7f7f7f;stroke-linecap:square;stroke-width:1.5;"/>
    <defs>
     <path d="M 0 1.5 
C 0.397805 1.5 0.77937 1.341951 1.06066 1.06066 
C 1.341951 0.77937 1.5 0.397805 1.5 0 
C 1.5 -0.397805 1.341951 -0.77937 1.06066 -1.06066 
C 0.77937 -1.341951 0.397805 -1.5 0 -1.5 
C -0.397805 -1.5 -0.77937 -1.341951 -1.06066 -1.06066 
C -1.341951 -0.77937 -1.5 -0.397805 -1.5 0 
C -1.5 0.397805 -1.341951 0.77937 -1.06066 1.06066 
C -0.77937 1.341951 -0.397805 1.5 0 1.5 
z
" id="mf5ade999fc" style="stroke:#7f7f7f;"/>
    </defs>
    <g clip-path="url(#p7561b81810)">
     <use style="fill:#ffffff;stroke:#7f7f7f;" x="117" xlink:href="#mf5ade999fc" y="512.64"/>
     <use style="fill:#ffffff;stroke:#7f7f7f;" x="138.984846" xlink:href="#mf5ade999fc" y="493.134223"/>
     <use style="fill:#ffffff;stroke:#7f7f7f;" x="172.961427" xlink:href="#mf5ade999fc" y="476.701243"/>
     <use style="fill:#ffffff;stroke:#7f7f7f;" x="206.938008" xlink:href="#mf5ade999fc" y="456.890748"/>
     <use style="fill:#ffffff;stroke:#7f7f7f;" x="240.914589" xlink:href="#mf5ade999fc" y="444.059122"/>
     <use style="fill:#ffffff;stroke:#7f7f7f;" x="274.89117" xlink:href="#mf5ade999fc" y="421.488877"/>
     <use style="fill:#ffffff;stroke:#7f7f7f;" x="308.86775" xlink:href="#mf5ade999fc" y="398.430187"/>
     <use style="fill:#ffffff;stroke:#7f7f7f;" x="342.844331" xlink:href="#mf5ade999fc" y="375.120242"/>
     <use style="fill:#ffffff;stroke:#7f7f7f;" x="376.820912" xlink:href="#mf5ade999fc" y="353.693005"/>
    </g>
   </g>
   <g id="line2d_23">
    <path clip-path="url(#p7561b81810)" d="M 117 512.64 
L 140.522248 496.562007 
L 174.498829 494.841883 
L 208.47541 488.084045 
L 242.451991 458.358678 
L 276.428571 438.562772 
L 310.405152 431.858137 
L 344.381733 415.216951 
L 378.358314 403.115986 
L 412.334895 401.936567 
L 446.311475 400.762497 
L 480.288056 387.071931 
L 514.264637 366.754299 
L 548.241218 356.651477 
L 582.217799 316.170453 
" style="fill:none;stroke:#bcbd22;stroke-linecap:square;stroke-width:1.5;"/>
    <defs>
     <path d="M 0 1.5 
C 0.397805 1.5 0.77937 1.341951 1.06066 1.06066 
C 1.341951 0.77937 1.5 0.397805 1.5 0 
C 1.5 -0.397805 1.341951 -0.77937 1.06066 -1.06066 
C 0.77937 -1.341951 0.397805 -1.5 0 -1.5 
C -0.397805 -1.5 -0.77937 -1.341951 -1.06066 -1.06066 
C -1.341951 -0.77937 -1.5 -0.397805 -1.5 0 
C -1.5 0.397805 -1.341951 0.77937 -1.06066 1.06066 
C -0.77937 1.341951 -0.397805 1.5 0 1.5 
z
" id="m5aa11ad9ca" style="stroke:#bcbd22;"/>
    </defs>
    <g clip-path="url(#p7561b81810)">
     <use style="fill:#ffffff;stroke:#bcbd22;" x="117" xlink:href="#m5aa11ad9ca" y="512.64"/>
     <use style="fill:#ffffff;stroke:#bcbd22;" x="140.522248" xlink:href="#m5aa11ad9ca" y="496.562007"/>
     <use style="fill:#ffffff;stroke:#bcbd22;" x="174.498829" xlink:href="#m5aa11ad9ca" y="494.841883"/>
     <use style="fill:#ffffff;stroke:#bcbd22;" x="208.47541" xlink:href="#m5aa11ad9ca" y="488.084045"/>
     <use style="fill:#ffffff;stroke:#bcbd22;" x="242.451991" xlink:href="#m5aa11ad9ca" y="458.358678"/>
     <use style="fill:#ffffff;stroke:#bcbd22;" x="276.428571" xlink:href="#m5aa11ad9ca" y="438.562772"/>
     <use style="fill:#ffffff;stroke:#bcbd22;" x="310.405152" xlink:href="#m5aa11ad9ca" y="431.858137"/>
     <use style="fill:#ffffff;stroke:#bcbd22;" x="344.381733" xlink:href="#m5aa11ad9ca" y="415.216951"/>
     <use style="fill:#ffffff;stroke:#bcbd22;" x="378.358314" xlink:href="#m5aa11ad9ca" y="403.115986"/>
     <use style="fill:#ffffff;stroke:#bcbd22;" x="412.334895" xlink:href="#m5aa11ad9ca" y="401.936567"/>
     <use style="fill:#ffffff;stroke:#bcbd22;" x="446.311475" xlink:href="#m5aa11ad9ca" y="400.762497"/>
     <use style="fill:#ffffff;stroke:#bcbd22;" x="480.288056" xlink:href="#m5aa11ad9ca" y="387.071931"/>
     <use style="fill:#ffffff;stroke:#bcbd22;" x="514.264637" xlink:href="#m5aa11ad9ca" y="366.754299"/>
     <use style="fill:#ffffff;stroke:#bcbd22;" x="548.241218" xlink:href="#m5aa11ad9ca" y="356.651477"/>
     <use style="fill:#ffffff;stroke:#bcbd22;" x="582.217799" xlink:href="#m5aa11ad9ca" y="316.170453"/>
    </g>
   </g>
   <g id="line2d_24">
    <path clip-path="url(#p7561b81810)" d="M 117 512.64 
L 145.749415 493.134223 
L 179.725995 475.11843 
L 213.702576 464.320187 
L 247.679157 448.262677 
L 281.655738 431.858137 
L 315.632319 422.762032 
L 349.608899 410.307977 
L 383.58548 393.827423 
L 417.562061 382.662997 
L 451.538642 374.060016 
L 485.515222 365.726745 
" style="fill:none;stroke:#17becf;stroke-linecap:square;stroke-width:1.5;"/>
    <defs>
     <path d="M 0 1.5 
C 0.397805 1.5 0.77937 1.341951 1.06066 1.06066 
C 1.341951 0.77937 1.5 0.397805 1.5 0 
C 1.5 -0.397805 1.341951 -0.77937 1.06066 -1.06066 
C 0.77937 -1.341951 0.397805 -1.5 0 -1.5 
C -0.397805 -1.5 -0.77937 -1.341951 -1.06066 -1.06066 
C -1.341951 -0.77937 -1.5 -0.397805 -1.5 0 
C -1.5 0.397805 -1.341951 0.77937 -1.06066 1.06066 
C -0.77937 1.341951 -0.397805 1.5 0 1.5 
z
" id="m4b057b0177" style="stroke:#17becf;"/>
    </defs>
    <g clip-path="url(#p7561b81810)">
     <use style="fill:#ffffff;stroke:#17becf;" x="117" xlink:href="#m4b057b0177" y="512.64"/>
     <use style="fill:#ffffff;stroke:#17becf;" x="145.749415" xlink:href="#m4b057b0177" y="493.134223"/>
     <use style="fill:#ffffff;stroke:#17becf;" x="179.725995" xlink:href="#m4b057b0177" y="475.11843"/>
     <use style="fill:#ffffff;stroke:#17becf;" x="213.702576" xlink:href="#m4b057b0177" y="464.320187"/>
     <use style="fill:#ffffff;stroke:#17becf;" x="247.679157" xlink:href="#m4b057b0177" y="448.262677"/>
     <use style="fill:#ffffff;stroke:#17becf;" x="281.655738" xlink:href="#m4b057b0177" y="431.858137"/>
     <use style="fill:#ffffff;stroke:#17becf;" x="315.632319" xlink:href="#m4b057b0177" y="422.762032"/>
     <use style="fill:#ffffff;stroke:#17becf;" x="349.608899" xlink:href="#m4b057b0177" y="410.307977"/>
     <use style="fill:#ffffff;stroke:#17becf;" x="383.58548" xlink:href="#m4b057b0177" y="393.827423"/>
     <use style="fill:#ffffff;stroke:#17becf;" x="417.562061" xlink:href="#m4b057b0177" y="382.662997"/>
     <use style="fill:#ffffff;stroke:#17becf;" x="451.538642" xlink:href="#m4b057b0177" y="374.060016"/>
     <use style="fill:#ffffff;stroke:#17becf;" x="485.515222" xlink:href="#m4b057b0177" y="365.726745"/>
    </g>
   </g>
   <g id="line2d_25">
    <path clip-path="url(#p7561b81810)" d="M 117 512.64 
L 129.35512 498.294803 
L 163.331701 483.139092 
L 197.308282 461.321229 
L 231.284863 431.858137 
L 265.261443 416.459052 
L 299.238024 406.686892 
L 333.214605 398.430187 
L 367.191186 361.655452 
L 401.167767 333.83745 
L 435.144347 323.98208 
L 469.120928 310.241835 
" style="fill:none;stroke:#1f77b4;stroke-linecap:square;stroke-width:1.5;"/>
    <g clip-path="url(#p7561b81810)">
     <use style="fill:#ffffff;stroke:#1f77b4;" x="117" xlink:href="#m3bfca870d6" y="512.64"/>
     <use style="fill:#ffffff;stroke:#1f77b4;" x="129.35512" xlink:href="#m3bfca870d6" y="498.294803"/>
     <use style="fill:#ffffff;stroke:#1f77b4;" x="163.331701" xlink:href="#m3bfca870d6" y="483.139092"/>
     <use style="fill:#ffffff;stroke:#1f77b4;" x="197.308282" xlink:href="#m3bfca870d6" y="461.321229"/>
     <use style="fill:#ffffff;stroke:#1f77b4;" x="231.284863" xlink:href="#m3bfca870d6" y="431.858137"/>
     <use style="fill:#ffffff;stroke:#1f77b4;" x="265.261443" xlink:href="#m3bfca870d6" y="416.459052"/>
     <use style="fill:#ffffff;stroke:#1f77b4;" x="299.238024" xlink:href="#m3bfca870d6" y="406.686892"/>
     <use style="fill:#ffffff;stroke:#1f77b4;" x="333.214605" xlink:href="#m3bfca870d6" y="398.430187"/>
     <use style="fill:#ffffff;stroke:#1f77b4;" x="367.191186" xlink:href="#m3bfca870d6" y="361.655452"/>
     <use style="fill:#ffffff;stroke:#1f77b4;" x="401.167767" xlink:href="#m3bfca870d6" y="333.83745"/>
     <use style="fill:#ffffff;stroke:#1f77b4;" x="435.144347" xlink:href="#m3bfca870d6" y="323.98208"/>
     <use style="fill:#ffffff;stroke:#1f77b4;" x="469.120928" xlink:href="#m3bfca870d6" y="310.241835"/>
    </g>
   </g>
   <g id="line2d_26">
    <path clip-path="url(#p7561b81810)" d="M 117 512.64 
L 129.35512 498.294803 
L 163.331701 488.084045 
L 231.284863 462.816094 
L 265.261443 461.321229 
L 299.238024 445.452401 
L 333.214605 433.184798 
L 367.191186 427.919614 
L 401.167767 424.041609 
L 469.120928 417.707228 
L 503.097509 406.686892 
L 537.07409 380.485887 
L 571.050671 378.326568 
" style="fill:none;stroke:#ff7f0e;stroke-linecap:square;stroke-width:1.5;"/>
    <g clip-path="url(#p7561b81810)">
     <use style="fill:#ffffff;stroke:#ff7f0e;" x="117" xlink:href="#mbb95ec39da" y="512.64"/>
     <use style="fill:#ffffff;stroke:#ff7f0e;" x="129.35512" xlink:href="#mbb95ec39da" y="498.294803"/>
     <use style="fill:#ffffff;stroke:#ff7f0e;" x="163.331701" xlink:href="#mbb95ec39da" y="488.084045"/>
     <use style="fill:#ffffff;stroke:#ff7f0e;" x="231.284863" xlink:href="#mbb95ec39da" y="462.816094"/>
     <use style="fill:#ffffff;stroke:#ff7f0e;" x="265.261443" xlink:href="#mbb95ec39da" y="461.321229"/>
     <use style="fill:#ffffff;stroke:#ff7f0e;" x="299.238024" xlink:href="#mbb95ec39da" y="445.452401"/>
     <use style="fill:#ffffff;stroke:#ff7f0e;" x="333.214605" xlink:href="#mbb95ec39da" y="433.184798"/>
     <use style="fill:#ffffff;stroke:#ff7f0e;" x="367.191186" xlink:href="#mbb95ec39da" y="427.919614"/>
     <use style="fill:#ffffff;stroke:#ff7f0e;" x="401.167767" xlink:href="#mbb95ec39da" y="424.041609"/>
     <use style="fill:#ffffff;stroke:#ff7f0e;" x="469.120928" xlink:href="#mbb95ec39da" y="417.707228"/>
     <use style="fill:#ffffff;stroke:#ff7f0e;" x="503.097509" xlink:href="#mbb95ec39da" y="406.686892"/>
     <use style="fill:#ffffff;stroke:#ff7f0e;" x="537.07409" xlink:href="#mbb95ec39da" y="380.485887"/>
     <use style="fill:#ffffff;stroke:#ff7f0e;" x="571.050671" xlink:href="#mbb95ec39da" y="378.326568"/>
    </g>
   </g>
   <g id="line2d_27">
    <path clip-path="url(#p7561b81810)" d="M 117 512.64 
L 123.17756 508.969949 
L 157.154141 479.898526 
L 191.130722 445.452401 
L 225.107303 412.750706 
L 259.083883 382.662997 
L 293.060464 361.655452 
L 327.037045 344.057972 
L 361.013626 329.31424 
L 394.990207 323.98208 
L 428.966787 311.081167 
L 462.943368 267.511954 
L 496.919949 241.933949 
L 530.89653 223.938309 
L 564.87311 206.361227 
L 598.849691 197.077594 
L 632.826272 176.614555 
L 666.802853 156.896118 
L 700.779434 133.606632 
L 734.756014 109.687397 
L 768.732595 90.24 
" style="fill:none;stroke:#2ca02c;stroke-linecap:square;stroke-width:1.5;"/>
    <g clip-path="url(#p7561b81810)">
     <use style="fill:#ffffff;stroke:#2ca02c;" x="117" xlink:href="#m61171d093f" y="512.64"/>
     <use style="fill:#ffffff;stroke:#2ca02c;" x="123.17756" xlink:href="#m61171d093f" y="508.969949"/>
     <use style="fill:#ffffff;stroke:#2ca02c;" x="157.154141" xlink:href="#m61171d093f" y="479.898526"/>
     <use style="fill:#ffffff;stroke:#2ca02c;" x="191.130722" xlink:href="#m61171d093f" y="445.452401"/>
     <use style="fill:#ffffff;stroke:#2ca02c;" x="225.107303" xlink:href="#m61171d093f" y="412.750706"/>
     <use style="fill:#ffffff;stroke:#2ca02c;" x="259.083883" xlink:href="#m61171d093f" y="382.662997"/>
     <use style="fill:#ffffff;stroke:#2ca02c;" x="293.060464" xlink:href="#m61171d093f" y="361.655452"/>
     <use style="fill:#ffffff;stroke:#2ca02c;" x="327.037045" xlink:href="#m61171d093f" y="344.057972"/>
     <use style="fill:#ffffff;stroke:#2ca02c;" x="361.013626" xlink:href="#m61171d093f" y="329.31424"/>
     <use style="fill:#ffffff;stroke:#2ca02c;" x="394.990207" xlink:href="#m61171d093f" y="323.98208"/>
     <use style="fill:#ffffff;stroke:#2ca02c;" x="428.966787" xlink:href="#m61171d093f" y="311.081167"/>
     <use style="fill:#ffffff;stroke:#2ca02c;" x="462.943368" xlink:href="#m61171d093f" y="267.511954"/>
     <use style="fill:#ffffff;stroke:#2ca02c;" x="496.919949" xlink:href="#m61171d093f" y="241.933949"/>
     <use style="fill:#ffffff;stroke:#2ca02c;" x="530.89653" xlink:href="#m61171d093f" y="223.938309"/>
     <use style="fill:#ffffff;stroke:#2ca02c;" x="564.87311" xlink:href="#m61171d093f" y="206.361227"/>
     <use style="fill:#ffffff;stroke:#2ca02c;" x="598.849691" xlink:href="#m61171d093f" y="197.077594"/>
     <use style="fill:#ffffff;stroke:#2ca02c;" x="632.826272" xlink:href="#m61171d093f" y="176.614555"/>
     <use style="fill:#ffffff;stroke:#2ca02c;" x="666.802853" xlink:href="#m61171d093f" y="156.896118"/>
     <use style="fill:#ffffff;stroke:#2ca02c;" x="700.779434" xlink:href="#m61171d093f" y="133.606632"/>
     <use style="fill:#ffffff;stroke:#2ca02c;" x="734.756014" xlink:href="#m61171d093f" y="109.687397"/>
     <use style="fill:#ffffff;stroke:#2ca02c;" x="768.732595" xlink:href="#m61171d093f" y="90.24"/>
    </g>
   </g>
   <g id="line2d_28">
    <path clip-path="url(#p7561b81810)" d="M 117 512.64 
L 147.201405 498.294803 
L 181.177986 473.545962 
L 215.154567 461.321229 
L 249.131148 453.980985 
L 283.107728 449.679876 
L 317.084309 448.262677 
L 351.06089 444.059122 
L 385.037471 416.459052 
L 419.014052 409.095275 
L 452.990632 398.430187 
L 486.967213 388.185817 
" style="fill:none;stroke:#d62728;stroke-linecap:square;stroke-width:1.5;"/>
    <g clip-path="url(#p7561b81810)">
     <use style="fill:#ffffff;stroke:#d62728;" x="117" xlink:href="#me39ad61dde" y="512.64"/>
     <use style="fill:#ffffff;stroke:#d62728;" x="147.201405" xlink:href="#me39ad61dde" y="498.294803"/>
     <use style="fill:#ffffff;stroke:#d62728;" x="181.177986" xlink:href="#me39ad61dde" y="473.545962"/>
     <use style="fill:#ffffff;stroke:#d62728;" x="215.154567" xlink:href="#me39ad61dde" y="461.321229"/>
     <use style="fill:#ffffff;stroke:#d62728;" x="249.131148" xlink:href="#me39ad61dde" y="453.980985"/>
     <use style="fill:#ffffff;stroke:#d62728;" x="283.107728" xlink:href="#me39ad61dde" y="449.679876"/>
     <use style="fill:#ffffff;stroke:#d62728;" x="317.084309" xlink:href="#me39ad61dde" y="448.262677"/>
     <use style="fill:#ffffff;stroke:#d62728;" x="351.06089" xlink:href="#me39ad61dde" y="444.059122"/>
     <use style="fill:#ffffff;stroke:#d62728;" x="385.037471" xlink:href="#me39ad61dde" y="416.459052"/>
     <use style="fill:#ffffff;stroke:#d62728;" x="419.014052" xlink:href="#me39ad61dde" y="409.095275"/>
     <use style="fill:#ffffff;stroke:#d62728;" x="452.990632" xlink:href="#me39ad61dde" y="398.430187"/>
     <use style="fill:#ffffff;stroke:#d62728;" x="486.967213" xlink:href="#me39ad61dde" y="388.185817"/>
    </g>
   </g>
   <g id="line2d_29">
    <path clip-path="url(#p7561b81810)" d="M 117 512.64 
L 126.437939 503.571366 
L 160.41452 481.513317 
L 194.391101 452.538922 
L 228.367681 434.518506 
L 262.344262 427.919614 
L 296.320843 407.888267 
L 330.297424 396.118633 
L 364.274005 387.071931 
L 398.250585 373.004003 
" style="fill:none;stroke:#9467bd;stroke-linecap:square;stroke-width:1.5;"/>
    <g clip-path="url(#p7561b81810)">
     <use style="fill:#ffffff;stroke:#9467bd;" x="117" xlink:href="#md5cf36bc6b" y="512.64"/>
     <use style="fill:#ffffff;stroke:#9467bd;" x="126.437939" xlink:href="#md5cf36bc6b" y="503.571366"/>
     <use style="fill:#ffffff;stroke:#9467bd;" x="160.41452" xlink:href="#md5cf36bc6b" y="481.513317"/>
     <use style="fill:#ffffff;stroke:#9467bd;" x="194.391101" xlink:href="#md5cf36bc6b" y="452.538922"/>
     <use style="fill:#ffffff;stroke:#9467bd;" x="228.367681" xlink:href="#md5cf36bc6b" y="434.518506"/>
     <use style="fill:#ffffff;stroke:#9467bd;" x="262.344262" xlink:href="#md5cf36bc6b" y="427.919614"/>
     <use style="fill:#ffffff;stroke:#9467bd;" x="296.320843" xlink:href="#md5cf36bc6b" y="407.888267"/>
     <use style="fill:#ffffff;stroke:#9467bd;" x="330.297424" xlink:href="#md5cf36bc6b" y="396.118633"/>
     <use style="fill:#ffffff;stroke:#9467bd;" x="364.274005" xlink:href="#md5cf36bc6b" y="387.071931"/>
     <use style="fill:#ffffff;stroke:#9467bd;" x="398.250585" xlink:href="#md5cf36bc6b" y="373.004003"/>
    </g>
   </g>
   <g id="line2d_30">
    <path clip-path="url(#p7561b81810)" d="M 117 512.64 
L 140.783607 500.040482 
L 174.760187 496.562007 
L 208.736768 484.776022 
L 242.713349 479.898526 
L 276.68993 478.294556 
L 310.666511 471.983688 
L 344.643091 455.431556 
L 378.619672 448.262677 
L 412.596253 434.518506 
L 446.572834 425.327682 
" style="fill:none;stroke:#8c564b;stroke-linecap:square;stroke-width:1.5;"/>
    <g clip-path="url(#p7561b81810)">
     <use style="fill:#ffffff;stroke:#8c564b;" x="117" xlink:href="#m6741aac2fe" y="512.64"/>
     <use style="fill:#ffffff;stroke:#8c564b;" x="140.783607" xlink:href="#m6741aac2fe" y="500.040482"/>
     <use style="fill:#ffffff;stroke:#8c564b;" x="174.760187" xlink:href="#m6741aac2fe" y="496.562007"/>
     <use style="fill:#ffffff;stroke:#8c564b;" x="208.736768" xlink:href="#m6741aac2fe" y="484.776022"/>
     <use style="fill:#ffffff;stroke:#8c564b;" x="242.713349" xlink:href="#m6741aac2fe" y="479.898526"/>
     <use style="fill:#ffffff;stroke:#8c564b;" x="276.68993" xlink:href="#m6741aac2fe" y="478.294556"/>
     <use style="fill:#ffffff;stroke:#8c564b;" x="310.666511" xlink:href="#m6741aac2fe" y="471.983688"/>
     <use style="fill:#ffffff;stroke:#8c564b;" x="344.643091" xlink:href="#m6741aac2fe" y="455.431556"/>
     <use style="fill:#ffffff;stroke:#8c564b;" x="378.619672" xlink:href="#m6741aac2fe" y="448.262677"/>
     <use style="fill:#ffffff;stroke:#8c564b;" x="412.596253" xlink:href="#m6741aac2fe" y="434.518506"/>
     <use style="fill:#ffffff;stroke:#8c564b;" x="446.572834" xlink:href="#m6741aac2fe" y="425.327682"/>
    </g>
   </g>
   <g id="line2d_31">
    <path clip-path="url(#p7561b81810)" d="M 117 512.64 
L 128.325527 510.797707 
L 196.278689 496.562007 
L 230.255269 471.983688 
L 264.23185 455.431556 
L 298.208431 446.853553 
L 332.185012 445.452401 
L 366.161593 441.295784 
L 400.138173 437.207406 
L 434.114754 431.858137 
L 468.091335 425.327682 
L 502.067916 413.980857 
L 536.044496 411.526433 
" style="fill:none;stroke:#e377c2;stroke-linecap:square;stroke-width:1.5;"/>
    <g clip-path="url(#p7561b81810)">
     <use style="fill:#ffffff;stroke:#e377c2;" x="117" xlink:href="#m0e8adcf9fc" y="512.64"/>
     <use style="fill:#ffffff;stroke:#e377c2;" x="128.325527" xlink:href="#m0e8adcf9fc" y="510.797707"/>
     <use style="fill:#ffffff;stroke:#e377c2;" x="196.278689" xlink:href="#m0e8adcf9fc" y="496.562007"/>
     <use style="fill:#ffffff;stroke:#e377c2;" x="230.255269" xlink:href="#m0e8adcf9fc" y="471.983688"/>
     <use style="fill:#ffffff;stroke:#e377c2;" x="264.23185" xlink:href="#m0e8adcf9fc" y="455.431556"/>
     <use style="fill:#ffffff;stroke:#e377c2;" x="298.208431" xlink:href="#m0e8adcf9fc" y="446.853553"/>
     <use style="fill:#ffffff;stroke:#e377c2;" x="332.185012" xlink:href="#m0e8adcf9fc" y="445.452401"/>
     <use style="fill:#ffffff;stroke:#e377c2;" x="366.161593" xlink:href="#m0e8adcf9fc" y="441.295784"/>
     <use style="fill:#ffffff;stroke:#e377c2;" x="400.138173" xlink:href="#m0e8adcf9fc" y="437.207406"/>
     <use style="fill:#ffffff;stroke:#e377c2;" x="434.114754" xlink:href="#m0e8adcf9fc" y="431.858137"/>
     <use style="fill:#ffffff;stroke:#e377c2;" x="468.091335" xlink:href="#m0e8adcf9fc" y="425.327682"/>
     <use style="fill:#ffffff;stroke:#e377c2;" x="502.067916" xlink:href="#m0e8adcf9fc" y="413.980857"/>
     <use style="fill:#ffffff;stroke:#e377c2;" x="536.044496" xlink:href="#m0e8adcf9fc" y="411.526433"/>
    </g>
   </g>
   <g id="line2d_32">
    <path clip-path="url(#p7561b81810)" d="M 117 512.64 
L 128.325527 503.571366 
L 162.302108 467.356575 
L 196.278689 448.262677 
L 230.255269 429.225626 
L 264.23185 400.762497 
L 298.208431 376.184716 
L 332.185012 348.832852 
L 366.161593 323.103246 
L 400.138173 308.570632 
L 434.114754 295.544626 
L 468.091335 271.877567 
L 502.067916 239.953492 
L 536.044496 221.452829 
L 570.021077 200.526357 
L 603.997658 186.402407 
L 637.974239 173.418445 
L 671.95082 164.019304 
L 705.9274 152.895829 
L 739.903981 140.227938 
L 773.880562 131.739303 
L 807.857143 117.172024 
" style="fill:none;stroke:#7f7f7f;stroke-linecap:square;stroke-width:1.5;"/>
    <g clip-path="url(#p7561b81810)">
     <use style="fill:#ffffff;stroke:#7f7f7f;" x="117" xlink:href="#mf5ade999fc" y="512.64"/>
     <use style="fill:#ffffff;stroke:#7f7f7f;" x="128.325527" xlink:href="#mf5ade999fc" y="503.571366"/>
     <use style="fill:#ffffff;stroke:#7f7f7f;" x="162.302108" xlink:href="#mf5ade999fc" y="467.356575"/>
     <use style="fill:#ffffff;stroke:#7f7f7f;" x="196.278689" xlink:href="#mf5ade999fc" y="448.262677"/>
     <use style="fill:#ffffff;stroke:#7f7f7f;" x="230.255269" xlink:href="#mf5ade999fc" y="429.225626"/>
     <use style="fill:#ffffff;stroke:#7f7f7f;" x="264.23185" xlink:href="#mf5ade999fc" y="400.762497"/>
     <use style="fill:#ffffff;stroke:#7f7f7f;" x="298.208431" xlink:href="#mf5ade999fc" y="376.184716"/>
     <use style="fill:#ffffff;stroke:#7f7f7f;" x="332.185012" xlink:href="#mf5ade999fc" y="348.832852"/>
     <use style="fill:#ffffff;stroke:#7f7f7f;" x="366.161593" xlink:href="#mf5ade999fc" y="323.103246"/>
     <use style="fill:#ffffff;stroke:#7f7f7f;" x="400.138173" xlink:href="#mf5ade999fc" y="308.570632"/>
     <use style="fill:#ffffff;stroke:#7f7f7f;" x="434.114754" xlink:href="#mf5ade999fc" y="295.544626"/>
     <use style="fill:#ffffff;stroke:#7f7f7f;" x="468.091335" xlink:href="#mf5ade999fc" y="271.877567"/>
     <use style="fill:#ffffff;stroke:#7f7f7f;" x="502.067916" xlink:href="#mf5ade999fc" y="239.953492"/>
     <use style="fill:#ffffff;stroke:#7f7f7f;" x="536.044496" xlink:href="#mf5ade999fc" y="221.452829"/>
     <use style="fill:#ffffff;stroke:#7f7f7f;" x="570.021077" xlink:href="#mf5ade999fc" y="200.526357"/>
     <use style="fill:#ffffff;stroke:#7f7f7f;" x="603.997658" xlink:href="#mf5ade999fc" y="186.402407"/>
     <use style="fill:#ffffff;stroke:#7f7f7f;" x="637.974239" xlink:href="#mf5ade999fc" y="173.418445"/>
     <use style="fill:#ffffff;stroke:#7f7f7f;" x="671.95082" xlink:href="#mf5ade999fc" y="164.019304"/>
     <use style="fill:#ffffff;stroke:#7f7f7f;" x="705.9274" xlink:href="#mf5ade999fc" y="152.895829"/>
     <use style="fill:#ffffff;stroke:#7f7f7f;" x="739.903981" xlink:href="#mf5ade999fc" y="140.227938"/>
     <use style="fill:#ffffff;stroke:#7f7f7f;" x="773.880562" xlink:href="#mf5ade999fc" y="131.739303"/>
     <use style="fill:#ffffff;stroke:#7f7f7f;" x="807.857143" xlink:href="#mf5ade999fc" y="117.172024"/>
    </g>
   </g>
   <g id="line2d_33">
    <path clip-path="url(#p7561b81810)" d="M 117 512.64 
L 125.993801 496.562007 
L 159.970382 476.701243 
L 193.946962 462.816094 
L 227.923543 446.853553 
L 261.900124 435.859347 
L 295.876705 429.225626 
L 329.853286 380.485887 
L 363.829866 366.754299 
L 397.806447 344.057972 
L 431.783028 319.615352 
L 465.759609 303.615534 
L 499.73619 285.38221 
L 533.71277 269.686601 
L 567.689351 251.354041 
L 601.665932 236.031431 
L 635.642513 211.110077 
" style="fill:none;stroke:#bcbd22;stroke-linecap:square;stroke-width:1.5;"/>
    <g clip-path="url(#p7561b81810)">
     <use style="fill:#ffffff;stroke:#bcbd22;" x="117" xlink:href="#m5aa11ad9ca" y="512.64"/>
     <use style="fill:#ffffff;stroke:#bcbd22;" x="125.993801" xlink:href="#m5aa11ad9ca" y="496.562007"/>
     <use style="fill:#ffffff;stroke:#bcbd22;" x="159.970382" xlink:href="#m5aa11ad9ca" y="476.701243"/>
     <use style="fill:#ffffff;stroke:#bcbd22;" x="193.946962" xlink:href="#m5aa11ad9ca" y="462.816094"/>
     <use style="fill:#ffffff;stroke:#bcbd22;" x="227.923543" xlink:href="#m5aa11ad9ca" y="446.853553"/>
     <use style="fill:#ffffff;stroke:#bcbd22;" x="261.900124" xlink:href="#m5aa11ad9ca" y="435.859347"/>
     <use style="fill:#ffffff;stroke:#bcbd22;" x="295.876705" xlink:href="#m5aa11ad9ca" y="429.225626"/>
     <use style="fill:#ffffff;stroke:#bcbd22;" x="329.853286" xlink:href="#m5aa11ad9ca" y="380.485887"/>
     <use style="fill:#ffffff;stroke:#bcbd22;" x="363.829866" xlink:href="#m5aa11ad9ca" y="366.754299"/>
     <use style="fill:#ffffff;stroke:#bcbd22;" x="397.806447" xlink:href="#m5aa11ad9ca" y="344.057972"/>
     <use style="fill:#ffffff;stroke:#bcbd22;" x="431.783028" xlink:href="#m5aa11ad9ca" y="319.615352"/>
     <use style="fill:#ffffff;stroke:#bcbd22;" x="465.759609" xlink:href="#m5aa11ad9ca" y="303.615534"/>
     <use style="fill:#ffffff;stroke:#bcbd22;" x="499.73619" xlink:href="#m5aa11ad9ca" y="285.38221"/>
     <use style="fill:#ffffff;stroke:#bcbd22;" x="533.71277" xlink:href="#m5aa11ad9ca" y="269.686601"/>
     <use style="fill:#ffffff;stroke:#bcbd22;" x="567.689351" xlink:href="#m5aa11ad9ca" y="251.354041"/>
     <use style="fill:#ffffff;stroke:#bcbd22;" x="601.665932" xlink:href="#m5aa11ad9ca" y="236.031431"/>
     <use style="fill:#ffffff;stroke:#bcbd22;" x="635.642513" xlink:href="#m5aa11ad9ca" y="211.110077"/>
    </g>
   </g>
   <g id="line2d_34">
    <path clip-path="url(#p7561b81810)" d="M 117 512.64 
L 148.145199 493.134223 
L 182.12178 465.833637 
L 216.098361 452.538922 
L 250.074941 442.673615 
L 284.051522 429.225626 
L 318.028103 409.095275 
L 352.004684 394.97051 
L 385.981265 378.326568 
L 419.957845 369.860858 
L 453.934426 363.683381 
L 487.911007 354.675573 
L 521.887588 345.006288 
L 555.864169 333.83745 
L 589.840749 330.212984 
L 623.81733 320.483247 
L 657.793911 316.170453 
" style="fill:none;stroke:#17becf;stroke-linecap:square;stroke-width:1.5;"/>
    <g clip-path="url(#p7561b81810)">
     <use style="fill:#ffffff;stroke:#17becf;" x="117" xlink:href="#m4b057b0177" y="512.64"/>
     <use style="fill:#ffffff;stroke:#17becf;" x="148.145199" xlink:href="#m4b057b0177" y="493.134223"/>
     <use style="fill:#ffffff;stroke:#17becf;" x="182.12178" xlink:href="#m4b057b0177" y="465.833637"/>
     <use style="fill:#ffffff;stroke:#17becf;" x="216.098361" xlink:href="#m4b057b0177" y="452.538922"/>
     <use style="fill:#ffffff;stroke:#17becf;" x="250.074941" xlink:href="#m4b057b0177" y="442.673615"/>
     <use style="fill:#ffffff;stroke:#17becf;" x="284.051522" xlink:href="#m4b057b0177" y="429.225626"/>
     <use style="fill:#ffffff;stroke:#17becf;" x="318.028103" xlink:href="#m4b057b0177" y="409.095275"/>
     <use style="fill:#ffffff;stroke:#17becf;" x="352.004684" xlink:href="#m4b057b0177" y="394.97051"/>
     <use style="fill:#ffffff;stroke:#17becf;" x="385.981265" xlink:href="#m4b057b0177" y="378.326568"/>
     <use style="fill:#ffffff;stroke:#17becf;" x="419.957845" xlink:href="#m4b057b0177" y="369.860858"/>
     <use style="fill:#ffffff;stroke:#17becf;" x="453.934426" xlink:href="#m4b057b0177" y="363.683381"/>
     <use style="fill:#ffffff;stroke:#17becf;" x="487.911007" xlink:href="#m4b057b0177" y="354.675573"/>
     <use style="fill:#ffffff;stroke:#17becf;" x="521.887588" xlink:href="#m4b057b0177" y="345.006288"/>
     <use style="fill:#ffffff;stroke:#17becf;" x="555.864169" xlink:href="#m4b057b0177" y="333.83745"/>
     <use style="fill:#ffffff;stroke:#17becf;" x="589.840749" xlink:href="#m4b057b0177" y="330.212984"/>
     <use style="fill:#ffffff;stroke:#17becf;" x="623.81733" xlink:href="#m4b057b0177" y="320.483247"/>
     <use style="fill:#ffffff;stroke:#17becf;" x="657.793911" xlink:href="#m4b057b0177" y="316.170453"/>
    </g>
   </g>
   <g id="patch_3">
    <path d="M 117 512.64 
L 117 69.12 
" style="fill:none;stroke:#666666;stroke-linecap:square;stroke-linejoin:miter;stroke-width:0.8;"/>
   </g>
   <g id="patch_4">
    <path d="M 117 512.64 
L 842.4 512.64 
" style="fill:none;stroke:#666666;stroke-linecap:square;stroke-linejoin:miter;stroke-width:0.8;"/>
   </g>
   <g id="text_7">
    <g id="patch_5">
     <path d="M 311.364995 381.906255 
C 312.864995 383.406255 325.277495 383.406255 326.777495 381.906255 
C 328.277495 380.406255 328.277495 370.72813 326.777495 369.22813 
C 325.277495 367.72813 312.864995 367.72813 311.364995 369.22813 
C 309.864995 370.72813 309.864995 380.406255 311.364995 381.906255 
z
" style="fill:#ffffff;stroke:#1f77b4;stroke-linejoin:miter;"/>
    </g>
    <!-- AL -->
    <defs>
     <path d="M 34.1875 63.1875 
L 20.796875 26.90625 
L 47.609375 26.90625 
z
M 28.609375 72.90625 
L 39.796875 72.90625 
L 67.578125 0 
L 57.328125 0 
L 50.6875 18.703125 
L 17.828125 18.703125 
L 11.1875 0 
L 0.78125 0 
z
" id="DejaVuSans-65"/>
     <path d="M 9.8125 72.90625 
L 19.671875 72.90625 
L 19.671875 8.296875 
L 55.171875 8.296875 
L 55.171875 0 
L 9.8125 0 
z
" id="DejaVuSans-76"/>
    </defs>
    <g style="fill:#1f77b4;" transform="translate(312.864995 378.326568)scale(0.1 -0.1)">
     <use xlink:href="#DejaVuSans-65"/>
     <use x="68.408203" xlink:href="#DejaVuSans-76"/>
    </g>
   </g>
   <g id="text_8">
    <g id="patch_6">
     <path d="M 581.905791 316.347064 
C 583.405791 317.847064 597.096416 317.847064 598.596416 316.347064 
C 600.096416 314.847064 600.096416 305.168939 598.596416 303.668939 
C 597.096416 302.168939 583.405791 302.168939 581.905791 303.668939 
C 580.405791 305.168939 580.405791 314.847064 581.905791 316.347064 
z
" style="fill:#ffffff;stroke:#ff7f0e;stroke-linejoin:miter;"/>
    </g>
    <!-- AZ -->
    <defs>
     <path d="M 5.609375 72.90625 
L 62.890625 72.90625 
L 62.890625 65.375 
L 16.796875 8.296875 
L 64.015625 8.296875 
L 64.015625 0 
L 4.5 0 
L 4.5 7.515625 
L 50.59375 64.59375 
L 5.609375 64.59375 
z
" id="DejaVuSans-90"/>
    </defs>
    <g style="fill:#ff7f0e;" transform="translate(583.405791 312.767376)scale(0.1 -0.1)">
     <use xlink:href="#DejaVuSans-65"/>
     <use x="68.408203" xlink:href="#DejaVuSans-90"/>
    </g>
   </g>
   <g id="text_9">
    <g id="patch_7">
     <path d="M 270.282201 434.118128 
C 271.782201 435.618128 286.465014 435.618128 287.965014 434.118128 
C 289.465014 432.618128 289.465014 422.940003 287.965014 421.440003 
C 286.465014 419.940003 271.782201 419.940003 270.282201 421.440003 
C 268.782201 422.940003 268.782201 432.618128 270.282201 434.118128 
z
" style="fill:#ffffff;stroke:#2ca02c;stroke-linejoin:miter;"/>
    </g>
    <!-- DC -->
    <defs>
     <path d="M 64.40625 67.28125 
L 64.40625 56.890625 
Q 59.421875 61.53125 53.78125 63.8125 
Q 48.140625 66.109375 41.796875 66.109375 
Q 29.296875 66.109375 22.65625 58.46875 
Q 16.015625 50.828125 16.015625 36.375 
Q 16.015625 21.96875 22.65625 14.328125 
Q 29.296875 6.6875 41.796875 6.6875 
Q 48.140625 6.6875 53.78125 8.984375 
Q 59.421875 11.28125 64.40625 15.921875 
L 64.40625 5.609375 
Q 59.234375 2.09375 53.4375 0.328125 
Q 47.65625 -1.421875 41.21875 -1.421875 
Q 24.65625 -1.421875 15.125 8.703125 
Q 5.609375 18.84375 5.609375 36.375 
Q 5.609375 53.953125 15.125 64.078125 
Q 24.65625 74.21875 41.21875 74.21875 
Q 47.75 74.21875 53.53125 72.484375 
Q 59.328125 70.75 64.40625 67.28125 
z
" id="DejaVuSans-67"/>
    </defs>
    <g style="fill:#2ca02c;" transform="translate(271.782201 430.53844)scale(0.1 -0.1)">
     <use xlink:href="#DejaVuSans-68"/>
     <use x="77.001953" xlink:href="#DejaVuSans-67"/>
    </g>
   </g>
   <g id="text_10">
    <g id="patch_8">
     <path d="M 115.5 516.219688 
C 117 517.719688 131.01875 517.719688 132.51875 516.219688 
C 134.01875 514.719688 134.01875 505.041563 132.51875 503.541563 
C 131.01875 502.041563 117 502.041563 115.5 503.541563 
C 114 505.041563 114 514.719688 115.5 516.219688 
z
" style="fill:#ffffff;stroke:#d62728;stroke-linejoin:miter;"/>
    </g>
    <!-- DE -->
    <defs>
     <path d="M 9.8125 72.90625 
L 55.90625 72.90625 
L 55.90625 64.59375 
L 19.671875 64.59375 
L 19.671875 43.015625 
L 54.390625 43.015625 
L 54.390625 34.71875 
L 19.671875 34.71875 
L 19.671875 8.296875 
L 56.78125 8.296875 
L 56.78125 0 
L 9.8125 0 
z
" id="DejaVuSans-69"/>
    </defs>
    <g style="fill:#d62728;" transform="translate(117 512.64)scale(0.1 -0.1)">
     <use xlink:href="#DejaVuSans-68"/>
     <use x="77.001953" xlink:href="#DejaVuSans-69"/>
    </g>
   </g>
   <g id="text_11">
    <g id="patch_9">
     <path d="M 137.121461 503.620169 
C 138.621461 505.120169 148.412086 505.120169 149.912086 503.620169 
C 151.412086 502.120169 151.412086 492.442044 149.912086 490.942044 
C 148.412086 489.442044 138.621461 489.442044 137.121461 490.942044 
C 135.621461 492.442044 135.621461 502.120169 137.121461 503.620169 
z
" style="fill:#ffffff;stroke:#9467bd;stroke-linejoin:miter;"/>
    </g>
    <!-- IA -->
    <defs>
     <path d="M 9.8125 72.90625 
L 19.671875 72.90625 
L 19.671875 0 
L 9.8125 0 
z
" id="DejaVuSans-73"/>
    </defs>
    <g style="fill:#9467bd;" transform="translate(138.621461 500.040482)scale(0.1 -0.1)">
     <use xlink:href="#DejaVuSans-73"/>
     <use x="29.492188" xlink:href="#DejaVuSans-65"/>
    </g>
   </g>
   <g id="text_12">
    <g id="patch_10">
     <path d="M 217.429742 496.713911 
C 218.929742 498.213911 231.835992 498.213911 233.335992 496.713911 
C 234.835992 495.213911 234.835992 485.535786 233.335992 484.035786 
C 231.835992 482.535786 218.929742 482.535786 217.429742 484.035786 
C 215.929742 485.535786 215.929742 495.213911 217.429742 496.713911 
z
" style="fill:#ffffff;stroke:#8c564b;stroke-linejoin:miter;"/>
    </g>
    <!-- KS -->
    <defs>
     <path d="M 9.8125 72.90625 
L 19.671875 72.90625 
L 19.671875 42.09375 
L 52.390625 72.90625 
L 65.09375 72.90625 
L 28.90625 38.921875 
L 67.671875 0 
L 54.6875 0 
L 19.671875 35.109375 
L 19.671875 0 
L 9.8125 0 
z
" id="DejaVuSans-75"/>
     <path d="M 53.515625 70.515625 
L 53.515625 60.890625 
Q 47.90625 63.578125 42.921875 64.890625 
Q 37.9375 66.21875 33.296875 66.21875 
Q 25.25 66.21875 20.875 63.09375 
Q 16.5 59.96875 16.5 54.203125 
Q 16.5 49.359375 19.40625 46.890625 
Q 22.3125 44.4375 30.421875 42.921875 
L 36.375 41.703125 
Q 47.40625 39.59375 52.65625 34.296875 
Q 57.90625 29 57.90625 20.125 
Q 57.90625 9.515625 50.796875 4.046875 
Q 43.703125 -1.421875 29.984375 -1.421875 
Q 24.8125 -1.421875 18.96875 -0.25 
Q 13.140625 0.921875 6.890625 3.21875 
L 6.890625 13.375 
Q 12.890625 10.015625 18.65625 8.296875 
Q 24.421875 6.59375 29.984375 6.59375 
Q 38.421875 6.59375 43.015625 9.90625 
Q 47.609375 13.234375 47.609375 19.390625 
Q 47.609375 24.75 44.3125 27.78125 
Q 41.015625 30.8125 33.5 32.328125 
L 27.484375 33.5 
Q 16.453125 35.6875 11.515625 40.375 
Q 6.59375 45.0625 6.59375 53.421875 
Q 6.59375 63.09375 13.40625 68.65625 
Q 20.21875 74.21875 32.171875 74.21875 
Q 37.3125 74.21875 42.625 73.28125 
Q 47.953125 72.359375 53.515625 70.515625 
z
" id="DejaVuSans-83"/>
    </defs>
    <g style="fill:#8c564b;" transform="translate(218.929742 493.134223)scale(0.1 -0.1)">
     <use xlink:href="#DejaVuSans-75"/>
     <use x="65.576172" xlink:href="#DejaVuSans-83"/>
    </g>
   </g>
   <g id="text_13">
    <g id="patch_11">
     <path d="M 502.833021 378.699929 
C 504.333021 380.199929 516.636146 380.199929 518.136146 378.699929 
C 519.636146 377.199929 519.636146 367.521804 518.136146 366.021804 
C 516.636146 364.521804 504.333021 364.521804 502.833021 366.021804 
C 501.333021 367.521804 501.333021 377.199929 502.833021 378.699929 
z
" style="fill:#ffffff;stroke:#e377c2;stroke-linejoin:miter;"/>
    </g>
    <!-- KY -->
    <defs>
     <path d="M -0.203125 72.90625 
L 10.40625 72.90625 
L 30.609375 42.921875 
L 50.6875 72.90625 
L 61.28125 72.90625 
L 35.5 34.71875 
L 35.5 0 
L 25.59375 0 
L 25.59375 34.71875 
z
" id="DejaVuSans-89"/>
    </defs>
    <g style="fill:#e377c2;" transform="translate(504.333021 375.120242)scale(0.1 -0.1)">
     <use xlink:href="#DejaVuSans-75"/>
     <use x="61.951172" xlink:href="#DejaVuSans-89"/>
    </g>
   </g>
   <g id="text_14">
    <g id="patch_12">
     <path d="M 375.320912 357.272693 
C 376.820912 358.772693 392.930287 358.772693 394.430287 357.272693 
C 395.930287 355.772693 395.930287 346.094568 394.430287 344.594568 
C 392.930287 343.094568 376.820912 343.094568 375.320912 344.594568 
C 373.820912 346.094568 373.820912 355.772693 375.320912 357.272693 
z
" style="fill:#ffffff;stroke:#7f7f7f;stroke-linejoin:miter;"/>
    </g>
    <!-- MN -->
    <defs>
     <path d="M 9.8125 72.90625 
L 24.515625 72.90625 
L 43.109375 23.296875 
L 61.8125 72.90625 
L 76.515625 72.90625 
L 76.515625 0 
L 66.890625 0 
L 66.890625 64.015625 
L 48.09375 14.015625 
L 38.1875 14.015625 
L 19.390625 64.015625 
L 19.390625 0 
L 9.8125 0 
z
" id="DejaVuSans-77"/>
     <path d="M 9.8125 72.90625 
L 23.09375 72.90625 
L 55.421875 11.921875 
L 55.421875 72.90625 
L 64.984375 72.90625 
L 64.984375 0 
L 51.703125 0 
L 19.390625 60.984375 
L 19.390625 0 
L 9.8125 0 
z
" id="DejaVuSans-78"/>
    </defs>
    <g style="fill:#7f7f7f;" transform="translate(376.820912 353.693005)scale(0.1 -0.1)">
     <use xlink:href="#DejaVuSans-77"/>
     <use x="86.279297" xlink:href="#DejaVuSans-78"/>
    </g>
   </g>
   <g id="text_15">
    <g id="patch_13">
     <path d="M 580.717799 319.750141 
C 582.217799 321.250141 598.717799 321.250141 600.217799 319.750141 
C 601.717799 318.250141 601.717799 308.572016 600.217799 307.072016 
C 598.717799 305.572016 582.217799 305.572016 580.717799 307.072016 
C 579.217799 308.572016 579.217799 318.250141 580.717799 319.750141 
z
" style="fill:#ffffff;stroke:#bcbd22;stroke-linejoin:miter;"/>
    </g>
    <!-- MO -->
    <defs>
     <path d="M 39.40625 66.21875 
Q 28.65625 66.21875 22.328125 58.203125 
Q 16.015625 50.203125 16.015625 36.375 
Q 16.015625 22.609375 22.328125 14.59375 
Q 28.65625 6.59375 39.40625 6.59375 
Q 50.140625 6.59375 56.421875 14.59375 
Q 62.703125 22.609375 62.703125 36.375 
Q 62.703125 50.203125 56.421875 58.203125 
Q 50.140625 66.21875 39.40625 66.21875 
z
M 39.40625 74.21875 
Q 54.734375 74.21875 63.90625 63.9375 
Q 73.09375 53.65625 73.09375 36.375 
Q 73.09375 19.140625 63.90625 8.859375 
Q 54.734375 -1.421875 39.40625 -1.421875 
Q 24.03125 -1.421875 14.8125 8.828125 
Q 5.609375 19.09375 5.609375 36.375 
Q 5.609375 53.65625 14.8125 63.9375 
Q 24.03125 74.21875 39.40625 74.21875 
z
" id="DejaVuSans-79"/>
    </defs>
    <g style="fill:#bcbd22;" transform="translate(582.217799 316.170453)scale(0.1 -0.1)">
     <use xlink:href="#DejaVuSans-77"/>
     <use x="86.279297" xlink:href="#DejaVuSans-79"/>
    </g>
   </g>
   <g id="text_16">
    <g id="patch_14">
     <path d="M 484.015222 369.306433 
C 485.515222 370.806433 500.491785 370.806433 501.991785 369.306433 
C 503.491785 367.806433 503.491785 358.128308 501.991785 356.628308 
C 500.491785 355.128308 485.515222 355.128308 484.015222 356.628308 
C 482.515222 358.128308 482.515222 367.806433 484.015222 369.306433 
z
" style="fill:#ffffff;stroke:#17becf;stroke-linejoin:miter;"/>
    </g>
    <!-- MS -->
    <g style="fill:#17becf;" transform="translate(485.515222 365.726745)scale(0.1 -0.1)">
     <use xlink:href="#DejaVuSans-77"/>
     <use x="86.279297" xlink:href="#DejaVuSans-83"/>
    </g>
   </g>
   <g id="text_17">
    <g id="patch_15">
     <path d="M 467.620928 313.821523 
C 469.120928 315.321523 483.584991 315.321523 485.084991 313.821523 
C 486.584991 312.321523 486.584991 302.643398 485.084991 301.143398 
C 483.584991 299.643398 469.120928 299.643398 467.620928 301.143398 
C 466.120928 302.643398 466.120928 312.321523 467.620928 313.821523 
z
" style="fill:#ffffff;stroke:#1f77b4;stroke-linejoin:miter;"/>
    </g>
    <!-- NC -->
    <g style="fill:#1f77b4;" transform="translate(469.120928 310.241835)scale(0.1 -0.1)">
     <use xlink:href="#DejaVuSans-78"/>
     <use x="74.804688" xlink:href="#DejaVuSans-67"/>
    </g>
   </g>
   <g id="text_18">
    <g id="patch_16">
     <path d="M 569.550671 381.906255 
C 571.050671 383.406255 585.372546 383.406255 586.872546 381.906255 
C 588.372546 380.406255 588.372546 370.72813 586.872546 369.22813 
C 585.372546 367.72813 571.050671 367.72813 569.550671 369.22813 
C 568.050671 370.72813 568.050671 380.406255 569.550671 381.906255 
z
" style="fill:#ffffff;stroke:#ff7f0e;stroke-linejoin:miter;"/>
    </g>
    <!-- NV -->
    <defs>
     <path d="M 28.609375 0 
L 0.78125 72.90625 
L 11.078125 72.90625 
L 34.1875 11.53125 
L 57.328125 72.90625 
L 67.578125 72.90625 
L 39.796875 0 
z
" id="DejaVuSans-86"/>
    </defs>
    <g style="fill:#ff7f0e;" transform="translate(571.050671 378.326568)scale(0.1 -0.1)">
     <use xlink:href="#DejaVuSans-78"/>
     <use x="74.804688" xlink:href="#DejaVuSans-86"/>
    </g>
   </g>
   <g id="text_19">
    <g id="patch_17">
     <path d="M 767.232595 93.819688 
C 768.732595 95.319688 784.124783 95.319688 785.624783 93.819688 
C 787.124783 92.319688 787.124783 82.641563 785.624783 81.141563 
C 784.124783 79.641563 768.732595 79.641563 767.232595 81.141563 
C 765.732595 82.641563 765.732595 92.319688 767.232595 93.819688 
z
" style="fill:#ffffff;stroke:#2ca02c;stroke-linejoin:miter;"/>
    </g>
    <!-- OH -->
    <defs>
     <path d="M 9.8125 72.90625 
L 19.671875 72.90625 
L 19.671875 43.015625 
L 55.515625 43.015625 
L 55.515625 72.90625 
L 65.375 72.90625 
L 65.375 0 
L 55.515625 0 
L 55.515625 34.71875 
L 19.671875 34.71875 
L 19.671875 0 
L 9.8125 0 
z
" id="DejaVuSans-72"/>
    </defs>
    <g style="fill:#2ca02c;" transform="translate(768.732595 90.24)scale(0.1 -0.1)">
     <use xlink:href="#DejaVuSans-79"/>
     <use x="78.710938" xlink:href="#DejaVuSans-72"/>
    </g>
   </g>
   <g id="text_20">
    <g id="patch_18">
     <path d="M 485.467213 391.765504 
C 486.967213 393.265504 501.396901 393.265504 502.896901 391.765504 
C 504.396901 390.265504 504.396901 380.587379 502.896901 379.087379 
C 501.396901 377.587379 486.967213 377.587379 485.467213 379.087379 
C 483.967213 380.587379 483.967213 390.265504 485.467213 391.765504 
z
" style="fill:#ffffff;stroke:#d62728;stroke-linejoin:miter;"/>
    </g>
    <!-- OK -->
    <g style="fill:#d62728;" transform="translate(486.967213 388.185817)scale(0.1 -0.1)">
     <use xlink:href="#DejaVuSans-79"/>
     <use x="78.710938" xlink:href="#DejaVuSans-75"/>
    </g>
   </g>
   <g id="text_21">
    <g id="patch_19">
     <path d="M 396.750585 376.58369 
C 398.250585 378.08369 408.149023 378.08369 409.649023 376.58369 
C 411.149023 375.08369 411.149023 365.405565 409.649023 363.905565 
C 408.149023 362.405565 398.250585 362.405565 396.750585 363.905565 
C 395.250585 365.405565 395.250585 375.08369 396.750585 376.58369 
z
" style="fill:#ffffff;stroke:#9467bd;stroke-linejoin:miter;"/>
    </g>
    <!-- RI -->
    <defs>
     <path d="M 44.390625 34.1875 
Q 47.5625 33.109375 50.5625 29.59375 
Q 53.5625 26.078125 56.59375 19.921875 
L 66.609375 0 
L 56 0 
L 46.6875 18.703125 
Q 43.0625 26.03125 39.671875 28.421875 
Q 36.28125 30.8125 30.421875 30.8125 
L 19.671875 30.8125 
L 19.671875 0 
L 9.8125 0 
L 9.8125 72.90625 
L 32.078125 72.90625 
Q 44.578125 72.90625 50.734375 67.671875 
Q 56.890625 62.453125 56.890625 51.90625 
Q 56.890625 45.015625 53.6875 40.46875 
Q 50.484375 35.9375 44.390625 34.1875 
z
M 19.671875 64.796875 
L 19.671875 38.921875 
L 32.078125 38.921875 
Q 39.203125 38.921875 42.84375 42.21875 
Q 46.484375 45.515625 46.484375 51.90625 
Q 46.484375 58.296875 42.84375 61.546875 
Q 39.203125 64.796875 32.078125 64.796875 
z
" id="DejaVuSans-82"/>
    </defs>
    <g style="fill:#9467bd;" transform="translate(398.250585 373.004003)scale(0.1 -0.1)">
     <use xlink:href="#DejaVuSans-82"/>
     <use x="69.482422" xlink:href="#DejaVuSans-73"/>
    </g>
   </g>
   <g id="text_22">
    <g id="patch_20">
     <path d="M 445.072834 428.90737 
C 446.572834 430.40737 459.904084 430.40737 461.404084 428.90737 
C 462.904084 427.40737 462.904084 417.729245 461.404084 416.229245 
C 459.904084 414.729245 446.572834 414.729245 445.072834 416.229245 
C 443.572834 417.729245 443.572834 427.40737 445.072834 428.90737 
z
" style="fill:#ffffff;stroke:#8c564b;stroke-linejoin:miter;"/>
    </g>
    <!-- SC -->
    <g style="fill:#8c564b;" transform="translate(446.572834 425.327682)scale(0.1 -0.1)">
     <use xlink:href="#DejaVuSans-83"/>
     <use x="63.476562" xlink:href="#DejaVuSans-67"/>
    </g>
   </g>
   <g id="text_23">
    <g id="patch_21">
     <path d="M 534.544496 415.106121 
C 536.044496 416.606121 549.633559 416.606121 551.133559 415.106121 
C 552.633559 413.606121 552.633559 403.927996 551.133559 402.427996 
C 549.633559 400.927996 536.044496 400.927996 534.544496 402.427996 
C 533.044496 403.927996 533.044496 413.606121 534.544496 415.106121 
z
" style="fill:#ffffff;stroke:#e377c2;stroke-linejoin:miter;"/>
    </g>
    <!-- TN -->
    <defs>
     <path d="M -0.296875 72.90625 
L 61.375 72.90625 
L 61.375 64.59375 
L 35.5 64.59375 
L 35.5 0 
L 25.59375 0 
L 25.59375 64.59375 
L -0.296875 64.59375 
z
" id="DejaVuSans-84"/>
    </defs>
    <g style="fill:#e377c2;" transform="translate(536.044496 411.526433)scale(0.1 -0.1)">
     <use xlink:href="#DejaVuSans-84"/>
     <use x="61.083984" xlink:href="#DejaVuSans-78"/>
    </g>
   </g>
   <g id="text_24">
    <g id="patch_22">
     <path d="M 806.357143 120.751712 
C 807.857143 122.251712 820.814955 122.251712 822.314955 120.751712 
C 823.814955 119.251712 823.814955 109.573587 822.314955 108.073587 
C 820.814955 106.573587 807.857143 106.573587 806.357143 108.073587 
C 804.857143 109.573587 804.857143 119.251712 806.357143 120.751712 
z
" style="fill:#ffffff;stroke:#7f7f7f;stroke-linejoin:miter;"/>
    </g>
    <!-- TX -->
    <defs>
     <path d="M 6.296875 72.90625 
L 16.890625 72.90625 
L 35.015625 45.796875 
L 53.21875 72.90625 
L 63.8125 72.90625 
L 40.375 37.890625 
L 65.375 0 
L 54.78125 0 
L 34.28125 31 
L 13.625 0 
L 2.984375 0 
L 29 38.921875 
z
" id="DejaVuSans-88"/>
    </defs>
    <g style="fill:#7f7f7f;" transform="translate(807.857143 117.172024)scale(0.1 -0.1)">
     <use xlink:href="#DejaVuSans-84"/>
     <use x="61.083984" xlink:href="#DejaVuSans-88"/>
    </g>
   </g>
   <g id="text_25">
    <g id="patch_23">
     <path d="M 634.142513 214.689764 
C 635.642513 216.189764 648.686263 216.189764 650.186263 214.689764 
C 651.686263 213.189764 651.686263 203.511639 650.186263 202.011639 
C 648.686263 200.511639 635.642513 200.511639 634.142513 202.011639 
C 632.642513 203.511639 632.642513 213.189764 634.142513 214.689764 
z
" style="fill:#ffffff;stroke:#bcbd22;stroke-linejoin:miter;"/>
    </g>
    <!-- VA -->
    <g style="fill:#bcbd22;" transform="translate(635.642513 211.110077)scale(0.1 -0.1)">
     <use xlink:href="#DejaVuSans-86"/>
     <use x="62.033203" xlink:href="#DejaVuSans-65"/>
    </g>
   </g>
   <g id="text_26">
    <g id="patch_24">
     <path d="M 656.293911 319.750141 
C 657.793911 321.250141 670.631411 321.250141 672.131411 319.750141 
C 673.631411 318.250141 673.631411 308.572016 672.131411 307.072016 
C 670.631411 305.572016 657.793911 305.572016 656.293911 307.072016 
C 654.793911 308.572016 654.793911 318.250141 656.293911 319.750141 
z
" style="fill:#ffffff;stroke:#17becf;stroke-linejoin:miter;"/>
    </g>
    <!-- WI -->
    <defs>
     <path d="M 3.328125 72.90625 
L 13.28125 72.90625 
L 28.609375 11.28125 
L 43.890625 72.90625 
L 54.984375 72.90625 
L 70.3125 11.28125 
L 85.59375 72.90625 
L 95.609375 72.90625 
L 77.296875 0 
L 64.890625 0 
L 49.515625 63.28125 
L 33.984375 0 
L 21.578125 0 
z
" id="DejaVuSans-87"/>
    </defs>
    <g style="fill:#17becf;" transform="translate(657.793911 316.170453)scale(0.1 -0.1)">
     <use xlink:href="#DejaVuSans-87"/>
     <use x="98.876953" xlink:href="#DejaVuSans-73"/>
    </g>
   </g>
   <g id="text_27">
    <!-- 1d -->
    <g style="fill:#b2b2b2;" transform="translate(187.134426 89.024602)scale(0.1 -0.1)">
     <use xlink:href="#DejaVuSans-49"/>
     <use x="63.623047" xlink:href="#DejaVuSans-100"/>
    </g>
   </g>
   <g id="text_28">
    <!-- 2d -->
    <g style="fill:#b2b2b2;" transform="translate(282.268852 89.024602)scale(0.1 -0.1)">
     <use xlink:href="#DejaVuSans-50"/>
     <use x="63.623047" xlink:href="#DejaVuSans-100"/>
    </g>
   </g>
   <g id="text_29">
    <!-- 3d -->
    <defs>
     <path d="M 40.578125 39.3125 
Q 47.65625 37.796875 51.625 33 
Q 55.609375 28.21875 55.609375 21.1875 
Q 55.609375 10.40625 48.1875 4.484375 
Q 40.765625 -1.421875 27.09375 -1.421875 
Q 22.515625 -1.421875 17.65625 -0.515625 
Q 12.796875 0.390625 7.625 2.203125 
L 7.625 11.71875 
Q 11.71875 9.328125 16.59375 8.109375 
Q 21.484375 6.890625 26.8125 6.890625 
Q 36.078125 6.890625 40.9375 10.546875 
Q 45.796875 14.203125 45.796875 21.1875 
Q 45.796875 27.640625 41.28125 31.265625 
Q 36.765625 34.90625 28.71875 34.90625 
L 20.21875 34.90625 
L 20.21875 43.015625 
L 29.109375 43.015625 
Q 36.375 43.015625 40.234375 45.921875 
Q 44.09375 48.828125 44.09375 54.296875 
Q 44.09375 59.90625 40.109375 62.90625 
Q 36.140625 65.921875 28.71875 65.921875 
Q 24.65625 65.921875 20.015625 65.03125 
Q 15.375 64.15625 9.8125 62.3125 
L 9.8125 71.09375 
Q 15.4375 72.65625 20.34375 73.4375 
Q 25.25 74.21875 29.59375 74.21875 
Q 40.828125 74.21875 47.359375 69.109375 
Q 53.90625 64.015625 53.90625 55.328125 
Q 53.90625 49.265625 50.4375 45.09375 
Q 46.96875 40.921875 40.578125 39.3125 
z
" id="DejaVuSans-51"/>
    </defs>
    <g style="fill:#b2b2b2;" transform="translate(377.403279 89.024602)scale(0.1 -0.1)">
     <use xlink:href="#DejaVuSans-51"/>
     <use x="63.623047" xlink:href="#DejaVuSans-100"/>
    </g>
   </g>
   <g id="text_30">
    <!-- 7d -->
    <g style="fill:#b2b2b2;" transform="translate(761.338642 86.321743)scale(0.1 -0.1)">
     <use xlink:href="#DejaVuSans-55"/>
     <use x="63.623047" xlink:href="#DejaVuSans-100"/>
    </g>
   </g>
   <g id="text_31">
    <!-- COVID-19 Deaths by States as of 2020-04-24 19:20 EDT -->
    <defs>
     <path d="M 4.890625 31.390625 
L 31.203125 31.390625 
L 31.203125 23.390625 
L 4.890625 23.390625 
z
" id="DejaVuSans-45"/>
     <path d="M 10.984375 1.515625 
L 10.984375 10.5 
Q 14.703125 8.734375 18.5 7.8125 
Q 22.3125 6.890625 25.984375 6.890625 
Q 35.75 6.890625 40.890625 13.453125 
Q 46.046875 20.015625 46.78125 33.40625 
Q 43.953125 29.203125 39.59375 26.953125 
Q 35.25 24.703125 29.984375 24.703125 
Q 19.046875 24.703125 12.671875 31.3125 
Q 6.296875 37.9375 6.296875 49.421875 
Q 6.296875 60.640625 12.9375 67.421875 
Q 19.578125 74.21875 30.609375 74.21875 
Q 43.265625 74.21875 49.921875 64.515625 
Q 56.59375 54.828125 56.59375 36.375 
Q 56.59375 19.140625 48.40625 8.859375 
Q 40.234375 -1.421875 26.421875 -1.421875 
Q 22.703125 -1.421875 18.890625 -0.6875 
Q 15.09375 0.046875 10.984375 1.515625 
z
M 30.609375 32.421875 
Q 37.25 32.421875 41.125 36.953125 
Q 45.015625 41.5 45.015625 49.421875 
Q 45.015625 57.28125 41.125 61.84375 
Q 37.25 66.40625 30.609375 66.40625 
Q 23.96875 66.40625 20.09375 61.84375 
Q 16.21875 57.28125 16.21875 49.421875 
Q 16.21875 41.5 20.09375 36.953125 
Q 23.96875 32.421875 30.609375 32.421875 
z
" id="DejaVuSans-57"/>
     <path d="M 48.6875 27.296875 
Q 48.6875 37.203125 44.609375 42.84375 
Q 40.53125 48.484375 33.40625 48.484375 
Q 26.265625 48.484375 22.1875 42.84375 
Q 18.109375 37.203125 18.109375 27.296875 
Q 18.109375 17.390625 22.1875 11.75 
Q 26.265625 6.109375 33.40625 6.109375 
Q 40.53125 6.109375 44.609375 11.75 
Q 48.6875 17.390625 48.6875 27.296875 
z
M 18.109375 46.390625 
Q 20.953125 51.265625 25.265625 53.625 
Q 29.59375 56 35.59375 56 
Q 45.5625 56 51.78125 48.09375 
Q 58.015625 40.1875 58.015625 27.296875 
Q 58.015625 14.40625 51.78125 6.484375 
Q 45.5625 -1.421875 35.59375 -1.421875 
Q 29.59375 -1.421875 25.265625 0.953125 
Q 20.953125 3.328125 18.109375 8.203125 
L 18.109375 0 
L 9.078125 0 
L 9.078125 75.984375 
L 18.109375 75.984375 
z
" id="DejaVuSans-98"/>
     <path d="M 30.609375 48.390625 
Q 23.390625 48.390625 19.1875 42.75 
Q 14.984375 37.109375 14.984375 27.296875 
Q 14.984375 17.484375 19.15625 11.84375 
Q 23.34375 6.203125 30.609375 6.203125 
Q 37.796875 6.203125 41.984375 11.859375 
Q 46.1875 17.53125 46.1875 27.296875 
Q 46.1875 37.015625 41.984375 42.703125 
Q 37.796875 48.390625 30.609375 48.390625 
z
M 30.609375 56 
Q 42.328125 56 49.015625 48.375 
Q 55.71875 40.765625 55.71875 27.296875 
Q 55.71875 13.875 49.015625 6.21875 
Q 42.328125 -1.421875 30.609375 -1.421875 
Q 18.84375 -1.421875 12.171875 6.21875 
Q 5.515625 13.875 5.515625 27.296875 
Q 5.515625 40.765625 12.171875 48.375 
Q 18.84375 56 30.609375 56 
z
" id="DejaVuSans-111"/>
     <path d="M 37.109375 75.984375 
L 37.109375 68.5 
L 28.515625 68.5 
Q 23.6875 68.5 21.796875 66.546875 
Q 19.921875 64.59375 19.921875 59.515625 
L 19.921875 54.6875 
L 34.71875 54.6875 
L 34.71875 47.703125 
L 19.921875 47.703125 
L 19.921875 0 
L 10.890625 0 
L 10.890625 47.703125 
L 2.296875 47.703125 
L 2.296875 54.6875 
L 10.890625 54.6875 
L 10.890625 58.5 
Q 10.890625 67.625 15.140625 71.796875 
Q 19.390625 75.984375 28.609375 75.984375 
z
" id="DejaVuSans-102"/>
     <path d="M 11.71875 12.40625 
L 22.015625 12.40625 
L 22.015625 0 
L 11.71875 0 
z
M 11.71875 51.703125 
L 22.015625 51.703125 
L 22.015625 39.3125 
L 11.71875 39.3125 
z
" id="DejaVuSans-58"/>
    </defs>
    <g style="fill:#666666;" transform="translate(310.883438 63.12)scale(0.12 -0.12)">
     <use xlink:href="#DejaVuSans-67"/>
     <use x="69.824219" xlink:href="#DejaVuSans-79"/>
     <use x="146.785156" xlink:href="#DejaVuSans-86"/>
     <use x="215.193359" xlink:href="#DejaVuSans-73"/>
     <use x="244.685547" xlink:href="#DejaVuSans-68"/>
     <use x="321.6875" xlink:href="#DejaVuSans-45"/>
     <use x="357.771484" xlink:href="#DejaVuSans-49"/>
     <use x="421.394531" xlink:href="#DejaVuSans-57"/>
     <use x="485.017578" xlink:href="#DejaVuSans-32"/>
     <use x="516.804688" xlink:href="#DejaVuSans-68"/>
     <use x="593.806641" xlink:href="#DejaVuSans-101"/>
     <use x="655.330078" xlink:href="#DejaVuSans-97"/>
     <use x="716.609375" xlink:href="#DejaVuSans-116"/>
     <use x="755.818359" xlink:href="#DejaVuSans-104"/>
     <use x="819.197266" xlink:href="#DejaVuSans-115"/>
     <use x="871.296875" xlink:href="#DejaVuSans-32"/>
     <use x="903.083984" xlink:href="#DejaVuSans-98"/>
     <use x="966.560547" xlink:href="#DejaVuSans-121"/>
     <use x="1025.740234" xlink:href="#DejaVuSans-32"/>
     <use x="1057.527344" xlink:href="#DejaVuSans-83"/>
     <use x="1121.003906" xlink:href="#DejaVuSans-116"/>
     <use x="1160.212891" xlink:href="#DejaVuSans-97"/>
     <use x="1221.492188" xlink:href="#DejaVuSans-116"/>
     <use x="1260.701172" xlink:href="#DejaVuSans-101"/>
     <use x="1322.224609" xlink:href="#DejaVuSans-115"/>
     <use x="1374.324219" xlink:href="#DejaVuSans-32"/>
     <use x="1406.111328" xlink:href="#DejaVuSans-97"/>
     <use x="1467.390625" xlink:href="#DejaVuSans-115"/>
     <use x="1519.490234" xlink:href="#DejaVuSans-32"/>
     <use x="1551.277344" xlink:href="#DejaVuSans-111"/>
     <use x="1612.458984" xlink:href="#DejaVuSans-102"/>
     <use x="1647.664062" xlink:href="#DejaVuSans-32"/>
     <use x="1679.451172" xlink:href="#DejaVuSans-50"/>
     <use x="1743.074219" xlink:href="#DejaVuSans-48"/>
     <use x="1806.697266" xlink:href="#DejaVuSans-50"/>
     <use x="1870.320312" xlink:href="#DejaVuSans-48"/>
     <use x="1933.943359" xlink:href="#DejaVuSans-45"/>
     <use x="1970.027344" xlink:href="#DejaVuSans-48"/>
     <use x="2033.650391" xlink:href="#DejaVuSans-52"/>
     <use x="2097.273438" xlink:href="#DejaVuSans-45"/>
     <use x="2133.357422" xlink:href="#DejaVuSans-50"/>
     <use x="2196.980469" xlink:href="#DejaVuSans-52"/>
     <use x="2260.603516" xlink:href="#DejaVuSans-32"/>
     <use x="2292.390625" xlink:href="#DejaVuSans-49"/>
     <use x="2356.013672" xlink:href="#DejaVuSans-57"/>
     <use x="2419.636719" xlink:href="#DejaVuSans-58"/>
     <use x="2453.328125" xlink:href="#DejaVuSans-50"/>
     <use x="2516.951172" xlink:href="#DejaVuSans-48"/>
     <use x="2580.574219" xlink:href="#DejaVuSans-32"/>
     <use x="2612.361328" xlink:href="#DejaVuSans-69"/>
     <use x="2675.544922" xlink:href="#DejaVuSans-68"/>
     <use x="2752.546875" xlink:href="#DejaVuSans-84"/>
    </g>
   </g>
  </g>
 </g>
 <defs>
  <clipPath id="p7561b81810">
   <rect height="443.52" width="725.4" x="117" y="69.12"/>
  </clipPath>
 </defs>
</svg>
